<?xml version="1.0" encoding="UTF-8" standalone="no"?>
<!-- Created with Inkscape (http://www.inkscape.org/) -->

<svg
   width="15.999999"
   height="15.999999"
   viewBox="0 0 4.233333 4.233333"
   version="1.1"
   id="svg5"
   xml:space="preserve"
   inkscape:version="1.2.2 (b0a8486541, 2022-12-01)"
   sodipodi:docname="16x16.svg"
   inkscape:export-filename="finished/16x16.png"
   inkscape:export-xdpi="96"
   inkscape:export-ydpi="96"
   xmlns:inkscape="http://www.inkscape.org/namespaces/inkscape"
   xmlns:sodipodi="http://sodipodi.sourceforge.net/DTD/sodipodi-0.dtd"
   xmlns="http://www.w3.org/2000/svg"
   xmlns:svg="http://www.w3.org/2000/svg"><sodipodi:namedview
     id="namedview7"
     pagecolor="#ffffff"
     bordercolor="#000000"
     borderopacity="0.25"
     inkscape:showpageshadow="2"
     inkscape:pageopacity="0.0"
     inkscape:pagecheckerboard="0"
     inkscape:deskcolor="#d1d1d1"
     inkscape:document-units="mm"
     showgrid="false"
     inkscape:lockguides="false"
     inkscape:zoom="0.35355339"
     inkscape:cx="694.37886"
     inkscape:cy="1144.0988"
     inkscape:window-width="1920"
     inkscape:window-height="1020"
     inkscape:window-x="0"
     inkscape:window-y="0"
     inkscape:window-maximized="1"
     inkscape:current-layer="layer1" /><defs
     id="defs2" /><g
     inkscape:label="Layer 1"
     inkscape:groupmode="layer"
     id="layer1"
     transform="translate(271.46249,218.81041)"><path
       id="path186"
       style="fill:#ffffff;stroke-width:0.0110485"
       transform="matrix(0.26458333,0,0,0.26458333,-271.46249,-218.81041)"
       d="m 7.0292969,4.4726562 a 0.06097963,0.06097963 0 0 0 -0.048828,0.015625 L 6.7402344,4.7148438 C 6.4511456,4.9862632 6.4622125,4.9727918 6.171875,5.3300781 6.0361325,5.4971211 5.9644324,5.5851793 5.9257812,5.6269531 c -0.018118,0.019582 -0.026864,0.027598 -0.029297,0.029297 -0.00546,-3.2e-5 -0.00286,1.562e-4 -0.00391,0 -0.00601,-0.015788 -0.015381,-0.072758 -0.021484,-0.171875 L 5.8632812,5.3574219 A 0.06097963,0.06097963 0 0 0 5.8496094,5.3222656 L 5.5351562,4.9492188 C 5.4488076,4.8461208 5.3687245,4.7518521 5.3105469,4.6835938 c -0.029089,-0.034129 -0.051208,-0.060568 -0.068359,-0.080078 -0.00858,-0.00975 -0.016029,-0.017584 -0.021484,-0.023437 -0.00273,-0.00293 -0.00499,-0.00509 -0.00781,-0.00781 -0.00141,-0.00136 -0.00546,-0.00554 -0.00586,-0.00586 -2.016e-4,-1.611e-4 -0.00768,-0.00578 -0.00781,-0.00586 -6.76e-5,-4.01e-5 -0.00971,-0.00389 -0.00977,-0.00391 0,0 -0.00925,0.024571 -0.015625,0.041016 a 0.06097963,0.06097963 0 0 0 -0.00781,-0.044922 c -0.00432,1.321e-4 -0.09849,0.00957 -0.2050781,0.021484 -0.1060236,0.011851 -0.1947019,0.021352 -0.2011719,0.021484 -4.044e-4,8.3e-6 -0.019058,0.00375 -0.019531,0.00391 -4.733e-4,1.596e-4 -0.00854,0.00211 -0.011719,0.00391 -0.00636,0.0036 -0.010184,0.00669 -0.013672,0.00977 -0.00698,0.00615 -0.010958,0.013519 -0.015625,0.019531 -0.00933,0.012024 -0.017987,0.023745 -0.025391,0.039063 C 4.5833059,4.859146 4.2861016,5.5359027 3.9980469,6.2089844 L 3.6523438,7.015625 a 0.06097963,0.06097963 0 0 0 -0.00391,0.035156 l 0.109375,0.53125 0.1074219,0.53125 a 0.06097963,0.06097963 0 0 0 0.00195,0.00781 l 0.2167969,0.6503906 c 0.06875,0.2049856 0.1262013,0.3699549 0.1679687,0.4863281 0.020884,0.058187 0.037694,0.1035246 0.050781,0.1367187 0.00654,0.016597 0.012738,0.030272 0.017578,0.041016 0.00242,0.00537 0.00532,0.010933 0.00781,0.015625 0.00125,0.00235 0.00219,0.00313 0.00391,0.00586 0.00172,0.00273 0.00735,0.011201 0.00781,0.011719 0.00959,0.010694 0.017823,0.018757 0.037109,0.037109 0.019287,0.018352 0.044931,0.043091 0.076172,0.072266 0.062481,0.058349 0.1460769,0.134268 0.234375,0.2148438 0.268059,0.2446148 0.355467,0.3156088 0.5019531,0.4140618 0.068773,0.04622 0.1124915,0.07513 0.1464844,0.09375 0.033993,0.01863 0.060494,0.03436 0.1015625,0.02344 0.023659,-0.0063 0.026276,-0.01058 0.037109,-0.01758 0.010833,-0.007 0.023217,-0.01518 0.037109,-0.02539 0.027785,-0.02042 0.061471,-0.04785 0.095703,-0.07617 0.143849,-0.11903 0.2693336,-0.2252723 0.359375,-0.3027338 0.045021,-0.038731 0.080121,-0.068813 0.1054687,-0.091797 0.012674,-0.011492 0.023579,-0.02168 0.03125,-0.029297 0.00384,-0.00381 0.00622,-0.00759 0.00977,-0.011719 0.00177,-0.00206 0.00506,-0.00368 0.00781,-0.00781 0.00138,-0.00207 0.0038,-0.00954 0.00391,-0.00977 5.22e-5,-1.135e-4 0.00388,-0.00772 0.00391,-0.00781 1.18e-5,-4.16e-5 0.00143,-0.00406 0.00195,-0.00781 5.48e-5,-3.095e-4 -6.9e-5,-0.00123 0,-0.00195 0.00135,-0.00431 0.0035,-0.011206 0.00781,-0.023437 0.00863,-0.024463 0.024007,-0.065488 0.048828,-0.1328125 0.049643,-0.1346482 0.1383064,-0.373938 0.2949219,-0.7949219 0.030415,-0.081755 0.061137,-0.1584127 0.083984,-0.2167969 0.011424,-0.029192 0.020062,-0.05467 0.027344,-0.072266 0.00364,-0.0088 0.00763,-0.016697 0.00977,-0.021484 0,0 0,-0.00195 0,-0.00195 -0.00436,0.00687 -0.00104,0.00164 0.00781,0.00195 0.00742,2.634e-4 0.00972,0.00291 0.00977,0.00195 -4.703e-4,0.00166 2.844e-4,0.013257 -0.00977,0.044922 -0.022789,0.071802 -0.078768,0.2207496 -0.1933593,0.5292969 -0.1016341,0.2736578 -0.2064985,0.56055 -0.234375,0.6367188 l -0.044922,0.1230469 -0.1875,0.1542968 C 5.8416552,10.054087 5.6829681,10.188454 5.5976562,10.261719 L 5.4492188,10.390625 5.1015625,10.5625 4.7480469,10.740234 a 0.06097963,0.06097963 0 0 0 -0.029297,0.0332 l -0.080078,0.214843 c -0.022168,0.05949 -0.042411,0.114608 -0.056641,0.15625 -0.00711,0.02082 -0.013564,0.03912 -0.017578,0.05274 -0.00201,0.0068 -0.00257,0.01137 -0.00391,0.01758 -6.697e-4,0.0031 -0.00146,0.0065 -0.00195,0.01172 -2.448e-4,0.0026 -2.33e-5,0.01138 0,0.01172 1.16e-5,1.71e-4 0.00192,0.0096 0.00195,0.0098 3e-5,1.25e-4 0.00581,0.0175 0.00586,0.01758 4.86e-5,7.9e-5 0.00967,0.01162 0.00977,0.01172 9.83e-5,1.02e-4 0.00376,0.0038 0.00391,0.0039 2.949e-4,2.53e-4 0.0044,0.0029 0.00586,0.0039 0.00292,0.0021 0.00541,0.0044 0.00781,0.0059 0.0048,0.0029 0.00906,0.0061 0.015625,0.0098 0.013137,0.0073 0.03124,0.0161 0.052734,0.02734 0.042989,0.02248 0.1010866,0.05226 0.1640625,0.08398 0.063009,0.03174 0.1212651,0.06106 0.1640625,0.08203 0.021399,0.01049 0.038206,0.01742 0.050781,0.02344 0.00629,0.003 0.01174,0.006 0.015625,0.0078 0.00194,8.95e-4 0.00409,0.0012 0.00586,0.002 0,0 0.00195,0.002 0.00195,0.002 7.662e-4,2.97e-4 0.00382,0.0019 0.00391,0.002 9.11e-5,3e-5 0.011678,0.0019 0.011719,0.002 6.25e-5,8e-6 0.00768,2e-6 0.00781,0 1.361e-4,-10e-7 0.00317,3.7e-5 0.00391,0 0.00146,-7.4e-5 0.00285,8.6e-5 0.00391,0 0.00212,-1.71e-4 0.00315,2.72e-4 0.00586,0 0.00542,-5.44e-4 0.014314,-9.34e-4 0.023437,-0.002 0.018246,-0.002 0.043036,-0.0061 0.074219,-0.0098 0.062365,-0.0074 0.1469554,-0.01814 0.2382812,-0.0293 0.1826516,-0.02232 0.3917491,-0.04762 0.5039062,-0.0625 l 0.2089844,-0.0293 a 0.06097963,0.06097963 0 0 0 0.011719,-0.002 L 6.6875,11.226562 c 0.2480852,-0.08126 0.3799504,-0.124596 0.4648438,-0.15625 0.084893,-0.03165 0.1254483,-0.05496 0.1738281,-0.08594 0.084415,-0.05406 1.562857,-0.941443 1.6699219,-1.0019531 0.014482,-0.00818 0.031832,-0.016254 0.044922,-0.021484 0.013089,-0.00523 0.029737,-0.00586 0.013672,-0.00586 0.004,0 0.00666,0.00825 0.00391,0.013672 -0.0026,0.00173 -0.0052,0.00489 -0.00977,0.00781 -0.011133,0.00712 -0.02818,0.016529 -0.048828,0.029296 -0.041296,0.02554 -0.09828,0.06202 -0.1699219,0.105469 -0.1432841,0.0869 -0.3390583,0.20311 -0.5507812,0.330078 -0.2119013,0.127076 -0.4053142,0.244926 -0.5449219,0.330078 -0.069804,0.04258 -0.1247637,0.07716 -0.1640625,0.101563 -0.019649,0.0122 -0.036142,0.02048 -0.046875,0.02734 -0.00537,0.0034 -0.00825,0.0074 -0.011719,0.0098 -0.00174,0.0012 -0.00369,0.0023 -0.00586,0.0039 -0.00108,8.1e-4 -0.00569,0.0038 -0.00586,0.0039 -8.4e-5,7.5e-5 -0.00582,0.0058 -0.00586,0.0059 0,0 0.046875,0.03906 0.046875,0.03906 4.38e-5,4.6e-5 -0.027431,0.05464 -0.027344,0.05469 1.742e-4,8.9e-5 0.013328,0.0058 0.013672,0.0059 6.882e-4,1.6e-4 0.00899,0.0017 0.011719,0.002 0.00546,5.18e-4 0.00981,-1.48e-4 0.015625,0 0.011628,2.95e-4 0.028264,2.04e-4 0.046875,0 0.037223,-4.1e-4 0.086792,-0.002 0.1425781,-0.0039 0.1094422,-0.0038 0.4436357,-0.01138 0.7382813,-0.01758 0.5273796,-0.01106 0.5483996,-0.01189 0.7226562,-0.04492 0.1993074,-0.03779 0.4965168,-0.09673 0.75,-0.146484 0.1267421,-0.02488 0.2432991,-0.0471 0.3300781,-0.06445 0.08678,-0.01735 0.13775,-0.02802 0.158203,-0.0332 0.02165,-0.0055 0.0623,-0.01775 0.126953,-0.03906 0.06465,-0.02132 0.147164,-0.04904 0.232422,-0.07813 l 0.308594,-0.105468 a 0.06097963,0.06097963 0 0 0 0.02344,-0.01563 l 0.152343,-0.15625 c 0.0417,-0.04329 0.08013,-0.08377 0.107422,-0.113281 0.01365,-0.01475 0.02525,-0.02614 0.0332,-0.03516 0.004,-0.0045 0.0069,-0.0082 0.0098,-0.01172 0.0014,-0.0018 0.0017,-0.0046 0.0039,-0.0078 0.0011,-0.0016 0.0058,-0.0076 0.0059,-0.0078 4.5e-5,-9.2e-5 0.0039,-0.01361 0.0039,-0.01367 0,0 -0.05859,-0.01367 -0.05859,-0.01367 -9.4e-5,-7e-6 -0.0037,-0.06056 -0.0039,-0.06055 -3.34e-4,2e-5 -0.0044,-2.06e-4 -0.0059,0 -0.0029,4.12e-4 -0.005,0.0014 -0.0078,0.002 -0.0055,10e-4 -0.01257,0.002 -0.02148,0.0039 -0.01782,0.0037 -0.04345,0.0088 -0.07422,0.01563 -0.06155,0.01358 -0.146245,0.03379 -0.238281,0.05469 L 10.7227,10.205298 10.349653,10.09397 C 9.9189355,9.9660774 9.6150838,9.8774921 9.4101562,9.8183594 9.2052287,9.7592267 9.106203,9.7302055 9.0605469,9.7226562 9.0197903,9.7159171 8.7883809,9.6810187 8.5390625,9.6445312 8.2224338,9.5981933 8.0675536,9.5771479 7.9941406,9.5644531 c -0.030171,-0.00522 -0.039105,-0.00817 -0.044922,-0.00977 -4.758e-4,-0.00147 -0.00142,-0.00212 -0.00195,-0.00391 -0.00365,-0.012178 -0.00817,-0.030413 -0.013672,-0.054687 -0.011,-0.048549 -0.023766,-0.1176275 -0.039063,-0.2050782 -0.033422,-0.1910704 -0.048925,-0.2828922 -0.052734,-0.3203125 -7.881e-4,-0.00774 -0.00206,-0.00154 -0.00195,-0.00391 0.00392,-0.00241 0.00936,-0.00413 0.015625,-0.00781 0.015659,-0.0092 0.036333,-0.022417 0.0625,-0.037109 0.052334,-0.029384 0.1227598,-0.067113 0.1933593,-0.1054688 0.0706,-0.038355 0.1424294,-0.078426 0.2011719,-0.109375 0.058742,-0.030949 0.1060414,-0.053774 0.1171875,-0.058594 -1.615e-4,6.99e-5 0.030129,-0.0026 0.033203,-0.00195 0.081687,0.017223 0.3205863,0.073972 0.5429688,0.1289062 0.1111912,0.027467 0.219003,0.0552 0.3007812,0.076172 0.040889,0.010486 0.074283,0.018563 0.099609,0.025391 0.025327,0.00683 0.047487,0.014289 0.041016,0.011719 1.587e-4,6.3e-5 0.023331,0.010861 0.052734,0.025391 0.029403,0.01453 0.06881,0.03312 0.1152344,0.056641 0.09285,0.047041 0.2151094,0.1104719 0.3417968,0.1757813 0.1270785,0.065511 0.2482895,0.1257159 0.3417965,0.171875 0.04675,0.023079 0.08696,0.042361 0.117188,0.056641 0.03023,0.01428 0.04366,0.023161 0.0625,0.029297 0.03742,0.012186 0.227045,0.066327 0.4375,0.1269531 l 0.382812,0.1113281 a 0.06097963,0.06097963 0 0 0 0.03711,-0.00195 L 11.732422,9.5 12.128906,9.359375 a 0.06097963,0.06097963 0 0 0 0.0332,-0.025391 l 0.08399,-0.1367188 0.002,-0.00195 c 0.03581,-0.057313 0.05865,-0.09521 0.07226,-0.125 0.01387,-0.030341 0.01882,-0.063221 0.01367,-0.087891 -0.0081,-0.038686 -0.05584,-0.240207 -0.107422,-0.4589844 C 12.174983,8.3046601 12.119086,8.0735389 12.097656,7.9863281 12.059623,7.8315587 12.010415,7.6958814 11.767578,7.078125 11.666116,6.8200139 11.59345,6.6357533 11.542969,6.5136719 11.517728,6.4526312 11.497471,6.4077158 11.482422,6.375 11.474922,6.358642 11.468702,6.344799 11.462892,6.333984 11.457092,6.32317 11.454692,6.316205 11.441402,6.302734 11.429262,6.290389 11.418772,6.282074 11.396482,6.263671 11.374192,6.245268 11.344322,6.22216 11.308592,6.193359 11.237142,6.135756 11.1428,6.059183 11.042967,5.9804684 10.875384,5.8483359 10.783036,5.7770752 10.716795,5.7304684 10.650555,5.6838614 10.608187,5.6617564 10.554686,5.6386714 10.493466,5.6122554 10.186955,5.4777274 9.8730449,5.3398433 L 9.3027344,5.0878906 a 0.06097963,0.06097963 0 0 0 -0.027344,-0.00391 l -0.6445312,0.027344 -0.6445313,0.027344 a 0.06097963,0.06097963 0 0 0 -0.015625,0.00195 L 7.75,5.2070312 c -0.1217071,0.036946 -0.2605819,0.079694 -0.3066406,0.09375 -0.047693,0.014555 -0.097109,0.029581 -0.1308594,0.046875 -0.010664,0.00546 -0.014147,0.00845 -0.025391,0.015625 -0.011244,0.00718 -0.02649,0.017237 -0.044922,0.029297 C 7.205324,5.4166992 7.154674,5.4497942 7.09375,5.4902342 6.9719028,5.5711141 6.8094998,5.6800025 6.6347656,5.796875 5.8971916,6.2902078 6.0079702,6.1931653 5.3085938,6.9414062 5.0814164,7.1844563 4.8719817,7.4062161 4.8476562,7.4316406 l -0.048828,0.050781 a 0.06097963,0.06097963 0 0 0 -0.013672,0.027344 l -0.076172,0.3007813 c -0.020728,0.082141 -0.04178,0.1600071 -0.058594,0.21875 -0.00841,0.029371 -0.015864,0.054833 -0.021484,0.072266 -0.00281,0.00872 -0.0062,0.015197 -0.00781,0.019531 2.405e-4,-4.326e-4 0.0021,-2.23e-4 0.00195,0 -0.00912,0.013913 -0.00358,0.00714 -0.00195,0.00781 4.503e-4,1.86e-4 -0.00142,-0.00544 -0.00195,-0.00586 -0.00139,-0.0011 -0.00454,-0.00139 -0.00391,-0.015625 -1.173e-4,0.00262 0.00218,-0.013618 0.00586,-0.033203 0.00368,-0.019586 0.00926,-0.044568 0.015625,-0.074219 0.012722,-0.059302 0.029301,-0.1348168 0.046875,-0.2089844 0.017574,-0.074168 0.035947,-0.1481238 0.050781,-0.2050781 0.00742,-0.028477 0.014361,-0.052569 0.019531,-0.070312 0.00517,-0.017744 0.013331,-0.033876 0.00781,-0.023437 -0.00416,0.00788 0.00963,-0.015689 0.027344,-0.037109 0.01771,-0.02142 0.041364,-0.04876 0.064453,-0.074219 C 4.913687,7.3145139 5.1751961,7.0340341 5.4238281,6.7695312 5.5481441,6.6372798 5.6698518,6.5092476 5.7617188,6.4121094 5.8076522,6.3635402 5.8471376,6.3221675 5.875,6.2929688 c 0.013931,-0.014599 0.025137,-0.024875 0.033203,-0.033203 0.00807,-0.00833 0.01625,-0.017704 0.011719,-0.013672 0.00157,-0.0014 0.00146,-6.073e-4 0.011719,-0.00781 0.010254,-0.00721 0.026434,-0.018527 0.044922,-0.03125 C 6.013539,6.1815888 6.065434,6.1466468 6.1289067,6.1035182 6.2558523,6.0172612 6.426679,5.9009956 6.6132817,5.7753932 L 7.2929688,5.3183594 a 0.06097963,0.06097963 0 0 0 0.025391,-0.033203 L 7.4199219,4.9492188 c 0.028066,-0.092437 0.053856,-0.1761519 0.072266,-0.2382813 0.00921,-0.031065 0.016277,-0.058202 0.021484,-0.076172 0.0026,-0.00899 0.0044,-0.01432 0.00586,-0.019531 7.293e-4,-0.00261 0.00145,-0.0059 0.00195,-0.00781 0,0 0,-0.00195 0,-0.00195 1.5e-4,-6.353e-4 0.00193,-0.00378 0.00195,-0.00391 2.44e-5,-1.23e-4 -2.5e-6,-0.00776 0,-0.00781 0,0 -0.060547,-0.00391 -0.060547,-0.00391 0,0 0.054687,-0.029297 0.054687,-0.029297 0,0 -0.00391,-0.00391 -0.00391,-0.00391 -4.58e-5,-5.51e-5 -0.017485,-0.017518 -0.017578,-0.017578 -1.871e-4,-1.206e-4 -0.011087,-0.00684 -0.013672,-0.00781 -0.00517,-0.00194 -0.00707,-0.00129 -0.00977,-0.00195 -0.0054,-0.00132 -0.00937,-0.0028 -0.015625,-0.00391 -0.012511,-0.00222 -0.03038,-0.00492 -0.050781,-0.00781 C 7.3654485,4.5118 7.3111815,4.5050892 7.25,4.4980469 Z m 4.3632811,5.6445318 c 0,0 0.05859,-0.01758 0.05859,-0.01758 0,0 -0.0039,-0.0098 -0.0039,-0.0098 a 0.06097963,0.06097963 0 0 0 -0.0098,-0.01367 c 0,0 -0.01172,-0.0098 -0.01172,-0.0098 0,0 -0.0098,-0.0059 -0.0098,-0.0059 0,0 -0.0078,-0.002 -0.0078,-0.002 0,0 -0.01563,0.05859 -0.01563,0.05859 z M 9.296875,6.4121094 c 0.038555,-0.00435 0.098989,0.00163 0.2285156,0.017578 0.075448,0.00929 0.1200574,0.015462 0.1464844,0.021484 0.026427,0.00602 0.033374,0.00934 0.048828,0.019531 0.060546,0.039921 0.2328678,0.1663012 0.390625,0.2832031 0.07888,0.058451 0.155806,0.1145866 0.212891,0.1582032 0.02039,0.015577 0.03393,0.027397 0.04883,0.039063 C 10.283558,6.9223501 10.111124,6.8517663 9.7910156,6.7167969 9.6936867,6.6757589 9.5845558,6.630053 9.5488281,6.6152344 L 9.484375,6.5878906 a 0.06097963,0.06097963 0 0 0 -0.044922,0 L 9.2910156,6.6445312 C 9.1412564,6.7000692 9.1237879,6.7083785 8.890625,6.8847656 8.7911182,6.9600422 8.743383,6.9922709 8.7050781,7.015625 8.7099181,7.007785 8.7130881,7.00314 8.7187501,6.994141 8.7515031,6.942049 8.7970791,6.8703256 8.8476563,6.7949223 l 0.1757813,-0.2617188 0.125,-0.0625 c 0.080341,-0.04006 0.1098826,-0.054245 0.1484374,-0.058594 z m 0.3886719,0.5839844 c -0.016476,-0.00414 0.00242,0.00312 0.015625,0.013672 0.013205,0.01055 0.0293,0.024231 0.042969,0.039063 0.065841,0.071444 0.1690974,0.1896917 0.2578121,0.2929688 0.04436,0.051639 0.08516,0.1004375 0.115235,0.1367187 0.01504,0.018141 0.02838,0.033862 0.03711,0.044922 0.0087,0.01106 0.0162,0.024153 0.0098,0.011719 0.0011,0.0042 0.0021,0.011023 0.0039,0.019531 0.0036,0.017016 0.0086,0.039761 0.01367,0.068359 0.0101,0.057196 0.0216,0.1329406 0.0332,0.2128906 a 0.06097963,0.06097963 0 0 0 0,0.00195 l 0.04297,0.2929688 a 0.06097963,0.06097963 0 0 0 0.01172,0.027344 l 0.140625,0.1894531 c 0.07403,0.09925 0.114149,0.1571025 0.125,0.1816407 0.0054,0.012269 0.0029,0.010898 0.0039,0.00586 10e-4,-0.00504 0.0031,-0.0051 -0.0039,0.00195 0,0 -0.002,0.00195 -0.002,0.00195 0.0145,4.848e-4 0.0038,5.437e-4 -0.0039,-0.00195 -0.0077,-0.0025 -0.01808,-0.00658 -0.03125,-0.011719 -0.02633,-0.010273 -0.06095,-0.024757 -0.0957,-0.041016 -0.03677,-0.017204 -0.07227,-0.033 -0.101563,-0.044922 -0.01464,-0.00596 -0.02785,-0.011775 -0.03906,-0.015625 -0.0056,-0.00192 -0.01024,-0.00247 -0.01563,-0.00391 -0.0027,-7.2e-4 -0.0065,-0.00133 -0.0098,-0.00195 -0.0032,-6.198e-4 -0.01089,-0.00193 -0.01172,-0.00195 -0.01861,-5.465e-4 -0.02195,0.00186 -0.03516,0.00391 -0.01321,0.00205 -0.02949,0.00423 -0.04883,0.00781 -0.03869,0.00717 -0.0891,0.017988 -0.1406247,0.029297 -0.050247,0.011029 -0.09939,0.020036 -0.1386719,0.027344 -0.019641,0.00365 -0.036185,0.00586 -0.048828,0.00781 -0.012643,0.00195 -0.024947,0.00391 -0.019531,0.00391 0.019934,0 -0.0093,-0.00405 -0.050781,-0.027344 C 9.7007044,8.445452 9.638213,8.4073249 9.5488281,8.3496094 9.4821635,8.3065642 9.4181971,8.2637927 9.3691406,8.2304688 9.3446124,8.2138068 9.3239261,8.1984218 9.3085938,8.1875 9.2932618,8.176578 9.2797678,8.166723 9.2832028,8.169922 9.2871528,8.173602 9.2728358,8.155528 9.2539058,8.107422 9.2349758,8.059316 9.2095938,7.9822948 9.1699218,7.8632813 L 9.0683594,7.5605469 A 0.06097963,0.06097963 0 0 0 9.0214844,7.5195312 L 8.6757812,7.4492188 c -0.094676,-0.019295 -0.1835157,-0.03633 -0.25,-0.050781 -0.033242,-0.00723 -0.06011,-0.014906 -0.080078,-0.019531 -0.00998,-0.00231 -0.017858,-0.00445 -0.023437,-0.00586 -0.00558,-0.00141 -0.012174,-0.0024 -0.00586,0 0.00527,0.002 2.228e-4,-2.385e-4 -0.00195,-0.00586 -0.00218,-0.00562 -5.639e-4,-0.010861 -0.00195,-0.00781 0.00198,-0.00158 0.013695,-0.00912 0.037109,-0.019531 0.046829,-0.020823 0.1407168,-0.056621 0.3183594,-0.1230469 0.1727089,-0.064581 0.3430613,-0.1290883 0.3828124,-0.1445313 0.031362,-0.012184 0.1016416,-0.030575 0.1367188,-0.035156 0.082082,-0.010721 0.2056547,-0.021461 0.3105469,-0.029297 0.052446,-0.00392 0.1006862,-0.0082 0.1367187,-0.00977 0.018016,-7.831e-4 0.032471,2.14e-5 0.042969,0 0.010498,-2.15e-5 0.021604,0.00151 0.00781,-0.00195 z" /><path
       id="path182"
       style="fill:#ffffff;stroke-width:0.0110485"
       transform="matrix(0.26458333,0,0,0.26458333,-271.46249,-218.81041)"
       d="m 9.5546875,7.3828125 c -7.667e-4,1.24e-4 -0.024681,0.00749 -0.025391,0.00781 -7.094e-4,3.232e-4 -0.017174,0.00859 -0.023437,0.013672 -0.012528,0.010156 -0.020148,0.020274 -0.025391,0.029297 -0.020969,0.03609 -0.019201,0.055343 -0.023438,0.083984 -0.00424,0.028641 -0.00749,0.063791 -0.013672,0.1132813 l -0.015625,0.1308594 a 0.09258938,0.09258938 0 0 0 0.011719,0.056641 l 0.039063,0.070312 h -0.00195 c 0.02554,0.046463 0.048205,0.083188 0.085937,0.1152343 0.037732,0.032046 0.077772,0.051164 0.1367188,0.076172 0.056908,0.024143 0.094078,0.038546 0.1367187,0.044922 0.02132,0.00319 0.047692,0.00381 0.076172,-0.00781 0.02848,-0.011619 0.051905,-0.036844 0.0625,-0.056641 0.019822,-0.037036 0.014773,-0.056329 0.013672,-0.078125 -0.0011,-0.021796 -0.00469,-0.045155 -0.00977,-0.070312 C 9.9683578,7.8617949 9.9515398,7.8000441 9.9277344,7.7265625 9.8966852,7.6307215 9.8656637,7.5848883 9.796875,7.5273438 9.7554043,7.4926524 9.7014527,7.4505079 9.6699219,7.4277344 9.6570003,7.418402 9.648225,7.4078935 9.6230469,7.3945312 c -0.00629,-0.00334 -0.014204,-0.00677 -0.025391,-0.00977 -0.00559,-0.0015 -0.012169,-0.00139 -0.019531,-0.00195 -0.00736,-5.68e-4 -0.022671,-1.24e-4 -0.023437,0 z" /><path
       style="fill:#05243c;fill-opacity:1;stroke-width:0.00169333"
       d="m -270.12333,-215.73745 c -0.002,-7.8e-4 -0.0949,-0.047 -0.13933,-0.0695 -0.0231,-0.0117 -0.0255,-0.0186 -0.0156,-0.0445 0.003,-0.009 0.009,-0.0241 0.0127,-0.0339 0.004,-0.01 0.009,-0.0246 0.0125,-0.033 0.003,-0.008 0.01,-0.0255 0.0146,-0.0379 0.009,-0.0247 0.0134,-0.0315 0.0191,-0.0333 0.002,-6.3e-4 0.0144,-0.006 0.0275,-0.0126 0.013,-0.006 0.0336,-0.0162 0.0457,-0.022 0.0386,-0.0185 0.0743,-0.0358 0.0798,-0.0385 l 0.005,-0.003 -0.004,-0.004 c -0.002,-0.002 -0.01,-0.007 -0.0163,-0.011 -0.007,-0.004 -0.0134,-0.009 -0.0152,-0.0102 -0.002,-0.002 -0.0102,-0.007 -0.0186,-0.0126 -0.0302,-0.0192 -0.0338,-0.022 -0.077,-0.062 -0.0117,-0.0108 -0.03,-0.0276 -0.0408,-0.0373 -0.0414,-0.0372 -0.0857,-0.0776 -0.0949,-0.0864 l -0.01,-0.009 -0.0112,-0.0339 c -0.006,-0.0186 -0.0311,-0.0929 -0.0555,-0.1651 -0.053,-0.15719 -0.0533,-0.15819 -0.0567,-0.17434 -10e-4,-0.007 -0.005,-0.0234 -0.008,-0.0365 -0.003,-0.013 -0.006,-0.0309 -0.008,-0.0398 -0.002,-0.009 -0.006,-0.0271 -0.008,-0.0406 -0.003,-0.0135 -0.007,-0.0318 -0.008,-0.0406 -0.002,-0.009 -0.006,-0.0271 -0.008,-0.0406 -0.003,-0.0135 -0.006,-0.028 -0.007,-0.0322 -8.8e-4,-0.004 -0.003,-0.013 -0.004,-0.0195 -0.005,-0.0232 -0.006,-0.0283 -0.005,-0.0328 10e-4,-0.005 0.0178,-0.0447 0.0474,-0.11315 0.01,-0.0225 0.0187,-0.0439 0.02,-0.0476 10e-4,-0.004 0.003,-0.008 0.004,-0.01 9.8e-4,-0.002 0.008,-0.0188 0.0163,-0.0379 0.008,-0.0191 0.0156,-0.037 0.0169,-0.0398 0.005,-0.011 0.0381,-0.0885 0.0381,-0.0894 0,-8.2e-4 0.0742,-0.16913 0.0842,-0.19086 0.002,-0.005 0.006,-0.0125 0.007,-0.0165 0.005,-0.0105 0.01,-0.0214 0.0132,-0.0296 0.002,-0.004 0.007,-0.0144 0.0107,-0.0233 0.004,-0.009 0.0116,-0.0255 0.0167,-0.0371 0.005,-0.0126 0.0107,-0.022 0.0129,-0.0234 0.005,-0.003 0.0135,-0.004 0.0865,-0.0116 0.0489,-0.005 0.0609,-0.006 0.0657,-0.004 0.005,0.002 0.0153,0.0131 0.0571,0.063 0.0281,0.0336 0.0678,0.0809 0.0882,0.10524 0.0204,0.0243 0.0384,0.0473 0.0401,0.051 0.002,0.004 0.004,0.0134 0.004,0.0229 6.3e-4,0.009 0.002,0.017 0.002,0.0182 7.2e-4,0.001 0.007,-0.005 0.0171,-0.0175 0.0207,-0.0254 0.0523,-0.0641 0.082,-0.10065 0.013,-0.016 0.026,-0.031 0.0288,-0.0333 0.003,-0.002 0.0124,-0.0112 0.0213,-0.0197 0.018,-0.0172 0.0238,-0.0226 0.0592,-0.0552 0.0135,-0.0124 0.0308,-0.0286 0.0385,-0.036 0.008,-0.007 0.0174,-0.0149 0.0216,-0.0168 l 0.008,-0.003 0.0292,0.003 c 0.016,0.002 0.0433,0.005 0.0605,0.007 0.0678,0.008 0.0709,0.008 0.0756,0.0198 0.003,0.006 0.002,0.009 -0.0316,0.11988 -0.0164,0.054 -0.0203,0.0674 -0.0203,0.0686 0,0.001 0.009,-0.001 0.0364,-0.009 0.008,-0.003 0.0198,-0.006 0.0254,-0.008 0.006,-0.002 0.0266,-0.008 0.0467,-0.0141 l 0.0366,-0.0111 0.17447,-0.007 c 0.096,-0.004 0.17588,-0.006 0.17762,-0.006 0.002,6.2e-4 0.0685,0.03 0.14846,0.0652 0.0799,0.0352 0.14578,0.0641 0.14636,0.0641 5.8e-4,0 0.004,0.002 0.008,0.003 0.004,0.002 0.0107,0.005 0.0149,0.007 0.004,0.002 0.0109,0.005 0.0148,0.007 0.004,0.002 0.0118,0.005 0.0174,0.007 0.0163,0.007 0.0322,0.0163 0.0462,0.0276 0.007,0.006 0.0205,0.0165 0.0296,0.0238 0.009,0.007 0.0213,0.017 0.0271,0.0217 0.006,0.005 0.0151,0.0119 0.0207,0.0161 0.006,0.004 0.0167,0.0129 0.0248,0.0195 0.008,0.007 0.0209,0.0168 0.0285,0.0229 0.008,0.006 0.0187,0.0148 0.0246,0.0195 0.006,0.005 0.0142,0.0111 0.0186,0.0144 0.0197,0.0148 0.0196,0.0147 0.0373,0.061 0.003,0.009 0.011,0.0283 0.0169,0.0432 0.006,0.0149 0.0135,0.0343 0.0169,0.0432 0.003,0.009 0.008,0.0214 0.0111,0.0279 0.003,0.007 0.008,0.0191 0.0111,0.0279 0.003,0.009 0.0109,0.0283 0.0169,0.0432 0.006,0.0149 0.0135,0.0343 0.0169,0.0432 0.003,0.009 0.008,0.0214 0.0111,0.0279 0.003,0.007 0.01,0.0241 0.0154,0.0389 0.006,0.0149 0.0137,0.0352 0.0178,0.0451 0.004,0.01 0.008,0.0236 0.01,0.0305 10e-4,0.007 0.003,0.0154 0.004,0.0189 0.001,0.004 0.003,0.0112 0.004,0.0169 10e-4,0.006 0.012,0.0505 0.0238,0.0994 0.0118,0.0489 0.0222,0.0923 0.023,0.0965 8.5e-4,0.004 0.003,0.0133 0.005,0.0203 0.0117,0.046 0.0155,0.0644 0.0143,0.0686 -0.001,0.004 -0.0222,0.0396 -0.0261,0.0441 -0.002,0.002 -0.0119,0.0182 -0.0228,0.0364 -0.0109,0.0182 -0.0211,0.0346 -0.0228,0.0364 -0.002,0.002 -0.01,0.0144 -0.0176,0.0279 l -0.0146,0.0246 -0.11475,0.11459 c -0.10707,0.10692 -0.11531,0.11476 -0.12321,0.11714 -0.005,0.001 -0.023,0.008 -0.0406,0.0138 -0.0177,0.006 -0.0352,0.0123 -0.0389,0.0135 -0.0121,0.004 -0.0795,0.0275 -0.0844,0.0295 -0.003,10e-4 -0.0164,0.004 -0.0305,0.007 -0.0141,0.003 -0.0294,0.006 -0.0341,0.007 -0.01,0.002 -0.0447,0.009 -0.0914,0.0177 -0.0177,0.003 -0.0352,0.007 -0.0389,0.008 -0.004,8.6e-4 -0.0213,0.004 -0.0389,0.008 -0.0177,0.003 -0.039,0.008 -0.0474,0.009 -0.008,0.002 -0.0297,0.006 -0.0474,0.009 -0.0177,0.003 -0.0352,0.007 -0.0389,0.008 -0.004,8.6e-4 -0.0195,0.004 -0.035,0.007 l -0.0282,0.005 -0.007,-0.003 c -0.007,-0.003 -0.008,-0.003 -0.21198,0.001 l -0.20527,0.005 -0.0324,0.0109 c -0.0379,0.0127 -0.2203,0.0727 -0.24751,0.0814 -0.0124,0.004 -0.026,0.007 -0.0406,0.009 -0.0121,0.001 -0.0319,0.004 -0.044,0.005 -0.0121,0.001 -0.0468,0.006 -0.077,0.009 -0.0303,0.004 -0.0615,0.007 -0.0694,0.008 -0.008,9.1e-4 -0.0276,0.003 -0.0437,0.005 -0.0314,0.004 -0.0304,0.004 -0.0342,0.002 z m 0.0497,-0.0412 c 0.0485,-0.006 0.0764,-0.009 0.10436,-0.0126 0.0107,-0.001 0.0439,-0.005 0.0737,-0.009 0.0316,-0.004 0.0588,-0.008 0.0652,-0.01 0.006,-0.002 0.056,-0.0181 0.11092,-0.0362 0.0549,-0.0181 0.11514,-0.0379 0.13377,-0.044 0.0278,-0.009 0.0349,-0.0121 0.0398,-0.0168 0.003,-0.003 0.0486,-0.031 0.10076,-0.062 0.0521,-0.031 0.10687,-0.0637 0.1216,-0.0726 0.10879,-0.0661 0.24316,-0.14602 0.25037,-0.14886 0.006,-0.002 0.007,-0.002 0.0127,7.2e-4 0.005,0.002 0.007,0.005 0.009,0.0101 0.002,0.006 0.002,0.008 -8.5e-4,0.0135 -0.003,0.006 -0.009,0.01 -0.0575,0.0388 -0.0299,0.0177 -0.0965,0.0573 -0.14816,0.088 -0.0516,0.0307 -0.0954,0.057 -0.0973,0.0586 -0.002,0.002 -0.0295,0.0184 -0.0615,0.0374 l -0.0581,0.0346 0.01,4.8e-4 c 0.005,2.7e-4 0.0923,-0.001 0.19312,-0.004 0.10081,-0.002 0.18436,-0.004 0.18567,-0.003 0.002,8e-4 0.0366,-0.006 0.11195,-0.0205 0.0112,-0.002 0.0443,-0.009 0.0737,-0.0143 0.0293,-0.006 0.0587,-0.0114 0.0652,-0.0127 0.007,-0.001 0.0378,-0.007 0.0694,-0.0135 0.0715,-0.0138 0.068,-0.0129 0.116,-0.0296 0.0219,-0.008 0.0451,-0.0157 0.0516,-0.0179 0.007,-0.002 0.0252,-0.009 0.0415,-0.0143 l 0.0296,-0.0103 0.0449,-0.045 c 0.0247,-0.0248 0.0434,-0.0446 0.0415,-0.0441 -0.002,5.2e-4 -0.0444,0.0102 -0.0945,0.0215 l -0.0911,0.0205 -0.21743,-0.0645 c -0.17276,-0.0512 -0.21938,-0.0645 -0.2269,-0.0645 -0.008,0 -0.0333,-0.003 -0.0872,-0.0118 -0.006,-9.3e-4 -0.0297,-0.004 -0.0525,-0.008 -0.0614,-0.009 -0.13124,-0.0193 -0.14511,-0.0214 -0.0145,-0.002 -0.0188,-0.006 -0.0211,-0.0178 -0.001,-0.008 -0.01,-0.0542 -0.0218,-0.12303 -0.003,-0.0157 -0.005,-0.0306 -0.005,-0.0332 0,-0.007 0.003,-0.01 0.0449,-0.0315 0.008,-0.004 0.019,-0.0101 0.0237,-0.0126 0.005,-0.003 0.0146,-0.008 0.022,-0.0119 0.007,-0.004 0.0166,-0.009 0.0203,-0.011 0.0445,-0.0243 0.0586,-0.0314 0.0629,-0.0314 0.003,0 0.009,0.001 0.0142,0.002 0.009,0.002 0.1349,0.0327 0.19128,0.046 0.0646,0.0153 0.0603,0.0138 0.10944,0.0389 0.025,0.0127 0.0524,0.0268 0.0607,0.0312 0.008,0.004 0.0305,0.0159 0.0491,0.0254 0.087,0.0446 0.10341,0.053 0.10504,0.0543 10e-4,0.001 0.12768,0.0378 0.21468,0.0625 l 0.0166,0.005 0.0452,-0.0159 c 0.0249,-0.009 0.0681,-0.024 0.096,-0.0339 0.0279,-0.01 0.055,-0.0194 0.0601,-0.0212 0.009,-0.003 0.01,-0.004 0.0195,-0.0193 0.0298,-0.0471 0.0362,-0.0577 0.0363,-0.0602 10e-5,-0.002 -0.057,-0.24424 -0.0667,-0.28258 -10e-4,-0.005 -0.004,-0.0146 -0.005,-0.0212 -0.002,-0.007 -0.005,-0.0187 -0.009,-0.0271 -0.003,-0.008 -0.008,-0.0198 -0.01,-0.0254 -0.002,-0.006 -0.007,-0.0178 -0.0106,-0.0271 -0.01,-0.0247 -0.0173,-0.0438 -0.03,-0.0762 -0.006,-0.0158 -0.0143,-0.0364 -0.018,-0.0457 -0.004,-0.009 -0.009,-0.0215 -0.0107,-0.0271 -0.002,-0.006 -0.007,-0.017 -0.01,-0.0254 -0.003,-0.008 -0.0111,-0.0282 -0.0173,-0.044 -0.006,-0.0158 -0.0142,-0.036 -0.0177,-0.0449 -0.004,-0.009 -0.009,-0.0233 -0.0127,-0.0322 -0.003,-0.009 -0.007,-0.0188 -0.009,-0.0221 -10e-4,-0.003 -0.006,-0.009 -0.011,-0.0127 -0.005,-0.004 -0.0133,-0.0104 -0.0191,-0.0151 -0.006,-0.005 -0.0165,-0.013 -0.0237,-0.0186 -0.007,-0.006 -0.0183,-0.0144 -0.0246,-0.0195 -0.006,-0.005 -0.0174,-0.0139 -0.0246,-0.0195 -0.007,-0.006 -0.0178,-0.014 -0.0237,-0.0186 -0.006,-0.005 -0.0222,-0.0176 -0.0364,-0.0288 -0.0142,-0.0112 -0.0293,-0.0232 -0.0336,-0.0267 -0.008,-0.006 -0.0125,-0.009 -0.0303,-0.0166 -0.004,-0.002 -0.0115,-0.005 -0.0157,-0.007 -0.004,-0.002 -0.0107,-0.005 -0.0144,-0.006 -0.004,-0.002 -0.0102,-0.004 -0.0144,-0.006 -0.004,-0.002 -0.0728,-0.0321 -0.15247,-0.0671 l -0.14486,-0.0637 -0.17095,0.007 c -0.13494,0.005 -0.17274,0.007 -0.17942,0.009 -0.005,10e-4 -0.0146,0.004 -0.022,0.007 -0.007,0.002 -0.0227,0.007 -0.0339,0.0101 -0.0112,0.003 -0.0268,0.008 -0.0347,0.0104 -0.008,0.002 -0.0163,0.005 -0.0186,0.006 -0.005,0.002 -0.0282,0.009 -0.0425,0.0127 -0.0105,0.003 -0.0221,0.0101 -0.0845,0.0525 -0.0233,0.0158 -0.0487,0.033 -0.0565,0.0381 -0.008,0.005 -0.0288,0.0192 -0.0467,0.0313 -0.0179,0.0121 -0.0378,0.0255 -0.0441,0.0296 -0.006,0.004 -0.0261,0.0175 -0.044,0.0296 -0.0387,0.0262 -0.0509,0.0344 -0.0687,0.046 -0.0226,0.0147 -0.0254,0.0173 -0.058,0.0522 -0.0174,0.0186 -0.0343,0.0366 -0.0375,0.0399 -0.003,0.003 -0.0158,0.0167 -0.0279,0.0297 -0.0216,0.0231 -0.03,0.0321 -0.0586,0.0624 -0.008,0.008 -0.0154,0.0163 -0.0168,0.0178 -0.0279,0.03 -0.0738,0.0791 -0.0856,0.0915 -0.008,0.009 -0.0214,0.0226 -0.0288,0.0305 -0.007,0.008 -0.014,0.0148 -0.0148,0.0154 -7.7e-4,5.5e-4 -0.005,0.015 -0.009,0.0322 -0.0308,0.12645 -0.0329,0.13428 -0.0379,0.13935 -0.009,0.01 -0.0267,0.004 -0.0294,-0.009 -5.4e-4,-0.003 0.003,-0.0187 0.007,-0.0384 0.0242,-0.0986 0.0305,-0.12468 0.0305,-0.12659 9e-5,-0.009 0.0154,-0.0273 0.0873,-0.10285 0.007,-0.007 0.0178,-0.0188 0.0247,-0.0263 0.007,-0.007 0.0259,-0.0276 0.0421,-0.0449 0.0162,-0.0172 0.0341,-0.0363 0.0398,-0.0423 0.006,-0.006 0.0171,-0.0183 0.0255,-0.0271 0.008,-0.009 0.0254,-0.0271 0.038,-0.0406 0.0126,-0.0135 0.0287,-0.0306 0.0358,-0.0381 0.007,-0.007 0.0147,-0.0158 0.0168,-0.0184 0.002,-0.003 0.009,-0.008 0.0157,-0.0127 0.022,-0.0146 0.0346,-0.023 0.0672,-0.0451 0.037,-0.0251 0.0501,-0.0338 0.0679,-0.0455 0.007,-0.005 0.0138,-0.009 0.0153,-0.0102 0.007,-0.005 0.0688,-0.0467 0.0793,-0.0536 0.006,-0.004 0.0262,-0.0175 0.044,-0.0296 0.0346,-0.0235 0.0478,-0.0324 0.0681,-0.0456 0.0123,-0.008 0.0128,-0.009 0.0157,-0.0186 0.005,-0.0157 0.0129,-0.0437 0.0145,-0.0484 8.1e-4,-0.002 0.007,-0.024 0.0145,-0.0483 0.007,-0.0242 0.0152,-0.0512 0.0179,-0.06 0.003,-0.009 0.005,-0.0161 0.004,-0.0163 -2.2e-4,-1.8e-4 -0.0122,-0.002 -0.0267,-0.003 -0.0144,-0.002 -0.0411,-0.005 -0.0593,-0.007 l -0.033,-0.004 -0.011,0.0103 c -0.0326,0.0305 -0.0433,0.0404 -0.0914,0.0851 -0.0182,0.0169 -0.0384,0.0373 -0.0449,0.0454 -0.007,0.008 -0.0233,0.0287 -0.0372,0.0458 -0.014,0.0171 -0.0358,0.0439 -0.0486,0.0596 -0.0128,0.0157 -0.0299,0.0367 -0.038,0.0467 -0.0116,0.0142 -0.0162,0.0186 -0.0209,0.0201 -0.009,0.003 -0.0179,-0.001 -0.0211,-0.009 -0.001,-0.003 -0.004,-0.0222 -0.005,-0.0452 l -0.003,-0.0396 -0.0588,-0.0704 c -0.0494,-0.0592 -0.0702,-0.084 -0.10373,-0.12388 l -0.004,-0.004 -0.0541,0.006 c -0.0298,0.003 -0.0557,0.006 -0.0577,0.006 -0.003,4e-5 -0.005,0.004 -0.0142,0.0242 -0.006,0.0133 -0.0133,0.0299 -0.0165,0.0368 -0.008,0.0175 -0.0123,0.0268 -0.0158,0.0347 -0.002,0.004 -0.005,0.0117 -0.008,0.0178 -0.01,0.0214 -0.0849,0.19166 -0.0849,0.19273 0,8.9e-4 -0.0289,0.0691 -0.0364,0.0858 -10e-4,0.003 -0.009,0.0207 -0.017,0.0398 -0.0332,0.0783 -0.0537,0.12653 -0.0567,0.13293 -0.002,0.004 -0.009,0.0203 -0.0159,0.0368 l -0.0128,0.03 0.003,0.0157 c 0.007,0.0305 0.0136,0.0632 0.0151,0.0707 8.3e-4,0.004 0.005,0.0225 0.008,0.0406 0.004,0.0182 0.008,0.0365 0.008,0.0406 8.4e-4,0.004 0.005,0.0225 0.008,0.0406 0.004,0.0182 0.009,0.0425 0.0112,0.0542 0.005,0.022 0.007,0.0284 0.077,0.23707 0.0234,0.0694 0.0429,0.12742 0.0434,0.12897 7.8e-4,0.003 0.0197,0.0203 0.0673,0.0631 0.0103,0.009 0.0191,0.0172 0.0195,0.0178 4.6e-4,5.6e-4 0.008,0.008 0.0178,0.0162 0.009,0.008 0.0219,0.0198 0.0279,0.0254 0.0463,0.0429 0.0481,0.0443 0.0962,0.0766 0.0452,0.0303 0.0487,0.0323 0.0519,0.03 0.002,-0.001 0.005,-0.003 0.008,-0.005 0.002,-0.001 0.0266,-0.0207 0.054,-0.0436 0.121,-0.10109 0.10918,-0.0906 0.11197,-0.0997 7.7e-4,-0.002 0.004,-0.011 0.007,-0.0189 0.003,-0.008 0.008,-0.0213 0.011,-0.0296 0.003,-0.008 0.008,-0.0217 0.011,-0.0296 0.003,-0.008 0.006,-0.0163 0.007,-0.0186 7.6e-4,-0.002 0.003,-0.01 0.006,-0.0161 0.003,-0.007 0.008,-0.0202 0.0114,-0.0305 0.0116,-0.0317 0.0129,-0.0351 0.0184,-0.05 0.003,-0.008 0.008,-0.0213 0.011,-0.0296 0.003,-0.008 0.008,-0.0217 0.011,-0.0296 0.003,-0.008 0.006,-0.0163 0.007,-0.0186 7.7e-4,-0.002 0.003,-0.009 0.006,-0.0152 0.0107,-0.0285 0.0162,-0.0435 0.0172,-0.0467 5.7e-4,-0.002 0.003,-0.006 0.006,-0.008 0.01,-0.009 0.0268,-0.004 0.0295,0.01 9.7e-4,0.005 4e-5,0.008 -0.0143,0.0467 -0.002,0.005 -0.005,0.0133 -0.007,0.0186 -0.002,0.005 -0.005,0.0124 -0.006,0.0157 -0.001,0.003 -0.006,0.0166 -0.0109,0.0296 -0.005,0.013 -0.01,0.0275 -0.0118,0.0322 -0.002,0.005 -0.008,0.0222 -0.0144,0.0389 -0.0164,0.0445 -0.0174,0.0473 -0.0213,0.058 -0.002,0.005 -0.005,0.0124 -0.006,0.0157 -10e-4,0.003 -0.006,0.0166 -0.011,0.0296 -0.009,0.0243 -0.01,0.0272 -0.022,0.0594 l -0.007,0.0188 -0.023,0.0193 c -0.0248,0.0208 -0.052,0.0435 -0.0669,0.0557 -0.0222,0.0182 -0.0807,0.068 -0.0892,0.076 -0.009,0.009 -0.02,0.0145 -0.0787,0.0426 -0.052,0.0249 -0.065,0.0311 -0.0897,0.0433 l -0.0254,0.0124 -0.004,0.0115 c -0.008,0.0217 -0.0188,0.0488 -0.0226,0.0589 -0.002,0.006 -0.006,0.0174 -0.01,0.0262 -0.003,0.009 -0.006,0.018 -0.007,0.0203 -8.9e-4,0.004 0.002,0.005 0.0621,0.0358 0.0347,0.0173 0.0633,0.0316 0.0637,0.0317 3.4e-4,1.2e-4 0.0198,-0.002 0.0432,-0.005 z m 1.39299,-0.75805 c -0.001,-4.9e-4 -0.008,-0.004 -0.0152,-0.007 -0.007,-0.003 -0.0158,-0.007 -0.0195,-0.009 -0.004,-0.002 -0.0143,-0.007 -0.0234,-0.011 -0.009,-0.004 -0.0179,-0.007 -0.0194,-0.007 -0.002,9.2e-4 -0.0173,0.004 -0.0945,0.0206 -0.0241,0.005 -0.0215,0.006 -0.0509,-0.0133 -0.0104,-0.007 -0.0235,-0.0153 -0.0293,-0.019 -0.006,-0.004 -0.0163,-0.0107 -0.0235,-0.0155 -0.007,-0.005 -0.0199,-0.013 -0.0283,-0.0182 -0.0237,-0.0148 -0.0336,-0.022 -0.0372,-0.0274 -0.002,-0.003 -0.0151,-0.0404 -0.0294,-0.0837 -0.0143,-0.0433 -0.0262,-0.0788 -0.0264,-0.0791 -1.6e-4,-2.2e-4 -0.0155,-0.003 -0.0341,-0.007 -0.15323,-0.0311 -0.15415,-0.0313 -0.15881,-0.0344 -0.006,-0.004 -0.009,-0.014 -0.006,-0.0219 0.003,-0.007 0.007,-0.009 0.0264,-0.0166 0.0204,-0.007 0.0677,-0.0253 0.0788,-0.0297 0.006,-0.002 0.0178,-0.007 0.0271,-0.0103 0.009,-0.003 0.0219,-0.008 0.0279,-0.0104 0.006,-0.002 0.0129,-0.005 0.0152,-0.005 0.002,-7.5e-4 0.0115,-0.004 0.0203,-0.008 0.0283,-0.0109 0.0343,-0.0125 0.0542,-0.0144 0.0343,-0.003 0.0917,-0.008 0.10984,-0.0102 0.0233,-0.002 0.026,-9.9e-4 0.0454,0.0213 0.008,0.009 0.0256,0.0292 0.0387,0.044 0.0626,0.0709 0.0733,0.0836 0.0751,0.0889 10e-4,0.003 0.003,0.0164 0.005,0.0294 0.006,0.038 0.0169,0.11448 0.018,0.12267 10e-4,0.009 0.002,0.01 0.0621,0.0888 0.007,0.009 0.0132,0.0188 0.0138,0.0214 0.003,0.0125 -0.0109,0.025 -0.0229,0.0208 z m -0.16594,-0.14728 c 0.005,-0.004 0.005,-0.005 0.005,-0.0131 -10e-4,-0.0109 -0.008,-0.0395 -0.0104,-0.045 -0.002,-0.004 -0.007,-0.0181 -0.0112,-0.0331 -8.6e-4,-0.003 -0.002,-0.006 -0.002,-0.008 0,-0.002 -0.0116,-0.0129 -0.0303,-0.0271 -0.003,-0.003 -0.009,-0.007 -0.0121,-0.01 -0.003,-0.003 -0.009,-0.007 -0.012,-0.008 -0.003,-0.002 -0.007,-0.004 -0.008,-0.006 -0.001,-0.001 -0.003,-0.003 -0.004,-0.003 -0.003,0 -0.006,0.0124 -0.006,0.0215 0,0.004 -0.002,0.0192 -0.004,0.0347 l -0.004,0.0283 0.01,0.0174 c 0.005,0.01 0.0105,0.0188 0.0111,0.0203 0.001,0.004 0.0144,0.0132 0.018,0.0132 10e-4,3e-5 0.004,10e-4 0.006,0.003 0.002,0.001 0.004,0.002 0.006,0.002 10e-4,0 0.007,0.002 0.0137,0.005 0.0171,0.008 0.0247,0.0113 0.0269,0.0114 10e-4,5e-5 0.004,-0.002 0.007,-0.004 z m -0.33161,-0.25003 c -0.002,-0.002 -0.004,-0.006 -0.004,-0.009 0,-0.005 0.006,-0.0146 0.059,-0.0925 0.007,-0.0102 0.0189,-0.0278 0.0264,-0.0389 0.0134,-0.02 0.0138,-0.0204 0.0263,-0.0267 0.0288,-0.0144 0.0604,-0.0287 0.0652,-0.0295 0.003,-4.6e-4 0.0211,10e-4 0.0406,0.004 0.0196,0.002 0.0428,0.005 0.0516,0.006 0.0178,0.002 0.0222,0.004 0.0349,0.0129 0.0267,0.0195 0.0446,0.0325 0.053,0.0384 0.005,0.004 0.013,0.009 0.0174,0.0127 0.004,0.003 0.0129,0.01 0.019,0.0141 0.0217,0.0157 0.0336,0.0243 0.0484,0.0351 0.008,0.006 0.0198,0.0144 0.0257,0.0186 0.0186,0.0133 0.0251,0.0201 0.0251,0.0262 0,0.007 -0.006,0.0128 -0.0132,0.0128 -0.005,0 -0.0214,-0.006 -0.0368,-0.0127 -0.009,-0.004 -0.0788,-0.033 -0.0796,-0.033 -4.6e-4,0 -0.004,-0.001 -0.008,-0.003 -0.004,-0.002 -0.0121,-0.005 -0.0182,-0.008 -0.006,-0.002 -0.0133,-0.006 -0.0161,-0.007 -0.0103,-0.005 -0.0466,-0.0194 -0.0474,-0.0194 -4.5e-4,0 -0.006,-0.002 -0.0114,-0.005 -0.006,-0.003 -0.0152,-0.007 -0.0208,-0.009 -0.006,-0.002 -0.012,-0.005 -0.0142,-0.006 -0.003,-0.002 -0.005,-0.002 -0.008,2.9e-4 -0.002,10e-4 -0.0195,0.008 -0.0389,0.0145 -0.028,0.01 -0.0371,0.0135 -0.044,0.0188 -0.009,0.007 -0.0309,0.0235 -0.0387,0.0293 -0.003,0.002 -0.014,0.0106 -0.0254,0.0193 -0.053,0.0407 -0.0532,0.0408 -0.0593,0.0408 -0.004,0 -0.007,-10e-4 -0.009,-0.004 z"
       id="path179" /></g></svg>
