<?xml version="1.0" encoding="UTF-8" standalone="no"?>
<!-- Created with Inkscape (http://www.inkscape.org/) -->

<svg
   width="250.00002"
   height="250.00002"
   viewBox="0 0 66.145837 66.145837"
   version="1.1"
   id="svg5"
   xml:space="preserve"
   inkscape:version="1.2.2 (b0a8486541, 2022-12-01)"
   sodipodi:docname="250x250.svg"
   inkscape:export-filename="finished/250x250.png"
   inkscape:export-xdpi="96"
   inkscape:export-ydpi="96"
   xmlns:inkscape="http://www.inkscape.org/namespaces/inkscape"
   xmlns:sodipodi="http://sodipodi.sourceforge.net/DTD/sodipodi-0.dtd"
   xmlns="http://www.w3.org/2000/svg"
   xmlns:svg="http://www.w3.org/2000/svg"><sodipodi:namedview
     id="namedview7"
     pagecolor="#ffffff"
     bordercolor="#000000"
     borderopacity="0.25"
     inkscape:showpageshadow="2"
     inkscape:pageopacity="0.0"
     inkscape:pagecheckerboard="0"
     inkscape:deskcolor="#d1d1d1"
     inkscape:document-units="mm"
     showgrid="false"
     inkscape:lockguides="false"
     inkscape:zoom="0.35355339"
     inkscape:cx="694.37886"
     inkscape:cy="1144.0988"
     inkscape:window-width="1920"
     inkscape:window-height="1020"
     inkscape:window-x="0"
     inkscape:window-y="0"
     inkscape:window-maximized="1"
     inkscape:current-layer="layer1" /><defs
     id="defs2" /><g
     inkscape:label="Layer 1"
     inkscape:groupmode="layer"
     id="layer1"
     transform="translate(271.46249,218.81041)"><path
       id="path184"
       style="fill:#ffffff;stroke-width:0.125"
       transform="matrix(0.26458333,0,0,0.26458333,-271.46249,-218.81041)"
       d="m 109.88281,70.078125 a 0.73491632,0.73491632 0 0 0 -0.58593,0.193359 l -3.5254,3.300782 c -1.94185,1.819282 -3.86775,3.655687 -4.3789,4.183593 -0.28767,0.297098 -0.88039,0.992205 -1.695314,1.966797 -0.814929,0.974593 -1.821544,2.199244 -2.828125,3.439453 -2.203927,2.715459 -3.371708,4.142742 -4.021485,4.845703 -0.324888,0.351481 -0.521634,0.512724 -0.589844,0.554688 -0.06821,0.04196 0.0269,0.01563 -0.07422,0.01563 -0.10299,0 -0.247398,-0.08084 -0.210938,-0.04687 -0.111015,-0.103427 -0.0776,-0.07457 -0.0625,-0.04687 0.0151,0.0277 -0.02169,-0.04199 -0.06055,-0.285156 -0.07771,-0.486341 -0.17516,-1.568357 -0.378906,-3.798828 l -0.07031,-0.783203 a 0.73491632,0.73491632 0 0 0 -0.169922,-0.40625 L 86.4082,77.451187 c -1.327202,-1.585389 -2.550674,-3.033424 -3.457031,-4.091797 -0.453179,-0.529187 -0.826736,-0.960651 -1.095703,-1.265625 -0.134484,-0.152487 -0.24306,-0.271703 -0.326172,-0.361328 -0.04156,-0.04481 -0.07571,-0.08192 -0.111328,-0.117188 -0.01781,-0.01763 -0.03487,-0.03462 -0.0625,-0.05859 -0.01382,-0.01199 -0.02852,-0.02444 -0.05664,-0.04492 -0.01406,-0.01024 -0.03106,-0.02365 -0.05664,-0.03906 -0.02558,-0.01541 -0.118425,-0.05637 -0.119141,-0.05664 -0.238841,-0.09165 -0.225947,-0.05109 -0.267578,-0.05273 -0.04163,-0.0016 -0.07486,-7.24e-4 -0.111328,0 -0.07295,0.0014 -0.155317,0.0059 -0.25586,0.01172 -0.201085,0.01171 -0.468114,0.03106 -0.783203,0.05664 -0.630178,0.05117 -1.451497,0.125749 -2.269531,0.205078 -0.818035,0.07933 -1.631222,0.162279 -2.251953,0.232422 -0.310366,0.03507 -0.573108,0.06707 -0.767578,0.09375 -0.09723,0.01334 -0.175386,0.02436 -0.246094,0.03711 -0.03535,0.0064 -0.06668,0.01208 -0.111328,0.02344 -0.02233,0.0057 -0.04835,0.0133 -0.0918,0.0293 -0.02173,0.008 -0.04752,0.01823 -0.08789,0.03906 -0.02018,0.01041 -0.04418,0.02283 -0.07422,0.04297 -0.03004,0.02013 -0.110988,0.09146 -0.111329,0.0918 -5.89e-4,5.9e-4 -0.07419,0.08557 -0.08789,0.105469 -0.0137,0.0199 -0.02095,0.03234 -0.02734,0.04297 -0.01279,0.02126 -0.02013,0.03542 -0.02734,0.04883 -0.01442,0.02682 -0.02627,0.05041 -0.04102,0.08008 -0.02948,0.05934 -0.06756,0.135868 -0.113282,0.232422 -0.09145,0.193108 -0.217772,0.465697 -0.373046,0.802734 -0.31055,0.674075 -0.736777,1.607486 -1.220704,2.675782 -0.967854,2.136591 -2.166441,4.808635 -3.132812,6.988281 -1.012029,2.282629 -3.974397,9.152944 -6.595703,15.292969 l -4.765625,11.160154 a 0.73491632,0.73491632 0 0 0 -0.04297,0.44336 l 0.464844,2.15234 c 0.253357,1.17444 1.035289,4.90363 1.734375,8.27149 l 1.271484,6.125 a 0.73491632,0.73491632 0 0 0 0.02148,0.0859 l 3.232422,9.625 c 1.77688,5.29387 3.321127,9.89127 3.46875,10.31835 0.06422,0.18581 0.164151,0.42426 0.333985,0.66602 0.169833,0.24176 0.397301,0.49303 0.757812,0.85352 0.721023,0.72097 1.997554,1.88973 4.460938,4.13671 5.418995,4.94297 5.766637,5.22395 8.707031,7.17969 1.340714,0.89175 1.915673,1.32029 2.490234,1.54297 0.287281,0.11134 0.673582,0.14 0.958985,0.0352 0.285403,-0.10485 0.421371,-0.23349 0.578125,-0.33985 0.225042,-0.15268 0.586125,-0.43723 1.126953,-0.87109 0.540827,-0.43386 1.228732,-0.9959 1.988281,-1.62109 1.519098,-1.2504 3.31757,-2.75348 4.75586,-3.98243 l 1.738281,-1.48437 a 0.73491632,0.73491632 0 0 0 0.21289,-0.30469 l 1.144532,-3.11719 c 3.113224,-8.47084 4.687717,-12.75176 5.527337,-14.94531 0.41982,-1.09677 0.65878,-1.67481 0.79688,-1.96289 0.1381,-0.28808 0.0859,-0.20182 0.17187,-0.28125 0.13751,-0.12714 0.17862,-0.13482 0.13868,-0.12109 -0.04,0.0137 -0.0653,-0.001 0.0762,0.0215 0.19247,0.0312 0.25838,0.0877 0.28125,0.11328 0.0198,0.0221 0.0331,0.066 0.0352,0.16211 -0.008,0.03 -0.0176,0.063 -0.0332,0.11524 -0.0402,0.13455 -0.10156,0.33128 -0.18359,0.57812 -0.16407,0.49367 -0.40661,1.19048 -0.70899,2.04492 -0.60475,1.70888 -1.45521,4.05074 -2.43945,6.71094 -1.869728,5.05351 -3.594054,9.72719 -3.845701,10.42188 l -0.376953,1.04101 -4.046875,3.38477 c -2.311807,1.93322 -4.756016,3.99493 -5.460938,4.60547 -0.669338,0.57972 -1.542209,1.25756 -1.722656,1.37109 0.0011,-6.8e-4 -0.240586,0.1324 -0.556641,0.29492 -0.316054,0.16252 -0.742835,0.37704 -1.24414,0.62695 -1.002611,0.49984 -2.310353,1.14186 -3.679688,1.80469 -1.372298,0.66427 -2.625584,1.27448 -3.539062,1.7207 -0.45674,0.22312 -0.827152,0.40425 -1.087891,0.53321 -0.130369,0.0645 -0.23325,0.11524 -0.306641,0.15234 -0.03669,0.0186 -0.06656,0.0336 -0.0918,0.0469 -0.01262,0.007 -0.02318,0.0126 -0.03906,0.0215 -0.0079,0.004 -0.01665,0.009 -0.0332,0.0195 -0.0083,0.005 -0.01773,0.0113 -0.03516,0.0234 -0.01742,0.0122 -0.09941,0.0838 -0.09961,0.084 -0.183915,0.18392 -0.134084,0.17736 -0.152343,0.2129 -0.01826,0.0355 -0.03159,0.0656 -0.04687,0.0996 -0.03058,0.0681 -0.06483,0.14888 -0.105469,0.24805 -0.08128,0.19834 -0.187594,0.46746 -0.310547,0.78516 -0.245906,0.63539 -0.560278,1.46851 -0.871094,2.30469 -0.310815,0.83617 -0.617266,1.67435 -0.847656,2.32031 -0.115195,0.32297 -0.210182,0.59653 -0.279297,0.80273 -0.03456,0.1031 -0.06222,0.18926 -0.08398,0.26172 -0.01088,0.0362 -0.02193,0.068 -0.03125,0.10547 -0.0093,0.0375 -0.02734,0.03 -0.02734,0.21484 0,0.27161 0.116902,0.44027 0.201172,0.54493 0.08427,0.10465 0.1614,0.17059 0.246094,0.23632 0.169388,0.13146 0.371944,0.25599 0.658203,0.41992 0.572518,0.32787 1.47318,0.79606 2.890625,1.51368 l 3.59375,1.82031 a 0.73491632,0.73491632 0 0 0 0.388672,0.0762 l 0.875,-0.0684 c 0.717931,-0.0562 4.222462,-0.46674 7.769531,-0.89062 1.773534,-0.21194 3.537116,-0.42466 4.916016,-0.59571 1.378899,-0.17104 2.314255,-0.28794 2.634765,-0.34375 0.263101,-0.0458 0.500943,-0.12761 0.992188,-0.27539 0.491244,-0.14778 1.145637,-0.34962 1.910156,-0.58984 1.52904,-0.48043 3.50014,-1.1121 5.48047,-1.75391 1.98033,-0.6418 3.96803,-1.29466 5.53125,-1.8164 1.56321,-0.52175 2.60802,-0.86967 3.02343,-1.05078 0.44037,-0.19199 1.04579,-0.53671 1.49414,-0.83985 0.0353,-0.0239 0.48014,-0.30265 1.1211,-0.69336 0.64095,-0.3907 1.51832,-0.92291 2.56054,-1.55273 2.08446,-1.25965 4.82843,-2.91049 7.66993,-4.61719 5.68298,-3.4134 11.76093,-7.04856 13.70117,-8.18359 0.67973,-0.39764 1.31737,-0.76029 1.79101,-1.01953 0.23619,-0.12928 0.43085,-0.2335 0.56446,-0.30079 0.0313,0.0125 0.0338,0.0112 0.0996,0.0586 0.10812,0.0778 0.19257,0.20561 0.1875,0.19336 0.0637,0.15387 0.0492,0.16392 0.0391,0.19336 -0.0101,0.0294 -0.0671,0.13606 -0.27735,0.30078 0.0336,-0.0264 -0.2102,0.14183 -0.51562,0.33398 -0.30542,0.19216 -0.72097,0.44818 -1.21484,0.75 -0.98775,0.60365 -2.28747,1.38875 -3.66016,2.20508 -4.82524,2.86951 -7.94456,4.73885 -15.36523,9.21289 l -3.48438,2.10156 a 0.73491632,0.73491632 0 0 0 0.37695,1.36329 l 0.98438,0.004 c 1.64434,0.006 6.97533,-0.0944 12.0293,-0.20898 2.52698,-0.0573 4.97999,-0.11893 6.85351,-0.17188 0.93676,-0.0265 1.72847,-0.0511 2.31445,-0.0723 0.58599,-0.0212 0.88627,-0.0273 1.12305,-0.0566 0.42517,-0.0527 1.74817,-0.30068 3.74609,-0.67774 1.99793,-0.37706 4.56911,-0.87203 7.15626,-1.37305 2.58714,-0.50101 5.18957,-1.00828 7.24414,-1.41601 2.05456,-0.40773 3.5202,-0.70342 3.98437,-0.81641 0.37005,-0.0901 1.11795,-0.32739 2.15234,-0.66601 1.0344,-0.33862 2.3138,-0.76976 3.59375,-1.21289 l 4.63868,-1.60547 a 0.73491632,0.73491632 0 0 0 0.27929,-0.17578 l 2.53516,-2.53321 c 0.6985,-0.69787 1.3296,-1.33476 1.78711,-1.80078 0.22876,-0.23301 0.415,-0.4227 0.54492,-0.55859 0.065,-0.0679 0.11407,-0.12182 0.1543,-0.16602 0.0201,-0.0221 0.0377,-0.0407 0.0605,-0.0684 0.0114,-0.0138 0.023,-0.0253 0.0508,-0.0664 0.0139,-0.0205 0.0661,-0.12035 0.0664,-0.1211 1.7e-4,-3.7e-4 0.0566,-0.21656 0.0566,-0.21679 2e-5,-1.2e-4 -0.0195,-0.26554 -0.0195,-0.26563 -2e-5,-8e-5 -0.22846,-0.36714 -0.22851,-0.36719 -6e-5,-5e-5 -0.29675,-0.15621 -0.29688,-0.15625 -1.3e-4,-3e-5 -0.1209,-0.0215 -0.12109,-0.0215 -4e-4,-4e-5 -0.0802,-0.003 -0.0996,-0.002 -0.0389,0.002 -0.053,0.004 -0.0664,0.006 -0.0268,0.003 -0.0395,0.005 -0.0547,0.008 -0.0303,0.005 -0.0614,0.0118 -0.0996,0.0195 -0.0765,0.0154 -0.18107,0.0377 -0.31445,0.0664 -0.26676,0.0574 -0.64534,0.1418 -1.11328,0.24609 -0.93587,0.20858 -2.22235,0.49784 -3.63281,0.82031 -1.40697,0.32168 -2.72786,0.61722 -3.72071,0.83203 -0.49642,0.10741 -0.91167,0.1935 -1.21093,0.25391 -0.14963,0.0302 -0.27107,0.0551 -0.35547,0.0703 -0.0392,0.007 -0.0134,0.005 -0.0371,0.008 -0.0305,-0.007 -0.0583,-0.0135 -0.10742,-0.0254 -0.14089,-0.0341 -0.34895,-0.0885 -0.60938,-0.1582 -0.52086,-0.13946 -1.25753,-0.34424 -2.15039,-0.59766 -1.78571,-0.50683 -4.20042,-1.20973 -6.81055,-1.98437 -14.10417,-4.18589 -15.5308,-4.58575 -17.19726,-4.80469 -1.64255,-0.21579 -5.80464,-0.82706 -9.57813,-1.39648 -1.88674,-0.28471 -3.67958,-0.55985 -5.01562,-0.76953 -0.66802,-0.10485 -1.22215,-0.1925 -1.61524,-0.25782 -0.19654,-0.0327 -0.35207,-0.0606 -0.45898,-0.0801 -0.0394,-0.007 -0.064,-0.0109 -0.0879,-0.0156 -0.0294,-0.037 -0.0889,-0.11121 -0.043,-0.0254 0.0781,0.1459 0.0287,0.066 0.0117,0.002 -0.017,-0.064 -0.0425,-0.16271 -0.0703,-0.28711 -0.0556,-0.24879 -0.12624,-0.59781 -0.20703,-1.00976 -0.1616,-0.8239 -0.36109,-1.90484 -0.55469,-3.00195 -0.1936,-1.09712 -0.38212,-2.21064 -0.52344,-3.10352 -0.14132,-0.89288 -0.23409,-1.64786 -0.23633,-1.7168 l -0.01,-0.33203 0.39843,-0.25586 c 0.13554,-0.0867 0.82523,-0.48021 1.7168,-0.9707 0.89157,-0.49049 2.02086,-1.1026 3.16992,-1.7168 1.44805,-0.774 2.52272,-1.33121 3.25586,-1.68945 0.36657,-0.17912 0.64952,-0.30849 0.83985,-0.38672 0.19033,-0.0782 0.38113,-0.0786 0.14648,-0.0781 -0.13508,2.6e-4 0.01,0.005 0.14063,0.0293 0.13101,0.0241 0.31702,0.061 0.54492,0.10938 0.45579,0.0968 1.08181,0.23634 1.81836,0.40625 1.4731,0.33981 3.39247,0.79801 5.31836,1.26758 1.92588,0.46956 3.85884,0.95173 5.36328,1.33789 0.75221,0.19308 1.39688,0.36273 1.87695,0.49414 0.48007,0.13141 0.86283,0.25707 0.83203,0.24414 0.0113,0.005 0.31827,0.14905 0.72266,0.34961 0.40439,0.20056 0.94832,0.47333 1.58594,0.79492 1.27522,0.64317 2.9268,1.48279 4.60156,2.33789 3.34951,1.71019 6.83541,3.50746 7.50195,3.87695 0.85085,0.47167 2.53115,0.95021 9.625,2.98242 l 4.78516,1.3711 a 0.73491632,0.73491632 0 0 0 0.44726,-0.0137 l 5.71485,-2.01368 c 1.57278,-0.55419 3.06092,-1.08227 4.1914,-1.48828 0.56525,-0.203 1.04051,-0.37601 1.39453,-0.50586 0.35403,-0.12984 0.54725,-0.19977 0.68946,-0.26172 0.29175,-0.12709 0.61726,-0.36095 0.89453,-0.70312 0.27727,-0.34218 0.57571,-0.80673 1.07226,-1.59961 0.69217,-1.10525 1.07883,-1.7296 1.3086,-2.16797 0.11488,-0.21918 0.19544,-0.39582 0.24609,-0.5957 0.0507,-0.19988 0.0457,-0.44191 0.008,-0.60352 -2.19632,-9.37032 -3.24018,-13.8447 -3.91015,-16.43164 -0.66997,-2.58694 -0.97926,-3.31313 -1.65235,-5.03125 -2.10989,-5.38566 -4.02256,-10.24998 -5.42968,-13.80859 -0.70357,-1.77931 -1.2813,-3.23209 -1.69336,-4.26172 -0.20604,-0.51481 -0.3709,-0.92444 -0.49024,-1.216796 -0.11933,-0.292355 -0.145,-0.380171 -0.23828,-0.560546 -0.14271,-0.275968 -0.29639,-0.423543 -0.49804,-0.628907 -0.20166,-0.205363 -0.43731,-0.4192 -0.68165,-0.611328 -0.42651,-0.335384 -3.07976,-2.429579 -5.88281,-4.646484 -4.12514,-3.262532 -5.29901,-4.14779 -6.26758,-4.601563 -0.64311,-0.301293 -5.39462,-2.405248 -10.71679,-4.748046 l -9.67578,-4.257813 a 0.73491632,0.73491632 0 0 0 -0.29688,-0.0625 h -0.97461 c -0.58728,0 -3.19384,0.09581 -6.42383,0.222656 -3.22999,0.126845 -7.01274,0.284347 -9.72265,0.410157 -0.81452,0.03781 -1.61879,0.08697 -2.26172,0.134765 -0.64293,0.04779 -1.04045,0.07085 -1.36133,0.140625 -0.69394,0.150886 -2.92037,0.821614 -5.18164,1.515625 -1.13064,0.347006 -2.24342,0.695375 -3.10742,0.972656 -0.43201,0.138641 -0.80212,0.259701 -1.08399,0.355469 -0.28186,0.09577 -0.40846,0.12887 -0.61132,0.230469 -0.6186,0.309809 -1.25459,0.735788 -12.70704,8.431641 -2.201483,1.479364 -4.256932,2.872009 -5.796868,3.925781 -0.769969,0.526886 -1.411533,0.968239 -1.878907,1.294922 -0.233686,0.163341 -0.422994,0.298907 -0.566406,0.402343 -0.143411,0.103436 -0.209447,0.145214 -0.318359,0.242188 -0.69941,0.622748 -2.76021,2.817296 -11.484375,12.117186 L 75.125,117.07422 a 0.73491632,0.73491632 0 0 0 -0.177734,0.32422 l -1.166016,4.67187 c -0.319552,1.28027 -0.632845,2.48758 -0.878906,3.39844 -0.123031,0.45543 -0.229798,0.83812 -0.310547,1.11328 -0.04037,0.13758 -0.07476,0.24816 -0.09961,0.32422 -0.02485,0.0761 -0.06185,0.15007 -0.01758,0.0644 -0.07473,0.14451 -0.161222,0.1811 -0.267578,0.1875 -0.106356,0.006 -0.225997,-0.0279 -0.33789,-0.17773 -0.114341,-0.15315 -0.04921,-0.065 -0.03125,0.0137 0.01796,0.0787 -0.0045,-0.0296 0.05078,-0.3457 0.11056,-0.6323 0.445319,-2.03089 1.144531,-4.97852 0.275911,-1.16314 0.554027,-2.27792 0.779297,-3.13086 0.112635,-0.42646 0.213424,-0.7872 0.291016,-1.05273 0.07759,-0.26554 0.170824,-0.49992 0.128906,-0.41406 0.220855,-0.45237 0.908688,-1.2669 5.603516,-6.25586 2.103664,-2.23546 5.820716,-6.19561 8.261718,-8.79883 l 4.38086,-4.671877 4.11914,-2.771484 c 2.302923,-1.55041 7.028317,-4.730043 10.500007,-7.064453 1.73745,-1.168283 3.34981,-2.260767 4.54882,-3.082032 0.59951,-0.410632 1.09437,-0.752725 1.45313,-1.003906 0.17938,-0.12559 0.32478,-0.227853 0.43359,-0.30664 0.10881,-0.07879 0.12686,-0.07631 0.26368,-0.207032 0.23791,-0.227333 0.279,-0.386409 0.38281,-0.630859 0.10381,-0.24445 0.21945,-0.560824 0.36523,-0.994141 0.29157,-0.866634 0.69857,-2.191074 1.29688,-4.193359 0.42965,-1.437851 0.81678,-2.749858 1.09375,-3.705078 0.13848,-0.47761 0.25002,-0.864911 0.32617,-1.138672 0.0381,-0.136881 0.0671,-0.245083 0.0879,-0.326172 0.0104,-0.04054 0.0174,-0.07264 0.0254,-0.109375 0.004,-0.01837 0.008,-0.03396 0.0137,-0.07227 0.003,-0.01915 0.007,-0.04178 0.008,-0.09961 4.7e-4,-0.02891 -0.01,-0.142162 -0.01,-0.142578 -4e-5,-2.08e-4 -0.0488,-0.16002 -0.0488,-0.160156 -6e-5,-1.37e-4 -0.21281,-0.281185 -0.21289,-0.28125 -1.6e-4,-1.3e-4 -0.16958,-0.103365 -0.16992,-0.103516 -3.5e-4,-1.51e-4 -0.0524,-0.02023 -0.0684,-0.02539 -0.0319,-0.01032 -0.0473,-0.01444 -0.0605,-0.01758 -0.0264,-0.0063 -0.0411,-0.0092 -0.0547,-0.01172 -0.0272,-0.0049 -0.0501,-0.0075 -0.0781,-0.01172 -0.0561,-0.0084 -0.12763,-0.01918 -0.21875,-0.03125 -0.18224,-0.02414 -0.43786,-0.05522 -0.75195,-0.09375 -0.6282,-0.07707 -1.48774,-0.180401 -2.42774,-0.289063 z m 35.31446,29.775391 c 0.19284,-0.04891 0.27959,-0.0389 0.7207,0.0039 1.21107,0.117525 2.63421,0.288414 3.7793,0.445304 0.57254,0.0785 1.0753,0.15454 1.44335,0.2168 0.18403,0.0311 0.33656,0.0584 0.4375,0.0801 0.10095,0.0216 0.22188,0.09 0.0449,-0.002 -0.0845,-0.0439 0.0234,0.0168 0.11914,0.082 0.0958,0.0652 0.23034,0.15789 0.39453,0.27343 0.32839,0.2311 0.7788,0.55294 1.30859,0.9336 1.0596,0.76132 2.43893,1.75993 3.81836,2.76562 1.37943,1.0057 2.75751,2.01811 3.81836,2.80274 0.53043,0.39231 0.98295,0.72797 1.3125,0.97656 0.32955,0.24859 0.60519,0.47792 0.54102,0.41797 0.084,0.0785 0.10522,0.14479 0.11914,0.19531 -0.0726,-0.003 -0.15797,-0.002 -0.35938,-0.0527 -0.51462,-0.12878 -1.40825,-0.46163 -2.78711,-1.03711 -1.44443,-0.60285 -3.77884,-1.5757 -5.18945,-2.16016 -1.40769,-0.58325 -3.4281,-1.4262 -4.48633,-1.87109 -0.57589,-0.24211 -1.09549,-0.4433 -1.50586,-0.58399 -0.20518,-0.0703 -0.38304,-0.12431 -0.53906,-0.16406 -0.078,-0.0199 -0.14904,-0.037 -0.23047,-0.0488 -0.0814,-0.0118 -0.14935,-0.0401 -0.36328,0.01 a 0.73491632,0.73491632 0 0 0 -0.002,0 c -0.24499,0.0572 -0.54679,0.16303 -0.97657,0.31445 -0.42977,0.15143 -0.94588,0.34049 -1.45703,0.53321 -0.51114,0.19271 -1.01528,0.38879 -1.42187,0.55273 -0.40659,0.16394 -0.64286,0.24719 -0.89258,0.39453 -0.14152,0.0835 -0.25774,0.16938 -0.47852,0.32813 -0.22077,0.15875 -0.50746,0.36871 -0.84375,0.61718 -0.67257,0.49695 -1.53926,1.14661 -2.4414,1.83008 -0.8981,0.6804 -1.7469,1.31554 -2.38672,1.78906 -0.31991,0.23677 -0.58676,0.43414 -0.78125,0.57422 -0.0972,0.07 -0.17735,0.12595 -0.23242,0.16407 -0.0551,0.0381 -0.12243,0.0752 -0.0469,0.0352 -0.16935,0.0898 -0.2449,0.0153 -0.19336,0.0723 -0.0766,-0.0846 -0.0299,-0.0317 -0.0254,0.0137 0.005,0.0454 -0.007,-0.0304 0.0996,-0.25977 0.21222,-0.45867 0.81678,-1.40244 1.95117,-3.08789 1.82366,-2.70953 2.71968,-4.03933 3.22461,-4.69922 0.50494,-0.65988 0.47529,-0.57913 0.91211,-0.81445 0.36128,-0.19462 1.41132,-0.69935 2.25196,-1.08008 0.77278,-0.35001 1.1509,-0.511632 1.34375,-0.56054 z m 5.76562,9.224604 c 0.636,-0.008 0.47482,-0.0118 0.57813,0.0703 1.22368,1.20652 0.21345,0.18035 1.18164,1.20508 0.72656,0.77573 1.65619,1.80176 2.58398,2.8457 0.9278,1.04394 1.85362,2.10683 2.57031,2.95508 0.35835,0.42412 0.66536,0.79408 0.89063,1.07812 0.2136,0.26933 0.35288,0.4831 0.34961,0.4707 0.0104,0.0411 0.0243,0.099 0.041,0.17774 0.0368,0.17305 0.0839,0.4215 0.13672,0.7168 0.1056,0.59058 0.23382,1.37651 0.35742,2.20898 0.43018,2.8972 0.65951,4.42795 0.8125,5.30078 0.0765,0.43642 0.13136,0.70981 0.19532,0.92969 0.064,0.21988 0.1596,0.41073 0.23632,0.5293 0.11862,0.18331 0.34382,0.48415 0.7168,0.98828 0.37299,0.50413 0.85609,1.1525 1.36133,1.82422 0.50222,0.66771 0.97633,1.30548 1.33203,1.79297 0.17785,0.24374 0.3268,0.45032 0.43359,0.60156 0.1068,0.15124 0.20327,0.31593 0.15235,0.2207 0.0973,0.18207 0.0488,0.41216 -0.0312,0.49219 -0.13098,0.13097 -0.003,0.1 -0.22852,0.0664 -0.22518,-0.0336 -0.74474,-0.21939 -1.57226,-0.60546 -0.83138,-0.38788 -1.80863,-0.83056 -2.22657,-1.00586 l -0.70312,-0.29493 a 0.73491632,0.73491632 0 0 0 -0.43945,-0.041 l -3.17188,0.68164 c -0.86718,0.18627 -1.70508,0.35647 -2.34961,0.47851 -0.32226,0.061 -0.59674,0.1096 -0.79883,0.14258 -0.20208,0.033 -0.3981,0.045 -0.29687,0.0449 0.0737,-2e-5 -0.41926,-0.11384 -0.62891,-0.23632 -0.68728,-0.40153 -2.57941,-1.62234 -4.29687,-2.75977 -0.85873,-0.56871 -1.67972,-1.11929 -2.30078,-1.54492 -0.31054,-0.21282 -0.57122,-0.39532 -0.75782,-0.5293 -0.0933,-0.067 -0.16924,-0.12214 -0.21875,-0.16015 -0.0495,-0.038 -0.0943,-0.0893 -0.0273,-0.0176 0.0749,0.0802 -0.0146,-0.023 -0.0996,-0.20899 -0.085,-0.18593 -0.19949,-0.46913 -0.34375,-0.85351 -0.28852,-0.76877 -0.69488,-1.94256 -1.25781,-3.62891 -0.42527,-1.27398 -0.82791,-2.44742 -1.13477,-3.3164 -0.15343,-0.4345 -0.2825,-0.79228 -0.38086,-1.05274 -0.0492,-0.13023 -0.0893,-0.23489 -0.125,-0.32031 -0.0179,-0.0427 -0.0346,-0.0797 -0.0547,-0.1211 -0.0201,-0.0414 0.0358,-0.0371 -0.16211,-0.23632 -0.13622,-0.13714 -0.17936,-0.13551 -0.21875,-0.1543 -0.0394,-0.0188 -0.0652,-0.028 -0.0898,-0.0371 -0.0494,-0.0182 -0.0918,-0.0324 -0.14062,-0.0469 -0.0977,-0.0289 -0.21684,-0.0604 -0.36524,-0.0977 -0.29679,-0.0746 -0.70621,-0.16935 -1.20312,-0.28125 -0.99382,-0.2238 -2.33772,-0.51276 -3.80078,-0.8125 -1.45613,-0.29832 -2.82623,-0.58823 -3.85547,-0.81445 -0.51463,-0.11311 -0.9454,-0.20965 -1.25586,-0.28321 -0.15523,-0.0368 -0.2797,-0.0669 -0.36719,-0.0898 -0.0875,-0.0229 -0.17579,-0.0585 -0.0918,-0.0234 -0.21317,-0.0891 -0.26795,-0.38371 0,-0.625 -0.18913,0.17032 -0.0686,0.0511 0.0274,0.006 0.0959,-0.0452 0.24295,-0.11028 0.42578,-0.1875 0.36565,-0.15443 0.87863,-0.36039 1.48828,-0.59961 1.21931,-0.47844 2.82492,-1.08848 4.44727,-1.6914 1.62234,-0.60293 3.26219,-1.20072 4.55078,-1.6543 0.64429,-0.22679 1.20223,-0.4177 1.62109,-0.55469 0.41886,-0.13699 0.77545,-0.22493 0.72266,-0.2168 0.32953,-0.0508 2.46674,-0.27383 4.53906,-0.46289 1.77937,-0.16233 2.73351,-0.24488 3.24414,-0.26172 z" /><path
       id="path180"
       style="fill:#ffffff;stroke-width:0.176777"
       transform="matrix(0.26458333,0,0,0.26458333,-271.46249,-218.81041)"
       d="m 149.49414,115.45703 c -0.51137,0 -0.82398,0.261 -0.97461,0.41602 -0.15063,0.15502 -0.20999,0.26666 -0.25976,0.36133 -0.0996,0.18933 -0.13863,0.32443 -0.17969,0.46874 -0.0821,0.28863 -0.1354,0.594 -0.17188,0.93555 -0.0585,0.54753 -0.18014,1.59943 -0.26562,2.31445 l -0.15625,1.3125 a 1.3053063,1.3053063 0 0 0 0.15234,0.78126 l 0.70508,1.2871 a 1.3053063,1.3053063 0 0 0 0,0.002 c 0.32472,0.59165 0.56177,1.01629 0.93945,1.41406 0.37769,0.39777 0.83293,0.64489 1.28321,0.85156 0.50186,0.23035 1.27406,0.58795 1.70507,0.78906 0.53948,0.25173 1.00988,0.43287 1.56446,0.48047 0.55458,0.0476 1.32013,-0.17347 1.74023,-0.67968 0.5202,-0.6268 0.39204,-0.98749 0.38086,-1.33399 -0.0112,-0.3465 -0.0636,-0.69739 -0.14453,-1.10547 -0.1618,-0.81614 -0.44664,-1.83991 -0.8418,-3.04883 -0.50356,-1.54055 -0.94903,-2.19788 -2.13867,-3.17382 -0.76126,-0.62452 -1.34378,-1.0814 -1.80273,-1.40625 -0.22948,-0.16243 -0.42521,-0.29114 -0.62891,-0.40235 -0.2037,-0.1112 -0.34211,-0.26367 -0.90625,-0.26367 z" /><path
       style="fill:#05243c;fill-opacity:1;stroke-width:0.0264583"
       d="m -250.53291,-170.80281 c -0.0342,-0.0122 -1.48274,-0.73444 -2.17691,-1.08537 -0.36108,-0.18254 -0.39905,-0.29055 -0.24448,-0.69545 0.0528,-0.13824 0.14227,-0.37637 0.19889,-0.52917 0.0566,-0.15279 0.14438,-0.38497 0.19503,-0.51593 0.0506,-0.13097 0.15302,-0.39775 0.22749,-0.59284 0.1471,-0.38538 0.20864,-0.49236 0.29915,-0.52007 0.0324,-0.01 0.22554,-0.0984 0.42926,-0.19677 0.20373,-0.0983 0.5252,-0.253 0.71438,-0.34375 0.60317,-0.28933 1.16156,-0.55892 1.24704,-0.60206 l 0.0829,-0.0418 -0.0696,-0.0578 c -0.0383,-0.0318 -0.15298,-0.10925 -0.25484,-0.17209 -0.10187,-0.0628 -0.20902,-0.13473 -0.23813,-0.15978 -0.0291,-0.025 -0.16007,-0.11348 -0.29104,-0.19652 -0.47237,-0.29951 -0.52805,-0.34433 -1.20306,-0.96835 -0.18234,-0.16857 -0.46952,-0.43051 -0.63819,-0.58209 -0.64734,-0.58175 -1.33987,-1.21222 -1.48233,-1.34951 l -0.14859,-0.14317 -0.17475,-0.52917 c -0.0961,-0.29104 -0.48599,-1.4519 -0.86641,-2.57968 -0.8285,-2.45619 -0.83356,-2.47173 -0.8864,-2.72415 -0.023,-0.10972 -0.0767,-0.36619 -0.11937,-0.56992 -0.0427,-0.20373 -0.10087,-0.48352 -0.1293,-0.62177 -0.0284,-0.13824 -0.088,-0.42399 -0.13229,-0.635 -0.0443,-0.211 -0.10387,-0.49675 -0.13229,-0.635 -0.0284,-0.13824 -0.088,-0.42399 -0.13242,-0.635 -0.0444,-0.211 -0.092,-0.43722 -0.10571,-0.50271 -0.0137,-0.0655 -0.0435,-0.2024 -0.0661,-0.30427 -0.0805,-0.36217 -0.0925,-0.44281 -0.0763,-0.51202 0.0172,-0.0737 0.27866,-0.69818 0.74017,-1.76802 0.15176,-0.35179 0.29249,-0.68657 0.31273,-0.74395 0.0203,-0.0574 0.0494,-0.12674 0.0647,-0.15413 0.0153,-0.0274 0.13018,-0.29387 0.25521,-0.59219 0.12504,-0.29832 0.24374,-0.57811 0.26379,-0.62177 0.0789,-0.17176 0.59565,-1.38353 0.59565,-1.39676 0,-0.0128 1.15976,-2.64263 1.31513,-2.98209 0.0366,-0.08 0.0891,-0.19613 0.11657,-0.25797 0.0726,-0.16345 0.14872,-0.33466 0.2058,-0.46302 0.0275,-0.0618 0.10278,-0.22556 0.16729,-0.36381 0.0645,-0.13824 0.18191,-0.39883 0.26089,-0.57909 0.0859,-0.19617 0.16704,-0.34315 0.20201,-0.36612 0.0741,-0.0487 0.21031,-0.067 1.35187,-0.18142 0.76458,-0.0766 0.95089,-0.0881 1.02696,-0.063 0.076,0.0251 0.23885,0.20488 0.89159,0.98419 0.43926,0.52444 1.0594,1.26443 1.37809,1.64442 0.31869,0.37999 0.60083,0.73881 0.62698,0.79737 0.0279,0.0625 0.055,0.21 0.0657,0.35719 0.01,0.13789 0.026,0.26565 0.0356,0.28391 0.0111,0.0211 0.10879,-0.0789 0.26773,-0.27405 0.32382,-0.39763 0.81675,-1.00228 1.2821,-1.57267 0.20373,-0.24972 0.40613,-0.48391 0.44979,-0.52043 0.0437,-0.0365 0.19312,-0.17521 0.33214,-0.3082 0.28113,-0.26895 0.37139,-0.35317 0.92463,-0.86277 0.211,-0.19436 0.48196,-0.4474 0.60212,-0.56231 0.12016,-0.11492 0.27225,-0.23273 0.33797,-0.2618 l 0.11949,-0.0529 0.45579,0.0537 c 0.25067,0.0295 0.67604,0.0784 0.94526,0.10864 1.0594,0.1189 1.10709,0.13138 1.18133,0.30905 0.0424,0.10158 0.0313,0.14391 -0.49322,1.87319 -0.25565,0.84286 -0.3177,1.05221 -0.3177,1.07196 0,0.0193 0.14081,-0.017 0.56886,-0.14649 0.13096,-0.0396 0.30956,-0.093 0.39687,-0.11872 0.0873,-0.0257 0.41599,-0.12472 0.7304,-0.22008 l 0.57164,-0.17338 2.72609,-0.10773 c 1.49934,-0.0592 2.74824,-0.0997 2.77533,-0.0899 0.0271,0.01 1.07095,0.46833 2.31969,1.01894 1.24875,0.55062 2.27785,1.00112 2.28691,1.00112 0.009,0 0.0678,0.0238 0.13065,0.0529 0.0628,0.0291 0.16776,0.0767 0.23325,0.10583 0.0655,0.0291 0.16966,0.0758 0.23151,0.10383 0.0619,0.028 0.18388,0.0806 0.2712,0.11695 0.25521,0.10617 0.50243,0.25406 0.72161,0.43167 0.11243,0.0911 0.32081,0.25841 0.46306,0.37176 0.14225,0.11336 0.33275,0.26581 0.42333,0.33879 0.0906,0.073 0.23614,0.18609 0.32346,0.25136 0.0873,0.0653 0.26151,0.20201 0.38711,0.30387 0.12561,0.10187 0.32619,0.2626 0.44576,0.35719 0.11956,0.0946 0.2925,0.23151 0.38432,0.30427 0.0918,0.0728 0.22244,0.17396 0.29027,0.2249 0.30819,0.23142 0.30679,0.22912 0.58322,0.95249 0.0528,0.13825 0.17159,0.44186 0.26391,0.67469 0.0923,0.23284 0.21099,0.53645 0.26371,0.67469 0.0527,0.13824 0.13059,0.3347 0.17305,0.43656 0.0425,0.10187 0.12024,0.29832 0.17285,0.43656 0.0526,0.13825 0.1712,0.44186 0.26352,0.67469 0.0923,0.23284 0.21099,0.53644 0.2637,0.67469 0.0527,0.13824 0.13059,0.3347 0.17303,0.43656 0.0424,0.10187 0.15079,0.37571 0.24076,0.60854 0.09,0.23284 0.21475,0.55009 0.27728,0.70502 0.0625,0.15492 0.13211,0.36923 0.15461,0.47625 0.0225,0.10701 0.0538,0.24015 0.0696,0.29585 0.0158,0.0557 0.0448,0.17477 0.0645,0.26459 0.0197,0.0898 0.18671,0.78837 0.37115,1.55236 0.18445,0.76398 0.34626,1.44237 0.35959,1.50752 0.0133,0.0652 0.047,0.20804 0.0749,0.3175 0.18322,0.71955 0.24298,1.00647 0.22318,1.07156 -0.0209,0.0688 -0.34723,0.61902 -0.40834,0.68852 -0.0256,0.0291 -0.18563,0.28509 -0.35565,0.56886 -0.17002,0.28376 -0.33018,0.53975 -0.35592,0.56885 -0.0257,0.0291 -0.14949,0.22556 -0.27501,0.43656 l -0.22821,0.38365 -1.79293,1.79045 c -1.67295,1.67064 -1.80179,1.79312 -1.92522,1.83026 -0.0728,0.0219 -0.35851,0.11917 -0.635,0.21617 -0.27649,0.097 -0.55034,0.1922 -0.60855,0.21155 -0.18928,0.0629 -1.24142,0.43022 -1.31916,0.46054 -0.0416,0.0162 -0.25591,0.0648 -0.47625,0.10787 -0.22035,0.0431 -0.46016,0.0908 -0.53292,0.10597 -0.1513,0.0316 -0.69874,0.13756 -1.42875,0.27665 -0.27649,0.0527 -0.55033,0.10678 -0.60854,0.12022 -0.0582,0.0134 -0.33205,0.0671 -0.60854,0.11932 -0.27649,0.0522 -0.60987,0.11755 -0.74084,0.14527 -0.13096,0.0277 -0.46434,0.0931 -0.74083,0.14527 -0.27649,0.0522 -0.55033,0.10588 -0.60854,0.11934 -0.0582,0.0135 -0.30413,0.0624 -0.54648,0.10884 l -0.44065,0.0844 -0.10464,-0.0518 c -0.10409,-0.0515 -0.1212,-0.0514 -3.31207,0.0214 l -3.20744,0.0731 -0.50707,0.17005 c -0.59235,0.19864 -3.44217,1.13644 -3.86728,1.27261 -0.193,0.0618 -0.4069,0.10692 -0.635,0.13387 -0.18917,0.0224 -0.49874,0.0587 -0.68791,0.0809 -0.18918,0.0221 -0.73091,0.087 -1.20386,0.14413 -0.47294,0.0571 -0.9611,0.11562 -1.08479,0.12995 -0.12369,0.0143 -0.43097,0.0504 -0.68285,0.0802 -0.4909,0.0581 -0.47493,0.057 -0.53423,0.0358 z m 0.77703,-0.6436 c 0.75838,-0.0911 1.19449,-0.14378 1.63068,-0.19706 0.16735,-0.0204 0.68527,-0.0806 1.15093,-0.1336 0.49401,-0.0563 0.91831,-0.1181 1.01865,-0.14845 0.0946,-0.0286 0.87445,-0.28335 1.73302,-0.56609 0.85857,-0.28275 1.79917,-0.59229 2.09021,-0.68789 0.43403,-0.14257 0.54581,-0.1896 0.62177,-0.26162 0.0509,-0.0483 0.75935,-0.48397 1.57427,-0.96817 0.81492,-0.48419 1.66996,-0.99481 1.90008,-1.13469 1.69982,-1.03324 3.79938,-2.28155 3.91203,-2.32591 0.0881,-0.0347 0.10651,-0.0337 0.19844,0.0113 0.0769,0.0376 0.11032,0.0755 0.13868,0.15753 0.0339,0.0982 0.0327,0.11743 -0.0132,0.21072 -0.0456,0.0926 -0.13339,0.15185 -0.89869,0.60633 -0.46646,0.27701 -1.50826,0.89564 -2.31511,1.37473 -0.80684,0.47909 -1.4908,0.89088 -1.51991,0.91509 -0.0291,0.0242 -0.46144,0.28706 -0.96074,0.58413 l -0.90783,0.54013 0.15377,0.008 c 0.0846,0.004 1.44247,-0.0223 3.01757,-0.0588 1.57509,-0.0365 2.88055,-0.06 2.90101,-0.0522 0.0323,0.0124 0.57203,-0.0863 1.74935,-0.31997 0.17462,-0.0347 0.69254,-0.13546 1.15094,-0.224 0.45839,-0.0885 0.91678,-0.17809 1.01864,-0.19899 0.10187,-0.0209 0.59002,-0.11607 1.08479,-0.2115 1.11763,-0.21555 1.06307,-0.20163 1.8124,-0.46254 0.34197,-0.11907 0.70511,-0.24471 0.80698,-0.27919 0.10186,-0.0345 0.39357,-0.13502 0.64823,-0.2234 l 0.46302,-0.1607 0.70114,-0.70325 c 0.38563,-0.38679 0.67734,-0.69656 0.64823,-0.68838 -0.0291,0.008 -0.69349,0.15914 -1.47642,0.33546 l -1.42351,0.32058 -3.39734,-1.00762 c -2.69929,-0.80058 -3.42774,-1.00762 -3.54527,-1.00762 -0.12562,0 -0.51961,-0.0531 -1.36256,-0.18354 -0.0946,-0.0146 -0.46368,-0.0692 -0.82021,-0.12127 -0.95931,-0.14008 -2.05072,-0.30096 -2.26739,-0.33422 -0.22717,-0.0349 -0.29381,-0.0913 -0.32957,-0.2788 -0.0225,-0.11796 -0.15183,-0.84733 -0.3409,-1.92239 -0.0431,-0.24516 -0.0784,-0.47823 -0.0784,-0.51794 0,-0.11336 0.0529,-0.15046 0.70115,-0.49214 0.13096,-0.069 0.29765,-0.1579 0.37041,-0.19749 0.0728,-0.0396 0.22754,-0.12308 0.34396,-0.18552 0.11642,-0.0624 0.25929,-0.13957 0.3175,-0.1714 0.69572,-0.3804 0.91571,-0.49008 0.98303,-0.49008 0.0426,0 0.14242,0.0169 0.22188,0.0376 0.14774,0.0384 2.10783,0.51025 2.98874,0.71942 1.00908,0.2396 0.94242,0.21594 1.71,0.60711 0.39102,0.19926 0.81809,0.41891 0.94906,0.48812 0.13097,0.0692 0.47625,0.24775 0.76729,0.39678 1.35977,0.69626 1.61582,0.82865 1.64126,0.84857 0.0218,0.0171 1.99509,0.59134 3.35436,0.97617 l 0.25959,0.0735 0.70614,-0.24901 c 0.38838,-0.13696 1.06334,-0.37502 1.4999,-0.52902 0.43656,-0.154 0.85941,-0.30294 0.93967,-0.33099 0.13981,-0.0489 0.15253,-0.0615 0.30427,-0.30155 0.46482,-0.73544 0.5649,-0.90163 0.5666,-0.94084 10e-4,-0.034 -0.89128,-3.81625 -1.04217,-4.41521 -0.0202,-0.08 -0.0564,-0.22887 -0.0805,-0.33073 -0.0241,-0.10187 -0.086,-0.29237 -0.13746,-0.42334 -0.0515,-0.13097 -0.121,-0.30956 -0.15441,-0.39687 -0.0334,-0.0873 -0.10799,-0.27782 -0.16571,-0.42334 -0.1529,-0.38542 -0.27049,-0.68392 -0.46901,-1.19062 -0.0969,-0.24739 -0.22379,-0.56886 -0.28193,-0.71438 -0.0581,-0.14552 -0.13304,-0.33602 -0.16645,-0.42333 -0.0334,-0.0873 -0.10299,-0.26591 -0.15463,-0.39687 -0.0516,-0.13097 -0.17319,-0.44054 -0.27012,-0.68792 -0.0969,-0.24739 -0.22135,-0.5629 -0.2765,-0.70115 -0.0552,-0.13824 -0.1446,-0.36446 -0.19876,-0.50271 -0.0542,-0.13824 -0.116,-0.29396 -0.13741,-0.34604 -0.0222,-0.054 -0.0962,-0.13932 -0.17198,-0.19844 -0.0732,-0.0571 -0.20777,-0.16328 -0.2991,-0.23604 -0.0913,-0.0728 -0.25792,-0.20372 -0.3702,-0.29104 -0.11227,-0.0873 -0.28522,-0.22423 -0.38433,-0.30427 -0.0991,-0.08 -0.27207,-0.21696 -0.38434,-0.30427 -0.11227,-0.0873 -0.27884,-0.21828 -0.37015,-0.29104 -0.0913,-0.0728 -0.3472,-0.27517 -0.56865,-0.44979 -0.22146,-0.17463 -0.45785,-0.36245 -0.52533,-0.41738 -0.11754,-0.0957 -0.19556,-0.13838 -0.47325,-0.25897 -0.0691,-0.03 -0.17926,-0.0793 -0.24474,-0.10944 -0.0655,-0.0302 -0.16669,-0.0754 -0.2249,-0.10057 -0.0582,-0.0251 -0.15941,-0.0701 -0.22489,-0.1 -0.0655,-0.0299 -1.13757,-0.50203 -2.38241,-1.04926 l -2.26335,-0.99498 -2.67113,0.10636 c -2.10848,0.084 -2.699,0.115 -2.80343,0.14744 -0.0728,0.0226 -0.22754,0.0693 -0.34395,0.10369 -0.11642,0.0344 -0.35455,0.10566 -0.52917,0.15828 -0.17463,0.0526 -0.4187,0.12577 -0.5424,0.16257 -0.12369,0.0368 -0.25466,0.0773 -0.29104,0.09 -0.0747,0.0261 -0.44074,0.13524 -0.66439,0.19805 -0.16439,0.0462 -0.34497,0.15844 -1.31981,0.82059 -0.36421,0.24739 -0.7617,0.51528 -0.8833,0.59531 -0.12161,0.08 -0.45017,0.30031 -0.73014,0.48948 -0.27997,0.18918 -0.58992,0.39754 -0.68878,0.46302 -0.0989,0.0655 -0.40834,0.27385 -0.68774,0.46302 -0.60421,0.4091 -0.79487,0.53672 -1.0738,0.71878 -0.35289,0.23033 -0.39677,0.26982 -0.90627,0.81549 -0.27158,0.29086 -0.53546,0.57158 -0.58639,0.62381 -0.0509,0.0522 -0.24715,0.26074 -0.43603,0.46334 -0.33715,0.36164 -0.46919,0.50224 -0.91541,0.97477 -0.12256,0.12978 -0.24069,0.2552 -0.26252,0.27869 -0.43612,0.46947 -1.15349,1.23604 -1.33785,1.42959 -0.1319,0.13848 -0.33405,0.35299 -0.44922,0.47668 -0.11517,0.12369 -0.21921,0.23194 -0.2312,0.24054 -0.012,0.009 -0.0752,0.23483 -0.14039,0.50271 -0.4811,1.97583 -0.51437,2.09815 -0.59229,2.17739 -0.14583,0.1483 -0.41768,0.0665 -0.4597,-0.13834 -0.008,-0.0409 0.0399,-0.29203 0.11534,-0.59949 0.3778,-1.54055 0.47596,-1.94826 0.47627,-1.97806 10e-4,-0.14454 0.24109,-0.42689 1.36367,-1.60704 0.10381,-0.10914 0.27776,-0.29369 0.38655,-0.41011 0.10878,-0.11641 0.4048,-0.43193 0.6578,-0.70114 0.25301,-0.26922 0.53262,-0.56687 0.62137,-0.66146 0.0887,-0.0946 0.26786,-0.28532 0.39805,-0.42384 0.13019,-0.13852 0.39744,-0.42399 0.59389,-0.63437 0.19645,-0.21038 0.44842,-0.47804 0.55993,-0.59481 0.11151,-0.11676 0.22947,-0.24631 0.26212,-0.28789 0.0326,-0.0416 0.14276,-0.13087 0.24467,-0.19843 0.34405,-0.22809 0.54018,-0.35978 1.04995,-0.70493 0.57842,-0.39164 0.78271,-0.52846 1.06071,-0.71039 0.10783,-0.0706 0.21554,-0.14201 0.23935,-0.15875 0.10311,-0.0725 1.07477,-0.72912 1.23923,-0.83742 0.0994,-0.0655 0.40884,-0.27385 0.68754,-0.46302 0.54078,-0.36706 0.74746,-0.50543 1.06326,-0.71182 0.19254,-0.12583 0.19989,-0.13458 0.24482,-0.29104 0.0705,-0.24552 0.20173,-0.68231 0.22733,-0.75662 0.0125,-0.0364 0.11412,-0.37571 0.22575,-0.75407 0.11163,-0.37835 0.2374,-0.80015 0.2795,-0.93734 0.0421,-0.13718 0.0737,-0.25173 0.0702,-0.25456 -0.003,-0.003 -0.19089,-0.0259 -0.41644,-0.0512 -0.22556,-0.0253 -0.64228,-0.0727 -0.92604,-0.10516 l -0.51594,-0.0591 -0.17258,0.16129 c -0.50935,0.47604 -0.67628,0.6315 -1.42815,1.32994 -0.28377,0.26361 -0.59928,0.58265 -0.70115,0.709 -0.10186,0.12634 -0.3638,0.44813 -0.58208,0.71508 -0.21828,0.26695 -0.55981,0.68577 -0.75896,0.93069 -0.19914,0.24493 -0.46658,0.57359 -0.5943,0.73037 -0.18129,0.22252 -0.25305,0.29128 -0.32711,0.31347 -0.13394,0.0401 -0.27951,-0.0227 -0.32944,-0.1422 -0.0214,-0.0512 -0.0567,-0.34687 -0.0843,-0.70683 l -0.0476,-0.61885 -0.9186,-1.0999 c -0.77212,-0.92452 -1.09727,-1.31284 -1.62073,-1.93559 l -0.0575,-0.0684 -0.84543,0.0875 c -0.46499,0.0481 -0.87044,0.0878 -0.90099,0.0882 -0.0459,6e-4 -0.0845,0.0666 -0.22157,0.37781 -0.0913,0.20737 -0.20718,0.46633 -0.25751,0.57547 -0.12605,0.27338 -0.19205,0.41822 -0.24718,0.5424 -0.0258,0.0582 -0.0828,0.18322 -0.12655,0.27781 -0.15451,0.33394 -1.32737,2.9947 -1.32737,3.01128 0,0.014 -0.45214,1.0794 -0.56914,1.34112 -0.0195,0.0437 -0.1389,0.32345 -0.26531,0.62177 -0.51839,1.2234 -0.83968,1.97709 -0.88539,2.07698 -0.0266,0.0582 -0.13835,0.3168 -0.24825,0.57466 l -0.1998,0.46883 0.0533,0.24555 c 0.10338,0.47625 0.21254,0.98775 0.23591,1.10543 0.013,0.0655 0.0725,0.35124 0.1321,0.635 0.0596,0.28377 0.11917,0.56952 0.13229,0.635 0.0131,0.0655 0.0725,0.35124 0.13188,0.635 0.0594,0.28377 0.13842,0.66477 0.17554,0.84667 0.0702,0.34414 0.10236,0.44308 1.20246,3.70417 0.36572,1.08413 0.67091,1.99095 0.67821,2.01515 0.0122,0.0406 0.30785,0.31737 1.05238,0.98529 0.16063,0.1441 0.29801,0.26913 0.30528,0.27785 0.007,0.009 0.13229,0.1226 0.27781,0.25309 0.14553,0.13049 0.34208,0.30906 0.4368,0.39684 0.72321,0.67023 0.75097,0.69232 1.50381,1.19667 0.70624,0.47315 0.76177,0.50527 0.81106,0.46924 0.0291,-0.0213 0.0827,-0.0529 0.11907,-0.0703 0.0364,-0.0174 0.41589,-0.32378 0.84337,-0.6809 1.89059,-1.57941 1.70598,-1.41507 1.74959,-1.55744 0.0119,-0.0389 0.0599,-0.17202 0.10653,-0.29571 0.0467,-0.12369 0.12417,-0.33205 0.17223,-0.46302 0.0481,-0.13097 0.12512,-0.33933 0.17123,-0.46302 0.0461,-0.12369 0.0936,-0.25466 0.10555,-0.29104 0.0119,-0.0364 0.0535,-0.14949 0.0925,-0.25136 0.0389,-0.10186 0.11869,-0.31617 0.17728,-0.47625 0.181,-0.49452 0.20101,-0.54885 0.28753,-0.78052 0.0462,-0.12369 0.12332,-0.33205 0.17138,-0.46302 0.0481,-0.13097 0.12511,-0.33933 0.17123,-0.46302 0.0461,-0.12369 0.0936,-0.25466 0.10555,-0.29104 0.0119,-0.0364 0.0508,-0.14354 0.0864,-0.23813 0.16756,-0.44532 0.25365,-0.67927 0.26848,-0.72955 0.009,-0.0302 0.0511,-0.0884 0.0939,-0.12929 0.15437,-0.1479 0.41871,-0.0627 0.46097,0.14858 0.0152,0.076 7e-4,0.12345 -0.22337,0.73011 -0.0282,0.0764 -0.0762,0.20737 -0.10663,0.29104 -0.0304,0.0837 -0.0718,0.19381 -0.0919,0.24474 -0.0201,0.0509 -0.0971,0.25929 -0.17105,0.46302 -0.074,0.20373 -0.15691,0.42995 -0.1843,0.50271 -0.0274,0.0728 -0.12874,0.3466 -0.22522,0.60854 -0.25622,0.69567 -0.27229,0.73939 -0.33296,0.9062 -0.0304,0.0837 -0.0718,0.19381 -0.0919,0.24474 -0.0201,0.0509 -0.0971,0.25929 -0.17105,0.46302 -0.13787,0.37973 -0.15441,0.42441 -0.34364,0.92836 l -0.11016,0.29335 -0.35967,0.30196 c -0.38721,0.32508 -0.81296,0.67957 -1.04584,0.87081 -0.34703,0.28496 -1.26129,1.06317 -1.39429,1.18679 -0.14708,0.13672 -0.31281,0.22641 -1.23031,0.6659 -0.81273,0.38931 -1.0149,0.48674 -1.40229,0.67586 l -0.39688,0.19374 -0.0701,0.18005 c -0.13206,0.33903 -0.29422,0.76212 -0.35294,0.92089 -0.0323,0.0873 -0.10132,0.27186 -0.15338,0.4101 -0.0521,0.13824 -0.10118,0.28112 -0.10914,0.3175 -0.0139,0.0635 0.0247,0.0858 0.97056,0.55867 0.54178,0.27089 0.98942,0.49413 0.99478,0.49609 0.005,0.002 0.30896,-0.0324 0.67469,-0.0763 z m 21.76547,-11.84449 c -0.0218,-0.008 -0.12899,-0.0553 -0.23813,-0.10583 -0.10914,-0.0505 -0.24606,-0.11396 -0.30427,-0.14093 -0.0582,-0.027 -0.22308,-0.10426 -0.36637,-0.17174 -0.14683,-0.0691 -0.27893,-0.11565 -0.30265,-0.10655 -0.0374,0.0144 -0.27076,0.0651 -1.47602,0.32118 -0.37591,0.0799 -0.33526,0.0905 -0.79533,-0.20842 -0.16199,-0.10526 -0.36776,-0.239 -0.45727,-0.29721 -0.0895,-0.0582 -0.25462,-0.16728 -0.36692,-0.24238 -0.1123,-0.0751 -0.31134,-0.2032 -0.44231,-0.28467 -0.37075,-0.23062 -0.52468,-0.34401 -0.58209,-0.42876 -0.0291,-0.043 -0.2362,-0.6313 -0.46021,-1.30741 -0.22402,-0.6761 -0.40935,-1.23205 -0.41186,-1.23544 -0.003,-0.003 -0.24189,-0.0544 -0.53197,-0.11327 -2.39431,-0.48625 -2.40865,-0.48936 -2.48143,-0.53704 -0.0994,-0.0651 -0.13908,-0.21946 -0.088,-0.34185 0.0448,-0.10728 0.10967,-0.14787 0.41323,-0.25868 0.31885,-0.11639 1.05854,-0.39467 1.23186,-0.46344 0.0873,-0.0346 0.27781,-0.10695 0.42333,-0.16068 0.14552,-0.0537 0.34198,-0.12682 0.43657,-0.16241 0.0946,-0.0356 0.20174,-0.0743 0.23812,-0.086 0.0364,-0.0117 0.17926,-0.0651 0.3175,-0.11866 0.44198,-0.17115 0.53631,-0.19616 0.84667,-0.22449 0.53668,-0.049 1.43364,-0.13228 1.71623,-0.15938 0.36423,-0.0349 0.4059,-0.0154 0.70969,0.33302 0.12823,0.14707 0.40028,0.45663 0.60456,0.68792 0.97865,1.10804 1.14537,1.30554 1.1728,1.38933 0.0161,0.0492 0.054,0.25621 0.0842,0.45994 0.088,0.5943 0.26362,1.78875 0.28176,1.91674 0.0204,0.14363 0.0281,0.15469 0.96986,1.38719 0.10978,0.14367 0.20685,0.29424 0.21572,0.3346 0.043,0.19571 -0.17115,0.39069 -0.3573,0.32535 z m -2.59274,-2.30121 c 0.0781,-0.0657 0.0828,-0.0792 0.0706,-0.20505 -0.0165,-0.17074 -0.11943,-0.61649 -0.16245,-0.70355 -0.029,-0.0587 -0.10497,-0.28339 -0.17506,-0.51782 -0.0134,-0.0447 -0.0243,-0.10074 -0.0243,-0.12455 0,-0.0383 -0.18191,-0.20085 -0.47309,-0.42282 -0.0527,-0.0401 -0.13744,-0.10977 -0.18837,-0.15471 -0.0509,-0.0449 -0.13507,-0.1035 -0.18698,-0.13012 -0.0519,-0.0266 -0.10992,-0.0671 -0.12891,-0.09 -0.019,-0.0229 -0.0495,-0.0416 -0.0678,-0.0416 -0.0394,0 -0.0926,0.19324 -0.0923,0.33583 0,0.0554 -0.0248,0.29952 -0.0554,0.54248 l -0.0556,0.44174 0.1563,0.27263 c 0.086,0.14995 0.16393,0.29299 0.17327,0.31787 0.0212,0.0564 0.2243,0.20582 0.28139,0.20696 0.0233,4e-4 0.0654,0.0183 0.0937,0.0397 0.0283,0.0214 0.0672,0.0388 0.0866,0.0388 0.0194,0 0.11531,0.0379 0.21322,0.0843 0.26741,0.12664 0.3863,0.17717 0.42072,0.17881 0.0171,8e-4 0.0687,-0.0302 0.11466,-0.0689 z m -5.1814,-3.90672 c -0.0347,-0.037 -0.0575,-0.0953 -0.0575,-0.14731 0,-0.0851 0.0914,-0.22833 0.92248,-1.44509 0.10932,-0.16008 0.29475,-0.43392 0.41205,-0.60855 0.20989,-0.31245 0.21644,-0.31907 0.41172,-0.41672 0.45007,-0.22503 0.94429,-0.44874 1.01865,-0.46108 0.0436,-0.007 0.3294,0.0178 0.635,0.0557 0.30559,0.0379 0.66873,0.0816 0.80698,0.0971 0.2781,0.0312 0.34701,0.0567 0.54576,0.20227 0.41683,0.30525 0.69628,0.50794 0.8276,0.60025 0.0814,0.0572 0.20359,0.14652 0.27155,0.19844 0.068,0.0519 0.20191,0.15097 0.29766,0.22009 0.33917,0.24484 0.52413,0.37906 0.75658,0.54901 0.12938,0.0946 0.31017,0.22556 0.40176,0.29104 0.2901,0.20741 0.39159,0.31337 0.39159,0.40886 0,0.10925 -0.0933,0.19968 -0.20607,0.19968 -0.0734,0 -0.33376,-0.0901 -0.57445,-0.19886 -0.14708,-0.0664 -1.23095,-0.51551 -1.24422,-0.51551 -0.007,0 -0.0636,-0.0231 -0.12529,-0.0512 -0.0617,-0.0282 -0.18955,-0.0829 -0.28414,-0.12159 -0.0946,-0.0387 -0.2077,-0.0861 -0.25135,-0.10544 -0.16113,-0.0712 -0.72759,-0.30383 -0.73996,-0.30383 -0.007,0 -0.0875,-0.0337 -0.17881,-0.0748 -0.0913,-0.0412 -0.23746,-0.10311 -0.32478,-0.13769 -0.0873,-0.0346 -0.18723,-0.0775 -0.22203,-0.0953 -0.0511,-0.0262 -0.0741,-0.0253 -0.11976,0.005 -0.031,0.0204 -0.30492,0.12219 -0.60858,0.22633 -0.43794,0.15017 -0.58006,0.2109 -0.68723,0.29367 -0.14297,0.11042 -0.48296,0.36781 -0.60426,0.45745 -0.0398,0.0294 -0.21834,0.16549 -0.39687,0.30248 -0.82823,0.6355 -0.83082,0.63729 -0.92579,0.63729 -0.0606,0 -0.10982,-0.0203 -0.14826,-0.0612 z"
       id="path179" /></g></svg>
