<?xml version="1.0" encoding="UTF-8" standalone="no"?>
<!-- Created with Inkscape (http://www.inkscape.org/) -->

<svg
   width="400"
   height="400"
   viewBox="0 0 105.83333 105.83333"
   version="1.1"
   id="svg5"
   xml:space="preserve"
   inkscape:version="1.2.2 (b0a8486541, 2022-12-01)"
   sodipodi:docname="test.svg"
   inkscape:export-filename="finished/400x400.png"
   inkscape:export-xdpi="96"
   inkscape:export-ydpi="96"
   xmlns:inkscape="http://www.inkscape.org/namespaces/inkscape"
   xmlns:sodipodi="http://sodipodi.sourceforge.net/DTD/sodipodi-0.dtd"
   xmlns="http://www.w3.org/2000/svg"
   xmlns:svg="http://www.w3.org/2000/svg"><sodipodi:namedview
     id="namedview7"
     pagecolor="#ffffff"
     bordercolor="#000000"
     borderopacity="0.25"
     inkscape:showpageshadow="2"
     inkscape:pageopacity="0.0"
     inkscape:pagecheckerboard="0"
     inkscape:deskcolor="#d1d1d1"
     inkscape:document-units="mm"
     showgrid="false"
     inkscape:lockguides="true"
     inkscape:zoom="0.35355339"
     inkscape:cx="694.37886"
     inkscape:cy="1144.0988"
     inkscape:window-width="1920"
     inkscape:window-height="1020"
     inkscape:window-x="0"
     inkscape:window-y="0"
     inkscape:window-maximized="1"
     inkscape:current-layer="layer1" /><defs
     id="defs2" /><g
     inkscape:label="Layer 1"
     inkscape:groupmode="layer"
     id="layer1"
     transform="translate(271.46249,218.81041)"><path
       style="fill:#05243c;fill-opacity:1;stroke-width:0.0423333"
       d="m -237.97491,-141.99824 c -0.0547,-0.0195 -2.37239,-1.1751 -3.48306,-1.73659 -0.57772,-0.29207 -0.63847,-0.46488 -0.39116,-1.11272 0.0844,-0.22119 0.22763,-0.60219 0.31822,-0.84667 0.0906,-0.24447 0.23101,-0.61595 0.31205,-0.8255 0.0811,-0.20955 0.24484,-0.63639 0.36398,-0.94854 0.23536,-0.6166 0.33382,-0.78777 0.47865,-0.83211 0.0518,-0.0159 0.36085,-0.15752 0.68682,-0.31483 0.32596,-0.1573 0.84031,-0.4048 1.143,-0.54999 0.96507,-0.46294 1.85849,-0.89428 1.99525,-0.96331 l 0.13259,-0.0669 -0.11142,-0.0926 c -0.0613,-0.0509 -0.24477,-0.1748 -0.40776,-0.27533 -0.16298,-0.10054 -0.33443,-0.21558 -0.381,-0.25565 -0.0466,-0.0401 -0.25611,-0.18158 -0.46566,-0.31444 -0.75579,-0.47921 -0.84489,-0.55093 -1.9249,-1.54937 -0.29174,-0.2697 -0.75124,-0.6888 -1.02111,-0.93133 -1.03574,-0.93081 -2.14378,-1.93957 -2.37173,-2.15922 l -0.23773,-0.22907 -0.2796,-0.84667 c -0.15378,-0.46567 -0.77759,-2.32304 -1.38626,-4.1275 -1.3256,-3.9299 -1.33369,-3.95477 -1.41824,-4.35863 -0.0367,-0.17556 -0.1227,-0.58591 -0.191,-0.91187 -0.0683,-0.32597 -0.16139,-0.77365 -0.20687,-0.99484 -0.0455,-0.22119 -0.14073,-0.67839 -0.21167,-1.016 -0.0709,-0.33761 -0.16618,-0.79481 -0.21167,-1.016 -0.0455,-0.22119 -0.14082,-0.67839 -0.21187,-1.016 -0.0711,-0.3376 -0.14715,-0.69955 -0.16912,-0.80433 -0.022,-0.10477 -0.0696,-0.32385 -0.10582,-0.48683 -0.1288,-0.57948 -0.14804,-0.7085 -0.12216,-0.81924 0.0275,-0.11787 0.44586,-1.11709 1.18428,-2.82883 0.24281,-0.56286 0.46798,-1.09851 0.50037,-1.19032 0.0324,-0.0918 0.079,-0.20278 0.1035,-0.2466 0.0245,-0.0438 0.20828,-0.4702 0.40834,-0.94751 0.20005,-0.47731 0.38998,-0.92499 0.42206,-0.99484 0.12623,-0.27481 0.95303,-2.21364 0.95303,-2.23481 0,-0.0206 1.85562,-4.2282 2.10422,-4.77135 0.0586,-0.12806 0.14254,-0.3138 0.18651,-0.41275 0.11619,-0.26152 0.23795,-0.53546 0.32927,-0.74084 0.044,-0.099 0.16446,-0.36089 0.26768,-0.58208 0.10321,-0.22119 0.29105,-0.63814 0.41741,-0.92655 0.13751,-0.31387 0.26727,-0.54904 0.32323,-0.5858 0.11863,-0.0779 0.33648,-0.10716 2.16297,-0.29027 1.22335,-0.12264 1.52144,-0.14092 1.64315,-0.10075 0.12153,0.0401 0.38216,0.32781 1.42654,1.57471 0.70282,0.8391 1.69505,2.02308 2.20495,2.63107 0.5099,0.60798 0.96133,1.18209 1.00317,1.27579 0.0447,0.10003 0.088,0.33601 0.10504,0.5715 0.0159,0.22063 0.0416,0.42504 0.057,0.45427 0.0178,0.0337 0.17408,-0.12624 0.42837,-0.43849 0.51811,-0.6362 1.3068,-1.60364 2.05136,-2.51627 0.32597,-0.39955 0.64982,-0.77426 0.71967,-0.83269 0.0698,-0.0584 0.30899,-0.28033 0.53142,-0.49312 0.44981,-0.43032 0.59423,-0.56507 1.47941,-1.38042 0.33761,-0.31098 0.77114,-0.71585 0.96339,-0.89971 0.19226,-0.18387 0.4356,-0.37236 0.54075,-0.41888 l 0.1912,-0.0846 0.72925,0.0859 c 0.40108,0.0473 1.08167,0.12549 1.51241,0.17383 1.69506,0.19024 1.77136,0.2102 1.89014,0.49447 0.0679,0.16253 0.0501,0.23027 -0.78916,2.99712 -0.40904,1.34857 -0.50831,1.68353 -0.50831,1.71514 0,0.0308 0.22529,-0.0272 0.91017,-0.23439 0.20955,-0.0634 0.4953,-0.14887 0.635,-0.18996 0.1397,-0.0411 0.66558,-0.19955 1.16863,-0.35212 l 0.91463,-0.27742 4.36174,-0.17235 c 2.39896,-0.0948 4.3972,-0.15953 4.44053,-0.14384 0.0433,0.0157 1.71352,0.74933 3.71151,1.63032 1.99799,0.88098 3.64456,1.60178 3.65905,1.60178 0.0145,0 0.10856,0.0381 0.20904,0.0847 0.10048,0.0466 0.26843,0.12277 0.3732,0.16933 0.10478,0.0466 0.27146,0.12133 0.37042,0.16613 0.099,0.0448 0.29421,0.129 0.43391,0.18712 0.40834,0.16987 0.80389,0.40649 1.15458,0.69067 0.1799,0.14579 0.51331,0.41346 0.7409,0.59482 0.2276,0.18137 0.5324,0.4253 0.67733,0.54206 0.14494,0.11677 0.37783,0.29774 0.51753,0.40217 0.1397,0.10443 0.41842,0.32322 0.61938,0.4862 0.20097,0.16298 0.52191,0.42016 0.71321,0.5715 0.1913,0.15134 0.46801,0.37042 0.61492,0.48683 0.14691,0.11642 0.3559,0.27835 0.46443,0.35984 0.49311,0.37028 0.49086,0.3666 0.93315,1.524 0.0845,0.22119 0.27455,0.70696 0.42226,1.0795 0.14771,0.37253 0.33758,0.85831 0.42193,1.0795 0.0843,0.22119 0.20895,0.53551 0.27688,0.6985 0.0679,0.16298 0.1924,0.47731 0.27657,0.6985 0.0842,0.22119 0.27391,0.70696 0.42162,1.0795 0.14771,0.37253 0.33758,0.8583 0.42193,1.0795 0.0843,0.22119 0.20893,0.53551 0.27685,0.6985 0.0679,0.16298 0.24127,0.60113 0.38522,0.97366 0.14394,0.37254 0.34359,0.88015 0.44365,1.12803 0.10005,0.24787 0.21137,0.59077 0.24736,0.762 0.036,0.17122 0.0861,0.38423 0.11136,0.47336 0.0253,0.0891 0.0717,0.27964 0.1032,0.42334 0.0315,0.1437 0.29874,1.2614 0.59385,2.48377 0.29512,1.22238 0.55402,2.3078 0.57534,2.41205 0.0213,0.10425 0.0752,0.33285 0.11985,0.508 0.29315,1.15127 0.38877,1.61035 0.35709,1.71449 -0.0335,0.11014 -0.55557,0.99043 -0.65335,1.10163 -0.0409,0.0466 -0.29701,0.45614 -0.56904,0.91017 -0.27203,0.45402 -0.52829,0.8636 -0.56946,0.91017 -0.0412,0.0466 -0.23918,0.36089 -0.44001,0.6985 l -0.36514,0.61383 -2.86869,2.86473 c -2.67672,2.67301 -2.88286,2.86899 -3.08036,2.92841 -0.11642,0.035 -0.57362,0.19067 -1.016,0.34588 -0.44239,0.1552 -0.88054,0.30752 -0.97367,0.33847 -0.30285,0.10064 -1.98628,0.68836 -2.11066,0.73687 -0.0666,0.026 -0.40945,0.10362 -0.762,0.17259 -0.35255,0.069 -0.73626,0.14527 -0.85267,0.16955 -0.24208,0.0505 -1.11799,0.22009 -2.286,0.44264 -0.44239,0.0843 -0.88054,0.17084 -0.97367,0.19236 -0.0931,0.0215 -0.53128,0.10742 -0.97367,0.1909 -0.44238,0.0835 -0.97578,0.18808 -1.18533,0.23243 -0.20955,0.0444 -0.74295,0.14896 -1.18533,0.23244 -0.44239,0.0835 -0.88054,0.16941 -0.97367,0.19095 -0.0931,0.0215 -0.4866,0.0999 -0.87437,0.17414 l -0.70503,0.13499 -0.16742,-0.0828 c -0.16656,-0.0824 -0.19393,-0.0822 -5.29933,0.0342 l -5.1319,0.11703 -0.81131,0.27208 c -0.94775,0.31783 -5.50747,1.8183 -6.18764,2.03617 -0.3088,0.0989 -0.65105,0.17107 -1.016,0.2142 -0.30268,0.0358 -0.79798,0.094 -1.10067,0.12938 -0.30268,0.0354 -1.16945,0.13916 -1.92616,0.2306 -0.75671,0.0914 -1.53776,0.185 -1.73567,0.20792 -0.19791,0.0229 -0.68956,0.0807 -1.09255,0.12837 -0.78545,0.0929 -0.75989,0.0912 -0.85478,0.0573 z m 1.24324,-1.02975 c 1.21342,-0.14573 1.91119,-0.23005 2.60909,-0.31531 0.26776,-0.0327 1.09643,-0.1289 1.8415,-0.21376 0.79041,-0.09 1.46928,-0.18896 1.62983,-0.23752 0.15135,-0.0458 1.39912,-0.45335 2.77284,-0.90574 1.37371,-0.45239 2.87866,-0.94767 3.34433,-1.10063 0.69446,-0.22811 0.8733,-0.30336 0.99483,-0.41859 0.0815,-0.0773 1.21497,-0.77435 2.51884,-1.54906 1.30386,-0.77471 2.67193,-1.5917 3.04013,-1.81551 2.7197,-1.65319 6.07901,-3.65047 6.25925,-3.72145 0.14096,-0.0555 0.17041,-0.0538 0.3175,0.018 0.12307,0.0601 0.17652,0.12082 0.22188,0.25205 0.0543,0.15708 0.0524,0.18788 -0.0212,0.33714 -0.073,0.14824 -0.21343,0.24296 -1.43791,0.97013 -0.74634,0.44322 -2.41321,1.43303 -3.70417,2.19957 -1.29095,0.76655 -2.38529,1.42541 -2.43186,1.46414 -0.0466,0.0387 -0.7383,0.4593 -1.53719,0.93461 l -1.45253,0.8642 0.24603,0.0122 c 0.13532,0.007 2.30797,-0.0356 4.82812,-0.0941 2.52015,-0.0585 4.60888,-0.096 4.64162,-0.0834 0.0517,0.0198 0.91524,-0.13811 2.79895,-0.51196 0.2794,-0.0555 1.10808,-0.21673 1.84151,-0.3584 0.73342,-0.14167 1.46684,-0.28494 1.62983,-0.31838 0.16298,-0.0335 0.94403,-0.18572 1.73566,-0.3384 1.78821,-0.34488 1.70091,-0.32261 2.89984,-0.74006 0.54716,-0.19051 1.12818,-0.39154 1.29116,-0.44671 0.16299,-0.0552 0.62971,-0.21603 1.03717,-0.35745 l 0.74083,-0.25711 1.12184,-1.1252 c 0.61701,-0.61887 1.08373,-1.1145 1.03716,-1.10141 -0.0466,0.0131 -1.10959,0.25462 -2.36228,0.53673 l -2.27761,0.51294 -5.43575,-1.6122 c -4.31886,-1.28093 -5.48437,-1.61219 -5.67242,-1.61219 -0.201,0 -0.83139,-0.0849 -2.1801,-0.29366 -0.15134,-0.0234 -0.74189,-0.11074 -1.31234,-0.19404 -1.53489,-0.22413 -3.28115,-0.48153 -3.62781,-0.53475 -0.36348,-0.0558 -0.47011,-0.146 -0.52732,-0.44609 -0.036,-0.18873 -0.24292,-1.35571 -0.54544,-3.07581 -0.069,-0.39226 -0.12543,-0.76517 -0.12543,-0.82871 0,-0.18137 0.0846,-0.24073 1.12184,-0.78742 0.20955,-0.11045 0.47625,-0.25264 0.59266,-0.31599 0.11642,-0.0634 0.36407,-0.19692 0.55034,-0.29683 0.18626,-0.0999 0.41486,-0.22331 0.508,-0.27424 1.11315,-0.60864 1.46514,-0.78412 1.57284,-0.78412 0.0681,0 0.22788,0.0271 0.35501,0.0601 0.23639,0.0615 3.37254,0.81641 4.78198,1.15107 1.61454,0.38337 1.50788,0.3455 2.73601,0.97137 0.62562,0.31882 1.30894,0.67027 1.51849,0.78099 0.20955,0.11073 0.762,0.39641 1.22767,0.63485 2.17563,1.11403 2.58532,1.32585 2.62601,1.35772 0.0349,0.0273 3.19215,0.94614 5.36698,1.56188 l 0.41534,0.11758 1.12983,-0.39842 c 0.62141,-0.21913 1.70134,-0.60003 2.39984,-0.84643 0.6985,-0.2464 1.37506,-0.48471 1.50346,-0.52959 0.2237,-0.0782 0.24406,-0.0983 0.48683,-0.48247 0.74372,-1.17671 0.90385,-1.44262 0.90657,-1.50535 0.002,-0.0545 -1.42605,-6.106 -1.66747,-7.06434 -0.0323,-0.12806 -0.0902,-0.36619 -0.12875,-0.52917 -0.0385,-0.16299 -0.13752,-0.46779 -0.21994,-0.67734 -0.0824,-0.20954 -0.1936,-0.4953 -0.24706,-0.635 -0.0535,-0.1397 -0.17277,-0.4445 -0.26514,-0.67733 -0.24464,-0.61667 -0.43278,-1.09428 -0.75041,-1.905 -0.15508,-0.39581 -0.35807,-0.91017 -0.45108,-1.143 -0.093,-0.23283 -0.21286,-0.53763 -0.26632,-0.67733 -0.0535,-0.1397 -0.1648,-0.42545 -0.24742,-0.635 -0.0826,-0.20955 -0.2771,-0.70485 -0.43218,-1.10067 -0.15508,-0.39581 -0.35416,-0.90064 -0.44241,-1.12183 -0.0883,-0.22119 -0.23135,-0.58314 -0.31801,-0.80434 -0.0867,-0.22119 -0.1856,-0.47034 -0.21986,-0.55367 -0.0355,-0.0863 -0.15387,-0.2229 -0.27517,-0.3175 -0.11707,-0.0913 -0.33243,-0.26124 -0.47856,-0.37766 -0.14613,-0.11642 -0.41267,-0.32596 -0.59231,-0.46566 -0.17963,-0.1397 -0.45636,-0.35878 -0.61494,-0.48684 -0.15858,-0.12806 -0.4353,-0.34713 -0.61494,-0.48683 -0.17964,-0.1397 -0.44614,-0.34925 -0.59223,-0.46567 -0.1461,-0.11642 -0.55553,-0.44026 -0.90985,-0.71966 -0.35433,-0.2794 -0.73256,-0.57991 -0.84052,-0.6678 -0.18808,-0.15311 -0.31291,-0.22142 -0.75721,-0.41436 -0.11059,-0.048 -0.28681,-0.12683 -0.39158,-0.17511 -0.10478,-0.0483 -0.2667,-0.12069 -0.35984,-0.1609 -0.0931,-0.0402 -0.25505,-0.11219 -0.35983,-0.15996 -0.10477,-0.0478 -1.82011,-0.80324 -3.81186,-1.67882 l -3.62136,-1.59196 -4.2738,0.17017 c -3.37357,0.13432 -4.3184,0.18401 -4.48548,0.2359 -0.11642,0.0362 -0.36407,0.11082 -0.55033,0.16592 -0.18627,0.0551 -0.56727,0.16905 -0.84667,0.25324 -0.2794,0.0842 -0.66992,0.20124 -0.86783,0.26011 -0.19791,0.0589 -0.40746,0.1237 -0.46567,0.14406 -0.11953,0.0418 -0.70519,0.21639 -1.06303,0.31688 -0.26301,0.0739 -0.55195,0.25351 -2.11169,1.31295 -0.58274,0.39582 -1.21871,0.82444 -1.41329,0.9525 -0.19457,0.12806 -0.72027,0.48048 -1.16822,0.78317 -0.44794,0.30268 -0.94386,0.63606 -1.10204,0.74083 -0.15818,0.10478 -0.65336,0.43815 -1.1004,0.74083 -0.96672,0.65456 -1.27178,0.85876 -1.71807,1.15005 -0.56462,0.36853 -0.63483,0.4317 -1.45003,1.30478 -0.43453,0.46538 -0.85674,0.91453 -0.93823,0.9981 -0.0815,0.0836 -0.39543,0.41718 -0.69765,0.74135 -0.53943,0.57861 -0.75069,0.80357 -1.46464,1.55962 -0.1961,0.20765 -0.38512,0.40832 -0.42004,0.44591 -0.69779,0.75115 -1.84559,1.97766 -2.14055,2.28733 -0.21105,0.22158 -0.53449,0.56479 -0.71876,0.7627 -0.18427,0.19791 -0.35073,0.37109 -0.36991,0.38487 -0.0192,0.0138 -0.12028,0.37572 -0.22464,0.80433 -0.76976,3.16132 -0.82299,3.35703 -0.94767,3.48382 -0.23332,0.23728 -0.66827,0.10639 -0.73551,-0.22135 -0.0134,-0.0654 0.0639,-0.46724 0.18454,-0.95917 0.60448,-2.46489 0.76155,-3.11722 0.76204,-3.1649 0.002,-0.23127 0.38574,-0.68303 2.18187,-2.57127 0.1661,-0.17462 0.44442,-0.4699 0.61847,-0.65617 0.17406,-0.18626 0.64768,-0.69109 1.05249,-1.12183 0.40481,-0.43074 0.8522,-0.90699 0.99419,-1.05833 0.14198,-0.15134 0.42858,-0.45651 0.63688,-0.67814 0.2083,-0.22164 0.6359,-0.67838 0.95022,-1.01499 0.31433,-0.33661 0.71748,-0.76488 0.8959,-0.9517 0.17841,-0.18682 0.36714,-0.3941 0.41938,-0.46062 0.0523,-0.0665 0.22841,-0.2094 0.39147,-0.3175 0.55048,-0.36495 0.8643,-0.57564 1.67992,-1.12789 0.92548,-0.62662 1.25234,-0.84553 1.69714,-1.13662 0.17253,-0.11291 0.34486,-0.22721 0.38296,-0.254 0.16498,-0.11602 1.71964,-1.16659 1.98278,-1.33988 0.1591,-0.10477 0.65413,-0.43815 1.10006,-0.74083 0.86525,-0.58729 1.19593,-0.80867 1.70121,-1.1389 0.30806,-0.20134 0.31983,-0.21533 0.39171,-0.46567 0.1128,-0.39284 0.32277,-1.0917 0.36373,-1.2106 0.0201,-0.0582 0.18259,-0.60113 0.3612,-1.2065 0.1786,-0.60536 0.37985,-1.28025 0.4472,-1.49974 0.0674,-0.21949 0.1179,-0.40278 0.11232,-0.4073 -0.006,-0.005 -0.30542,-0.0414 -0.66631,-0.0819 -0.36089,-0.0405 -1.02764,-0.11626 -1.48167,-0.16826 l -0.8255,-0.0945 -0.27611,0.25806 c -0.81497,0.76167 -1.08206,1.0104 -2.28505,2.12791 -0.45403,0.42177 -0.95885,0.93225 -1.12184,1.1344 -0.16298,0.20215 -0.58208,0.71701 -0.93133,1.14413 -0.34925,0.42712 -0.8957,1.09722 -1.21433,1.4891 -0.31863,0.39189 -0.74653,0.91775 -0.95089,1.16859 -0.29006,0.35603 -0.40487,0.46605 -0.52338,0.50156 -0.21429,0.0642 -0.44721,-0.0363 -0.5271,-0.22752 -0.0342,-0.0819 -0.0906,-0.555 -0.13491,-1.13093 l -0.0761,-0.99016 -1.46975,-1.75985 c -1.23539,-1.47923 -1.75563,-2.10053 -2.59317,-3.09694 l -0.092,-0.10944 -1.35269,0.13994 c -0.74398,0.077 -1.39269,0.1405 -1.44158,0.14119 -0.0734,9.6e-4 -0.13525,0.10653 -0.3545,0.60449 -0.14609,0.33179 -0.3315,0.74613 -0.41202,0.92075 -0.20168,0.43742 -0.30729,0.66915 -0.39549,0.86784 -0.0413,0.0931 -0.13246,0.29316 -0.20248,0.4445 -0.24721,0.5343 -2.12379,4.79152 -2.12379,4.81805 0,0.0224 -0.72342,1.72704 -0.91062,2.14578 -0.0312,0.0698 -0.22225,0.51752 -0.4245,0.99483 -0.82942,1.95745 -1.34349,3.16336 -1.41663,3.32317 -0.0426,0.0931 -0.22136,0.50689 -0.39719,0.91946 l -0.31969,0.75013 0.0853,0.39287 c 0.16541,0.762 0.34007,1.58041 0.37747,1.76871 0.0208,0.10477 0.11591,0.56197 0.21134,1.016 0.0954,0.45402 0.19068,0.91122 0.21167,1.016 0.021,0.10477 0.11594,0.56197 0.21102,1.016 0.0951,0.45402 0.22146,1.06362 0.28086,1.35466 0.11238,0.55062 0.16377,0.70893 1.92392,5.92667 0.58516,1.73461 1.07347,3.18552 1.08514,3.22425 0.0196,0.065 0.49256,0.50778 1.68381,1.57646 0.25701,0.23056 0.47682,0.43061 0.48846,0.44456 0.0117,0.0139 0.21166,0.19616 0.4445,0.40494 0.23283,0.20878 0.54732,0.4945 0.69886,0.63495 1.15714,1.07236 1.20156,1.1077 2.4061,1.91467 1.12999,0.75703 1.21883,0.80844 1.2977,0.75078 0.0466,-0.034 0.1323,-0.0847 0.1905,-0.11245 0.0582,-0.0278 0.66544,-0.51806 1.3494,-1.08944 3.02495,-2.52707 2.72956,-2.26413 2.79934,-2.49192 0.0191,-0.0623 0.0958,-0.27522 0.17046,-0.47313 0.0747,-0.19791 0.19867,-0.53128 0.27557,-0.74083 0.0769,-0.20955 0.20018,-0.54293 0.27397,-0.74084 0.0738,-0.19791 0.14978,-0.40746 0.16887,-0.46566 0.0191,-0.0582 0.0857,-0.23919 0.14793,-0.40217 0.0623,-0.16298 0.1899,-0.50588 0.28364,-0.762 0.2896,-0.79123 0.32162,-0.87817 0.46005,-1.24883 0.0739,-0.19791 0.1973,-0.53129 0.2742,-0.74084 0.0769,-0.20955 0.20018,-0.54292 0.27397,-0.74083 0.0738,-0.19791 0.14979,-0.40746 0.16888,-0.46567 0.0191,-0.0582 0.0813,-0.22965 0.13825,-0.381 0.26808,-0.71252 0.40583,-1.08683 0.42955,-1.16729 0.0142,-0.0483 0.0818,-0.14138 0.15017,-0.20686 0.24699,-0.23664 0.66994,-0.10031 0.73755,0.23773 0.0243,0.12156 0.001,0.19752 -0.35739,1.16817 -0.0451,0.12224 -0.12191,0.33179 -0.17061,0.46567 -0.0487,0.13388 -0.11485,0.31009 -0.14703,0.39158 -0.0322,0.0815 -0.15532,0.41487 -0.27367,0.74084 -0.11836,0.32596 -0.25105,0.68791 -0.29488,0.80433 -0.0438,0.11642 -0.20599,0.55457 -0.36035,0.97367 -0.40996,1.11306 -0.43566,1.18301 -0.53273,1.44991 -0.0487,0.13388 -0.11486,0.31009 -0.14703,0.39159 -0.0322,0.0815 -0.15533,0.41486 -0.27368,0.74083 -0.22059,0.60757 -0.24706,0.67906 -0.54983,1.48537 l -0.17625,0.46937 -0.57547,0.48313 c -0.61955,0.52013 -1.30074,1.08732 -1.67335,1.3933 -0.55525,0.45594 -2.01806,1.70107 -2.23086,1.89887 -0.23533,0.21874 -0.5005,0.36226 -1.9685,1.06544 -1.30037,0.62289 -1.62383,0.77878 -2.24367,1.08137 l -0.635,0.30998 -0.11222,0.28809 c -0.2113,0.54244 -0.47075,1.21938 -0.56471,1.47341 -0.0517,0.1397 -0.16211,0.43498 -0.24541,0.65617 -0.0833,0.22119 -0.16188,0.44979 -0.17462,0.508 -0.0222,0.10162 0.0396,0.13721 1.5529,0.89387 0.86684,0.43342 1.58307,0.79061 1.59164,0.79375 0.009,0.003 0.49435,-0.0518 1.0795,-0.12206 z m 34.82476,-18.9512 c -0.0349,-0.0123 -0.20638,-0.0885 -0.381,-0.16932 -0.17463,-0.0809 -0.3937,-0.18234 -0.48684,-0.22549 -0.0931,-0.0432 -0.35692,-0.16681 -0.5862,-0.27479 -0.23492,-0.11064 -0.44627,-0.18504 -0.48424,-0.17047 -0.0599,0.023 -0.4332,0.10422 -2.36163,0.51388 -0.60145,0.12778 -0.5364,0.14482 -1.27252,-0.33347 -0.25919,-0.16841 -0.58842,-0.3824 -0.73163,-0.47554 -0.14321,-0.0931 -0.40739,-0.26764 -0.58708,-0.3878 -0.17968,-0.12016 -0.49815,-0.32512 -0.7077,-0.45547 -0.59319,-0.369 -0.83948,-0.55041 -0.93133,-0.68601 -0.0466,-0.0688 -0.37792,-1.01008 -0.73635,-2.09186 -0.35842,-1.08177 -0.65496,-1.97129 -0.65897,-1.97672 -0.004,-0.005 -0.38702,-0.087 -0.85115,-0.18123 -3.8309,-0.778 -3.85385,-0.78296 -3.97028,-0.85925 -0.15901,-0.10418 -0.22254,-0.35114 -0.14073,-0.54696 0.0717,-0.17165 0.17547,-0.2366 0.66118,-0.41389 0.51015,-0.18622 1.69366,-0.63147 1.97097,-0.74151 0.1397,-0.0554 0.4445,-0.17112 0.67733,-0.25709 0.23283,-0.086 0.54716,-0.20291 0.6985,-0.25985 0.15134,-0.0569 0.32279,-0.11888 0.381,-0.13766 0.0582,-0.0188 0.28681,-0.1042 0.508,-0.18985 0.70717,-0.27384 0.85809,-0.31385 1.35467,-0.35917 0.85869,-0.0784 2.29382,-0.21166 2.74598,-0.25503 0.58275,-0.0559 0.64943,-0.0246 1.13549,0.53285 0.20516,0.2353 0.64045,0.7306 0.9673,1.10067 1.56585,1.77286 1.8326,2.08886 1.87648,2.22293 0.0258,0.0788 0.0864,0.40994 0.13469,0.7359 0.14085,0.95088 0.42179,2.86199 0.45082,3.06679 0.0326,0.22981 0.0449,0.2475 1.55177,2.21949 0.17564,0.22987 0.33096,0.47078 0.34514,0.53537 0.0688,0.31312 -0.27383,0.62509 -0.57167,0.52055 z m -4.14839,-3.68193 c 0.12496,-0.10514 0.1324,-0.12676 0.11294,-0.32808 -0.0264,-0.27319 -0.1911,-0.98638 -0.25993,-1.12569 -0.0464,-0.0939 -0.16795,-0.45341 -0.28009,-0.8285 -0.0214,-0.0715 -0.0389,-0.16118 -0.0389,-0.19928 0,-0.0612 -0.29106,-0.32137 -0.75696,-0.67652 -0.0843,-0.0642 -0.21989,-0.17563 -0.30138,-0.24753 -0.0815,-0.0719 -0.21611,-0.16559 -0.29916,-0.20819 -0.083,-0.0426 -0.17587,-0.10742 -0.20627,-0.14405 -0.0304,-0.0366 -0.0793,-0.0666 -0.10856,-0.0666 -0.0631,0 -0.14812,0.30919 -0.14773,0.53732 0,0.0887 -0.0398,0.47924 -0.0887,0.86797 l -0.089,0.70679 0.25007,0.43621 c 0.13754,0.23991 0.26229,0.46878 0.27723,0.50859 0.0339,0.0903 0.35888,0.32932 0.45023,0.33113 0.0373,6.4e-4 0.10471,0.0293 0.14991,0.0635 0.0452,0.0342 0.10752,0.0621 0.13851,0.0621 0.031,0 0.18451,0.0607 0.34116,0.13489 0.42786,0.20262 0.61809,0.28346 0.67316,0.28608 0.0273,0.001 0.10986,-0.0483 0.18344,-0.1102 z m -8.29023,-6.25075 c -0.0556,-0.0591 -0.092,-0.15256 -0.092,-0.2357 0,-0.13613 0.1463,-0.36533 1.47596,-2.31215 0.17492,-0.25612 0.4716,-0.69427 0.65929,-0.97367 0.33582,-0.49992 0.3463,-0.51052 0.65875,-0.66675 0.72011,-0.36006 1.51086,-0.71799 1.62983,-0.73774 0.0698,-0.0116 0.52705,0.0286 1.016,0.0892 0.48895,0.0607 1.06998,0.13056 1.29117,0.15535 0.44496,0.0499 0.55522,0.0908 0.87323,0.32364 0.66691,0.48841 1.11404,0.81271 1.32415,0.96041 0.13024,0.0915 0.32575,0.23442 0.43448,0.3175 0.10874,0.0831 0.32305,0.24154 0.47625,0.35213 0.54267,0.39175 0.83862,0.6065 1.21054,0.87842 0.20701,0.15134 0.49627,0.36089 0.64282,0.46567 0.46416,0.33185 0.62653,0.50139 0.62653,0.65417 0,0.1748 -0.14932,0.31949 -0.32971,0.31949 -0.11736,0 -0.53402,-0.14423 -0.91912,-0.31818 -0.23532,-0.10629 -1.96952,-0.82482 -1.99074,-0.82482 -0.0116,0 -0.10177,-0.0369 -0.20047,-0.082 -0.0987,-0.0451 -0.30328,-0.13262 -0.45462,-0.19453 -0.15135,-0.0619 -0.33232,-0.13783 -0.40217,-0.16871 -0.25781,-0.11398 -1.16414,-0.48612 -1.18393,-0.48612 -0.0112,0 -0.13999,-0.0539 -0.2861,-0.11969 -0.1461,-0.0658 -0.37994,-0.16496 -0.51964,-0.2203 -0.1397,-0.0553 -0.29957,-0.12397 -0.35526,-0.15251 -0.0818,-0.0419 -0.11862,-0.0405 -0.19161,0.007 -0.0497,0.0326 -0.48787,0.19552 -0.97373,0.36213 -0.7007,0.24028 -0.9281,0.33745 -1.09956,0.46988 -0.22876,0.17667 -0.77274,0.58849 -0.96681,0.73191 -0.0636,0.047 -0.34935,0.26479 -0.635,0.48397 -1.32516,1.01681 -1.32931,1.01966 -1.48126,1.01966 -0.097,0 -0.17571,-0.0325 -0.23722,-0.098 z"
       id="path179" /></g></svg>
