<?xml version="1.0" encoding="UTF-8" standalone="no"?>
<!-- Created with Inkscape (http://www.inkscape.org/) -->

<svg
   width="800"
   height="800"
   viewBox="0 0 211.66667 211.66667"
   version="1.1"
   id="svg5"
   xml:space="preserve"
   inkscape:version="1.2.2 (b0a8486541, 2022-12-01)"
   sodipodi:docname="test.svg"
   inkscape:export-filename="finished/800x800.png"
   inkscape:export-xdpi="96"
   inkscape:export-ydpi="96"
   xmlns:inkscape="http://www.inkscape.org/namespaces/inkscape"
   xmlns:sodipodi="http://sodipodi.sourceforge.net/DTD/sodipodi-0.dtd"
   xmlns="http://www.w3.org/2000/svg"
   xmlns:svg="http://www.w3.org/2000/svg"><sodipodi:namedview
     id="namedview7"
     pagecolor="#ffffff"
     bordercolor="#000000"
     borderopacity="0.25"
     inkscape:showpageshadow="2"
     inkscape:pageopacity="0.0"
     inkscape:pagecheckerboard="0"
     inkscape:deskcolor="#d1d1d1"
     inkscape:document-units="mm"
     showgrid="false"
     inkscape:lockguides="true"
     inkscape:zoom="0.35355339"
     inkscape:cx="694.37886"
     inkscape:cy="1144.0988"
     inkscape:window-width="1920"
     inkscape:window-height="1020"
     inkscape:window-x="0"
     inkscape:window-y="0"
     inkscape:window-maximized="1"
     inkscape:current-layer="layer1" /><defs
     id="defs2" /><g
     inkscape:label="Layer 1"
     inkscape:groupmode="layer"
     id="layer1"
     transform="translate(271.46249,218.81041)"><path
       style="fill:#05243c;fill-opacity:1;stroke-width:0.0846666"
       d="m -204.48729,-65.186182 c -0.10937,-0.0391 -4.74478,-2.35018 -6.96612,-3.47318 -1.15544,-0.58414 -1.27694,-0.92976 -0.78233,-2.22544 0.16888,-0.44238 0.45528,-1.20438 0.63645,-1.69333 0.18116,-0.48895 0.46201,-1.2319 0.6241,-1.651 0.16209,-0.4191 0.48968,-1.27278 0.72797,-1.89707 0.47071,-1.23322 0.66763,-1.57555 0.95729,-1.66423 0.10357,-0.0317 0.7217,-0.31505 1.37363,-0.62967 0.65194,-0.3146 1.68064,-0.8096 2.286,-1.09998 1.93016,-0.92587 3.717,-1.78854 3.99052,-1.92661 l 0.26517,-0.13385 -0.22284,-0.1851 c -0.12256,-0.10179 -0.48955,-0.34959 -0.81551,-0.55066 -0.32597,-0.20107 -0.66887,-0.43116 -0.762,-0.5113 -0.0931,-0.0802 -0.51223,-0.36315 -0.93134,-0.62888 -1.51157,-0.95841 -1.68977,-1.10185 -3.84979,-3.09873 -0.58348,-0.53941 -1.50247,-1.37761 -2.04221,-1.86266 -2.07149,-1.86162 -4.28756,-3.87913 -4.74346,-4.31843 l -0.47547,-0.45816 -0.55919,-1.69333 c -0.30756,-0.93134 -1.5552,-4.646093 -2.77253,-8.254998 -2.6512,-7.85981 -2.66739,-7.90954 -2.83648,-8.71727 -0.0735,-0.35112 -0.2454,-1.17181 -0.382,-1.82374 -0.1366,-0.65193 -0.32278,-1.54729 -0.41374,-1.98967 -0.091,-0.44238 -0.28146,-1.35678 -0.42334,-2.03199 -0.14187,-0.67522 -0.33237,-1.58962 -0.42333,-2.032 -0.091,-0.44239 -0.28165,-1.35679 -0.42375,-2.032 -0.14209,-0.67522 -0.29431,-1.39912 -0.33824,-1.60867 -0.0439,-0.20955 -0.13918,-0.6477 -0.21163,-0.97367 -0.25761,-1.15896 -0.29609,-1.41699 -0.24434,-1.63847 0.0551,-0.23573 0.89174,-2.23419 2.36857,-5.65765 0.48562,-1.12574 0.93596,-2.19703 1.00074,-2.38065 0.0648,-0.18363 0.15794,-0.40557 0.207,-0.49321 0.0491,-0.0876 0.41657,-0.9404 0.81668,-1.89501 0.40011,-0.95462 0.77997,-1.84997 0.84413,-1.98967 0.25245,-0.54963 1.90605,-4.42729 1.90605,-4.46964 0,-0.0411 3.71125,-8.4564 4.20845,-9.54269 0.11722,-0.25612 0.28508,-0.6276 0.37301,-0.8255 0.23238,-0.52304 0.4759,-1.07091 0.65855,-1.48167 0.088,-0.19791 0.32891,-0.72178 0.53535,-1.16417 0.20643,-0.44238 0.5821,-1.27628 0.83482,-1.85311 0.27502,-0.62772 0.53455,-1.09808 0.64645,-1.17159 0.23727,-0.15585 0.67297,-0.21432 4.32596,-0.58053 2.44668,-0.24529 3.04287,-0.28184 3.2863,-0.2015 0.24305,0.0802 0.76431,0.65561 2.85308,3.14942 1.40563,1.6782 3.39008,4.04616 4.40988,5.26212 1.0198,1.21597 1.92266,2.36419 2.00635,2.5516 0.0893,0.20004 0.17608,0.67201 0.21008,1.143 0.0318,0.44124 0.0831,0.85008 0.11393,0.90852 0.0356,0.0675 0.34815,-0.25247 0.85673,-0.87697 1.03623,-1.2724 2.61361,-3.20728 4.10273,-5.03255 0.65193,-0.7991 1.29963,-1.54851 1.43933,-1.66537 0.1397,-0.11684 0.61798,-0.56065 1.06284,-0.98624 0.89962,-0.86064 1.18846,-1.13014 2.95883,-2.76085 0.67521,-0.62195 1.54227,-1.43168 1.92677,-1.79941 0.38452,-0.36773 0.8712,-0.74472 1.08151,-0.83775 l 0.38239,-0.16915 1.4585,0.17186 c 0.80217,0.0945 2.16335,0.25097 3.02483,0.34766 3.3901,0.38048 3.54271,0.4204 3.78027,0.98895 0.13582,0.32505 0.10015,0.46053 -1.57831,5.99422 -0.81808,2.69715 -1.01663,3.36706 -1.01663,3.43028 0,0.0616 0.45058,-0.0544 1.82033,-0.46877 0.41911,-0.12678 0.99061,-0.29775 1.27,-0.37993 0.27941,-0.0822 1.33118,-0.39908 2.33727,-0.70423 l 1.82927,-0.55483 8.72347,-0.34472 c 4.79791,-0.18959 8.79439,-0.31904 8.88106,-0.28767 0.0867,0.0314 3.42704,1.49866 7.42302,3.26063 3.99598,1.76197 7.28912,3.20358 7.3181,3.20358 0.029,0 0.21711,0.0762 0.41809,0.16933 0.20096,0.0931 0.53684,0.24553 0.74639,0.33867 0.20955,0.0931 0.54293,0.24264 0.74084,0.33224 0.1979,0.0896 0.58843,0.25801 0.86783,0.37424 0.81668,0.33975 1.60777,0.81299 2.30915,1.38135 0.3598,0.29157 1.02661,0.82692 1.4818,1.18965 0.45519,0.36273 1.06479,0.85059 1.35467,1.08411 0.28988,0.23353 0.75565,0.59548 1.03505,0.80434 0.2794,0.20885 0.83685,0.64644 1.23877,0.9724 0.40193,0.32597 1.04381,0.84032 1.42641,1.143 0.38259,0.30268 0.93603,0.74083 1.22985,0.97367 0.29382,0.23283 0.7118,0.55668 0.92885,0.71967 0.98622,0.74056 0.98172,0.73321 1.86631,3.04799 0.16905,0.44239 0.54909,1.41394 0.84451,2.159 0.29543,0.74507 0.67517,1.71662 0.84387,2.159 0.1687,0.44239 0.41789,1.07104 0.55376,1.397 0.13587,0.32597 0.38478,0.95462 0.55313,1.397 0.16836,0.44239 0.54782,1.41394 0.84324,2.159 0.29543,0.74507 0.67517,1.71662 0.84387,2.159 0.1687,0.44239 0.41786,1.07104 0.55369,1.397 0.13584,0.32597 0.48253,1.20227 0.77043,1.94734 0.2879,0.74506 0.68718,1.76028 0.8873,2.25604 0.20012,0.49575 0.42275,1.18155 0.49473,1.524 0.072,0.34244 0.17221,0.76847 0.22272,0.94673 0.0505,0.17827 0.14338,0.55927 0.2064,0.84667 0.063,0.28741 0.59748,2.52281 1.1877,4.96755 0.59023,2.44476 1.10804,4.6156 1.15068,4.82409 0.0426,0.20851 0.1505,0.66571 0.2397,1.016 0.5863,2.30255 0.77753,3.220705 0.71418,3.428975 -0.067,0.22029 -1.11114,1.980873 -1.30669,2.203273 -0.0819,0.0931 -0.59402,0.91229 -1.13808,1.82034 -0.54406,0.90804 -1.05658,1.7272 -1.13893,1.82033 -0.0824,0.0931 -0.47837,0.72178 -0.88002,1.397 l -0.73028,1.22767 -5.73738,5.72946 c -5.35344,5.34603 -5.76572,5.73798 -6.16072,5.85681 -0.23284,0.07 -1.14724,0.38135 -2.032,0.69176 -0.88477,0.31042 -1.76107,0.61504 -1.94734,0.67694 -0.6057,0.20128 -3.97255,1.37672 -4.22132,1.47375 -0.1331,0.0519 -0.8189,0.20724 -1.524,0.34518 -0.70511,0.13794 -1.47251,0.29053 -1.70534,0.33909 -0.48416,0.101 -2.23597,0.4402 -4.572,0.88528 -0.88477,0.16857 -1.76107,0.3417 -1.94734,0.38472 -0.18627,0.043 -1.06256,0.21484 -1.94733,0.3818 -0.88477,0.16696 -1.95157,0.37616 -2.37067,0.46487 -0.4191,0.0887 -1.4859,0.29791 -2.37067,0.46487 -0.88476,0.16697 -1.76106,0.33882 -1.94733,0.3819 -0.18627,0.0431 -0.9732,0.19981 -1.74874,0.34829 l -1.41007,0.26998 -0.33484,-0.16567 c -0.3331,-0.1648 -0.38786,-0.16445 -10.59864,0.0684 l -10.26381,0.23406 -1.62262,0.54415 c -1.8955,0.63566 -11.01494,3.6366 -12.37528,4.07235 -0.61761,0.19783 -1.30209,0.34213 -2.032,0.42839 -0.60536,0.0715 -1.59596,0.18798 -2.20133,0.25876 -0.60537,0.0708 -2.33892,0.27832 -3.85233,0.4612 -1.51342,0.18287 -3.07552,0.37 -3.47134,0.41585 -0.39581,0.0458 -1.37911,0.16138 -2.18511,0.25674 -1.57089,0.18587 -1.51977,0.18244 -1.70955,0.11467 z m 2.48649,-2.0595 c 2.42684,-0.29146 3.82237,-0.4601 5.21817,-0.6306 0.53552,-0.0654 2.19287,-0.25781 3.683,-0.42754 1.58082,-0.18005 2.93857,-0.37791 3.25967,-0.47503 0.30268,-0.0916 2.79823,-0.90671 5.54566,-1.81148 2.74743,-0.90479 5.75734,-1.89534 6.68867,-2.20126 1.38892,-0.45622 1.74661,-0.60672 1.98967,-0.83718 0.16298,-0.15454 2.42993,-1.5487 5.03766,-3.09813 2.60774,-1.54942 5.34386,-3.18339 6.08027,-3.63102 5.4394,-3.30637 12.15802,-7.30094 12.5185,-7.44289 0.28193,-0.11103 0.34082,-0.10769 0.635,0.036 0.24613,0.12022 0.35303,0.24165 0.44377,0.5041 0.10862,0.31416 0.10475,0.37577 -0.0423,0.67429 -0.14605,0.29647 -0.42686,0.48592 -2.87581,1.94025 -1.49267,0.88645 -4.82642,2.86606 -7.40833,4.39916 -2.58191,1.53308 -4.77059,2.85081 -4.86372,2.92826 -0.0931,0.0775 -1.47661,0.91861 -3.07438,1.86923 l -2.90506,1.7284 0.49206,0.0244 c 0.27063,0.0134 4.61592,-0.0713 9.65622,-0.18822 5.0403,-0.11693 9.21776,-0.19203 9.28326,-0.1669 0.10343,0.0397 1.83048,-0.2762 5.5979,-1.02392 0.5588,-0.1109 2.21615,-0.43346 3.683,-0.7168 1.46685,-0.28333 2.9337,-0.56987 3.25967,-0.63676 0.32596,-0.0669 1.88806,-0.37144 3.47133,-0.6768 3.5764,-0.68976 3.40182,-0.64521 5.79967,-1.48011 1.09431,-0.38103 2.25636,-0.78308 2.58233,-0.89343 0.32596,-0.11036 1.25942,-0.43206 2.07433,-0.71489 l 1.48167,-0.51423 2.24367,-2.2504 c 1.23401,-1.23773 2.16746,-2.22899 2.07433,-2.20282 -0.0931,0.0262 -2.21919,0.50925 -4.72456,1.07347 l -4.55524,1.02587 -10.87148,-3.22439 c -8.63772,-2.56186 -10.96876,-3.22438 -11.34485,-3.22438 -0.402,0 -1.66277,-0.16983 -4.3602,-0.58733 -0.30269,-0.0469 -1.48379,-0.22148 -2.62467,-0.38808 -3.06979,-0.44826 -6.56231,-0.96306 -7.25564,-1.06949 -0.72695,-0.1116 -0.94021,-0.292 -1.05463,-0.89217 -0.072,-0.37747 -0.48584,-2.71143 -1.09087,-6.151643 -0.13798,-0.78451 -0.25086,-1.530335 -0.25086,-1.657405 0,-0.36274 0.16912,-0.48145 2.24366,-1.57485 0.41911,-0.22089 0.95251,-0.50527 1.18534,-0.63198 0.23283,-0.12669 0.72813,-0.39383 1.10066,-0.59364 0.37254,-0.19982 0.82974,-0.44663 1.016,-0.54848 2.22632,-1.2173 2.93029,-1.56826 3.14568,-1.56826 0.13627,0 0.45577,0.0541 0.71004,0.12028 0.47277,0.12301 6.74506,1.63282 9.56395,2.30215 3.22908,0.76673 3.01575,0.69099 5.47203,1.94274 1.25123,0.63764 2.61787,1.340535 3.03697,1.561975 0.4191,0.22145 1.524,0.79281 2.45534,1.2697 4.35126,2.228053 5.17063,2.651693 5.25201,2.715443 0.0697,0.0547 6.38432,1.89228 10.73398,3.12375 l 0.83066,0.23517 2.25967,-0.79684 c 1.24282,-0.43826 3.40268,-1.20005 4.79968,-1.69286 1.397,-0.4928 2.75011,-0.96943 3.00692,-1.05917 0.4474,-0.15635 0.48812,-0.1967 0.97367,-0.96495 1.48743,-2.353433 1.8077,-2.885253 1.81313,-3.010713 0.005,-0.10893 -2.85211,-12.211995 -3.33494,-14.128675 -0.0645,-0.25612 -0.1804,-0.73237 -0.2575,-1.05834 -0.0771,-0.32597 -0.27504,-0.93557 -0.43989,-1.35467 -0.16484,-0.41909 -0.3872,-0.99059 -0.49411,-1.26999 -0.10692,-0.2794 -0.34554,-0.889 -0.53028,-1.35467 -0.48927,-1.23335 -0.86555,-2.18856 -1.50082,-3.81 -0.31016,-0.79163 -0.71613,-1.82033 -0.90216,-2.286 -0.18603,-0.46566 -0.42572,-1.07526 -0.53264,-1.35466 -0.10692,-0.2794 -0.32959,-0.8509 -0.49483,-1.27 -0.16525,-0.4191 -0.55422,-1.4097 -0.86437,-2.20134 -0.31016,-0.79163 -0.70833,-1.80128 -0.88482,-2.24366 -0.1765,-0.44239 -0.46271,-1.16629 -0.63602,-1.60867 -0.17331,-0.44238 -0.37119,-0.94069 -0.43972,-1.10735 -0.071,-0.17267 -0.30773,-0.44581 -0.55034,-0.635 -0.23414,-0.18259 -0.66485,-0.52248 -0.95712,-0.75532 -0.29227,-0.23283 -0.82535,-0.65193 -1.18462,-0.93133 -0.35927,-0.2794 -0.91272,-0.71755 -1.22988,-0.97367 -0.31716,-0.25611 -0.87061,-0.69426 -1.22987,-0.97366 -0.35928,-0.2794 -0.89229,-0.6985 -1.18447,-0.93134 -0.2922,-0.23283 -1.11106,-0.88053 -1.8197,-1.43933 -0.70865,-0.5588 -1.46512,-1.15982 -1.68104,-1.3356 -0.37615,-0.30621 -0.62582,-0.44283 -1.51442,-0.82871 -0.22119,-0.0961 -0.57361,-0.25365 -0.78316,-0.35022 -0.20956,-0.0966 -0.5334,-0.24139 -0.71967,-0.3218 -0.18627,-0.0804 -0.51012,-0.22438 -0.71967,-0.31993 -0.20955,-0.0955 -3.64022,-1.60647 -7.62371,-3.35762 l -7.24272,-3.18393 -8.54762,0.34033 c -6.74714,0.26865 -8.63679,0.36803 -8.97095,0.47182 -0.23283,0.0723 -0.72813,0.22163 -1.10067,0.33182 -0.37253,0.11019 -1.13453,0.3381 -1.69333,0.50648 -0.5588,0.16838 -1.33985,0.40248 -1.73566,0.52023 -0.39582,0.11774 -0.81492,0.2474 -0.93134,0.28812 -0.23906,0.0836 -1.41038,0.43277 -2.12606,0.63376 -0.52603,0.14772 -1.10389,0.50701 -4.22339,2.6259 -1.16546,0.79164 -2.43742,1.64888 -2.82656,1.905 -0.38915,0.25612 -1.44055,0.96097 -2.33644,1.56633 -0.89589,0.60537 -1.88773,1.27212 -2.20409,1.48167 -0.31636,0.20955 -1.30671,0.8763 -2.20079,1.48167 -1.93346,1.30911 -2.54357,1.7175 -3.43615,2.30009 -1.12924,0.73705 -1.26966,0.86341 -2.90005,2.60955 -0.86908,0.93077 -1.71348,1.82906 -1.87647,1.99621 -0.16298,0.16715 -0.79087,0.83436 -1.39529,1.48269 -1.07887,1.15723 -1.5014,1.60715 -2.9293,3.11924 -0.39219,0.41532 -0.77022,0.81664 -0.84007,0.89183 -1.39558,1.50231 -3.69118,3.95531 -4.28111,4.57466 -0.42209,0.44315 -1.06896,1.12958 -1.4375,1.52539 -0.36854,0.39582 -0.70147,0.7422 -0.73984,0.76974 -0.0384,0.0275 -0.24055,0.75144 -0.44927,1.60867 -1.53951,6.32263 -1.64599,6.71406 -1.89533,6.96764 -0.46664,0.47456 -1.33655,0.21277 -1.47104,-0.4427 -0.0268,-0.13074 0.12782,-0.93448 0.36909,-1.91835 1.20896,-4.92977 1.5231,-6.23444 1.52408,-6.32979 0.005,-0.46255 0.77148,-1.36605 4.36373,-5.14254 0.33221,-0.34925 0.88884,-0.9398 1.23696,-1.31233 0.34811,-0.37254 1.29535,-1.38219 2.10497,-2.24367 0.80963,-0.86148 1.7044,-1.81398 1.98837,-2.11667 0.28398,-0.30268 0.85718,-0.91301 1.27377,-1.35628 0.4166,-0.44327 1.2718,-1.35676 1.90045,-2.02998 0.62865,-0.67322 1.43495,-1.52974 1.79178,-1.90339 0.35683,-0.37364 0.73428,-0.7882 0.83878,-0.92125 0.10449,-0.13303 0.45682,-0.41878 0.78294,-0.63499 1.10096,-0.7299 1.72859,-1.15129 3.35983,-2.25577 1.85095,-1.25325 2.50469,-1.69108 3.39428,-2.27325 0.34506,-0.22583 0.68973,-0.45442 0.76592,-0.508 0.32997,-0.23204 3.43928,-2.33317 3.96556,-2.67975 0.3182,-0.20955 1.30826,-0.8763 2.20012,-1.48167 1.7305,-1.17459 2.39185,-1.61735 3.40243,-2.2778 0.61611,-0.40267 0.63965,-0.43065 0.78342,-0.93134 0.22559,-0.78567 0.64554,-2.18339 0.72745,-2.42119 0.0401,-0.11642 0.36518,-1.20227 0.72239,-2.413 0.35721,-1.21073 0.7597,-2.56051 0.89442,-2.99949 0.13471,-0.43899 0.23579,-0.80556 0.22463,-0.8146 -0.0112,-0.009 -0.61083,-0.0828 -1.33262,-0.16388 -0.72178,-0.0811 -2.05528,-0.23252 -2.96333,-0.33651 l -1.651,-0.18908 -0.55223,0.51611 c -1.62995,1.52335 -2.16413,2.0208 -4.57011,4.25583 -0.90805,0.84353 -1.91769,1.86448 -2.24366,2.26878 -0.32597,0.4043 -1.16417,1.43402 -1.86267,2.28827 -0.6985,0.85425 -1.79139,2.19444 -2.42865,2.97821 -0.63726,0.78376 -1.49307,1.83549 -1.90179,2.33717 -0.58012,0.71206 -0.80974,0.9321 -1.04675,1.00312 -0.4286,0.1284 -0.89444,-0.0727 -1.0542,-0.45504 -0.0684,-0.16376 -0.18131,-1.11 -0.26983,-2.26187 l -0.15219,-1.98031 -2.93951,-3.51969 c -2.47079,-2.95847 -3.51127,-4.20108 -5.18634,-6.19389 l -0.18398,-0.21888 -2.70538,0.27988 c -1.48796,0.15394 -2.78538,0.28101 -2.88316,0.28238 -0.14675,0.002 -0.27049,0.21306 -0.70901,1.20899 -0.29217,0.66357 -0.66298,1.49225 -0.82402,1.8415 -0.40337,0.87482 -0.61458,1.33828 -0.79099,1.73566 -0.0827,0.18627 -0.26491,0.58632 -0.40496,0.88901 -0.49443,1.0686 -4.24757,9.58305 -4.24757,9.6361 0,0.0448 -1.44685,3.45408 -1.82125,4.29156 -0.0625,0.1397 -0.44451,1.03505 -0.849,1.98967 -1.65884,3.91488 -2.68697,6.3267 -2.83326,6.64633 -0.0852,0.18627 -0.44272,1.01378 -0.79438,1.83893 l -0.63938,1.50026 0.17056,0.78574 c 0.33083,1.524 0.68015,3.16081 0.75493,3.5374 0.0416,0.20955 0.23183,1.12395 0.4227,2.032 0.19086,0.90805 0.38136,1.82245 0.42333,2.032 0.042,0.20955 0.23188,1.12395 0.42204,2.032 0.19015,0.90805 0.44293,2.12725 0.56173,2.70933 0.22475,1.10124 0.32753,1.41785 3.84784,11.85334 1.17031,3.469218 2.14693,6.371038 2.17027,6.448498 0.0392,0.12991 0.98512,1.01556 3.36762,3.15291 0.51402,0.46113 0.95363,0.86123 0.97692,0.88912 0.0233,0.0279 0.42333,0.39233 0.88899,0.80989 0.46567,0.41756 1.09465,0.98901 1.39774,1.26989 2.31428,2.14473 2.40311,2.21541 4.81218,3.82935 2.26,1.51406 2.43768,1.61687 2.59542,1.50155 0.0931,-0.0681 0.26458,-0.16929 0.381,-0.2249 0.11642,-0.0556 1.33087,-1.03611 2.69879,-2.17888 6.0499,-5.05414 5.45913,-4.52824 5.59869,-4.98383 0.0382,-0.12463 0.19158,-0.55045 0.34091,-0.94626 0.14933,-0.39582 0.39734,-1.06257 0.55113,-1.48167 0.1538,-0.4191 0.40037,-1.08585 0.54795,-1.48167 0.14757,-0.39582 0.29956,-0.81492 0.33775,-0.93133 0.0382,-0.11642 0.17132,-0.47837 0.29585,-0.80433 0.12451,-0.32597 0.37979,-1.01177 0.56728,-1.524 0.5792,-1.582473 0.64324,-1.756353 0.9201,-2.497673 0.14783,-0.395815 0.39461,-1.062565 0.54841,-1.481665 0.15379,-0.4191 0.40036,-1.08585 0.54793,-1.48166 0.14758,-0.39582 0.29957,-0.81492 0.33776,-0.93134 0.0382,-0.11641 0.16262,-0.45931 0.27649,-0.762 0.53618,-1.42505 0.81166,-2.17366 0.85912,-2.33459 0.0285,-0.0966 0.16363,-0.28276 0.30033,-0.41372 0.49399,-0.47327 1.33988,-0.20062 1.47511,0.47546 0.0486,0.24312 0.002,0.39505 -0.71479,2.33635 -0.0903,0.24448 -0.24383,0.66358 -0.34121,0.93133 -0.0974,0.26776 -0.22972,0.62019 -0.29406,0.78317 -0.0644,0.16298 -0.31066,0.82974 -0.54736,1.48167 -0.2367,0.65193 -0.50209,1.375825 -0.58975,1.608665 -0.0877,0.23283 -0.41198,1.10913 -0.7207,1.947333 -0.81991,2.22613 -0.87132,2.36603 -1.06546,2.89983 -0.0974,0.26776 -0.22972,0.62019 -0.29406,0.78317 -0.0643,0.16298 -0.31065,0.82973 -0.54736,1.48167 -0.44119,1.21514 -0.49411,1.35812 -1.09966,2.97074 l -0.35251,0.93875 -1.15094,0.96625 c -1.23908,1.04026 -2.60147,2.17464 -3.34669,2.78659 -1.11049,0.91189 -4.03611,3.40214 -4.46172,3.79775 -0.47066,0.43748 -1.00099,0.72451 -3.937,2.13088 -2.60074,1.24578 -3.24766,1.55756 -4.48733,2.16273 l -1.27,0.61998 -0.22444,0.57616 c -0.42261,1.08489 -0.94151,2.43877 -1.12943,2.94683 -0.10335,0.2794 -0.32422,0.86995 -0.49082,1.31233 -0.1666,0.44239 -0.32375,0.89959 -0.34923,1.016 -0.0445,0.20324 0.0792,0.27444 3.1058,1.78775 1.73366,0.86683 3.16614,1.58121 3.18328,1.5875 0.0171,0.006 0.98868,-0.10357 2.159,-0.24413 z m 69.64951,-37.902388 c -0.0698,-0.0245 -0.41276,-0.17691 -0.762,-0.33864 -0.34925,-0.16174 -0.7874,-0.36468 -0.97367,-0.45099 -0.18627,-0.0863 -0.71385,-0.33361 -1.17241,-0.54957 -0.46984,-0.22128 -0.89254,-0.37008 -0.96847,-0.34094 -0.11982,0.046 -0.86641,0.20843 -4.72327,1.02776 -1.20291,0.25555 -1.07281,0.28964 -2.54503,-0.66694 -0.51839,-0.33682 -1.17686,-0.76481 -1.46327,-0.95107 -0.28641,-0.18627 -0.81478,-0.53529 -1.17415,-0.77561 -0.35937,-0.24032 -0.9963,-0.65024 -1.4154,-0.91094 -1.18639,-0.738 -1.67897,-1.10083 -1.86267,-1.37203 -0.0931,-0.1375 -0.75584,-2.02016 -1.4727,-4.18371 -0.71685,-2.16354 -1.30992,-3.94259 -1.31794,-3.95343 -0.008,-0.0109 -0.77404,-0.17396 -1.70229,-0.36247 -7.66181,-1.55599 -7.7077,-1.56593 -7.94057,-1.7185 -0.31801,-0.20837 -0.44509,-0.70229 -0.28145,-1.09393 0.14344,-0.34329 0.35093,-0.47319 1.32234,-0.82778 1.02031,-0.37244 3.38733,-1.26294 3.94194,-1.48301 0.27941,-0.11086 0.88901,-0.34225 1.35467,-0.51419 0.46567,-0.17195 1.09432,-0.40581 1.397,-0.51969 0.30269,-0.11388 0.64559,-0.23777 0.762,-0.27531 0.11642,-0.0376 0.57362,-0.20842 1.016,-0.37971 1.41433,-0.54767 1.71618,-0.6277 2.70934,-0.71835 1.71738,-0.15675 4.58763,-0.42332 5.49195,-0.51004 1.16551,-0.11178 1.29888,-0.0492 2.27098,1.06569 0.41034,0.4706 1.28091,1.4612 1.93461,2.20133 3.13169,3.54572 3.66519,4.17772 3.75297,4.44586 0.0516,0.15757 0.17279,0.81988 0.26937,1.47182 0.2817,1.90174 0.84358,5.72397 0.90163,6.13356 0.0652,0.45962 0.0899,0.495 3.10355,4.43899 0.35129,0.45974 0.66192,0.94156 0.69029,1.07073 0.13755,0.62625 -0.54766,1.25019 -1.14335,1.04111 z m -8.29678,-7.36386 c 0.24992,-0.21029 0.26481,-0.25353 0.22588,-0.65616 -0.0528,-0.54637 -0.38219,-1.97276 -0.51986,-2.25138 -0.0928,-0.18786 -0.3359,-0.90682 -0.56018,-1.65701 -0.0428,-0.143 -0.0777,-0.32236 -0.0777,-0.39855 0,-0.12247 -0.58212,-0.64274 -1.5139,-1.35303 -0.16854,-0.12848 -0.43978,-0.35127 -0.60277,-0.49508 -0.16298,-0.14381 -0.43223,-0.33118 -0.59833,-0.41638 -0.1661,-0.0852 -0.35174,-0.21483 -0.41253,-0.28809 -0.0608,-0.0733 -0.1585,-0.13319 -0.21712,-0.13319 -0.12624,0 -0.29625,0.61838 -0.29547,1.07466 0,0.17729 -0.0795,0.95846 -0.17742,1.73593 l -0.178,1.41358 0.50014,0.87242 c 0.27509,0.47983 0.5246,0.93755 0.55448,1.01718 0.0678,0.1806 0.71774,0.65863 0.90045,0.66226 0.0745,0.001 0.20942,0.0586 0.29981,0.127 0.0904,0.0684 0.21506,0.1243 0.27704,0.1243 0.062,0 0.36901,0.1214 0.68232,0.26977 0.85571,0.40524 1.23616,0.56693 1.34631,0.57217 0.0546,0.003 0.21973,-0.0966 0.36688,-0.2204 z m -16.58047,-12.50149 c -0.11113,-0.1183 -0.18409,-0.30512 -0.18409,-0.47141 0,-0.27226 0.29261,-0.73066 2.95192,-4.6243 0.34985,-0.51223 0.94321,-1.38853 1.31858,-1.94733 0.67165,-0.99985 0.6926,-1.02105 1.3175,-1.33351 1.44022,-0.72012 3.02171,-1.43597 3.25967,-1.47547 0.1397,-0.0232 1.0541,0.0571 2.032,0.1784 0.9779,0.12131 2.13995,0.26113 2.58233,0.31072 0.88993,0.0998 1.11044,0.18148 1.74646,0.64727 1.33383,0.97681 2.22808,1.62541 2.64831,1.92081 0.26046,0.18309 0.65149,0.46884 0.86896,0.635 0.21748,0.16616 0.6461,0.48309 0.9525,0.70428 1.08534,0.78349 1.67723,1.21299 2.42108,1.75683 0.414,0.30268 0.99254,0.72178 1.28563,0.93133 0.92832,0.66371 1.25306,1.00278 1.25306,1.30836 0,0.34959 -0.29864,0.63898 -0.65942,0.63898 -0.23472,0 -1.06803,-0.28848 -1.83824,-0.63637 -0.47063,-0.21259 -3.93904,-1.64963 -3.98149,-1.64963 -0.0231,0 -0.20354,-0.0738 -0.40094,-0.16394 -0.1974,-0.0902 -0.60656,-0.26525 -0.90924,-0.38907 -0.30268,-0.12382 -0.66463,-0.27566 -0.80433,-0.33742 -0.51561,-0.22796 -2.32829,-0.97224 -2.36786,-0.97224 -0.0225,0 -0.27999,-0.10772 -0.57219,-0.23938 -0.2922,-0.13166 -0.75989,-0.32993 -1.03929,-0.4406 -0.2794,-0.11067 -0.59913,-0.24793 -0.71052,-0.30502 -0.16363,-0.0839 -0.23724,-0.0811 -0.38321,0.0146 -0.0994,0.0651 -0.97574,0.39102 -1.94748,0.72425 -1.40139,0.48056 -1.85619,0.6749 -2.19911,0.93976 -0.45752,0.35335 -1.54548,1.17699 -1.93363,1.46383 -0.1272,0.094 -0.6987,0.52957 -1.27,0.96793 -2.65032,2.03361 -2.65861,2.03932 -2.96251,2.03932 -0.19403,0 -0.35143,-0.065 -0.47445,-0.19596 z"
       id="path179" /></g></svg>
