<?xml version="1.0" encoding="UTF-8" standalone="no"?>
<!-- Created with Inkscape (http://www.inkscape.org/) -->

<svg
   width="15.999999"
   height="15.999999"
   viewBox="0 0 4.233333 4.233333"
   version="1.1"
   id="svg5"
   xml:space="preserve"
   inkscape:version="1.2.2 (b0a8486541, 2022-12-01)"
   sodipodi:docname="test.svg"
   inkscape:export-filename="finished/16x16.png"
   inkscape:export-xdpi="96"
   inkscape:export-ydpi="96"
   xmlns:inkscape="http://www.inkscape.org/namespaces/inkscape"
   xmlns:sodipodi="http://sodipodi.sourceforge.net/DTD/sodipodi-0.dtd"
   xmlns="http://www.w3.org/2000/svg"
   xmlns:svg="http://www.w3.org/2000/svg"><sodipodi:namedview
     id="namedview7"
     pagecolor="#ffffff"
     bordercolor="#000000"
     borderopacity="0.25"
     inkscape:showpageshadow="2"
     inkscape:pageopacity="0.0"
     inkscape:pagecheckerboard="0"
     inkscape:deskcolor="#d1d1d1"
     inkscape:document-units="mm"
     showgrid="false"
     inkscape:lockguides="true"
     inkscape:zoom="0.35355339"
     inkscape:cx="694.37886"
     inkscape:cy="1144.0988"
     inkscape:window-width="1920"
     inkscape:window-height="1020"
     inkscape:window-x="0"
     inkscape:window-y="0"
     inkscape:window-maximized="1"
     inkscape:current-layer="layer1" /><defs
     id="defs2" /><g
     inkscape:label="Layer 1"
     inkscape:groupmode="layer"
     id="layer1"
     transform="translate(271.46249,218.81041)"><path
       style="fill:#05243c;fill-opacity:1;stroke-width:0.00169333"
       d="m -270.12333,-215.73745 c -0.002,-7.8e-4 -0.0949,-0.047 -0.13933,-0.0695 -0.0231,-0.0117 -0.0255,-0.0186 -0.0156,-0.0445 0.003,-0.009 0.009,-0.0241 0.0127,-0.0339 0.004,-0.01 0.009,-0.0246 0.0125,-0.033 0.003,-0.008 0.01,-0.0255 0.0146,-0.0379 0.009,-0.0247 0.0134,-0.0315 0.0191,-0.0333 0.002,-6.3e-4 0.0144,-0.006 0.0275,-0.0126 0.013,-0.006 0.0336,-0.0162 0.0457,-0.022 0.0386,-0.0185 0.0743,-0.0358 0.0798,-0.0385 l 0.005,-0.003 -0.004,-0.004 c -0.002,-0.002 -0.01,-0.007 -0.0163,-0.011 -0.007,-0.004 -0.0134,-0.009 -0.0152,-0.0102 -0.002,-0.002 -0.0102,-0.007 -0.0186,-0.0126 -0.0302,-0.0192 -0.0338,-0.022 -0.077,-0.062 -0.0117,-0.0108 -0.03,-0.0276 -0.0408,-0.0373 -0.0414,-0.0372 -0.0857,-0.0776 -0.0949,-0.0864 l -0.01,-0.009 -0.0112,-0.0339 c -0.006,-0.0186 -0.0311,-0.0929 -0.0555,-0.1651 -0.053,-0.15719 -0.0533,-0.15819 -0.0567,-0.17434 -10e-4,-0.007 -0.005,-0.0234 -0.008,-0.0365 -0.003,-0.013 -0.006,-0.0309 -0.008,-0.0398 -0.002,-0.009 -0.006,-0.0271 -0.008,-0.0406 -0.003,-0.0135 -0.007,-0.0318 -0.008,-0.0406 -0.002,-0.009 -0.006,-0.0271 -0.008,-0.0406 -0.003,-0.0135 -0.006,-0.028 -0.007,-0.0322 -8.8e-4,-0.004 -0.003,-0.013 -0.004,-0.0195 -0.005,-0.0232 -0.006,-0.0283 -0.005,-0.0328 10e-4,-0.005 0.0178,-0.0447 0.0474,-0.11315 0.01,-0.0225 0.0187,-0.0439 0.02,-0.0476 10e-4,-0.004 0.003,-0.008 0.004,-0.01 9.8e-4,-0.002 0.008,-0.0188 0.0163,-0.0379 0.008,-0.0191 0.0156,-0.037 0.0169,-0.0398 0.005,-0.011 0.0381,-0.0885 0.0381,-0.0894 0,-8.2e-4 0.0742,-0.16913 0.0842,-0.19086 0.002,-0.005 0.006,-0.0125 0.007,-0.0165 0.005,-0.0105 0.01,-0.0214 0.0132,-0.0296 0.002,-0.004 0.007,-0.0144 0.0107,-0.0233 0.004,-0.009 0.0116,-0.0255 0.0167,-0.0371 0.005,-0.0126 0.0107,-0.022 0.0129,-0.0234 0.005,-0.003 0.0135,-0.004 0.0865,-0.0116 0.0489,-0.005 0.0609,-0.006 0.0657,-0.004 0.005,0.002 0.0153,0.0131 0.0571,0.063 0.0281,0.0336 0.0678,0.0809 0.0882,0.10524 0.0204,0.0243 0.0384,0.0473 0.0401,0.051 0.002,0.004 0.004,0.0134 0.004,0.0229 6.3e-4,0.009 0.002,0.017 0.002,0.0182 7.2e-4,0.001 0.007,-0.005 0.0171,-0.0175 0.0207,-0.0254 0.0523,-0.0641 0.082,-0.10065 0.013,-0.016 0.026,-0.031 0.0288,-0.0333 0.003,-0.002 0.0124,-0.0112 0.0213,-0.0197 0.018,-0.0172 0.0238,-0.0226 0.0592,-0.0552 0.0135,-0.0124 0.0308,-0.0286 0.0385,-0.036 0.008,-0.007 0.0174,-0.0149 0.0216,-0.0168 l 0.008,-0.003 0.0292,0.003 c 0.016,0.002 0.0433,0.005 0.0605,0.007 0.0678,0.008 0.0709,0.008 0.0756,0.0198 0.003,0.006 0.002,0.009 -0.0316,0.11988 -0.0164,0.054 -0.0203,0.0674 -0.0203,0.0686 0,0.001 0.009,-0.001 0.0364,-0.009 0.008,-0.003 0.0198,-0.006 0.0254,-0.008 0.006,-0.002 0.0266,-0.008 0.0467,-0.0141 l 0.0366,-0.0111 0.17447,-0.007 c 0.096,-0.004 0.17588,-0.006 0.17762,-0.006 0.002,6.2e-4 0.0685,0.03 0.14846,0.0652 0.0799,0.0352 0.14578,0.0641 0.14636,0.0641 5.8e-4,0 0.004,0.002 0.008,0.003 0.004,0.002 0.0107,0.005 0.0149,0.007 0.004,0.002 0.0109,0.005 0.0148,0.007 0.004,0.002 0.0118,0.005 0.0174,0.007 0.0163,0.007 0.0322,0.0163 0.0462,0.0276 0.007,0.006 0.0205,0.0165 0.0296,0.0238 0.009,0.007 0.0213,0.017 0.0271,0.0217 0.006,0.005 0.0151,0.0119 0.0207,0.0161 0.006,0.004 0.0167,0.0129 0.0248,0.0195 0.008,0.007 0.0209,0.0168 0.0285,0.0229 0.008,0.006 0.0187,0.0148 0.0246,0.0195 0.006,0.005 0.0142,0.0111 0.0186,0.0144 0.0197,0.0148 0.0196,0.0147 0.0373,0.061 0.003,0.009 0.011,0.0283 0.0169,0.0432 0.006,0.0149 0.0135,0.0343 0.0169,0.0432 0.003,0.009 0.008,0.0214 0.0111,0.0279 0.003,0.007 0.008,0.0191 0.0111,0.0279 0.003,0.009 0.0109,0.0283 0.0169,0.0432 0.006,0.0149 0.0135,0.0343 0.0169,0.0432 0.003,0.009 0.008,0.0214 0.0111,0.0279 0.003,0.007 0.01,0.0241 0.0154,0.0389 0.006,0.0149 0.0137,0.0352 0.0178,0.0451 0.004,0.01 0.008,0.0236 0.01,0.0305 10e-4,0.007 0.003,0.0154 0.004,0.0189 0.001,0.004 0.003,0.0112 0.004,0.0169 10e-4,0.006 0.012,0.0505 0.0238,0.0994 0.0118,0.0489 0.0222,0.0923 0.023,0.0965 8.5e-4,0.004 0.003,0.0133 0.005,0.0203 0.0117,0.046 0.0155,0.0644 0.0143,0.0686 -0.001,0.004 -0.0222,0.0396 -0.0261,0.0441 -0.002,0.002 -0.0119,0.0182 -0.0228,0.0364 -0.0109,0.0182 -0.0211,0.0346 -0.0228,0.0364 -0.002,0.002 -0.01,0.0144 -0.0176,0.0279 l -0.0146,0.0246 -0.11475,0.11459 c -0.10707,0.10692 -0.11531,0.11476 -0.12321,0.11714 -0.005,0.001 -0.023,0.008 -0.0406,0.0138 -0.0177,0.006 -0.0352,0.0123 -0.0389,0.0135 -0.0121,0.004 -0.0795,0.0275 -0.0844,0.0295 -0.003,10e-4 -0.0164,0.004 -0.0305,0.007 -0.0141,0.003 -0.0294,0.006 -0.0341,0.007 -0.01,0.002 -0.0447,0.009 -0.0914,0.0177 -0.0177,0.003 -0.0352,0.007 -0.0389,0.008 -0.004,8.6e-4 -0.0213,0.004 -0.0389,0.008 -0.0177,0.003 -0.039,0.008 -0.0474,0.009 -0.008,0.002 -0.0297,0.006 -0.0474,0.009 -0.0177,0.003 -0.0352,0.007 -0.0389,0.008 -0.004,8.6e-4 -0.0195,0.004 -0.035,0.007 l -0.0282,0.005 -0.007,-0.003 c -0.007,-0.003 -0.008,-0.003 -0.21198,0.001 l -0.20527,0.005 -0.0324,0.0109 c -0.0379,0.0127 -0.2203,0.0727 -0.24751,0.0814 -0.0124,0.004 -0.026,0.007 -0.0406,0.009 -0.0121,0.001 -0.0319,0.004 -0.044,0.005 -0.0121,0.001 -0.0468,0.006 -0.077,0.009 -0.0303,0.004 -0.0615,0.007 -0.0694,0.008 -0.008,9.1e-4 -0.0276,0.003 -0.0437,0.005 -0.0314,0.004 -0.0304,0.004 -0.0342,0.002 z m 0.0497,-0.0412 c 0.0485,-0.006 0.0764,-0.009 0.10436,-0.0126 0.0107,-0.001 0.0439,-0.005 0.0737,-0.009 0.0316,-0.004 0.0588,-0.008 0.0652,-0.01 0.006,-0.002 0.056,-0.0181 0.11092,-0.0362 0.0549,-0.0181 0.11514,-0.0379 0.13377,-0.044 0.0278,-0.009 0.0349,-0.0121 0.0398,-0.0168 0.003,-0.003 0.0486,-0.031 0.10076,-0.062 0.0521,-0.031 0.10687,-0.0637 0.1216,-0.0726 0.10879,-0.0661 0.24316,-0.14602 0.25037,-0.14886 0.006,-0.002 0.007,-0.002 0.0127,7.2e-4 0.005,0.002 0.007,0.005 0.009,0.0101 0.002,0.006 0.002,0.008 -8.5e-4,0.0135 -0.003,0.006 -0.009,0.01 -0.0575,0.0388 -0.0299,0.0177 -0.0965,0.0573 -0.14816,0.088 -0.0516,0.0307 -0.0954,0.057 -0.0973,0.0586 -0.002,0.002 -0.0295,0.0184 -0.0615,0.0374 l -0.0581,0.0346 0.01,4.8e-4 c 0.005,2.7e-4 0.0923,-0.001 0.19312,-0.004 0.10081,-0.002 0.18436,-0.004 0.18567,-0.003 0.002,8e-4 0.0366,-0.006 0.11195,-0.0205 0.0112,-0.002 0.0443,-0.009 0.0737,-0.0143 0.0293,-0.006 0.0587,-0.0114 0.0652,-0.0127 0.007,-0.001 0.0378,-0.007 0.0694,-0.0135 0.0715,-0.0138 0.068,-0.0129 0.116,-0.0296 0.0219,-0.008 0.0451,-0.0157 0.0516,-0.0179 0.007,-0.002 0.0252,-0.009 0.0415,-0.0143 l 0.0296,-0.0103 0.0449,-0.045 c 0.0247,-0.0248 0.0434,-0.0446 0.0415,-0.0441 -0.002,5.2e-4 -0.0444,0.0102 -0.0945,0.0215 l -0.0911,0.0205 -0.21743,-0.0645 c -0.17276,-0.0512 -0.21938,-0.0645 -0.2269,-0.0645 -0.008,0 -0.0333,-0.003 -0.0872,-0.0118 -0.006,-9.3e-4 -0.0297,-0.004 -0.0525,-0.008 -0.0614,-0.009 -0.13124,-0.0193 -0.14511,-0.0214 -0.0145,-0.002 -0.0188,-0.006 -0.0211,-0.0178 -0.001,-0.008 -0.01,-0.0542 -0.0218,-0.12303 -0.003,-0.0157 -0.005,-0.0306 -0.005,-0.0332 0,-0.007 0.003,-0.01 0.0449,-0.0315 0.008,-0.004 0.019,-0.0101 0.0237,-0.0126 0.005,-0.003 0.0146,-0.008 0.022,-0.0119 0.007,-0.004 0.0166,-0.009 0.0203,-0.011 0.0445,-0.0243 0.0586,-0.0314 0.0629,-0.0314 0.003,0 0.009,0.001 0.0142,0.002 0.009,0.002 0.1349,0.0327 0.19128,0.046 0.0646,0.0153 0.0603,0.0138 0.10944,0.0389 0.025,0.0127 0.0524,0.0268 0.0607,0.0312 0.008,0.004 0.0305,0.0159 0.0491,0.0254 0.087,0.0446 0.10341,0.053 0.10504,0.0543 10e-4,0.001 0.12768,0.0378 0.21468,0.0625 l 0.0166,0.005 0.0452,-0.0159 c 0.0249,-0.009 0.0681,-0.024 0.096,-0.0339 0.0279,-0.01 0.055,-0.0194 0.0601,-0.0212 0.009,-0.003 0.01,-0.004 0.0195,-0.0193 0.0298,-0.0471 0.0362,-0.0577 0.0363,-0.0602 10e-5,-0.002 -0.057,-0.24424 -0.0667,-0.28258 -10e-4,-0.005 -0.004,-0.0146 -0.005,-0.0212 -0.002,-0.007 -0.005,-0.0187 -0.009,-0.0271 -0.003,-0.008 -0.008,-0.0198 -0.01,-0.0254 -0.002,-0.006 -0.007,-0.0178 -0.0106,-0.0271 -0.01,-0.0247 -0.0173,-0.0438 -0.03,-0.0762 -0.006,-0.0158 -0.0143,-0.0364 -0.018,-0.0457 -0.004,-0.009 -0.009,-0.0215 -0.0107,-0.0271 -0.002,-0.006 -0.007,-0.017 -0.01,-0.0254 -0.003,-0.008 -0.0111,-0.0282 -0.0173,-0.044 -0.006,-0.0158 -0.0142,-0.036 -0.0177,-0.0449 -0.004,-0.009 -0.009,-0.0233 -0.0127,-0.0322 -0.003,-0.009 -0.007,-0.0188 -0.009,-0.0221 -10e-4,-0.003 -0.006,-0.009 -0.011,-0.0127 -0.005,-0.004 -0.0133,-0.0104 -0.0191,-0.0151 -0.006,-0.005 -0.0165,-0.013 -0.0237,-0.0186 -0.007,-0.006 -0.0183,-0.0144 -0.0246,-0.0195 -0.006,-0.005 -0.0174,-0.0139 -0.0246,-0.0195 -0.007,-0.006 -0.0178,-0.014 -0.0237,-0.0186 -0.006,-0.005 -0.0222,-0.0176 -0.0364,-0.0288 -0.0142,-0.0112 -0.0293,-0.0232 -0.0336,-0.0267 -0.008,-0.006 -0.0125,-0.009 -0.0303,-0.0166 -0.004,-0.002 -0.0115,-0.005 -0.0157,-0.007 -0.004,-0.002 -0.0107,-0.005 -0.0144,-0.006 -0.004,-0.002 -0.0102,-0.004 -0.0144,-0.006 -0.004,-0.002 -0.0728,-0.0321 -0.15247,-0.0671 l -0.14486,-0.0637 -0.17095,0.007 c -0.13494,0.005 -0.17274,0.007 -0.17942,0.009 -0.005,10e-4 -0.0146,0.004 -0.022,0.007 -0.007,0.002 -0.0227,0.007 -0.0339,0.0101 -0.0112,0.003 -0.0268,0.008 -0.0347,0.0104 -0.008,0.002 -0.0163,0.005 -0.0186,0.006 -0.005,0.002 -0.0282,0.009 -0.0425,0.0127 -0.0105,0.003 -0.0221,0.0101 -0.0845,0.0525 -0.0233,0.0158 -0.0487,0.033 -0.0565,0.0381 -0.008,0.005 -0.0288,0.0192 -0.0467,0.0313 -0.0179,0.0121 -0.0378,0.0255 -0.0441,0.0296 -0.006,0.004 -0.0261,0.0175 -0.044,0.0296 -0.0387,0.0262 -0.0509,0.0344 -0.0687,0.046 -0.0226,0.0147 -0.0254,0.0173 -0.058,0.0522 -0.0174,0.0186 -0.0343,0.0366 -0.0375,0.0399 -0.003,0.003 -0.0158,0.0167 -0.0279,0.0297 -0.0216,0.0231 -0.03,0.0321 -0.0586,0.0624 -0.008,0.008 -0.0154,0.0163 -0.0168,0.0178 -0.0279,0.03 -0.0738,0.0791 -0.0856,0.0915 -0.008,0.009 -0.0214,0.0226 -0.0288,0.0305 -0.007,0.008 -0.014,0.0148 -0.0148,0.0154 -7.7e-4,5.5e-4 -0.005,0.015 -0.009,0.0322 -0.0308,0.12645 -0.0329,0.13428 -0.0379,0.13935 -0.009,0.01 -0.0267,0.004 -0.0294,-0.009 -5.4e-4,-0.003 0.003,-0.0187 0.007,-0.0384 0.0242,-0.0986 0.0305,-0.12468 0.0305,-0.12659 9e-5,-0.009 0.0154,-0.0273 0.0873,-0.10285 0.007,-0.007 0.0178,-0.0188 0.0247,-0.0263 0.007,-0.007 0.0259,-0.0276 0.0421,-0.0449 0.0162,-0.0172 0.0341,-0.0363 0.0398,-0.0423 0.006,-0.006 0.0171,-0.0183 0.0255,-0.0271 0.008,-0.009 0.0254,-0.0271 0.038,-0.0406 0.0126,-0.0135 0.0287,-0.0306 0.0358,-0.0381 0.007,-0.007 0.0147,-0.0158 0.0168,-0.0184 0.002,-0.003 0.009,-0.008 0.0157,-0.0127 0.022,-0.0146 0.0346,-0.023 0.0672,-0.0451 0.037,-0.0251 0.0501,-0.0338 0.0679,-0.0455 0.007,-0.005 0.0138,-0.009 0.0153,-0.0102 0.007,-0.005 0.0688,-0.0467 0.0793,-0.0536 0.006,-0.004 0.0262,-0.0175 0.044,-0.0296 0.0346,-0.0235 0.0478,-0.0324 0.0681,-0.0456 0.0123,-0.008 0.0128,-0.009 0.0157,-0.0186 0.005,-0.0157 0.0129,-0.0437 0.0145,-0.0484 8.1e-4,-0.002 0.007,-0.024 0.0145,-0.0483 0.007,-0.0242 0.0152,-0.0512 0.0179,-0.06 0.003,-0.009 0.005,-0.0161 0.004,-0.0163 -2.2e-4,-1.8e-4 -0.0122,-0.002 -0.0267,-0.003 -0.0144,-0.002 -0.0411,-0.005 -0.0593,-0.007 l -0.033,-0.004 -0.011,0.0103 c -0.0326,0.0305 -0.0433,0.0404 -0.0914,0.0851 -0.0182,0.0169 -0.0384,0.0373 -0.0449,0.0454 -0.007,0.008 -0.0233,0.0287 -0.0372,0.0458 -0.014,0.0171 -0.0358,0.0439 -0.0486,0.0596 -0.0128,0.0157 -0.0299,0.0367 -0.038,0.0467 -0.0116,0.0142 -0.0162,0.0186 -0.0209,0.0201 -0.009,0.003 -0.0179,-0.001 -0.0211,-0.009 -0.001,-0.003 -0.004,-0.0222 -0.005,-0.0452 l -0.003,-0.0396 -0.0588,-0.0704 c -0.0494,-0.0592 -0.0702,-0.084 -0.10373,-0.12388 l -0.004,-0.004 -0.0541,0.006 c -0.0298,0.003 -0.0557,0.006 -0.0577,0.006 -0.003,4e-5 -0.005,0.004 -0.0142,0.0242 -0.006,0.0133 -0.0133,0.0299 -0.0165,0.0368 -0.008,0.0175 -0.0123,0.0268 -0.0158,0.0347 -0.002,0.004 -0.005,0.0117 -0.008,0.0178 -0.01,0.0214 -0.0849,0.19166 -0.0849,0.19273 0,8.9e-4 -0.0289,0.0691 -0.0364,0.0858 -10e-4,0.003 -0.009,0.0207 -0.017,0.0398 -0.0332,0.0783 -0.0537,0.12653 -0.0567,0.13293 -0.002,0.004 -0.009,0.0203 -0.0159,0.0368 l -0.0128,0.03 0.003,0.0157 c 0.007,0.0305 0.0136,0.0632 0.0151,0.0707 8.3e-4,0.004 0.005,0.0225 0.008,0.0406 0.004,0.0182 0.008,0.0365 0.008,0.0406 8.4e-4,0.004 0.005,0.0225 0.008,0.0406 0.004,0.0182 0.009,0.0425 0.0112,0.0542 0.005,0.022 0.007,0.0284 0.077,0.23707 0.0234,0.0694 0.0429,0.12742 0.0434,0.12897 7.8e-4,0.003 0.0197,0.0203 0.0673,0.0631 0.0103,0.009 0.0191,0.0172 0.0195,0.0178 4.6e-4,5.6e-4 0.008,0.008 0.0178,0.0162 0.009,0.008 0.0219,0.0198 0.0279,0.0254 0.0463,0.0429 0.0481,0.0443 0.0962,0.0766 0.0452,0.0303 0.0487,0.0323 0.0519,0.03 0.002,-0.001 0.005,-0.003 0.008,-0.005 0.002,-0.001 0.0266,-0.0207 0.054,-0.0436 0.121,-0.10109 0.10918,-0.0906 0.11197,-0.0997 7.7e-4,-0.002 0.004,-0.011 0.007,-0.0189 0.003,-0.008 0.008,-0.0213 0.011,-0.0296 0.003,-0.008 0.008,-0.0217 0.011,-0.0296 0.003,-0.008 0.006,-0.0163 0.007,-0.0186 7.6e-4,-0.002 0.003,-0.01 0.006,-0.0161 0.003,-0.007 0.008,-0.0202 0.0114,-0.0305 0.0116,-0.0317 0.0129,-0.0351 0.0184,-0.05 0.003,-0.008 0.008,-0.0213 0.011,-0.0296 0.003,-0.008 0.008,-0.0217 0.011,-0.0296 0.003,-0.008 0.006,-0.0163 0.007,-0.0186 7.7e-4,-0.002 0.003,-0.009 0.006,-0.0152 0.0107,-0.0285 0.0162,-0.0435 0.0172,-0.0467 5.7e-4,-0.002 0.003,-0.006 0.006,-0.008 0.01,-0.009 0.0268,-0.004 0.0295,0.01 9.7e-4,0.005 4e-5,0.008 -0.0143,0.0467 -0.002,0.005 -0.005,0.0133 -0.007,0.0186 -0.002,0.005 -0.005,0.0124 -0.006,0.0157 -0.001,0.003 -0.006,0.0166 -0.0109,0.0296 -0.005,0.013 -0.01,0.0275 -0.0118,0.0322 -0.002,0.005 -0.008,0.0222 -0.0144,0.0389 -0.0164,0.0445 -0.0174,0.0473 -0.0213,0.058 -0.002,0.005 -0.005,0.0124 -0.006,0.0157 -10e-4,0.003 -0.006,0.0166 -0.011,0.0296 -0.009,0.0243 -0.01,0.0272 -0.022,0.0594 l -0.007,0.0188 -0.023,0.0193 c -0.0248,0.0208 -0.052,0.0435 -0.0669,0.0557 -0.0222,0.0182 -0.0807,0.068 -0.0892,0.076 -0.009,0.009 -0.02,0.0145 -0.0787,0.0426 -0.052,0.0249 -0.065,0.0311 -0.0897,0.0433 l -0.0254,0.0124 -0.004,0.0115 c -0.008,0.0217 -0.0188,0.0488 -0.0226,0.0589 -0.002,0.006 -0.006,0.0174 -0.01,0.0262 -0.003,0.009 -0.006,0.018 -0.007,0.0203 -8.9e-4,0.004 0.002,0.005 0.0621,0.0358 0.0347,0.0173 0.0633,0.0316 0.0637,0.0317 3.4e-4,1.2e-4 0.0198,-0.002 0.0432,-0.005 z m 1.39299,-0.75805 c -0.001,-4.9e-4 -0.008,-0.004 -0.0152,-0.007 -0.007,-0.003 -0.0158,-0.007 -0.0195,-0.009 -0.004,-0.002 -0.0143,-0.007 -0.0234,-0.011 -0.009,-0.004 -0.0179,-0.007 -0.0194,-0.007 -0.002,9.2e-4 -0.0173,0.004 -0.0945,0.0206 -0.0241,0.005 -0.0215,0.006 -0.0509,-0.0133 -0.0104,-0.007 -0.0235,-0.0153 -0.0293,-0.019 -0.006,-0.004 -0.0163,-0.0107 -0.0235,-0.0155 -0.007,-0.005 -0.0199,-0.013 -0.0283,-0.0182 -0.0237,-0.0148 -0.0336,-0.022 -0.0372,-0.0274 -0.002,-0.003 -0.0151,-0.0404 -0.0294,-0.0837 -0.0143,-0.0433 -0.0262,-0.0788 -0.0264,-0.0791 -1.6e-4,-2.2e-4 -0.0155,-0.003 -0.0341,-0.007 -0.15323,-0.0311 -0.15415,-0.0313 -0.15881,-0.0344 -0.006,-0.004 -0.009,-0.014 -0.006,-0.0219 0.003,-0.007 0.007,-0.009 0.0264,-0.0166 0.0204,-0.007 0.0677,-0.0253 0.0788,-0.0297 0.006,-0.002 0.0178,-0.007 0.0271,-0.0103 0.009,-0.003 0.0219,-0.008 0.0279,-0.0104 0.006,-0.002 0.0129,-0.005 0.0152,-0.005 0.002,-7.5e-4 0.0115,-0.004 0.0203,-0.008 0.0283,-0.0109 0.0343,-0.0125 0.0542,-0.0144 0.0343,-0.003 0.0917,-0.008 0.10984,-0.0102 0.0233,-0.002 0.026,-9.9e-4 0.0454,0.0213 0.008,0.009 0.0256,0.0292 0.0387,0.044 0.0626,0.0709 0.0733,0.0836 0.0751,0.0889 10e-4,0.003 0.003,0.0164 0.005,0.0294 0.006,0.038 0.0169,0.11448 0.018,0.12267 10e-4,0.009 0.002,0.01 0.0621,0.0888 0.007,0.009 0.0132,0.0188 0.0138,0.0214 0.003,0.0125 -0.0109,0.025 -0.0229,0.0208 z m -0.16594,-0.14728 c 0.005,-0.004 0.005,-0.005 0.005,-0.0131 -10e-4,-0.0109 -0.008,-0.0395 -0.0104,-0.045 -0.002,-0.004 -0.007,-0.0181 -0.0112,-0.0331 -8.6e-4,-0.003 -0.002,-0.006 -0.002,-0.008 0,-0.002 -0.0116,-0.0129 -0.0303,-0.0271 -0.003,-0.003 -0.009,-0.007 -0.0121,-0.01 -0.003,-0.003 -0.009,-0.007 -0.012,-0.008 -0.003,-0.002 -0.007,-0.004 -0.008,-0.006 -0.001,-0.001 -0.003,-0.003 -0.004,-0.003 -0.003,0 -0.006,0.0124 -0.006,0.0215 0,0.004 -0.002,0.0192 -0.004,0.0347 l -0.004,0.0283 0.01,0.0174 c 0.005,0.01 0.0105,0.0188 0.0111,0.0203 0.001,0.004 0.0144,0.0132 0.018,0.0132 10e-4,3e-5 0.004,10e-4 0.006,0.003 0.002,0.001 0.004,0.002 0.006,0.002 10e-4,0 0.007,0.002 0.0137,0.005 0.0171,0.008 0.0247,0.0113 0.0269,0.0114 10e-4,5e-5 0.004,-0.002 0.007,-0.004 z m -0.33161,-0.25003 c -0.002,-0.002 -0.004,-0.006 -0.004,-0.009 0,-0.005 0.006,-0.0146 0.059,-0.0925 0.007,-0.0102 0.0189,-0.0278 0.0264,-0.0389 0.0134,-0.02 0.0138,-0.0204 0.0263,-0.0267 0.0288,-0.0144 0.0604,-0.0287 0.0652,-0.0295 0.003,-4.6e-4 0.0211,10e-4 0.0406,0.004 0.0196,0.002 0.0428,0.005 0.0516,0.006 0.0178,0.002 0.0222,0.004 0.0349,0.0129 0.0267,0.0195 0.0446,0.0325 0.053,0.0384 0.005,0.004 0.013,0.009 0.0174,0.0127 0.004,0.003 0.0129,0.01 0.019,0.0141 0.0217,0.0157 0.0336,0.0243 0.0484,0.0351 0.008,0.006 0.0198,0.0144 0.0257,0.0186 0.0186,0.0133 0.0251,0.0201 0.0251,0.0262 0,0.007 -0.006,0.0128 -0.0132,0.0128 -0.005,0 -0.0214,-0.006 -0.0368,-0.0127 -0.009,-0.004 -0.0788,-0.033 -0.0796,-0.033 -4.6e-4,0 -0.004,-0.001 -0.008,-0.003 -0.004,-0.002 -0.0121,-0.005 -0.0182,-0.008 -0.006,-0.002 -0.0133,-0.006 -0.0161,-0.007 -0.0103,-0.005 -0.0466,-0.0194 -0.0474,-0.0194 -4.5e-4,0 -0.006,-0.002 -0.0114,-0.005 -0.006,-0.003 -0.0152,-0.007 -0.0208,-0.009 -0.006,-0.002 -0.012,-0.005 -0.0142,-0.006 -0.003,-0.002 -0.005,-0.002 -0.008,2.9e-4 -0.002,10e-4 -0.0195,0.008 -0.0389,0.0145 -0.028,0.01 -0.0371,0.0135 -0.044,0.0188 -0.009,0.007 -0.0309,0.0235 -0.0387,0.0293 -0.003,0.002 -0.014,0.0106 -0.0254,0.0193 -0.053,0.0407 -0.0532,0.0408 -0.0593,0.0408 -0.004,0 -0.007,-10e-4 -0.009,-0.004 z"
       id="path179" /></g></svg>
