<?xml version="1.0" encoding="UTF-8" standalone="no"?>
<!-- Created with Inkscape (http://www.inkscape.org/) -->

<svg
   width="180"
   height="180"
   viewBox="0 0 47.625 47.625"
   version="1.1"
   id="svg5"
   xml:space="preserve"
   inkscape:version="1.2.2 (b0a8486541, 2022-12-01)"
   sodipodi:docname="test.svg"
   inkscape:export-filename="finished/180x180.png"
   inkscape:export-xdpi="96"
   inkscape:export-ydpi="96"
   xmlns:inkscape="http://www.inkscape.org/namespaces/inkscape"
   xmlns:sodipodi="http://sodipodi.sourceforge.net/DTD/sodipodi-0.dtd"
   xmlns="http://www.w3.org/2000/svg"
   xmlns:svg="http://www.w3.org/2000/svg"><sodipodi:namedview
     id="namedview7"
     pagecolor="#ffffff"
     bordercolor="#000000"
     borderopacity="0.25"
     inkscape:showpageshadow="2"
     inkscape:pageopacity="0.0"
     inkscape:pagecheckerboard="0"
     inkscape:deskcolor="#d1d1d1"
     inkscape:document-units="mm"
     showgrid="false"
     inkscape:lockguides="true"
     inkscape:zoom="0.35355339"
     inkscape:cx="694.37886"
     inkscape:cy="1144.0988"
     inkscape:window-width="1920"
     inkscape:window-height="1020"
     inkscape:window-x="0"
     inkscape:window-y="0"
     inkscape:window-maximized="1"
     inkscape:current-layer="layer1" /><defs
     id="defs2" /><g
     inkscape:label="Layer 1"
     inkscape:groupmode="layer"
     id="layer1"
     transform="translate(271.46249,218.81041)"><path
       style="fill:#05243c;fill-opacity:1;stroke-width:0.01905"
       d="m -256.3932,-184.24496 c -0.0246,-0.009 -1.06757,-0.52879 -1.56738,-0.78147 -0.25997,-0.13143 -0.28731,-0.20919 -0.17602,-0.50072 0.038,-0.0995 0.10244,-0.27098 0.1432,-0.381 0.0408,-0.11001 0.10395,-0.27718 0.14042,-0.37147 0.0365,-0.0943 0.11018,-0.28638 0.16379,-0.42685 0.10592,-0.27747 0.15022,-0.35449 0.2154,-0.37445 0.0233,-0.007 0.16238,-0.0709 0.30906,-0.14167 0.14669,-0.0708 0.37815,-0.18216 0.51435,-0.2475 0.43429,-0.20832 0.83633,-0.40242 0.89787,-0.43349 l 0.0597,-0.0301 -0.0501,-0.0417 c -0.0276,-0.0229 -0.11014,-0.0787 -0.18349,-0.1239 -0.0733,-0.0452 -0.15049,-0.097 -0.17145,-0.11504 -0.021,-0.018 -0.11525,-0.0817 -0.20955,-0.1415 -0.3401,-0.21564 -0.3802,-0.24791 -0.8662,-0.69721 -0.13128,-0.12137 -0.33806,-0.30996 -0.4595,-0.4191 -0.46608,-0.41887 -0.9647,-0.87281 -1.06728,-0.97165 l -0.10698,-0.10308 -0.12582,-0.381 c -0.0692,-0.20955 -0.34991,-1.04537 -0.62381,-1.85738 -0.59652,-1.76845 -0.60017,-1.77964 -0.63821,-1.96138 -0.0165,-0.079 -0.0552,-0.26366 -0.0859,-0.41034 -0.0307,-0.14669 -0.0726,-0.34814 -0.0931,-0.44768 -0.0205,-0.0995 -0.0633,-0.30528 -0.0953,-0.4572 -0.0319,-0.15192 -0.0748,-0.35766 -0.0952,-0.4572 -0.0205,-0.0995 -0.0634,-0.30528 -0.0953,-0.4572 -0.032,-0.15192 -0.0662,-0.3148 -0.0761,-0.36195 -0.01,-0.0471 -0.0313,-0.14573 -0.0476,-0.21907 -0.058,-0.26077 -0.0666,-0.31883 -0.055,-0.36866 0.0124,-0.053 0.20064,-0.50269 0.53292,-1.27297 0.10927,-0.25329 0.21059,-0.49433 0.22517,-0.53565 0.0146,-0.0413 0.0355,-0.0913 0.0466,-0.11097 0.011,-0.0197 0.0937,-0.21159 0.18376,-0.42638 0.09,-0.21479 0.17549,-0.41624 0.18993,-0.44767 0.0568,-0.12367 0.42886,-0.99614 0.42886,-1.00567 0,-0.009 0.83503,-1.90269 0.9469,-2.14711 0.0264,-0.0576 0.0641,-0.14121 0.0839,-0.18574 0.0523,-0.11768 0.10707,-0.24095 0.14817,-0.33337 0.0198,-0.0445 0.074,-0.1624 0.12045,-0.26194 0.0464,-0.0995 0.13098,-0.28716 0.18784,-0.41695 0.0619,-0.14124 0.12027,-0.24707 0.14545,-0.26361 0.0534,-0.0351 0.15142,-0.0482 0.97334,-0.13062 0.5505,-0.0552 0.68465,-0.0634 0.73942,-0.0453 0.0547,0.018 0.17197,0.14751 0.64194,0.70862 0.31627,0.37759 0.76277,0.91038 0.99223,1.18397 0.22945,0.2736 0.43259,0.53195 0.45142,0.57411 0.0201,0.045 0.0396,0.15121 0.0473,0.25718 0.007,0.0993 0.0187,0.19127 0.0256,0.20442 0.008,0.0152 0.0783,-0.0568 0.19277,-0.19732 0.23315,-0.28629 0.58806,-0.72164 0.92311,-1.13233 0.14669,-0.17979 0.29242,-0.34841 0.32385,-0.3747 0.0314,-0.0263 0.13905,-0.12615 0.23914,-0.22191 0.20242,-0.19364 0.2674,-0.25428 0.66574,-0.62119 0.15192,-0.13994 0.34701,-0.32213 0.43352,-0.40487 0.0865,-0.0827 0.19602,-0.16756 0.24334,-0.18849 l 0.086,-0.0381 0.32816,0.0387 c 0.18049,0.0213 0.48676,0.0565 0.68059,0.0782 0.76277,0.0856 0.79711,0.0946 0.85056,0.22252 0.0306,0.0731 0.0225,0.10361 -0.35512,1.3487 -0.18407,0.60685 -0.22874,0.75758 -0.22874,0.77181 0,0.0139 0.10138,-0.0122 0.40957,-0.10548 0.0943,-0.0285 0.22289,-0.067 0.28575,-0.0855 0.0629,-0.0185 0.29952,-0.0898 0.52589,-0.15845 l 0.41158,-0.12484 1.96279,-0.0776 c 1.07952,-0.0427 1.97873,-0.0718 1.99823,-0.0647 0.0195,0.007 0.77109,0.33719 1.67018,0.73364 0.8991,0.39644 1.64005,0.7208 1.64658,0.7208 0.007,0 0.0489,0.0172 0.0941,0.0381 0.0452,0.021 0.12079,0.0553 0.16794,0.0762 0.0472,0.021 0.12216,0.0546 0.16669,0.0748 0.0445,0.0202 0.1324,0.058 0.19526,0.0842 0.18376,0.0764 0.36175,0.18292 0.51956,0.3108 0.081,0.0656 0.23099,0.18606 0.33341,0.26767 0.10242,0.0816 0.23958,0.19139 0.3048,0.24393 0.0652,0.0525 0.17002,0.13398 0.23288,0.18098 0.0629,0.047 0.1883,0.14544 0.27873,0.21879 0.0904,0.0733 0.23486,0.18907 0.32094,0.25717 0.0861,0.0681 0.21061,0.16669 0.27671,0.21908 0.0661,0.0524 0.16016,0.12525 0.209,0.16192 0.2219,0.16663 0.22088,0.16497 0.41992,0.6858 0.038,0.0995 0.12354,0.31814 0.19001,0.48578 0.0665,0.16764 0.15191,0.38624 0.18987,0.48577 0.038,0.0995 0.094,0.24098 0.1246,0.31433 0.0306,0.0733 0.0866,0.21479 0.12445,0.31432 0.0379,0.0995 0.12326,0.31814 0.18973,0.48578 0.0665,0.16764 0.15191,0.38623 0.18987,0.48577 0.038,0.0995 0.094,0.24098 0.12458,0.31433 0.0306,0.0733 0.10857,0.27051 0.17335,0.43815 0.0648,0.16764 0.15462,0.39606 0.19964,0.50761 0.045,0.11154 0.0951,0.26584 0.11132,0.3429 0.0162,0.077 0.0387,0.1729 0.0501,0.21301 0.0114,0.0401 0.0323,0.12584 0.0464,0.1905 0.0142,0.0647 0.13443,0.56763 0.26723,1.1177 0.1328,0.55007 0.24931,1.03851 0.2589,1.08542 0.01,0.0469 0.0339,0.14978 0.0539,0.2286 0.13191,0.51807 0.17494,0.72466 0.16069,0.77152 -0.0151,0.0496 -0.25001,0.4457 -0.29401,0.49574 -0.0184,0.021 -0.13365,0.20526 -0.25607,0.40957 -0.12241,0.20431 -0.23773,0.38862 -0.25626,0.40958 -0.0185,0.0209 -0.10763,0.1624 -0.198,0.31432 l -0.16431,0.27623 -1.29092,1.28913 c -1.20452,1.20285 -1.29728,1.29104 -1.38616,1.31778 -0.0524,0.0158 -0.25812,0.0858 -0.4572,0.15564 -0.19907,0.0698 -0.39624,0.13839 -0.43815,0.15232 -0.13628,0.0453 -0.89382,0.30976 -0.9498,0.33159 -0.0299,0.0117 -0.18425,0.0466 -0.3429,0.0777 -0.15864,0.031 -0.33131,0.0654 -0.3837,0.0763 -0.10893,0.0227 -0.50309,0.099 -1.0287,0.19919 -0.19907,0.0379 -0.39624,0.0769 -0.43815,0.0866 -0.0419,0.01 -0.23907,0.0483 -0.43815,0.0859 -0.19907,0.0376 -0.4391,0.0846 -0.5334,0.10459 -0.0943,0.02 -0.33432,0.067 -0.5334,0.1046 -0.19907,0.0376 -0.39624,0.0762 -0.43815,0.0859 -0.0419,0.01 -0.21897,0.045 -0.39346,0.0784 l -0.31727,0.0607 -0.0753,-0.0373 c -0.075,-0.0371 -0.0873,-0.037 -2.38469,0.0154 l -2.30936,0.0527 -0.36509,0.12243 c -0.42649,0.14302 -2.47836,0.81823 -2.78444,0.91628 -0.13896,0.0445 -0.29297,0.077 -0.4572,0.0964 -0.1362,0.0161 -0.35909,0.0423 -0.4953,0.0582 -0.1362,0.0159 -0.52625,0.0626 -0.86677,0.10377 -0.34052,0.0411 -0.69199,0.0832 -0.78105,0.0936 -0.0891,0.0103 -0.3103,0.0363 -0.49165,0.0578 -0.35345,0.0418 -0.34195,0.041 -0.38465,0.0258 z m 0.55946,-0.46339 c 0.54604,-0.0656 0.86003,-0.10352 1.17409,-0.14188 0.12049,-0.0147 0.49339,-0.058 0.82867,-0.0962 0.35569,-0.0405 0.66118,-0.085 0.73343,-0.10688 0.0681,-0.0206 0.6296,-0.20401 1.24777,-0.40758 0.61817,-0.20358 1.2954,-0.42646 1.50495,-0.49529 0.31251,-0.10265 0.39299,-0.13651 0.44768,-0.18836 0.0367,-0.0348 0.54673,-0.34846 1.13347,-0.69708 0.58674,-0.34862 1.20237,-0.71626 1.36806,-0.81698 1.22387,-0.74393 2.73556,-1.64271 2.81666,-1.67465 0.0634,-0.025 0.0767,-0.0242 0.14288,0.008 0.0554,0.027 0.0794,0.0544 0.0999,0.11342 0.0244,0.0707 0.0236,0.0845 -0.01,0.15171 -0.0329,0.0667 -0.096,0.10933 -0.64705,0.43656 -0.33586,0.19945 -1.08595,0.64486 -1.66688,0.98981 -0.58093,0.34494 -1.07338,0.64143 -1.09434,0.65886 -0.021,0.0174 -0.33223,0.20669 -0.69173,0.42058 l -0.65364,0.38889 0.11071,0.005 c 0.0609,0.003 1.03859,-0.016 2.17265,-0.0423 1.13407,-0.0263 2.074,-0.0432 2.08874,-0.0376 0.0233,0.009 0.41185,-0.0621 1.25952,-0.23038 0.12573,-0.0249 0.49864,-0.0975 0.82868,-0.16128 0.33004,-0.0637 0.66008,-0.12822 0.73342,-0.14327 0.0734,-0.0151 0.42482,-0.0836 0.78105,-0.15228 0.80469,-0.1552 0.76541,-0.14517 1.30493,-0.33303 0.24622,-0.0857 0.50768,-0.17619 0.58102,-0.20102 0.0734,-0.0248 0.28337,-0.0972 0.46673,-0.16085 l 0.33337,-0.1157 0.50483,-0.50634 c 0.27765,-0.27849 0.48768,-0.50152 0.46672,-0.49563 -0.0209,0.006 -0.49931,0.11458 -1.06302,0.24153 l -1.02493,0.23082 -2.44609,-0.72549 c -1.94348,-0.57642 -2.46797,-0.72549 -2.55259,-0.72549 -0.0904,0 -0.37412,-0.0382 -0.98104,-0.13214 -0.0681,-0.0106 -0.33385,-0.0498 -0.59055,-0.0873 -0.6907,-0.10086 -1.47652,-0.21669 -1.63252,-0.24064 -0.16356,-0.0251 -0.21155,-0.0657 -0.23729,-0.20074 -0.0162,-0.0849 -0.10932,-0.61007 -0.24545,-1.38412 -0.031,-0.17651 -0.0564,-0.34432 -0.0564,-0.37291 0,-0.0816 0.038,-0.10833 0.50482,-0.35434 0.0943,-0.0497 0.21432,-0.11369 0.2667,-0.1422 0.0524,-0.0285 0.16383,-0.0886 0.24765,-0.13357 0.0838,-0.045 0.18669,-0.10049 0.2286,-0.12341 0.50092,-0.27389 0.65932,-0.35285 0.70778,-0.35285 0.0307,0 0.10255,0.0122 0.15976,0.0271 0.10637,0.0277 1.51764,0.36738 2.15189,0.51798 0.72654,0.17252 0.67854,0.15547 1.2312,0.43712 0.28153,0.14347 0.58903,0.30162 0.68332,0.35144 0.0943,0.0498 0.3429,0.17839 0.55245,0.28569 0.97904,0.50131 1.1634,0.59663 1.18171,0.61097 0.0157,0.0123 1.43647,0.42576 2.41514,0.70284 l 0.1869,0.0529 0.50843,-0.17929 c 0.27963,-0.0986 0.7656,-0.27001 1.07992,-0.3809 0.31433,-0.11088 0.61878,-0.21812 0.67656,-0.23831 0.10067,-0.0352 0.10983,-0.0443 0.21908,-0.21711 0.33467,-0.52952 0.40673,-0.64918 0.40795,-0.67741 0.001,-0.0245 -0.64172,-2.7477 -0.75036,-3.17896 -0.0145,-0.0576 -0.0406,-0.16478 -0.0579,-0.23812 -0.0173,-0.0733 -0.0619,-0.2105 -0.099,-0.3048 -0.0371,-0.0943 -0.0871,-0.22289 -0.11118,-0.28575 -0.0241,-0.0629 -0.0777,-0.20003 -0.11931,-0.3048 -0.11009,-0.2775 -0.19475,-0.49243 -0.33768,-0.85725 -0.0698,-0.17812 -0.16114,-0.40958 -0.20299,-0.51435 -0.0419,-0.10478 -0.0958,-0.24194 -0.11985,-0.3048 -0.024,-0.0629 -0.0741,-0.19145 -0.11133,-0.28575 -0.0372,-0.0943 -0.1247,-0.31718 -0.19448,-0.4953 -0.0698,-0.17812 -0.15938,-0.40529 -0.19909,-0.50483 -0.0397,-0.0995 -0.10411,-0.26241 -0.1431,-0.36195 -0.039,-0.0995 -0.0835,-0.21165 -0.0989,-0.24915 -0.016,-0.0389 -0.0692,-0.10031 -0.12383,-0.14287 -0.0527,-0.0411 -0.14959,-0.11756 -0.21535,-0.16995 -0.0658,-0.0524 -0.1857,-0.14668 -0.26654,-0.20955 -0.0808,-0.0629 -0.20536,-0.16145 -0.27672,-0.21908 -0.0714,-0.0576 -0.19589,-0.15621 -0.27672,-0.21907 -0.0808,-0.0629 -0.20077,-0.15716 -0.26651,-0.20955 -0.0657,-0.0524 -0.24999,-0.19812 -0.40943,-0.32385 -0.15945,-0.12573 -0.32965,-0.26096 -0.37824,-0.30051 -0.0846,-0.0689 -0.1408,-0.0996 -0.34074,-0.18646 -0.0498,-0.0216 -0.12906,-0.0571 -0.17621,-0.0788 -0.0472,-0.0217 -0.12002,-0.0543 -0.16193,-0.0724 -0.0419,-0.0181 -0.11477,-0.0505 -0.16192,-0.072 -0.0471,-0.0215 -0.81905,-0.36145 -1.71534,-0.75546 l -1.62961,-0.71639 -1.92321,0.0766 c -1.51811,0.0604 -1.94328,0.0828 -2.01847,0.10616 -0.0524,0.0163 -0.16383,0.0499 -0.24765,0.0747 -0.0838,0.0248 -0.25527,0.0761 -0.381,0.11395 -0.12573,0.0379 -0.30146,0.0906 -0.39052,0.11705 -0.0891,0.0265 -0.18336,0.0557 -0.20955,0.0648 -0.0538,0.0188 -0.31734,0.0974 -0.47837,0.1426 -0.11835,0.0332 -0.24837,0.11408 -0.95026,0.59083 -0.26223,0.17811 -0.54842,0.37099 -0.63598,0.42862 -0.0876,0.0576 -0.32412,0.21622 -0.52569,0.35243 -0.20158,0.1362 -0.42474,0.28622 -0.49592,0.33337 -0.0712,0.0472 -0.29401,0.19717 -0.49518,0.33338 -0.43503,0.29455 -0.5723,0.38643 -0.77313,0.51752 -0.25408,0.16583 -0.28568,0.19426 -0.65252,0.58715 -0.19554,0.20942 -0.38553,0.41153 -0.4222,0.44914 -0.0367,0.0376 -0.17795,0.18773 -0.31394,0.33361 -0.24275,0.26037 -0.33782,0.36161 -0.65909,0.70183 -0.0883,0.0934 -0.1733,0.18374 -0.18902,0.20066 -0.31401,0.33802 -0.83052,0.88994 -0.96325,1.0293 -0.095,0.0997 -0.24052,0.25415 -0.32344,0.34321 -0.0829,0.0891 -0.15783,0.16699 -0.16646,0.17319 -0.009,0.006 -0.0541,0.16908 -0.10109,0.36195 -0.34639,1.42259 -0.37034,1.51067 -0.42645,1.56772 -0.10499,0.10678 -0.30072,0.0479 -0.33098,-0.0996 -0.006,-0.0294 0.0288,-0.21025 0.0831,-0.43162 0.27201,-1.1092 0.34269,-1.40275 0.34291,-1.42421 10e-4,-0.10407 0.17358,-0.30736 0.98184,-1.15707 0.0747,-0.0786 0.19999,-0.21145 0.27832,-0.29527 0.0783,-0.0838 0.29145,-0.311 0.47362,-0.50483 0.18216,-0.19383 0.38349,-0.40815 0.44738,-0.47625 0.0639,-0.0681 0.19286,-0.20543 0.2866,-0.30516 0.0937,-0.0997 0.28615,-0.30527 0.4276,-0.45675 0.14145,-0.15147 0.32286,-0.34419 0.40315,-0.42826 0.0803,-0.0841 0.16521,-0.17735 0.18872,-0.20728 0.0235,-0.0299 0.10279,-0.0942 0.17617,-0.14288 0.24771,-0.16422 0.38893,-0.25903 0.75596,-0.50754 0.41646,-0.28198 0.56355,-0.3805 0.76371,-0.51149 0.0776,-0.0508 0.15519,-0.10224 0.17233,-0.1143 0.0743,-0.0522 0.77384,-0.52496 0.89225,-0.60294 0.0716,-0.0471 0.29436,-0.19717 0.49503,-0.33337 0.38936,-0.26429 0.53817,-0.36391 0.76555,-0.51251 0.13862,-0.0906 0.14392,-0.0969 0.17627,-0.20955 0.0508,-0.17678 0.14524,-0.49126 0.16367,-0.54477 0.009,-0.0262 0.0822,-0.27051 0.16254,-0.54292 0.0804,-0.27242 0.17093,-0.57612 0.20125,-0.67489 0.0303,-0.0988 0.0531,-0.18125 0.0505,-0.18328 -0.003,-0.002 -0.13744,-0.0186 -0.29984,-0.0369 -0.1624,-0.0182 -0.46244,-0.0523 -0.66675,-0.0757 l -0.37148,-0.0425 -0.12425,0.11612 c -0.36674,0.34275 -0.48693,0.45468 -1.02827,0.95756 -0.20431,0.1898 -0.43148,0.41951 -0.50483,0.51048 -0.0733,0.091 -0.26193,0.32265 -0.4191,0.51486 -0.15716,0.1922 -0.40306,0.49375 -0.54644,0.6701 -0.14339,0.17634 -0.33594,0.41298 -0.42791,0.52586 -0.13052,0.16021 -0.18219,0.20972 -0.23551,0.2257 -0.0964,0.0289 -0.20125,-0.0163 -0.2372,-0.10238 -0.0154,-0.0369 -0.0408,-0.24975 -0.0607,-0.50892 l -0.0342,-0.44557 -0.66139,-0.79193 c -0.55593,-0.66566 -0.79004,-0.94525 -1.16693,-1.39363 l -0.0414,-0.0493 -0.60871,0.063 c -0.33479,0.0346 -0.62671,0.0632 -0.64871,0.0635 -0.033,4.3e-4 -0.0609,0.0479 -0.15952,0.27202 -0.0657,0.14931 -0.14918,0.33576 -0.18541,0.41434 -0.0908,0.19684 -0.13828,0.30112 -0.17797,0.39053 -0.0186,0.0419 -0.0596,0.13192 -0.0911,0.20002 -0.11124,0.24044 -0.9557,2.15619 -0.9557,2.16813 0,0.0101 -0.32554,0.77716 -0.40978,0.9656 -0.0141,0.0314 -0.10002,0.23288 -0.19103,0.44767 -0.37324,0.88085 -0.60457,1.42351 -0.63748,1.49543 -0.0192,0.0419 -0.0996,0.2281 -0.17874,0.41375 l -0.14386,0.33756 0.0384,0.17679 c 0.0744,0.3429 0.15303,0.71119 0.16986,0.79592 0.009,0.0471 0.0522,0.25289 0.0951,0.4572 0.0429,0.20431 0.0858,0.41005 0.0952,0.4572 0.009,0.0471 0.0522,0.25289 0.095,0.4572 0.0428,0.20431 0.0997,0.47863 0.12639,0.6096 0.0506,0.24778 0.0737,0.31902 0.86577,2.667 0.26332,0.78057 0.48306,1.43349 0.48831,1.45091 0.009,0.0292 0.22165,0.2285 0.75771,0.70941 0.11566,0.10375 0.21457,0.19378 0.21981,0.20005 0.005,0.006 0.0953,0.0883 0.20002,0.18222 0.10478,0.094 0.2463,0.22253 0.31449,0.28573 0.52072,0.48256 0.5407,0.49847 1.08275,0.8616 0.50849,0.34067 0.54847,0.3638 0.58396,0.33785 0.021,-0.0153 0.0595,-0.0381 0.0857,-0.0506 0.0262,-0.0125 0.29945,-0.23312 0.60723,-0.49025 1.36123,-1.13718 1.2283,-1.01885 1.2597,-1.12136 0.009,-0.028 0.0431,-0.12385 0.0767,-0.21291 0.0336,-0.0891 0.0894,-0.23908 0.124,-0.33337 0.0346,-0.0943 0.0901,-0.24432 0.12329,-0.33338 0.0332,-0.0891 0.0674,-0.18336 0.076,-0.20955 0.009,-0.0262 0.0385,-0.10763 0.0666,-0.18097 0.028,-0.0734 0.0855,-0.22765 0.12764,-0.3429 0.13032,-0.35606 0.14473,-0.39518 0.20702,-0.56198 0.0333,-0.0891 0.0888,-0.23908 0.12339,-0.33337 0.0346,-0.0943 0.0901,-0.24432 0.12329,-0.33338 0.0332,-0.0891 0.0674,-0.18336 0.076,-0.20955 0.009,-0.0262 0.0366,-0.10334 0.0622,-0.17145 0.12064,-0.32063 0.18263,-0.48907 0.1933,-0.52528 0.006,-0.0217 0.0368,-0.0636 0.0676,-0.0931 0.11115,-0.10648 0.30147,-0.0451 0.3319,0.10698 0.0109,0.0547 5e-4,0.0889 -0.16083,0.52568 -0.0203,0.055 -0.0549,0.1493 -0.0768,0.20955 -0.0219,0.0602 -0.0517,0.13954 -0.0662,0.17621 -0.0145,0.0367 -0.0699,0.18669 -0.12315,0.33338 -0.0533,0.14668 -0.11297,0.30956 -0.13269,0.36195 -0.0197,0.0524 -0.0927,0.24955 -0.16216,0.43815 -0.18448,0.50088 -0.19605,0.53235 -0.23973,0.65246 -0.0219,0.0602 -0.0517,0.13954 -0.0662,0.17621 -0.0145,0.0367 -0.0699,0.18669 -0.12316,0.33338 -0.0993,0.2734 -0.11118,0.30557 -0.24742,0.66841 l -0.0793,0.21122 -0.25896,0.21741 c -0.27879,0.23406 -0.58533,0.48929 -0.75301,0.62698 -0.24985,0.20518 -0.90812,0.76548 -1.00388,0.85449 -0.1059,0.0984 -0.22522,0.16302 -0.88583,0.47945 -0.58516,0.2803 -0.73072,0.35045 -1.00965,0.48662 l -0.28575,0.13949 -0.0505,0.12964 c -0.0951,0.2441 -0.21184,0.54872 -0.25413,0.66304 -0.0233,0.0629 -0.073,0.19574 -0.11043,0.29527 -0.0375,0.0995 -0.0729,0.20241 -0.0786,0.2286 -0.01,0.0457 0.0178,0.0618 0.69881,0.40224 0.39007,0.19504 0.71238,0.35578 0.71623,0.35719 0.004,10e-4 0.22246,-0.0233 0.48578,-0.0549 z m 15.67114,-8.52804 c -0.0157,-0.006 -0.0929,-0.0398 -0.17145,-0.0762 -0.0786,-0.0364 -0.17717,-0.0821 -0.21908,-0.10147 -0.0419,-0.0194 -0.16061,-0.0751 -0.26379,-0.12366 -0.10571,-0.0498 -0.20082,-0.0833 -0.2179,-0.0767 -0.027,0.0104 -0.19495,0.0469 -1.06274,0.23125 -0.27065,0.0575 -0.24138,0.0652 -0.57263,-0.15006 -0.11664,-0.0758 -0.26479,-0.17208 -0.32924,-0.21399 -0.0644,-0.0419 -0.18332,-0.12044 -0.26418,-0.17452 -0.0809,-0.0541 -0.22417,-0.1463 -0.31847,-0.20496 -0.26693,-0.16605 -0.37777,-0.24768 -0.4191,-0.3087 -0.0209,-0.0309 -0.17006,-0.45454 -0.33135,-0.94134 -0.1613,-0.4868 -0.29474,-0.88708 -0.29654,-0.88952 -0.002,-0.002 -0.17416,-0.0391 -0.38302,-0.0816 -1.7239,-0.35009 -1.73423,-0.35233 -1.78662,-0.38666 -0.0716,-0.0469 -0.10015,-0.15801 -0.0633,-0.24613 0.0323,-0.0772 0.079,-0.10647 0.29753,-0.18625 0.22957,-0.0838 0.76214,-0.28416 0.88693,-0.33368 0.0629,-0.0249 0.20003,-0.077 0.3048,-0.11569 0.10478,-0.0387 0.24622,-0.0913 0.31433,-0.11693 0.0681,-0.0256 0.14526,-0.0535 0.17145,-0.0619 0.0262,-0.008 0.12906,-0.0469 0.2286,-0.0854 0.31822,-0.12323 0.38614,-0.14123 0.6096,-0.16163 0.38641,-0.0353 1.03222,-0.0952 1.23569,-0.11476 0.26224,-0.0251 0.29225,-0.0111 0.51097,0.23978 0.0923,0.10589 0.2882,0.32877 0.43529,0.4953 0.70463,0.79779 0.82466,0.93999 0.84441,1.00032 0.0116,0.0354 0.0389,0.18447 0.0606,0.33116 0.0634,0.42789 0.18981,1.28789 0.20287,1.38005 0.0147,0.10341 0.0202,0.11137 0.6983,0.99877 0.079,0.10344 0.14893,0.21185 0.15531,0.24092 0.0309,0.1409 -0.12322,0.28129 -0.25725,0.23424 z m -1.86678,-1.65686 c 0.0562,-0.0473 0.0596,-0.0571 0.0508,-0.14764 -0.0119,-0.12293 -0.086,-0.44387 -0.11697,-0.50656 -0.0209,-0.0423 -0.0756,-0.20403 -0.12604,-0.37283 -0.01,-0.0322 -0.0175,-0.0725 -0.0175,-0.0897 0,-0.0276 -0.13098,-0.14462 -0.34063,-0.30443 -0.0379,-0.0289 -0.099,-0.079 -0.13562,-0.1114 -0.0367,-0.0324 -0.0973,-0.0745 -0.13463,-0.0937 -0.0374,-0.0192 -0.0791,-0.0483 -0.0928,-0.0648 -0.0137,-0.0165 -0.0357,-0.03 -0.0488,-0.03 -0.0284,0 -0.0667,0.13914 -0.0665,0.2418 0,0.0399 -0.0179,0.21565 -0.0399,0.39058 l -0.0401,0.31806 0.11253,0.19629 c 0.0619,0.10796 0.11804,0.21095 0.12476,0.22887 0.0152,0.0406 0.16149,0.14819 0.2026,0.14901 0.0168,2.8e-4 0.0471,0.0132 0.0675,0.0286 0.0203,0.0154 0.0484,0.028 0.0623,0.028 0.014,0 0.083,0.0273 0.15352,0.0607 0.19254,0.0912 0.27814,0.12756 0.30292,0.12874 0.0123,5.7e-4 0.0494,-0.0217 0.0826,-0.0496 z m -3.7306,-2.81284 c -0.025,-0.0266 -0.0414,-0.0687 -0.0414,-0.10607 0,-0.0613 0.0658,-0.16439 0.66418,-1.04046 0.0787,-0.11526 0.21222,-0.31242 0.29668,-0.43815 0.15112,-0.22497 0.15584,-0.22974 0.29644,-0.30004 0.32405,-0.16203 0.67988,-0.3231 0.73342,-0.33198 0.0314,-0.005 0.23718,0.0128 0.4572,0.0401 0.22003,0.0273 0.48149,0.0587 0.58103,0.0699 0.20023,0.0224 0.24985,0.0408 0.39295,0.14563 0.30011,0.21979 0.50132,0.36572 0.59587,0.43219 0.0586,0.0412 0.14659,0.10549 0.19552,0.14287 0.0489,0.0374 0.14537,0.1087 0.21431,0.15846 0.2442,0.17629 0.37738,0.27293 0.54474,0.39529 0.0931,0.0681 0.22332,0.1624 0.28927,0.20955 0.20887,0.14933 0.28194,0.22563 0.28194,0.29438 0,0.0787 -0.0672,0.14377 -0.14837,0.14377 -0.0528,0 -0.24031,-0.0649 -0.41361,-0.14318 -0.10589,-0.0478 -0.88628,-0.37117 -0.89583,-0.37117 -0.005,0 -0.0458,-0.0166 -0.0902,-0.0369 -0.0444,-0.0203 -0.13648,-0.0597 -0.20458,-0.0875 -0.0681,-0.0279 -0.14954,-0.062 -0.18098,-0.0759 -0.11601,-0.0513 -0.52386,-0.21875 -0.53276,-0.21875 -0.005,0 -0.063,-0.0242 -0.12875,-0.0539 -0.0657,-0.0296 -0.17097,-0.0742 -0.23384,-0.0991 -0.0629,-0.0249 -0.1348,-0.0558 -0.15986,-0.0686 -0.0368,-0.0189 -0.0534,-0.0183 -0.0862,0.003 -0.0224,0.0146 -0.21954,0.088 -0.43818,0.16295 -0.31531,0.10813 -0.41764,0.15186 -0.4948,0.21145 -0.10294,0.0795 -0.34773,0.26482 -0.43507,0.32936 -0.0286,0.0211 -0.1572,0.11916 -0.28575,0.21779 -0.59632,0.45756 -0.59818,0.45884 -0.66656,0.45884 -0.0437,0 -0.0791,-0.0146 -0.10675,-0.0441 z"
       id="path179" /></g></svg>
