<?xml version="1.0" encoding="UTF-8" standalone="no"?>
<!-- Created with Inkscape (http://www.inkscape.org/) -->

<svg
   width="48"
   height="48"
   viewBox="0 0 12.7 12.7"
   version="1.1"
   id="svg5"
   xml:space="preserve"
   inkscape:version="1.2.2 (b0a8486541, 2022-12-01)"
   sodipodi:docname="test.svg"
   inkscape:export-filename="finished/48x48.png"
   inkscape:export-xdpi="96"
   inkscape:export-ydpi="96"
   xmlns:inkscape="http://www.inkscape.org/namespaces/inkscape"
   xmlns:sodipodi="http://sodipodi.sourceforge.net/DTD/sodipodi-0.dtd"
   xmlns="http://www.w3.org/2000/svg"
   xmlns:svg="http://www.w3.org/2000/svg"><sodipodi:namedview
     id="namedview7"
     pagecolor="#ffffff"
     bordercolor="#000000"
     borderopacity="0.25"
     inkscape:showpageshadow="2"
     inkscape:pageopacity="0.0"
     inkscape:pagecheckerboard="0"
     inkscape:deskcolor="#d1d1d1"
     inkscape:document-units="mm"
     showgrid="false"
     inkscape:lockguides="true"
     inkscape:zoom="0.35355339"
     inkscape:cx="694.37886"
     inkscape:cy="1144.0988"
     inkscape:window-width="1920"
     inkscape:window-height="1020"
     inkscape:window-x="0"
     inkscape:window-y="0"
     inkscape:window-maximized="1"
     inkscape:current-layer="layer1" /><defs
     id="defs2" /><g
     inkscape:label="Layer 1"
     inkscape:groupmode="layer"
     id="layer1"
     transform="translate(271.46249,218.81041)"><path
       style="fill:#05243c;fill-opacity:1;stroke-width:0.00507999"
       d="m -267.44414,-209.5927 c -0.007,-0.002 -0.28468,-0.14101 -0.41796,-0.20839 -0.0693,-0.0351 -0.0766,-0.0558 -0.0469,-0.13353 0.0101,-0.0265 0.0273,-0.0723 0.0382,-0.1016 0.0109,-0.0293 0.0277,-0.0739 0.0375,-0.0991 0.01,-0.0251 0.0294,-0.0764 0.0437,-0.11382 0.0282,-0.074 0.0401,-0.0945 0.0574,-0.0999 0.006,-0.002 0.0433,-0.0189 0.0824,-0.0378 0.0391,-0.0189 0.10084,-0.0486 0.13716,-0.066 0.11581,-0.0555 0.22302,-0.10731 0.23943,-0.11559 l 0.0159,-0.008 -0.0134,-0.0111 c -0.007,-0.006 -0.0294,-0.021 -0.0489,-0.033 -0.0196,-0.0121 -0.0401,-0.0259 -0.0457,-0.0307 -0.006,-0.005 -0.0307,-0.0218 -0.0559,-0.0377 -0.0907,-0.0575 -0.10138,-0.0661 -0.23099,-0.18592 -0.035,-0.0324 -0.0901,-0.0827 -0.12253,-0.11176 -0.12429,-0.1117 -0.25725,-0.23275 -0.28461,-0.25911 l -0.0285,-0.0275 -0.0336,-0.1016 c -0.0184,-0.0559 -0.0933,-0.27876 -0.16635,-0.4953 -0.15907,-0.47159 -0.16004,-0.47457 -0.17019,-0.52304 -0.004,-0.0211 -0.0147,-0.0703 -0.0229,-0.10942 -0.008,-0.0391 -0.0194,-0.0928 -0.0248,-0.11938 -0.005,-0.0265 -0.0169,-0.0814 -0.0254,-0.12192 -0.009,-0.0405 -0.0199,-0.0954 -0.0254,-0.12192 -0.005,-0.0265 -0.0169,-0.0814 -0.0254,-0.12192 -0.009,-0.0405 -0.0177,-0.084 -0.0203,-0.0965 -0.003,-0.0126 -0.008,-0.0389 -0.0127,-0.0584 -0.0154,-0.0695 -0.0178,-0.085 -0.0147,-0.0983 0.003,-0.0141 0.0535,-0.13405 0.14212,-0.33946 0.0291,-0.0675 0.0562,-0.13182 0.06,-0.14284 0.004,-0.011 0.009,-0.0243 0.0124,-0.0296 0.003,-0.005 0.025,-0.0564 0.049,-0.1137 0.024,-0.0573 0.0468,-0.111 0.0507,-0.11938 0.0152,-0.033 0.11436,-0.26564 0.11436,-0.26818 0,-0.002 0.22268,-0.50738 0.25251,-0.57256 0.007,-0.0154 0.0171,-0.0376 0.0224,-0.0495 0.0139,-0.0314 0.0285,-0.0643 0.0395,-0.0889 0.005,-0.0119 0.0197,-0.0433 0.0321,-0.0698 0.0124,-0.0265 0.0349,-0.0766 0.0501,-0.11118 0.0165,-0.0377 0.0321,-0.0659 0.0388,-0.0703 0.0142,-0.009 0.0404,-0.0129 0.25956,-0.0348 0.1468,-0.0147 0.18257,-0.0169 0.19718,-0.0121 0.0146,0.005 0.0458,0.0393 0.17118,0.18896 0.0843,0.10069 0.20341,0.24277 0.26459,0.31573 0.0612,0.073 0.11536,0.14185 0.12038,0.1531 0.005,0.012 0.0106,0.0403 0.0126,0.0686 0.002,0.0265 0.005,0.051 0.007,0.0545 0.002,0.004 0.0209,-0.0152 0.0514,-0.0526 0.0622,-0.0763 0.15681,-0.19244 0.24616,-0.30195 0.0391,-0.0479 0.078,-0.0929 0.0864,-0.0999 0.008,-0.007 0.0371,-0.0336 0.0638,-0.0592 0.054,-0.0516 0.0713,-0.0678 0.17753,-0.16565 0.0405,-0.0373 0.0925,-0.0859 0.11561,-0.10797 0.0231,-0.0221 0.0523,-0.0447 0.0649,-0.0503 l 0.0229,-0.0102 0.0875,0.0103 c 0.0481,0.006 0.1298,0.0151 0.18149,0.0209 0.20341,0.0228 0.21256,0.0252 0.22682,0.0593 0.008,0.0195 0.006,0.0276 -0.0947,0.35965 -0.0491,0.16183 -0.061,0.20202 -0.061,0.20582 0,0.004 0.027,-0.003 0.10922,-0.0281 0.0251,-0.008 0.0594,-0.0179 0.0762,-0.0228 0.0168,-0.005 0.0799,-0.024 0.14024,-0.0423 l 0.10975,-0.0333 0.52341,-0.0207 c 0.28788,-0.0114 0.52767,-0.0191 0.53287,-0.0173 0.005,0.002 0.20562,0.0899 0.44538,0.19564 0.23975,0.10571 0.43734,0.19221 0.43908,0.19221 0.002,0 0.013,0.005 0.0251,0.0102 0.0121,0.006 0.0322,0.0147 0.0448,0.0203 0.0126,0.006 0.0326,0.0146 0.0445,0.0199 0.0119,0.005 0.0353,0.0155 0.0521,0.0224 0.049,0.0204 0.0965,0.0488 0.13855,0.0829 0.0216,0.0175 0.0616,0.0496 0.0889,0.0714 0.0273,0.0218 0.0639,0.051 0.0813,0.065 0.0174,0.014 0.0453,0.0357 0.0621,0.0483 0.0168,0.0125 0.0502,0.0388 0.0743,0.0583 0.0241,0.0196 0.0626,0.0504 0.0856,0.0686 0.023,0.0182 0.0562,0.0444 0.0738,0.0584 0.0176,0.014 0.0427,0.0334 0.0557,0.0432 0.0592,0.0444 0.0589,0.044 0.11198,0.18288 0.0101,0.0265 0.0329,0.0848 0.0507,0.12954 0.0177,0.0447 0.0405,0.103 0.0506,0.12954 0.0101,0.0265 0.0251,0.0643 0.0332,0.0838 0.008,0.0196 0.0231,0.0573 0.0332,0.0838 0.0101,0.0265 0.0329,0.0848 0.0506,0.12954 0.0177,0.0447 0.0405,0.103 0.0506,0.12954 0.0101,0.0265 0.0251,0.0643 0.0332,0.0838 0.008,0.0196 0.029,0.0721 0.0462,0.11684 0.0173,0.0447 0.0412,0.10562 0.0532,0.13536 0.012,0.0297 0.0254,0.0709 0.0297,0.0914 0.004,0.0206 0.0103,0.0461 0.0134,0.0568 0.003,0.0107 0.009,0.0335 0.0124,0.0508 0.004,0.0172 0.0359,0.15137 0.0713,0.29805 0.0354,0.14669 0.0665,0.27694 0.069,0.28945 0.003,0.0125 0.009,0.0399 0.0144,0.061 0.0352,0.13815 0.0466,0.19324 0.0428,0.20573 -0.004,0.0132 -0.0667,0.11886 -0.0784,0.1322 -0.005,0.006 -0.0356,0.0547 -0.0683,0.10922 -0.0326,0.0545 -0.0634,0.10363 -0.0683,0.10922 -0.005,0.006 -0.0287,0.0433 -0.0528,0.0838 l -0.0438,0.0737 -0.34425,0.34377 c -0.3212,0.32076 -0.34594,0.34428 -0.36964,0.35141 -0.014,0.004 -0.0688,0.0229 -0.12192,0.0415 -0.0531,0.0186 -0.10566,0.0369 -0.11684,0.0406 -0.0363,0.0121 -0.23835,0.0826 -0.25328,0.0884 -0.008,0.003 -0.0491,0.0124 -0.0914,0.0207 -0.0423,0.008 -0.0884,0.0174 -0.10232,0.0203 -0.029,0.006 -0.13416,0.0264 -0.27432,0.0531 -0.0531,0.0101 -0.10566,0.0205 -0.11684,0.0231 -0.0112,0.003 -0.0637,0.0129 -0.11684,0.0229 -0.0531,0.01 -0.11709,0.0226 -0.14224,0.0279 -0.0251,0.005 -0.0892,0.0179 -0.14224,0.0279 -0.0531,0.01 -0.10566,0.0203 -0.11684,0.0229 -0.0112,0.003 -0.0584,0.012 -0.10492,0.0209 l -0.0846,0.0162 -0.0201,-0.01 c -0.02,-0.01 -0.0233,-0.01 -0.63592,0.004 l -0.61582,0.014 -0.0974,0.0326 c -0.11373,0.0381 -0.6609,0.2182 -0.74252,0.24434 -0.0371,0.0119 -0.0781,0.0205 -0.12192,0.0257 -0.0363,0.004 -0.0958,0.0113 -0.13208,0.0155 -0.0363,0.004 -0.14033,0.0167 -0.23114,0.0277 -0.0908,0.011 -0.18453,0.0222 -0.20828,0.0249 -0.0238,0.003 -0.0827,0.01 -0.1311,0.0154 -0.0943,0.0111 -0.0912,0.0109 -0.10258,0.007 z m 0.14919,-0.12357 c 0.14561,-0.0175 0.22934,-0.0276 0.31309,-0.0378 0.0321,-0.004 0.13157,-0.0155 0.22098,-0.0256 0.0949,-0.0108 0.17632,-0.0227 0.19558,-0.0285 0.0182,-0.005 0.1679,-0.0544 0.33274,-0.10869 0.16485,-0.0543 0.34544,-0.11372 0.40132,-0.13208 0.0833,-0.0274 0.1048,-0.0364 0.11938,-0.0502 0.01,-0.009 0.1458,-0.0929 0.30226,-0.18589 0.15647,-0.093 0.32063,-0.191 0.36482,-0.21786 0.32636,-0.19838 0.72948,-0.43805 0.75111,-0.44657 0.0169,-0.007 0.0204,-0.006 0.0381,0.002 0.0148,0.007 0.0212,0.0145 0.0266,0.0303 0.007,0.0188 0.006,0.0225 -0.003,0.0404 -0.009,0.0178 -0.0256,0.0292 -0.17255,0.11642 -0.0896,0.0532 -0.28958,0.17196 -0.4445,0.26395 -0.15491,0.092 -0.28623,0.17105 -0.29182,0.17569 -0.006,0.005 -0.0886,0.0551 -0.18446,0.11216 l -0.1743,0.1037 0.0295,0.001 c 0.0162,8.1e-4 0.27695,-0.004 0.57937,-0.0113 0.30242,-0.007 0.55307,-0.0115 0.557,-0.01 0.006,0.002 0.10983,-0.0166 0.33587,-0.0614 0.0335,-0.007 0.13297,-0.026 0.22098,-0.043 0.088,-0.017 0.17602,-0.0342 0.19558,-0.0382 0.0196,-0.004 0.11329,-0.0223 0.20828,-0.0406 0.21459,-0.0414 0.20411,-0.0387 0.34798,-0.0888 0.0657,-0.0229 0.13538,-0.047 0.15494,-0.0536 0.0196,-0.007 0.0756,-0.0259 0.12446,-0.0429 l 0.0889,-0.0308 0.13462,-0.13502 c 0.074,-0.0743 0.13005,-0.13374 0.12446,-0.13217 -0.006,0.002 -0.13315,0.0306 -0.28347,0.0644 l -0.27332,0.0616 -0.65229,-0.19347 c -0.51826,-0.15371 -0.65812,-0.19346 -0.68069,-0.19346 -0.0241,0 -0.0998,-0.0102 -0.26161,-0.0352 -0.0182,-0.003 -0.089,-0.0133 -0.15748,-0.0233 -0.18419,-0.0269 -0.39374,-0.0578 -0.43534,-0.0642 -0.0436,-0.007 -0.0564,-0.0175 -0.0633,-0.0535 -0.004,-0.0226 -0.0292,-0.16269 -0.0655,-0.3691 -0.008,-0.0471 -0.015,-0.0918 -0.015,-0.0994 0,-0.0218 0.0102,-0.0289 0.13462,-0.0945 0.0251,-0.0132 0.0571,-0.0303 0.0711,-0.0379 0.014,-0.008 0.0437,-0.0236 0.066,-0.0356 0.0224,-0.012 0.0498,-0.0268 0.061,-0.0329 0.13358,-0.073 0.17582,-0.0941 0.18874,-0.0941 0.008,0 0.0274,0.003 0.0426,0.007 0.0284,0.007 0.40471,0.098 0.57384,0.13813 0.19375,0.046 0.18095,0.0415 0.32832,0.11656 0.0751,0.0383 0.15708,0.0804 0.18222,0.0937 0.0251,0.0133 0.0914,0.0476 0.14732,0.0762 0.26108,0.13369 0.31024,0.1591 0.31512,0.16293 0.004,0.003 0.38306,0.11354 0.64404,0.18742 l 0.0498,0.0141 0.13558,-0.0478 c 0.0746,-0.0263 0.20416,-0.072 0.28798,-0.10157 0.0838,-0.0296 0.16501,-0.0582 0.18042,-0.0635 0.0268,-0.009 0.0293,-0.0118 0.0584,-0.0579 0.0892,-0.1412 0.10846,-0.17311 0.10878,-0.18064 2.9e-4,-0.007 -0.17112,-0.73272 -0.20009,-0.84772 -0.004,-0.0154 -0.0108,-0.0439 -0.0154,-0.0635 -0.005,-0.0196 -0.0165,-0.0561 -0.0264,-0.0813 -0.01,-0.0251 -0.0232,-0.0594 -0.0296,-0.0762 -0.006,-0.0168 -0.0207,-0.0533 -0.0318,-0.0813 -0.0294,-0.074 -0.0519,-0.13131 -0.0901,-0.2286 -0.0186,-0.0475 -0.043,-0.10922 -0.0541,-0.13716 -0.0112,-0.0279 -0.0255,-0.0645 -0.032,-0.0813 -0.006,-0.0168 -0.0198,-0.0511 -0.0297,-0.0762 -0.01,-0.0251 -0.0333,-0.0846 -0.0519,-0.13208 -0.0186,-0.0475 -0.0425,-0.10807 -0.0531,-0.13462 -0.0106,-0.0265 -0.0278,-0.07 -0.0382,-0.0965 -0.0104,-0.0265 -0.0223,-0.0564 -0.0264,-0.0664 -0.004,-0.0104 -0.0185,-0.0267 -0.033,-0.0381 -0.014,-0.0109 -0.0399,-0.0313 -0.0574,-0.0453 -0.0175,-0.014 -0.0495,-0.0391 -0.0711,-0.0559 -0.0215,-0.0168 -0.0548,-0.043 -0.0738,-0.0584 -0.019,-0.0154 -0.0522,-0.0417 -0.0738,-0.0584 -0.0216,-0.0168 -0.0535,-0.0419 -0.0711,-0.0559 -0.0175,-0.014 -0.0667,-0.0528 -0.10918,-0.0864 -0.0425,-0.0335 -0.0879,-0.0696 -0.10086,-0.0801 -0.0226,-0.0184 -0.0375,-0.0266 -0.0909,-0.0497 -0.0133,-0.006 -0.0344,-0.0152 -0.047,-0.021 -0.0126,-0.006 -0.032,-0.0145 -0.0432,-0.0193 -0.0112,-0.005 -0.0306,-0.0135 -0.0432,-0.0192 -0.0126,-0.006 -0.21841,-0.0964 -0.45742,-0.20146 l -0.43456,-0.19104 -0.51286,0.0204 c -0.40483,0.0161 -0.51821,0.0221 -0.53826,0.0283 -0.014,0.004 -0.0437,0.0133 -0.066,0.0199 -0.0223,0.007 -0.0681,0.0203 -0.1016,0.0304 -0.0335,0.0101 -0.0804,0.0242 -0.10414,0.0312 -0.0238,0.007 -0.0489,0.0149 -0.0559,0.0173 -0.0143,0.005 -0.0846,0.026 -0.12756,0.038 -0.0316,0.009 -0.0662,0.0304 -0.25341,0.15755 -0.0699,0.0475 -0.14624,0.0989 -0.16959,0.1143 -0.0233,0.0154 -0.0864,0.0577 -0.14019,0.094 -0.0537,0.0363 -0.11326,0.0763 -0.13224,0.0889 -0.019,0.0126 -0.0784,0.0526 -0.13205,0.0889 -0.11601,0.0786 -0.15261,0.10305 -0.20617,0.13801 -0.0677,0.0442 -0.0762,0.0518 -0.174,0.15657 -0.0521,0.0559 -0.10281,0.10974 -0.11259,0.11977 -0.01,0.01 -0.0475,0.0501 -0.0837,0.089 -0.0647,0.0694 -0.0901,0.0964 -0.17575,0.18716 -0.0235,0.0249 -0.0462,0.049 -0.0504,0.0535 -0.0837,0.0901 -0.22147,0.23732 -0.25686,0.27448 -0.0253,0.0266 -0.0641,0.0678 -0.0863,0.0915 -0.0221,0.0238 -0.0421,0.0445 -0.0444,0.0462 -0.002,0.002 -0.0144,0.0451 -0.027,0.0965 -0.0924,0.37935 -0.0988,0.40284 -0.11372,0.41805 -0.028,0.0285 -0.0802,0.0128 -0.0883,-0.0266 -0.002,-0.008 0.008,-0.0561 0.0221,-0.1151 0.0725,-0.29579 0.0914,-0.37407 0.0915,-0.37979 2.9e-4,-0.0277 0.0463,-0.082 0.26182,-0.30855 0.0199,-0.021 0.0533,-0.0564 0.0742,-0.0787 0.0209,-0.0223 0.0777,-0.0829 0.1263,-0.13462 0.0486,-0.0517 0.10226,-0.10884 0.1193,-0.127 0.017,-0.0182 0.0514,-0.0548 0.0764,-0.0814 0.025,-0.0266 0.0763,-0.0814 0.11402,-0.12179 0.0377,-0.0404 0.0861,-0.0918 0.10751,-0.11421 0.0214,-0.0224 0.0441,-0.0473 0.0503,-0.0553 0.006,-0.008 0.0274,-0.0251 0.047,-0.0381 0.0661,-0.0438 0.10372,-0.0691 0.20159,-0.13535 0.11106,-0.0752 0.15028,-0.10146 0.20366,-0.13639 0.0207,-0.0136 0.0414,-0.0273 0.046,-0.0305 0.0198,-0.0139 0.20636,-0.13999 0.23794,-0.16079 0.0191,-0.0126 0.0785,-0.0526 0.132,-0.0889 0.10383,-0.0705 0.14352,-0.097 0.20415,-0.13667 0.037,-0.0242 0.0384,-0.0258 0.047,-0.0559 0.0135,-0.0471 0.0387,-0.131 0.0436,-0.14527 0.002,-0.007 0.0219,-0.0721 0.0434,-0.14478 0.0214,-0.0726 0.0456,-0.15363 0.0537,-0.17997 0.008,-0.0263 0.0141,-0.0483 0.0135,-0.0489 -6.7e-4,-5.5e-4 -0.0367,-0.005 -0.08,-0.01 -0.0433,-0.005 -0.12332,-0.0139 -0.1778,-0.0202 l -0.0991,-0.0113 -0.0331,0.031 c -0.0978,0.0914 -0.12985,0.12125 -0.27421,0.25535 -0.0545,0.0506 -0.11506,0.11187 -0.13462,0.13613 -0.0196,0.0243 -0.0698,0.086 -0.11176,0.1373 -0.0419,0.0513 -0.10748,0.13166 -0.14572,0.17869 -0.0382,0.047 -0.0896,0.11013 -0.1141,0.14023 -0.0348,0.0427 -0.0486,0.0559 -0.0628,0.0602 -0.0257,0.008 -0.0537,-0.004 -0.0632,-0.0273 -0.004,-0.01 -0.0109,-0.0666 -0.0162,-0.13571 l -0.009,-0.11882 -0.17637,-0.21118 c -0.14825,-0.17751 -0.21068,-0.25206 -0.31118,-0.37163 l -0.011,-0.0131 -0.16232,0.0168 c -0.0893,0.009 -0.16713,0.0169 -0.17299,0.0169 -0.009,1.2e-4 -0.0162,0.0128 -0.0425,0.0725 -0.0175,0.0398 -0.0398,0.0895 -0.0494,0.11049 -0.0242,0.0525 -0.0369,0.0803 -0.0475,0.10414 -0.005,0.0112 -0.0159,0.0352 -0.0243,0.0533 -0.0297,0.0641 -0.25486,0.57498 -0.25486,0.57817 0,0.003 -0.0868,0.20724 -0.10927,0.25749 -0.004,0.008 -0.0267,0.0621 -0.0509,0.11938 -0.0995,0.23489 -0.16122,0.3796 -0.17,0.39878 -0.005,0.0112 -0.0266,0.0608 -0.0477,0.11034 l -0.0384,0.09 0.0102,0.0471 c 0.0199,0.0914 0.0408,0.18965 0.0453,0.21224 0.002,0.0126 0.0139,0.0674 0.0254,0.12192 0.0114,0.0545 0.0229,0.10935 0.0254,0.12192 0.003,0.0126 0.0139,0.0674 0.0253,0.12192 0.0114,0.0545 0.0266,0.12764 0.0337,0.16256 0.0135,0.0661 0.0197,0.0851 0.23087,0.7112 0.0702,0.20815 0.12882,0.38226 0.13022,0.38691 0.002,0.008 0.0591,0.0609 0.20206,0.18918 0.0308,0.0277 0.0572,0.0517 0.0586,0.0533 10e-4,0.002 0.0254,0.0235 0.0533,0.0486 0.0279,0.025 0.0657,0.0593 0.0839,0.0762 0.13885,0.12868 0.14418,0.13292 0.28873,0.22976 0.1356,0.0908 0.14626,0.097 0.15572,0.0901 0.006,-0.004 0.0159,-0.0102 0.0229,-0.0135 0.007,-0.003 0.0798,-0.0622 0.16193,-0.13073 0.36299,-0.30325 0.32755,-0.2717 0.33592,-0.29903 0.002,-0.007 0.0115,-0.033 0.0205,-0.0568 0.009,-0.0238 0.0238,-0.0638 0.0331,-0.0889 0.009,-0.0251 0.024,-0.0652 0.0329,-0.0889 0.009,-0.0238 0.018,-0.0489 0.0203,-0.0559 0.002,-0.007 0.0103,-0.0287 0.0178,-0.0483 0.007,-0.0196 0.0228,-0.0607 0.034,-0.0914 0.0348,-0.095 0.0386,-0.10538 0.0552,-0.14986 0.009,-0.0237 0.0237,-0.0637 0.0329,-0.0889 0.009,-0.0251 0.024,-0.0652 0.0329,-0.0889 0.009,-0.0238 0.018,-0.0489 0.0203,-0.0559 0.002,-0.007 0.01,-0.0276 0.0166,-0.0457 0.0322,-0.0855 0.0487,-0.13042 0.0515,-0.14007 0.002,-0.006 0.01,-0.017 0.018,-0.0248 0.0296,-0.0284 0.0804,-0.012 0.0885,0.0285 0.003,0.0146 1.3e-4,0.0237 -0.0429,0.14018 -0.005,0.0147 -0.0146,0.0398 -0.0205,0.0559 -0.006,0.0161 -0.0138,0.0372 -0.0177,0.047 -0.004,0.01 -0.0186,0.0498 -0.0328,0.0889 -0.0142,0.0391 -0.0301,0.0825 -0.0354,0.0965 -0.005,0.014 -0.0247,0.0665 -0.0432,0.11684 -0.0492,0.13357 -0.0523,0.14196 -0.0639,0.17399 -0.006,0.0161 -0.0138,0.0372 -0.0177,0.047 -0.004,0.01 -0.0186,0.0498 -0.0328,0.0889 -0.0265,0.0729 -0.0296,0.0815 -0.066,0.17825 l -0.0212,0.0563 -0.0691,0.058 c -0.0743,0.0624 -0.15609,0.13048 -0.2008,0.1672 -0.0666,0.0547 -0.24217,0.20413 -0.26771,0.22787 -0.0282,0.0262 -0.0601,0.0435 -0.23622,0.12785 -0.15604,0.0747 -0.19486,0.0935 -0.26924,0.12976 l -0.0762,0.0372 -0.0135,0.0346 c -0.0254,0.0651 -0.0565,0.14633 -0.0678,0.17681 -0.006,0.0168 -0.0195,0.0522 -0.0294,0.0787 -0.01,0.0265 -0.0194,0.054 -0.021,0.061 -0.003,0.0122 0.005,0.0165 0.18635,0.10726 0.10402,0.052 0.18996,0.0949 0.19099,0.0952 10e-4,3.8e-4 0.0593,-0.006 0.12954,-0.0146 z m 4.17897,-2.27415 c -0.004,-0.001 -0.0248,-0.0106 -0.0457,-0.0203 -0.0209,-0.01 -0.0472,-0.0219 -0.0584,-0.0271 -0.0112,-0.005 -0.0428,-0.02 -0.0703,-0.033 -0.0282,-0.0133 -0.0536,-0.0222 -0.0581,-0.0204 -0.007,0.003 -0.052,0.0125 -0.2834,0.0617 -0.0722,0.0153 -0.0644,0.0174 -0.1527,-0.04 -0.0311,-0.0202 -0.0706,-0.0459 -0.0878,-0.0571 -0.0172,-0.0112 -0.0489,-0.0321 -0.0704,-0.0465 -0.0216,-0.0144 -0.0598,-0.039 -0.0849,-0.0547 -0.0712,-0.0443 -0.10074,-0.066 -0.11176,-0.0823 -0.006,-0.008 -0.0453,-0.12121 -0.0884,-0.25103 -0.043,-0.12981 -0.0786,-0.23655 -0.0791,-0.2372 -4.8e-4,-6.5e-4 -0.0464,-0.0104 -0.10213,-0.0217 -0.45971,-0.0934 -0.46247,-0.094 -0.47644,-0.10311 -0.0191,-0.0125 -0.0267,-0.0421 -0.0169,-0.0656 0.009,-0.0206 0.0211,-0.0284 0.0793,-0.0497 0.0612,-0.0224 0.20324,-0.0758 0.23652,-0.089 0.0168,-0.007 0.0533,-0.0205 0.0813,-0.0308 0.0279,-0.0103 0.0657,-0.0244 0.0838,-0.0312 0.0182,-0.007 0.0387,-0.0143 0.0457,-0.0165 0.007,-0.002 0.0344,-0.0125 0.061,-0.0228 0.0849,-0.0329 0.10297,-0.0377 0.16256,-0.0431 0.10304,-0.009 0.27526,-0.0254 0.32952,-0.0306 0.0699,-0.007 0.0779,-0.003 0.13626,0.0639 0.0246,0.0282 0.0768,0.0877 0.11607,0.13208 0.18791,0.21274 0.21992,0.25066 0.22518,0.26675 0.003,0.009 0.0104,0.0492 0.0162,0.0883 0.0169,0.11411 0.0506,0.34344 0.0541,0.36801 0.004,0.0276 0.005,0.0297 0.18621,0.26634 0.0211,0.0276 0.0397,0.0565 0.0414,0.0643 0.008,0.0376 -0.0329,0.075 -0.0686,0.0625 z m -0.49781,-0.44183 c 0.015,-0.0126 0.0159,-0.0152 0.0136,-0.0394 -0.003,-0.0328 -0.0229,-0.11836 -0.0312,-0.13508 -0.006,-0.0113 -0.0202,-0.0544 -0.0336,-0.0994 -0.003,-0.009 -0.005,-0.0193 -0.005,-0.0239 0,-0.007 -0.0349,-0.0386 -0.0908,-0.0812 -0.0101,-0.008 -0.0264,-0.0211 -0.0362,-0.0297 -0.01,-0.009 -0.0259,-0.0199 -0.0359,-0.025 -0.01,-0.005 -0.0211,-0.0129 -0.0248,-0.0173 -0.004,-0.004 -0.01,-0.008 -0.013,-0.008 -0.008,0 -0.0178,0.0371 -0.0177,0.0645 0,0.0106 -0.005,0.0575 -0.0106,0.10416 l -0.0107,0.0848 0.03,0.0524 c 0.0165,0.0288 0.0315,0.0562 0.0333,0.061 0.004,0.0108 0.0431,0.0395 0.054,0.0397 0.004,8e-5 0.0126,0.004 0.018,0.008 0.005,0.004 0.0129,0.007 0.0166,0.007 0.004,0 0.0221,0.007 0.0409,0.0162 0.0514,0.0243 0.0742,0.034 0.0808,0.0343 0.003,1.5e-4 0.0132,-0.006 0.022,-0.0132 z m -0.99482,-0.75009 c -0.007,-0.007 -0.0111,-0.0183 -0.0111,-0.0283 0,-0.0163 0.0176,-0.0438 0.17712,-0.27746 0.021,-0.0307 0.0566,-0.0833 0.0791,-0.11684 0.0403,-0.06 0.0416,-0.0613 0.0791,-0.08 0.0864,-0.0432 0.1813,-0.0862 0.19558,-0.0885 0.008,-0.001 0.0633,0.003 0.12192,0.0107 0.0587,0.007 0.1284,0.0157 0.15494,0.0186 0.0534,0.006 0.0666,0.0109 0.10479,0.0388 0.08,0.0586 0.13368,0.0975 0.1589,0.11524 0.0156,0.011 0.0391,0.0281 0.0521,0.0381 0.013,0.01 0.0388,0.029 0.0571,0.0423 0.0651,0.047 0.10064,0.0728 0.14527,0.10541 0.0248,0.0182 0.0596,0.0433 0.0771,0.0559 0.0557,0.0398 0.0752,0.0602 0.0752,0.0785 0,0.021 -0.0179,0.0383 -0.0396,0.0383 -0.0141,0 -0.0641,-0.0173 -0.1103,-0.0382 -0.0282,-0.0128 -0.23634,-0.099 -0.23889,-0.099 -10e-4,0 -0.0122,-0.004 -0.024,-0.01 -0.0118,-0.005 -0.0364,-0.0159 -0.0546,-0.0233 -0.0182,-0.007 -0.0399,-0.0165 -0.0483,-0.0202 -0.0309,-0.0137 -0.1397,-0.0583 -0.14207,-0.0583 -0.001,0 -0.0168,-0.006 -0.0343,-0.0144 -0.0175,-0.008 -0.0456,-0.0198 -0.0624,-0.0264 -0.0168,-0.007 -0.0359,-0.0149 -0.0426,-0.0183 -0.01,-0.005 -0.0142,-0.005 -0.023,8.8e-4 -0.006,0.004 -0.0586,0.0235 -0.11685,0.0435 -0.0841,0.0288 -0.11137,0.0405 -0.13195,0.0564 -0.0274,0.0212 -0.0927,0.0706 -0.11602,0.0878 -0.008,0.006 -0.0419,0.0318 -0.0762,0.0581 -0.15901,0.12202 -0.15951,0.12236 -0.17775,0.12236 -0.0116,0 -0.0211,-0.004 -0.0285,-0.0118 z"
       id="path179" /></g></svg>
