<?xml version="1.0" encoding="UTF-8" standalone="no"?>
<!-- Created with Inkscape (http://www.inkscape.org/) -->

<svg
   width="1000.0002"
   height="1000.0002"
   viewBox="0 0 264.58335 264.58335"
   version="1.1"
   id="svg5"
   xml:space="preserve"
   inkscape:version="1.2.2 (b0a8486541, 2022-12-01)"
   sodipodi:docname="1000x1000.svg"
   inkscape:export-filename="finished/1000x1000.png"
   inkscape:export-xdpi="96"
   inkscape:export-ydpi="96"
   xmlns:inkscape="http://www.inkscape.org/namespaces/inkscape"
   xmlns:sodipodi="http://sodipodi.sourceforge.net/DTD/sodipodi-0.dtd"
   xmlns="http://www.w3.org/2000/svg"
   xmlns:svg="http://www.w3.org/2000/svg"><sodipodi:namedview
     id="namedview7"
     pagecolor="#ffffff"
     bordercolor="#000000"
     borderopacity="0.25"
     inkscape:showpageshadow="2"
     inkscape:pageopacity="0.0"
     inkscape:pagecheckerboard="0"
     inkscape:deskcolor="#d1d1d1"
     inkscape:document-units="mm"
     showgrid="false"
     inkscape:lockguides="false"
     inkscape:zoom="0.35355339"
     inkscape:cx="694.37886"
     inkscape:cy="1144.0988"
     inkscape:window-width="1920"
     inkscape:window-height="1020"
     inkscape:window-x="0"
     inkscape:window-y="0"
     inkscape:window-maximized="1"
     inkscape:current-layer="layer1" /><defs
     id="defs2" /><g
     inkscape:label="Layer 1"
     inkscape:groupmode="layer"
     id="layer1"
     transform="translate(271.46249,218.81041)"><path
       id="path184"
       style="fill:#ffffff;stroke-width:0.5"
       transform="matrix(0.26458333,0,0,0.26458333,-271.46249,-218.81041)"
       d="m 439.47656,280.73047 a 2.523691,2.523691 0 0 0 -2.01172,0.66601 l -14.0957,13.19141 c -7.76682,7.26895 -15.5771,14.7398 -17.7168,16.98047 -2.27943,2.38701 -10.02413,11.69903 -17.83789,21.34375 -8.63038,10.65271 -13.29878,16.3531 -15.9707,19.24219 -1.33596,1.44454 -2.17798,2.15877 -2.56836,2.40625 -0.39038,0.24747 -0.17625,0.16601 -0.53906,0.16601 -0.50241,0 -1.16593,-0.33709 -1.12695,-0.30078 -0.43268,-0.40309 -0.35846,-0.33035 -0.33594,-0.28906 0.0225,0.0413 -0.12518,-0.28066 -0.28321,-1.27149 -0.31604,-1.98165 -0.70732,-6.30562 -1.52343,-15.23632 l -0.28711,-3.14258 a 2.523691,2.523691 0 0 0 -0.57813,-1.38867 l -19.28125,-23.02735 c -5.3077,-6.33858 -10.2077,-12.12986 -13.83008,-16.35937 -1.81118,-2.11476 -3.30113,-3.83686 -4.37304,-5.05274 -0.53596,-0.60794 -0.96426,-1.08858 -1.29102,-1.4414 -0.16338,-0.17641 -0.29797,-0.31848 -0.43164,-0.45118 -0.0668,-0.0663 -0.13064,-0.12761 -0.22851,-0.21289 -0.0979,-0.0853 0.0368,-0.17018 -0.8125,-0.49609 -0.80819,-0.31014 -0.77845,-0.17521 -0.93164,-0.18164 -0.1532,-0.006 -0.28035,-0.006 -0.42188,-0.004 -0.28306,0.005 -0.61209,0.0203 -1.01172,0.043 -0.79926,0.0453 -1.86468,0.12211 -3.12305,0.22266 -2.51672,0.20109 -5.79402,0.49512 -9.0625,0.80859 -3.26847,0.31347 -6.52577,0.64587 -9.0039,0.92383 -1.23907,0.13898 -2.27879,0.26555 -3.05078,0.37109 -0.386,0.0528 -0.70168,0.0992 -0.97461,0.14844 -0.13647,0.0246 -0.25723,0.0464 -0.41992,0.0879 -0.0813,0.0208 -0.16988,0.0432 -0.32227,0.0996 -0.15239,0.0564 -0.33015,-0.0136 -0.94336,0.59961 -0.58083,0.58083 -0.47416,0.61226 -0.58984,0.81641 -0.11569,0.20414 -0.23345,0.43054 -0.37305,0.70508 -0.2792,0.54907 -0.63477,1.28191 -1.07227,2.20703 -0.87499,1.85024 -2.07258,4.45739 -3.53711,7.69336 -2.92905,6.47194 -6.92458,15.45837 -11.49609,25.84179 -9.14301,20.76685 -20.58437,47.1153 -30.36133,70.04493 l -17.89648,41.9746 a 2.523691,2.523691 0 0 0 -0.16211,1.44141 l 0.54883,3.02539 c 0.36797,2.02648 3.36973,16.47553 6.80273,32.8418 7.07547,33.73126 6.03871,30.15506 24.29492,84.2832 l 9.86329,29.24414 a 2.523691,2.523691 0 0 0 0.68945,1.0586 l 17.75,16.1875 c 24.35126,22.20609 24.82569,22.58603 35.54492,29.78125 6.47443,4.34592 9.29671,6.39417 11.63672,7.38867 1.17,0.49725 2.60888,0.68251 3.75,0.28906 1.14112,-0.39345 1.68023,-0.92597 2.31641,-1.35547 1.05795,-0.71425 3.09787,-2.38205 6.24218,-4.94141 3.14432,-2.55935 7.13129,-5.8429 11.17383,-9.19726 8.08509,-6.70872 16.25881,-13.57448 18.60938,-15.74219 l 2.61328,-2.4082 a 2.523691,2.523691 0 0 0 0.6582,-0.98438 l 9.55859,-26 c 5.25757,-14.30069 11.9082,-32.4119 14.78125,-40.25195 2.93042,-7.99659 4.66416,-12.36084 5.76563,-14.19531 0.55073,-0.91724 0.83715,-1.06667 0.82812,-1.0625 -0.009,0.004 0.0544,-0.0514 0.73243,0.0586 0.83845,0.13607 1.1994,0.39237 1.36718,0.58008 0.1553,0.17373 0.25247,0.4265 0.25196,0.96875 -0.0331,0.12716 -0.0786,0.29663 -0.15039,0.53711 -0.16285,0.5455 -0.41544,1.33646 -0.74414,2.32617 -0.65741,1.97943 -1.62251,4.76613 -2.83204,8.18555 -2.41904,6.83884 -5.82234,16.21538 -9.75976,26.85742 -7.47883,20.21374 -14.37944,38.91174 -15.38281,41.68164 l -1.54883,4.27734 -14.7793,12.35352 c -8.42207,7.03981 -18.21769,15.30139 -21.82812,18.41016 -1.76285,1.5179 -3.62304,3.05956 -5.18164,4.30664 -1.55861,1.24707 -2.92587,2.25991 -3.25977,2.46875 -0.0461,0.0288 -0.99547,0.55085 -2.26172,1.20117 -1.26625,0.65032 -2.96575,1.50697 -4.9707,2.50586 -4.00992,1.99777 -9.24287,4.56559 -14.71875,7.21484 -5.48652,2.6544 -10.49439,5.08883 -14.14844,6.875 -1.82702,0.89309 -3.31626,1.6239 -4.35938,2.14063 -0.52155,0.25836 -0.92995,0.46293 -1.22265,0.61133 -0.14635,0.0742 -0.2628,0.13348 -0.36133,0.18554 -0.0493,0.026 -0.0916,0.0488 -0.15039,0.082 -0.0294,0.0166 -0.0605,0.0337 -0.11914,0.0703 -0.0586,0.0366 -0.0502,-0.0455 -0.45899,0.36328 -0.62419,0.62419 -0.46338,0.61646 -0.53124,0.74804 -0.0679,0.13158 -0.12187,0.24822 -0.18165,0.38086 -0.11954,0.26528 -0.25393,0.58584 -0.41601,0.98047 -0.32417,0.78927 -0.74625,1.8596 -1.23828,3.12891 -0.98407,2.53862 -2.24445,5.86835 -3.48828,9.21094 -1.24383,3.34258 -2.4714,6.69398 -3.39258,9.27539 -0.46059,1.2907 -0.84399,2.38782 -1.11914,3.20898 -0.13758,0.41058 -0.24712,0.74996 -0.33203,1.0332 -0.0425,0.14162 -0.0786,0.26649 -0.11329,0.40625 -0.0346,0.13977 -0.10156,0.12691 -0.10156,0.75782 0,0.94609 0.40683,1.53999 0.71094,1.91797 0.30411,0.37797 0.5963,0.62358 0.91992,0.875 0.64724,0.50282 1.4447,0.99855 2.58203,1.65039 2.27468,1.30367 5.87669,3.17717 11.54493,6.04687 l 14.375,7.27734 a 2.523691,2.523691 0 0 0 1.33789,0.26368 l 3.5,-0.27344 c 2.81003,-0.22012 16.87323,-1.8627 31.06054,-3.55664 7.09366,-0.84697 14.14747,-1.70124 19.66211,-2.38477 5.51465,-0.68352 9.28285,-1.15679 10.51367,-1.37109 0.9606,-0.16725 1.95972,-0.49752 3.92188,-1.08789 1.96216,-0.59037 4.57558,-1.40057 7.63281,-2.36133 6.11446,-1.92151 14.00122,-4.44625 21.92188,-7.01367 7.92065,-2.56742 15.87373,-5.17693 22.125,-7.26367 6.25126,-2.08675 10.48155,-3.50497 12.06054,-4.19336 1.71005,-0.74554 4.13764,-2.12451 5.90625,-3.32032 0.1787,-0.12081 1.93732,-1.21788 4.50196,-2.78125 2.56463,-1.56336 6.07496,-3.68944 10.24414,-6.20898 8.33835,-5.03907 19.31739,-11.64937 30.68359,-18.47656 22.7324,-13.65439 47.03654,-28.19198 54.80469,-32.73633 2.72185,-1.59227 5.27624,-3.04035 7.17578,-4.08008 0.94977,-0.51986 1.73918,-0.94002 2.28125,-1.21289 0.068,-0.0343 0.0885,-0.0408 0.14844,-0.0703 0.11922,0.0497 0.3087,0.0848 0.66601,0.3418 0.48115,0.34603 0.87129,0.88642 0.89649,0.94726 0.28054,0.67729 0.24176,0.84776 0.16406,1.07422 -0.0777,0.22645 -0.37209,0.70619 -1.24805,1.39258 0.0802,-0.0628 -0.86933,0.5895 -2.09375,1.35937 -1.22442,0.76988 -2.88847,1.79842 -4.86523,3.00586 -3.95352,2.41489 -9.15808,5.55019 -14.65039,8.81641 -11.00423,6.5441 -26.19024,15.61744 -33.76172,20.17383 -7.56274,4.55113 -20.03301,12.05723 -27.71289,16.67968 l -13.96485,8.4043 a 2.523691,2.523691 0 0 0 1.31055,4.68555 l 7.46485,-0.0293 c 6.65888,-0.0262 28.33819,-0.49308 48.56445,-0.99023 10.11313,-0.24858 19.84843,-0.50404 27.125,-0.7168 3.63828,-0.10638 6.66192,-0.20275 8.8164,-0.28125 1.07725,-0.0393 1.93559,-0.0729 2.55665,-0.10352 0.31052,-0.0153 0.56004,-0.0304 0.76367,-0.0449 0.10181,-0.007 0.18912,-0.0132 0.28711,-0.0234 0.098,-0.0103 0.0835,0.0288 0.5332,-0.0996 -0.24855,0.071 -0.0195,0.007 0.14062,-0.0273 0.16016,-0.0339 0.39324,-0.0819 0.69141,-0.14258 0.59633,-0.12137 1.45158,-0.2913 2.53125,-0.50586 2.15934,-0.42911 5.22201,-1.03363 8.95898,-1.76562 7.47395,-1.46398 17.64757,-3.44459 28.71485,-5.58789 11.0721,-2.14424 21.60443,-4.20746 29.6582,-5.80469 8.05377,-1.59723 13.41832,-2.67515 14.86524,-3.02734 1.43278,-0.34876 4.44042,-1.30074 8.57421,-2.6543 4.1338,-1.35356 9.25164,-3.07789 14.36915,-4.84961 l 18.56054,-6.42578 a 2.523691,2.523691 0 0 0 0.95703,-0.59961 l 10.14063,-10.13086 c 2.79333,-2.79084 5.32071,-5.33896 7.14844,-7.20117 0.91386,-0.93111 1.651,-1.68955 2.16797,-2.23047 0.25848,-0.27046 0.46085,-0.48246 0.61718,-0.6543 0.0782,-0.0859 0.13978,-0.15539 0.22266,-0.25586 0.0414,-0.0502 0.0833,-0.0955 0.17969,-0.23828 0.0482,-0.0714 0.10952,-0.14453 0.22851,-0.41797 0.0297,-0.0684 0.064,-0.15186 0.0996,-0.26757 0.0356,-0.11572 0.0976,-0.47804 0.0977,-0.47852 5e-5,-4.8e-4 -0.0702,-0.90982 -0.0703,-0.91016 -9e-5,-3.3e-4 -0.78493,-1.26152 -0.78516,-1.26171 -2.3e-4,-2e-4 -1.01316,-0.53503 -1.01367,-0.53516 -5.1e-4,-1.4e-4 -0.32745,-0.0639 -0.42188,-0.0723 -0.18885,-0.0167 -0.27066,-0.0107 -0.33789,-0.008 -0.13445,0.006 -0.18492,0.0135 -0.23242,0.0195 -0.095,0.0121 -0.14391,0.0212 -0.20117,0.0312 -0.11453,0.0201 -0.23356,0.0437 -0.38477,0.0742 -0.30242,0.0609 -0.71944,0.14905 -1.25195,0.26367 -1.06502,0.22924 -2.58611,0.56359 -4.45703,0.98047 -3.74186,0.83376 -8.8823,1.99424 -14.52344,3.2832 -5.62896,1.28618 -10.91506,2.46395 -14.88867,3.32227 -1.98681,0.42916 -3.64718,0.77952 -4.84766,1.02148 -0.60024,0.12099 -1.08698,0.21551 -1.42969,0.27735 -0.20541,0.0371 -0.16158,0.0331 -0.23046,0.043 -0.13183,-0.0281 -0.29102,-0.0634 -0.5293,-0.1211 -0.57305,-0.13879 -1.40905,-0.35536 -2.45899,-0.63672 -2.09986,-0.5627 -5.0629,-1.38729 -8.6582,-2.4082 -7.19059,-2.04181 -16.91514,-4.87219 -27.42578,-7.99219 -25.31225,-7.51373 -41.09245,-12.15357 -51.05469,-14.97461 -9.96224,-2.82103 -13.98272,-3.83306 -16.40039,-4.08789 -2.79289,-0.29437 -19.92302,-2.77356 -36.1582,-5.20117 -8.11759,-1.2138 -16.07693,-2.42177 -22.07617,-3.35351 -2.99963,-0.46587 -5.51046,-0.86298 -7.29883,-1.15625 -0.89419,-0.14664 -1.6097,-0.26709 -2.10352,-0.35547 -0.21843,-0.0391 -0.37499,-0.0682 -0.49414,-0.0918 -0.0428,-0.0712 -0.30805,-0.30479 -0.33984,-0.25 -0.002,-0.006 -0.004,-0.01 -0.006,-0.0156 -0.0615,-0.24337 -0.14918,-0.62076 -0.25195,-1.0918 -0.20555,-0.94207 -0.47618,-2.26898 -0.78711,-3.84961 -0.62186,-3.16126 -1.40584,-7.34692 -2.18946,-11.6543 -1.56723,-8.61475 -3.15139,-17.96399 -3.37695,-20.07617 -0.14469,-1.35484 -0.0485,-1.83118 -0.1543,-1.51953 -0.10584,0.31165 -0.24517,0.32165 0.56055,-0.29102 -0.18772,0.14274 0.71922,-0.45438 1.82813,-1.09375 1.1089,-0.63936 2.62258,-1.49073 4.42187,-2.49023 3.59858,-1.99901 8.3436,-4.58838 13.35156,-7.27539 6.44451,-3.45779 11.11073,-5.89613 14.26563,-7.45117 1.57745,-0.77752 2.7818,-1.33422 3.59961,-1.67383 0.8178,-0.33962 1.56937,-0.36328 0.80078,-0.36328 -0.43091,0 0.11909,0.0213 0.65039,0.11914 0.53129,0.0979 1.27742,0.24927 2.19141,0.44336 1.82798,0.38817 4.33246,0.94934 7.27929,1.6289 5.89366,1.35914 13.56625,3.19127 21.26758,5.06836 7.70133,1.8771 15.4346,3.79942 21.45313,5.34375 3.00926,0.77217 5.59133,1.45002 7.51562,1.97657 1.92429,0.52654 3.42025,1.01373 3.38281,0.99804 0.11528,0.0483 1.40952,0.66264 3.15625,1.5293 1.74674,0.86666 4.08811,2.04093 6.82032,3.41992 5.4644,2.75798 12.49596,6.3341 19.50781,9.91797 7.01184,3.58387 14.00573,7.17558 19.39453,9.96484 2.6944,1.39464 4.98791,2.58872 6.67773,3.47852 1.68983,0.8898 2.95887,1.59564 2.94336,1.58594 0.84488,0.52867 1.5747,0.75541 3.01758,1.24804 1.44289,0.49264 3.47236,1.1341 6.31055,1.99219 5.67638,1.71619 14.57557,4.29718 28.24414,8.21289 l 19.11328,5.47656 a 2.523691,2.523691 0 0 0 1.53125,-0.0449 l 22.88672,-8.04297 c 6.29843,-2.21335 12.25474,-4.32641 16.78125,-5.94922 2.26325,-0.8114 4.16949,-1.50051 5.58594,-2.01953 1.41644,-0.51901 2.20838,-0.80472 2.74414,-1.03906 1.12895,-0.49383 2.33331,-1.35921 3.41601,-2.69531 1.08271,-1.3361 2.27682,-3.19304 4.25977,-6.35938 1.24421,-1.98674 2.46435,-3.96777 3.43359,-5.5664 0.96925,-1.59863 1.6274,-2.69052 1.97461,-3.36328 0.23664,-0.45848 0.58692,-1.32706 0.64649,-2.23633 0.0596,-0.90928 -0.051,-1.82747 -0.28711,-3.18164 -0.47222,-2.70835 -1.52756,-7.2422 -3.58789,-16.06446 -2.9747,-12.73751 -5.99983,-25.53593 -8.39844,-35.56054 -2.39861,-10.02461 -4.11745,-17.0961 -4.65625,-18.99024 a 2.523691,2.523691 0 0 0 0,-0.002 c -0.90497,-3.18112 -2.66122,-7.67633 -22.66016,-58.53125 -3.57477,-9.09021 -6.91096,-17.52397 -9.41015,-23.79297 -1.2496,-3.1345 -2.2902,-5.72674 -3.04688,-7.59375 -0.37834,-0.93351 -0.68613,-1.68536 -0.91602,-2.23828 -0.22988,-0.55292 -0.2874,-0.73797 -0.50976,-1.16797 -0.47205,-0.91284 -0.67194,-0.92525 -1.04883,-1.29687 -0.37688,-0.37163 -0.85086,-0.80675 -1.44336,-1.33203 -1.18499,-1.05057 -2.8375,-2.44926 -4.9375,-4.18555 -4.19999,-3.47258 -10.18531,-8.28579 -17.65039,-14.1836 -11.33937,-8.95871 -17.29729,-13.64823 -21.20508,-16.48046 -3.90778,-2.83224 -5.89642,-3.85367 -8.70508,-5.14063 -3.2967,-1.51058 -22.55399,-10.03282 -43.02539,-19.04492 l -37.21484,-16.38281 a 2.523691,2.523691 0 0 0 -1.11719,-0.21289 l -15.03515,0.59375 c -42.0834,1.66451 -55.52126,2.24552 -61.1211,2.65625 -5.68063,0.41666 -7.78365,0.91559 -25.04492,6.13086 -5.10059,1.54107 -9.96032,3.05444 -13.69531,4.25585 -1.8675,0.60071 -3.45274,1.12274 -4.65625,1.53516 -1.20352,0.41242 -1.82067,0.59764 -2.54883,0.96289 -2.43703,1.22243 -4.98587,2.92812 -50.77734,33.69922 -8.80519,5.91694 -17.02617,11.487 -23.1836,15.70117 -3.07871,2.10709 -5.64065,3.87433 -7.50781,5.17969 -0.93358,0.65268 -1.69107,1.1899 -2.26172,1.60156 -0.57065,0.41167 -0.84974,0.59589 -1.24219,0.94531 -2.70719,2.41046 -10.84444,11.05359 -45.91406,48.42969 l -26.17578,27.89453 a 2.523691,2.523691 0 0 0 -0.60937,1.11719 l -4.64063,18.64258 c -1.27257,5.11196 -2.52198,9.94211 -3.50781,13.58984 -0.49292,1.82387 -0.9219,3.35247 -1.24805,4.46094 -0.16308,0.55424 -0.30163,1.00548 -0.4043,1.31836 -0.10266,0.31288 -0.24201,0.59608 -0.10546,0.33203 -0.38324,0.74109 -0.88442,0.9821 -1.44336,1.01953 -0.55895,0.0374 -1.168,-0.15564 -1.70508,-0.875 -0.43353,-0.58066 -0.24209,-0.30407 -0.19531,-0.0976 0.0468,0.20641 -0.026,-0.26424 0.19921,-1.54688 0.45036,-2.56529 1.78914,-8.15306 4.58594,-19.94336 1.10451,-4.65622 2.22022,-9.11675 3.1211,-12.5332 0.45043,-1.70823 0.84671,-3.15679 1.1582,-4.22461 0.31149,-1.06782 0.66871,-1.97435 0.54297,-1.7168 0.93337,-1.91179 3.70811,-5.17605 22.48828,-25.13281 8.41405,-8.94121 23.28287,-24.77072 33.04687,-35.18359 l 17.55664,-18.72266 14.76368,-9.94531 c 8.24797,-5.55634 27.1486,-18.27283 41.99804,-28.25586 7.42978,-4.99492 14.31255,-9.65868 19.42383,-13.1543 2.55564,-1.74781 4.6683,-3.20362 6.18945,-4.26562 0.76058,-0.53101 1.37148,-0.96324 1.82618,-1.29102 0.4547,-0.32778 0.54249,-0.32745 1.05078,-0.8125 0.84908,-0.81024 1.0297,-1.42308 1.4375,-2.38281 0.40779,-0.95974 0.86969,-2.22321 1.45117,-3.95117 1.16296,-3.45592 2.79369,-8.7526 5.1875,-16.76368 1.71839,-5.75071 3.26216,-10.99299 4.36914,-14.81445 0.55349,-1.91073 0.99704,-3.46447 1.30078,-4.55859 0.15187,-0.54706 0.26952,-0.97634 0.35156,-1.29688 0.041,-0.16027 0.0719,-0.28972 0.10157,-0.42773 0.0148,-0.069 0.0298,-0.13101 0.0488,-0.26563 0.01,-0.0673 0.0243,-0.14226 0.0274,-0.33789 0.002,-0.0978 0.007,-0.22125 -0.0371,-0.47461 -0.0218,-0.12667 -0.15016,-0.52286 -0.15039,-0.52343 -2.4e-4,-5.8e-4 -0.64226,-0.91964 -0.64258,-0.91993 -3.2e-4,-2.9e-4 -0.27846,-0.22192 -0.375,-0.28125 -0.0965,-0.0593 -0.17102,-0.0975 -0.23242,-0.12695 -0.12282,-0.0589 -0.19894,-0.086 -0.25977,-0.10742 -0.12166,-0.0428 -0.18117,-0.0573 -0.23242,-0.0703 -0.10249,-0.026 -0.15544,-0.0347 -0.20898,-0.0449 -0.10709,-0.0204 -0.19869,-0.0355 -0.31055,-0.0527 -0.22372,-0.0345 -0.51073,-0.0761 -0.875,-0.125 -0.72854,-0.0978 -1.75342,-0.22638 -3.00977,-0.38086 -2.51269,-0.30896 -5.94776,-0.7164 -9.70898,-1.14648 z M 580.6875,399.00781 c 9.66161,0.2965 20.48753,2.02762 18.1543,1.79492 5.9949,0.23123 11.35331,3.6041 9.9414,2.66993 1.31558,0.92575 3.11652,2.21137 5.23633,3.73437 4.23963,3.04601 9.75904,7.04538 15.27735,11.06836 5.5183,4.02298 11.03857,8.06976 15.2832,11.20899 2.12231,1.56961 3.92604,2.91444 5.24609,3.91015 1.32006,0.99572 2.3907,1.87626 2.20117,1.69922 0.46958,0.43865 0.66289,0.91123 0.69922,1.20117 0.0297,0.23725 -0.0208,0.28428 -0.084,0.35938 -0.25209,0.0196 -0.91457,-0.0221 -1.96289,-0.28516 -2.10921,-0.52934 -5.68578,-1.86589 -11.20703,-4.16992 -5.77872,-2.41148 -15.9037,-6.61994 -22.50586,-9.35742 -6.59501,-2.73451 -14.67609,-6.11166 -17.92383,-7.48828 -1.79192,-0.75954 -3.43651,-1.38341 -4.77539,-1.81836 -0.66945,-0.21748 -1.25757,-0.38839 -1.79883,-0.50782 -0.54126,-0.11942 -0.81081,-0.35269 -1.98242,-0.0801 -0.92849,0.21605 -2.161,0.64304 -3.87891,1.24804 -1.71791,0.605 -3.78415,1.36368 -5.82812,2.13477 -2.04398,0.77109 -4.06238,1.55472 -5.6875,2.21094 -1.62513,0.65621 -2.61542,1.02169 -3.52539,1.55859 -0.5165,0.30474 -0.99996,0.66292 -1.88282,1.29687 -0.88285,0.63396 -2.03381,1.47389 -3.3789,2.4668 -2.69019,1.98582 -6.15595,4.57952 -9.75781,7.3086 -3.58759,2.71825 -6.97302,5.25599 -9.5293,7.14843 -1.27814,0.94622 -2.34976,1.73147 -3.12891,2.29297 -0.38957,0.28075 -0.70784,0.50709 -0.93164,0.66211 -0.2238,0.15503 -0.47814,0.29582 -0.23437,0.16602 -0.8042,0.42822 -1.31824,0.15166 -1.27344,0.20117 -0.32908,-0.36363 -0.20975,-0.24464 -0.20313,-0.17774 0.007,0.0669 -0.006,-0.30415 0.4336,-1.2539 0.87964,-1.8995 3.30104,-5.66849 7.83984,-12.41211 7.29462,-10.83812 10.87083,-16.15594 12.9082,-18.82031 2.03738,-2.66438 2.04468,-2.4306 3.78321,-3.36719 1.47573,-0.795 5.66329,-2.81443 9.03125,-4.33985 3.09076,-1.39986 4.61064,-2.05265 5.44531,-2.26367 z m 23.15625,36.88672 c 3.58539,-1.1017 9.65201,7.38078 7.34961,5.23242 2.91013,3.10706 6.63461,7.21493 10.34766,11.39258 3.71304,4.17766 7.41705,8.4296 10.2871,11.82617 1.43503,1.69829 2.66295,3.18469 3.56836,4.32618 0.86917,1.09577 1.44927,1.96833 1.45704,1.96289 0.0436,0.16676 0.10833,0.44002 0.18164,0.7832 0.1466,0.68636 0.33429,1.65908 0.54296,2.82031 0.41735,2.32246 0.92191,5.4115 1.41016,8.67774 0.98316,6.5771 2.22289,14.84901 2.75391,18.38476 0.28818,1.91878 0.62841,3.71759 0.97265,5.1836 0.34425,1.466 0.40977,2.30322 1.22461,3.5625 0.43911,0.67859 1.35985,1.9131 2.84961,3.92773 1.48977,2.01463 3.42088,4.60663 5.44141,7.29297 2.01031,2.67276 3.90455,5.22589 5.33008,7.17773 0.71276,0.97592 1.31063,1.80243 1.74023,2.41016 0.4296,0.60772 0.80556,1.23427 0.64063,0.92578 0.47081,0.88063 0.26237,1.99153 -0.20313,2.45703 -0.58129,0.58129 -0.27803,0.53128 -1.27148,0.38281 -0.99346,-0.14846 -3.08085,-0.9083 -6.40039,-2.45703 -3.32256,-1.55013 -7.24616,-3.32257 -8.89844,-4.01562 l -2.80664,-1.17774 a 2.523691,2.523691 0 0 0 -1.50586,-0.14062 l -12.69336,2.72656 c -3.47177,0.74573 -6.82365,1.42307 -9.40625,1.91211 -1.2913,0.24452 -2.39107,0.44331 -3.20508,0.57617 -0.814,0.13286 -1.57225,0.18174 -1.25781,0.18164 0.11196,-3e-5 -1.82974,-0.47215 -2.72656,-0.99609 -2.77674,-1.62223 -10.32965,-6.50173 -17.20118,-11.05469 -3.43576,-2.27648 -6.72409,-4.4824 -9.21093,-6.1875 -1.24342,-0.85255 -2.28648,-1.58188 -3.03711,-2.12109 -0.37532,-0.26961 -0.67889,-0.49182 -0.88281,-0.64844 -0.20393,-0.15662 -0.38368,-0.35051 -0.16407,-0.11523 0.225,0.24104 -0.12206,-0.18817 -0.46875,-0.94727 -0.34668,-0.7591 -0.81213,-1.90042 -1.39062,-3.44336 -1.157,-3.08588 -2.77882,-7.78365 -5.03125,-14.53125 -1.70049,-5.09415 -3.30887,-9.78655 -4.53516,-13.25781 -0.61315,-1.73563 -1.12994,-3.16493 -1.52148,-4.20117 -0.19577,-0.51812 -0.35852,-0.93425 -0.49805,-1.26758 -0.0698,-0.16667 -0.13248,-0.3091 -0.20703,-0.46289 -0.0746,-0.15379 0.11313,-0.14599 -0.56836,-0.83203 -0.469,-0.47213 -0.62259,-0.46683 -0.76172,-0.53321 -0.13913,-0.0664 -0.23304,-0.10115 -0.32422,-0.13476 -0.18236,-0.0672 -0.34467,-0.11753 -0.53515,-0.17383 -0.38097,-0.11261 -0.85466,-0.23812 -1.44532,-0.38672 -1.1813,-0.2972 -2.81282,-0.67928 -4.79882,-1.12695 -3.97201,-0.89534 -9.35285,-2.04949 -15.20313,-3.24805 -5.82624,-1.19363 -11.30218,-2.35427 -15.42187,-3.25976 -2.05985,-0.45275 -3.78172,-0.84159 -5.02735,-1.13672 -0.62281,-0.14757 -1.1291,-0.27221 -1.48437,-0.36524 -0.35528,-0.093 -0.69282,-0.2234 -0.41993,-0.10937 -1.08866,-0.45488 -1.32859,-1.90058 -0.24609,-3.02735 0.10292,-0.0706 0.20195,-0.14585 0.33594,-0.20898 0.39276,-0.18507 0.98249,-0.44378 1.7168,-0.75391 1.46861,-0.62025 3.5262,-1.44862 5.96679,-2.40625 4.88118,-1.91525 11.30548,-4.35324 17.79688,-6.76562 6.49139,-2.41238 13.0529,-4.80165 18.21093,-6.61719 2.57902,-0.90777 4.80773,-1.6711 6.48829,-2.2207 1.68055,-0.54961 3.07605,-0.90446 2.96093,-0.88672 1.38277,-0.21307 9.88739,-1.09897 18.17969,-1.85547 7.11816,-0.64939 10.93761,-0.98076 13.00586,-1.04883 z" /><path
       id="path180"
       style="fill:#ffffff;stroke-width:0.5"
       transform="matrix(0.26458333,0,0,0.26458333,-271.46249,-218.81041)"
       d="m 596.96094,462.82617 c -0.81996,0.1313 -2.15343,0.76298 -2.85156,1.89258 -0.50294,0.81376 -0.42672,0.91667 -0.47852,1.09961 -0.0518,0.18294 -0.0795,0.31103 -0.10742,0.44141 -0.0558,0.26075 -0.10022,0.51689 -0.15039,0.81835 -0.10036,0.60293 -0.21349,1.36904 -0.33789,2.28516 -0.24882,1.83225 -0.54287,4.24898 -0.83008,6.84961 l -1.0332,9.35352 a 3.952599,3.952599 0 0 0 0.48437,2.375 l 2.53906,4.5039 c 0.74741,1.32585 1.55132,2.6342 2.28321,3.73828 0.73188,1.10409 1.06589,1.77321 2.17187,2.79883 1.21968,1.13106 1.91575,1.34689 3.10938,1.96094 1.19362,0.61405 2.60002,1.26681 4.02539,1.85742 2.57458,1.06681 5.70091,2.50021 5.88086,2.59766 1.30206,0.70511 1.9863,1.23684 4.21289,1.2832 4.2049,0.0876 6.82422,-3.1251 6.82421,-6.97656 0,-3.93958 -1.53854,-9.19903 -3.875,-16.25391 l -2.21679,-6.69336 a 3.952599,3.952599 0 0 0 -1.23438,-1.80469 l -4.42968,-3.6582 c -3.12207,-2.57904 -5.82455,-4.661 -7.91407,-6.09961 -1.04475,-0.7193 -1.90731,-1.27086 -2.7832,-1.71093 -0.43794,-0.22004 -0.83773,-0.43088 -1.59961,-0.59961 -0.38094,-0.0844 -0.86949,-0.1899 -1.68945,-0.0586 z" /><path
       style="fill:#05243c;fill-opacity:1;stroke-width:0.105833"
       d="m -187.7435,-26.780127 c -0.13671,-0.04881 -5.93096,-2.937732 -8.70763,-4.341472 -1.44431,-0.730176 -1.59619,-1.1622 -0.97792,-2.7818 0.2111,-0.552976 0.5691,-1.505476 0.79556,-2.116664 0.22646,-0.611188 0.57752,-1.539876 0.78013,-2.063752 0.20261,-0.523876 0.61209,-1.59098 0.90995,-2.371344 0.5884,-1.541516 0.83455,-1.969432 1.19662,-2.08028 0.12946,-0.03964 0.90213,-0.393816 1.71704,-0.787084 0.81492,-0.393256 2.1008,-1.012008 2.8575,-1.374984 2.41269,-1.157332 4.64624,-2.235676 4.98814,-2.40826 l 0.33147,-0.167312 -0.27855,-0.231372 c -0.15321,-0.127244 -0.61194,-0.436996 -1.01939,-0.688328 -0.40746,-0.251336 -0.83609,-0.538948 -0.9525,-0.639128 -0.11642,-0.100192 -0.64029,-0.453932 -1.16417,-0.7861 -1.88946,-1.198012 -2.11222,-1.377304 -4.81224,-3.873404 -0.72935,-0.674264 -1.87809,-1.722016 -2.55276,-2.328332 -2.58936,-2.327024 -5.35946,-4.848916 -5.92933,-5.39804 l -0.59433,-0.572696 -0.699,-2.116668 c -0.38445,-1.164168 -1.94399,-5.807604 -3.46565,-10.318748 -3.31401,-9.824756 -3.33424,-9.886924 -3.5456,-10.896584 -0.0919,-0.438901 -0.30675,-1.464757 -0.4775,-2.279673 -0.17075,-0.81492 -0.40348,-1.934108 -0.51718,-2.487088 -0.11371,-0.552976 -0.35183,-1.695974 -0.52917,-2.539994 -0.17734,-0.844024 -0.41546,-1.987026 -0.52917,-2.539996 -0.1137,-0.55298 -0.35205,-1.69598 -0.52968,-2.54 -0.17762,-0.84402 -0.36789,-1.7489 -0.42281,-2.01084 -0.0549,-0.26194 -0.17396,-0.80962 -0.26453,-1.21708 -0.32201,-1.4487 -0.37011,-1.77125 -0.30542,-2.04809 0.0689,-0.29467 1.11467,-2.79274 2.9607,-7.07207 0.60703,-1.40717 1.16995,-2.74629 1.25093,-2.97581 0.081,-0.22953 0.19742,-0.50696 0.25875,-0.61651 0.0613,-0.10956 0.52071,-1.1755 1.02085,-2.36877 0.50014,-1.19327 0.97496,-2.31246 1.05516,-2.48708 0.31556,-0.68704 2.38257,-5.53412 2.38257,-5.58705 0,-0.0514 4.63905,-10.5705 5.26055,-11.92837 0.14654,-0.32015 0.35636,-0.78449 0.46627,-1.03187 0.29048,-0.65379 0.59487,-1.33864 0.82319,-1.85209 0.11,-0.24738 0.41113,-0.90223 0.66918,-1.45521 0.25804,-0.55298 0.72764,-1.59535 1.04353,-2.31638 0.34377,-0.78466 0.66819,-1.3726 0.80807,-1.46449 0.29658,-0.19481 0.84121,-0.2679 5.40744,-0.72567 3.05835,-0.30661 3.80358,-0.3523 4.10787,-0.25188 0.30381,0.10027 0.95539,0.81953 3.56635,3.93678 1.75705,2.09775 4.23761,5.0577 5.51236,6.57766 1.27475,1.51996 2.40332,2.95524 2.50794,3.18949 0.11166,0.25006 0.2201,0.84002 0.2626,1.42876 0.0398,0.55155 0.1039,1.06259 0.1424,1.13565 0.0445,0.0844 0.4352,-0.31559 1.07092,-1.09621 1.29528,-1.59051 3.26701,-4.0091 5.12841,-6.29069 0.81491,-0.99888 1.62454,-1.93565 1.79917,-2.08171 0.17462,-0.14606 0.77247,-0.70083 1.32855,-1.23281 1.12452,-1.07579 1.48556,-1.41268 3.69853,-3.45106 0.84402,-0.77744 1.92783,-1.7896 2.40846,-2.24927 0.48065,-0.45966 1.089,-0.93089 1.35189,-1.04718 l 0.47799,-0.21144 1.82312,0.21483 c 1.00271,0.11816 2.70418,0.31371 3.78104,0.43457 4.23763,0.4756 4.42839,0.52551 4.72534,1.23619 0.16977,0.40631 0.12518,0.57566 -1.97289,7.49278 -1.02261,3.37143 -1.27079,4.20882 -1.27079,4.28785 0,0.077 0.56323,-0.068 2.27542,-0.58597 0.52388,-0.15848 1.23825,-0.37218 1.5875,-0.47491 0.34925,-0.10272 1.66396,-0.49885 2.92158,-0.88029 l 2.28658,-0.69354 10.90435,-0.43089 c 5.99739,-0.237 10.99299,-0.39881 11.10133,-0.35959 0.10835,0.0392 4.28379,1.87333 9.27876,4.07579 4.99498,2.20246 9.111407,4.00447 9.147635,4.00447 0.0362,0 0.271388,0.0952 0.522604,0.21167 0.251204,0.11641 0.671056,0.30691 0.932996,0.42333 0.261936,0.11641 0.678656,0.3033 0.92604,0.4153 0.247384,0.112 0.73554,0.32251 1.084792,0.4678 1.020848,0.42469 2.009712,1.01623 2.886436,1.72669 0.449748,0.36446 1.283268,1.03364 1.852252,1.48706 0.568992,0.45342 1.330992,1.06323 1.693332,1.35514 0.362352,0.29191 0.944564,0.74435 1.293812,1.00542 0.349252,0.26107 1.046068,0.80805 1.548468,1.2155 0.502412,0.40746 1.304768,1.0504 1.783016,1.42875 0.47824,0.37836 1.170032,0.92604 1.537304,1.21709 0.367276,0.29104 0.889752,0.69585 1.161068,0.89958 1.232776,0.9257 1.227148,0.91652 2.332884,3.81 0.211316,0.55298 0.68636,1.76742 1.055644,2.69875 0.369284,0.93133 0.843956,2.14577 1.054832,2.69875 0.210872,0.55298 0.52236,1.33879 0.6922,1.74625 0.169844,0.40746 0.48098,1.19327 0.69142,1.74625 0.21044,0.55298 0.684764,1.76742 1.054048,2.69875 0.369284,0.93133 0.843956,2.14577 1.054832,2.69875 0.210872,0.55298 0.522328,1.33879 0.692116,1.74625 0.1698,0.40746 0.603164,1.50283 0.96304,2.434164 0.359868,0.931332 0.858976,2.20036 1.109124,2.820054 0.250148,0.619688 0.528436,1.476936 0.618416,1.905 0.08998,0.428052 0.215256,0.960596 0.278396,1.183416 0.06313,0.222836 0.179228,0.699088 0.258,1.05834 0.07876,0.35926 0.746844,3.153505 1.484629,6.209441 0.737788,3.055944 1.38504,5.769488 1.43834,6.030112 0.0533,0.260628 0.188128,0.832128 0.299636,1.27 0.732872,2.87818 0.971908,4.02588 0.892724,4.28622 -0.08375,0.275356 -1.388936,2.476088 -1.633368,2.754088 -0.102364,0.11642 -0.742528,1.140356 -1.422601,2.27542 -0.680076,1.13506 -1.320728,2.159 -1.42366,2.275416 -0.102944,0.116416 -0.59796,0.902228 -1.100032,1.746248 l -0.912844,1.534584 -7.171732,7.161828 c -6.691788,6.682536 -7.207144,7.172472 -7.7009,7.32102 -0.29104,0.08756 -1.43404,0.476684 -2.54,0.8647 -1.105956,0.388016 -2.201332,0.768792 -2.434164,0.846168 -0.757132,0.251608 -4.965692,1.720904 -5.27666,1.842188 -0.166372,0.06489 -1.02362,0.259048 -1.905,0.431472 -0.881375,0.172424 -1.840635,0.363168 -2.131675,0.423872 -0.6052,0.12624 -2.79496,0.55024 -5.715,1.106596 -1.10596,0.210712 -2.20133,0.42712 -2.43416,0.480904 -0.23284,0.05378 -1.32821,0.268544 -2.43417,0.477248 -1.10596,0.2087 -2.43946,0.470196 -2.96333,0.581088 -0.52388,0.110892 -1.85738,0.372384 -2.96334,0.581088 -1.10596,0.208704 -2.20133,0.423524 -2.43416,0.477372 -0.23284,0.05385 -1.2165,0.249764 -2.18593,0.435364 l -1.76259,0.337472 -0.41855,-0.207084 c -0.41638,-0.206004 -0.48482,-0.20556 -13.2483,0.0855 l -12.82976,0.292584 -2.02828,0.680184 c -2.36937,0.794572 -13.76867,4.545752 -15.46909,5.090432 -0.77202,0.247292 -1.62762,0.427672 -2.54,0.535496 -0.75671,0.08942 -1.99496,0.234972 -2.75167,0.323448 -0.75671,0.08848 -2.92365,0.347896 -4.81542,0.576496 -1.89177,0.228588 -3.84439,0.4625 -4.33916,0.519812 -0.49477,0.05731 -1.7239,0.201728 -2.73139,0.320928 -1.96362,0.232336 -1.89972,0.228048 -2.13695,0.14334 z m 3.10812,-2.574376 c 3.03355,-0.36432 4.77797,-0.575128 6.52271,-0.788256 0.6694,-0.08177 2.74109,-0.322252 4.60376,-0.534416 1.97602,-0.225064 3.6732,-0.472396 4.07458,-0.593788 0.37835,-0.114436 3.49779,-1.133392 6.93208,-2.264356 3.43429,-1.13098 7.19667,-2.369176 8.36084,-2.751572 1.73614,-0.570272 2.18325,-0.7584 2.48708,-1.04648 0.20373,-0.193176 3.03742,-1.935872 6.29708,-3.872652 3.25967,-1.936784 6.67982,-3.97924 7.60033,-4.53878 6.79925,-4.13296 15.19753,-9.126176 15.64812,-9.303616 0.35242,-0.13878 0.42603,-0.134612 0.79375,0.04499 0.30767,0.150272 0.4413,0.30206 0.55472,0.630132 0.13577,0.392696 0.13094,0.469708 -0.0529,0.842856 -0.18258,0.370588 -0.53358,0.6074 -3.59477,2.42532 -1.86584,1.108052 -6.03303,3.582572 -9.26042,5.49894 -3.22739,1.916356 -5.96323,3.563516 -6.07965,3.660332 -0.11641,0.09682 -1.84575,1.14826 -3.84297,2.336536 l -3.63133,2.1605 0.61508,0.03048 c 0.33828,0.01676 5.7699,-0.08911 12.07028,-0.235268 6.30037,-0.146168 11.5222,-0.24004 11.60406,-0.208628 0.1293,0.04961 2.28811,-0.345252 6.99738,-1.279896 0.6985,-0.138632 2.77019,-0.541824 4.60376,-0.895996 1.83356,-0.354172 3.66712,-0.712344 4.07458,-0.795952 0.40746,-0.08361 2.36008,-0.4643 4.33916,-0.846 4.470507,-0.862204 4.252279,-0.806512 7.249587,-1.850144 1.367896,-0.476284 2.820456,-0.978844 3.227916,-1.116788 0.407456,-0.137952 1.574272,-0.540068 2.592916,-0.893604 l 1.852088,-0.64279 2.804584,-2.813008 c 1.54252,-1.547156 2.709332,-2.78624 2.592916,-2.75352 -0.116416,0.03272 -2.773988,0.636556 -5.9057,1.34184 l -5.694048,1.282332 -13.589359,-4.030484 c -10.79714,-3.202324 -13.71094,-4.030472 -14.18105,-4.030472 -0.5025,0 -2.07847,-0.212292 -5.45026,-0.734164 -0.37835,-0.05856 -1.85473,-0.276852 -3.28083,-0.4851 -3.83724,-0.560324 -8.20289,-1.203832 -9.06955,-1.336864 -0.90869,-0.1395 -1.17527,-0.365 -1.31829,-1.11522 -0.0899,-0.471836 -0.6073,-3.389288 -1.36359,-7.68954 -0.17247,-0.980644 -0.31357,-1.912928 -0.31357,-2.071764 0,-0.453432 0.2114,-0.60182 2.80458,-1.968564 0.52388,-0.276108 1.19063,-0.631592 1.48167,-0.789972 0.29104,-0.158368 0.91017,-0.492292 1.37583,-0.74206 0.46567,-0.249764 1.03717,-0.55828 1.27,-0.6856 2.78289,-1.521616 3.66285,-1.960316 3.9321,-1.960316 0.17033,0 0.56971,0.06766 0.88754,0.150344 0.59097,0.153768 8.43133,2.041028 11.95494,2.877696 4.03635,0.958404 3.76969,0.863736 6.84004,2.42842 1.56404,0.797052 3.27234,1.675668 3.79622,1.952476 0.52387,0.276808 1.905,0.991012 3.06916,1.58712 5.439083,2.785064 6.463295,3.314612 6.565023,3.394304 0.08718,0.06831 7.980392,2.365344 13.417464,3.904692 l 1.038332,0.29396 2.824584,-0.996048 c 1.553528,-0.547836 4.253348,-1.500072 5.999596,-2.116076 1.746252,-0.616 3.437648,-1.211792 3.75866,-1.323972 0.559244,-0.195432 0.61014,-0.245872 1.217084,-1.206184 1.859293,-2.941784 2.259625,-3.606556 2.266409,-3.76338 0.0059,-0.136164 -3.565133,-15.265 -4.168677,-17.660857 -0.08066,-0.320148 -0.225492,-0.915464 -0.321864,-1.32292 -0.09637,-0.40746 -0.343808,-1.16946 -0.549864,-1.693336 -0.20606,-0.523872 -0.484,-1.238246 -0.617644,-1.587498 -0.133648,-0.349248 -0.431928,-1.111248 -0.662844,-1.693332 -0.611592,-1.541684 -1.081948,-2.735704 -1.876024,-4.762504 -0.3877,-0.98954 -0.895172,-2.27541 -1.127708,-2.85749 -0.232536,-0.58209 -0.532152,-1.34409 -0.665796,-1.69334 -0.133648,-0.34925 -0.411988,-1.06362 -0.618544,-1.5875 -0.206556,-0.52387 -0.692764,-1.76212 -1.080452,-2.75166 -0.3877,-0.98955 -0.885412,-2.25161 -1.106032,-2.80459 -0.22062,-0.55298 -0.57838,-1.45785 -0.79502,-2.01083 -0.21664,-0.55298 -0.463996,-1.17586 -0.549656,-1.38418 -0.08876,-0.21585 -0.384664,-0.55727 -0.687916,-0.79375 -0.292684,-0.22824 -0.831068,-0.65311 -1.196404,-0.94415 -0.365336,-0.29105 -1.031684,-0.81492 -1.48078,-1.16417 -0.44908,-0.34925 -1.140892,-0.89694 -1.537344,-1.21708 -0.396452,-0.32015 -1.088264,-0.86784 -1.537344,-1.21709 -0.449096,-0.34925 -1.115356,-0.87312 -1.480588,-1.16416 -0.36524,-0.29105 -1.38882,-1.10067 -2.274624,-1.79917 -0.885812,-0.6985 -1.831392,-1.44977 -2.1013,-1.6695 -0.470184,-0.38276 -0.782268,-0.55354 -1.89302,-1.03588 -0.276488,-0.12007 -0.71702,-0.31707 -0.978956,-0.43779 -0.26194,-0.12072 -0.666752,-0.30173 -0.899584,-0.40224 -0.232832,-0.10052 -0.637648,-0.28048 -0.899584,-0.39991 -0.261936,-0.11943 -4.550283,-2.00809 -9.529643,-4.19703 l -9.0534,-3.97991 -10.68452,0.42541 c -8.43392,0.33581 -10.79598,0.46003 -11.21368,0.58977 -0.29105,0.0904 -0.91017,0.27705 -1.37584,0.41478 -0.46566,0.13773 -1.41816,0.42263 -2.11666,0.6331 -0.6985,0.21048 -1.67482,0.5031 -2.16959,0.65029 -0.49477,0.14718 -1.01865,0.30924 -1.16417,0.36014 -0.29883,0.10453 -1.76297,0.54097 -2.65758,0.7922 -0.65753,0.18466 -1.37986,0.63377 -5.27923,3.28238 -1.45683,0.98955 -3.04677,2.06111 -3.53321,2.38126 -0.48642,0.32014 -1.80068,1.2012 -2.92054,1.95791 -1.11986,0.75671 -2.35967,1.59015 -2.75512,1.85208 -0.39544,0.26194 -1.63338,1.09538 -2.75098,1.85209 -2.41682,1.63639 -3.17946,2.14688 -4.29519,2.87512 -1.41154,0.92131 -1.58707,1.07925 -3.62507,3.26193 -1.08634,1.16346 -2.14184,2.28633 -2.34558,2.49526 -0.20372,0.20894 -0.98858,1.04295 -1.74412,1.85337 -1.34857,1.44653 -1.87674,2.00894 -3.66161,3.89905 -0.49024,0.51914 -0.96279,1.0208 -1.0501,1.11478 -1.74447,1.87788 -4.61397,4.94414 -5.35137,5.71833 -0.52762,0.55393 -1.33621,1.41197 -1.79688,1.90674 -0.46068,0.49477 -0.87684,0.92774 -0.9248,0.96217 -0.048,0.0344 -0.30068,0.939304 -0.56159,2.010832 -1.92439,7.903299 -2.05748,8.392587 -2.36916,8.709559 -0.58331,0.593196 -1.67069,0.26596 -1.8388,-0.553372 -0.0335,-0.163428 0.15977,-1.168105 0.46137,-2.397941 1.51119,-6.162222 1.90386,-7.793048 1.9051,-7.912238 0.006,-0.57819 0.96434,-1.70757 5.45465,-6.42818 0.41527,-0.43656 1.11105,-1.17475 1.5462,-1.64041 0.43514,-0.46567 1.61919,-1.72773 2.63122,-2.80459 1.01203,-1.07685 2.13049,-2.26748 2.48546,-2.64583 0.35497,-0.37835 1.07147,-1.14127 1.59221,-1.69535 0.52074,-0.5541 1.58975,-1.69595 2.37556,-2.53748 0.78581,-0.84152 1.79369,-1.91218 2.23973,-2.37924 0.44604,-0.46705 0.91785,-0.98525 1.04847,-1.15156 0.13062,-0.16629 0.57102,-0.52348 0.97867,-0.79374 1.3762,-0.91237 2.16075,-1.43911 4.19979,-2.81971 2.31369,-1.56656 3.13086,-2.11385 4.24285,-2.84157 0.43133,-0.28228 0.86216,-0.56802 0.9574,-0.635 0.41246,-0.29005 4.2991,-2.91646 4.95695,-3.34968 0.39775,-0.26194 1.63532,-1.09538 2.75015,-1.85209 2.16312,-1.46823 2.98982,-2.02168 4.25303,-2.84725 0.77015,-0.50334 0.79957,-0.53831 0.97928,-1.16417 0.28199,-0.98209 0.80692,-2.72925 0.90932,-3.02649 0.0501,-0.14552 0.45647,-1.50284 0.90299,-3.01625 0.44651,-1.51342 0.94962,-3.20063 1.11801,-3.74937 0.16839,-0.54873 0.29475,-1.00694 0.2808,-1.01824 -0.014,-0.0113 -0.76354,-0.10349 -1.66578,-0.20485 -0.90222,-0.10136 -2.5691,-0.29065 -3.70416,-0.42065 l -2.06375,-0.23634 -0.69029,0.64514 c -2.03743,1.90418 -2.70516,2.52599 -5.71263,5.31978 -1.13507,1.05442 -2.39712,2.33061 -2.80458,2.83598 -0.40746,0.50538 -1.45521,1.79253 -2.32833,2.86034 -0.87313,1.06781 -2.23925,2.74305 -3.03582,3.72276 -0.79658,0.97971 -1.86633,2.29437 -2.37724,2.92147 -0.72514,0.89006 -1.01217,1.16512 -1.30844,1.25389 -0.53574,0.16051 -1.11804,-0.0908 -1.31775,-0.5688 -0.0855,-0.2047 -0.22663,-1.3875 -0.33729,-2.82733 l -0.19024,-2.4754 -3.67437,-4.39961 c -3.08849,-3.69808 -4.38909,-5.25134 -6.48294,-7.74236 l -0.22997,-0.2736 -3.38172,0.34986 c -1.85995,0.19242 -3.48172,0.35125 -3.60394,0.35296 -0.18344,0.002 -0.33812,0.26634 -0.88627,1.51124 -0.36522,0.82947 -0.82873,1.86532 -1.03003,2.30188 -0.50421,1.09353 -0.76822,1.67285 -0.98873,2.16958 -0.10335,0.23283 -0.33115,0.7329 -0.50621,1.11125 -0.61803,1.33576 -5.30946,11.97882 -5.30946,12.04514 0,0.0559 -1.80856,4.3176 -2.27656,5.36444 -0.0781,0.17463 -0.55563,1.29381 -1.06125,2.48709 -2.07355,4.8936 -3.35871,7.90838 -3.54157,8.30791 -0.10656,0.23284 -0.55341,1.26723 -0.99298,2.29866 l -0.79923,1.87533 0.21321,0.98217 c 0.41353,1.905 0.85018,3.95102 0.94366,4.42176 0.052,0.26194 0.28978,1.40494 0.52837,2.54 0.23858,1.135058 0.4767,2.278058 0.52916,2.539998 0.0525,0.261936 0.28986,1.404934 0.52755,2.539998 0.23769,1.13506 0.55366,2.659064 0.70216,3.386668 0.28095,1.376545 0.40942,1.772309 4.80981,14.816673 1.46288,4.33652 2.68366,7.9638 2.71284,8.060616 0.0489,0.162392 1.2314,1.26946 4.20953,3.941148 0.64252,0.576412 1.19203,1.076536 1.22114,1.1114 0.0291,0.03484 0.52916,0.490408 1.11124,1.012356 0.58209,0.521952 1.36831,1.23626 1.74717,1.587364 2.89285,2.680908 3.00388,2.769268 6.01523,4.786692 2.82499,1.892576 3.04709,2.02108 3.24427,1.876936 0.11641,-0.08511 0.33073,-0.211616 0.47625,-0.281128 0.14552,-0.06951 1.66359,-1.295136 3.37349,-2.7236 7.56238,-6.317676 6.82391,-5.660304 6.99835,-6.229792 0.0477,-0.155788 0.23949,-0.688056 0.42615,-1.182824 0.18666,-0.494772 0.49667,-1.328212 0.68891,-1.852084 0.19225,-0.523876 0.50046,-1.357312 0.68493,-1.852084 0.18447,-0.494772 0.37445,-1.018648 0.42219,-1.164168 0.0477,-0.14552 0.21415,-0.597956 0.36981,-1.005416 0.15565,-0.407456 0.47475,-1.264708 0.70911,-1.905 0.72399,-1.978076 0.80405,-2.195428 1.15013,-3.122084 0.18478,-0.494768 0.49325,-1.328208 0.6855,-1.85208 0.19224,-0.523876 0.50045,-1.357316 0.68492,-1.852084 0.18447,-0.494772 0.37446,-1.018648 0.42219,-1.164168 0.0477,-0.14552 0.20328,-0.574144 0.34562,-0.9525 0.67022,-1.781312 1.01458,-2.71708 1.0739,-2.918236 0.0356,-0.120724 0.20454,-0.353448 0.37541,-0.517148 0.61749,-0.591588 1.67486,-0.250784 1.84389,0.59432 0.0608,0.3039 0.003,0.493808 -0.89348,2.92044 -0.11285,0.305592 -0.30479,0.829468 -0.42652,1.164164 -0.12174,0.3347 -0.28715,0.775232 -0.36758,0.97896 -0.0804,0.203728 -0.38832,1.037168 -0.68419,1.852084 -0.29588,0.814916 -0.62761,1.719792 -0.73719,2.010832 -0.10958,0.291044 -0.51498,1.386416 -0.90088,2.434168 -1.02489,2.782664 -1.08915,2.957544 -1.33182,3.624792 -0.12174,0.334696 -0.28715,0.775228 -0.36758,0.978956 -0.0804,0.203732 -0.38832,1.037168 -0.6842,1.852084 -0.55148,1.518932 -0.61764,1.697652 -1.37458,3.713428 l -0.44063,1.173436 -1.43867,1.207812 c -1.54886,1.300324 -3.25184,2.7183 -4.18337,3.48324 -1.38811,1.139868 -5.04514,4.25268 -5.57715,4.747188 -0.58832,0.546848 -1.25124,0.905644 -4.92124,2.6636 -3.25093,1.557224 -4.05958,1.946952 -5.60917,2.70342 l -1.5875,0.774964 -0.28055,0.720204 c -0.52826,1.356116 -1.17688,3.048468 -1.41179,3.68354 -0.12918,0.349252 -0.40527,1.08744 -0.61352,1.640416 -0.20825,0.55298 -0.40469,1.12448 -0.43654,1.27 -0.0556,0.254044 0.099,0.34304 3.88225,2.234684 2.16708,1.08354 3.95767,1.976512 3.9791,1.984372 0.0214,0.0078 1.23585,-0.129464 2.69875,-0.30516 z m 87.061881,-47.377992 c -0.08731,-0.03064 -0.51594,-0.221128 -0.9525,-0.4233 -0.436564,-0.202164 -0.984252,-0.455848 -1.217084,-0.563732 -0.232832,-0.107888 -0.892307,-0.417016 -1.465507,-0.686964 -0.58731,-0.276596 -1.11568,-0.4626 -1.21059,-0.42618 -0.14978,0.05748 -1.08302,0.26054 -5.90409,1.284708 -1.50363,0.319436 -1.34101,0.362048 -3.18129,-0.83368 -0.64798,-0.421028 -1.47107,-0.956008 -1.82908,-1.18884 -0.35802,-0.232832 -1.01847,-0.669112 -1.46769,-0.969508 -0.44921,-0.300396 -1.24538,-0.8128 -1.76925,-1.13868 -1.48299,-0.922496 -2.09872,-1.376036 -2.32833,-1.715032 -0.11642,-0.171872 -0.94481,-2.525205 -1.84088,-5.229641 -0.89606,-2.70443 -1.6374,-4.928234 -1.64742,-4.94179 -0.01,-0.01356 -0.96756,-0.217444 -2.12788,-0.453086 -9.57725,-1.94499 -9.63462,-1.95741 -9.9257,-2.14813 -0.39752,-0.26045 -0.55636,-0.87785 -0.35182,-1.3674 0.17931,-0.42912 0.43867,-0.59149 1.65293,-1.03473 1.27539,-0.46555 4.23416,-1.57867 4.92743,-1.85376 0.34925,-0.13858 1.11125,-0.42781 1.69334,-0.64274 0.58208,-0.21494 1.36789,-0.50726 1.74624,-0.64961 0.37836,-0.14235 0.80698,-0.29722 0.9525,-0.34414 0.14553,-0.0469 0.71703,-0.26052 1.27,-0.47464 1.76792,-0.68459 2.14522,-0.78462 3.38667,-0.89794 2.14673,-0.19594 5.73455,-0.52914 6.86495,-0.63755 1.45688,-0.13972 1.62359,-0.0615 2.83872,1.33211 0.51292,0.58826 1.60114,1.82651 2.41826,2.75167 3.91462,4.43215 4.58149,5.22215 4.69121,5.55733 0.0645,0.19696 0.21599,1.024848 0.33671,1.839764 0.35214,2.377186 1.05448,7.15497 1.12705,7.666963 0.0814,0.574516 0.11235,0.618744 3.879425,5.548732 0.439112,0.574672 0.827404,1.176956 0.862868,1.338416 0.17194,0.782816 -0.68458,1.562736 -1.429192,1.30138 z m -10.370971,-9.204817 c 0.3124,-0.262868 0.33101,-0.316916 0.28236,-0.820208 -0.066,-0.682964 -0.47775,-2.465952 -0.64984,-2.81422 -0.11605,-0.23482 -0.41986,-1.133524 -0.70022,-2.071262 -0.0534,-0.178752 -0.0972,-0.402948 -0.0972,-0.498196 0,-0.153088 -0.72764,-0.803416 -1.89237,-1.691284 -0.21067,-0.1606 -0.54973,-0.439078 -0.75346,-0.618848 -0.20373,-0.17977 -0.54029,-0.41398 -0.74791,-0.52048 -0.20763,-0.10648 -0.43968,-0.26854 -0.51567,-0.3601 -0.076,-0.0916 -0.19813,-0.16649 -0.27139,-0.16649 -0.1578,0 -0.37032,0.77297 -0.36934,1.34332 0,0.221614 -0.0994,1.198074 -0.22179,2.16991 l -0.22249,1.766982 0.62518,1.090516 c 0.34385,0.599788 0.65574,1.171944 0.69309,1.271476 0.0847,0.225752 0.89718,0.823288 1.12557,0.827828 0.0931,0.0016 0.26178,0.07329 0.37476,0.158748 0.113,0.08546 0.26882,0.155384 0.34629,0.155384 0.0775,0 0.46127,0.151744 0.8529,0.337208 1.06965,0.506552 1.54521,0.70866 1.68289,0.715212 0.0683,0.0032 0.27467,-0.120724 0.45861,-0.275496 z m -20.72558,-15.626878 c -0.13892,-0.14786 -0.23012,-0.3814 -0.23012,-0.58925 0,-0.34033 0.36576,-0.91333 3.6899,-5.78038 0.43731,-0.64029 1.17901,-1.73566 1.64823,-2.43416 0.83956,-1.24981 0.86575,-1.27631 1.64687,-1.66689 1.80027,-0.90014 3.77714,-1.79496 4.07459,-1.84434 0.17462,-0.029 1.31762,0.0714 2.54,0.22301 1.22237,0.15163 2.67493,0.32641 3.22791,0.38839 1.11241,0.1247 1.38805,0.22686 2.18307,0.80909 1.66729,1.22102 2.7851,2.03177 3.31039,2.40102 0.32558,0.22886 0.81437,0.58605 1.0862,0.79375 0.27185,0.2077 0.80763,0.60385 1.19063,0.88034 1.35667,0.97937 2.09653,1.51624 3.02635,2.19604 0.5175,0.37836 1.24067,0.90223 1.607031,1.16417 1.1604,0.82963 1.566332,1.25347 1.566332,1.63544 0,0.43699 -0.373304,0.79873 -0.824272,0.79873 -0.293412,0 -1.335041,-0.3606 -2.297811,-0.79547 -0.58828,-0.26573 -4.9238,-2.06203 -4.97685,-2.06203 -0.0289,0 -0.25443,-0.0922 -0.50118,-0.20493 -0.24675,-0.11271 -0.7582,-0.33156 -1.13655,-0.48633 -0.37836,-0.15478 -0.83079,-0.34458 -1.00542,-0.42178 -0.64451,-0.28495 -2.91035,-1.2153 -2.95982,-1.2153 -0.0281,0 -0.34998,-0.13465 -0.71524,-0.29922 -0.36525,-0.16458 -0.94986,-0.41241 -1.2991,-0.55076 -0.34926,-0.13833 -0.74892,-0.30991 -0.88816,-0.38127 -0.20453,-0.10484 -0.29654,-0.10134 -0.47901,0.0182 -0.12423,0.0814 -1.21968,0.48878 -2.43435,0.90531 -1.75174,0.6007 -2.32024,0.84363 -2.74889,1.1747 -0.5719,0.44169 -1.93185,1.47124 -2.41703,1.82979 -0.15901,0.11751 -0.87338,0.66197 -1.5875,1.20992 -3.3129,2.54201 -3.32327,2.54914 -3.70314,2.54914 -0.24254,0 -0.43929,-0.0813 -0.59306,-0.24495 z"
       id="path179" /></g></svg>
