<?xml version="1.0" encoding="UTF-8" standalone="no"?>
<!-- Created with Inkscape (http://www.inkscape.org/) -->

<svg
   width="1000.0001"
   height="1000.0001"
   viewBox="0 0 264.58333 264.58333"
   version="1.1"
   id="svg5"
   xml:space="preserve"
   inkscape:version="1.2.2 (b0a8486541, 2022-12-01)"
   sodipodi:docname="test.svg"
   inkscape:export-filename="finished/1000x1000.png"
   inkscape:export-xdpi="96"
   inkscape:export-ydpi="96"
   xmlns:inkscape="http://www.inkscape.org/namespaces/inkscape"
   xmlns:sodipodi="http://sodipodi.sourceforge.net/DTD/sodipodi-0.dtd"
   xmlns="http://www.w3.org/2000/svg"
   xmlns:svg="http://www.w3.org/2000/svg"><sodipodi:namedview
     id="namedview7"
     pagecolor="#ffffff"
     bordercolor="#000000"
     borderopacity="0.25"
     inkscape:showpageshadow="2"
     inkscape:pageopacity="0.0"
     inkscape:pagecheckerboard="0"
     inkscape:deskcolor="#d1d1d1"
     inkscape:document-units="mm"
     showgrid="false"
     inkscape:lockguides="true"
     inkscape:zoom="0.35355339"
     inkscape:cx="694.37886"
     inkscape:cy="1144.0988"
     inkscape:window-width="1920"
     inkscape:window-height="1020"
     inkscape:window-x="0"
     inkscape:window-y="0"
     inkscape:window-maximized="1"
     inkscape:current-layer="layer1" /><defs
     id="defs2" /><g
     inkscape:label="Layer 1"
     inkscape:groupmode="layer"
     id="layer1"
     transform="translate(271.46249,218.81041)"><path
       style="fill:#05243c;fill-opacity:1;stroke-width:0.105833"
       d="m -187.7435,-26.780127 c -0.13671,-0.04881 -5.93096,-2.937732 -8.70763,-4.341472 -1.44431,-0.730176 -1.59619,-1.1622 -0.97792,-2.7818 0.2111,-0.552976 0.5691,-1.505476 0.79556,-2.116664 0.22646,-0.611188 0.57752,-1.539876 0.78013,-2.063752 0.20261,-0.523876 0.61209,-1.59098 0.90995,-2.371344 0.5884,-1.541516 0.83455,-1.969432 1.19662,-2.08028 0.12946,-0.03964 0.90213,-0.393816 1.71704,-0.787084 0.81492,-0.393256 2.1008,-1.012008 2.8575,-1.374984 2.41269,-1.157332 4.64624,-2.235676 4.98814,-2.40826 l 0.33147,-0.167312 -0.27855,-0.231372 c -0.15321,-0.127244 -0.61194,-0.436996 -1.01939,-0.688328 -0.40746,-0.251336 -0.83609,-0.538948 -0.9525,-0.639128 -0.11642,-0.100192 -0.64029,-0.453932 -1.16417,-0.7861 -1.88946,-1.198012 -2.11222,-1.377304 -4.81224,-3.873404 -0.72935,-0.674264 -1.87809,-1.722016 -2.55276,-2.328332 -2.58936,-2.327024 -5.35946,-4.848916 -5.92933,-5.39804 l -0.59433,-0.572696 -0.699,-2.116668 c -0.38445,-1.164168 -1.94399,-5.807604 -3.46565,-10.318748 -3.31401,-9.824756 -3.33424,-9.886924 -3.5456,-10.896584 -0.0919,-0.438901 -0.30675,-1.464757 -0.4775,-2.279673 -0.17075,-0.81492 -0.40348,-1.934108 -0.51718,-2.487088 -0.11371,-0.552976 -0.35183,-1.695974 -0.52917,-2.539994 -0.17734,-0.844024 -0.41546,-1.987026 -0.52917,-2.539996 -0.1137,-0.55298 -0.35205,-1.69598 -0.52968,-2.54 -0.17762,-0.84402 -0.36789,-1.7489 -0.42281,-2.01084 -0.0549,-0.26194 -0.17396,-0.80962 -0.26453,-1.21708 -0.32201,-1.4487 -0.37011,-1.77125 -0.30542,-2.04809 0.0689,-0.29467 1.11467,-2.79274 2.9607,-7.07207 0.60703,-1.40717 1.16995,-2.74629 1.25093,-2.97581 0.081,-0.22953 0.19742,-0.50696 0.25875,-0.61651 0.0613,-0.10956 0.52071,-1.1755 1.02085,-2.36877 0.50014,-1.19327 0.97496,-2.31246 1.05516,-2.48708 0.31556,-0.68704 2.38257,-5.53412 2.38257,-5.58705 0,-0.0514 4.63905,-10.5705 5.26055,-11.92837 0.14654,-0.32015 0.35636,-0.78449 0.46627,-1.03187 0.29048,-0.65379 0.59487,-1.33864 0.82319,-1.85209 0.11,-0.24738 0.41113,-0.90223 0.66918,-1.45521 0.25804,-0.55298 0.72764,-1.59535 1.04353,-2.31638 0.34377,-0.78466 0.66819,-1.3726 0.80807,-1.46449 0.29658,-0.19481 0.84121,-0.2679 5.40744,-0.72567 3.05835,-0.30661 3.80358,-0.3523 4.10787,-0.25188 0.30381,0.10027 0.95539,0.81953 3.56635,3.93678 1.75705,2.09775 4.23761,5.0577 5.51236,6.57766 1.27475,1.51996 2.40332,2.95524 2.50794,3.18949 0.11166,0.25006 0.2201,0.84002 0.2626,1.42876 0.0398,0.55155 0.1039,1.06259 0.1424,1.13565 0.0445,0.0844 0.4352,-0.31559 1.07092,-1.09621 1.29528,-1.59051 3.26701,-4.0091 5.12841,-6.29069 0.81491,-0.99888 1.62454,-1.93565 1.79917,-2.08171 0.17462,-0.14606 0.77247,-0.70083 1.32855,-1.23281 1.12452,-1.07579 1.48556,-1.41268 3.69853,-3.45106 0.84402,-0.77744 1.92783,-1.7896 2.40846,-2.24927 0.48065,-0.45966 1.089,-0.93089 1.35189,-1.04718 l 0.47799,-0.21144 1.82312,0.21483 c 1.00271,0.11816 2.70418,0.31371 3.78104,0.43457 4.23763,0.4756 4.42839,0.52551 4.72534,1.23619 0.16977,0.40631 0.12518,0.57566 -1.97289,7.49278 -1.02261,3.37143 -1.27079,4.20882 -1.27079,4.28785 0,0.077 0.56323,-0.068 2.27542,-0.58597 0.52388,-0.15848 1.23825,-0.37218 1.5875,-0.47491 0.34925,-0.10272 1.66396,-0.49885 2.92158,-0.88029 l 2.28658,-0.69354 10.90435,-0.43089 c 5.99739,-0.237 10.99299,-0.39881 11.10133,-0.35959 0.10835,0.0392 4.28379,1.87333 9.27876,4.07579 4.99498,2.20246 9.111407,4.00447 9.147635,4.00447 0.0362,0 0.271388,0.0952 0.522604,0.21167 0.251204,0.11641 0.671056,0.30691 0.932996,0.42333 0.261936,0.11641 0.678656,0.3033 0.92604,0.4153 0.247384,0.112 0.73554,0.32251 1.084792,0.4678 1.020848,0.42469 2.009712,1.01623 2.886436,1.72669 0.449748,0.36446 1.283268,1.03364 1.852252,1.48706 0.568992,0.45342 1.330992,1.06323 1.693332,1.35514 0.362352,0.29191 0.944564,0.74435 1.293812,1.00542 0.349252,0.26107 1.046068,0.80805 1.548468,1.2155 0.502412,0.40746 1.304768,1.0504 1.783016,1.42875 0.47824,0.37836 1.170032,0.92604 1.537304,1.21709 0.367276,0.29104 0.889752,0.69585 1.161068,0.89958 1.232776,0.9257 1.227148,0.91652 2.332884,3.81 0.211316,0.55298 0.68636,1.76742 1.055644,2.69875 0.369284,0.93133 0.843956,2.14577 1.054832,2.69875 0.210872,0.55298 0.52236,1.33879 0.6922,1.74625 0.169844,0.40746 0.48098,1.19327 0.69142,1.74625 0.21044,0.55298 0.684764,1.76742 1.054048,2.69875 0.369284,0.93133 0.843956,2.14577 1.054832,2.69875 0.210872,0.55298 0.522328,1.33879 0.692116,1.74625 0.1698,0.40746 0.603164,1.50283 0.96304,2.434164 0.359868,0.931332 0.858976,2.20036 1.109124,2.820054 0.250148,0.619688 0.528436,1.476936 0.618416,1.905 0.08998,0.428052 0.215256,0.960596 0.278396,1.183416 0.06313,0.222836 0.179228,0.699088 0.258,1.05834 0.07876,0.35926 0.746844,3.153505 1.484629,6.209441 0.737788,3.055944 1.38504,5.769488 1.43834,6.030112 0.0533,0.260628 0.188128,0.832128 0.299636,1.27 0.732872,2.87818 0.971908,4.02588 0.892724,4.28622 -0.08375,0.275356 -1.388936,2.476088 -1.633368,2.754088 -0.102364,0.11642 -0.742528,1.140356 -1.422601,2.27542 -0.680076,1.13506 -1.320728,2.159 -1.42366,2.275416 -0.102944,0.116416 -0.59796,0.902228 -1.100032,1.746248 l -0.912844,1.534584 -7.171732,7.161828 c -6.691788,6.682536 -7.207144,7.172472 -7.7009,7.32102 -0.29104,0.08756 -1.43404,0.476684 -2.54,0.8647 -1.105956,0.388016 -2.201332,0.768792 -2.434164,0.846168 -0.757132,0.251608 -4.965692,1.720904 -5.27666,1.842188 -0.166372,0.06489 -1.02362,0.259048 -1.905,0.431472 -0.881375,0.172424 -1.840635,0.363168 -2.131675,0.423872 -0.6052,0.12624 -2.79496,0.55024 -5.715,1.106596 -1.10596,0.210712 -2.20133,0.42712 -2.43416,0.480904 -0.23284,0.05378 -1.32821,0.268544 -2.43417,0.477248 -1.10596,0.2087 -2.43946,0.470196 -2.96333,0.581088 -0.52388,0.110892 -1.85738,0.372384 -2.96334,0.581088 -1.10596,0.208704 -2.20133,0.423524 -2.43416,0.477372 -0.23284,0.05385 -1.2165,0.249764 -2.18593,0.435364 l -1.76259,0.337472 -0.41855,-0.207084 c -0.41638,-0.206004 -0.48482,-0.20556 -13.2483,0.0855 l -12.82976,0.292584 -2.02828,0.680184 c -2.36937,0.794572 -13.76867,4.545752 -15.46909,5.090432 -0.77202,0.247292 -1.62762,0.427672 -2.54,0.535496 -0.75671,0.08942 -1.99496,0.234972 -2.75167,0.323448 -0.75671,0.08848 -2.92365,0.347896 -4.81542,0.576496 -1.89177,0.228588 -3.84439,0.4625 -4.33916,0.519812 -0.49477,0.05731 -1.7239,0.201728 -2.73139,0.320928 -1.96362,0.232336 -1.89972,0.228048 -2.13695,0.14334 z m 3.10812,-2.574376 c 3.03355,-0.36432 4.77797,-0.575128 6.52271,-0.788256 0.6694,-0.08177 2.74109,-0.322252 4.60376,-0.534416 1.97602,-0.225064 3.6732,-0.472396 4.07458,-0.593788 0.37835,-0.114436 3.49779,-1.133392 6.93208,-2.264356 3.43429,-1.13098 7.19667,-2.369176 8.36084,-2.751572 1.73614,-0.570272 2.18325,-0.7584 2.48708,-1.04648 0.20373,-0.193176 3.03742,-1.935872 6.29708,-3.872652 3.25967,-1.936784 6.67982,-3.97924 7.60033,-4.53878 6.79925,-4.13296 15.19753,-9.126176 15.64812,-9.303616 0.35242,-0.13878 0.42603,-0.134612 0.79375,0.04499 0.30767,0.150272 0.4413,0.30206 0.55472,0.630132 0.13577,0.392696 0.13094,0.469708 -0.0529,0.842856 -0.18258,0.370588 -0.53358,0.6074 -3.59477,2.42532 -1.86584,1.108052 -6.03303,3.582572 -9.26042,5.49894 -3.22739,1.916356 -5.96323,3.563516 -6.07965,3.660332 -0.11641,0.09682 -1.84575,1.14826 -3.84297,2.336536 l -3.63133,2.1605 0.61508,0.03048 c 0.33828,0.01676 5.7699,-0.08911 12.07028,-0.235268 6.30037,-0.146168 11.5222,-0.24004 11.60406,-0.208628 0.1293,0.04961 2.28811,-0.345252 6.99738,-1.279896 0.6985,-0.138632 2.77019,-0.541824 4.60376,-0.895996 1.83356,-0.354172 3.66712,-0.712344 4.07458,-0.795952 0.40746,-0.08361 2.36008,-0.4643 4.33916,-0.846 4.470507,-0.862204 4.252279,-0.806512 7.249587,-1.850144 1.367896,-0.476284 2.820456,-0.978844 3.227916,-1.116788 0.407456,-0.137952 1.574272,-0.540068 2.592916,-0.893604 l 1.852088,-0.64279 2.804584,-2.813008 c 1.54252,-1.547156 2.709332,-2.78624 2.592916,-2.75352 -0.116416,0.03272 -2.773988,0.636556 -5.9057,1.34184 l -5.694048,1.282332 -13.589359,-4.030484 c -10.79714,-3.202324 -13.71094,-4.030472 -14.18105,-4.030472 -0.5025,0 -2.07847,-0.212292 -5.45026,-0.734164 -0.37835,-0.05856 -1.85473,-0.276852 -3.28083,-0.4851 -3.83724,-0.560324 -8.20289,-1.203832 -9.06955,-1.336864 -0.90869,-0.1395 -1.17527,-0.365 -1.31829,-1.11522 -0.0899,-0.471836 -0.6073,-3.389288 -1.36359,-7.68954 -0.17247,-0.980644 -0.31357,-1.912928 -0.31357,-2.071764 0,-0.453432 0.2114,-0.60182 2.80458,-1.968564 0.52388,-0.276108 1.19063,-0.631592 1.48167,-0.789972 0.29104,-0.158368 0.91017,-0.492292 1.37583,-0.74206 0.46567,-0.249764 1.03717,-0.55828 1.27,-0.6856 2.78289,-1.521616 3.66285,-1.960316 3.9321,-1.960316 0.17033,0 0.56971,0.06766 0.88754,0.150344 0.59097,0.153768 8.43133,2.041028 11.95494,2.877696 4.03635,0.958404 3.76969,0.863736 6.84004,2.42842 1.56404,0.797052 3.27234,1.675668 3.79622,1.952476 0.52387,0.276808 1.905,0.991012 3.06916,1.58712 5.439083,2.785064 6.463295,3.314612 6.565023,3.394304 0.08718,0.06831 7.980392,2.365344 13.417464,3.904692 l 1.038332,0.29396 2.824584,-0.996048 c 1.553528,-0.547836 4.253348,-1.500072 5.999596,-2.116076 1.746252,-0.616 3.437648,-1.211792 3.75866,-1.323972 0.559244,-0.195432 0.61014,-0.245872 1.217084,-1.206184 1.859293,-2.941784 2.259625,-3.606556 2.266409,-3.76338 0.0059,-0.136164 -3.565133,-15.265 -4.168677,-17.660857 -0.08066,-0.320148 -0.225492,-0.915464 -0.321864,-1.32292 -0.09637,-0.40746 -0.343808,-1.16946 -0.549864,-1.693336 -0.20606,-0.523872 -0.484,-1.238246 -0.617644,-1.587498 -0.133648,-0.349248 -0.431928,-1.111248 -0.662844,-1.693332 -0.611592,-1.541684 -1.081948,-2.735704 -1.876024,-4.762504 -0.3877,-0.98954 -0.895172,-2.27541 -1.127708,-2.85749 -0.232536,-0.58209 -0.532152,-1.34409 -0.665796,-1.69334 -0.133648,-0.34925 -0.411988,-1.06362 -0.618544,-1.5875 -0.206556,-0.52387 -0.692764,-1.76212 -1.080452,-2.75166 -0.3877,-0.98955 -0.885412,-2.25161 -1.106032,-2.80459 -0.22062,-0.55298 -0.57838,-1.45785 -0.79502,-2.01083 -0.21664,-0.55298 -0.463996,-1.17586 -0.549656,-1.38418 -0.08876,-0.21585 -0.384664,-0.55727 -0.687916,-0.79375 -0.292684,-0.22824 -0.831068,-0.65311 -1.196404,-0.94415 -0.365336,-0.29105 -1.031684,-0.81492 -1.48078,-1.16417 -0.44908,-0.34925 -1.140892,-0.89694 -1.537344,-1.21708 -0.396452,-0.32015 -1.088264,-0.86784 -1.537344,-1.21709 -0.449096,-0.34925 -1.115356,-0.87312 -1.480588,-1.16416 -0.36524,-0.29105 -1.38882,-1.10067 -2.274624,-1.79917 -0.885812,-0.6985 -1.831392,-1.44977 -2.1013,-1.6695 -0.470184,-0.38276 -0.782268,-0.55354 -1.89302,-1.03588 -0.276488,-0.12007 -0.71702,-0.31707 -0.978956,-0.43779 -0.26194,-0.12072 -0.666752,-0.30173 -0.899584,-0.40224 -0.232832,-0.10052 -0.637648,-0.28048 -0.899584,-0.39991 -0.261936,-0.11943 -4.550283,-2.00809 -9.529643,-4.19703 l -9.0534,-3.97991 -10.68452,0.42541 c -8.43392,0.33581 -10.79598,0.46003 -11.21368,0.58977 -0.29105,0.0904 -0.91017,0.27705 -1.37584,0.41478 -0.46566,0.13773 -1.41816,0.42263 -2.11666,0.6331 -0.6985,0.21048 -1.67482,0.5031 -2.16959,0.65029 -0.49477,0.14718 -1.01865,0.30924 -1.16417,0.36014 -0.29883,0.10453 -1.76297,0.54097 -2.65758,0.7922 -0.65753,0.18466 -1.37986,0.63377 -5.27923,3.28238 -1.45683,0.98955 -3.04677,2.06111 -3.53321,2.38126 -0.48642,0.32014 -1.80068,1.2012 -2.92054,1.95791 -1.11986,0.75671 -2.35967,1.59015 -2.75512,1.85208 -0.39544,0.26194 -1.63338,1.09538 -2.75098,1.85209 -2.41682,1.63639 -3.17946,2.14688 -4.29519,2.87512 -1.41154,0.92131 -1.58707,1.07925 -3.62507,3.26193 -1.08634,1.16346 -2.14184,2.28633 -2.34558,2.49526 -0.20372,0.20894 -0.98858,1.04295 -1.74412,1.85337 -1.34857,1.44653 -1.87674,2.00894 -3.66161,3.89905 -0.49024,0.51914 -0.96279,1.0208 -1.0501,1.11478 -1.74447,1.87788 -4.61397,4.94414 -5.35137,5.71833 -0.52762,0.55393 -1.33621,1.41197 -1.79688,1.90674 -0.46068,0.49477 -0.87684,0.92774 -0.9248,0.96217 -0.048,0.0344 -0.30068,0.939304 -0.56159,2.010832 -1.92439,7.903299 -2.05748,8.392587 -2.36916,8.709559 -0.58331,0.593196 -1.67069,0.26596 -1.8388,-0.553372 -0.0335,-0.163428 0.15977,-1.168105 0.46137,-2.397941 1.51119,-6.162222 1.90386,-7.793048 1.9051,-7.912238 0.006,-0.57819 0.96434,-1.70757 5.45465,-6.42818 0.41527,-0.43656 1.11105,-1.17475 1.5462,-1.64041 0.43514,-0.46567 1.61919,-1.72773 2.63122,-2.80459 1.01203,-1.07685 2.13049,-2.26748 2.48546,-2.64583 0.35497,-0.37835 1.07147,-1.14127 1.59221,-1.69535 0.52074,-0.5541 1.58975,-1.69595 2.37556,-2.53748 0.78581,-0.84152 1.79369,-1.91218 2.23973,-2.37924 0.44604,-0.46705 0.91785,-0.98525 1.04847,-1.15156 0.13062,-0.16629 0.57102,-0.52348 0.97867,-0.79374 1.3762,-0.91237 2.16075,-1.43911 4.19979,-2.81971 2.31369,-1.56656 3.13086,-2.11385 4.24285,-2.84157 0.43133,-0.28228 0.86216,-0.56802 0.9574,-0.635 0.41246,-0.29005 4.2991,-2.91646 4.95695,-3.34968 0.39775,-0.26194 1.63532,-1.09538 2.75015,-1.85209 2.16312,-1.46823 2.98982,-2.02168 4.25303,-2.84725 0.77015,-0.50334 0.79957,-0.53831 0.97928,-1.16417 0.28199,-0.98209 0.80692,-2.72925 0.90932,-3.02649 0.0501,-0.14552 0.45647,-1.50284 0.90299,-3.01625 0.44651,-1.51342 0.94962,-3.20063 1.11801,-3.74937 0.16839,-0.54873 0.29475,-1.00694 0.2808,-1.01824 -0.014,-0.0113 -0.76354,-0.10349 -1.66578,-0.20485 -0.90222,-0.10136 -2.5691,-0.29065 -3.70416,-0.42065 l -2.06375,-0.23634 -0.69029,0.64514 c -2.03743,1.90418 -2.70516,2.52599 -5.71263,5.31978 -1.13507,1.05442 -2.39712,2.33061 -2.80458,2.83598 -0.40746,0.50538 -1.45521,1.79253 -2.32833,2.86034 -0.87313,1.06781 -2.23925,2.74305 -3.03582,3.72276 -0.79658,0.97971 -1.86633,2.29437 -2.37724,2.92147 -0.72514,0.89006 -1.01217,1.16512 -1.30844,1.25389 -0.53574,0.16051 -1.11804,-0.0908 -1.31775,-0.5688 -0.0855,-0.2047 -0.22663,-1.3875 -0.33729,-2.82733 l -0.19024,-2.4754 -3.67437,-4.39961 c -3.08849,-3.69808 -4.38909,-5.25134 -6.48294,-7.74236 l -0.22997,-0.2736 -3.38172,0.34986 c -1.85995,0.19242 -3.48172,0.35125 -3.60394,0.35296 -0.18344,0.002 -0.33812,0.26634 -0.88627,1.51124 -0.36522,0.82947 -0.82873,1.86532 -1.03003,2.30188 -0.50421,1.09353 -0.76822,1.67285 -0.98873,2.16958 -0.10335,0.23283 -0.33115,0.7329 -0.50621,1.11125 -0.61803,1.33576 -5.30946,11.97882 -5.30946,12.04514 0,0.0559 -1.80856,4.3176 -2.27656,5.36444 -0.0781,0.17463 -0.55563,1.29381 -1.06125,2.48709 -2.07355,4.8936 -3.35871,7.90838 -3.54157,8.30791 -0.10656,0.23284 -0.55341,1.26723 -0.99298,2.29866 l -0.79923,1.87533 0.21321,0.98217 c 0.41353,1.905 0.85018,3.95102 0.94366,4.42176 0.052,0.26194 0.28978,1.40494 0.52837,2.54 0.23858,1.135058 0.4767,2.278058 0.52916,2.539998 0.0525,0.261936 0.28986,1.404934 0.52755,2.539998 0.23769,1.13506 0.55366,2.659064 0.70216,3.386668 0.28095,1.376545 0.40942,1.772309 4.80981,14.816673 1.46288,4.33652 2.68366,7.9638 2.71284,8.060616 0.0489,0.162392 1.2314,1.26946 4.20953,3.941148 0.64252,0.576412 1.19203,1.076536 1.22114,1.1114 0.0291,0.03484 0.52916,0.490408 1.11124,1.012356 0.58209,0.521952 1.36831,1.23626 1.74717,1.587364 2.89285,2.680908 3.00388,2.769268 6.01523,4.786692 2.82499,1.892576 3.04709,2.02108 3.24427,1.876936 0.11641,-0.08511 0.33073,-0.211616 0.47625,-0.281128 0.14552,-0.06951 1.66359,-1.295136 3.37349,-2.7236 7.56238,-6.317676 6.82391,-5.660304 6.99835,-6.229792 0.0477,-0.155788 0.23949,-0.688056 0.42615,-1.182824 0.18666,-0.494772 0.49667,-1.328212 0.68891,-1.852084 0.19225,-0.523876 0.50046,-1.357312 0.68493,-1.852084 0.18447,-0.494772 0.37445,-1.018648 0.42219,-1.164168 0.0477,-0.14552 0.21415,-0.597956 0.36981,-1.005416 0.15565,-0.407456 0.47475,-1.264708 0.70911,-1.905 0.72399,-1.978076 0.80405,-2.195428 1.15013,-3.122084 0.18478,-0.494768 0.49325,-1.328208 0.6855,-1.85208 0.19224,-0.523876 0.50045,-1.357316 0.68492,-1.852084 0.18447,-0.494772 0.37446,-1.018648 0.42219,-1.164168 0.0477,-0.14552 0.20328,-0.574144 0.34562,-0.9525 0.67022,-1.781312 1.01458,-2.71708 1.0739,-2.918236 0.0356,-0.120724 0.20454,-0.353448 0.37541,-0.517148 0.61749,-0.591588 1.67486,-0.250784 1.84389,0.59432 0.0608,0.3039 0.003,0.493808 -0.89348,2.92044 -0.11285,0.305592 -0.30479,0.829468 -0.42652,1.164164 -0.12174,0.3347 -0.28715,0.775232 -0.36758,0.97896 -0.0804,0.203728 -0.38832,1.037168 -0.68419,1.852084 -0.29588,0.814916 -0.62761,1.719792 -0.73719,2.010832 -0.10958,0.291044 -0.51498,1.386416 -0.90088,2.434168 -1.02489,2.782664 -1.08915,2.957544 -1.33182,3.624792 -0.12174,0.334696 -0.28715,0.775228 -0.36758,0.978956 -0.0804,0.203732 -0.38832,1.037168 -0.6842,1.852084 -0.55148,1.518932 -0.61764,1.697652 -1.37458,3.713428 l -0.44063,1.173436 -1.43867,1.207812 c -1.54886,1.300324 -3.25184,2.7183 -4.18337,3.48324 -1.38811,1.139868 -5.04514,4.25268 -5.57715,4.747188 -0.58832,0.546848 -1.25124,0.905644 -4.92124,2.6636 -3.25093,1.557224 -4.05958,1.946952 -5.60917,2.70342 l -1.5875,0.774964 -0.28055,0.720204 c -0.52826,1.356116 -1.17688,3.048468 -1.41179,3.68354 -0.12918,0.349252 -0.40527,1.08744 -0.61352,1.640416 -0.20825,0.55298 -0.40469,1.12448 -0.43654,1.27 -0.0556,0.254044 0.099,0.34304 3.88225,2.234684 2.16708,1.08354 3.95767,1.976512 3.9791,1.984372 0.0214,0.0078 1.23585,-0.129464 2.69875,-0.30516 z m 87.061881,-47.377992 c -0.08731,-0.03064 -0.51594,-0.221128 -0.9525,-0.4233 -0.436564,-0.202164 -0.984252,-0.455848 -1.217084,-0.563732 -0.232832,-0.107888 -0.892307,-0.417016 -1.465507,-0.686964 -0.58731,-0.276596 -1.11568,-0.4626 -1.21059,-0.42618 -0.14978,0.05748 -1.08302,0.26054 -5.90409,1.284708 -1.50363,0.319436 -1.34101,0.362048 -3.18129,-0.83368 -0.64798,-0.421028 -1.47107,-0.956008 -1.82908,-1.18884 -0.35802,-0.232832 -1.01847,-0.669112 -1.46769,-0.969508 -0.44921,-0.300396 -1.24538,-0.8128 -1.76925,-1.13868 -1.48299,-0.922496 -2.09872,-1.376036 -2.32833,-1.715032 -0.11642,-0.171872 -0.94481,-2.525205 -1.84088,-5.229641 -0.89606,-2.70443 -1.6374,-4.928234 -1.64742,-4.94179 -0.01,-0.01356 -0.96756,-0.217444 -2.12788,-0.453086 -9.57725,-1.94499 -9.63462,-1.95741 -9.9257,-2.14813 -0.39752,-0.26045 -0.55636,-0.87785 -0.35182,-1.3674 0.17931,-0.42912 0.43867,-0.59149 1.65293,-1.03473 1.27539,-0.46555 4.23416,-1.57867 4.92743,-1.85376 0.34925,-0.13858 1.11125,-0.42781 1.69334,-0.64274 0.58208,-0.21494 1.36789,-0.50726 1.74624,-0.64961 0.37836,-0.14235 0.80698,-0.29722 0.9525,-0.34414 0.14553,-0.0469 0.71703,-0.26052 1.27,-0.47464 1.76792,-0.68459 2.14522,-0.78462 3.38667,-0.89794 2.14673,-0.19594 5.73455,-0.52914 6.86495,-0.63755 1.45688,-0.13972 1.62359,-0.0615 2.83872,1.33211 0.51292,0.58826 1.60114,1.82651 2.41826,2.75167 3.91462,4.43215 4.58149,5.22215 4.69121,5.55733 0.0645,0.19696 0.21599,1.024848 0.33671,1.839764 0.35214,2.377186 1.05448,7.15497 1.12705,7.666963 0.0814,0.574516 0.11235,0.618744 3.879425,5.548732 0.439112,0.574672 0.827404,1.176956 0.862868,1.338416 0.17194,0.782816 -0.68458,1.562736 -1.429192,1.30138 z m -10.370971,-9.204817 c 0.3124,-0.262868 0.33101,-0.316916 0.28236,-0.820208 -0.066,-0.682964 -0.47775,-2.465952 -0.64984,-2.81422 -0.11605,-0.23482 -0.41986,-1.133524 -0.70022,-2.071262 -0.0534,-0.178752 -0.0972,-0.402948 -0.0972,-0.498196 0,-0.153088 -0.72764,-0.803416 -1.89237,-1.691284 -0.21067,-0.1606 -0.54973,-0.439078 -0.75346,-0.618848 -0.20373,-0.17977 -0.54029,-0.41398 -0.74791,-0.52048 -0.20763,-0.10648 -0.43968,-0.26854 -0.51567,-0.3601 -0.076,-0.0916 -0.19813,-0.16649 -0.27139,-0.16649 -0.1578,0 -0.37032,0.77297 -0.36934,1.34332 0,0.221614 -0.0994,1.198074 -0.22179,2.16991 l -0.22249,1.766982 0.62518,1.090516 c 0.34385,0.599788 0.65574,1.171944 0.69309,1.271476 0.0847,0.225752 0.89718,0.823288 1.12557,0.827828 0.0931,0.0016 0.26178,0.07329 0.37476,0.158748 0.113,0.08546 0.26882,0.155384 0.34629,0.155384 0.0775,0 0.46127,0.151744 0.8529,0.337208 1.06965,0.506552 1.54521,0.70866 1.68289,0.715212 0.0683,0.0032 0.27467,-0.120724 0.45861,-0.275496 z m -20.72558,-15.626878 c -0.13892,-0.14786 -0.23012,-0.3814 -0.23012,-0.58925 0,-0.34033 0.36576,-0.91333 3.6899,-5.78038 0.43731,-0.64029 1.17901,-1.73566 1.64823,-2.43416 0.83956,-1.24981 0.86575,-1.27631 1.64687,-1.66689 1.80027,-0.90014 3.77714,-1.79496 4.07459,-1.84434 0.17462,-0.029 1.31762,0.0714 2.54,0.22301 1.22237,0.15163 2.67493,0.32641 3.22791,0.38839 1.11241,0.1247 1.38805,0.22686 2.18307,0.80909 1.66729,1.22102 2.7851,2.03177 3.31039,2.40102 0.32558,0.22886 0.81437,0.58605 1.0862,0.79375 0.27185,0.2077 0.80763,0.60385 1.19063,0.88034 1.35667,0.97937 2.09653,1.51624 3.02635,2.19604 0.5175,0.37836 1.24067,0.90223 1.607031,1.16417 1.1604,0.82963 1.566332,1.25347 1.566332,1.63544 0,0.43699 -0.373304,0.79873 -0.824272,0.79873 -0.293412,0 -1.335041,-0.3606 -2.297811,-0.79547 -0.58828,-0.26573 -4.9238,-2.06203 -4.97685,-2.06203 -0.0289,0 -0.25443,-0.0922 -0.50118,-0.20493 -0.24675,-0.11271 -0.7582,-0.33156 -1.13655,-0.48633 -0.37836,-0.15478 -0.83079,-0.34458 -1.00542,-0.42178 -0.64451,-0.28495 -2.91035,-1.2153 -2.95982,-1.2153 -0.0281,0 -0.34998,-0.13465 -0.71524,-0.29922 -0.36525,-0.16458 -0.94986,-0.41241 -1.2991,-0.55076 -0.34926,-0.13833 -0.74892,-0.30991 -0.88816,-0.38127 -0.20453,-0.10484 -0.29654,-0.10134 -0.47901,0.0182 -0.12423,0.0814 -1.21968,0.48878 -2.43435,0.90531 -1.75174,0.6007 -2.32024,0.84363 -2.74889,1.1747 -0.5719,0.44169 -1.93185,1.47124 -2.41703,1.82979 -0.15901,0.11751 -0.87338,0.66197 -1.5875,1.20992 -3.3129,2.54201 -3.32327,2.54914 -3.70314,2.54914 -0.24254,0 -0.43929,-0.0813 -0.59306,-0.24495 z"
       id="path179" /></g></svg>
