<?xml version="1.0" encoding="UTF-8" standalone="no"?>
<!-- Created with Inkscape (http://www.inkscape.org/) -->

<svg
   width="180"
   height="180"
   viewBox="0 0 47.625 47.625"
   version="1.1"
   id="svg5"
   xml:space="preserve"
   inkscape:version="1.2.2 (b0a8486541, 2022-12-01)"
   sodipodi:docname="180x180.svg"
   inkscape:export-filename="finished/180x180.png"
   inkscape:export-xdpi="96"
   inkscape:export-ydpi="96"
   xmlns:inkscape="http://www.inkscape.org/namespaces/inkscape"
   xmlns:sodipodi="http://sodipodi.sourceforge.net/DTD/sodipodi-0.dtd"
   xmlns="http://www.w3.org/2000/svg"
   xmlns:svg="http://www.w3.org/2000/svg"><sodipodi:namedview
     id="namedview7"
     pagecolor="#ffffff"
     bordercolor="#000000"
     borderopacity="0.25"
     inkscape:showpageshadow="2"
     inkscape:pageopacity="0.0"
     inkscape:pagecheckerboard="0"
     inkscape:deskcolor="#d1d1d1"
     inkscape:document-units="mm"
     showgrid="false"
     inkscape:lockguides="true"
     inkscape:zoom="0.35355339"
     inkscape:cx="694.37886"
     inkscape:cy="1144.0988"
     inkscape:window-width="1920"
     inkscape:window-height="1020"
     inkscape:window-x="0"
     inkscape:window-y="0"
     inkscape:window-maximized="1"
     inkscape:current-layer="layer1" /><defs
     id="defs2" /><g
     inkscape:label="Layer 1"
     inkscape:groupmode="layer"
     id="layer1"
     transform="translate(271.46249,218.81041)"><path
       id="path184"
       style="fill:#ffffff;stroke-width:0.0883883"
       transform="matrix(0.26458333,0,0,0.26458333,-271.46249,-218.81041)"
       d="m 79.408203,50.359375 c -0.03985,-0.682873 -3.428556,2.417472 -1.259765,0.617187 -0.454729,0.390778 -1.146204,1.027979 -2.240235,2.050782 -0.751142,0.702238 -1.47987,1.388593 -2.048828,1.93164 -0.568958,0.543048 -0.946292,0.904564 -1.113281,1.085938 -0.166606,0.180956 -0.557744,0.652546 -1.15625,1.376953 -0.598506,0.724407 -1.367098,1.664034 -2.164063,2.642578 -0.794488,0.975505 -1.538793,1.877543 -2.095703,2.542969 -0.278455,0.332713 -0.511749,0.606928 -0.677734,0.798828 -0.08299,0.09595 -0.148668,0.17161 -0.19336,0.220703 -9.11e-4,10e-4 -0.0011,9.73e-4 -0.002,0.002 -0.01699,-0.0021 -0.15984,-0.0053 -0.173828,-0.01758 -0.07618,-0.06676 0.02772,0.11603 -0.0039,-0.03516 -0.03163,-0.151186 -0.0752,-0.545043 -0.140625,-1.277344 -0.07634,-0.854455 -0.146117,-1.607719 -0.183594,-1.867187 -0.0526,-0.364097 -0.155441,-0.409337 -0.287109,-0.601563 C 65.5363,59.637852 65.35382,59.393813 65.095703,59.066406 64.57947,58.411593 63.767535,57.42502 62.535156,55.951172 60.756041,53.82346 59.202488,51.968023 59.017578,51.751953 a 0.65348496,0.65348496 0 0 0 -0.002,0 l -0.279297,-0.324219 a 0.65348496,0.65348496 0 0 0 -0.558594,-0.224609 l -2.357422,0.236328 c -0.654312,0.06551 -1.259091,0.134875 -1.71289,0.195313 -0.226899,0.03022 -0.414511,0.05849 -0.560547,0.08398 -0.07302,0.01275 -0.135481,0.02413 -0.197266,0.03906 -0.03089,0.0075 -0.05935,0.01401 -0.103515,0.0293 -0.04417,0.01529 -0.08459,-0.01908 -0.271485,0.167969 -0.113685,0.113759 -0.107875,0.133999 -0.132812,0.175781 -0.02494,0.04178 -0.04835,0.0838 -0.07422,0.132813 -0.05174,0.09803 -0.112276,0.223288 -0.1875,0.378906 -0.150448,0.311236 -0.35234,0.744399 -0.599609,1.285156 -0.494539,1.081516 -1.170744,2.591178 -1.960938,4.38086 -1.580386,3.579363 -3.61974,8.275118 -5.580078,12.86914 l -3.287109,7.707032 a 0.65348496,0.65348496 0 0 0 -0.03711,0.390625 l 0.619141,2.945312 c 0.341168,1.618406 0.862282,4.116583 1.158203,5.548828 0.297148,1.438182 0.60929,2.882396 0.71875,3.314453 0.09089,0.358791 0.408327,1.327098 0.882813,2.765625 0.474486,1.438528 1.085874,3.266441 1.693359,5.070313 0.607485,1.803871 1.212689,3.582151 1.673828,4.921881 0.23057,0.66986 0.424037,1.23048 0.566406,1.63086 0.07118,0.20018 0.12959,0.35894 0.173828,0.47656 0.02212,0.0588 0.04114,0.10803 0.05859,0.15039 0.0087,0.0212 0.01561,0.0394 0.02734,0.0645 0.01173,0.025 -0.01156,0.0243 0.09961,0.15821 0.119047,0.14344 0.256885,0.27334 0.490235,0.49804 0.233349,0.2247 0.53852,0.5123 0.892578,0.8418 0.708115,0.65901 1.615139,1.48854 2.533203,2.32031 0.918064,0.83178 1.845553,1.66433 2.599609,2.33008 0.754056,0.66575 1.294159,1.13765 1.578125,1.34766 0.50448,0.37308 1.400526,0.97962 2.201172,1.5039 0.400323,0.26214 0.77484,0.50179 1.0625,0.67969 0.14383,0.0889 0.263915,0.16057 0.363281,0.2168 0.04968,0.0281 0.09257,0.0528 0.140626,0.0762 0.02403,0.0117 0.04964,0.0226 0.08789,0.0371 0.03825,0.0145 0.0573,0.0488 0.25,0.0488 0.249624,0 0.272013,-0.05 0.335938,-0.0781 0.06392,-0.0281 0.117667,-0.0588 0.175781,-0.0918 0.116227,-0.066 0.241978,-0.14615 0.367187,-0.23632 0.172682,-0.12437 0.492677,-0.38411 0.97461,-0.77735 0.481933,-0.39323 1.092783,-0.89719 1.730468,-1.42578 1.275372,-1.05717 2.650561,-2.20884 3.310547,-2.78125 0.434174,-0.37656 0.681491,-0.58711 0.888672,-0.84961 0.207182,-0.26249 0.311337,-0.53501 0.419922,-0.85156 0.09379,-0.27342 1.316221,-3.61256 2.660156,-7.25781 1.349173,-3.659464 2.0179,-5.474858 2.392579,-6.27735 0.157639,-0.337633 0.217581,-0.383086 0.205078,-0.384765 0.158191,0.0254 0.149452,0.02583 0.136718,0.105468 0.02279,-0.142494 -0.01392,0.04336 -0.06836,0.207032 -0.05444,0.163675 -0.136374,0.396925 -0.242187,0.697265 -0.211627,0.60068 -0.522168,1.466356 -0.927735,2.580078 -0.811133,2.227452 -2.001082,5.452682 -3.53125,9.576172 l -0.716797,1.92969 -2.958984,2.4707 c -1.703056,1.42122 -3.419743,2.8647 -3.859375,3.25 -0.399577,0.3502 -0.934831,0.78333 -1.070313,0.87696 0.04551,-0.0315 -0.142313,0.0811 -0.367187,0.19922 -0.224875,0.11814 -0.530426,0.27646 -0.892578,0.45898 -0.724305,0.36504 -1.67595,0.83342 -2.673828,1.31641 -1.00275,0.48534 -1.925428,0.9388 -2.607422,1.27929 -0.340998,0.17025 -0.62151,0.31073 -0.824219,0.41602 -0.101355,0.0526 -0.183501,0.0971 -0.248047,0.13281 -0.03227,0.0179 -0.05842,0.0328 -0.08789,0.0508 -0.02947,0.018 -0.01446,-0.0326 -0.167968,0.13281 -0.12617,0.13597 -0.105822,0.14667 -0.125,0.1836 -0.01918,0.0369 -0.03446,0.0712 -0.05273,0.11133 -0.03656,0.0803 -0.07981,0.17966 -0.130859,0.30273 -0.102092,0.24614 -0.236646,0.58419 -0.396484,0.99414 -0.319677,0.81991 -0.740626,1.92782 -1.189454,3.13867 -0.06196,0.16716 -0.10821,0.3113 -0.130859,0.48047 -0.02265,0.16918 -0.06293,0.44502 0.212891,0.72071 0.115465,0.11544 0.112622,0.0902 0.136718,0.10546 0.0241,0.0152 0.04583,0.0269 0.07031,0.041 0.04897,0.0283 0.10815,0.0616 0.181641,0.10156 0.146981,0.08 0.348362,0.18708 0.591796,0.31446 0.48687,0.25475 1.142219,0.59115 1.853516,0.95117 a 0.65348496,0.65348496 0 0 0 0,0.002 l 2.580078,1.30469 a 0.65348496,0.65348496 0 0 0 0.373047,0.0644 l 0.59375,-0.0723 a 0.65348496,0.65348496 0 0 0 0.002,0 c 0.314336,-0.0386 2.779537,-0.33194 5.453125,-0.64844 1.337898,-0.15838 2.61879,-0.31358 3.605469,-0.43555 0.986679,-0.12196 1.632012,-0.20177 1.861328,-0.24023 0.186397,-0.0313 0.295797,-0.0721 0.554688,-0.14844 0.25889,-0.0763 0.601851,-0.17957 1.011718,-0.30664 0.819735,-0.25415 1.905678,-0.59863 3.089844,-0.97852 2.368332,-0.75977 5.132208,-1.66341 6.960938,-2.28515 0.605277,-0.20578 1.260792,-0.55143 2.083984,-1.07422 0.644618,-0.40938 5.149642,-3.12203 9.556641,-5.76367 2.203499,-1.32083 4.393422,-2.63078 6.091797,-3.64258 1.698374,-1.0118 2.952618,-1.75224 3.126948,-1.84766 0.38793,-0.21233 0.57665,-0.23947 0.59961,-0.24805 0.0122,0.0199 0.0112,0.0106 0.0312,0.0586 0.0482,0.11547 0.0323,0.11157 0.0332,0.041 9.2e-4,-0.0705 0.0225,-0.0874 -0.0273,0.0176 -0.0359,0.0757 0.0153,0.008 -0.0547,0.0703 -0.07,0.0627 -0.26043,0.20449 -0.63476,0.44336 -0.74868,0.47776 -2.224199,1.35389 -5.111328,3.06641 -2.650671,1.57227 -5.425719,3.23097 -6.195312,3.70313 -0.749133,0.4596 -2.31578,1.4082 -3.47461,2.10351 l -2.111328,1.26563 A 0.65348496,0.65348496 0 0 0 84.697266,124 h 0.960937 c 0.475556,1.5e-4 3.206821,-0.0525 6.316406,-0.11523 3.109586,-0.0627 6.553316,-0.13737 8.318361,-0.18165 0.9615,-0.0241 1.68883,-0.10308 2.58789,-0.2832 0.64603,-0.12942 4.13861,-0.81349 7.74219,-1.51562 1.80381,-0.35146 3.52545,-0.6938 4.84961,-0.96485 1.32416,-0.27104 2.16078,-0.44292 2.49804,-0.54101 0.47814,-0.13907 2.1597,-0.70393 3.86524,-1.29297 l 3.09375,-1.06836 a 0.65348496,0.65348496 0 0 0 0.25,-0.15625 l 1.85547,-1.86328 c 0.5146,-0.51646 0.96237,-0.97909 1.27539,-1.31641 0.15651,-0.16866 0.27776,-0.30408 0.36718,-0.41211 0.0447,-0.054 0.0768,-0.0909 0.12696,-0.17187 0.0251,-0.0405 0.0795,-0.0339 0.10547,-0.30469 0.003,-0.0339 4e-5,-0.12256 0,-0.12305 -5e-5,-4.8e-4 -0.0389,-0.17149 -0.0391,-0.17187 -1.4e-4,-3.9e-4 -0.11498,-0.19698 -0.11523,-0.19727 -2.5e-4,-2.8e-4 -0.18911,-0.1502 -0.18945,-0.15039 -3.5e-4,-1.8e-4 -0.18705,-0.0663 -0.1875,-0.0664 -4.5e-4,-9e-5 -0.14203,-0.0117 -0.14258,-0.0117 -0.001,3e-5 -0.1276,0.0162 -0.16602,0.0273 0.0833,-0.0242 -0.12025,0.0274 -0.33008,0.0762 -0.20982,0.0487 -0.50278,0.11808 -0.85742,0.19922 -0.70927,0.16228 -1.6649,0.37892 -2.69336,0.61133 l -3.57617,0.80664 -7.14258,-2.11523 c -5.25171,-1.55555 -8.01085,-2.37059 -9.58789,-2.8125 -1.57704,-0.44192 -2.02634,-0.52024 -2.52148,-0.57227 -0.54423,-0.0572 -3.589208,-0.49784 -6.447268,-0.92773 -1.429029,-0.21495 -2.826905,-0.42842 -3.878906,-0.59375 -0.526,-0.0827 -0.964809,-0.1528 -1.277344,-0.20508 -0.156267,-0.0261 -0.280886,-0.0489 -0.365234,-0.0645 -0.01435,-0.003 -0.01937,-0.004 -0.03125,-0.006 -0.008,-0.0344 -0.01332,-0.059 -0.02344,-0.10546 -0.03674,-0.1686 -0.08497,-0.40816 -0.140625,-0.69336 -0.111313,-0.57041 -0.251994,-1.32447 -0.390625,-2.09766 -0.277264,-1.54637 -0.556565,-3.25993 -0.580079,-3.52539 -0.01914,-0.21602 -0.01727,-0.21417 -0.02539,-0.21289 0.0071,-0.005 0.0038,-0.002 0.01172,-0.008 -0.06803,0.0504 0.109579,-0.0659 0.302734,-0.17578 0.193155,-0.10991 0.456389,-0.25726 0.765625,-0.42774 0.618472,-0.340951 1.420565,-0.777126 2.226562,-1.210936 0.805998,-0.433811 1.616716,-0.865398 2.251954,-1.199219 0.317618,-0.166911 0.590986,-0.309214 0.796875,-0.414063 0.205888,-0.104848 0.382292,-0.186384 0.355468,-0.175781 0.132315,-0.0523 -0.02653,-0.01195 -0.0078,-0.01172 0.01872,2.28e-4 0.207498,0.02047 0.597656,0.103516 0.780317,0.1661 2.394349,0.557719 5.769527,1.373047 1.24909,0.301736 2.44069,0.599001 3.34961,0.832031 0.45447,0.116515 0.83903,0.215672 1.12305,0.292969 0.28402,0.0773 0.5146,0.152056 0.48047,0.138672 0.34543,0.135464 2.0056,0.963824 7.92578,4.015624 0.82497,0.42527 1.61442,0.82605 2.22656,1.13086 0.30607,0.15241 0.56702,0.28077 0.76758,0.37695 0.20056,0.0962 0.29625,0.14687 0.44336,0.19922 0.11283,0.0402 0.25584,0.083 0.5332,0.16602 0.27737,0.083 0.6525,0.19288 1.09961,0.32422 0.89423,0.26267 2.07631,0.60642 3.33008,0.96875 l 4.55469,1.3164 a 0.65348496,0.65348496 0 0 0 0.39844,-0.01 l 3.88476,-1.36524 c 2.50285,-0.88019 3.7217,-1.30789 4.36328,-1.55078 0.3208,-0.12144 0.49743,-0.19389 0.6543,-0.28125 0.15687,-0.0874 0.29851,-0.2295 0.33398,-0.26758 0.11093,-0.11906 0.10766,-0.13674 0.16407,-0.21875 0.0564,-0.082 0.12691,-0.18501 0.20703,-0.30664 0.16024,-0.24324 0.36226,-0.55643 0.57031,-0.88281 0.41609,-0.65275 0.8428,-1.33795 1.02344,-1.6582 4.9e-4,-8.7e-4 0.0501,-0.10467 0.0605,-0.14063 0.0104,-0.036 0.016,-0.0633 0.0195,-0.0859 0.007,-0.0453 0.007,-0.0734 0.008,-0.0977 0.001,-0.0485 -0.001,-0.0806 -0.004,-0.11133 -0.005,-0.0614 -0.0114,-0.11837 -0.0215,-0.18555 -0.0201,-0.13434 -0.0504,-0.30312 -0.0899,-0.50586 -0.079,-0.40547 -0.19442,-0.940953 -0.32812,-1.517574 -0.47287,-2.0393 -1.08763,-4.633559 -1.60938,-6.806641 -0.52174,-2.173082 -0.93332,-3.863541 -1.05859,-4.296875 -0.0862,-0.298305 -0.31792,-0.91505 -0.67187,-1.847656 -0.35396,-0.932606 -0.81376,-2.120254 -1.29297,-3.337891 -0.95652,-2.430406 -2.37161,-6.030845 -3.14649,-8 -1.22681,-3.11762 -1.44373,-3.691334 -1.88476,-4.126953 -0.12113,-0.119636 -0.2405,-0.211126 -0.48243,-0.410156 -0.24192,-0.19903 -0.5658,-0.463364 -0.95312,-0.775391 -0.77464,-0.624053 -1.79588,-1.438533 -2.87891,-2.294922 -3.59977,-2.846489 -4.10402,-3.210636 -5.03125,-3.654296 -0.60658,-0.290251 -4.07083,-1.827174 -7.83984,-3.484375 l -6.84961,-3.011719 a 0.65348496,0.65348496 0 0 0 -0.28906,-0.05469 l -5.259768,0.210938 c -7.679677,0.309876 -9.035166,0.360946 -9.810546,0.554687 -0.38156,0.09534 -1.811251,0.520273 -3.345704,0.984375 -0.765317,0.231475 -1.481334,0.446195 -2.017578,0.607422 -0.536244,0.161228 -0.934371,0.28061 -0.929687,0.279297 -0.236715,0.06636 -0.425457,0.159946 -0.648438,0.271485 -0.117732,0.05889 -0.180593,0.101811 -0.322265,0.191406 -0.141673,0.0896 -0.325748,0.210682 -0.550782,0.357422 -0.450067,0.293479 -1.05806,0.693705 -1.771484,1.167968 -1.426847,0.948526 -3.276947,2.189507 -5.123047,3.433594 -1.846099,1.244087 -3.687349,2.492284 -5.099609,3.457031 -0.70613,0.482374 -1.305042,0.89349 -1.744141,1.199219 -0.219549,0.152865 -0.399964,0.278013 -0.535156,0.375 -0.135192,0.09699 -0.194563,0.135556 -0.296875,0.226563 -0.124023,0.110318 -0.273901,0.267285 -0.544922,0.546875 -0.271021,0.279589 -0.631905,0.653557 -1.05664,1.099609 -0.849471,0.892105 -1.95641,2.065867 -3.119141,3.306641 -2.323052,2.478976 -5.118946,5.457575 -6.208985,6.615234 l -1.984374,2.107422 a 0.65348496,0.65348496 0 0 0 -0.158204,0.291016 l -0.777343,3.15039 c -0.411416,1.665478 -0.654627,2.626148 -0.816407,3.175781 -0.147441,0.500921 -0.193591,0.554726 -0.216796,0.583985 -0.05669,-0.0017 -0.110836,-0.02619 -0.142579,-0.04102 0.0011,-0.02588 0.0035,0.0083 0.01563,-0.121094 -0.0028,0.02985 0.09923,-0.536797 0.244141,-1.189453 0.144907,-0.652655 0.338386,-1.48874 0.546875,-2.347656 0.209455,-0.862892 0.405107,-1.668221 0.550781,-2.269531 0.145674,-0.60131 0.229513,-0.940649 0.25586,-1.060547 -0.04701,0.213887 -0.01221,0.04468 0.08789,-0.09375 0.100097,-0.138427 0.257153,-0.336488 0.460938,-0.578125 0.407569,-0.483274 1.002742,-1.144101 1.74414,-1.931641 2.511428,-2.667727 5.124288,-5.451282 7.128907,-7.591797 1.002309,-1.070257 1.852452,-1.979525 2.460937,-2.632812 0.304242,-0.326644 0.549567,-0.589833 0.722656,-0.777344 0.08655,-0.09376 0.154353,-0.168823 0.205079,-0.224609 0.05072,-0.05579 0.05767,-0.05715 0.117187,-0.132813 -0.05869,0.07461 0.01717,-0.01627 0.283203,-0.208984 0.26603,-0.19272 0.723514,-0.512445 1.490234,-1.035156 1.533442,-1.045424 4.307332,-2.91119 9.332032,-6.289063 1.192576,-0.801713 2.290974,-1.549432 3.103515,-2.107422 0.406271,-0.278995 0.740226,-0.510411 0.980469,-0.679687 0.120121,-0.08464 0.217972,-0.153419 0.291016,-0.207032 0.03652,-0.02681 0.06543,-0.05014 0.09375,-0.07227 0.02832,-0.02213 0.0268,-2.48e-4 0.125,-0.111328 0.150823,-0.170614 0.117422,-0.178142 0.138672,-0.226563 0.02125,-0.04842 0.03887,-0.09845 0.06055,-0.15625 0.04335,-0.115597 0.09519,-0.265091 0.158204,-0.453125 0.126033,-0.376067 0.295932,-0.90322 0.501953,-1.564453 0.412041,-1.322466 0.972146,-3.175939 1.623047,-5.376953 0.01005,-0.03398 0.04218,-0.108365 0.03711,-0.269531 -0.0051,-0.161166 -0.111078,-0.400239 -0.238281,-0.515625 -0.254407,-0.230772 -0.395661,-0.209845 -0.585938,-0.246094 -0.380553,-0.0725 -0.999854,-0.139204 -2.25,-0.277344 -0.557444,-0.0616 -1.085754,-0.122152 -1.486328,-0.169922 -0.200287,-0.02388 -0.369763,-0.04275 -0.492187,-0.05859 -0.122425,-0.01585 -0.249973,-0.04077 -0.179688,-0.02539 z m 25.324217,21.6875 c 0.36975,-0.02478 1.01532,0.04408 2.35156,0.203125 0.65525,0.07799 1.15157,0.147966 1.5,0.208984 0.34844,0.06102 0.57275,0.134708 0.55664,0.126954 -0.0587,-0.02828 0.0152,0.01108 0.0879,0.05859 0.0726,0.04752 0.17407,0.114828 0.29687,0.199219 0.2456,0.168782 0.57845,0.40199 0.9668,0.677734 0.77669,0.551488 1.77595,1.274154 2.77148,1.998047 0.99553,0.723894 1.98714,1.449943 2.74414,2.013672 0.3785,0.281865 0.69888,0.523542 0.92969,0.701172 0.0686,0.05277 0.11065,0.08643 0.16211,0.126953 0.0154,0.0026 -0.39895,-0.149855 -0.94531,-0.36914 -0.56434,-0.226497 -1.32457,-0.534842 -2.19532,-0.892579 -1.74148,-0.715473 -3.92431,-1.623168 -5.87304,-2.445312 -0.34414,-0.14519 -0.66503,-0.277832 -0.90821,-0.375 -0.12159,-0.04858 -0.22266,-0.08737 -0.30273,-0.117188 -0.04,-0.01491 -0.0745,-0.02753 -0.10938,-0.03906 -0.0174,-0.0058 -0.0348,-0.01255 -0.0605,-0.01953 -0.0129,-0.0035 -0.0268,-0.007 -0.0508,-0.01172 -0.0239,-0.0048 -0.13159,-0.01367 -0.13282,-0.01367 -0.22852,0 -0.18578,0.02528 -0.22851,0.03711 -0.0427,0.01183 -0.0867,0.02494 -0.13672,0.04102 -0.10013,0.03216 -0.22569,0.07534 -0.37305,0.126953 -0.29472,0.103215 -0.67282,0.239683 -1.05859,0.382813 -0.38577,0.14313 -0.77725,0.291046 -1.09766,0.416015 -0.3204,0.124969 -0.52914,0.20421 -0.70312,0.292969 -0.13396,0.06834 -0.2097,0.124218 -0.35352,0.222656 -0.14381,0.09844 -0.32357,0.224828 -0.52929,0.373047 -0.41146,0.296439 -0.9266,0.680352 -1.45313,1.080078 -1.044514,0.79297 -2.179641,1.653388 -2.515624,1.90625 -0.153513,0.115535 -0.173054,0.0972 -0.28125,0.150391 0.02734,-0.05009 0.02204,-0.0513 0.05859,-0.113281 0.29343,-0.497557 0.880932,-1.379427 1.929688,-2.921875 1.078736,-1.586534 1.538876,-2.283111 1.900396,-2.628907 0.36152,-0.345796 0.73269,-0.480232 1.8457,-0.984375 0.64637,-0.292779 0.83727,-0.387332 1.20703,-0.412109 z m 4.26563,6.658203 c 0.0664,0.0075 0.0487,-0.0096 0.17578,0.08984 0.25422,0.198869 0.85042,0.875842 2.13867,2.335937 1.43762,1.629397 2.2492,2.558624 2.69531,3.105469 0.44611,0.546845 0.47727,0.645761 0.48828,0.69336 -0.008,-0.0333 0.0826,0.475838 0.17774,1.085937 0.0952,0.610099 0.21618,1.406702 0.33984,2.242187 0.12466,0.84228 0.25244,1.635974 0.35938,2.242188 0.0535,0.303107 0.10161,0.559513 0.14257,0.755859 0.0205,0.09817 0.0401,0.179361 0.0586,0.251953 0.0185,0.07259 0.008,0.09883 0.0879,0.253907 0.073,0.141252 0.11336,0.187399 0.20312,0.316406 0.0898,0.129007 0.20728,0.291554 0.34571,0.482422 0.27686,0.381735 0.63843,0.869418 1.01953,1.375 0.3753,0.497882 0.72992,0.983667 0.99609,1.359375 0.13309,0.187854 0.2441,0.349068 0.32227,0.466797 0.0782,0.117729 0.14251,0.256118 0.0957,0.144531 0.0291,0.06947 0.015,0.04551 0.0195,0.03125 0.004,-0.01426 -0.002,0.02143 -0.10351,0.101562 -0.10099,0.07944 0.045,0.03784 -0.043,0.02344 -0.088,-0.0144 -0.39125,-0.122809 -0.90039,-0.365234 -0.68994,-0.328515 -1.22415,-0.573878 -1.61719,-0.742188 -0.19652,-0.08415 -0.35653,-0.148712 -0.49219,-0.197266 -0.13566,-0.04855 -0.19815,-0.0916 -0.42578,-0.101562 -0.19157,-0.0084 -0.15609,0.0078 -0.20703,0.01563 -0.0509,0.0079 -0.11001,0.01825 -0.18164,0.03125 -0.14327,0.026 -0.33258,0.06186 -0.56055,0.107422 -0.45593,0.09112 -1.06197,0.217772 -1.70898,0.357422 -0.944,0.203749 -1.53973,0.324341 -1.90235,0.382812 -0.34643,0.05586 -0.43745,0.03134 -0.375,0.05078 -0.0407,-0.02269 -0.0994,-0.0554 -0.17382,-0.09961 -0.15734,-0.09345 -0.37764,-0.227804 -0.63672,-0.388672 -0.51817,-0.321734 -1.19638,-0.752575 -1.88477,-1.193359 -0.68838,-0.440784 -1.38662,-0.892651 -1.94726,-1.261719 -0.56065,-0.369068 -1.01531,-0.682404 -1.0918,-0.742187 0.0527,0.04118 -0.0732,-0.07632 -0.30273,-0.667969 -0.22956,-0.591647 -0.57434,-1.603361 -1.13282,-3.285156 -0.26259,-0.790775 -0.50571,-1.513477 -0.68359,-2.041016 -0.0889,-0.26377 -0.16075,-0.479203 -0.21289,-0.630859 -0.0261,-0.07583 -0.0467,-0.135273 -0.0625,-0.179688 -0.008,-0.02221 -0.0147,-0.04051 -0.0215,-0.05859 -0.003,-0.009 -0.008,-0.01648 -0.0137,-0.03125 -0.003,-0.0074 -0.006,-0.01599 -0.0137,-0.0332 -0.004,-0.0086 -0.009,-0.02064 -0.0195,-0.03906 -0.01,-0.01802 -0.0677,-0.09791 -0.0703,-0.101563 l -0.002,-0.002 c -0.004,-0.0037 -0.1288,-0.117117 -0.1289,-0.117187 -1.1e-4,-7.2e-5 -0.0663,-0.04093 -0.0664,-0.04102 -3.1e-4,-1.66e-4 -0.0504,-0.0237 -0.0645,-0.0293 -0.0281,-0.01118 -0.0419,-0.01614 -0.0527,-0.01953 -0.0217,-0.0068 -0.0326,-0.0085 -0.0449,-0.01172 -0.0246,-0.0064 -0.0486,-0.0126 -0.0781,-0.01953 -0.0591,-0.01385 -0.13697,-0.0324 -0.23829,-0.05469 -0.20263,-0.04457 -0.4915,-0.106581 -0.8457,-0.18164 -0.708397,-0.150118 -1.681312,-0.352611 -2.748045,-0.572266 -1.063056,-0.218897 -2.060416,-0.430208 -2.810547,-0.595703 -0.375065,-0.08275 -0.688756,-0.153555 -0.914062,-0.207031 -0.112654,-0.02674 -0.203287,-0.0501 -0.265625,-0.06641 -0.06234,-0.01631 -0.131542,-0.04443 -0.05273,-0.01172 0.01208,0.005 -0.02649,-0.02141 -0.03906,-0.09766 -0.0097,-0.05907 0.0042,-0.07943 0.0098,-0.09375 0.02243,-0.0102 0.03476,-0.01631 0.06445,-0.0293 0.12757,-0.05579 0.315617,-0.135146 0.550782,-0.230469 0.470329,-0.190646 1.128935,-0.448366 1.896484,-0.744141 1.534607,-0.59136 3.511435,-1.335529 5.339843,-2.001953 l 1.47461,-0.535156 2.29883,-0.228516 c 1.29798,-0.128388 2.82784,-0.238353 3.26953,-0.24414 0.31034,-0.0041 0.50002,-0.01535 0.56641,-0.0078 z" /><path
       id="path180"
       style="fill:#ffffff;stroke-width:0.0883883"
       transform="matrix(0.26458333,0,0,0.26458333,-271.46249,-218.81041)"
       d="m 107.38477,83.076172 c -0.22267,0.05742 -0.41909,0.208778 -0.51954,0.328125 -0.20088,0.238693 -0.193,0.332069 -0.21289,0.384765 -0.0905,0.239842 -0.0691,0.250973 -0.0898,0.369141 -0.0208,0.118168 -0.0427,0.261147 -0.0664,0.425781 -0.0475,0.329268 -0.10109,0.745583 -0.15039,1.179688 l -0.17578,1.544922 a 0.94293885,0.94293885 0 0 0 0.11133,0.560547 l 0.48437,0.884765 c 0.1454,0.264636 0.29599,0.516937 0.4336,0.726563 0.0688,0.104813 0.13472,0.197886 0.20117,0.285156 0.0665,0.08727 0.0785,0.146858 0.29688,0.308594 0.16406,0.121497 0.19864,0.123198 0.29687,0.173828 0.0982,0.05063 0.2149,0.109596 0.34961,0.173828 0.26943,0.128464 0.60629,0.281869 0.95703,0.435547 0.6382,0.279633 0.96328,0.448543 1.42774,0.521484 0.23222,0.03647 0.56215,0.01777 0.82617,-0.115234 0.26401,-0.133002 0.39876,-0.302291 0.48828,-0.410156 0.34018,-0.40989 0.27804,-0.659635 0.27734,-0.886719 -7e-4,-0.227084 -0.0295,-0.449762 -0.0742,-0.699219 -0.0894,-0.498914 -0.25057,-1.100022 -0.47656,-1.791016 -0.18865,-0.576862 -0.3988,-1.251202 -0.42383,-1.34375 -0.0727,-0.269003 -0.25185,-0.571533 -0.45898,-0.794921 -0.20714,-0.223389 -0.44887,-0.42631 -0.80664,-0.714844 -0.4823,-0.388974 -1.08612,-0.861285 -1.40039,-1.091797 -0.25409,-0.186379 -0.25384,-0.301983 -0.75196,-0.445312 -0.12452,-0.03583 -0.3203,-0.06719 -0.54296,-0.0098 z" /><path
       style="fill:#05243c;fill-opacity:1;stroke-width:0.01905"
       d="m -256.3932,-184.24496 c -0.0246,-0.009 -1.06757,-0.52879 -1.56738,-0.78147 -0.25997,-0.13143 -0.28731,-0.20919 -0.17602,-0.50072 0.038,-0.0995 0.10244,-0.27098 0.1432,-0.381 0.0408,-0.11001 0.10395,-0.27718 0.14042,-0.37147 0.0365,-0.0943 0.11018,-0.28638 0.16379,-0.42685 0.10592,-0.27747 0.15022,-0.35449 0.2154,-0.37445 0.0233,-0.007 0.16238,-0.0709 0.30906,-0.14167 0.14669,-0.0708 0.37815,-0.18216 0.51435,-0.2475 0.43429,-0.20832 0.83633,-0.40242 0.89787,-0.43349 l 0.0597,-0.0301 -0.0501,-0.0417 c -0.0276,-0.0229 -0.11014,-0.0787 -0.18349,-0.1239 -0.0733,-0.0452 -0.15049,-0.097 -0.17145,-0.11504 -0.021,-0.018 -0.11525,-0.0817 -0.20955,-0.1415 -0.3401,-0.21564 -0.3802,-0.24791 -0.8662,-0.69721 -0.13128,-0.12137 -0.33806,-0.30996 -0.4595,-0.4191 -0.46608,-0.41887 -0.9647,-0.87281 -1.06728,-0.97165 l -0.10698,-0.10308 -0.12582,-0.381 c -0.0692,-0.20955 -0.34991,-1.04537 -0.62381,-1.85738 -0.59652,-1.76845 -0.60017,-1.77964 -0.63821,-1.96138 -0.0165,-0.079 -0.0552,-0.26366 -0.0859,-0.41034 -0.0307,-0.14669 -0.0726,-0.34814 -0.0931,-0.44768 -0.0205,-0.0995 -0.0633,-0.30528 -0.0953,-0.4572 -0.0319,-0.15192 -0.0748,-0.35766 -0.0952,-0.4572 -0.0205,-0.0995 -0.0634,-0.30528 -0.0953,-0.4572 -0.032,-0.15192 -0.0662,-0.3148 -0.0761,-0.36195 -0.01,-0.0471 -0.0313,-0.14573 -0.0476,-0.21907 -0.058,-0.26077 -0.0666,-0.31883 -0.055,-0.36866 0.0124,-0.053 0.20064,-0.50269 0.53292,-1.27297 0.10927,-0.25329 0.21059,-0.49433 0.22517,-0.53565 0.0146,-0.0413 0.0355,-0.0913 0.0466,-0.11097 0.011,-0.0197 0.0937,-0.21159 0.18376,-0.42638 0.09,-0.21479 0.17549,-0.41624 0.18993,-0.44767 0.0568,-0.12367 0.42886,-0.99614 0.42886,-1.00567 0,-0.009 0.83503,-1.90269 0.9469,-2.14711 0.0264,-0.0576 0.0641,-0.14121 0.0839,-0.18574 0.0523,-0.11768 0.10707,-0.24095 0.14817,-0.33337 0.0198,-0.0445 0.074,-0.1624 0.12045,-0.26194 0.0464,-0.0995 0.13098,-0.28716 0.18784,-0.41695 0.0619,-0.14124 0.12027,-0.24707 0.14545,-0.26361 0.0534,-0.0351 0.15142,-0.0482 0.97334,-0.13062 0.5505,-0.0552 0.68465,-0.0634 0.73942,-0.0453 0.0547,0.018 0.17197,0.14751 0.64194,0.70862 0.31627,0.37759 0.76277,0.91038 0.99223,1.18397 0.22945,0.2736 0.43259,0.53195 0.45142,0.57411 0.0201,0.045 0.0396,0.15121 0.0473,0.25718 0.007,0.0993 0.0187,0.19127 0.0256,0.20442 0.008,0.0152 0.0783,-0.0568 0.19277,-0.19732 0.23315,-0.28629 0.58806,-0.72164 0.92311,-1.13233 0.14669,-0.17979 0.29242,-0.34841 0.32385,-0.3747 0.0314,-0.0263 0.13905,-0.12615 0.23914,-0.22191 0.20242,-0.19364 0.2674,-0.25428 0.66574,-0.62119 0.15192,-0.13994 0.34701,-0.32213 0.43352,-0.40487 0.0865,-0.0827 0.19602,-0.16756 0.24334,-0.18849 l 0.086,-0.0381 0.32816,0.0387 c 0.18049,0.0213 0.48676,0.0565 0.68059,0.0782 0.76277,0.0856 0.79711,0.0946 0.85056,0.22252 0.0306,0.0731 0.0225,0.10361 -0.35512,1.3487 -0.18407,0.60685 -0.22874,0.75758 -0.22874,0.77181 0,0.0139 0.10138,-0.0122 0.40957,-0.10548 0.0943,-0.0285 0.22289,-0.067 0.28575,-0.0855 0.0629,-0.0185 0.29952,-0.0898 0.52589,-0.15845 l 0.41158,-0.12484 1.96279,-0.0776 c 1.07952,-0.0427 1.97873,-0.0718 1.99823,-0.0647 0.0195,0.007 0.77109,0.33719 1.67018,0.73364 0.8991,0.39644 1.64005,0.7208 1.64658,0.7208 0.007,0 0.0489,0.0172 0.0941,0.0381 0.0452,0.021 0.12079,0.0553 0.16794,0.0762 0.0472,0.021 0.12216,0.0546 0.16669,0.0748 0.0445,0.0202 0.1324,0.058 0.19526,0.0842 0.18376,0.0764 0.36175,0.18292 0.51956,0.3108 0.081,0.0656 0.23099,0.18606 0.33341,0.26767 0.10242,0.0816 0.23958,0.19139 0.3048,0.24393 0.0652,0.0525 0.17002,0.13398 0.23288,0.18098 0.0629,0.047 0.1883,0.14544 0.27873,0.21879 0.0904,0.0733 0.23486,0.18907 0.32094,0.25717 0.0861,0.0681 0.21061,0.16669 0.27671,0.21908 0.0661,0.0524 0.16016,0.12525 0.209,0.16192 0.2219,0.16663 0.22088,0.16497 0.41992,0.6858 0.038,0.0995 0.12354,0.31814 0.19001,0.48578 0.0665,0.16764 0.15191,0.38624 0.18987,0.48577 0.038,0.0995 0.094,0.24098 0.1246,0.31433 0.0306,0.0733 0.0866,0.21479 0.12445,0.31432 0.0379,0.0995 0.12326,0.31814 0.18973,0.48578 0.0665,0.16764 0.15191,0.38623 0.18987,0.48577 0.038,0.0995 0.094,0.24098 0.12458,0.31433 0.0306,0.0733 0.10857,0.27051 0.17335,0.43815 0.0648,0.16764 0.15462,0.39606 0.19964,0.50761 0.045,0.11154 0.0951,0.26584 0.11132,0.3429 0.0162,0.077 0.0387,0.1729 0.0501,0.21301 0.0114,0.0401 0.0323,0.12584 0.0464,0.1905 0.0142,0.0647 0.13443,0.56763 0.26723,1.1177 0.1328,0.55007 0.24931,1.03851 0.2589,1.08542 0.01,0.0469 0.0339,0.14978 0.0539,0.2286 0.13191,0.51807 0.17494,0.72466 0.16069,0.77152 -0.0151,0.0496 -0.25001,0.4457 -0.29401,0.49574 -0.0184,0.021 -0.13365,0.20526 -0.25607,0.40957 -0.12241,0.20431 -0.23773,0.38862 -0.25626,0.40958 -0.0185,0.0209 -0.10763,0.1624 -0.198,0.31432 l -0.16431,0.27623 -1.29092,1.28913 c -1.20452,1.20285 -1.29728,1.29104 -1.38616,1.31778 -0.0524,0.0158 -0.25812,0.0858 -0.4572,0.15564 -0.19907,0.0698 -0.39624,0.13839 -0.43815,0.15232 -0.13628,0.0453 -0.89382,0.30976 -0.9498,0.33159 -0.0299,0.0117 -0.18425,0.0466 -0.3429,0.0777 -0.15864,0.031 -0.33131,0.0654 -0.3837,0.0763 -0.10893,0.0227 -0.50309,0.099 -1.0287,0.19919 -0.19907,0.0379 -0.39624,0.0769 -0.43815,0.0866 -0.0419,0.01 -0.23907,0.0483 -0.43815,0.0859 -0.19907,0.0376 -0.4391,0.0846 -0.5334,0.10459 -0.0943,0.02 -0.33432,0.067 -0.5334,0.1046 -0.19907,0.0376 -0.39624,0.0762 -0.43815,0.0859 -0.0419,0.01 -0.21897,0.045 -0.39346,0.0784 l -0.31727,0.0607 -0.0753,-0.0373 c -0.075,-0.0371 -0.0873,-0.037 -2.38469,0.0154 l -2.30936,0.0527 -0.36509,0.12243 c -0.42649,0.14302 -2.47836,0.81823 -2.78444,0.91628 -0.13896,0.0445 -0.29297,0.077 -0.4572,0.0964 -0.1362,0.0161 -0.35909,0.0423 -0.4953,0.0582 -0.1362,0.0159 -0.52625,0.0626 -0.86677,0.10377 -0.34052,0.0411 -0.69199,0.0832 -0.78105,0.0936 -0.0891,0.0103 -0.3103,0.0363 -0.49165,0.0578 -0.35345,0.0418 -0.34195,0.041 -0.38465,0.0258 z m 0.55946,-0.46339 c 0.54604,-0.0656 0.86003,-0.10352 1.17409,-0.14188 0.12049,-0.0147 0.49339,-0.058 0.82867,-0.0962 0.35569,-0.0405 0.66118,-0.085 0.73343,-0.10688 0.0681,-0.0206 0.6296,-0.20401 1.24777,-0.40758 0.61817,-0.20358 1.2954,-0.42646 1.50495,-0.49529 0.31251,-0.10265 0.39299,-0.13651 0.44768,-0.18836 0.0367,-0.0348 0.54673,-0.34846 1.13347,-0.69708 0.58674,-0.34862 1.20237,-0.71626 1.36806,-0.81698 1.22387,-0.74393 2.73556,-1.64271 2.81666,-1.67465 0.0634,-0.025 0.0767,-0.0242 0.14288,0.008 0.0554,0.027 0.0794,0.0544 0.0999,0.11342 0.0244,0.0707 0.0236,0.0845 -0.01,0.15171 -0.0329,0.0667 -0.096,0.10933 -0.64705,0.43656 -0.33586,0.19945 -1.08595,0.64486 -1.66688,0.98981 -0.58093,0.34494 -1.07338,0.64143 -1.09434,0.65886 -0.021,0.0174 -0.33223,0.20669 -0.69173,0.42058 l -0.65364,0.38889 0.11071,0.005 c 0.0609,0.003 1.03859,-0.016 2.17265,-0.0423 1.13407,-0.0263 2.074,-0.0432 2.08874,-0.0376 0.0233,0.009 0.41185,-0.0621 1.25952,-0.23038 0.12573,-0.0249 0.49864,-0.0975 0.82868,-0.16128 0.33004,-0.0637 0.66008,-0.12822 0.73342,-0.14327 0.0734,-0.0151 0.42482,-0.0836 0.78105,-0.15228 0.80469,-0.1552 0.76541,-0.14517 1.30493,-0.33303 0.24622,-0.0857 0.50768,-0.17619 0.58102,-0.20102 0.0734,-0.0248 0.28337,-0.0972 0.46673,-0.16085 l 0.33337,-0.1157 0.50483,-0.50634 c 0.27765,-0.27849 0.48768,-0.50152 0.46672,-0.49563 -0.0209,0.006 -0.49931,0.11458 -1.06302,0.24153 l -1.02493,0.23082 -2.44609,-0.72549 c -1.94348,-0.57642 -2.46797,-0.72549 -2.55259,-0.72549 -0.0904,0 -0.37412,-0.0382 -0.98104,-0.13214 -0.0681,-0.0106 -0.33385,-0.0498 -0.59055,-0.0873 -0.6907,-0.10086 -1.47652,-0.21669 -1.63252,-0.24064 -0.16356,-0.0251 -0.21155,-0.0657 -0.23729,-0.20074 -0.0162,-0.0849 -0.10932,-0.61007 -0.24545,-1.38412 -0.031,-0.17651 -0.0564,-0.34432 -0.0564,-0.37291 0,-0.0816 0.038,-0.10833 0.50482,-0.35434 0.0943,-0.0497 0.21432,-0.11369 0.2667,-0.1422 0.0524,-0.0285 0.16383,-0.0886 0.24765,-0.13357 0.0838,-0.045 0.18669,-0.10049 0.2286,-0.12341 0.50092,-0.27389 0.65932,-0.35285 0.70778,-0.35285 0.0307,0 0.10255,0.0122 0.15976,0.0271 0.10637,0.0277 1.51764,0.36738 2.15189,0.51798 0.72654,0.17252 0.67854,0.15547 1.2312,0.43712 0.28153,0.14347 0.58903,0.30162 0.68332,0.35144 0.0943,0.0498 0.3429,0.17839 0.55245,0.28569 0.97904,0.50131 1.1634,0.59663 1.18171,0.61097 0.0157,0.0123 1.43647,0.42576 2.41514,0.70284 l 0.1869,0.0529 0.50843,-0.17929 c 0.27963,-0.0986 0.7656,-0.27001 1.07992,-0.3809 0.31433,-0.11088 0.61878,-0.21812 0.67656,-0.23831 0.10067,-0.0352 0.10983,-0.0443 0.21908,-0.21711 0.33467,-0.52952 0.40673,-0.64918 0.40795,-0.67741 0.001,-0.0245 -0.64172,-2.7477 -0.75036,-3.17896 -0.0145,-0.0576 -0.0406,-0.16478 -0.0579,-0.23812 -0.0173,-0.0733 -0.0619,-0.2105 -0.099,-0.3048 -0.0371,-0.0943 -0.0871,-0.22289 -0.11118,-0.28575 -0.0241,-0.0629 -0.0777,-0.20003 -0.11931,-0.3048 -0.11009,-0.2775 -0.19475,-0.49243 -0.33768,-0.85725 -0.0698,-0.17812 -0.16114,-0.40958 -0.20299,-0.51435 -0.0419,-0.10478 -0.0958,-0.24194 -0.11985,-0.3048 -0.024,-0.0629 -0.0741,-0.19145 -0.11133,-0.28575 -0.0372,-0.0943 -0.1247,-0.31718 -0.19448,-0.4953 -0.0698,-0.17812 -0.15938,-0.40529 -0.19909,-0.50483 -0.0397,-0.0995 -0.10411,-0.26241 -0.1431,-0.36195 -0.039,-0.0995 -0.0835,-0.21165 -0.0989,-0.24915 -0.016,-0.0389 -0.0692,-0.10031 -0.12383,-0.14287 -0.0527,-0.0411 -0.14959,-0.11756 -0.21535,-0.16995 -0.0658,-0.0524 -0.1857,-0.14668 -0.26654,-0.20955 -0.0808,-0.0629 -0.20536,-0.16145 -0.27672,-0.21908 -0.0714,-0.0576 -0.19589,-0.15621 -0.27672,-0.21907 -0.0808,-0.0629 -0.20077,-0.15716 -0.26651,-0.20955 -0.0657,-0.0524 -0.24999,-0.19812 -0.40943,-0.32385 -0.15945,-0.12573 -0.32965,-0.26096 -0.37824,-0.30051 -0.0846,-0.0689 -0.1408,-0.0996 -0.34074,-0.18646 -0.0498,-0.0216 -0.12906,-0.0571 -0.17621,-0.0788 -0.0472,-0.0217 -0.12002,-0.0543 -0.16193,-0.0724 -0.0419,-0.0181 -0.11477,-0.0505 -0.16192,-0.072 -0.0471,-0.0215 -0.81905,-0.36145 -1.71534,-0.75546 l -1.62961,-0.71639 -1.92321,0.0766 c -1.51811,0.0604 -1.94328,0.0828 -2.01847,0.10616 -0.0524,0.0163 -0.16383,0.0499 -0.24765,0.0747 -0.0838,0.0248 -0.25527,0.0761 -0.381,0.11395 -0.12573,0.0379 -0.30146,0.0906 -0.39052,0.11705 -0.0891,0.0265 -0.18336,0.0557 -0.20955,0.0648 -0.0538,0.0188 -0.31734,0.0974 -0.47837,0.1426 -0.11835,0.0332 -0.24837,0.11408 -0.95026,0.59083 -0.26223,0.17811 -0.54842,0.37099 -0.63598,0.42862 -0.0876,0.0576 -0.32412,0.21622 -0.52569,0.35243 -0.20158,0.1362 -0.42474,0.28622 -0.49592,0.33337 -0.0712,0.0472 -0.29401,0.19717 -0.49518,0.33338 -0.43503,0.29455 -0.5723,0.38643 -0.77313,0.51752 -0.25408,0.16583 -0.28568,0.19426 -0.65252,0.58715 -0.19554,0.20942 -0.38553,0.41153 -0.4222,0.44914 -0.0367,0.0376 -0.17795,0.18773 -0.31394,0.33361 -0.24275,0.26037 -0.33782,0.36161 -0.65909,0.70183 -0.0883,0.0934 -0.1733,0.18374 -0.18902,0.20066 -0.31401,0.33802 -0.83052,0.88994 -0.96325,1.0293 -0.095,0.0997 -0.24052,0.25415 -0.32344,0.34321 -0.0829,0.0891 -0.15783,0.16699 -0.16646,0.17319 -0.009,0.006 -0.0541,0.16908 -0.10109,0.36195 -0.34639,1.42259 -0.37034,1.51067 -0.42645,1.56772 -0.10499,0.10678 -0.30072,0.0479 -0.33098,-0.0996 -0.006,-0.0294 0.0288,-0.21025 0.0831,-0.43162 0.27201,-1.1092 0.34269,-1.40275 0.34291,-1.42421 10e-4,-0.10407 0.17358,-0.30736 0.98184,-1.15707 0.0747,-0.0786 0.19999,-0.21145 0.27832,-0.29527 0.0783,-0.0838 0.29145,-0.311 0.47362,-0.50483 0.18216,-0.19383 0.38349,-0.40815 0.44738,-0.47625 0.0639,-0.0681 0.19286,-0.20543 0.2866,-0.30516 0.0937,-0.0997 0.28615,-0.30527 0.4276,-0.45675 0.14145,-0.15147 0.32286,-0.34419 0.40315,-0.42826 0.0803,-0.0841 0.16521,-0.17735 0.18872,-0.20728 0.0235,-0.0299 0.10279,-0.0942 0.17617,-0.14288 0.24771,-0.16422 0.38893,-0.25903 0.75596,-0.50754 0.41646,-0.28198 0.56355,-0.3805 0.76371,-0.51149 0.0776,-0.0508 0.15519,-0.10224 0.17233,-0.1143 0.0743,-0.0522 0.77384,-0.52496 0.89225,-0.60294 0.0716,-0.0471 0.29436,-0.19717 0.49503,-0.33337 0.38936,-0.26429 0.53817,-0.36391 0.76555,-0.51251 0.13862,-0.0906 0.14392,-0.0969 0.17627,-0.20955 0.0508,-0.17678 0.14524,-0.49126 0.16367,-0.54477 0.009,-0.0262 0.0822,-0.27051 0.16254,-0.54292 0.0804,-0.27242 0.17093,-0.57612 0.20125,-0.67489 0.0303,-0.0988 0.0531,-0.18125 0.0505,-0.18328 -0.003,-0.002 -0.13744,-0.0186 -0.29984,-0.0369 -0.1624,-0.0182 -0.46244,-0.0523 -0.66675,-0.0757 l -0.37148,-0.0425 -0.12425,0.11612 c -0.36674,0.34275 -0.48693,0.45468 -1.02827,0.95756 -0.20431,0.1898 -0.43148,0.41951 -0.50483,0.51048 -0.0733,0.091 -0.26193,0.32265 -0.4191,0.51486 -0.15716,0.1922 -0.40306,0.49375 -0.54644,0.6701 -0.14339,0.17634 -0.33594,0.41298 -0.42791,0.52586 -0.13052,0.16021 -0.18219,0.20972 -0.23551,0.2257 -0.0964,0.0289 -0.20125,-0.0163 -0.2372,-0.10238 -0.0154,-0.0369 -0.0408,-0.24975 -0.0607,-0.50892 l -0.0342,-0.44557 -0.66139,-0.79193 c -0.55593,-0.66566 -0.79004,-0.94525 -1.16693,-1.39363 l -0.0414,-0.0493 -0.60871,0.063 c -0.33479,0.0346 -0.62671,0.0632 -0.64871,0.0635 -0.033,4.3e-4 -0.0609,0.0479 -0.15952,0.27202 -0.0657,0.14931 -0.14918,0.33576 -0.18541,0.41434 -0.0908,0.19684 -0.13828,0.30112 -0.17797,0.39053 -0.0186,0.0419 -0.0596,0.13192 -0.0911,0.20002 -0.11124,0.24044 -0.9557,2.15619 -0.9557,2.16813 0,0.0101 -0.32554,0.77716 -0.40978,0.9656 -0.0141,0.0314 -0.10002,0.23288 -0.19103,0.44767 -0.37324,0.88085 -0.60457,1.42351 -0.63748,1.49543 -0.0192,0.0419 -0.0996,0.2281 -0.17874,0.41375 l -0.14386,0.33756 0.0384,0.17679 c 0.0744,0.3429 0.15303,0.71119 0.16986,0.79592 0.009,0.0471 0.0522,0.25289 0.0951,0.4572 0.0429,0.20431 0.0858,0.41005 0.0952,0.4572 0.009,0.0471 0.0522,0.25289 0.095,0.4572 0.0428,0.20431 0.0997,0.47863 0.12639,0.6096 0.0506,0.24778 0.0737,0.31902 0.86577,2.667 0.26332,0.78057 0.48306,1.43349 0.48831,1.45091 0.009,0.0292 0.22165,0.2285 0.75771,0.70941 0.11566,0.10375 0.21457,0.19378 0.21981,0.20005 0.005,0.006 0.0953,0.0883 0.20002,0.18222 0.10478,0.094 0.2463,0.22253 0.31449,0.28573 0.52072,0.48256 0.5407,0.49847 1.08275,0.8616 0.50849,0.34067 0.54847,0.3638 0.58396,0.33785 0.021,-0.0153 0.0595,-0.0381 0.0857,-0.0506 0.0262,-0.0125 0.29945,-0.23312 0.60723,-0.49025 1.36123,-1.13718 1.2283,-1.01885 1.2597,-1.12136 0.009,-0.028 0.0431,-0.12385 0.0767,-0.21291 0.0336,-0.0891 0.0894,-0.23908 0.124,-0.33337 0.0346,-0.0943 0.0901,-0.24432 0.12329,-0.33338 0.0332,-0.0891 0.0674,-0.18336 0.076,-0.20955 0.009,-0.0262 0.0385,-0.10763 0.0666,-0.18097 0.028,-0.0734 0.0855,-0.22765 0.12764,-0.3429 0.13032,-0.35606 0.14473,-0.39518 0.20702,-0.56198 0.0333,-0.0891 0.0888,-0.23908 0.12339,-0.33337 0.0346,-0.0943 0.0901,-0.24432 0.12329,-0.33338 0.0332,-0.0891 0.0674,-0.18336 0.076,-0.20955 0.009,-0.0262 0.0366,-0.10334 0.0622,-0.17145 0.12064,-0.32063 0.18263,-0.48907 0.1933,-0.52528 0.006,-0.0217 0.0368,-0.0636 0.0676,-0.0931 0.11115,-0.10648 0.30147,-0.0451 0.3319,0.10698 0.0109,0.0547 5e-4,0.0889 -0.16083,0.52568 -0.0203,0.055 -0.0549,0.1493 -0.0768,0.20955 -0.0219,0.0602 -0.0517,0.13954 -0.0662,0.17621 -0.0145,0.0367 -0.0699,0.18669 -0.12315,0.33338 -0.0533,0.14668 -0.11297,0.30956 -0.13269,0.36195 -0.0197,0.0524 -0.0927,0.24955 -0.16216,0.43815 -0.18448,0.50088 -0.19605,0.53235 -0.23973,0.65246 -0.0219,0.0602 -0.0517,0.13954 -0.0662,0.17621 -0.0145,0.0367 -0.0699,0.18669 -0.12316,0.33338 -0.0993,0.2734 -0.11118,0.30557 -0.24742,0.66841 l -0.0793,0.21122 -0.25896,0.21741 c -0.27879,0.23406 -0.58533,0.48929 -0.75301,0.62698 -0.24985,0.20518 -0.90812,0.76548 -1.00388,0.85449 -0.1059,0.0984 -0.22522,0.16302 -0.88583,0.47945 -0.58516,0.2803 -0.73072,0.35045 -1.00965,0.48662 l -0.28575,0.13949 -0.0505,0.12964 c -0.0951,0.2441 -0.21184,0.54872 -0.25413,0.66304 -0.0233,0.0629 -0.073,0.19574 -0.11043,0.29527 -0.0375,0.0995 -0.0729,0.20241 -0.0786,0.2286 -0.01,0.0457 0.0178,0.0618 0.69881,0.40224 0.39007,0.19504 0.71238,0.35578 0.71623,0.35719 0.004,10e-4 0.22246,-0.0233 0.48578,-0.0549 z m 15.67114,-8.52804 c -0.0157,-0.006 -0.0929,-0.0398 -0.17145,-0.0762 -0.0786,-0.0364 -0.17717,-0.0821 -0.21908,-0.10147 -0.0419,-0.0194 -0.16061,-0.0751 -0.26379,-0.12366 -0.10571,-0.0498 -0.20082,-0.0833 -0.2179,-0.0767 -0.027,0.0104 -0.19495,0.0469 -1.06274,0.23125 -0.27065,0.0575 -0.24138,0.0652 -0.57263,-0.15006 -0.11664,-0.0758 -0.26479,-0.17208 -0.32924,-0.21399 -0.0644,-0.0419 -0.18332,-0.12044 -0.26418,-0.17452 -0.0809,-0.0541 -0.22417,-0.1463 -0.31847,-0.20496 -0.26693,-0.16605 -0.37777,-0.24768 -0.4191,-0.3087 -0.0209,-0.0309 -0.17006,-0.45454 -0.33135,-0.94134 -0.1613,-0.4868 -0.29474,-0.88708 -0.29654,-0.88952 -0.002,-0.002 -0.17416,-0.0391 -0.38302,-0.0816 -1.7239,-0.35009 -1.73423,-0.35233 -1.78662,-0.38666 -0.0716,-0.0469 -0.10015,-0.15801 -0.0633,-0.24613 0.0323,-0.0772 0.079,-0.10647 0.29753,-0.18625 0.22957,-0.0838 0.76214,-0.28416 0.88693,-0.33368 0.0629,-0.0249 0.20003,-0.077 0.3048,-0.11569 0.10478,-0.0387 0.24622,-0.0913 0.31433,-0.11693 0.0681,-0.0256 0.14526,-0.0535 0.17145,-0.0619 0.0262,-0.008 0.12906,-0.0469 0.2286,-0.0854 0.31822,-0.12323 0.38614,-0.14123 0.6096,-0.16163 0.38641,-0.0353 1.03222,-0.0952 1.23569,-0.11476 0.26224,-0.0251 0.29225,-0.0111 0.51097,0.23978 0.0923,0.10589 0.2882,0.32877 0.43529,0.4953 0.70463,0.79779 0.82466,0.93999 0.84441,1.00032 0.0116,0.0354 0.0389,0.18447 0.0606,0.33116 0.0634,0.42789 0.18981,1.28789 0.20287,1.38005 0.0147,0.10341 0.0202,0.11137 0.6983,0.99877 0.079,0.10344 0.14893,0.21185 0.15531,0.24092 0.0309,0.1409 -0.12322,0.28129 -0.25725,0.23424 z m -1.86678,-1.65686 c 0.0562,-0.0473 0.0596,-0.0571 0.0508,-0.14764 -0.0119,-0.12293 -0.086,-0.44387 -0.11697,-0.50656 -0.0209,-0.0423 -0.0756,-0.20403 -0.12604,-0.37283 -0.01,-0.0322 -0.0175,-0.0725 -0.0175,-0.0897 0,-0.0276 -0.13098,-0.14462 -0.34063,-0.30443 -0.0379,-0.0289 -0.099,-0.079 -0.13562,-0.1114 -0.0367,-0.0324 -0.0973,-0.0745 -0.13463,-0.0937 -0.0374,-0.0192 -0.0791,-0.0483 -0.0928,-0.0648 -0.0137,-0.0165 -0.0357,-0.03 -0.0488,-0.03 -0.0284,0 -0.0667,0.13914 -0.0665,0.2418 0,0.0399 -0.0179,0.21565 -0.0399,0.39058 l -0.0401,0.31806 0.11253,0.19629 c 0.0619,0.10796 0.11804,0.21095 0.12476,0.22887 0.0152,0.0406 0.16149,0.14819 0.2026,0.14901 0.0168,2.8e-4 0.0471,0.0132 0.0675,0.0286 0.0203,0.0154 0.0484,0.028 0.0623,0.028 0.014,0 0.083,0.0273 0.15352,0.0607 0.19254,0.0912 0.27814,0.12756 0.30292,0.12874 0.0123,5.7e-4 0.0494,-0.0217 0.0826,-0.0496 z m -3.7306,-2.81284 c -0.025,-0.0266 -0.0414,-0.0687 -0.0414,-0.10607 0,-0.0613 0.0658,-0.16439 0.66418,-1.04046 0.0787,-0.11526 0.21222,-0.31242 0.29668,-0.43815 0.15112,-0.22497 0.15584,-0.22974 0.29644,-0.30004 0.32405,-0.16203 0.67988,-0.3231 0.73342,-0.33198 0.0314,-0.005 0.23718,0.0128 0.4572,0.0401 0.22003,0.0273 0.48149,0.0587 0.58103,0.0699 0.20023,0.0224 0.24985,0.0408 0.39295,0.14563 0.30011,0.21979 0.50132,0.36572 0.59587,0.43219 0.0586,0.0412 0.14659,0.10549 0.19552,0.14287 0.0489,0.0374 0.14537,0.1087 0.21431,0.15846 0.2442,0.17629 0.37738,0.27293 0.54474,0.39529 0.0931,0.0681 0.22332,0.1624 0.28927,0.20955 0.20887,0.14933 0.28194,0.22563 0.28194,0.29438 0,0.0787 -0.0672,0.14377 -0.14837,0.14377 -0.0528,0 -0.24031,-0.0649 -0.41361,-0.14318 -0.10589,-0.0478 -0.88628,-0.37117 -0.89583,-0.37117 -0.005,0 -0.0458,-0.0166 -0.0902,-0.0369 -0.0444,-0.0203 -0.13648,-0.0597 -0.20458,-0.0875 -0.0681,-0.0279 -0.14954,-0.062 -0.18098,-0.0759 -0.11601,-0.0513 -0.52386,-0.21875 -0.53276,-0.21875 -0.005,0 -0.063,-0.0242 -0.12875,-0.0539 -0.0657,-0.0296 -0.17097,-0.0742 -0.23384,-0.0991 -0.0629,-0.0249 -0.1348,-0.0558 -0.15986,-0.0686 -0.0368,-0.0189 -0.0534,-0.0183 -0.0862,0.003 -0.0224,0.0146 -0.21954,0.088 -0.43818,0.16295 -0.31531,0.10813 -0.41764,0.15186 -0.4948,0.21145 -0.10294,0.0795 -0.34773,0.26482 -0.43507,0.32936 -0.0286,0.0211 -0.1572,0.11916 -0.28575,0.21779 -0.59632,0.45756 -0.59818,0.45884 -0.66656,0.45884 -0.0437,0 -0.0791,-0.0146 -0.10675,-0.0441 z"
       id="path179" /></g></svg>
