<?xml version="1.0" encoding="UTF-8" standalone="no"?>
<!-- Created with Inkscape (http://www.inkscape.org/) -->

<svg
   width="300"
   height="300"
   viewBox="0 0 79.375 79.375"
   version="1.1"
   id="svg5"
   xml:space="preserve"
   inkscape:version="1.2.2 (b0a8486541, 2022-12-01)"
   sodipodi:docname="test.svg"
   inkscape:export-filename="finished/300x300.png"
   inkscape:export-xdpi="96"
   inkscape:export-ydpi="96"
   xmlns:inkscape="http://www.inkscape.org/namespaces/inkscape"
   xmlns:sodipodi="http://sodipodi.sourceforge.net/DTD/sodipodi-0.dtd"
   xmlns="http://www.w3.org/2000/svg"
   xmlns:svg="http://www.w3.org/2000/svg"><sodipodi:namedview
     id="namedview7"
     pagecolor="#ffffff"
     bordercolor="#000000"
     borderopacity="0.25"
     inkscape:showpageshadow="2"
     inkscape:pageopacity="0.0"
     inkscape:pagecheckerboard="0"
     inkscape:deskcolor="#d1d1d1"
     inkscape:document-units="mm"
     showgrid="false"
     inkscape:lockguides="true"
     inkscape:zoom="0.35355339"
     inkscape:cx="694.37886"
     inkscape:cy="1144.0988"
     inkscape:window-width="1920"
     inkscape:window-height="1020"
     inkscape:window-x="0"
     inkscape:window-y="0"
     inkscape:window-maximized="1"
     inkscape:current-layer="layer1" /><defs
     id="defs2" /><g
     inkscape:label="Layer 1"
     inkscape:groupmode="layer"
     id="layer1"
     transform="translate(271.46249,218.81041)"><path
       style="fill:#05243c;fill-opacity:1;stroke-width:0.03175"
       d="m -246.34668,-161.20133 c -0.041,-0.0146 -1.77929,-0.88132 -2.61229,-1.30244 -0.4333,-0.21906 -0.47886,-0.34866 -0.29338,-0.83454 0.0633,-0.1659 0.17073,-0.45165 0.23867,-0.635 0.0679,-0.18336 0.17325,-0.46197 0.23404,-0.61913 0.0608,-0.15716 0.18363,-0.47729 0.27298,-0.7114 0.17652,-0.46246 0.25037,-0.59083 0.35899,-0.62409 0.0388,-0.0119 0.27064,-0.11814 0.51511,-0.23612 0.24448,-0.11798 0.63024,-0.3036 0.85725,-0.4125 0.72381,-0.3472 1.39387,-0.6707 1.49644,-0.72248 l 0.0994,-0.0502 -0.0836,-0.0694 c -0.046,-0.0382 -0.18358,-0.1311 -0.30582,-0.2065 -0.12224,-0.0754 -0.25082,-0.16168 -0.28575,-0.19174 -0.0349,-0.0301 -0.19208,-0.13618 -0.34925,-0.23583 -0.56684,-0.3594 -0.63366,-0.41319 -1.44367,-1.16202 -0.21881,-0.20228 -0.56343,-0.5166 -0.76583,-0.6985 -0.77681,-0.69811 -1.60784,-1.45467 -1.7788,-1.61941 l -0.1783,-0.17181 -0.2097,-0.635 c -0.11533,-0.34925 -0.58319,-1.74228 -1.03969,-3.09562 -0.9942,-2.94743 -1.00027,-2.96608 -1.06368,-3.26898 -0.0276,-0.13167 -0.092,-0.43943 -0.14325,-0.6839 -0.0512,-0.24448 -0.12105,-0.58023 -0.15516,-0.74613 -0.0341,-0.16589 -0.10554,-0.50879 -0.15875,-0.76199 -0.0532,-0.25321 -0.12464,-0.59611 -0.15875,-0.762 -0.0341,-0.1659 -0.10561,-0.5088 -0.1589,-0.762 -0.0533,-0.25321 -0.11037,-0.52467 -0.12684,-0.60325 -0.0165,-0.0786 -0.0522,-0.24289 -0.0794,-0.36513 -0.0966,-0.43461 -0.11104,-0.53137 -0.0916,-0.61443 0.0207,-0.0884 0.3344,-0.83782 0.88821,-2.12162 0.18211,-0.42215 0.35099,-0.82388 0.37528,-0.89274 0.0243,-0.0689 0.0592,-0.15209 0.0776,-0.18495 0.0184,-0.0329 0.15622,-0.35265 0.30626,-0.71063 0.15004,-0.35799 0.29249,-0.69374 0.31655,-0.74613 0.0947,-0.20611 0.71477,-1.66023 0.71477,-1.67611 0,-0.0154 1.39171,-3.17115 1.57816,-3.57851 0.044,-0.096 0.10691,-0.23535 0.13988,-0.30957 0.0872,-0.19613 0.17847,-0.40159 0.24696,-0.55562 0.033,-0.0742 0.12334,-0.27067 0.20076,-0.43656 0.0774,-0.1659 0.21829,-0.47861 0.31305,-0.69492 0.10314,-0.2354 0.20046,-0.41178 0.24242,-0.43935 0.089,-0.0584 0.25237,-0.0804 1.62224,-0.2177 0.9175,-0.092 1.14107,-0.10569 1.23236,-0.0756 0.0911,0.0301 0.28662,0.24586 1.06991,1.18103 0.52711,0.62933 1.27128,1.51731 1.6537,1.9733 0.38243,0.45599 0.721,0.88657 0.75238,0.95685 0.0335,0.075 0.066,0.252 0.0788,0.42862 0.0119,0.16547 0.0312,0.31878 0.0427,0.3407 0.0133,0.0253 0.13056,-0.0947 0.32128,-0.32886 0.38859,-0.47716 0.9801,-1.20273 1.53852,-1.88721 0.24448,-0.29966 0.48737,-0.58069 0.53975,-0.62451 0.0524,-0.0438 0.23175,-0.21025 0.39857,-0.36985 0.33736,-0.32273 0.44567,-0.4238 1.10956,-1.03531 0.2532,-0.23323 0.57835,-0.53688 0.72254,-0.67478 0.14419,-0.1379 0.3267,-0.27927 0.40556,-0.31416 l 0.1434,-0.0634 0.54694,0.0644 c 0.30081,0.0355 0.81125,0.0941 1.13431,0.13037 1.27129,0.14268 1.32852,0.15765 1.4176,0.37086 0.0509,0.12189 0.0376,0.17269 -0.59187,2.24783 -0.30678,1.01143 -0.38123,1.26265 -0.38123,1.28635 0,0.0231 0.16896,-0.0204 0.68262,-0.17579 0.15717,-0.0475 0.37148,-0.11165 0.47625,-0.14247 0.10478,-0.0308 0.49919,-0.14965 0.87648,-0.26409 l 0.68597,-0.20806 3.27131,-0.12927 c 1.79921,-0.0711 3.29789,-0.11964 3.33039,-0.10787 0.0325,0.0118 1.28514,0.562 2.78363,1.22273 1.4985,0.66074 2.73342,1.20135 2.74429,1.20135 0.0109,0 0.0814,0.0286 0.15678,0.0635 0.0754,0.0349 0.20132,0.0921 0.2799,0.127 0.0786,0.0349 0.2036,0.091 0.27782,0.12459 0.0742,0.0336 0.22066,0.0968 0.32543,0.14034 0.30626,0.1274 0.60292,0.30487 0.86593,0.518 0.13493,0.10934 0.38498,0.3101 0.55568,0.44612 0.1707,0.13603 0.3993,0.31897 0.508,0.40654 0.1087,0.0876 0.28337,0.22331 0.38814,0.30163 0.10478,0.0783 0.31382,0.24241 0.46454,0.36465 0.15073,0.12224 0.39143,0.31512 0.53491,0.42863 0.14347,0.1135 0.35101,0.27781 0.46119,0.36512 0.11018,0.0873 0.26692,0.20876 0.34832,0.26988 0.36983,0.27771 0.36814,0.27495 0.69986,1.14299 0.0634,0.1659 0.20591,0.53023 0.3167,0.80963 0.11078,0.2794 0.25318,0.64373 0.31645,0.80962 0.0633,0.1659 0.15671,0.40164 0.20766,0.52388 0.051,0.12224 0.14429,0.35798 0.20742,0.52387 0.0631,0.1659 0.20543,0.53023 0.31622,0.80963 0.11078,0.2794 0.25318,0.64373 0.31645,0.80962 0.0633,0.1659 0.1567,0.40164 0.20763,0.52388 0.0509,0.12224 0.18095,0.45085 0.28891,0.73025 0.10796,0.2794 0.2577,0.66011 0.33274,0.84602 0.075,0.1859 0.15853,0.44308 0.18553,0.5715 0.027,0.12841 0.0646,0.28817 0.0835,0.35502 0.0189,0.0669 0.0538,0.20973 0.0774,0.3175 0.0236,0.10778 0.22406,0.94605 0.44539,1.86283 0.22134,0.91679 0.41552,1.73085 0.43151,1.80904 0.016,0.0782 0.0564,0.24964 0.0899,0.381 0.21986,0.86345 0.29157,1.20776 0.26781,1.28586 -0.0251,0.0826 -0.41668,0.74283 -0.49001,0.82623 -0.0307,0.0349 -0.22276,0.34211 -0.42678,0.68263 -0.20402,0.34051 -0.39622,0.6477 -0.4271,0.68262 -0.0309,0.0349 -0.17938,0.27067 -0.33,0.52388 l -0.27386,0.46037 -2.15152,2.14855 c -2.00753,2.00476 -2.16214,2.15174 -2.31027,2.19631 -0.0873,0.0263 -0.43021,0.143 -0.762,0.25941 -0.33178,0.1164 -0.6604,0.23063 -0.73025,0.25385 -0.22714,0.0755 -1.4897,0.51627 -1.58299,0.55265 -0.0499,0.0195 -0.30709,0.0777 -0.5715,0.12944 -0.26442,0.0517 -0.55219,0.10895 -0.63951,0.12717 -0.18156,0.0379 -0.83849,0.16507 -1.7145,0.33197 -0.33178,0.0632 -0.6604,0.12814 -0.73025,0.14428 -0.0699,0.0161 -0.39846,0.0806 -0.73025,0.14317 -0.33179,0.0626 -0.73183,0.14106 -0.889,0.17433 -0.15716,0.0333 -0.55721,0.11171 -0.889,0.17432 -0.33178,0.0626 -0.6604,0.12706 -0.73025,0.14321 -0.0699,0.0162 -0.36495,0.0749 -0.65577,0.13061 l -0.52878,0.10124 -0.12557,-0.0621 c -0.12491,-0.0618 -0.14544,-0.0617 -3.97449,0.0257 l -3.84893,0.0878 -0.60848,0.20405 c -0.71081,0.23837 -4.1306,1.36373 -4.64073,1.52713 -0.2316,0.0742 -0.48828,0.1283 -0.762,0.16065 -0.22701,0.0268 -0.59848,0.0705 -0.8255,0.097 -0.22701,0.0265 -0.87709,0.10437 -1.44462,0.17295 -0.56753,0.0686 -1.15332,0.13875 -1.30175,0.15595 -0.14843,0.0172 -0.51717,0.0605 -0.81942,0.0963 -0.58908,0.0697 -0.56991,0.0684 -0.64108,0.043 z m 0.93243,-0.77232 c 0.91007,-0.10929 1.43339,-0.17253 1.95682,-0.23647 0.20082,-0.0245 0.82232,-0.0967 1.38112,-0.16033 0.59281,-0.0675 1.10196,-0.14172 1.22238,-0.17813 0.1135,-0.0343 1.04934,-0.34002 2.07962,-0.67931 1.03029,-0.33929 2.159,-0.71075 2.50825,-0.82547 0.52085,-0.17108 0.65498,-0.22752 0.74613,-0.31395 0.0611,-0.058 0.91122,-0.58076 1.88912,-1.16179 0.9779,-0.58104 2.00395,-1.19377 2.2801,-1.36164 2.03978,-1.23988 4.55926,-2.73785 4.69444,-2.79108 0.10572,-0.0416 0.12781,-0.0404 0.23812,0.0135 0.0923,0.0451 0.13239,0.0906 0.16642,0.18903 0.0407,0.11781 0.0393,0.14092 -0.0159,0.25286 -0.0548,0.11118 -0.16007,0.18222 -1.07843,0.7276 -0.55975,0.33241 -1.80991,1.07477 -2.77812,1.64968 -0.96822,0.57491 -1.78897,1.06905 -1.8239,1.0981 -0.0349,0.029 -0.55372,0.34448 -1.15289,0.70096 l -1.0894,0.64815 0.18452,0.009 c 0.10149,0.005 1.73098,-0.0267 3.62109,-0.0706 1.89011,-0.0438 3.45666,-0.072 3.48122,-0.0626 0.0388,0.0149 0.68643,-0.10358 2.09921,-0.38397 0.20955,-0.0416 0.83106,-0.16255 1.38113,-0.2688 0.55007,-0.10625 1.10014,-0.21371 1.22237,-0.23879 0.12224,-0.0251 0.70803,-0.13929 1.30175,-0.2538 1.34115,-0.25866 1.27569,-0.24195 2.17488,-0.55504 0.41037,-0.14289 0.84613,-0.29365 0.96837,-0.33504 0.12224,-0.0414 0.47228,-0.16202 0.77788,-0.26808 l 0.55562,-0.19283 0.84138,-0.84391 c 0.46275,-0.46414 0.8128,-0.83587 0.77787,-0.82605 -0.0349,0.01 -0.83219,0.19096 -1.77171,0.40255 l -1.70821,0.3847 -4.07681,-1.20915 c -3.23914,-0.96069 -4.11328,-1.20914 -4.25432,-1.20914 -0.15074,0 -0.62354,-0.0637 -1.63507,-0.22025 -0.11351,-0.0176 -0.55642,-0.0831 -0.98425,-0.14553 -1.15117,-0.1681 -2.46087,-0.36115 -2.72087,-0.40106 -0.2726,-0.0419 -0.35258,-0.1095 -0.39548,-0.33456 -0.027,-0.14155 -0.18219,-1.01679 -0.40908,-2.30687 -0.0517,-0.29419 -0.0941,-0.57387 -0.0941,-0.62152 0,-0.13603 0.0634,-0.18055 0.84137,-0.59057 0.15717,-0.0828 0.35719,-0.18948 0.4445,-0.237 0.0873,-0.0475 0.27305,-0.14768 0.41275,-0.22261 0.1397,-0.0749 0.31115,-0.16749 0.381,-0.20568 0.83487,-0.45649 1.09886,-0.5881 1.17963,-0.5881 0.0511,0 0.17092,0.0203 0.26626,0.0451 0.1773,0.0461 2.5294,0.6123 3.58649,0.8633 1.2109,0.28753 1.1309,0.25912 2.05201,0.72853 0.46921,0.23912 0.9817,0.5027 1.13886,0.58574 0.15716,0.083 0.5715,0.29731 0.92075,0.47614 1.63173,0.83552 1.93899,0.99438 1.96951,1.01829 0.0262,0.0205 2.39412,0.7096 4.02524,1.17141 l 0.3115,0.0882 0.84737,-0.29882 c 0.46606,-0.16435 1.27601,-0.45002 1.79988,-0.63482 0.52388,-0.1848 1.0313,-0.36354 1.1276,-0.39719 0.16777,-0.0586 0.18304,-0.0738 0.36513,-0.36186 0.55778,-0.88253 0.67788,-1.08197 0.67992,-1.12901 0.002,-0.0408 -1.06954,-4.5795 -1.2506,-5.29826 -0.0242,-0.096 -0.0677,-0.27464 -0.0966,-0.39688 -0.0289,-0.12223 -0.10315,-0.35083 -0.16496,-0.508 -0.0618,-0.15716 -0.1452,-0.37147 -0.1853,-0.47624 -0.0401,-0.10478 -0.12957,-0.33338 -0.19885,-0.508 -0.18348,-0.46251 -0.32458,-0.82072 -0.56281,-1.42875 -0.11631,-0.29687 -0.26855,-0.68263 -0.33831,-0.85725 -0.0698,-0.17463 -0.15964,-0.40323 -0.19974,-0.508 -0.0401,-0.10478 -0.12359,-0.31909 -0.18556,-0.47625 -0.062,-0.15717 -0.20783,-0.52864 -0.32414,-0.8255 -0.11631,-0.29687 -0.26562,-0.67548 -0.33181,-0.84138 -0.0662,-0.16589 -0.17351,-0.43736 -0.2385,-0.60325 -0.065,-0.16589 -0.1392,-0.35276 -0.1649,-0.41525 -0.0266,-0.0648 -0.1154,-0.16718 -0.20637,-0.23813 -0.0878,-0.0685 -0.24932,-0.19593 -0.35893,-0.28324 -0.1096,-0.0873 -0.3095,-0.24448 -0.44423,-0.34925 -0.13472,-0.10478 -0.34227,-0.26908 -0.4612,-0.36513 -0.11894,-0.096 -0.32648,-0.26035 -0.46121,-0.36512 -0.13472,-0.10478 -0.3346,-0.26194 -0.44417,-0.34925 -0.10957,-0.0873 -0.41665,-0.3302 -0.68239,-0.53975 -0.26574,-0.20955 -0.54942,-0.43494 -0.63039,-0.50085 -0.14105,-0.11483 -0.23468,-0.16607 -0.56791,-0.31077 -0.0829,-0.036 -0.2151,-0.0951 -0.29368,-0.13133 -0.0786,-0.0362 -0.20003,-0.0905 -0.26988,-0.12068 -0.0698,-0.0301 -0.19129,-0.0841 -0.26987,-0.11997 -0.0786,-0.0358 -1.36509,-0.60243 -2.8589,-1.25911 l -2.71601,-1.19397 -3.20536,0.12762 c -2.53018,0.10074 -3.2388,0.13801 -3.36411,0.17693 -0.0873,0.0271 -0.27305,0.0831 -0.41275,0.12444 -0.1397,0.0413 -0.42545,0.12678 -0.635,0.18993 -0.20955,0.0631 -0.50244,0.15093 -0.65087,0.19508 -0.14843,0.0442 -0.3056,0.0928 -0.34925,0.10805 -0.0896,0.0313 -0.52889,0.16229 -0.79728,0.23766 -0.19726,0.0554 -0.41396,0.19013 -1.58377,0.98471 -0.43705,0.29686 -0.91403,0.61833 -1.05996,0.71438 -0.14593,0.096 -0.5402,0.36036 -0.87616,0.58737 -0.33596,0.22701 -0.7079,0.47704 -0.82654,0.55563 -0.11863,0.0786 -0.49001,0.32861 -0.82529,0.55562 -0.72505,0.49092 -0.95384,0.64406 -1.28856,0.86254 -0.42346,0.27639 -0.47612,0.32377 -1.08752,0.97858 -0.3259,0.34903 -0.64255,0.68589 -0.70367,0.74858 -0.0611,0.0627 -0.29658,0.31288 -0.52324,0.556 -0.40457,0.43396 -0.56302,0.60269 -1.09848,1.16972 -0.14708,0.15574 -0.28884,0.30624 -0.31503,0.33443 -0.52334,0.56337 -1.38419,1.48325 -1.60542,1.7155 -0.15828,0.16618 -0.40086,0.42359 -0.53906,0.57202 -0.1382,0.14844 -0.26305,0.27833 -0.27744,0.28866 -0.0144,0.0103 -0.0902,0.28179 -0.16848,0.60325 -0.57731,2.37098 -0.61724,2.51777 -0.71074,2.61286 -0.175,0.17796 -0.50121,0.0798 -0.55164,-0.16601 -0.0101,-0.049 0.0479,-0.35043 0.13841,-0.71938 0.45335,-1.84867 0.57116,-2.33792 0.57153,-2.37367 0.002,-0.17346 0.2893,-0.51227 1.63639,-1.92845 0.12458,-0.13097 0.33332,-0.35243 0.46386,-0.49213 0.13054,-0.1397 0.48576,-0.51832 0.78937,-0.84137 0.30361,-0.32306 0.63915,-0.68025 0.74564,-0.79376 0.10649,-0.1135 0.32144,-0.34237 0.47766,-0.5086 0.15622,-0.16623 0.47692,-0.50879 0.71267,-0.76124 0.23574,-0.25246 0.5381,-0.57366 0.67192,-0.71377 0.13381,-0.14012 0.27535,-0.29558 0.31454,-0.34547 0.0392,-0.0499 0.1713,-0.15705 0.2936,-0.23813 0.41286,-0.27371 0.64822,-0.43173 1.25994,-0.84591 0.6941,-0.46997 0.93926,-0.63415 1.27285,-0.85247 0.1294,-0.0847 0.25865,-0.17041 0.28722,-0.1905 0.12374,-0.087 1.28973,-0.87494 1.48709,-1.0049 0.11932,-0.0786 0.49059,-0.32862 0.82504,-0.55563 0.64894,-0.44047 0.89695,-0.60651 1.27591,-0.85418 0.23105,-0.151 0.23987,-0.16149 0.29378,-0.34925 0.0846,-0.29462 0.24208,-0.81877 0.2728,-0.90794 0.015,-0.0437 0.13694,-0.45085 0.2709,-0.90488 0.13395,-0.45402 0.28488,-0.96019 0.3354,-1.12481 0.0505,-0.16462 0.0884,-0.30208 0.0842,-0.30547 -0.004,-0.003 -0.22906,-0.031 -0.49973,-0.0615 -0.27067,-0.0304 -0.77073,-0.0872 -1.11125,-0.12619 l -0.61913,-0.0709 -0.20708,0.19354 c -0.61123,0.57125 -0.81155,0.7578 -1.71379,1.59593 -0.34052,0.31633 -0.71914,0.69918 -0.84138,0.8508 -0.12223,0.15161 -0.43656,0.53775 -0.6985,0.8581 -0.26193,0.32034 -0.67177,0.82291 -0.91074,1.11683 -0.23897,0.29391 -0.5599,0.68831 -0.71317,0.87644 -0.21755,0.26702 -0.30365,0.34953 -0.39253,0.37616 -0.16073,0.0482 -0.33542,-0.0272 -0.39533,-0.17064 -0.0257,-0.0614 -0.068,-0.41625 -0.10119,-0.8482 l -0.0571,-0.74261 -1.10231,-1.31989 c -0.92655,-1.10942 -1.31673,-1.5754 -1.94488,-2.32271 l -0.069,-0.0821 -1.01452,0.10495 c -0.55799,0.0577 -1.04452,0.10538 -1.08118,0.10589 -0.055,7.2e-4 -0.10144,0.0799 -0.26588,0.45337 -0.10957,0.24884 -0.24862,0.5596 -0.30901,0.69057 -0.15127,0.32805 -0.23047,0.50185 -0.29662,0.65087 -0.031,0.0698 -0.0993,0.21987 -0.15186,0.33338 -0.18541,0.40072 -1.59284,3.59364 -1.59284,3.61354 0,0.0168 -0.54257,1.29528 -0.68297,1.60933 -0.0234,0.0524 -0.16669,0.38814 -0.31838,0.74613 -0.62206,1.46808 -1.00761,2.37251 -1.06247,2.49237 -0.032,0.0699 -0.16602,0.38017 -0.29789,0.6896 l -0.23977,0.5626 0.064,0.29465 c 0.12406,0.5715 0.25506,1.1853 0.2831,1.32652 0.0156,0.0786 0.0869,0.42149 0.15851,0.762 0.0716,0.34052 0.14301,0.68342 0.15875,0.762 0.0157,0.0786 0.087,0.42148 0.15827,0.762 0.0713,0.34052 0.16609,0.79772 0.21064,1.016 0.0843,0.41297 0.12283,0.5317 1.44295,4.44501 0.43886,1.30095 0.80509,2.38914 0.81385,2.41818 0.0147,0.0487 0.36942,0.38084 1.26286,1.18234 0.19275,0.17293 0.35761,0.32297 0.36634,0.33342 0.009,0.0105 0.15875,0.14713 0.33337,0.30371 0.17463,0.15659 0.41049,0.37088 0.52415,0.47621 0.86786,0.80427 0.90117,0.83078 1.80457,1.43601 0.8475,0.56777 0.91413,0.60632 0.97328,0.56308 0.0349,-0.0255 0.0992,-0.0635 0.14288,-0.0843 0.0436,-0.0208 0.49908,-0.38854 1.01204,-0.81708 2.26872,-1.8953 2.04718,-1.69809 2.09951,-1.86894 0.0143,-0.0467 0.0719,-0.20641 0.12784,-0.35484 0.056,-0.14844 0.14901,-0.39847 0.20668,-0.55563 0.0577,-0.15716 0.15014,-0.40719 0.20548,-0.55562 0.0553,-0.14844 0.11233,-0.3056 0.12665,-0.34925 0.0143,-0.0437 0.0643,-0.17939 0.11095,-0.30163 0.0467,-0.12224 0.14242,-0.37941 0.21273,-0.5715 0.2172,-0.59342 0.24122,-0.65863 0.34504,-0.93662 0.0554,-0.14844 0.14798,-0.39847 0.20565,-0.55563 0.0577,-0.15716 0.15014,-0.40719 0.20548,-0.55562 0.0553,-0.14844 0.11233,-0.3056 0.12665,-0.34925 0.0143,-0.0437 0.061,-0.17225 0.10369,-0.28575 0.20106,-0.5344 0.30437,-0.81513 0.32217,-0.87548 0.0107,-0.0362 0.0614,-0.10603 0.11262,-0.15514 0.18525,-0.17748 0.50246,-0.0752 0.55317,0.1783 0.0182,0.0912 8.4e-4,0.14814 -0.26805,0.87613 -0.0338,0.0917 -0.0914,0.24884 -0.12795,0.34925 -0.0365,0.10041 -0.0861,0.23257 -0.11028,0.29369 -0.0241,0.0611 -0.11649,0.31115 -0.20525,0.55562 -0.0888,0.24448 -0.18829,0.51594 -0.22116,0.60325 -0.0329,0.0873 -0.15449,0.41593 -0.27026,0.73025 -0.30747,0.8348 -0.32675,0.88726 -0.39955,1.08744 -0.0365,0.10041 -0.0861,0.23257 -0.11027,0.29369 -0.0241,0.0611 -0.1165,0.31115 -0.20526,0.55562 -0.16545,0.45568 -0.1853,0.5093 -0.41238,1.11403 l -0.13219,0.35203 -0.4316,0.36234 c -0.46465,0.3901 -0.97555,0.81549 -1.25501,1.04498 -0.41643,0.34196 -1.51354,1.2758 -1.67314,1.42415 -0.1765,0.16406 -0.37537,0.2717 -1.47638,0.79908 -0.97528,0.46717 -1.21787,0.58409 -1.68275,0.81103 l -0.47625,0.23249 -0.0842,0.21606 c -0.15848,0.40683 -0.35307,0.91454 -0.42354,1.10506 -0.0387,0.10478 -0.12158,0.32623 -0.18406,0.49213 -0.0625,0.16589 -0.1214,0.33734 -0.13096,0.381 -0.0167,0.0762 0.0297,0.10291 1.16468,0.6704 0.65012,0.32506 1.1873,0.59295 1.19373,0.59531 0.006,0.002 0.37075,-0.0388 0.80962,-0.0915 z m 26.11857,-14.21339 c -0.0262,-0.009 -0.15478,-0.0663 -0.28575,-0.12699 -0.13097,-0.0607 -0.29528,-0.13676 -0.36513,-0.16912 -0.0698,-0.0324 -0.26769,-0.12511 -0.43965,-0.20609 -0.17619,-0.083 -0.3347,-0.13878 -0.36318,-0.12786 -0.0449,0.0173 -0.3249,0.0782 -1.77122,0.38542 -0.45109,0.0958 -0.40231,0.10861 -0.95439,-0.25011 -0.19439,-0.12631 -0.44132,-0.2868 -0.54872,-0.35665 -0.10741,-0.0698 -0.30555,-0.20073 -0.44031,-0.29085 -0.13477,-0.0901 -0.37361,-0.24384 -0.53078,-0.34161 -0.44489,-0.27675 -0.62961,-0.41281 -0.6985,-0.51451 -0.0349,-0.0516 -0.28344,-0.75756 -0.55226,-1.56889 -0.26882,-0.81133 -0.49122,-1.47847 -0.49423,-1.48253 -0.003,-0.004 -0.29026,-0.0652 -0.63836,-0.13593 -2.87317,-0.5835 -2.89039,-0.58722 -2.97771,-0.64444 -0.11925,-0.0781 -0.16691,-0.26336 -0.10554,-0.41022 0.0538,-0.12873 0.1316,-0.17745 0.49587,-0.31042 0.38262,-0.13966 1.27025,-0.4736 1.47823,-0.55613 0.10478,-0.0416 0.33338,-0.12834 0.508,-0.19282 0.17463,-0.0645 0.41037,-0.15218 0.52388,-0.19488 0.1135,-0.0427 0.24209,-0.0892 0.28575,-0.10324 0.0437,-0.0141 0.2151,-0.0782 0.381,-0.1424 0.53037,-0.20537 0.64356,-0.23538 1.016,-0.26938 0.64402,-0.0588 1.72036,-0.15874 2.05948,-0.19126 0.43707,-0.0419 0.48708,-0.0185 0.85162,0.39963 0.15387,0.17648 0.48034,0.54795 0.72548,0.8255 1.17438,1.32965 1.37444,1.56665 1.40736,1.6672 0.0193,0.0591 0.0648,0.30745 0.10101,0.55193 0.10564,0.71315 0.31635,2.14649 0.33812,2.30009 0.0244,0.17235 0.0337,0.18562 1.16383,1.66462 0.13173,0.1724 0.24822,0.35308 0.25886,0.40152 0.0516,0.23485 -0.20538,0.46882 -0.42876,0.39042 z m -3.11129,-2.76145 c 0.0937,-0.0789 0.0993,-0.0951 0.0847,-0.24606 -0.0198,-0.20489 -0.14332,-0.73979 -0.19495,-0.84427 -0.0348,-0.0704 -0.12596,-0.34005 -0.21006,-0.62138 -0.016,-0.0536 -0.0292,-0.12088 -0.0292,-0.14945 0,-0.0459 -0.2183,-0.24103 -0.56771,-0.50739 -0.0632,-0.0482 -0.16492,-0.13172 -0.22604,-0.18565 -0.0611,-0.0539 -0.16209,-0.1242 -0.22438,-0.15615 -0.0623,-0.0319 -0.1319,-0.0806 -0.1547,-0.10803 -0.0228,-0.0275 -0.0594,-0.0499 -0.0814,-0.0499 -0.0473,0 -0.1111,0.2319 -0.11081,0.403 0,0.0665 -0.0298,0.35942 -0.0665,0.65097 l -0.0668,0.5301 0.18755,0.32715 c 0.10316,0.17994 0.19673,0.35159 0.20793,0.38145 0.0254,0.0677 0.26916,0.24698 0.33767,0.24834 0.0279,4.8e-4 0.0785,0.022 0.11243,0.0476 0.0339,0.0256 0.0806,0.0466 0.10389,0.0466 0.0232,0 0.13838,0.0455 0.25587,0.10117 0.32089,0.15196 0.46356,0.21259 0.50487,0.21456 0.0205,9.6e-4 0.0824,-0.0362 0.13758,-0.0827 z m -6.21768,-4.68806 c -0.0417,-0.0444 -0.069,-0.11442 -0.069,-0.17678 0,-0.1021 0.10973,-0.27399 1.10697,-1.73411 0.13119,-0.19209 0.3537,-0.5207 0.49447,-0.73025 0.25186,-0.37494 0.25972,-0.38289 0.49406,-0.50007 0.54008,-0.27004 1.13314,-0.53848 1.22237,-0.5533 0.0524,-0.009 0.39529,0.0214 0.762,0.0669 0.36672,0.0455 0.80248,0.0979 0.96838,0.11652 0.33372,0.0374 0.41641,0.0681 0.65492,0.24273 0.50018,0.3663 0.83553,0.60953 0.99312,0.7203 0.0977,0.0687 0.24431,0.17582 0.32586,0.23813 0.0815,0.0623 0.24228,0.18116 0.35718,0.2641 0.40701,0.29381 0.62896,0.45488 0.90791,0.65882 0.15525,0.1135 0.3722,0.27066 0.48211,0.34924 0.34812,0.24889 0.4699,0.37605 0.4699,0.49064 0,0.13109 -0.11199,0.23962 -0.24728,0.23962 -0.088,0 -0.40052,-0.10818 -0.68935,-0.23864 -0.17648,-0.0797 -1.47714,-0.61861 -1.49305,-0.61861 -0.009,0 -0.0763,-0.0277 -0.15036,-0.0615 -0.074,-0.0338 -0.22746,-0.0995 -0.34096,-0.1459 -0.11351,-0.0464 -0.24924,-0.10337 -0.30163,-0.12654 -0.19335,-0.0855 -0.8731,-0.36458 -0.88794,-0.36458 -0.008,0 -0.105,-0.0404 -0.21458,-0.0898 -0.10957,-0.0494 -0.28495,-0.12373 -0.38973,-0.16523 -0.10477,-0.0415 -0.22467,-0.093 -0.26644,-0.11438 -0.0614,-0.0315 -0.089,-0.0304 -0.14371,0.005 -0.0373,0.0244 -0.3659,0.14663 -0.7303,0.27159 -0.52552,0.18021 -0.69607,0.25309 -0.82467,0.35241 -0.17157,0.13251 -0.57955,0.44138 -0.72511,0.54894 -0.0477,0.0353 -0.26201,0.19859 -0.47625,0.36298 -0.99387,0.7626 -0.99698,0.76474 -1.11094,0.76474 -0.0728,0 -0.13179,-0.0244 -0.17792,-0.0735 z"
       id="path179" /></g></svg>
