<?xml version="1.0" encoding="UTF-8" standalone="no"?>
<!-- Created with Inkscape (http://www.inkscape.org/) -->

<svg
   width="300"
   height="300"
   viewBox="0 0 79.375 79.375"
   version="1.1"
   id="svg5"
   xml:space="preserve"
   inkscape:version="1.2.2 (b0a8486541, 2022-12-01)"
   sodipodi:docname="300x300.svg"
   inkscape:export-filename="finished/300x300.png"
   inkscape:export-xdpi="96"
   inkscape:export-ydpi="96"
   xmlns:inkscape="http://www.inkscape.org/namespaces/inkscape"
   xmlns:sodipodi="http://sodipodi.sourceforge.net/DTD/sodipodi-0.dtd"
   xmlns="http://www.w3.org/2000/svg"
   xmlns:svg="http://www.w3.org/2000/svg"><sodipodi:namedview
     id="namedview7"
     pagecolor="#ffffff"
     bordercolor="#000000"
     borderopacity="0.25"
     inkscape:showpageshadow="2"
     inkscape:pageopacity="0.0"
     inkscape:pagecheckerboard="0"
     inkscape:deskcolor="#d1d1d1"
     inkscape:document-units="mm"
     showgrid="false"
     inkscape:lockguides="true"
     inkscape:zoom="0.35355339"
     inkscape:cx="694.37886"
     inkscape:cy="1144.0988"
     inkscape:window-width="1920"
     inkscape:window-height="1020"
     inkscape:window-x="0"
     inkscape:window-y="0"
     inkscape:window-maximized="1"
     inkscape:current-layer="layer1" /><defs
     id="defs2" /><g
     inkscape:label="Layer 1"
     inkscape:groupmode="layer"
     id="layer1"
     transform="translate(271.46249,218.81041)"><path
       id="path184"
       style="fill:#ffffff;stroke-width:0.176777"
       transform="matrix(0.26458333,0,0,0.26458333,-271.46249,-218.81041)"
       d="m 132.36133,84.126953 c -1.81546,0.45602 0.16211,-0.811404 -1.76367,0.763672 -0.55392,0.45378 -1.30612,1.126871 -2.29883,2.052734 -5.88695,5.490511 -7.2184,6.911001 -12.27735,13.103521 -1.35716,1.66126 -2.63468,3.20185 -3.5957,4.34179 -0.48051,0.56997 -0.88361,1.0413 -1.17383,1.37305 -0.1451,0.16587 -0.26099,0.29742 -0.34179,0.38476 -0.0808,0.0873 -0.23844,0.19395 -0.0312,0.0488 -0.19873,0.13921 -0.39122,0.11692 -0.5293,-0.0117 -0.0492,-0.0459 -0.0815,-0.0802 -0.12109,-0.12109 -0.0138,-0.16014 -0.0326,-0.3786 -0.0566,-0.64844 -0.0489,-0.54949 -0.11517,-1.2965 -0.18946,-2.10742 l -0.26953,-2.94531 a 0.91903387,0.91903387 0 0 0 -0.21094,-0.505861 l -5.85742,-7.00586 -5.857421,-7.003906 a 0.91903387,0.91903387 0 0 0 -0.796875,-0.324219 l -3.890625,0.394532 c -1.243658,0.126107 -2.247693,0.247105 -2.976562,0.357422 -0.364435,0.05516 -0.657556,0.105578 -0.896485,0.160156 -0.119464,0.02729 -0.225113,0.05551 -0.335937,0.09375 -0.110824,0.03824 -0.212861,0.01689 -0.472656,0.28125 -0.244648,0.248951 -0.223665,0.298884 -0.310547,0.457031 -0.08688,0.158147 -0.188493,0.357005 -0.310547,0.603516 -0.244108,0.493021 -0.565333,1.174911 -0.960937,2.03125 -0.79121,1.712676 -1.87303,4.121115 -3.169922,7.054687 -2.593785,5.867142 -6.048417,13.831532 -9.740235,22.488282 l -5.18164,12.14648 a 0.91903387,0.91903387 0 0 0 -0.04883,0.56836 l 0.236329,1.02344 c 0.108188,0.46712 1.039381,4.8995 2.02539,9.66211 l 1.79288,8.66212 a 0.91903387,0.91903387 0 0 0 0.0293,0.10547 l 4.169922,12.52734 4.169922,12.52735 a 0.91903387,0.91903387 0 0 0 0.238281,0.375 l 1.34375,1.27929 c 1.202954,1.14521 6.820827,6.26824 10.46289,9.54297 0.76737,0.68998 2.720296,2.09847 4.564454,3.33594 1.469056,0.98574 2.303271,1.53631 2.892571,1.85937 0.29466,0.16153 0.53008,0.27714 0.82032,0.33985 0.29023,0.0627 0.67463,0.0109 0.90234,-0.0957 0.27146,-0.1271 0.3069,-0.1843 0.48828,-0.31835 0.18139,-0.13406 0.41049,-0.31015 0.6875,-0.52735 0.55402,-0.4344 1.29423,-1.03063 2.16406,-1.74023 1.73968,-1.4192 3.99459,-3.2931 6.26563,-5.21485 1.80943,-1.53114 2.56451,-2.19158 2.92773,-3.07226 0.13874,-0.33638 0.6408,-1.69333 1.46094,-3.9043 0.82015,-2.21097 1.91003,-5.16117 3.07422,-8.32031 1.26089,-3.42154 2.358,-6.33016 3.16406,-8.4082 0.40303,-1.03903 0.73409,-1.8729 0.97461,-2.45118 0.12026,-0.28914 0.21852,-0.51559 0.28711,-0.66406 0.0135,-0.0292 0.0184,-0.0379 0.0293,-0.0605 0.13971,-0.12679 0.25773,-0.13648 0.39843,-0.0684 0.15311,0.0741 0.23696,0.14866 0.20118,0.36915 0.0347,-0.21394 -0.0154,0.0378 -0.0801,0.23437 -0.0646,0.19656 -0.15845,0.47596 -0.2793,0.82422 -0.24169,0.69652 -0.58774,1.66883 -1.00976,2.8457 -0.84406,2.35375 -1.99683,5.52071 -3.25196,8.92969 l -4.48047,12.17383 -3.78906,3.15039 c -2.19145,1.82266 -5.09062,4.26553 -6.46094,5.4414 -0.67673,0.58071 -1.35771,1.15424 -1.90625,1.60938 -0.54853,0.45514 -1.00782,0.81983 -1.08007,0.87109 0.0832,-0.0591 -0.22733,0.13144 -0.59571,0.32422 -0.36837,0.19278 -0.87296,0.45027 -1.4707,0.75 -1.195483,0.59946 -2.76926,1.37197 -4.429685,2.17188 -1.667602,0.80337 -3.207772,1.55742 -4.349609,2.12695 -0.570918,0.28476 -1.041331,0.52362 -1.382812,0.70117 -0.170741,0.0888 -0.310017,0.16086 -0.417969,0.22071 -0.05398,0.0299 -0.0985,0.056 -0.144531,0.084 -0.04603,0.028 -0.05146,0.002 -0.216797,0.16211 -0.283454,0.27526 -0.205854,0.27499 -0.251953,0.36523 -0.0461,0.0902 -0.09373,0.19086 -0.148438,0.3125 -0.109408,0.24329 -0.244408,0.56418 -0.402344,0.94922 -0.31587,0.77009 -0.71764,1.79426 -1.132812,2.89453 -0.636373,1.68651 -1.004195,2.68807 -1.203125,3.35547 -0.09946,0.3337 -0.163913,0.57872 -0.181641,0.85547 -0.01773,0.27675 0.06284,0.70697 0.335938,0.98047 0.203337,0.20363 0.213415,0.17079 0.300781,0.22461 0.08737,0.0538 0.191363,0.11472 0.316406,0.18555 0.250087,0.14165 0.584322,0.32347 0.984375,0.5371 0.800106,0.42728 1.862197,0.98043 3.001953,1.5586 1.139032,0.5778 2.198176,1.10369 2.992188,1.48828 0.397006,0.19229 0.726092,0.34843 0.972656,0.46094 0.123282,0.0563 0.22468,0.10048 0.3125,0.13672 0.04391,0.0181 0.08413,0.0338 0.132813,0.0508 0.04868,0.017 0.02117,0.0525 0.314453,0.0625 a 0.91903387,0.91903387 0 0 0 0.002,0 c 0.14633,0.005 0.135758,-0.003 0.189453,-0.008 0.0537,-0.004 0.118704,-0.01 0.197266,-0.0176 0.157122,-0.0156 0.370989,-0.0375 0.634765,-0.0664 0.527552,-0.0579 1.256811,-0.14154 2.125,-0.24219 1.736379,-0.20129 4.024539,-0.47292 6.332029,-0.75 2.30749,-0.27708 4.6334,-0.56014 6.44727,-0.78515 1.81387,-0.22501 3.00896,-0.37252 3.4082,-0.44336 0.3138,-0.0557 0.62975,-0.15795 1.24219,-0.3418 0.61244,-0.18385 1.42666,-0.43621 2.39062,-0.74023 1.92793,-0.60805 4.44971,-1.42137 7.10352,-2.29493 7.82799,-2.57673 9.81376,-3.25069 10.92773,-3.9707 0.21557,-0.13932 1.98256,-1.21626 4.4961,-2.73437 2.51353,-1.51812 5.83359,-3.51677 9.35156,-5.62891 10.7514,-6.45502 15.78575,-9.49784 18.14844,-10.76367 1.0509,-0.56303 1.43299,-0.63709 1.44531,-0.66602 0.0226,0.0304 0.01,0.0177 0.0371,0.0527 0.15495,0.19698 0.15239,0.26897 0.15039,0.29883 -0.002,0.0299 -0.0144,0.11408 -0.19922,0.29882 0.081,-0.081 -0.003,0.001 -0.10351,0.0723 -0.10059,0.071 -0.24675,0.17011 -0.42774,0.28906 -0.36197,0.2379 -0.86388,0.55689 -1.46484,0.93164 -1.20193,0.7495 -2.79962,1.72221 -4.4961,2.73047 -3.40553,2.024 -8.29638,4.95176 -10.87695,6.51172 -2.57489,1.55653 -6.22816,3.75438 -8.11328,4.88086 -1.5002,0.89646 -2.3314,1.40035 -2.81836,1.7539 -0.12174,0.0884 -0.22349,0.16559 -0.32617,0.26368 -0.10268,0.0981 -0.23574,0.18615 -0.33594,0.52148 -0.0501,0.16767 -0.0639,0.43481 0.0352,0.66602 0.099,0.2312 0.27126,0.3771 0.39648,0.45312 0.25045,0.15204 0.3773,0.14611 0.48633,0.16016 0.2515,0.0324 0.2619,0.0139 0.4707,0.0156 0.2088,0.002 0.49207,0.003 0.84571,0.002 0.70727,-0.002 1.69337,-0.01 2.88671,-0.0215 2.38669,-0.0237 5.60464,-0.0665 9.08204,-0.12109 9.51307,-0.14936 13.00423,-0.24536 14.50781,-0.47461 1.18816,-0.18116 7.33357,-1.35945 13.48437,-2.55664 3.07541,-0.5986 6.12573,-1.1982 8.49219,-1.66992 2.36647,-0.47172 3.93594,-0.78541 4.42774,-0.91407 0.37089,-0.097 1.18333,-0.36315 2.38281,-0.76172 1.19948,-0.39856 2.72082,-0.91332 4.27929,-1.44921 l 5.65625,-1.94532 a 0.91903387,0.91903387 0 0 0 0.36329,-0.23047 l 2.86132,-2.96874 a 0.91903387,0.91903387 0 0 0 0,-0.002 c 0.78886,-0.8187 1.50144,-1.56536 2.01758,-2.11328 0.25808,-0.27396 0.46605,-0.49709 0.61328,-0.6582 0.0736,-0.0806 0.13062,-0.14469 0.17774,-0.19922 0.0236,-0.0273 0.0434,-0.0505 0.0723,-0.0879 0.0145,-0.0187 0.0292,-0.0346 0.0645,-0.0918 0.0176,-0.0286 0.0817,-0.16509 0.082,-0.16601 1.7e-4,-4.7e-4 0.0566,-0.27314 0.0566,-0.27344 1e-5,-1.5e-4 -0.0351,-0.30263 -0.0352,-0.30274 -3e-5,-1.1e-4 -0.24211,-0.40422 -0.24219,-0.40429 a 0.91903387,0.91903387 0 0 0 0,-0.002 c -7e-5,-6e-5 -0.36312,-0.21479 -0.36328,-0.21484 -1.5e-4,-5e-5 -0.16382,-0.0371 -0.16406,-0.0371 -4.8e-4,-6e-5 -0.10784,-0.008 -0.13476,-0.008 -0.0539,0.001 -0.0735,0.006 -0.0918,0.008 -0.0367,0.004 -0.0528,0.007 -0.0723,0.01 -0.0389,0.006 -0.0763,0.0143 -0.12304,0.0234 -0.0936,0.0183 -0.22143,0.0441 -0.38282,0.0781 -0.32276,0.0681 -0.78054,0.16701 -1.3457,0.29101 -1.13031,0.24801 -2.68369,0.59373 -4.38672,0.97852 -1.69885,0.38385 -3.2779,0.73383 -4.45117,0.98633 -0.58663,0.12625 -1.0713,0.22717 -1.41602,0.29687 -0.16979,0.0343 -0.30598,0.0593 -0.39843,0.0762 -0.0334,-0.008 -0.0556,-0.0133 -0.10157,-0.0254 -0.17165,-0.0451 -0.42466,-0.11398 -0.74414,-0.20312 -0.63895,-0.17829 -1.54905,-0.43756 -2.6582,-0.75781 -2.2183,-0.64051 -5.23664,-1.52494 -8.51953,-2.49805 -7.31203,-2.16742 -11.92244,-3.52105 -14.87109,-4.35352 -2.94866,-0.83246 -4.20121,-1.1462 -4.97852,-1.23828 -0.71707,-0.0849 -5.84558,-0.82701 -10.73438,-1.54687 -2.44439,-0.35993 -4.84752,-0.71581 -6.6582,-0.98828 -0.90534,-0.13624 -1.66241,-0.25223 -2.20117,-0.33594 -0.26938,-0.0419 -0.4857,-0.0752 -0.63477,-0.0996 -0.054,-0.009 -0.088,-0.0154 -0.12304,-0.0215 -0.0169,-0.0635 -0.0322,-0.11655 -0.0547,-0.21094 -0.0705,-0.29549 -0.16158,-0.72197 -0.26563,-1.23047 -0.20808,-1.017 -0.46575,-2.36524 -0.71484,-3.73828 -0.24909,-1.37304 -0.49135,-2.77205 -0.66992,-3.88672 -0.0893,-0.55734 -0.16256,-1.04315 -0.21289,-1.41602 -0.0503,-0.37287 -0.0742,-0.67676 -0.0742,-0.67578 -5.5e-4,-0.26048 0.0311,-0.32636 0.0117,-0.2832 -0.0194,0.0432 -0.0656,0.0644 0.0781,-0.0352 0.0465,-0.0322 0.93337,-0.54942 2.01367,-1.14062 1.08031,-0.5912 2.45012,-1.32675 3.8086,-2.04883 1.35848,-0.72208 2.7065,-1.4304 3.74023,-1.96289 0.51687,-0.26625 0.9552,-0.48978 1.27344,-0.64649 0.14415,-0.071 0.25516,-0.12196 0.3418,-0.1621 0.11856,0.0181 0.28773,0.048 0.50781,0.0898 0.46402,0.0882 1.12054,0.2238 1.9043,0.39258 1.56751,0.33755 3.65017,0.80763 5.79687,1.30664 4.2934,0.99801 8.9317,2.13776 10.06055,2.49609 1.13373,0.35988 2.95605,1.24851 12.50976,6.18555 l 6.70899,3.4668 a 0.91903387,0.91903387 0 0 0 0.16601,0.0664 l 5.13477,1.49219 c 2.82618,0.82141 6.4619,1.86941 8.08789,2.33008 l 2.94531,0.83398 a 0.91903387,0.91903387 0 0 0 0.55469,-0.0176 l 7.20703,-2.54101 c 1.99859,-0.70461 3.85178,-1.38314 5.23828,-1.91211 0.69325,-0.26449 1.2681,-0.49004 1.69532,-0.66797 0.2136,-0.089 0.38976,-0.16499 0.5332,-0.23242 0.14344,-0.0674 0.17378,-0.0236 0.45117,-0.27344 0.18657,-0.16803 0.261,-0.28421 0.39453,-0.46289 0.13353,-0.17868 0.28707,-0.39646 0.45508,-0.64258 0.33601,-0.49223 0.73167,-1.09882 1.11328,-1.70508 0.38162,-0.60626 0.74784,-1.20857 1.02539,-1.6914 0.13878,-0.24142 0.25554,-0.45207 0.3457,-0.63086 0.0451,-0.0894 0.0833,-0.16981 0.11915,-0.25781 0.0359,-0.088 0.0976,-0.10397 0.0976,-0.45313 0,-0.18654 -0.0111,-0.1613 -0.0176,-0.19922 -0.006,-0.0379 -0.0146,-0.0747 -0.0234,-0.11914 -0.0176,-0.0889 -0.0413,-0.20284 -0.0723,-0.3457 -0.0619,-0.28572 -0.1506,-0.6862 -0.26367,-1.1836 -0.22613,-0.99479 -0.54688,-2.38242 -0.92969,-4.01953 -0.76562,-3.2742 -1.77867,-7.54427 -2.76367,-11.64648 -0.58701,-2.4447 -1.22273,-4.90085 -1.51953,-5.74805 -0.16623,-0.4745 -0.85573,-2.24773 -1.84961,-4.79297 -0.99388,-2.54523 -2.27112,-5.79952 -3.53906,-9.01953 -1.26794,-3.22001 -2.52623,-6.40627 -3.48438,-8.81836 -0.47907,-1.20604 -0.88313,-2.21803 -1.17578,-2.94531 -0.14633,-0.36364 -0.26453,-0.6556 -0.35156,-0.86719 -0.0435,-0.10579 -0.0789,-0.19096 -0.10742,-0.25781 -0.0285,-0.0669 -0.0259,-0.0754 -0.0859,-0.1875 -0.14341,-0.26795 -0.16374,-0.22779 -0.21289,-0.27734 -0.0492,-0.0496 -0.1,-0.0975 -0.16016,-0.15235 -0.1204,-0.10966 -0.27709,-0.2454 -0.47266,-0.41211 -0.39112,-0.3334 -0.93655,-0.78594 -1.5996,-1.32812 -1.32611,-1.08437 -3.12362,-2.5277 -5.08008,-4.07422 -3.48694,-2.75631 -5.2714,-4.16442 -6.49805,-5.03516 -1.22665,-0.87074 -1.92451,-1.20721 -3.02148,-1.70312 -1.24612,-0.56333 -7.04646,-3.12578 -12.92969,-5.71289 L 174.3183,95.601422 a 0.91903387,0.91903387 0 0 0 -0.40625,-0.07617 l -8.39844,0.341797 c -4.62079,0.187788 -10.09423,0.428532 -12.18555,0.537109 a 0.91903387,0.91903387 0 0 0 -0.002,0 l -3.77929,0.197265 a 0.91903387,0.91903387 0 0 0 -0.2168,0.03711 l -5.81641,1.751953 a 0.91903387,0.91903387 0 0 0 0,0.002 c -3.39633,1.023208 -4.61504,1.231132 -6.89844,2.505864 -2.28339,1.27472 -5.58003,3.55932 -13.4375,8.82422 -12.40359,8.31104 -10.16655,6.34029 -23.841792,20.93164 l -9.220704,9.83789 a 0.91903387,0.91903387 0 0 0 -0.222656,0.41015 l -1.162109,4.7461 c -0.761679,3.10967 -1.209211,4.87705 -1.507813,5.85742 -0.149301,0.49018 -0.263459,0.78053 -0.332031,0.91406 -0.06857,0.13353 -0.04609,0.0873 -0.04687,0.0879 -0.143116,0.10025 -0.186666,0.0936 -0.220703,0.0898 -0.03404,-0.004 -0.114088,-0.0223 -0.263672,-0.17188 -0.161816,-0.16182 -0.112768,-0.11963 -0.08984,-0.0527 0.02293,0.0669 -0.01447,-0.0345 0.03906,-0.40821 0.107065,-0.74741 0.50106,-2.39706 1.304687,-5.73242 0.339772,-1.41018 0.659316,-2.73541 0.898438,-3.73437 0.239121,-0.99896 0.38705,-1.61511 0.425781,-1.79297 0.0459,-0.21075 -0.02925,-0.0689 0.140625,-0.3125 0.169871,-0.24358 0.581502,-0.74182 1.414063,-1.66406 1.665121,-1.84449 5.024,-5.41998 11.804696,-12.64063 l 8.74804,-9.31641 12.48438,-8.36914 c 3.4578,-2.31841 6.63734,-4.46213 8.97656,-6.04687 1.16961,-0.79237 2.1285,-1.44348 2.80859,-1.91016 0.34005,-0.23334 0.61072,-0.4207 0.80469,-0.55664 0.097,-0.06797 0.17519,-0.123634 0.23633,-0.167969 0.0611,-0.04434 0.0511,-0.02039 0.1875,-0.148437 0.19083,-0.179186 0.18871,-0.235529 0.22461,-0.302735 0.0359,-0.06721 0.0644,-0.126239 0.0937,-0.193359 0.0587,-0.13424 0.12024,-0.293621 0.1914,-0.484375 0.14234,-0.381508 0.31707,-0.888968 0.51758,-1.488281 0.40104,-1.198626 0.89776,-2.758192 1.37891,-4.320313 0.48115,-1.562121 0.94648,-3.123174 1.28516,-4.326172 0.16933,-0.601499 0.30636,-1.111843 0.40039,-1.498047 0.047,-0.193101 0.0838,-0.354713 0.10937,-0.496093 0.0128,-0.07069 0.0242,-0.134201 0.0312,-0.214844 0.007,-0.08064 0.081,-0.109563 -0.0605,-0.478516 -0.12077,-0.314671 -0.28128,-0.398797 -0.375,-0.460937 -0.0937,-0.06214 -0.15779,-0.08929 -0.21679,-0.113282 -0.118,-0.04798 -0.21404,-0.074 -0.32422,-0.101562 -0.22037,-0.05513 -0.4864,-0.10614 -0.82227,-0.160156 -0.67174,-0.108033 -1.61083,-0.226807 -2.78711,-0.353516 -1.00992,-0.108789 -1.96133,-0.217507 -2.67773,-0.304687 -0.3582,-0.04359 -0.6581,-0.08185 -0.87305,-0.111329 -0.10747,-0.01474 -0.19424,-0.02792 -0.25195,-0.03711 -0.0577,-0.0092 -0.12867,-0.0298 -0.0254,0 z m 41.90429,35.738277 c 0.23782,-0.0479 0.46873,-0.0361 1.10352,0.0215 1.8021,0.16342 3.43817,0.3614 4.67969,0.55859 0.62076,0.0986 1.144,0.19762 1.52734,0.28711 0.38334,0.0895 0.67034,0.21476 0.59766,0.17188 0.0396,0.0233 0.62632,0.42042 1.33008,0.91992 0.70375,0.49949 1.59517,1.14186 2.50195,1.80469 1.82147,1.33142 4.72569,3.44557 6.45508,4.70117 0.85418,0.62017 1.6634,1.23393 2.27148,1.7168 0.30404,0.24143 0.55897,0.45127 0.73633,0.60546 0.12867,0.11187 0.13876,0.1261 0.14063,0.11719 -0.0628,0.003 -3.7e-4,-7.4e-4 -0.0879,-0.002 -0.2875,-0.004 -1.79488,-0.46582 -7.43164,-2.81836 -3.792,-1.58262 -7.6427,-3.18972 -8.56445,-3.57227 l -1.66797,-0.6914 a 0.91903387,0.91903387 0 0 0 -0.66601,-0.0137 l -2.48438,0.90234 c -0.68962,0.25083 -1.37262,0.5078 -1.92383,0.72266 -0.5512,0.21485 -0.90791,0.35164 -1.17968,0.49218 -0.24744,0.12795 -0.3594,0.22356 -0.64649,0.42578 -0.28709,0.20223 -0.66057,0.47196 -1.09961,0.79297 -0.87807,0.64203 -2.0143,1.48743 -3.20117,2.38477 -1.17723,0.89005 -2.27833,1.69912 -3.09766,2.28125 -0.40242,0.28592 -0.73249,0.51369 -0.96679,0.66797 -0.02,-0.0151 0.009,-5.9e-4 -0.008,-0.0215 -0.0292,-0.0357 -0.0247,-0.0576 -0.0332,-0.0898 0.0307,-0.0517 0.0514,-0.0882 0.0918,-0.1543 0.15945,-0.26119 0.38851,-0.62445 0.66406,-1.05469 0.5511,-0.86048 1.2883,-1.98971 2.05274,-3.14453 1.52886,-2.30964 3.22687,-4.79969 3.61718,-5.29883 0.37931,-0.48506 1.09776,-0.94073 3.89844,-2.17382 0.77979,-0.34334 1.1503,-0.49067 1.39062,-0.53907 z m 6.99805,11.07227 c 0.54206,0 0.38242,-0.11285 0.93945,0.375 0.55704,0.48785 1.56889,1.61491 3.49805,3.80469 4.50047,5.10846 5.22248,6.16453 5.29492,6.43945 -0.01,-0.0367 0.15025,0.80237 0.31055,1.80859 0.1603,1.00623 0.35862,2.31245 0.55664,3.66993 0.19926,1.36591 0.39723,2.64829 0.55664,3.61914 0.0797,0.48542 0.15028,0.89148 0.20703,1.19726 0.0284,0.15289 0.0533,0.27952 0.0762,0.38477 0.0228,0.10524 0.0102,0.12842 0.0957,0.33398 0.0698,0.16779 0.0976,0.19454 0.14844,0.27539 0.0509,0.0808 0.11233,0.17119 0.18554,0.2793 0.14644,0.21622 0.34154,0.49429 0.57422,0.82031 0.46536,0.65205 1.08074,1.49533 1.74024,2.37696 0.65345,0.87355 1.27118,1.7089 1.73632,2.34961 0.23258,0.32035 0.42786,0.59289 0.56836,0.79296 0.14051,0.20008 0.26257,0.40651 0.20703,0.30274 -0.0169,-0.0316 -0.0614,0.3361 -0.10351,0.37304 -0.13072,0.11461 -0.52171,0.12052 -0.35742,0.17774 0.0704,0.0245 -0.0843,-0.0359 -0.24024,-0.10352 -0.15596,-0.0676 -0.3692,-0.15959 -0.62109,-0.27148 -0.50378,-0.22378 -1.16528,-0.52084 -1.85938,-0.83594 l -2.53125,-1.14844 a 0.91903387,0.91903387 0 0 0 -0.57031,-0.0625 l -3.83398,0.81641 c -1.04721,0.22343 -2.05788,0.42613 -2.83594,0.57227 -0.38903,0.0731 -0.72136,0.13257 -0.96484,0.17187 -0.24349,0.0393 -0.48339,0.0523 -0.35157,0.0527 -0.092,-4.4e-4 -0.0688,0.011 -0.25976,-0.0684 -0.19098,-0.0793 -0.54587,-0.26233 -1.12696,-0.61329 -1.16194,-0.70177 -3.23685,-2.05828 -7.08007,-4.58398 h -0.002 l -1.45703,-0.95898 -0.41601,-1.09375 c -0.26188,-0.69033 -1.1665,-3.33142 -1.96875,-5.75586 -0.40333,-1.21889 -0.78408,-2.34124 -1.07227,-3.17188 -0.14409,-0.41532 -0.26395,-0.75663 -0.35547,-1.00586 -0.0458,-0.12461 -0.084,-0.2258 -0.11719,-0.30859 -0.0166,-0.0414 -0.0316,-0.0771 -0.0508,-0.11914 -0.0192,-0.042 0.0577,-0.0116 -0.17187,-0.26758 -5e-4,-5.5e-4 -0.10609,-0.10218 -0.14258,-0.12891 -0.0365,-0.0267 -0.0648,-0.0453 -0.0879,-0.0586 -0.0462,-0.0266 -0.0734,-0.0382 -0.0977,-0.0488 -0.0485,-0.0212 -0.0774,-0.0315 -0.10547,-0.041 -0.0561,-0.019 -0.10541,-0.0331 -0.16211,-0.0488 -0.11339,-0.0314 -0.25537,-0.0663 -0.43359,-0.10938 -0.35643,-0.0861 -0.85079,-0.19998 -1.45703,-0.33398 -1.21248,-0.26801 -2.86295,-0.61828 -4.66406,-0.98828 -1.79109,-0.36795 -3.46519,-0.73033 -4.71094,-1.01758 -0.62287,-0.14363 -1.13939,-0.2684 -1.50391,-0.36328 -0.17295,-0.045 -0.30599,-0.0835 -0.39843,-0.11133 -0.20624,-0.15918 -0.20684,-0.539 0.0879,-0.69141 0.11272,-0.0583 1.30142,-0.54963 2.77734,-1.11523 1.47592,-0.5656 3.34561,-1.26503 5.20899,-1.95117 1.86337,-0.68615 3.71961,-1.35865 5.16601,-1.86914 0.7232,-0.25525 1.3445,-0.47045 1.80859,-0.625 0.4641,-0.15456 0.8655,-0.25974 0.79102,-0.2461 0.90587,-0.16596 8.68106,-0.87695 9.57617,-0.87695 z" /><path
       id="path180"
       style="fill:#ffffff;stroke-width:0.176777"
       transform="matrix(0.26458333,0,0,0.26458333,-271.46249,-218.81041)"
       d="m 178.91016,138.16016 c -0.57614,0.1203 -1.31775,0.74006 -1.53516,1.30664 -0.24361,0.63486 -0.13589,0.50687 -0.16797,0.70312 -0.0321,0.19625 -0.0678,0.43451 -0.10547,0.71094 -0.0753,0.55285 -0.16125,1.25944 -0.24414,2.00586 l -0.29687,2.6582 a 1.9871499,1.9871499 0 0 0 0.23437,1.17969 l 0.73438,1.33398 c 0.22117,0.40254 0.45269,0.79576 0.66406,1.13086 0.2118,0.33579 0.22481,0.47068 0.69726,0.94336 0.41546,0.41569 0.49282,0.38792 0.68165,0.49805 0.18882,0.11013 0.39704,0.22288 0.63281,0.34375 0.47153,0.24173 1.04739,0.51449 1.65039,0.78125 0.57914,0.2562 1.12024,0.49136 1.53515,0.66602 0.20746,0.0873 0.38155,0.15784 0.5254,0.21484 0.0719,0.0285 0.13558,0.0524 0.20703,0.0781 0.0357,0.0128 0.0719,0.0267 0.13086,0.0449 0.059,0.0182 0.055,0.0509 0.41992,0.0859 a 1.9871499,1.9871499 0 0 0 0.0117,0 c 0.72926,0.0656 0.95598,-0.12907 1.14453,-0.22265 0.18855,-0.0936 0.30142,-0.17321 0.4043,-0.24805 0.20575,-0.14968 0.3582,-0.28771 0.50976,-0.4375 0.15156,-0.14979 0.29045,-0.30041 0.44141,-0.50195 0.0755,-0.10077 0.15447,-0.20977 0.24804,-0.38867 0.0936,-0.17891 0.26895,-0.38684 0.25391,-1.05274 a 1.9871499,1.9871499 0 0 0 0,-0.002 c -0.0113,-0.48923 -0.0757,-0.67904 -0.15039,-1.03321 -0.0747,-0.35416 -0.17235,-0.76285 -0.28711,-1.21093 -0.22938,-0.8956 -0.52397,-1.935 -0.81836,-2.85352 v -0.002 l -0.66016,-2.0586 a 1.9871499,1.9871499 0 0 0 -0.62695,-0.92578 l -1.3418,-1.10937 c -1.12821,-0.933 -1.94198,-1.57078 -2.61914,-2.01172 -0.33858,-0.22047 -0.6043,-0.40236 -1.10742,-0.55859 -0.25156,-0.0781 -0.58987,-0.18867 -1.16601,-0.0684 z" /><path
       style="fill:#05243c;fill-opacity:1;stroke-width:0.03175"
       d="m -246.34668,-161.20133 c -0.041,-0.0146 -1.77929,-0.88132 -2.61229,-1.30244 -0.4333,-0.21906 -0.47886,-0.34866 -0.29338,-0.83454 0.0633,-0.1659 0.17073,-0.45165 0.23867,-0.635 0.0679,-0.18336 0.17325,-0.46197 0.23404,-0.61913 0.0608,-0.15716 0.18363,-0.47729 0.27298,-0.7114 0.17652,-0.46246 0.25037,-0.59083 0.35899,-0.62409 0.0388,-0.0119 0.27064,-0.11814 0.51511,-0.23612 0.24448,-0.11798 0.63024,-0.3036 0.85725,-0.4125 0.72381,-0.3472 1.39387,-0.6707 1.49644,-0.72248 l 0.0994,-0.0502 -0.0836,-0.0694 c -0.046,-0.0382 -0.18358,-0.1311 -0.30582,-0.2065 -0.12224,-0.0754 -0.25082,-0.16168 -0.28575,-0.19174 -0.0349,-0.0301 -0.19208,-0.13618 -0.34925,-0.23583 -0.56684,-0.3594 -0.63366,-0.41319 -1.44367,-1.16202 -0.21881,-0.20228 -0.56343,-0.5166 -0.76583,-0.6985 -0.77681,-0.69811 -1.60784,-1.45467 -1.7788,-1.61941 l -0.1783,-0.17181 -0.2097,-0.635 c -0.11533,-0.34925 -0.58319,-1.74228 -1.03969,-3.09562 -0.9942,-2.94743 -1.00027,-2.96608 -1.06368,-3.26898 -0.0276,-0.13167 -0.092,-0.43943 -0.14325,-0.6839 -0.0512,-0.24448 -0.12105,-0.58023 -0.15516,-0.74613 -0.0341,-0.16589 -0.10554,-0.50879 -0.15875,-0.76199 -0.0532,-0.25321 -0.12464,-0.59611 -0.15875,-0.762 -0.0341,-0.1659 -0.10561,-0.5088 -0.1589,-0.762 -0.0533,-0.25321 -0.11037,-0.52467 -0.12684,-0.60325 -0.0165,-0.0786 -0.0522,-0.24289 -0.0794,-0.36513 -0.0966,-0.43461 -0.11104,-0.53137 -0.0916,-0.61443 0.0207,-0.0884 0.3344,-0.83782 0.88821,-2.12162 0.18211,-0.42215 0.35099,-0.82388 0.37528,-0.89274 0.0243,-0.0689 0.0592,-0.15209 0.0776,-0.18495 0.0184,-0.0329 0.15622,-0.35265 0.30626,-0.71063 0.15004,-0.35799 0.29249,-0.69374 0.31655,-0.74613 0.0947,-0.20611 0.71477,-1.66023 0.71477,-1.67611 0,-0.0154 1.39171,-3.17115 1.57816,-3.57851 0.044,-0.096 0.10691,-0.23535 0.13988,-0.30957 0.0872,-0.19613 0.17847,-0.40159 0.24696,-0.55562 0.033,-0.0742 0.12334,-0.27067 0.20076,-0.43656 0.0774,-0.1659 0.21829,-0.47861 0.31305,-0.69492 0.10314,-0.2354 0.20046,-0.41178 0.24242,-0.43935 0.089,-0.0584 0.25237,-0.0804 1.62224,-0.2177 0.9175,-0.092 1.14107,-0.10569 1.23236,-0.0756 0.0911,0.0301 0.28662,0.24586 1.06991,1.18103 0.52711,0.62933 1.27128,1.51731 1.6537,1.9733 0.38243,0.45599 0.721,0.88657 0.75238,0.95685 0.0335,0.075 0.066,0.252 0.0788,0.42862 0.0119,0.16547 0.0312,0.31878 0.0427,0.3407 0.0133,0.0253 0.13056,-0.0947 0.32128,-0.32886 0.38859,-0.47716 0.9801,-1.20273 1.53852,-1.88721 0.24448,-0.29966 0.48737,-0.58069 0.53975,-0.62451 0.0524,-0.0438 0.23175,-0.21025 0.39857,-0.36985 0.33736,-0.32273 0.44567,-0.4238 1.10956,-1.03531 0.2532,-0.23323 0.57835,-0.53688 0.72254,-0.67478 0.14419,-0.1379 0.3267,-0.27927 0.40556,-0.31416 l 0.1434,-0.0634 0.54694,0.0644 c 0.30081,0.0355 0.81125,0.0941 1.13431,0.13037 1.27129,0.14268 1.32852,0.15765 1.4176,0.37086 0.0509,0.12189 0.0376,0.17269 -0.59187,2.24783 -0.30678,1.01143 -0.38123,1.26265 -0.38123,1.28635 0,0.0231 0.16896,-0.0204 0.68262,-0.17579 0.15717,-0.0475 0.37148,-0.11165 0.47625,-0.14247 0.10478,-0.0308 0.49919,-0.14965 0.87648,-0.26409 l 0.68597,-0.20806 3.27131,-0.12927 c 1.79921,-0.0711 3.29789,-0.11964 3.33039,-0.10787 0.0325,0.0118 1.28514,0.562 2.78363,1.22273 1.4985,0.66074 2.73342,1.20135 2.74429,1.20135 0.0109,0 0.0814,0.0286 0.15678,0.0635 0.0754,0.0349 0.20132,0.0921 0.2799,0.127 0.0786,0.0349 0.2036,0.091 0.27782,0.12459 0.0742,0.0336 0.22066,0.0968 0.32543,0.14034 0.30626,0.1274 0.60292,0.30487 0.86593,0.518 0.13493,0.10934 0.38498,0.3101 0.55568,0.44612 0.1707,0.13603 0.3993,0.31897 0.508,0.40654 0.1087,0.0876 0.28337,0.22331 0.38814,0.30163 0.10478,0.0783 0.31382,0.24241 0.46454,0.36465 0.15073,0.12224 0.39143,0.31512 0.53491,0.42863 0.14347,0.1135 0.35101,0.27781 0.46119,0.36512 0.11018,0.0873 0.26692,0.20876 0.34832,0.26988 0.36983,0.27771 0.36814,0.27495 0.69986,1.14299 0.0634,0.1659 0.20591,0.53023 0.3167,0.80963 0.11078,0.2794 0.25318,0.64373 0.31645,0.80962 0.0633,0.1659 0.15671,0.40164 0.20766,0.52388 0.051,0.12224 0.14429,0.35798 0.20742,0.52387 0.0631,0.1659 0.20543,0.53023 0.31622,0.80963 0.11078,0.2794 0.25318,0.64373 0.31645,0.80962 0.0633,0.1659 0.1567,0.40164 0.20763,0.52388 0.0509,0.12224 0.18095,0.45085 0.28891,0.73025 0.10796,0.2794 0.2577,0.66011 0.33274,0.84602 0.075,0.1859 0.15853,0.44308 0.18553,0.5715 0.027,0.12841 0.0646,0.28817 0.0835,0.35502 0.0189,0.0669 0.0538,0.20973 0.0774,0.3175 0.0236,0.10778 0.22406,0.94605 0.44539,1.86283 0.22134,0.91679 0.41552,1.73085 0.43151,1.80904 0.016,0.0782 0.0564,0.24964 0.0899,0.381 0.21986,0.86345 0.29157,1.20776 0.26781,1.28586 -0.0251,0.0826 -0.41668,0.74283 -0.49001,0.82623 -0.0307,0.0349 -0.22276,0.34211 -0.42678,0.68263 -0.20402,0.34051 -0.39622,0.6477 -0.4271,0.68262 -0.0309,0.0349 -0.17938,0.27067 -0.33,0.52388 l -0.27386,0.46037 -2.15152,2.14855 c -2.00753,2.00476 -2.16214,2.15174 -2.31027,2.19631 -0.0873,0.0263 -0.43021,0.143 -0.762,0.25941 -0.33178,0.1164 -0.6604,0.23063 -0.73025,0.25385 -0.22714,0.0755 -1.4897,0.51627 -1.58299,0.55265 -0.0499,0.0195 -0.30709,0.0777 -0.5715,0.12944 -0.26442,0.0517 -0.55219,0.10895 -0.63951,0.12717 -0.18156,0.0379 -0.83849,0.16507 -1.7145,0.33197 -0.33178,0.0632 -0.6604,0.12814 -0.73025,0.14428 -0.0699,0.0161 -0.39846,0.0806 -0.73025,0.14317 -0.33179,0.0626 -0.73183,0.14106 -0.889,0.17433 -0.15716,0.0333 -0.55721,0.11171 -0.889,0.17432 -0.33178,0.0626 -0.6604,0.12706 -0.73025,0.14321 -0.0699,0.0162 -0.36495,0.0749 -0.65577,0.13061 l -0.52878,0.10124 -0.12557,-0.0621 c -0.12491,-0.0618 -0.14544,-0.0617 -3.97449,0.0257 l -3.84893,0.0878 -0.60848,0.20405 c -0.71081,0.23837 -4.1306,1.36373 -4.64073,1.52713 -0.2316,0.0742 -0.48828,0.1283 -0.762,0.16065 -0.22701,0.0268 -0.59848,0.0705 -0.8255,0.097 -0.22701,0.0265 -0.87709,0.10437 -1.44462,0.17295 -0.56753,0.0686 -1.15332,0.13875 -1.30175,0.15595 -0.14843,0.0172 -0.51717,0.0605 -0.81942,0.0963 -0.58908,0.0697 -0.56991,0.0684 -0.64108,0.043 z m 0.93243,-0.77232 c 0.91007,-0.10929 1.43339,-0.17253 1.95682,-0.23647 0.20082,-0.0245 0.82232,-0.0967 1.38112,-0.16033 0.59281,-0.0675 1.10196,-0.14172 1.22238,-0.17813 0.1135,-0.0343 1.04934,-0.34002 2.07962,-0.67931 1.03029,-0.33929 2.159,-0.71075 2.50825,-0.82547 0.52085,-0.17108 0.65498,-0.22752 0.74613,-0.31395 0.0611,-0.058 0.91122,-0.58076 1.88912,-1.16179 0.9779,-0.58104 2.00395,-1.19377 2.2801,-1.36164 2.03978,-1.23988 4.55926,-2.73785 4.69444,-2.79108 0.10572,-0.0416 0.12781,-0.0404 0.23812,0.0135 0.0923,0.0451 0.13239,0.0906 0.16642,0.18903 0.0407,0.11781 0.0393,0.14092 -0.0159,0.25286 -0.0548,0.11118 -0.16007,0.18222 -1.07843,0.7276 -0.55975,0.33241 -1.80991,1.07477 -2.77812,1.64968 -0.96822,0.57491 -1.78897,1.06905 -1.8239,1.0981 -0.0349,0.029 -0.55372,0.34448 -1.15289,0.70096 l -1.0894,0.64815 0.18452,0.009 c 0.10149,0.005 1.73098,-0.0267 3.62109,-0.0706 1.89011,-0.0438 3.45666,-0.072 3.48122,-0.0626 0.0388,0.0149 0.68643,-0.10358 2.09921,-0.38397 0.20955,-0.0416 0.83106,-0.16255 1.38113,-0.2688 0.55007,-0.10625 1.10014,-0.21371 1.22237,-0.23879 0.12224,-0.0251 0.70803,-0.13929 1.30175,-0.2538 1.34115,-0.25866 1.27569,-0.24195 2.17488,-0.55504 0.41037,-0.14289 0.84613,-0.29365 0.96837,-0.33504 0.12224,-0.0414 0.47228,-0.16202 0.77788,-0.26808 l 0.55562,-0.19283 0.84138,-0.84391 c 0.46275,-0.46414 0.8128,-0.83587 0.77787,-0.82605 -0.0349,0.01 -0.83219,0.19096 -1.77171,0.40255 l -1.70821,0.3847 -4.07681,-1.20915 c -3.23914,-0.96069 -4.11328,-1.20914 -4.25432,-1.20914 -0.15074,0 -0.62354,-0.0637 -1.63507,-0.22025 -0.11351,-0.0176 -0.55642,-0.0831 -0.98425,-0.14553 -1.15117,-0.1681 -2.46087,-0.36115 -2.72087,-0.40106 -0.2726,-0.0419 -0.35258,-0.1095 -0.39548,-0.33456 -0.027,-0.14155 -0.18219,-1.01679 -0.40908,-2.30687 -0.0517,-0.29419 -0.0941,-0.57387 -0.0941,-0.62152 0,-0.13603 0.0634,-0.18055 0.84137,-0.59057 0.15717,-0.0828 0.35719,-0.18948 0.4445,-0.237 0.0873,-0.0475 0.27305,-0.14768 0.41275,-0.22261 0.1397,-0.0749 0.31115,-0.16749 0.381,-0.20568 0.83487,-0.45649 1.09886,-0.5881 1.17963,-0.5881 0.0511,0 0.17092,0.0203 0.26626,0.0451 0.1773,0.0461 2.5294,0.6123 3.58649,0.8633 1.2109,0.28753 1.1309,0.25912 2.05201,0.72853 0.46921,0.23912 0.9817,0.5027 1.13886,0.58574 0.15716,0.083 0.5715,0.29731 0.92075,0.47614 1.63173,0.83552 1.93899,0.99438 1.96951,1.01829 0.0262,0.0205 2.39412,0.7096 4.02524,1.17141 l 0.3115,0.0882 0.84737,-0.29882 c 0.46606,-0.16435 1.27601,-0.45002 1.79988,-0.63482 0.52388,-0.1848 1.0313,-0.36354 1.1276,-0.39719 0.16777,-0.0586 0.18304,-0.0738 0.36513,-0.36186 0.55778,-0.88253 0.67788,-1.08197 0.67992,-1.12901 0.002,-0.0408 -1.06954,-4.5795 -1.2506,-5.29826 -0.0242,-0.096 -0.0677,-0.27464 -0.0966,-0.39688 -0.0289,-0.12223 -0.10315,-0.35083 -0.16496,-0.508 -0.0618,-0.15716 -0.1452,-0.37147 -0.1853,-0.47624 -0.0401,-0.10478 -0.12957,-0.33338 -0.19885,-0.508 -0.18348,-0.46251 -0.32458,-0.82072 -0.56281,-1.42875 -0.11631,-0.29687 -0.26855,-0.68263 -0.33831,-0.85725 -0.0698,-0.17463 -0.15964,-0.40323 -0.19974,-0.508 -0.0401,-0.10478 -0.12359,-0.31909 -0.18556,-0.47625 -0.062,-0.15717 -0.20783,-0.52864 -0.32414,-0.8255 -0.11631,-0.29687 -0.26562,-0.67548 -0.33181,-0.84138 -0.0662,-0.16589 -0.17351,-0.43736 -0.2385,-0.60325 -0.065,-0.16589 -0.1392,-0.35276 -0.1649,-0.41525 -0.0266,-0.0648 -0.1154,-0.16718 -0.20637,-0.23813 -0.0878,-0.0685 -0.24932,-0.19593 -0.35893,-0.28324 -0.1096,-0.0873 -0.3095,-0.24448 -0.44423,-0.34925 -0.13472,-0.10478 -0.34227,-0.26908 -0.4612,-0.36513 -0.11894,-0.096 -0.32648,-0.26035 -0.46121,-0.36512 -0.13472,-0.10478 -0.3346,-0.26194 -0.44417,-0.34925 -0.10957,-0.0873 -0.41665,-0.3302 -0.68239,-0.53975 -0.26574,-0.20955 -0.54942,-0.43494 -0.63039,-0.50085 -0.14105,-0.11483 -0.23468,-0.16607 -0.56791,-0.31077 -0.0829,-0.036 -0.2151,-0.0951 -0.29368,-0.13133 -0.0786,-0.0362 -0.20003,-0.0905 -0.26988,-0.12068 -0.0698,-0.0301 -0.19129,-0.0841 -0.26987,-0.11997 -0.0786,-0.0358 -1.36509,-0.60243 -2.8589,-1.25911 l -2.71601,-1.19397 -3.20536,0.12762 c -2.53018,0.10074 -3.2388,0.13801 -3.36411,0.17693 -0.0873,0.0271 -0.27305,0.0831 -0.41275,0.12444 -0.1397,0.0413 -0.42545,0.12678 -0.635,0.18993 -0.20955,0.0631 -0.50244,0.15093 -0.65087,0.19508 -0.14843,0.0442 -0.3056,0.0928 -0.34925,0.10805 -0.0896,0.0313 -0.52889,0.16229 -0.79728,0.23766 -0.19726,0.0554 -0.41396,0.19013 -1.58377,0.98471 -0.43705,0.29686 -0.91403,0.61833 -1.05996,0.71438 -0.14593,0.096 -0.5402,0.36036 -0.87616,0.58737 -0.33596,0.22701 -0.7079,0.47704 -0.82654,0.55563 -0.11863,0.0786 -0.49001,0.32861 -0.82529,0.55562 -0.72505,0.49092 -0.95384,0.64406 -1.28856,0.86254 -0.42346,0.27639 -0.47612,0.32377 -1.08752,0.97858 -0.3259,0.34903 -0.64255,0.68589 -0.70367,0.74858 -0.0611,0.0627 -0.29658,0.31288 -0.52324,0.556 -0.40457,0.43396 -0.56302,0.60269 -1.09848,1.16972 -0.14708,0.15574 -0.28884,0.30624 -0.31503,0.33443 -0.52334,0.56337 -1.38419,1.48325 -1.60542,1.7155 -0.15828,0.16618 -0.40086,0.42359 -0.53906,0.57202 -0.1382,0.14844 -0.26305,0.27833 -0.27744,0.28866 -0.0144,0.0103 -0.0902,0.28179 -0.16848,0.60325 -0.57731,2.37098 -0.61724,2.51777 -0.71074,2.61286 -0.175,0.17796 -0.50121,0.0798 -0.55164,-0.16601 -0.0101,-0.049 0.0479,-0.35043 0.13841,-0.71938 0.45335,-1.84867 0.57116,-2.33792 0.57153,-2.37367 0.002,-0.17346 0.2893,-0.51227 1.63639,-1.92845 0.12458,-0.13097 0.33332,-0.35243 0.46386,-0.49213 0.13054,-0.1397 0.48576,-0.51832 0.78937,-0.84137 0.30361,-0.32306 0.63915,-0.68025 0.74564,-0.79376 0.10649,-0.1135 0.32144,-0.34237 0.47766,-0.5086 0.15622,-0.16623 0.47692,-0.50879 0.71267,-0.76124 0.23574,-0.25246 0.5381,-0.57366 0.67192,-0.71377 0.13381,-0.14012 0.27535,-0.29558 0.31454,-0.34547 0.0392,-0.0499 0.1713,-0.15705 0.2936,-0.23813 0.41286,-0.27371 0.64822,-0.43173 1.25994,-0.84591 0.6941,-0.46997 0.93926,-0.63415 1.27285,-0.85247 0.1294,-0.0847 0.25865,-0.17041 0.28722,-0.1905 0.12374,-0.087 1.28973,-0.87494 1.48709,-1.0049 0.11932,-0.0786 0.49059,-0.32862 0.82504,-0.55563 0.64894,-0.44047 0.89695,-0.60651 1.27591,-0.85418 0.23105,-0.151 0.23987,-0.16149 0.29378,-0.34925 0.0846,-0.29462 0.24208,-0.81877 0.2728,-0.90794 0.015,-0.0437 0.13694,-0.45085 0.2709,-0.90488 0.13395,-0.45402 0.28488,-0.96019 0.3354,-1.12481 0.0505,-0.16462 0.0884,-0.30208 0.0842,-0.30547 -0.004,-0.003 -0.22906,-0.031 -0.49973,-0.0615 -0.27067,-0.0304 -0.77073,-0.0872 -1.11125,-0.12619 l -0.61913,-0.0709 -0.20708,0.19354 c -0.61123,0.57125 -0.81155,0.7578 -1.71379,1.59593 -0.34052,0.31633 -0.71914,0.69918 -0.84138,0.8508 -0.12223,0.15161 -0.43656,0.53775 -0.6985,0.8581 -0.26193,0.32034 -0.67177,0.82291 -0.91074,1.11683 -0.23897,0.29391 -0.5599,0.68831 -0.71317,0.87644 -0.21755,0.26702 -0.30365,0.34953 -0.39253,0.37616 -0.16073,0.0482 -0.33542,-0.0272 -0.39533,-0.17064 -0.0257,-0.0614 -0.068,-0.41625 -0.10119,-0.8482 l -0.0571,-0.74261 -1.10231,-1.31989 c -0.92655,-1.10942 -1.31673,-1.5754 -1.94488,-2.32271 l -0.069,-0.0821 -1.01452,0.10495 c -0.55799,0.0577 -1.04452,0.10538 -1.08118,0.10589 -0.055,7.2e-4 -0.10144,0.0799 -0.26588,0.45337 -0.10957,0.24884 -0.24862,0.5596 -0.30901,0.69057 -0.15127,0.32805 -0.23047,0.50185 -0.29662,0.65087 -0.031,0.0698 -0.0993,0.21987 -0.15186,0.33338 -0.18541,0.40072 -1.59284,3.59364 -1.59284,3.61354 0,0.0168 -0.54257,1.29528 -0.68297,1.60933 -0.0234,0.0524 -0.16669,0.38814 -0.31838,0.74613 -0.62206,1.46808 -1.00761,2.37251 -1.06247,2.49237 -0.032,0.0699 -0.16602,0.38017 -0.29789,0.6896 l -0.23977,0.5626 0.064,0.29465 c 0.12406,0.5715 0.25506,1.1853 0.2831,1.32652 0.0156,0.0786 0.0869,0.42149 0.15851,0.762 0.0716,0.34052 0.14301,0.68342 0.15875,0.762 0.0157,0.0786 0.087,0.42148 0.15827,0.762 0.0713,0.34052 0.16609,0.79772 0.21064,1.016 0.0843,0.41297 0.12283,0.5317 1.44295,4.44501 0.43886,1.30095 0.80509,2.38914 0.81385,2.41818 0.0147,0.0487 0.36942,0.38084 1.26286,1.18234 0.19275,0.17293 0.35761,0.32297 0.36634,0.33342 0.009,0.0105 0.15875,0.14713 0.33337,0.30371 0.17463,0.15659 0.41049,0.37088 0.52415,0.47621 0.86786,0.80427 0.90117,0.83078 1.80457,1.43601 0.8475,0.56777 0.91413,0.60632 0.97328,0.56308 0.0349,-0.0255 0.0992,-0.0635 0.14288,-0.0843 0.0436,-0.0208 0.49908,-0.38854 1.01204,-0.81708 2.26872,-1.8953 2.04718,-1.69809 2.09951,-1.86894 0.0143,-0.0467 0.0719,-0.20641 0.12784,-0.35484 0.056,-0.14844 0.14901,-0.39847 0.20668,-0.55563 0.0577,-0.15716 0.15014,-0.40719 0.20548,-0.55562 0.0553,-0.14844 0.11233,-0.3056 0.12665,-0.34925 0.0143,-0.0437 0.0643,-0.17939 0.11095,-0.30163 0.0467,-0.12224 0.14242,-0.37941 0.21273,-0.5715 0.2172,-0.59342 0.24122,-0.65863 0.34504,-0.93662 0.0554,-0.14844 0.14798,-0.39847 0.20565,-0.55563 0.0577,-0.15716 0.15014,-0.40719 0.20548,-0.55562 0.0553,-0.14844 0.11233,-0.3056 0.12665,-0.34925 0.0143,-0.0437 0.061,-0.17225 0.10369,-0.28575 0.20106,-0.5344 0.30437,-0.81513 0.32217,-0.87548 0.0107,-0.0362 0.0614,-0.10603 0.11262,-0.15514 0.18525,-0.17748 0.50246,-0.0752 0.55317,0.1783 0.0182,0.0912 8.4e-4,0.14814 -0.26805,0.87613 -0.0338,0.0917 -0.0914,0.24884 -0.12795,0.34925 -0.0365,0.10041 -0.0861,0.23257 -0.11028,0.29369 -0.0241,0.0611 -0.11649,0.31115 -0.20525,0.55562 -0.0888,0.24448 -0.18829,0.51594 -0.22116,0.60325 -0.0329,0.0873 -0.15449,0.41593 -0.27026,0.73025 -0.30747,0.8348 -0.32675,0.88726 -0.39955,1.08744 -0.0365,0.10041 -0.0861,0.23257 -0.11027,0.29369 -0.0241,0.0611 -0.1165,0.31115 -0.20526,0.55562 -0.16545,0.45568 -0.1853,0.5093 -0.41238,1.11403 l -0.13219,0.35203 -0.4316,0.36234 c -0.46465,0.3901 -0.97555,0.81549 -1.25501,1.04498 -0.41643,0.34196 -1.51354,1.2758 -1.67314,1.42415 -0.1765,0.16406 -0.37537,0.2717 -1.47638,0.79908 -0.97528,0.46717 -1.21787,0.58409 -1.68275,0.81103 l -0.47625,0.23249 -0.0842,0.21606 c -0.15848,0.40683 -0.35307,0.91454 -0.42354,1.10506 -0.0387,0.10478 -0.12158,0.32623 -0.18406,0.49213 -0.0625,0.16589 -0.1214,0.33734 -0.13096,0.381 -0.0167,0.0762 0.0297,0.10291 1.16468,0.6704 0.65012,0.32506 1.1873,0.59295 1.19373,0.59531 0.006,0.002 0.37075,-0.0388 0.80962,-0.0915 z m 26.11857,-14.21339 c -0.0262,-0.009 -0.15478,-0.0663 -0.28575,-0.12699 -0.13097,-0.0607 -0.29528,-0.13676 -0.36513,-0.16912 -0.0698,-0.0324 -0.26769,-0.12511 -0.43965,-0.20609 -0.17619,-0.083 -0.3347,-0.13878 -0.36318,-0.12786 -0.0449,0.0173 -0.3249,0.0782 -1.77122,0.38542 -0.45109,0.0958 -0.40231,0.10861 -0.95439,-0.25011 -0.19439,-0.12631 -0.44132,-0.2868 -0.54872,-0.35665 -0.10741,-0.0698 -0.30555,-0.20073 -0.44031,-0.29085 -0.13477,-0.0901 -0.37361,-0.24384 -0.53078,-0.34161 -0.44489,-0.27675 -0.62961,-0.41281 -0.6985,-0.51451 -0.0349,-0.0516 -0.28344,-0.75756 -0.55226,-1.56889 -0.26882,-0.81133 -0.49122,-1.47847 -0.49423,-1.48253 -0.003,-0.004 -0.29026,-0.0652 -0.63836,-0.13593 -2.87317,-0.5835 -2.89039,-0.58722 -2.97771,-0.64444 -0.11925,-0.0781 -0.16691,-0.26336 -0.10554,-0.41022 0.0538,-0.12873 0.1316,-0.17745 0.49587,-0.31042 0.38262,-0.13966 1.27025,-0.4736 1.47823,-0.55613 0.10478,-0.0416 0.33338,-0.12834 0.508,-0.19282 0.17463,-0.0645 0.41037,-0.15218 0.52388,-0.19488 0.1135,-0.0427 0.24209,-0.0892 0.28575,-0.10324 0.0437,-0.0141 0.2151,-0.0782 0.381,-0.1424 0.53037,-0.20537 0.64356,-0.23538 1.016,-0.26938 0.64402,-0.0588 1.72036,-0.15874 2.05948,-0.19126 0.43707,-0.0419 0.48708,-0.0185 0.85162,0.39963 0.15387,0.17648 0.48034,0.54795 0.72548,0.8255 1.17438,1.32965 1.37444,1.56665 1.40736,1.6672 0.0193,0.0591 0.0648,0.30745 0.10101,0.55193 0.10564,0.71315 0.31635,2.14649 0.33812,2.30009 0.0244,0.17235 0.0337,0.18562 1.16383,1.66462 0.13173,0.1724 0.24822,0.35308 0.25886,0.40152 0.0516,0.23485 -0.20538,0.46882 -0.42876,0.39042 z m -3.11129,-2.76145 c 0.0937,-0.0789 0.0993,-0.0951 0.0847,-0.24606 -0.0198,-0.20489 -0.14332,-0.73979 -0.19495,-0.84427 -0.0348,-0.0704 -0.12596,-0.34005 -0.21006,-0.62138 -0.016,-0.0536 -0.0292,-0.12088 -0.0292,-0.14945 0,-0.0459 -0.2183,-0.24103 -0.56771,-0.50739 -0.0632,-0.0482 -0.16492,-0.13172 -0.22604,-0.18565 -0.0611,-0.0539 -0.16209,-0.1242 -0.22438,-0.15615 -0.0623,-0.0319 -0.1319,-0.0806 -0.1547,-0.10803 -0.0228,-0.0275 -0.0594,-0.0499 -0.0814,-0.0499 -0.0473,0 -0.1111,0.2319 -0.11081,0.403 0,0.0665 -0.0298,0.35942 -0.0665,0.65097 l -0.0668,0.5301 0.18755,0.32715 c 0.10316,0.17994 0.19673,0.35159 0.20793,0.38145 0.0254,0.0677 0.26916,0.24698 0.33767,0.24834 0.0279,4.8e-4 0.0785,0.022 0.11243,0.0476 0.0339,0.0256 0.0806,0.0466 0.10389,0.0466 0.0232,0 0.13838,0.0455 0.25587,0.10117 0.32089,0.15196 0.46356,0.21259 0.50487,0.21456 0.0205,9.6e-4 0.0824,-0.0362 0.13758,-0.0827 z m -6.21768,-4.68806 c -0.0417,-0.0444 -0.069,-0.11442 -0.069,-0.17678 0,-0.1021 0.10973,-0.27399 1.10697,-1.73411 0.13119,-0.19209 0.3537,-0.5207 0.49447,-0.73025 0.25186,-0.37494 0.25972,-0.38289 0.49406,-0.50007 0.54008,-0.27004 1.13314,-0.53848 1.22237,-0.5533 0.0524,-0.009 0.39529,0.0214 0.762,0.0669 0.36672,0.0455 0.80248,0.0979 0.96838,0.11652 0.33372,0.0374 0.41641,0.0681 0.65492,0.24273 0.50018,0.3663 0.83553,0.60953 0.99312,0.7203 0.0977,0.0687 0.24431,0.17582 0.32586,0.23813 0.0815,0.0623 0.24228,0.18116 0.35718,0.2641 0.40701,0.29381 0.62896,0.45488 0.90791,0.65882 0.15525,0.1135 0.3722,0.27066 0.48211,0.34924 0.34812,0.24889 0.4699,0.37605 0.4699,0.49064 0,0.13109 -0.11199,0.23962 -0.24728,0.23962 -0.088,0 -0.40052,-0.10818 -0.68935,-0.23864 -0.17648,-0.0797 -1.47714,-0.61861 -1.49305,-0.61861 -0.009,0 -0.0763,-0.0277 -0.15036,-0.0615 -0.074,-0.0338 -0.22746,-0.0995 -0.34096,-0.1459 -0.11351,-0.0464 -0.24924,-0.10337 -0.30163,-0.12654 -0.19335,-0.0855 -0.8731,-0.36458 -0.88794,-0.36458 -0.008,0 -0.105,-0.0404 -0.21458,-0.0898 -0.10957,-0.0494 -0.28495,-0.12373 -0.38973,-0.16523 -0.10477,-0.0415 -0.22467,-0.093 -0.26644,-0.11438 -0.0614,-0.0315 -0.089,-0.0304 -0.14371,0.005 -0.0373,0.0244 -0.3659,0.14663 -0.7303,0.27159 -0.52552,0.18021 -0.69607,0.25309 -0.82467,0.35241 -0.17157,0.13251 -0.57955,0.44138 -0.72511,0.54894 -0.0477,0.0353 -0.26201,0.19859 -0.47625,0.36298 -0.99387,0.7626 -0.99698,0.76474 -1.11094,0.76474 -0.0728,0 -0.13179,-0.0244 -0.17792,-0.0735 z"
       id="path179" /></g></svg>
