<?xml version="1.0" encoding="UTF-8" standalone="no"?>
<!-- Created with Inkscape (http://www.inkscape.org/) -->

<svg
   width="31.999998"
   height="31.999998"
   viewBox="0 0 8.4666661 8.4666661"
   version="1.1"
   id="svg5"
   xml:space="preserve"
   inkscape:version="1.2.2 (b0a8486541, 2022-12-01)"
   sodipodi:docname="test.svg"
   inkscape:export-filename="finished/32x32.png"
   inkscape:export-xdpi="96"
   inkscape:export-ydpi="96"
   xmlns:inkscape="http://www.inkscape.org/namespaces/inkscape"
   xmlns:sodipodi="http://sodipodi.sourceforge.net/DTD/sodipodi-0.dtd"
   xmlns="http://www.w3.org/2000/svg"
   xmlns:svg="http://www.w3.org/2000/svg"><sodipodi:namedview
     id="namedview7"
     pagecolor="#ffffff"
     bordercolor="#000000"
     borderopacity="0.25"
     inkscape:showpageshadow="2"
     inkscape:pageopacity="0.0"
     inkscape:pagecheckerboard="0"
     inkscape:deskcolor="#d1d1d1"
     inkscape:document-units="mm"
     showgrid="false"
     inkscape:lockguides="true"
     inkscape:zoom="0.35355339"
     inkscape:cx="694.37886"
     inkscape:cy="1144.0988"
     inkscape:window-width="1920"
     inkscape:window-height="1020"
     inkscape:window-x="0"
     inkscape:window-y="0"
     inkscape:window-maximized="1"
     inkscape:current-layer="layer1" /><defs
     id="defs2" /><g
     inkscape:label="Layer 1"
     inkscape:groupmode="layer"
     id="layer1"
     transform="translate(271.46249,218.81041)"><path
       style="fill:#05243c;fill-opacity:1;stroke-width:0.00338665"
       d="m -268.78356,-212.66622 c -0.004,-0.002 -0.18979,-0.094 -0.27864,-0.13893 -0.0462,-0.0234 -0.0511,-0.0372 -0.0313,-0.089 0.007,-0.0177 0.0182,-0.0482 0.0254,-0.0677 0.007,-0.0196 0.0185,-0.0493 0.025,-0.066 0.006,-0.0168 0.0196,-0.0509 0.0291,-0.0759 0.0188,-0.0493 0.0267,-0.063 0.0383,-0.0666 0.004,-10e-4 0.0289,-0.0126 0.0549,-0.0252 0.0261,-0.0126 0.0672,-0.0324 0.0914,-0.044 0.0772,-0.037 0.14868,-0.0715 0.15962,-0.0771 l 0.0106,-0.005 -0.009,-0.007 c -0.005,-0.004 -0.0196,-0.014 -0.0326,-0.022 -0.013,-0.008 -0.0268,-0.0172 -0.0305,-0.0204 -0.004,-0.003 -0.0205,-0.0145 -0.0373,-0.0252 -0.0605,-0.0383 -0.0676,-0.0441 -0.15399,-0.12395 -0.0233,-0.0216 -0.0601,-0.0551 -0.0817,-0.0745 -0.0829,-0.0745 -0.1715,-0.15516 -0.18974,-0.17273 l -0.019,-0.0183 -0.0224,-0.0677 c -0.0123,-0.0373 -0.0622,-0.18585 -0.1109,-0.3302 -0.10605,-0.31439 -0.1067,-0.31638 -0.11346,-0.34869 -0.003,-0.014 -0.01,-0.0469 -0.0153,-0.0729 -0.005,-0.0261 -0.0129,-0.0619 -0.0165,-0.0796 -0.004,-0.0177 -0.0113,-0.0543 -0.0169,-0.0813 -0.006,-0.027 -0.0133,-0.0636 -0.0169,-0.0813 -0.004,-0.0177 -0.0113,-0.0543 -0.017,-0.0813 -0.006,-0.027 -0.0118,-0.056 -0.0135,-0.0643 -0.002,-0.008 -0.006,-0.0259 -0.008,-0.0389 -0.0103,-0.0464 -0.0118,-0.0567 -0.01,-0.0655 0.002,-0.009 0.0357,-0.0894 0.0947,-0.2263 0.0194,-0.045 0.0374,-0.0879 0.04,-0.0952 0.003,-0.007 0.006,-0.0162 0.008,-0.0197 0.002,-0.004 0.0167,-0.0376 0.0327,-0.0758 0.016,-0.0382 0.0312,-0.074 0.0338,-0.0796 0.0101,-0.022 0.0762,-0.17709 0.0762,-0.17879 0,-0.002 0.14845,-0.33825 0.16834,-0.3817 0.005,-0.0102 0.0114,-0.0251 0.0149,-0.033 0.009,-0.0209 0.019,-0.0428 0.0263,-0.0593 0.004,-0.008 0.0132,-0.0289 0.0214,-0.0466 0.008,-0.0177 0.0233,-0.051 0.0334,-0.0741 0.011,-0.0251 0.0214,-0.0439 0.0258,-0.0469 0.009,-0.006 0.0269,-0.009 0.17304,-0.0232 0.0979,-0.01 0.12172,-0.0113 0.13145,-0.008 0.01,0.003 0.0306,0.0262 0.11413,0.12598 0.0562,0.0671 0.1356,0.16185 0.17639,0.21049 0.0408,0.0486 0.0769,0.0946 0.0802,0.10206 0.004,0.008 0.007,0.0269 0.008,0.0457 10e-4,0.0177 0.003,0.034 0.005,0.0363 10e-4,0.003 0.0139,-0.0101 0.0343,-0.0351 0.0414,-0.0509 0.10455,-0.12829 0.16411,-0.2013 0.0261,-0.032 0.052,-0.0619 0.0576,-0.0666 0.006,-0.005 0.0247,-0.0224 0.0425,-0.0394 0.036,-0.0344 0.0475,-0.0452 0.11835,-0.11044 0.027,-0.0249 0.0617,-0.0573 0.0771,-0.072 0.0154,-0.0147 0.0349,-0.0298 0.0433,-0.0335 l 0.0153,-0.007 0.0583,0.007 c 0.0321,0.004 0.0865,0.01 0.12099,0.0139 0.1356,0.0152 0.14171,0.0168 0.15121,0.0396 0.005,0.013 0.004,0.0184 -0.0631,0.23977 -0.0327,0.10788 -0.0407,0.13468 -0.0407,0.13721 0,0.002 0.018,-0.002 0.0728,-0.0188 0.0168,-0.005 0.0396,-0.0119 0.0508,-0.0152 0.0112,-0.003 0.0532,-0.016 0.0935,-0.0282 l 0.0732,-0.0222 0.34893,-0.0138 c 0.19192,-0.008 0.35178,-0.0128 0.35525,-0.0115 0.003,0.001 0.13708,0.06 0.29691,0.13043 0.15984,0.0705 0.29157,0.12814 0.29273,0.12814 10e-4,0 0.009,0.003 0.0167,0.007 0.008,0.004 0.0215,0.01 0.0299,0.0135 0.008,0.004 0.0217,0.01 0.0296,0.0133 0.008,0.004 0.0235,0.0103 0.0347,0.015 0.0327,0.0136 0.0643,0.0325 0.0924,0.0553 0.0144,0.0117 0.0411,0.0331 0.0593,0.0476 0.0182,0.0145 0.0426,0.034 0.0542,0.0434 0.0116,0.009 0.0302,0.0238 0.0414,0.0322 0.0112,0.008 0.0335,0.0258 0.0496,0.0389 0.0161,0.013 0.0417,0.0336 0.0571,0.0457 0.0153,0.0121 0.0374,0.0296 0.0492,0.0389 0.0118,0.009 0.0285,0.0223 0.0371,0.0288 0.0395,0.0296 0.0393,0.0293 0.0747,0.12192 0.007,0.0177 0.022,0.0566 0.0338,0.0864 0.0118,0.0298 0.027,0.0687 0.0337,0.0864 0.007,0.0177 0.0167,0.0428 0.0222,0.0559 0.005,0.013 0.0154,0.0382 0.0221,0.0559 0.007,0.0177 0.0219,0.0566 0.0337,0.0864 0.0118,0.0298 0.027,0.0687 0.0337,0.0864 0.007,0.0177 0.0167,0.0428 0.0222,0.0559 0.005,0.013 0.0193,0.0481 0.0308,0.0779 0.0115,0.0298 0.0275,0.0704 0.0355,0.0902 0.008,0.0198 0.0169,0.0473 0.0198,0.061 0.003,0.0137 0.007,0.0307 0.009,0.0379 0.002,0.007 0.006,0.0224 0.008,0.0339 0.003,0.0115 0.0239,0.10091 0.0475,0.1987 0.0236,0.0978 0.0443,0.18463 0.046,0.19297 0.002,0.008 0.006,0.0266 0.01,0.0406 0.0235,0.0921 0.0311,0.12882 0.0286,0.13715 -0.003,0.009 -0.0444,0.0792 -0.0523,0.0881 -0.003,0.004 -0.0238,0.0365 -0.0455,0.0728 -0.0218,0.0363 -0.0423,0.0691 -0.0456,0.0728 -0.003,0.004 -0.0191,0.0289 -0.0352,0.0559 l -0.0292,0.0491 -0.22949,0.22917 c -0.21414,0.21384 -0.23063,0.22952 -0.24643,0.23428 -0.009,0.003 -0.0459,0.0153 -0.0813,0.0277 -0.0354,0.0124 -0.0704,0.0246 -0.0779,0.0271 -0.0242,0.008 -0.15891,0.0551 -0.16886,0.0589 -0.005,0.002 -0.0328,0.008 -0.061,0.0138 -0.0282,0.006 -0.0589,0.0116 -0.0682,0.0136 -0.0194,0.004 -0.0894,0.0176 -0.18288,0.0354 -0.0354,0.007 -0.0704,0.0137 -0.0779,0.0154 -0.007,0.002 -0.0425,0.009 -0.0779,0.0153 -0.0354,0.007 -0.0781,0.015 -0.0948,0.0186 -0.0168,0.004 -0.0594,0.0119 -0.0948,0.0186 -0.0354,0.007 -0.0704,0.0135 -0.0779,0.0153 -0.007,0.002 -0.0389,0.008 -0.07,0.0139 l -0.0564,0.0108 -0.0134,-0.007 c -0.0133,-0.007 -0.0155,-0.007 -0.42394,0.003 l -0.41055,0.009 -0.0649,0.0218 c -0.0758,0.0254 -0.44059,0.14546 -0.495,0.16289 -0.0247,0.008 -0.0521,0.0137 -0.0813,0.0171 -0.0242,0.003 -0.0638,0.008 -0.0881,0.0104 -0.0242,0.003 -0.0935,0.0111 -0.15409,0.0184 -0.0605,0.007 -0.12302,0.0148 -0.13885,0.0166 -0.0158,0.002 -0.0552,0.006 -0.0874,0.0103 -0.0628,0.007 -0.0608,0.007 -0.0684,0.005 z m 0.0995,-0.0824 c 0.0971,-0.0117 0.1529,-0.0184 0.20873,-0.0252 0.0214,-0.003 0.0877,-0.0103 0.14732,-0.0171 0.0632,-0.007 0.11754,-0.0151 0.13038,-0.019 0.0121,-0.004 0.11193,-0.0363 0.22183,-0.0725 0.1099,-0.0362 0.23029,-0.0758 0.26754,-0.0881 0.0556,-0.0183 0.0699,-0.0243 0.0796,-0.0335 0.007,-0.006 0.0972,-0.0619 0.20151,-0.12392 0.1043,-0.062 0.21375,-0.12734 0.24321,-0.14524 0.21757,-0.13225 0.48631,-0.29204 0.50073,-0.29771 0.0113,-0.004 0.0136,-0.004 0.0254,0.001 0.01,0.005 0.0141,0.01 0.0178,0.0202 0.004,0.0126 0.004,0.015 -0.002,0.027 -0.006,0.0119 -0.0171,0.0194 -0.11503,0.0776 -0.0597,0.0355 -0.19306,0.11464 -0.29633,0.17597 -0.10328,0.0613 -0.19083,0.11403 -0.19455,0.11713 -0.004,0.003 -0.0591,0.0367 -0.12298,0.0748 l -0.1162,0.0691 0.0197,9.8e-4 c 0.0108,5.3e-4 0.18464,-0.003 0.38625,-0.008 0.20161,-0.005 0.36871,-0.008 0.37133,-0.007 0.004,0.002 0.0732,-0.0111 0.22392,-0.041 0.0223,-0.004 0.0886,-0.0173 0.14732,-0.0287 0.0587,-0.0113 0.11734,-0.0228 0.13038,-0.0255 0.013,-0.003 0.0755,-0.0149 0.13885,-0.0271 0.14306,-0.0276 0.13608,-0.0258 0.23199,-0.0592 0.0438,-0.0152 0.0903,-0.0313 0.10329,-0.0357 0.013,-0.004 0.0504,-0.0173 0.083,-0.0286 l 0.0593,-0.0206 0.0897,-0.09 c 0.0494,-0.0495 0.0867,-0.0892 0.083,-0.0881 -0.004,0.001 -0.0888,0.0204 -0.18898,0.0429 l -0.18221,0.041 -0.43486,-0.12898 c -0.3455,-0.10247 -0.43875,-0.12897 -0.45379,-0.12897 -0.0161,0 -0.0665,-0.007 -0.17441,-0.0235 -0.0121,-0.002 -0.0594,-0.009 -0.10498,-0.0155 -0.12279,-0.0179 -0.26249,-0.0385 -0.29023,-0.0428 -0.0291,-0.004 -0.0376,-0.0117 -0.0422,-0.0357 -0.003,-0.0151 -0.0194,-0.10846 -0.0436,-0.24607 -0.006,-0.0314 -0.01,-0.0612 -0.01,-0.0663 0,-0.0145 0.007,-0.0193 0.0897,-0.063 0.0168,-0.009 0.0381,-0.0202 0.0474,-0.0253 0.009,-0.005 0.0291,-0.0157 0.044,-0.0237 0.0149,-0.008 0.0332,-0.0179 0.0406,-0.0219 0.0891,-0.0487 0.11722,-0.0627 0.12583,-0.0627 0.005,0 0.0182,0.002 0.0284,0.005 0.0189,0.005 0.2698,0.0653 0.38256,0.0921 0.12916,0.0307 0.12063,0.0276 0.21888,0.0777 0.05,0.0255 0.10471,0.0536 0.12148,0.0625 0.0168,0.009 0.061,0.0317 0.0982,0.0508 0.17405,0.0891 0.20683,0.10607 0.21008,0.10862 0.003,0.002 0.25537,0.0757 0.42936,0.12495 l 0.0332,0.009 0.0904,-0.0319 c 0.0497,-0.0175 0.13611,-0.048 0.19199,-0.0677 0.0559,-0.0197 0.11,-0.0388 0.12027,-0.0424 0.0179,-0.006 0.0195,-0.008 0.0389,-0.0386 0.0595,-0.0941 0.0723,-0.11541 0.0725,-0.12042 1.9e-4,-0.004 -0.11408,-0.48848 -0.13339,-0.56515 -0.003,-0.0102 -0.007,-0.0293 -0.0103,-0.0423 -0.003,-0.013 -0.011,-0.0374 -0.0176,-0.0542 -0.007,-0.0168 -0.0155,-0.0396 -0.0198,-0.0508 -0.004,-0.0112 -0.0138,-0.0356 -0.0212,-0.0542 -0.0196,-0.0493 -0.0346,-0.0875 -0.06,-0.15239 -0.0124,-0.0317 -0.0286,-0.0728 -0.0361,-0.0914 -0.007,-0.0186 -0.017,-0.043 -0.0213,-0.0542 -0.004,-0.0112 -0.0132,-0.034 -0.0198,-0.0508 -0.007,-0.0168 -0.0222,-0.0564 -0.0346,-0.0881 -0.0124,-0.0317 -0.0283,-0.072 -0.0354,-0.0897 -0.007,-0.0177 -0.0185,-0.0466 -0.0254,-0.0644 -0.007,-0.0177 -0.0149,-0.0376 -0.0176,-0.0443 -0.003,-0.007 -0.0123,-0.0178 -0.022,-0.0254 -0.009,-0.007 -0.0266,-0.0209 -0.0383,-0.0302 -0.0117,-0.009 -0.033,-0.0261 -0.0474,-0.0373 -0.0144,-0.0112 -0.0365,-0.0287 -0.0492,-0.0389 -0.0127,-0.0103 -0.0348,-0.0278 -0.0492,-0.0389 -0.0144,-0.0112 -0.0357,-0.0279 -0.0474,-0.0373 -0.0117,-0.009 -0.0444,-0.0352 -0.0728,-0.0576 -0.0283,-0.0224 -0.0586,-0.0464 -0.0672,-0.0534 -0.015,-0.0122 -0.025,-0.0177 -0.0606,-0.0331 -0.009,-0.004 -0.0229,-0.0101 -0.0313,-0.014 -0.008,-0.004 -0.0213,-0.01 -0.0288,-0.0129 -0.007,-0.003 -0.0204,-0.009 -0.0288,-0.0128 -0.008,-0.004 -0.14561,-0.0643 -0.30495,-0.13431 l -0.28971,-0.12736 -0.3419,0.0136 c -0.26989,0.0107 -0.34547,0.0147 -0.35884,0.0189 -0.009,0.003 -0.0291,0.009 -0.044,0.0133 -0.0149,0.004 -0.0454,0.0135 -0.0677,0.0203 -0.0224,0.007 -0.0536,0.0161 -0.0694,0.0208 -0.0158,0.005 -0.0326,0.01 -0.0373,0.0115 -0.01,0.003 -0.0564,0.0173 -0.085,0.0254 -0.021,0.006 -0.0442,0.0203 -0.16893,0.10503 -0.0466,0.0317 -0.0975,0.066 -0.11307,0.0762 -0.0156,0.0102 -0.0576,0.0384 -0.0934,0.0626 -0.0358,0.0242 -0.0755,0.0509 -0.0882,0.0593 -0.0127,0.008 -0.0523,0.0351 -0.088,0.0593 -0.0773,0.0524 -0.10174,0.0687 -0.13744,0.092 -0.0452,0.0295 -0.0508,0.0345 -0.116,0.10438 -0.0348,0.0372 -0.0685,0.0732 -0.0751,0.0798 -0.007,0.007 -0.0316,0.0334 -0.0558,0.0593 -0.0432,0.0463 -0.0601,0.0643 -0.11718,0.12477 -0.0157,0.0166 -0.0308,0.0327 -0.0336,0.0357 -0.0558,0.0601 -0.14765,0.15821 -0.17124,0.18299 -0.0169,0.0177 -0.0428,0.0452 -0.0575,0.061 -0.0147,0.0158 -0.0281,0.0297 -0.0296,0.0308 -0.002,10e-4 -0.01,0.0301 -0.018,0.0643 -0.0616,0.2529 -0.0658,0.26856 -0.0758,0.2787 -0.0187,0.019 -0.0535,0.009 -0.0588,-0.0177 -0.001,-0.005 0.005,-0.0374 0.0148,-0.0767 0.0484,-0.19719 0.0609,-0.24938 0.061,-0.25319 1.9e-4,-0.0185 0.0308,-0.0546 0.17454,-0.2057 0.0133,-0.014 0.0356,-0.0376 0.0495,-0.0525 0.0139,-0.0149 0.0518,-0.0553 0.0842,-0.0898 0.0324,-0.0345 0.0682,-0.0726 0.0795,-0.0847 0.0113,-0.0121 0.0343,-0.0365 0.051,-0.0543 0.0167,-0.0177 0.0509,-0.0543 0.076,-0.0812 0.0251,-0.0269 0.0574,-0.0612 0.0717,-0.0761 0.0143,-0.0149 0.0294,-0.0315 0.0336,-0.0369 0.004,-0.005 0.0183,-0.0168 0.0313,-0.0254 0.044,-0.0292 0.0691,-0.046 0.1344,-0.0902 0.074,-0.0501 0.10018,-0.0676 0.13577,-0.0909 0.0138,-0.009 0.0276,-0.0182 0.0306,-0.0203 0.0132,-0.009 0.13757,-0.0933 0.15862,-0.10719 0.0127,-0.008 0.0523,-0.0351 0.088,-0.0593 0.0692,-0.047 0.0957,-0.0647 0.1361,-0.0911 0.0246,-0.0161 0.0256,-0.0172 0.0313,-0.0373 0.009,-0.0314 0.0258,-0.0873 0.0291,-0.0968 0.002,-0.005 0.0146,-0.0481 0.0289,-0.0965 0.0143,-0.0484 0.0304,-0.10242 0.0358,-0.11998 0.005,-0.0176 0.009,-0.0322 0.009,-0.0326 -4.5e-4,-3.6e-4 -0.0244,-0.003 -0.0533,-0.007 -0.0289,-0.003 -0.0822,-0.009 -0.11853,-0.0135 l -0.066,-0.008 -0.0221,0.0206 c -0.0652,0.0609 -0.0866,0.0808 -0.1828,0.17024 -0.0363,0.0337 -0.0767,0.0746 -0.0897,0.0908 -0.013,0.0162 -0.0466,0.0574 -0.0745,0.0915 -0.0279,0.0342 -0.0717,0.0878 -0.0971,0.11912 -0.0255,0.0313 -0.0597,0.0734 -0.0761,0.0935 -0.0232,0.0285 -0.0324,0.0373 -0.0419,0.0401 -0.0171,0.005 -0.0358,-0.003 -0.0422,-0.0182 -0.003,-0.007 -0.007,-0.0444 -0.0108,-0.0905 l -0.006,-0.0792 -0.11758,-0.14079 c -0.0988,-0.11834 -0.14045,-0.16804 -0.20745,-0.24775 l -0.007,-0.009 -0.10822,0.0112 c -0.0595,0.006 -0.11141,0.0112 -0.11532,0.0113 -0.006,8e-5 -0.0108,0.009 -0.0284,0.0484 -0.0117,0.0265 -0.0265,0.0597 -0.033,0.0737 -0.0161,0.035 -0.0246,0.0535 -0.0316,0.0694 -0.003,0.007 -0.0106,0.0235 -0.0162,0.0356 -0.0198,0.0427 -0.1699,0.38332 -0.1699,0.38544 0,0.002 -0.0579,0.13816 -0.0729,0.17166 -0.002,0.006 -0.0178,0.0414 -0.034,0.0796 -0.0664,0.15659 -0.10748,0.25306 -0.11333,0.26585 -0.003,0.007 -0.0177,0.0405 -0.0318,0.0736 l -0.0256,0.06 0.007,0.0314 c 0.0132,0.061 0.0272,0.12643 0.0302,0.14149 0.002,0.008 0.009,0.045 0.0169,0.0813 0.008,0.0363 0.0153,0.0729 0.0169,0.0813 0.002,0.008 0.009,0.045 0.0169,0.0813 0.008,0.0363 0.0177,0.0851 0.0225,0.10837 0.009,0.044 0.0131,0.0567 0.15391,0.47413 0.0468,0.13877 0.0859,0.25485 0.0868,0.25794 0.002,0.005 0.0394,0.0406 0.13471,0.12612 0.0206,0.0184 0.0381,0.0344 0.0391,0.0356 9.3e-4,0.001 0.0169,0.0157 0.0356,0.0324 0.0186,0.0167 0.0438,0.0396 0.0559,0.0508 0.0926,0.0858 0.0961,0.0886 0.19249,0.15317 0.0904,0.0606 0.0975,0.0647 0.10381,0.0601 0.004,-0.003 0.0106,-0.007 0.0152,-0.009 0.005,-0.002 0.0532,-0.0414 0.10796,-0.0872 0.24199,-0.20217 0.21836,-0.18113 0.22394,-0.19935 0.002,-0.005 0.008,-0.022 0.0136,-0.0378 0.006,-0.0158 0.0159,-0.0425 0.022,-0.0593 0.006,-0.0168 0.016,-0.0434 0.0219,-0.0593 0.006,-0.0158 0.012,-0.0326 0.0135,-0.0373 0.002,-0.005 0.007,-0.0191 0.0118,-0.0322 0.005,-0.013 0.0152,-0.0405 0.0227,-0.061 0.0232,-0.0633 0.0257,-0.0703 0.0368,-0.0999 0.006,-0.0158 0.0158,-0.0425 0.0219,-0.0593 0.006,-0.0168 0.016,-0.0434 0.0219,-0.0593 0.006,-0.0158 0.012,-0.0326 0.0135,-0.0372 0.002,-0.005 0.007,-0.0184 0.0111,-0.0305 0.0214,-0.057 0.0325,-0.087 0.0344,-0.0934 0.001,-0.004 0.007,-0.0113 0.012,-0.0165 0.0198,-0.0189 0.0536,-0.008 0.059,0.019 0.002,0.01 8e-5,0.0158 -0.0286,0.0935 -0.004,0.01 -0.01,0.0265 -0.0136,0.0372 -0.004,0.0107 -0.009,0.0248 -0.0118,0.0313 -0.003,0.007 -0.0124,0.0332 -0.0219,0.0593 -0.009,0.0261 -0.0201,0.055 -0.0236,0.0643 -0.004,0.009 -0.0165,0.0444 -0.0288,0.0779 -0.0328,0.089 -0.0349,0.0946 -0.0426,0.11599 -0.004,0.0107 -0.009,0.0248 -0.0118,0.0313 -0.003,0.007 -0.0124,0.0332 -0.0219,0.0593 -0.0177,0.0486 -0.0198,0.0543 -0.044,0.11883 l -0.0141,0.0375 -0.046,0.0387 c -0.0496,0.0416 -0.10406,0.087 -0.13386,0.11146 -0.0444,0.0365 -0.16145,0.13608 -0.17847,0.15191 -0.0188,0.0175 -0.04,0.029 -0.15748,0.0852 -0.10403,0.0498 -0.12991,0.0623 -0.17949,0.0865 l -0.0508,0.0248 -0.009,0.0231 c -0.0169,0.0434 -0.0377,0.0976 -0.0452,0.11787 -0.004,0.0112 -0.013,0.0348 -0.0196,0.0525 -0.007,0.0177 -0.0129,0.036 -0.014,0.0406 -0.002,0.008 0.003,0.011 0.12423,0.0715 0.0693,0.0347 0.12665,0.0633 0.12733,0.0635 6.9e-4,2.5e-4 0.0396,-0.004 0.0864,-0.01 z m 2.78597,-1.51609 c -0.003,-9.8e-4 -0.0165,-0.007 -0.0305,-0.0135 -0.014,-0.006 -0.0315,-0.0146 -0.0389,-0.018 -0.007,-0.003 -0.0285,-0.0133 -0.0469,-0.022 -0.0188,-0.009 -0.0357,-0.0148 -0.0387,-0.0136 -0.005,0.002 -0.0347,0.008 -0.18893,0.0411 -0.0481,0.0102 -0.0429,0.0116 -0.1018,-0.0267 -0.0207,-0.0135 -0.0471,-0.0306 -0.0585,-0.038 -0.0115,-0.007 -0.0326,-0.0214 -0.047,-0.031 -0.0144,-0.01 -0.0399,-0.026 -0.0566,-0.0364 -0.0475,-0.0295 -0.0672,-0.044 -0.0745,-0.0549 -0.004,-0.006 -0.0302,-0.0808 -0.0589,-0.16735 -0.0287,-0.0865 -0.0524,-0.1577 -0.0527,-0.15813 -3.2e-4,-4.4e-4 -0.031,-0.007 -0.0681,-0.0145 -0.30647,-0.0622 -0.3083,-0.0626 -0.31762,-0.0687 -0.0127,-0.008 -0.0178,-0.0281 -0.0113,-0.0438 0.006,-0.0137 0.014,-0.0189 0.0529,-0.0331 0.0408,-0.0149 0.13549,-0.0505 0.15767,-0.0593 0.0112,-0.004 0.0356,-0.0137 0.0542,-0.0206 0.0186,-0.007 0.0438,-0.0162 0.0559,-0.0208 0.0121,-0.005 0.0258,-0.01 0.0305,-0.011 0.005,-0.002 0.0229,-0.008 0.0406,-0.0152 0.0566,-0.0219 0.0686,-0.0251 0.10837,-0.0287 0.0687,-0.006 0.18351,-0.0169 0.21968,-0.0204 0.0466,-0.004 0.0519,-0.002 0.0908,0.0426 0.0164,0.0188 0.0512,0.0584 0.0774,0.088 0.12527,0.14183 0.14661,0.16711 0.15012,0.17783 0.002,0.006 0.007,0.0328 0.0108,0.0589 0.0113,0.0761 0.0337,0.22896 0.0361,0.24535 0.003,0.0184 0.004,0.0198 0.12414,0.17755 0.014,0.0184 0.0265,0.0377 0.0276,0.0428 0.006,0.025 -0.0219,0.05 -0.0457,0.0416 z m -0.33187,-0.29456 c 0.01,-0.008 0.0106,-0.0101 0.009,-0.0262 -0.002,-0.0219 -0.0153,-0.0789 -0.0208,-0.0901 -0.004,-0.008 -0.0134,-0.0363 -0.0224,-0.0663 -0.002,-0.006 -0.003,-0.0129 -0.003,-0.0159 0,-0.005 -0.0233,-0.0257 -0.0605,-0.0541 -0.007,-0.005 -0.0176,-0.014 -0.0241,-0.0198 -0.007,-0.006 -0.0173,-0.0133 -0.0239,-0.0167 -0.007,-0.003 -0.0141,-0.009 -0.0165,-0.0115 -0.002,-0.003 -0.006,-0.005 -0.009,-0.005 -0.005,0 -0.0118,0.0247 -0.0118,0.043 0,0.007 -0.003,0.0383 -0.007,0.0694 l -0.007,0.0566 0.02,0.0349 c 0.011,0.0192 0.021,0.0375 0.0222,0.0407 0.003,0.007 0.0287,0.0264 0.036,0.0265 0.003,5e-5 0.008,0.002 0.012,0.005 0.004,0.003 0.009,0.005 0.0111,0.005 0.002,0 0.0148,0.005 0.0273,0.0108 0.0342,0.0162 0.0495,0.0227 0.0539,0.0229 0.002,1e-4 0.009,-0.004 0.0147,-0.009 z m -0.66322,-0.50005 c -0.004,-0.005 -0.007,-0.0122 -0.007,-0.0189 0,-0.0109 0.0117,-0.0292 0.11808,-0.18497 0.014,-0.0205 0.0377,-0.0555 0.0527,-0.0779 0.0269,-0.04 0.0277,-0.0408 0.0527,-0.0533 0.0576,-0.0288 0.12087,-0.0574 0.13039,-0.059 0.006,-9.3e-4 0.0422,0.002 0.0813,0.007 0.0391,0.005 0.0856,0.0104 0.10329,0.0124 0.0356,0.004 0.0444,0.007 0.0699,0.0259 0.0533,0.0391 0.0891,0.065 0.10593,0.0768 0.0104,0.007 0.0261,0.0188 0.0348,0.0254 0.009,0.007 0.0258,0.0193 0.0381,0.0282 0.0434,0.0313 0.0671,0.0485 0.0968,0.0703 0.0166,0.0121 0.0397,0.0289 0.0514,0.0372 0.0371,0.0265 0.0501,0.0401 0.0501,0.0523 0,0.014 -0.012,0.0256 -0.0264,0.0256 -0.009,0 -0.0427,-0.0115 -0.0735,-0.0255 -0.0188,-0.008 -0.15756,-0.066 -0.15926,-0.066 -9.2e-4,0 -0.008,-0.003 -0.016,-0.007 -0.008,-0.004 -0.0243,-0.0106 -0.0364,-0.0156 -0.0121,-0.005 -0.0266,-0.011 -0.0322,-0.0135 -0.0206,-0.009 -0.0931,-0.0389 -0.0947,-0.0389 -9e-4,0 -0.0112,-0.004 -0.0229,-0.01 -0.0117,-0.005 -0.0304,-0.0132 -0.0416,-0.0176 -0.0112,-0.004 -0.024,-0.01 -0.0284,-0.0122 -0.007,-0.003 -0.009,-0.003 -0.0153,5.8e-4 -0.004,0.003 -0.039,0.0156 -0.0779,0.029 -0.0561,0.0192 -0.0743,0.027 -0.088,0.0376 -0.0183,0.0141 -0.0618,0.0471 -0.0774,0.0586 -0.005,0.004 -0.0279,0.0212 -0.0508,0.0387 -0.10601,0.0813 -0.10634,0.0816 -0.1185,0.0816 -0.008,0 -0.0141,-0.003 -0.019,-0.008 z"
       id="path179" /></g></svg>
