<?xml version="1.0" encoding="UTF-8" standalone="no"?>
<!-- Created with Inkscape (http://www.inkscape.org/) -->

<svg
   width="31.999998"
   height="31.999998"
   viewBox="0 0 8.4666661 8.4666661"
   version="1.1"
   id="svg5"
   xml:space="preserve"
   inkscape:version="1.2.2 (b0a8486541, 2022-12-01)"
   sodipodi:docname="32x32.svg"
   inkscape:export-filename="finished/32x32.png"
   inkscape:export-xdpi="96"
   inkscape:export-ydpi="96"
   xmlns:inkscape="http://www.inkscape.org/namespaces/inkscape"
   xmlns:sodipodi="http://sodipodi.sourceforge.net/DTD/sodipodi-0.dtd"
   xmlns="http://www.w3.org/2000/svg"
   xmlns:svg="http://www.w3.org/2000/svg"><sodipodi:namedview
     id="namedview7"
     pagecolor="#ffffff"
     bordercolor="#000000"
     borderopacity="0.25"
     inkscape:showpageshadow="2"
     inkscape:pageopacity="0.0"
     inkscape:pagecheckerboard="0"
     inkscape:deskcolor="#d1d1d1"
     inkscape:document-units="mm"
     showgrid="false"
     inkscape:lockguides="true"
     inkscape:zoom="0.35355339"
     inkscape:cx="694.37886"
     inkscape:cy="1144.0988"
     inkscape:window-width="1920"
     inkscape:window-height="1020"
     inkscape:window-x="0"
     inkscape:window-y="0"
     inkscape:window-maximized="1"
     inkscape:current-layer="layer1" /><defs
     id="defs2" /><g
     inkscape:label="Layer 1"
     inkscape:groupmode="layer"
     id="layer1"
     transform="translate(271.46249,218.81041)"><path
       id="path191"
       style="fill:#ffffff;stroke-width:0.0220971"
       transform="matrix(0.26458333,0,0,0.26458333,-271.46249,-218.81041)"
       d="m 14.066406,8.953125 a 0.10494757,0.10494757 0 0 0 -0.08398,0.027344 l -0.44336,0.4140624 c -0.59016,0.5532801 -0.629742,0.5965064 -1.146484,1.2343746 -0.279137,0.34457 -0.425942,0.526243 -0.507812,0.613282 -0.04094,0.04352 -0.065,0.06034 -0.07227,0.06445 -0.0073,0.0041 0.0029,0.002 -0.01367,0.002 -0.0224,0 -0.02679,-0.0028 -0.02148,0 0,0 0.002,-0.002 0.002,-0.002 -0.01093,-0.02615 -0.02594,-0.124215 -0.04102,-0.296875 L 11.71099,10.695309 A 0.10494757,0.10494757 0 0 0 11.6856,10.638669 L 11.056641,9.8867188 C 10.74933,9.5194114 10.593013,9.3323656 10.498047,9.2324219 10.450564,9.18245 10.419536,9.1530012 10.378906,9.1308594 c -0.04063,-0.022142 -0.09767,-0.023186 -0.11914,-0.019531 -0.01866,0.00318 -0.21518,0.026796 -0.4023441,0.044922 -0.103394,0.010013 -0.1936346,0.020021 -0.2617188,0.03125 -0.034042,0.00561 -0.061721,0.01141 -0.085937,0.017578 -0.012108,0.00308 -0.023093,0.00709 -0.035156,0.011719 -0.00603,0.00232 -0.01362,0.0035 -0.021484,0.00781 -0.00393,0.00216 -0.00667,0.00615 -0.011719,0.00977 -0.00504,0.00362 -0.017104,0.013162 -0.017578,0.013672 -0.025386,0.027294 -0.023925,0.033601 -0.033203,0.050781 -0.00928,0.01718 -0.020055,0.037638 -0.033203,0.064453 -0.026295,0.053631 -0.06068,0.1294916 -0.1035157,0.2226563 -0.085672,0.1863294 -0.2047017,0.4481223 -0.3457031,0.7675783 -0.2820028,0.63891 -0.6566187,1.506588 -1.0605469,2.453125 l -0.5136718,1.203125 a 0.10494757,0.10494757 0 0 0 -0.00781,0.06055 l 0.023437,0.123047 c 0.014296,0.074 0.1128236,0.551438 0.2226562,1.074219 l 0.2011719,0.951172 a 0.10494757,0.10494757 0 0 0 0.00391,0.01172 l 0.4335937,1.292969 c 0.1367031,0.407231 0.2493926,0.735152 0.3320313,0.966796 0.041319,0.115822 0.075756,0.207485 0.1015624,0.273438 0.012903,0.03298 0.023778,0.06097 0.033203,0.08203 0.00943,0.02107 0.00547,0.0273 0.035156,0.06055 0.018778,0.02103 0.037464,0.03593 0.076172,0.07227 0.038708,0.03633 0.089692,0.08477 0.1523437,0.142578 0.1253036,0.115621 0.2924039,0.268999 0.46875,0.429687 0.5426373,0.494456 0.7043602,0.62946 1.0117192,0.835938 l 0.359375,0.240234 a 0.10494757,0.10494757 0 0 0 0.115234,0 l 0.06055,-0.03906 c 0.02408,-0.01549 0.05015,-0.03534 0.0918,-0.06836 0.04164,-0.03302 0.09326,-0.07704 0.154297,-0.126953 0.122064,-0.09982 0.275655,-0.225764 0.425781,-0.351562 0.150127,-0.125799 0.297529,-0.250486 0.408203,-0.345704 0.05534,-0.04761 0.101451,-0.08737 0.134766,-0.117187 0.01666,-0.01491 0.03049,-0.02701 0.04102,-0.03711 0.0053,-0.0051 0.0088,-0.0104 0.01367,-0.01563 0.0024,-0.0026 0.0062,-0.0052 0.0098,-0.0098 0.0018,-0.0023 0.0057,-0.0094 0.0059,-0.0098 2.08e-4,-3.26e-4 0.01165,-0.02322 0.01172,-0.02344 0.05777,-0.172907 0.297629,-0.82137 0.523438,-1.423828 0.112904,-0.301229 0.221529,-0.591619 0.304687,-0.808594 0.04158,-0.108487 0.07648,-0.198439 0.101563,-0.261719 0.01254,-0.03164 0.02232,-0.05759 0.0293,-0.07422 0.005,-0.0033 0.01569,-0.0068 0.03516,0 0.01847,0.0064 0.02036,0.0116 0.02148,0.01367 -0.0039,0.01264 -0.008,0.03006 -0.01563,0.05273 -0.01639,0.0489 -0.04017,0.119318 -0.07031,0.205078 -0.06029,0.171519 -0.144562,0.407491 -0.240235,0.671875 -0.191344,0.528768 -0.428335,1.172119 -0.609375,1.652344 -0.02103,0.0558 -0.02176,0.06347 -0.08594,0.126953 -0.06417,0.06348 -0.188418,0.16958 -0.425781,0.367187 -0.273516,0.227706 -0.594103,0.49651 -0.714844,0.601563 -0.110082,0.09578 -0.185775,0.15352 -0.361328,0.25 -0.175553,0.09648 -0.449211,0.22879 -0.9375006,0.460937 L 9.521573,21.453055 a 0.10494757,0.10494757 0 0 0 -0.052734,0.05859 l -0.1601562,0.417969 c -0.044062,0.115823 -0.084225,0.225227 -0.1132813,0.308593 -0.014528,0.04168 -0.026609,0.07634 -0.035156,0.103516 -0.00427,0.01359 -0.00699,0.02476 -0.00977,0.03516 -0.00139,0.0052 -0.00273,0.0099 -0.00391,0.01563 -5.872e-4,0.0029 -0.00139,0.0058 -0.00195,0.0098 -5.616e-4,0.004 -0.00195,0.01697 -0.00195,0.01758 0,7.44e-4 0.00267,0.02571 0.00586,0.03516 0.00319,0.0094 0.00824,0.01753 0.011719,0.02344 0.00695,0.01181 0.011679,0.0191 0.017578,0.02539 0.011799,0.01258 0.022852,0.02006 0.035156,0.0293 0.024609,0.01847 0.055828,0.03889 0.095703,0.0625 0.07975,0.04723 0.1945122,0.109928 0.3496093,0.189453 0.204867,0.105042 0.3228813,0.162976 0.4062502,0.197266 0.08337,0.03429 0.149894,0.04366 0.203125,0.03711 0.04371,-0.0053 0.158207,-0.01459 0.248047,-0.02148 0.117675,-0.009 0.509318,-0.05465 0.898437,-0.101563 0.38912,-0.04692 0.755513,-0.09233 0.847657,-0.109375 0.03324,-0.0061 0.0672,-0.01743 0.132812,-0.03711 0.06561,-0.01967 0.15343,-0.04583 0.25586,-0.07813 0.204859,-0.06459 0.472017,-0.151764 0.751953,-0.244141 0.484384,-0.159842 0.740089,-0.245124 0.90625,-0.308593 0.166161,-0.06347 0.24483,-0.107124 0.351562,-0.173829 0.239977,-0.149979 3.159252,-1.902679 3.324219,-1.996093 0.02965,-0.01678 0.06484,-0.03416 0.0918,-0.04492 0.02696,-0.01077 0.05882,-0.01172 0.0332,-0.01172 0.02114,0 0.01967,0.0033 0.02344,0.01563 0.0038,0.01236 0.0026,0.03217 -0.01953,0.05273 0.01296,-0.01202 -0.0016,0.001 -0.01758,0.01172 -0.01603,0.01068 -0.03974,0.02481 -0.06836,0.04297 -0.05724,0.03633 -0.136046,0.08734 -0.232422,0.146484 -0.192753,0.118287 -0.453037,0.274157 -0.730469,0.439453 -0.555655,0.331065 -1.248621,0.745153 -1.541015,0.921876 l -0.529297,0.320312 a 0.10494757,0.10494757 0 0 0 0.05859,0.195312 l 0.275391,-0.01172 c 0.146307,-0.0065 0.816633,-0.02425 1.478516,-0.03711 l 1.205078,-0.02148 a 0.10494757,0.10494757 0 0 0 0.01758,-0.002 l 0.740234,-0.142578 c 2.108451,-0.404238 2.1348,-0.412007 2.808594,-0.644531 l 0.619141,-0.212891 a 0.10494757,0.10494757 0 0 0 0.04102,-0.02539 l 0.314453,-0.3125 c 0.08762,-0.08702 0.163763,-0.166695 0.21875,-0.226562 0.02749,-0.02993 0.05025,-0.05434 0.06641,-0.07422 0.0081,-0.0099 0.01409,-0.01767 0.02148,-0.0293 0.0018,-0.0029 0.0036,-0.0075 0.0059,-0.01172 0.0022,-0.0043 0.0076,-0.01693 0.0078,-0.01758 1.07e-4,-3.23e-4 0.0039,-0.01732 0.0039,-0.01758 4.1e-5,-2.57e-4 2.7e-5,-0.03106 0,-0.03125 -2.7e-5,-1.91e-4 -0.01944,-0.05066 -0.01953,-0.05078 -9.6e-5,-1.23e-4 -0.05062,-0.0351 -0.05078,-0.03516 -1.65e-4,-5.5e-5 -0.02509,-0.0058 -0.02539,-0.0059 -3.02e-4,-2.3e-5 -0.009,-5.6e-5 -0.01172,0 -0.0055,1.13e-4 -0.0086,0.0016 -0.01172,0.002 -0.0062,6.36e-4 -0.01165,10e-4 -0.01758,0.002 -0.01185,0.0019 -0.02516,0.0044 -0.04297,0.0078 -0.03561,0.0069 -0.0851,0.01663 -0.144532,0.0293 -0.118854,0.02534 -0.280099,0.06176 -0.455078,0.101562 -0.174238,0.03963 -0.337076,0.0755 -0.458984,0.101563 -0.06095,0.01303 -0.112255,0.02213 -0.148438,0.0293 -0.01809,0.0036 -0.03129,0.0081 -0.04102,0.0098 -0.0042,-0.001 -0.0074,-0.0023 -0.01367,-0.0039 -0.01954,-0.0051 -0.04775,-0.01341 -0.08398,-0.02344 -0.07246,-0.02005 -0.175475,-0.04989 -0.300781,-0.08594 -0.250612,-0.07209 -0.591432,-0.171705 -0.960937,-0.28125 -0.744358,-0.220675 -1.233325,-0.362486 -1.546875,-0.451172 -0.156776,-0.04434 -0.269983,-0.07584 -0.34961,-0.0957 -0.07963,-0.01986 -0.114114,-0.03125 -0.164062,-0.03125 0.01861,0 -0.0039,1.93e-4 -0.02148,-0.002 -0.01763,-0.0021 -0.04135,-0.0056 -0.07227,-0.0098 -0.06182,-0.0083 -0.148698,-0.02072 -0.25,-0.03516 -0.202603,-0.02888 -0.467336,-0.06624 -0.732422,-0.105469 -0.265086,-0.03923 -0.530793,-0.08039 -0.732422,-0.111328 -0.100814,-0.01547 -0.185005,-0.0292 -0.246094,-0.03906 -0.03054,-0.0049 -0.05507,-0.0087 -0.07226,-0.01172 -0.01719,-0.003 -0.04172,-0.009 -0.01953,-0.002 0.0012,3.94e-4 -0.0015,-0.0013 -0.002,-0.002 -0.0017,-0.0061 -0.0036,-0.01034 -0.0059,-0.01953 -0.0071,-0.02907 -0.01675,-0.07145 -0.02734,-0.123046 -0.02118,-0.103188 -0.04796,-0.242282 -0.07422,-0.392578 -0.06367,-0.364382 -0.09455,-0.542789 -0.105469,-0.626954 -0.0037,-0.02855 -0.0037,-0.0308 -0.0039,-0.03711 0.008,-0.0051 0.01515,-0.01023 0.02734,-0.01758 0.03494,-0.02106 0.08528,-0.04855 0.144532,-0.08203 0.118507,-0.06696 0.274878,-0.153762 0.43164,-0.238282 0.156762,-0.08452 0.313349,-0.166745 0.433594,-0.228515 0.06012,-0.03089 0.1123,-0.05695 0.148437,-0.07422 0.01286,-0.0061 0.02083,-0.0099 0.0293,-0.01367 0.01099,0.0023 0.02505,0.0038 0.04297,0.0078 0.04244,0.0094 0.101332,0.02231 0.173828,0.03906 0.144993,0.0335 0.340471,0.0799 0.546875,0.128906 0.412808,0.09802 0.873084,0.209242 1.070313,0.259766 0.107648,0.02758 0.374202,0.148806 1.050781,0.494141 0.492195,0.251223 0.943642,0.481888 1.015625,0.517578 0.02569,0.01273 0.05108,0.0211 0.0918,0.03516 0.04071,0.01406 0.09248,0.03096 0.154297,0.05078 0.123641,0.03963 0.285419,0.08957 0.460937,0.142578 0.351036,0.106023 0.75846,0.225182 1.039063,0.300782 0.02801,0.0075 0.06628,0.01061 0.105468,0.0059 0.03919,-0.0048 0.08255,-0.0148 0.144532,-0.0332 0.123957,-0.03681 0.323078,-0.105876 0.68164,-0.232422 l 0.789063,-0.279297 a 0.10494757,0.10494757 0 0 0 0.05273,-0.04297 l 0.175781,-0.279297 0.175782,-0.277343 a 0.10494757,0.10494757 0 0 0 0.01367,-0.08008 l -0.08984,-0.396485 c -0.102627,-0.445487 -0.217057,-0.933567 -0.3125,-1.324218 -0.04772,-0.195326 -0.09173,-0.366288 -0.125,-0.496094 -0.03327,-0.129807 -0.05305,-0.210577 -0.06836,-0.253906 -0.08258,-0.233779 -0.361537,-0.941732 -0.626953,-1.603516 -0.132708,-0.330892 -0.263031,-0.65037 -0.361328,-0.888672 -0.04915,-0.119151 -0.09041,-0.217707 -0.121094,-0.289062 -0.01534,-0.03568 -0.02722,-0.06447 -0.03711,-0.08594 -0.0049,-0.01074 -0.0096,-0.01934 -0.01367,-0.02734 -0.002,-0.004 -0.0032,-0.0072 -0.0059,-0.01172 -0.0013,-0.0023 -0.0037,-0.0046 -0.0059,-0.0078 -0.0022,-0.0032 -0.0095,-0.01334 -0.0098,-0.01367 -0.01301,-0.01412 -0.02006,-0.01994 -0.0332,-0.03125 -0.01314,-0.01131 -0.03034,-0.02408 -0.05078,-0.04101 -0.04088,-0.03387 -0.09515,-0.08032 -0.160156,-0.132813 -0.130015,-0.104986 -0.299981,-0.240059 -0.472656,-0.376953 -0.34535,-0.273788 -0.689957,-0.544278 -0.78125,-0.607422 -0.02085,-0.01442 -0.03349,-0.02057 -0.05859,-0.0332 -0.02511,-0.01263 -0.05774,-0.02791 -0.09766,-0.04687 -0.07982,-0.03792 -0.188483,-0.08723 -0.31836,-0.146484 -0.259752,-0.118503 -0.604644,-0.273552 -0.972656,-0.435547 L 18.605401,10.18544 a 0.10494757,0.10494757 0 0 0 -0.04687,-0.0098 l -0.917969,0.03711 c -0.50463,0.01986 -1.09206,0.04477 -1.308594,0.05664 l -0.388672,0.02149 a 0.10494757,0.10494757 0 0 0 -0.02344,0.0059 l -0.59375,0.177734 c -0.165493,0.04964 -0.328718,0.101711 -0.458984,0.146485 -0.130267,0.04477 -0.216478,0.07357 -0.273438,0.105468 -0.03749,0.021 -0.113667,0.07035 -0.244141,0.15625 -0.130473,0.0859 -0.308129,0.203761 -0.523437,0.347657 -0.430617,0.287792 -1.009674,0.677359 -1.654297,1.113281 -0.210951,0.142654 -0.325232,0.244424 -0.568359,0.503906 -0.163181,0.174155 -0.588872,0.628888 -0.947266,1.011719 -0.358141,0.382562 -0.7397727,0.786161 -0.8437503,0.892578 L 9.6171875,14.951172 A 0.10494757,0.10494757 0 0 0 9.5898438,15 l -0.1542969,0.615234 c -0.042089,0.168006 -0.0852,0.327661 -0.1191407,0.447266 -0.01697,0.0598 -0.031515,0.10881 -0.042969,0.144531 -0.00573,0.01786 -0.010235,0.03178 -0.013672,0.04102 -0.00344,0.0092 -0.010143,0.01938 0,0.0039 -0.00569,0.0087 -0.027,0.01402 -0.050781,-0.0098 -0.012097,-0.0121 -0.00693,-0.0083 -0.00586,-0.0039 0.00107,0.0044 -9.375e-4,-0.0041 0.00391,-0.03125 0.014738,-0.08261 0.085037,-0.384995 0.1542969,-0.666015 0.03463,-0.140511 0.070259,-0.278163 0.097656,-0.382813 0.013699,-0.05232 0.025989,-0.09647 0.035156,-0.128906 0.00917,-0.03244 0.020849,-0.06442 0.013672,-0.04883 0.027739,-0.06027 0.1138891,-0.161832 1.3046879,-1.431641 l 1.005859,-1.072266 0.478516,-0.326171 c 0.268527,-0.182077 0.887039,-0.597264 1.373047,-0.923829 0.243085,-0.163337 0.465608,-0.313741 0.628906,-0.423828 0.08165,-0.05504 0.148279,-0.100889 0.195313,-0.132812 0.02352,-0.01596 0.04342,-0.02802 0.05664,-0.03711 0.0066,-0.0045 0.0115,-0.0088 0.01563,-0.01172 0.0041,-0.0029 0.01506,-0.01122 0.01563,-0.01172 1.78e-4,-1.59e-4 0.0154,-0.01921 0.01563,-0.01953 2.23e-4,-3.18e-4 0.0044,-0.0072 0.0059,-0.0098 0.0029,-0.0052 0.0063,-0.0084 0.0078,-0.01172 0.003,-0.0066 0.0053,-0.01099 0.0078,-0.01758 0.005,-0.01318 0.0089,-0.02895 0.01563,-0.04883 0.0135,-0.03976 0.03244,-0.09578 0.05273,-0.160156 0.04059,-0.128752 0.09206,-0.297836 0.142578,-0.466797 0.05052,-0.1689608 0.09863,-0.3369981 0.134766,-0.4648438 0.01807,-0.063923 0.03287,-0.1170403 0.04297,-0.15625 0.0051,-0.019605 0.0089,-0.035499 0.01172,-0.048828 0.0014,-0.00666 0.0029,-0.011461 0.0039,-0.019531 5.26e-4,-0.00404 0.002,-0.0085 0.002,-0.017578 -1.4e-5,-0.00454 -0.0019,-0.021225 -0.002,-0.021484 -2.6e-5,-1.3e-4 -0.0058,-0.021394 -0.0059,-0.021484 -3.7e-5,-9.02e-5 -0.02339,-0.033153 -0.02344,-0.033203 -9e-5,-8.97e-5 -0.02326,-0.017478 -0.02344,-0.017578 -1.83e-4,-1.001e-4 -0.0107,-0.00467 -0.01367,-0.00586 -0.006,-0.00238 -0.0087,-0.00304 -0.01172,-0.00391 -0.0061,-0.00174 -0.01102,-0.00294 -0.01562,-0.00391 -0.0092,-0.00193 -0.01888,-0.00383 -0.03125,-0.00586 -0.02473,-0.00405 -0.05727,-0.010072 -0.09766,-0.015625 -0.08077,-0.011105 -0.190433,-0.023223 -0.308593,-0.037109 z m 4.53125,3.822266 0.378906,0.04492 c 0.116712,0.01356 0.224846,0.02928 0.306641,0.04297 0.0409,0.0068 0.07484,0.01393 0.09961,0.01953 0.02477,0.0056 0.04422,0.01452 0.03125,0.0078 0.01247,0.0064 0.13983,0.08988 0.242188,0.164063 0.594984,0.431231 0.911114,0.661206 1.074219,0.789062 0.0749,0.05871 0.111941,0.09151 0.130859,0.111328 -0.01357,-0.0046 -0.03114,-0.01073 -0.05469,-0.01953 -0.05211,-0.01947 -0.125898,-0.04858 -0.214844,-0.08399 -0.177893,-0.07081 -0.41604,-0.169564 -0.673828,-0.277343 l -0.939453,-0.392578 a 0.10494757,0.10494757 0 0 0 -0.07617,0 L 18.625,13.283203 a 0.10494757,0.10494757 0 0 0 -0.002,0 c -0.0768,0.02818 -0.152054,0.05595 -0.212891,0.08008 -0.06084,0.02412 -0.0985,0.039 -0.130859,0.05664 -0.02149,0.01171 -0.0346,0.02077 -0.06055,0.03906 -0.02595,0.0183 -0.05729,0.04211 -0.0957,0.07031 -0.07684,0.05641 -0.176321,0.129698 -0.277344,0.207031 -0.200487,0.153474 -0.411635,0.31185 -0.447265,0.335938 -0.01778,0.01202 -0.036,0.02344 -0.05078,0.03125 6.9e-5,-0.0034 -0.0028,-0.0026 0.0059,-0.01953 0.0019,-0.0037 0.05423,-0.08829 0.11914,-0.1875 0.06491,-0.09921 0.147181,-0.223964 0.230469,-0.347656 0.08329,-0.123691 0.166297,-0.246414 0.232422,-0.341797 0.03306,-0.04769 0.06215,-0.08878 0.08398,-0.11914 0.02184,-0.03036 0.04313,-0.05522 0.03906,-0.05078 -0.01165,0.01273 0.0011,5.64e-4 0.01758,-0.0098 0.01649,-0.01033 0.03856,-0.02404 0.06641,-0.03906 0.05569,-0.03005 0.129082,-0.06625 0.203125,-0.09961 z m 0.716797,1.195312 c 0.06721,-1.69e-4 0.08832,0.008 0.105469,0.02149 -0.0094,-0.0074 0.01843,0.01862 0.04687,0.04883 0.02844,0.03021 0.06569,0.07084 0.109375,0.11914 0.08737,0.09659 0.197939,0.221507 0.308594,0.347656 0.110654,0.12615 0.220973,0.252853 0.30664,0.353516 0.04283,0.05033 0.08017,0.09563 0.107422,0.128906 0.02725,0.03327 0.04888,0.06175 0.04687,0.05859 -0.0065,-0.01033 0.0022,0.0059 0.0098,0.0332 0.0075,0.02733 0.01703,0.06731 0.02734,0.119141 0.02062,0.103659 0.04599,0.255929 0.07617,0.458984 L 20.546875,16.25 a 0.10494757,0.10494757 0 0 0 0.01758,0.04492 l 0.08203,0.115234 a 0.10494757,0.10494757 0 0 0 0.002,0.002 c 0.04702,0.06471 0.174352,0.234768 0.287109,0.384766 0.055,0.07316 0.105248,0.144627 0.140625,0.199219 0.01548,0.02389 0.02664,0.04356 0.03516,0.05859 -0.0049,0.0073 -0.01059,0.0145 -0.01563,0.01953 -0.0062,0.0062 -0.01566,0.01276 -0.02344,0.01758 -0.01653,-0.0059 -0.04065,-0.01599 -0.06836,-0.02734 -0.05678,-0.02326 -0.130104,-0.05615 -0.207031,-0.0918 a 0.10494757,0.10494757 0 0 0 -0.002,0 L 20.509762,16.84184 a 0.10494757,0.10494757 0 0 0 -0.06445,-0.0078 l -0.416015,0.08789 c -0.113694,0.02418 -0.222826,0.04682 -0.306641,0.0625 -0.04191,0.0078 -0.07748,0.01337 -0.103515,0.01758 -0.01647,0.0027 -0.01745,0.0032 -0.02344,0.0039 -0.0063,-0.003 -0.01329,-0.0064 -0.02344,-0.01172 -0.02844,-0.01501 -0.06752,-0.03647 -0.115235,-0.06445 -0.09544,-0.05596 -0.221236,-0.133271 -0.347656,-0.212891 -0.12642,-0.07962 -0.254849,-0.16169 -0.357422,-0.230469 -0.102572,-0.06878 -0.186689,-0.132486 -0.195312,-0.140625 0.01147,0.01083 -0.02466,-0.03667 -0.06445,-0.136719 -0.0398,-0.100051 -0.09461,-0.255775 -0.171876,-0.484375 -0.05692,-0.168401 -0.110031,-0.322133 -0.15039,-0.433593 -0.02018,-0.05573 -0.03787,-0.100143 -0.05078,-0.132813 -0.0065,-0.01633 -0.01046,-0.02969 -0.01563,-0.04101 -0.0026,-0.0057 -0.0054,-0.01003 -0.0098,-0.01758 -0.0022,-0.0038 -0.01129,-0.01705 -0.01172,-0.01758 -2.15e-4,-2.64e-4 -0.01741,-0.01549 -0.01758,-0.01563 -8.6e-5,-6.6e-5 -0.02141,-0.01364 -0.02148,-0.01367 -5.2e-5,-2.3e-5 -0.01668,-0.0051 -0.0293,-0.0078 -6.27e-4,-9.3e-5 -0.01393,-0.002 -0.01367,-0.002 -0.0096,-0.0018 -0.02156,-0.0063 -0.03906,-0.0098 -0.03666,-0.0073 -0.09016,-0.01618 -0.154297,-0.0293 -0.128278,-0.02623 -0.303002,-0.06404 -0.494141,-0.103515 -0.191277,-0.0395 -0.365342,-0.07382 -0.492188,-0.09961 -0.06342,-0.0129 -0.116449,-0.02403 -0.152343,-0.03125 -0.01284,-0.0026 -0.02061,-0.0041 -0.0293,-0.0059 -0.004,-0.0038 -0.0071,-0.0071 -0.01172,-0.01172 0.01042,0.01041 -0.0043,-0.01029 -0.0039,-0.0332 3.63e-4,-0.01991 0.0092,-0.02881 0.0039,-0.02539 0.01075,-0.005 0.02455,-0.01283 0.04492,-0.02148 0.04219,-0.01792 0.102523,-0.04184 0.173828,-0.07031 0.14261,-0.05694 0.332061,-0.129262 0.525391,-0.203124 0.193329,-0.07386 0.39096,-0.14843 0.550781,-0.207032 0.159821,-0.0586 0.289252,-0.10349 0.318359,-0.111328 0.0048,-0.0013 0.08247,-0.01561 0.175782,-0.02734 0.09331,-0.01174 0.212274,-0.02477 0.332031,-0.03711 0.239515,-0.02468 0.495939,-0.04474 0.566406,-0.04492 z m -1.960937,0.140625 c -0.02196,-0.0017 -0.01225,-0.0013 -0.0098,0.0039 1.41e-4,2.96e-4 -9.1e-5,-0.0022 0,-0.002 0.0049,-5.9e-5 0.0102,-0.0019 0.0098,-0.002 z m -0.75586,0.644531 c 0.002,3.44e-4 0.0051,0.0012 0.0098,0.002 0,0 -0.01563,0.103516 -0.01563,0.103516 0,0 0.0059,-0.105469 0.0059,-0.105469 z" /><path
       id="path187"
       style="fill:#ffffff;stroke-width:0.0220971"
       transform="matrix(0.26458333,0,0,0.26458333,-271.46249,-218.81041)"
       d="m 19.089844,14.681641 c -0.05761,0.0097 -0.120734,0.04748 -0.154297,0.08398 -0.03356,0.03651 -0.0466,0.06578 -0.05469,0.08594 -0.01618,0.04031 -0.01668,0.05413 -0.01953,0.06641 -0.01201,0.05175 -0.01365,0.07652 -0.02148,0.134765 -0.0078,0.05825 -0.01539,0.131299 -0.02344,0.205078 l -0.02734,0.259766 a 0.26021767,0.26021767 0 0 0 0.0293,0.152344 l 0.08789,0.160156 a 0.26021767,0.26021767 0 0 0 0.002,0.002 c 0.04846,0.08671 0.101569,0.177531 0.193359,0.248047 0.09179,0.07052 0.178491,0.10448 0.326172,0.169922 0.06824,0.03024 0.12593,0.05419 0.19336,0.07031 0.06743,0.01613 0.164382,0.03632 0.279297,-0.0332 0.114914,-0.06952 0.151404,-0.201851 0.154297,-0.277343 0.0029,-0.07549 -0.0089,-0.134311 -0.02344,-0.201172 -0.02524,-0.116398 -0.06392,-0.253499 -0.103516,-0.373047 -0.0198,-0.05977 -0.03934,-0.114398 -0.05859,-0.162109 -0.01926,-0.04771 -0.01346,-0.06818 -0.08008,-0.148438 -0.04262,-0.05135 -0.06148,-0.06238 -0.09766,-0.09375 -0.03618,-0.03137 -0.07854,-0.06744 -0.123047,-0.103516 -0.08901,-0.07216 -0.170857,-0.137295 -0.24414,-0.183593 -0.01484,-0.0094 -0.02785,-0.01817 -0.05273,-0.03125 -0.02488,-0.01308 -0.06642,-0.0507 -0.18164,-0.03125 z" /><path
       style="fill:#05243c;fill-opacity:1;stroke-width:0.00338665"
       d="m -268.78356,-212.66622 c -0.004,-0.002 -0.18979,-0.094 -0.27864,-0.13893 -0.0462,-0.0234 -0.0511,-0.0372 -0.0313,-0.089 0.007,-0.0177 0.0182,-0.0482 0.0254,-0.0677 0.007,-0.0196 0.0185,-0.0493 0.025,-0.066 0.006,-0.0168 0.0196,-0.0509 0.0291,-0.0759 0.0188,-0.0493 0.0267,-0.063 0.0383,-0.0666 0.004,-10e-4 0.0289,-0.0126 0.0549,-0.0252 0.0261,-0.0126 0.0672,-0.0324 0.0914,-0.044 0.0772,-0.037 0.14868,-0.0715 0.15962,-0.0771 l 0.0106,-0.005 -0.009,-0.007 c -0.005,-0.004 -0.0196,-0.014 -0.0326,-0.022 -0.013,-0.008 -0.0268,-0.0172 -0.0305,-0.0204 -0.004,-0.003 -0.0205,-0.0145 -0.0373,-0.0252 -0.0605,-0.0383 -0.0676,-0.0441 -0.15399,-0.12395 -0.0233,-0.0216 -0.0601,-0.0551 -0.0817,-0.0745 -0.0829,-0.0745 -0.1715,-0.15516 -0.18974,-0.17273 l -0.019,-0.0183 -0.0224,-0.0677 c -0.0123,-0.0373 -0.0622,-0.18585 -0.1109,-0.3302 -0.10605,-0.31439 -0.1067,-0.31638 -0.11346,-0.34869 -0.003,-0.014 -0.01,-0.0469 -0.0153,-0.0729 -0.005,-0.0261 -0.0129,-0.0619 -0.0165,-0.0796 -0.004,-0.0177 -0.0113,-0.0543 -0.0169,-0.0813 -0.006,-0.027 -0.0133,-0.0636 -0.0169,-0.0813 -0.004,-0.0177 -0.0113,-0.0543 -0.017,-0.0813 -0.006,-0.027 -0.0118,-0.056 -0.0135,-0.0643 -0.002,-0.008 -0.006,-0.0259 -0.008,-0.0389 -0.0103,-0.0464 -0.0118,-0.0567 -0.01,-0.0655 0.002,-0.009 0.0357,-0.0894 0.0947,-0.2263 0.0194,-0.045 0.0374,-0.0879 0.04,-0.0952 0.003,-0.007 0.006,-0.0162 0.008,-0.0197 0.002,-0.004 0.0167,-0.0376 0.0327,-0.0758 0.016,-0.0382 0.0312,-0.074 0.0338,-0.0796 0.0101,-0.022 0.0762,-0.17709 0.0762,-0.17879 0,-0.002 0.14845,-0.33825 0.16834,-0.3817 0.005,-0.0102 0.0114,-0.0251 0.0149,-0.033 0.009,-0.0209 0.019,-0.0428 0.0263,-0.0593 0.004,-0.008 0.0132,-0.0289 0.0214,-0.0466 0.008,-0.0177 0.0233,-0.051 0.0334,-0.0741 0.011,-0.0251 0.0214,-0.0439 0.0258,-0.0469 0.009,-0.006 0.0269,-0.009 0.17304,-0.0232 0.0979,-0.01 0.12172,-0.0113 0.13145,-0.008 0.01,0.003 0.0306,0.0262 0.11413,0.12598 0.0562,0.0671 0.1356,0.16185 0.17639,0.21049 0.0408,0.0486 0.0769,0.0946 0.0802,0.10206 0.004,0.008 0.007,0.0269 0.008,0.0457 10e-4,0.0177 0.003,0.034 0.005,0.0363 10e-4,0.003 0.0139,-0.0101 0.0343,-0.0351 0.0414,-0.0509 0.10455,-0.12829 0.16411,-0.2013 0.0261,-0.032 0.052,-0.0619 0.0576,-0.0666 0.006,-0.005 0.0247,-0.0224 0.0425,-0.0394 0.036,-0.0344 0.0475,-0.0452 0.11835,-0.11044 0.027,-0.0249 0.0617,-0.0573 0.0771,-0.072 0.0154,-0.0147 0.0349,-0.0298 0.0433,-0.0335 l 0.0153,-0.007 0.0583,0.007 c 0.0321,0.004 0.0865,0.01 0.12099,0.0139 0.1356,0.0152 0.14171,0.0168 0.15121,0.0396 0.005,0.013 0.004,0.0184 -0.0631,0.23977 -0.0327,0.10788 -0.0407,0.13468 -0.0407,0.13721 0,0.002 0.018,-0.002 0.0728,-0.0188 0.0168,-0.005 0.0396,-0.0119 0.0508,-0.0152 0.0112,-0.003 0.0532,-0.016 0.0935,-0.0282 l 0.0732,-0.0222 0.34893,-0.0138 c 0.19192,-0.008 0.35178,-0.0128 0.35525,-0.0115 0.003,0.001 0.13708,0.06 0.29691,0.13043 0.15984,0.0705 0.29157,0.12814 0.29273,0.12814 10e-4,0 0.009,0.003 0.0167,0.007 0.008,0.004 0.0215,0.01 0.0299,0.0135 0.008,0.004 0.0217,0.01 0.0296,0.0133 0.008,0.004 0.0235,0.0103 0.0347,0.015 0.0327,0.0136 0.0643,0.0325 0.0924,0.0553 0.0144,0.0117 0.0411,0.0331 0.0593,0.0476 0.0182,0.0145 0.0426,0.034 0.0542,0.0434 0.0116,0.009 0.0302,0.0238 0.0414,0.0322 0.0112,0.008 0.0335,0.0258 0.0496,0.0389 0.0161,0.013 0.0417,0.0336 0.0571,0.0457 0.0153,0.0121 0.0374,0.0296 0.0492,0.0389 0.0118,0.009 0.0285,0.0223 0.0371,0.0288 0.0395,0.0296 0.0393,0.0293 0.0747,0.12192 0.007,0.0177 0.022,0.0566 0.0338,0.0864 0.0118,0.0298 0.027,0.0687 0.0337,0.0864 0.007,0.0177 0.0167,0.0428 0.0222,0.0559 0.005,0.013 0.0154,0.0382 0.0221,0.0559 0.007,0.0177 0.0219,0.0566 0.0337,0.0864 0.0118,0.0298 0.027,0.0687 0.0337,0.0864 0.007,0.0177 0.0167,0.0428 0.0222,0.0559 0.005,0.013 0.0193,0.0481 0.0308,0.0779 0.0115,0.0298 0.0275,0.0704 0.0355,0.0902 0.008,0.0198 0.0169,0.0473 0.0198,0.061 0.003,0.0137 0.007,0.0307 0.009,0.0379 0.002,0.007 0.006,0.0224 0.008,0.0339 0.003,0.0115 0.0239,0.10091 0.0475,0.1987 0.0236,0.0978 0.0443,0.18463 0.046,0.19297 0.002,0.008 0.006,0.0266 0.01,0.0406 0.0235,0.0921 0.0311,0.12882 0.0286,0.13715 -0.003,0.009 -0.0444,0.0792 -0.0523,0.0881 -0.003,0.004 -0.0238,0.0365 -0.0455,0.0728 -0.0218,0.0363 -0.0423,0.0691 -0.0456,0.0728 -0.003,0.004 -0.0191,0.0289 -0.0352,0.0559 l -0.0292,0.0491 -0.22949,0.22917 c -0.21414,0.21384 -0.23063,0.22952 -0.24643,0.23428 -0.009,0.003 -0.0459,0.0153 -0.0813,0.0277 -0.0354,0.0124 -0.0704,0.0246 -0.0779,0.0271 -0.0242,0.008 -0.15891,0.0551 -0.16886,0.0589 -0.005,0.002 -0.0328,0.008 -0.061,0.0138 -0.0282,0.006 -0.0589,0.0116 -0.0682,0.0136 -0.0194,0.004 -0.0894,0.0176 -0.18288,0.0354 -0.0354,0.007 -0.0704,0.0137 -0.0779,0.0154 -0.007,0.002 -0.0425,0.009 -0.0779,0.0153 -0.0354,0.007 -0.0781,0.015 -0.0948,0.0186 -0.0168,0.004 -0.0594,0.0119 -0.0948,0.0186 -0.0354,0.007 -0.0704,0.0135 -0.0779,0.0153 -0.007,0.002 -0.0389,0.008 -0.07,0.0139 l -0.0564,0.0108 -0.0134,-0.007 c -0.0133,-0.007 -0.0155,-0.007 -0.42394,0.003 l -0.41055,0.009 -0.0649,0.0218 c -0.0758,0.0254 -0.44059,0.14546 -0.495,0.16289 -0.0247,0.008 -0.0521,0.0137 -0.0813,0.0171 -0.0242,0.003 -0.0638,0.008 -0.0881,0.0104 -0.0242,0.003 -0.0935,0.0111 -0.15409,0.0184 -0.0605,0.007 -0.12302,0.0148 -0.13885,0.0166 -0.0158,0.002 -0.0552,0.006 -0.0874,0.0103 -0.0628,0.007 -0.0608,0.007 -0.0684,0.005 z m 0.0995,-0.0824 c 0.0971,-0.0117 0.1529,-0.0184 0.20873,-0.0252 0.0214,-0.003 0.0877,-0.0103 0.14732,-0.0171 0.0632,-0.007 0.11754,-0.0151 0.13038,-0.019 0.0121,-0.004 0.11193,-0.0363 0.22183,-0.0725 0.1099,-0.0362 0.23029,-0.0758 0.26754,-0.0881 0.0556,-0.0183 0.0699,-0.0243 0.0796,-0.0335 0.007,-0.006 0.0972,-0.0619 0.20151,-0.12392 0.1043,-0.062 0.21375,-0.12734 0.24321,-0.14524 0.21757,-0.13225 0.48631,-0.29204 0.50073,-0.29771 0.0113,-0.004 0.0136,-0.004 0.0254,0.001 0.01,0.005 0.0141,0.01 0.0178,0.0202 0.004,0.0126 0.004,0.015 -0.002,0.027 -0.006,0.0119 -0.0171,0.0194 -0.11503,0.0776 -0.0597,0.0355 -0.19306,0.11464 -0.29633,0.17597 -0.10328,0.0613 -0.19083,0.11403 -0.19455,0.11713 -0.004,0.003 -0.0591,0.0367 -0.12298,0.0748 l -0.1162,0.0691 0.0197,9.8e-4 c 0.0108,5.3e-4 0.18464,-0.003 0.38625,-0.008 0.20161,-0.005 0.36871,-0.008 0.37133,-0.007 0.004,0.002 0.0732,-0.0111 0.22392,-0.041 0.0223,-0.004 0.0886,-0.0173 0.14732,-0.0287 0.0587,-0.0113 0.11734,-0.0228 0.13038,-0.0255 0.013,-0.003 0.0755,-0.0149 0.13885,-0.0271 0.14306,-0.0276 0.13608,-0.0258 0.23199,-0.0592 0.0438,-0.0152 0.0903,-0.0313 0.10329,-0.0357 0.013,-0.004 0.0504,-0.0173 0.083,-0.0286 l 0.0593,-0.0206 0.0897,-0.09 c 0.0494,-0.0495 0.0867,-0.0892 0.083,-0.0881 -0.004,0.001 -0.0888,0.0204 -0.18898,0.0429 l -0.18221,0.041 -0.43486,-0.12898 c -0.3455,-0.10247 -0.43875,-0.12897 -0.45379,-0.12897 -0.0161,0 -0.0665,-0.007 -0.17441,-0.0235 -0.0121,-0.002 -0.0594,-0.009 -0.10498,-0.0155 -0.12279,-0.0179 -0.26249,-0.0385 -0.29023,-0.0428 -0.0291,-0.004 -0.0376,-0.0117 -0.0422,-0.0357 -0.003,-0.0151 -0.0194,-0.10846 -0.0436,-0.24607 -0.006,-0.0314 -0.01,-0.0612 -0.01,-0.0663 0,-0.0145 0.007,-0.0193 0.0897,-0.063 0.0168,-0.009 0.0381,-0.0202 0.0474,-0.0253 0.009,-0.005 0.0291,-0.0157 0.044,-0.0237 0.0149,-0.008 0.0332,-0.0179 0.0406,-0.0219 0.0891,-0.0487 0.11722,-0.0627 0.12583,-0.0627 0.005,0 0.0182,0.002 0.0284,0.005 0.0189,0.005 0.2698,0.0653 0.38256,0.0921 0.12916,0.0307 0.12063,0.0276 0.21888,0.0777 0.05,0.0255 0.10471,0.0536 0.12148,0.0625 0.0168,0.009 0.061,0.0317 0.0982,0.0508 0.17405,0.0891 0.20683,0.10607 0.21008,0.10862 0.003,0.002 0.25537,0.0757 0.42936,0.12495 l 0.0332,0.009 0.0904,-0.0319 c 0.0497,-0.0175 0.13611,-0.048 0.19199,-0.0677 0.0559,-0.0197 0.11,-0.0388 0.12027,-0.0424 0.0179,-0.006 0.0195,-0.008 0.0389,-0.0386 0.0595,-0.0941 0.0723,-0.11541 0.0725,-0.12042 1.9e-4,-0.004 -0.11408,-0.48848 -0.13339,-0.56515 -0.003,-0.0102 -0.007,-0.0293 -0.0103,-0.0423 -0.003,-0.013 -0.011,-0.0374 -0.0176,-0.0542 -0.007,-0.0168 -0.0155,-0.0396 -0.0198,-0.0508 -0.004,-0.0112 -0.0138,-0.0356 -0.0212,-0.0542 -0.0196,-0.0493 -0.0346,-0.0875 -0.06,-0.15239 -0.0124,-0.0317 -0.0286,-0.0728 -0.0361,-0.0914 -0.007,-0.0186 -0.017,-0.043 -0.0213,-0.0542 -0.004,-0.0112 -0.0132,-0.034 -0.0198,-0.0508 -0.007,-0.0168 -0.0222,-0.0564 -0.0346,-0.0881 -0.0124,-0.0317 -0.0283,-0.072 -0.0354,-0.0897 -0.007,-0.0177 -0.0185,-0.0466 -0.0254,-0.0644 -0.007,-0.0177 -0.0149,-0.0376 -0.0176,-0.0443 -0.003,-0.007 -0.0123,-0.0178 -0.022,-0.0254 -0.009,-0.007 -0.0266,-0.0209 -0.0383,-0.0302 -0.0117,-0.009 -0.033,-0.0261 -0.0474,-0.0373 -0.0144,-0.0112 -0.0365,-0.0287 -0.0492,-0.0389 -0.0127,-0.0103 -0.0348,-0.0278 -0.0492,-0.0389 -0.0144,-0.0112 -0.0357,-0.0279 -0.0474,-0.0373 -0.0117,-0.009 -0.0444,-0.0352 -0.0728,-0.0576 -0.0283,-0.0224 -0.0586,-0.0464 -0.0672,-0.0534 -0.015,-0.0122 -0.025,-0.0177 -0.0606,-0.0331 -0.009,-0.004 -0.0229,-0.0101 -0.0313,-0.014 -0.008,-0.004 -0.0213,-0.01 -0.0288,-0.0129 -0.007,-0.003 -0.0204,-0.009 -0.0288,-0.0128 -0.008,-0.004 -0.14561,-0.0643 -0.30495,-0.13431 l -0.28971,-0.12736 -0.3419,0.0136 c -0.26989,0.0107 -0.34547,0.0147 -0.35884,0.0189 -0.009,0.003 -0.0291,0.009 -0.044,0.0133 -0.0149,0.004 -0.0454,0.0135 -0.0677,0.0203 -0.0224,0.007 -0.0536,0.0161 -0.0694,0.0208 -0.0158,0.005 -0.0326,0.01 -0.0373,0.0115 -0.01,0.003 -0.0564,0.0173 -0.085,0.0254 -0.021,0.006 -0.0442,0.0203 -0.16893,0.10503 -0.0466,0.0317 -0.0975,0.066 -0.11307,0.0762 -0.0156,0.0102 -0.0576,0.0384 -0.0934,0.0626 -0.0358,0.0242 -0.0755,0.0509 -0.0882,0.0593 -0.0127,0.008 -0.0523,0.0351 -0.088,0.0593 -0.0773,0.0524 -0.10174,0.0687 -0.13744,0.092 -0.0452,0.0295 -0.0508,0.0345 -0.116,0.10438 -0.0348,0.0372 -0.0685,0.0732 -0.0751,0.0798 -0.007,0.007 -0.0316,0.0334 -0.0558,0.0593 -0.0432,0.0463 -0.0601,0.0643 -0.11718,0.12477 -0.0157,0.0166 -0.0308,0.0327 -0.0336,0.0357 -0.0558,0.0601 -0.14765,0.15821 -0.17124,0.18299 -0.0169,0.0177 -0.0428,0.0452 -0.0575,0.061 -0.0147,0.0158 -0.0281,0.0297 -0.0296,0.0308 -0.002,10e-4 -0.01,0.0301 -0.018,0.0643 -0.0616,0.2529 -0.0658,0.26856 -0.0758,0.2787 -0.0187,0.019 -0.0535,0.009 -0.0588,-0.0177 -0.001,-0.005 0.005,-0.0374 0.0148,-0.0767 0.0484,-0.19719 0.0609,-0.24938 0.061,-0.25319 1.9e-4,-0.0185 0.0308,-0.0546 0.17454,-0.2057 0.0133,-0.014 0.0356,-0.0376 0.0495,-0.0525 0.0139,-0.0149 0.0518,-0.0553 0.0842,-0.0898 0.0324,-0.0345 0.0682,-0.0726 0.0795,-0.0847 0.0113,-0.0121 0.0343,-0.0365 0.051,-0.0543 0.0167,-0.0177 0.0509,-0.0543 0.076,-0.0812 0.0251,-0.0269 0.0574,-0.0612 0.0717,-0.0761 0.0143,-0.0149 0.0294,-0.0315 0.0336,-0.0369 0.004,-0.005 0.0183,-0.0168 0.0313,-0.0254 0.044,-0.0292 0.0691,-0.046 0.1344,-0.0902 0.074,-0.0501 0.10018,-0.0676 0.13577,-0.0909 0.0138,-0.009 0.0276,-0.0182 0.0306,-0.0203 0.0132,-0.009 0.13757,-0.0933 0.15862,-0.10719 0.0127,-0.008 0.0523,-0.0351 0.088,-0.0593 0.0692,-0.047 0.0957,-0.0647 0.1361,-0.0911 0.0246,-0.0161 0.0256,-0.0172 0.0313,-0.0373 0.009,-0.0314 0.0258,-0.0873 0.0291,-0.0968 0.002,-0.005 0.0146,-0.0481 0.0289,-0.0965 0.0143,-0.0484 0.0304,-0.10242 0.0358,-0.11998 0.005,-0.0176 0.009,-0.0322 0.009,-0.0326 -4.5e-4,-3.6e-4 -0.0244,-0.003 -0.0533,-0.007 -0.0289,-0.003 -0.0822,-0.009 -0.11853,-0.0135 l -0.066,-0.008 -0.0221,0.0206 c -0.0652,0.0609 -0.0866,0.0808 -0.1828,0.17024 -0.0363,0.0337 -0.0767,0.0746 -0.0897,0.0908 -0.013,0.0162 -0.0466,0.0574 -0.0745,0.0915 -0.0279,0.0342 -0.0717,0.0878 -0.0971,0.11912 -0.0255,0.0313 -0.0597,0.0734 -0.0761,0.0935 -0.0232,0.0285 -0.0324,0.0373 -0.0419,0.0401 -0.0171,0.005 -0.0358,-0.003 -0.0422,-0.0182 -0.003,-0.007 -0.007,-0.0444 -0.0108,-0.0905 l -0.006,-0.0792 -0.11758,-0.14079 c -0.0988,-0.11834 -0.14045,-0.16804 -0.20745,-0.24775 l -0.007,-0.009 -0.10822,0.0112 c -0.0595,0.006 -0.11141,0.0112 -0.11532,0.0113 -0.006,8e-5 -0.0108,0.009 -0.0284,0.0484 -0.0117,0.0265 -0.0265,0.0597 -0.033,0.0737 -0.0161,0.035 -0.0246,0.0535 -0.0316,0.0694 -0.003,0.007 -0.0106,0.0235 -0.0162,0.0356 -0.0198,0.0427 -0.1699,0.38332 -0.1699,0.38544 0,0.002 -0.0579,0.13816 -0.0729,0.17166 -0.002,0.006 -0.0178,0.0414 -0.034,0.0796 -0.0664,0.15659 -0.10748,0.25306 -0.11333,0.26585 -0.003,0.007 -0.0177,0.0405 -0.0318,0.0736 l -0.0256,0.06 0.007,0.0314 c 0.0132,0.061 0.0272,0.12643 0.0302,0.14149 0.002,0.008 0.009,0.045 0.0169,0.0813 0.008,0.0363 0.0153,0.0729 0.0169,0.0813 0.002,0.008 0.009,0.045 0.0169,0.0813 0.008,0.0363 0.0177,0.0851 0.0225,0.10837 0.009,0.044 0.0131,0.0567 0.15391,0.47413 0.0468,0.13877 0.0859,0.25485 0.0868,0.25794 0.002,0.005 0.0394,0.0406 0.13471,0.12612 0.0206,0.0184 0.0381,0.0344 0.0391,0.0356 9.3e-4,0.001 0.0169,0.0157 0.0356,0.0324 0.0186,0.0167 0.0438,0.0396 0.0559,0.0508 0.0926,0.0858 0.0961,0.0886 0.19249,0.15317 0.0904,0.0606 0.0975,0.0647 0.10381,0.0601 0.004,-0.003 0.0106,-0.007 0.0152,-0.009 0.005,-0.002 0.0532,-0.0414 0.10796,-0.0872 0.24199,-0.20217 0.21836,-0.18113 0.22394,-0.19935 0.002,-0.005 0.008,-0.022 0.0136,-0.0378 0.006,-0.0158 0.0159,-0.0425 0.022,-0.0593 0.006,-0.0168 0.016,-0.0434 0.0219,-0.0593 0.006,-0.0158 0.012,-0.0326 0.0135,-0.0373 0.002,-0.005 0.007,-0.0191 0.0118,-0.0322 0.005,-0.013 0.0152,-0.0405 0.0227,-0.061 0.0232,-0.0633 0.0257,-0.0703 0.0368,-0.0999 0.006,-0.0158 0.0158,-0.0425 0.0219,-0.0593 0.006,-0.0168 0.016,-0.0434 0.0219,-0.0593 0.006,-0.0158 0.012,-0.0326 0.0135,-0.0372 0.002,-0.005 0.007,-0.0184 0.0111,-0.0305 0.0214,-0.057 0.0325,-0.087 0.0344,-0.0934 0.001,-0.004 0.007,-0.0113 0.012,-0.0165 0.0198,-0.0189 0.0536,-0.008 0.059,0.019 0.002,0.01 8e-5,0.0158 -0.0286,0.0935 -0.004,0.01 -0.01,0.0265 -0.0136,0.0372 -0.004,0.0107 -0.009,0.0248 -0.0118,0.0313 -0.003,0.007 -0.0124,0.0332 -0.0219,0.0593 -0.009,0.0261 -0.0201,0.055 -0.0236,0.0643 -0.004,0.009 -0.0165,0.0444 -0.0288,0.0779 -0.0328,0.089 -0.0349,0.0946 -0.0426,0.11599 -0.004,0.0107 -0.009,0.0248 -0.0118,0.0313 -0.003,0.007 -0.0124,0.0332 -0.0219,0.0593 -0.0177,0.0486 -0.0198,0.0543 -0.044,0.11883 l -0.0141,0.0375 -0.046,0.0387 c -0.0496,0.0416 -0.10406,0.087 -0.13386,0.11146 -0.0444,0.0365 -0.16145,0.13608 -0.17847,0.15191 -0.0188,0.0175 -0.04,0.029 -0.15748,0.0852 -0.10403,0.0498 -0.12991,0.0623 -0.17949,0.0865 l -0.0508,0.0248 -0.009,0.0231 c -0.0169,0.0434 -0.0377,0.0976 -0.0452,0.11787 -0.004,0.0112 -0.013,0.0348 -0.0196,0.0525 -0.007,0.0177 -0.0129,0.036 -0.014,0.0406 -0.002,0.008 0.003,0.011 0.12423,0.0715 0.0693,0.0347 0.12665,0.0633 0.12733,0.0635 6.9e-4,2.5e-4 0.0396,-0.004 0.0864,-0.01 z m 2.78597,-1.51609 c -0.003,-9.8e-4 -0.0165,-0.007 -0.0305,-0.0135 -0.014,-0.006 -0.0315,-0.0146 -0.0389,-0.018 -0.007,-0.003 -0.0285,-0.0133 -0.0469,-0.022 -0.0188,-0.009 -0.0357,-0.0148 -0.0387,-0.0136 -0.005,0.002 -0.0347,0.008 -0.18893,0.0411 -0.0481,0.0102 -0.0429,0.0116 -0.1018,-0.0267 -0.0207,-0.0135 -0.0471,-0.0306 -0.0585,-0.038 -0.0115,-0.007 -0.0326,-0.0214 -0.047,-0.031 -0.0144,-0.01 -0.0399,-0.026 -0.0566,-0.0364 -0.0475,-0.0295 -0.0672,-0.044 -0.0745,-0.0549 -0.004,-0.006 -0.0302,-0.0808 -0.0589,-0.16735 -0.0287,-0.0865 -0.0524,-0.1577 -0.0527,-0.15813 -3.2e-4,-4.4e-4 -0.031,-0.007 -0.0681,-0.0145 -0.30647,-0.0622 -0.3083,-0.0626 -0.31762,-0.0687 -0.0127,-0.008 -0.0178,-0.0281 -0.0113,-0.0438 0.006,-0.0137 0.014,-0.0189 0.0529,-0.0331 0.0408,-0.0149 0.13549,-0.0505 0.15767,-0.0593 0.0112,-0.004 0.0356,-0.0137 0.0542,-0.0206 0.0186,-0.007 0.0438,-0.0162 0.0559,-0.0208 0.0121,-0.005 0.0258,-0.01 0.0305,-0.011 0.005,-0.002 0.0229,-0.008 0.0406,-0.0152 0.0566,-0.0219 0.0686,-0.0251 0.10837,-0.0287 0.0687,-0.006 0.18351,-0.0169 0.21968,-0.0204 0.0466,-0.004 0.0519,-0.002 0.0908,0.0426 0.0164,0.0188 0.0512,0.0584 0.0774,0.088 0.12527,0.14183 0.14661,0.16711 0.15012,0.17783 0.002,0.006 0.007,0.0328 0.0108,0.0589 0.0113,0.0761 0.0337,0.22896 0.0361,0.24535 0.003,0.0184 0.004,0.0198 0.12414,0.17755 0.014,0.0184 0.0265,0.0377 0.0276,0.0428 0.006,0.025 -0.0219,0.05 -0.0457,0.0416 z m -0.33187,-0.29456 c 0.01,-0.008 0.0106,-0.0101 0.009,-0.0262 -0.002,-0.0219 -0.0153,-0.0789 -0.0208,-0.0901 -0.004,-0.008 -0.0134,-0.0363 -0.0224,-0.0663 -0.002,-0.006 -0.003,-0.0129 -0.003,-0.0159 0,-0.005 -0.0233,-0.0257 -0.0605,-0.0541 -0.007,-0.005 -0.0176,-0.014 -0.0241,-0.0198 -0.007,-0.006 -0.0173,-0.0133 -0.0239,-0.0167 -0.007,-0.003 -0.0141,-0.009 -0.0165,-0.0115 -0.002,-0.003 -0.006,-0.005 -0.009,-0.005 -0.005,0 -0.0118,0.0247 -0.0118,0.043 0,0.007 -0.003,0.0383 -0.007,0.0694 l -0.007,0.0566 0.02,0.0349 c 0.011,0.0192 0.021,0.0375 0.0222,0.0407 0.003,0.007 0.0287,0.0264 0.036,0.0265 0.003,5e-5 0.008,0.002 0.012,0.005 0.004,0.003 0.009,0.005 0.0111,0.005 0.002,0 0.0148,0.005 0.0273,0.0108 0.0342,0.0162 0.0495,0.0227 0.0539,0.0229 0.002,1e-4 0.009,-0.004 0.0147,-0.009 z m -0.66322,-0.50005 c -0.004,-0.005 -0.007,-0.0122 -0.007,-0.0189 0,-0.0109 0.0117,-0.0292 0.11808,-0.18497 0.014,-0.0205 0.0377,-0.0555 0.0527,-0.0779 0.0269,-0.04 0.0277,-0.0408 0.0527,-0.0533 0.0576,-0.0288 0.12087,-0.0574 0.13039,-0.059 0.006,-9.3e-4 0.0422,0.002 0.0813,0.007 0.0391,0.005 0.0856,0.0104 0.10329,0.0124 0.0356,0.004 0.0444,0.007 0.0699,0.0259 0.0533,0.0391 0.0891,0.065 0.10593,0.0768 0.0104,0.007 0.0261,0.0188 0.0348,0.0254 0.009,0.007 0.0258,0.0193 0.0381,0.0282 0.0434,0.0313 0.0671,0.0485 0.0968,0.0703 0.0166,0.0121 0.0397,0.0289 0.0514,0.0372 0.0371,0.0265 0.0501,0.0401 0.0501,0.0523 0,0.014 -0.012,0.0256 -0.0264,0.0256 -0.009,0 -0.0427,-0.0115 -0.0735,-0.0255 -0.0188,-0.008 -0.15756,-0.066 -0.15926,-0.066 -9.2e-4,0 -0.008,-0.003 -0.016,-0.007 -0.008,-0.004 -0.0243,-0.0106 -0.0364,-0.0156 -0.0121,-0.005 -0.0266,-0.011 -0.0322,-0.0135 -0.0206,-0.009 -0.0931,-0.0389 -0.0947,-0.0389 -9e-4,0 -0.0112,-0.004 -0.0229,-0.01 -0.0117,-0.005 -0.0304,-0.0132 -0.0416,-0.0176 -0.0112,-0.004 -0.024,-0.01 -0.0284,-0.0122 -0.007,-0.003 -0.009,-0.003 -0.0153,5.8e-4 -0.004,0.003 -0.039,0.0156 -0.0779,0.029 -0.0561,0.0192 -0.0743,0.027 -0.088,0.0376 -0.0183,0.0141 -0.0618,0.0471 -0.0774,0.0586 -0.005,0.004 -0.0279,0.0212 -0.0508,0.0387 -0.10601,0.0813 -0.10634,0.0816 -0.1185,0.0816 -0.008,0 -0.0141,-0.003 -0.019,-0.008 z"
       id="path179" /></g></svg>
