<?xml version="1.0" encoding="UTF-8" standalone="no"?>
<!-- Created with Inkscape (http://www.inkscape.org/) -->

<svg
   width="400"
   height="400"
   viewBox="0 0 105.83333 105.83333"
   version="1.1"
   id="svg5"
   xml:space="preserve"
   inkscape:version="1.2.2 (b0a8486541, 2022-12-01)"
   sodipodi:docname="400x400_white.svg"
   inkscape:export-filename="finished/400x400.png"
   inkscape:export-xdpi="96"
   inkscape:export-ydpi="96"
   xmlns:inkscape="http://www.inkscape.org/namespaces/inkscape"
   xmlns:sodipodi="http://sodipodi.sourceforge.net/DTD/sodipodi-0.dtd"
   xmlns="http://www.w3.org/2000/svg"
   xmlns:svg="http://www.w3.org/2000/svg"><sodipodi:namedview
     id="namedview7"
     pagecolor="#ffffff"
     bordercolor="#000000"
     borderopacity="0.25"
     inkscape:showpageshadow="2"
     inkscape:pageopacity="0.0"
     inkscape:pagecheckerboard="0"
     inkscape:deskcolor="#d1d1d1"
     inkscape:document-units="mm"
     showgrid="false"
     inkscape:lockguides="true"
     inkscape:zoom="0.35355339"
     inkscape:cx="694.37886"
     inkscape:cy="1144.0988"
     inkscape:window-width="1920"
     inkscape:window-height="1020"
     inkscape:window-x="0"
     inkscape:window-y="0"
     inkscape:window-maximized="1"
     inkscape:current-layer="layer1" /><defs
     id="defs2" /><g
     inkscape:label="Layer 1"
     inkscape:groupmode="layer"
     id="layer1"
     transform="translate(271.46249,218.81041)"><path
       id="path1068"
       style="fill:#ffffff;stroke-width:0.176777"
       transform="matrix(0.26458333,0,0,0.26458333,-271.46249,-218.81041)"
       d="m 175.84961,112.14258 c -1.04051,-0.0153 -2.78476,2.03152 -1.70703,1.04297 -0.42935,0.40158 -3.06129,2.85111 -5.83203,5.42773 -2.77862,2.58392 -5.48848,5.16224 -6.24024,5.96484 -0.4012,0.42832 -1.33147,1.53584 -2.64843,3.1211 -1.31697,1.58526 -2.97281,3.59933 -4.65235,5.66406 -3.21187,3.94848 -4.96582,6.09306 -5.96289,7.24024 -0.49853,0.57359 -0.8119,0.89707 -0.97852,1.04492 -0.16661,0.14785 -0.10818,0.0969 -0.1289,0.10351 0.0483,-0.0153 -0.19475,0.015 -0.39258,-0.0293 -0.19783,-0.0443 -0.36232,-0.19607 -0.23437,-0.0547 0.19657,0.21722 -0.055,-0.13251 -0.17969,-0.93359 -0.12469,-0.80109 -0.24893,-2.05569 -0.38281,-3.86719 l -0.21875,-2.95508 a 1.1387832,1.1387832 0 0 0 -0.26172,-0.64649 l -7.85742,-9.40429 c -3.59304,-4.30044 -5.56255,-6.64548 -6.71876,-7.94141 -0.5781,-0.64796 -0.9425,-1.03098 -1.27734,-1.31054 -0.16742,-0.13979 -0.32941,-0.26314 -0.5625,-0.36329 -0.23308,-0.10015 -0.57373,-0.14579 -0.82422,-0.10351 0.0941,-0.0159 -0.71091,0.0843 -1.65625,0.18164 -0.94533,0.0974 -2.18766,0.22113 -3.49804,0.34766 -1.37107,0.13239 -2.59772,0.26917 -3.50977,0.39062 -0.45602,0.0607 -0.83136,0.11713 -1.12305,0.16992 -0.14584,0.0264 -0.26831,0.0506 -0.39062,0.082 -0.0612,0.0157 -0.12084,0.0321 -0.20313,0.0625 -0.0823,0.0305 -0.16872,0.0122 -0.4375,0.26953 -0.24014,0.22987 -0.20963,0.25631 -0.25586,0.33399 -0.0462,0.0777 -0.0908,0.15752 -0.14062,0.25195 -0.0996,0.18886 -0.22126,0.43366 -0.36914,0.73828 -0.29576,0.60924 -0.69194,1.45661 -1.17383,2.50196 -0.96378,2.09069 -2.26343,4.9676 -3.72266,8.24023 -2.91844,6.54527 -6.47766,14.66936 -9.27148,21.2168 -1.99113,4.66627 -5.356583,12.54161 -7.476563,17.5 l -3.853516,9.01562 a 1.1387832,1.1387832 0 0 0 -0.06641,0.68946 l 0.691406,3.18164 c 0.377054,1.73423 1.602647,7.55074 2.716797,12.89648 0.557861,2.67664 1.104696,5.24783 1.53711,7.23828 0.432413,1.99045 0.718856,3.29242 0.865234,3.80274 0.14648,0.51067 0.789247,2.44944 1.804687,5.50586 1.015445,3.05641 2.365805,7.10121 3.808595,11.39648 l 5.2461,15.61523 a 1.1387832,1.1387832 0 0 0 0.3125,0.47852 l 7.9707,7.25977 c 2.19411,1.99822 4.29991,3.90194 5.92383,5.36132 1.62392,1.45939 2.6769,2.40354 3.07812,2.72461 1.3178,1.05457 7.11099,4.97827 8.62891,5.85352 l 0.79492,0.45703 a 1.1387832,1.1387832 0 0 0 1.20703,-0.0449 l 0.83789,-0.56836 c 0.35938,-0.24402 0.94219,-0.71431 1.88282,-1.47461 0.94062,-0.7603 2.15593,-1.75524 3.48046,-2.84766 2.64907,-2.18482 5.72979,-4.75899 7.90039,-6.61132 0.87683,-0.74826 1.48948,-1.29591 1.93165,-1.75 0.44216,-0.4541 0.75975,-0.79209 0.92382,-1.36915 -0.0275,0.0967 0.10985,-0.32287 0.28711,-0.81835 0.17727,-0.49549 0.42436,-1.17868 0.72266,-1.99805 0.59661,-1.63874 1.39794,-3.82238 2.25976,-6.1543 1.72502,-4.66753 4.32164,-11.70787 5.77149,-15.64648 0.92434,-2.51106 1.61354,-4.32732 2.10351,-5.53711 0.24499,-0.6049 0.44217,-1.05833 0.58399,-1.35742 0.14182,-0.2991 0.33913,-0.50731 0.12695,-0.29493 0.13692,-0.13706 0.73107,-0.10248 0.8125,-0.008 0.0908,0.10555 0.10308,0.11598 0.13672,0.15234 -0.006,0.0136 -0.0227,0.41045 -0.31836,1.375 -0.61991,2.02236 -2.19732,6.2579 -5.48047,15.13672 -2.28302,6.17411 -4.66291,12.61529 -5.29101,14.31836 l -1.03516,2.81055 -5.32031,4.45703 c -3.05693,2.56116 -7.01279,5.89932 -8.80274,7.43164 -0.87684,0.75065 -1.8084,1.51267 -2.59375,2.12696 -0.78534,0.61428 -1.48382,1.10854 -1.65429,1.20703 -0.20109,0.11617 -1.40515,0.7329 -2.97657,1.50976 -1.57141,0.77687 -3.57993,1.75722 -5.64257,2.75 -2.06943,0.99604 -3.97358,1.92474 -5.37891,2.6211 -0.70266,0.34817 -1.28004,0.63839 -1.69531,0.85156 -0.20764,0.10658 -0.37363,0.19204 -0.50195,0.26172 -0.0642,0.0348 -0.11809,0.0658 -0.17188,0.0977 -0.0538,0.0318 -0.0234,-0.047 -0.2832,0.21094 -0.33142,0.32897 -0.23191,0.31125 -0.27539,0.39648 -0.0435,0.0852 -0.0844,0.1761 -0.13282,0.28321 -0.0968,0.21422 -0.21574,0.49218 -0.35547,0.82812 -0.27945,0.67188 -0.64059,1.57038 -1.02929,2.56055 -0.7774,1.98034 -1.6651,4.31942 -2.22656,5.91016 -0.24855,0.70417 -0.39694,1.06477 -0.45899,1.54492 -0.031,0.24007 -0.0216,0.57273 0.11328,0.875 0.13489,0.30227 0.33066,0.47771 0.4375,0.57226 0.25764,0.22802 0.24679,0.17807 0.35742,0.24219 0.11063,0.0641 0.24733,0.1398 0.41407,0.23047 0.33348,0.18135 0.78475,0.42026 1.32812,0.70312 1.08675,0.56573 2.53939,1.3061 4.09961,2.0879 2.40712,1.20616 3.84468,1.91466 4.79492,2.33203 0.95024,0.41736 1.49522,0.61701 2.13477,0.53515 0.26824,-0.0343 3.94825,-0.47151 8.03125,-0.95312 14.02533,-1.65438 15.16442,-1.79271 16.66211,-2.03516 0.42657,-0.0691 0.81972,-0.20075 1.61328,-0.43554 0.79356,-0.2348 1.84685,-0.55704 3.07812,-0.93946 2.46255,-0.76484 5.63618,-1.77195 8.83008,-2.79883 3.19391,-1.02687 6.40875,-2.07304 8.95313,-2.91797 2.54437,-0.84492 4.3073,-1.43716 4.99609,-1.73242 0.61792,-0.26486 1.47909,-0.78808 2.25391,-1.30859 0.0748,-0.0502 0.85452,-0.53547 1.98633,-1.22461 1.1318,-0.68914 2.67806,-1.6252 4.50781,-2.73047 3.6595,-2.21055 8.45065,-5.09531 13.32226,-8.02148 9.74324,-5.85235 19.85085,-11.8971 21.78711,-13.01172 0.66102,-0.38052 1.27884,-0.70782 1.74414,-0.92969 0.23167,-0.11047 0.42655,-0.19229 0.55274,-0.24023 0.13306,0.0115 0.32605,0.0878 0.47461,0.44336 0.11039,0.26421 0.1,0.17141 0.0273,0.29882 -0.0727,0.12742 -0.39993,0.4735 -1.07812,0.90821 -0.25391,0.16275 -1.94285,1.18386 -4.30274,2.59765 -2.35988,1.4138 -5.44682,3.25771 -8.6914,5.1875 -6.49311,3.86193 -12.81391,7.64913 -14.14063,8.47266 -1.25991,0.78206 -4.24119,2.58447 -6.5957,3.99023 l -4.28907,2.56055 a 1.1387832,1.1387832 0 0 0 0.55665,2.11719 l 2.16796,0.0527 c 1.35528,0.0328 7.70707,-0.0702 14.42188,-0.2207 6.70558,-0.15029 13.82386,-0.27344 15.73437,-0.27344 2.76307,0 4.15661,-0.0848 5.79688,-0.36523 2.07663,-0.35502 10.48541,-1.98524 18.60156,-3.58203 4.05808,-0.7984 8.03249,-1.58785 11.07422,-2.19922 1.52087,-0.30569 2.80876,-0.56684 3.75977,-0.76367 0.951,-0.19684 1.47193,-0.30111 1.78906,-0.38868 0.93067,-0.25697 4.64592,-1.49967 8.63867,-2.86718 l 7.24805,-2.48243 a 1.1387832,1.1387832 0 0 0 0.4375,-0.27343 l 3.97851,-3.98828 c 1.10174,-1.10487 2.07879,-2.11746 2.77539,-2.86914 0.3483,-0.37585 0.62372,-0.68395 0.82422,-0.92383 0.10025,-0.11995 0.17894,-0.21594 0.26172,-0.33789 0.0414,-0.061 0.084,-0.11045 0.15235,-0.2793 0.0342,-0.0844 0.0981,-0.1917 0.0879,-0.48633 -0.003,-0.0737 -0.0123,-0.1603 -0.0391,-0.25976 -0.0268,-0.0995 -0.1421,-0.32153 -0.14258,-0.32227 -4.7e-4,-7.4e-4 -0.27469,-0.2944 -0.27539,-0.29492 -6.9e-4,-5.2e-4 -0.22371,-0.13708 -0.32812,-0.17188 -0.36788,-0.12265 -0.36985,-0.0609 -0.42773,-0.0586 -0.0579,0.002 -0.0924,0.006 -0.12696,0.01 -0.0691,0.008 -0.13012,0.0173 -0.20312,0.0293 -0.14602,0.024 -0.32969,0.0587 -0.56055,0.10352 -0.46172,0.0897 -1.10406,0.22115 -1.88477,0.38672 -1.56141,0.33113 -3.67712,0.79595 -5.98046,1.3164 l -8.07032,1.82422 -15.29297,-4.53125 c -12.70374,-3.7643 -18.88312,-5.59866 -22.51757,-6.58008 -3.63446,-0.98141 -4.78291,-1.11389 -7.16016,-1.42382 -3.36723,-0.43902 -9.48249,-1.33278 -14.80469,-2.14258 -2.6611,-0.4049 -5.12567,-0.78981 -6.95117,-1.08594 -0.91275,-0.14807 -1.66625,-0.27253 -2.19922,-0.36719 -0.26648,-0.0473 -0.47773,-0.0884 -0.61914,-0.11719 -0.034,-0.007 -0.0474,-0.0102 -0.0723,-0.0156 -0.0381,-0.063 -0.18574,-0.24895 -0.13086,-0.11133 0.0551,0.13826 0.005,0.0135 -0.0234,-0.10742 -0.0283,-0.1209 -0.0649,-0.2967 -0.10938,-0.51172 -0.0889,-0.43005 -0.20467,-1.02142 -0.33593,-1.7168 -0.26253,-1.39074 -0.58968,-3.19905 -0.90821,-5.01171 -0.31852,-1.81267 -0.62972,-3.63075 -0.85937,-5.04102 -0.11483,-0.70514 -0.20861,-1.30893 -0.27344,-1.75391 -0.0648,-0.44497 -0.0908,-0.8827 -0.0918,-0.6914 3.3e-4,-0.0717 0.01,-0.14302 0.0176,-0.21289 -0.0472,0.0814 0.12059,-0.11329 1.03516,-0.64063 0.9956,-0.57406 2.70729,-1.50352 5.59375,-3.05469 3.77518,-2.02877 5.95632,-3.19073 7.23633,-3.82812 1.26539,-0.63012 1.5851,-0.66887 1.52539,-0.66992 0.0461,0.008 0.104,0.0168 0.1875,0.0332 0.19488,0.0382 0.47516,0.098 0.82226,0.17383 0.69421,0.15159 1.65782,0.36991 2.79883,0.63476 2.28202,0.52972 5.27821,1.24358 8.29492,1.97266 3.01672,0.72908 6.05575,1.47328 8.42774,2.06836 1.18599,0.29754 2.2057,0.55911 2.96875,0.75977 0.76305,0.20065 1.34166,0.37088 1.36914,0.38085 -0.0181,-0.007 0.56447,0.2492 1.30664,0.60938 0.74216,0.36018 1.74287,0.85666 2.92578,1.44922 2.36581,1.18511 5.46311,2.75923 8.7168,4.43555 l 11.84375,6.10156 a 1.1387832,1.1387832 0 0 0 0.19726,0.0801 l 3.80078,1.1289 c 3.32898,0.98825 7.70044,2.25021 11.28321,3.26563 1.79138,0.50771 3.38521,0.95318 4.55468,1.27343 0.58474,0.16013 1.06318,0.28861 1.41211,0.37891 0.17447,0.0452 0.3157,0.0808 0.42969,0.10742 0.057,0.0133 0.10566,0.0248 0.1582,0.0352 0.0525,0.0103 0.0377,0.0293 0.2793,0.0293 0.25865,0 0.23866,-0.0243 0.27734,-0.0332 0.0387,-0.009 0.0661,-0.0157 0.0937,-0.0234 0.0553,-0.0154 0.11146,-0.0316 0.17969,-0.0527 0.13646,-0.0423 0.31462,-0.10186 0.53906,-0.17578 0.44888,-0.14783 1.07487,-0.357 1.82813,-0.61328 1.50652,-0.51256 3.52498,-1.20919 5.65039,-1.94727 4.25081,-1.47616 8.9098,-3.1135 10.74805,-3.79492 0.45888,-0.1701 0.95329,-0.40624 1.35547,-0.8125 0.40217,-0.40626 0.69916,-0.87405 1.21093,-1.66406 0.61195,-0.94466 1.60392,-2.52717 2.22461,-3.55078 0.542,-0.8938 0.83756,-1.35125 1.03321,-1.88868 0.19564,-0.53742 0.1337,-1.15239 0.0469,-1.54101 -0.79619,-3.5633 -2.45312,-10.57941 -3.9668,-16.875 -0.75683,-3.14779 -1.47844,-6.11416 -2.03711,-8.375 -0.27933,-1.13042 -0.5179,-2.08394 -0.70117,-2.79883 -0.18326,-0.71489 -0.28709,-1.12856 -0.38281,-1.41406 -0.1537,-0.45843 -0.70877,-1.89141 -1.57617,-4.12891 -0.86741,-2.2375 -2.01085,-5.16936 -3.22461,-8.25781 -4.53393,-11.53685 -6.90789,-17.565 -8.21875,-20.78711 -0.65543,-1.61105 -1.04189,-2.5166 -1.32031,-3.09375 -0.27842,-0.57715 -0.53189,-0.93288 -0.75391,-1.14062 -0.23014,-0.21536 -0.44408,-0.37461 -0.96289,-0.79297 -0.51881,-0.41837 -1.2336,-0.99227 -2.0957,-1.67969 -1.72421,-1.37484 -4.0351,-3.2071 -6.51563,-5.16602 -4.1775,-3.29907 -6.46637,-5.09462 -7.96875,-6.19726 -1.50238,-1.10264 -2.27593,-1.53663 -3.20898,-1.98047 -1.1996,-0.57064 -8.87814,-3.9761 -17.32032,-7.68945 l -15.3457,-6.75 a 1.1387832,1.1387832 0 0 0 -0.50391,-0.0957 l -7.01562,0.28125 c -14.91435,0.59993 -19.85147,0.81641 -22.73828,0.99414 l -2.96875,0.1836 a 1.1387832,1.1387832 0 0 0 -0.25781,0.0469 l -7.63868,2.30078 c -2.10836,0.63555 -4.11407,1.26512 -5.65429,1.76953 -0.77011,0.25221 -1.42389,0.47129 -1.92188,0.64844 -0.49798,0.17715 -0.72176,0.23054 -1.09765,0.44727 -0.5672,0.32702 -2.22007,1.43017 -5.70899,3.76367 -3.48892,2.3335 -8.67536,5.81827 -15.83789,10.64258 -3.20685,2.15997 -7.10672,4.77642 -8.65625,5.80664 -1.74644,1.16112 -3.362,2.38088 -4.24609,3.25976 -0.78948,0.78483 -4.9263,5.16127 -9.39649,9.92774 -4.46778,4.76389 -10.43102,11.11812 -13.25,14.11914 -1.41143,1.50257 -2.7082,2.89444 -3.66406,3.92773 -0.47793,0.51665 -0.86995,0.94294 -1.15039,1.25196 -0.14022,0.1545 -0.25361,0.27916 -0.33789,0.375 -0.0421,0.0479 -0.0769,0.0881 -0.10938,0.12695 -0.0325,0.0389 -0.02,-0.0151 -0.15039,0.20898 -0.16168,0.27792 -0.10409,0.22728 -0.12109,0.2793 -0.017,0.052 -0.0324,0.10516 -0.0508,0.16797 -0.0368,0.12562 -0.0832,0.28857 -0.13867,0.49219 -0.11093,0.40723 -0.26074,0.97246 -0.43946,1.66015 -0.35743,1.3754 -0.83104,3.23798 -1.33593,5.25782 -0.50262,2.01069 -0.99678,3.91423 -1.38672,5.35742 -0.19497,0.72159 -0.36307,1.32849 -0.49219,1.76953 -0.12912,0.44104 -0.30088,0.85999 -0.20508,0.66406 -0.1063,0.21741 -0.33909,0.33249 -0.16211,0.27149 -0.041,0.0141 -0.26251,0.0311 -0.46875,-0.0312 -0.20623,-0.0623 -0.3724,-0.19751 -0.38672,-0.2168 -0.14094,-0.18992 -0.0512,-0.0317 -0.0488,-0.004 0.002,0.0278 0.0147,-0.23078 0.11328,-0.76562 0.0294,-0.15948 0.26274,-1.20339 0.57422,-2.54102 0.31148,-1.33763 0.71388,-3.03757 1.12109,-4.74609 0.81442,-3.41705 1.67749,-6.96343 1.83789,-7.53516 -0.0143,0.0508 0.3918,-0.71267 1.37695,-1.87695 0.98516,-1.16428 2.52738,-2.85253 4.78711,-5.25 3.5016,-3.71501 18.30861,-19.49022 21.68164,-23.09961 0.87006,-0.93103 1.16311,-1.26755 2.78907,-2.44141 1.62595,-1.17386 4.5337,-3.12223 10.35937,-7.02539 9.24472,-6.1939 14.8393,-9.95267 18.16016,-12.21484 1.66042,-1.13108 2.75085,-1.8862 3.45508,-2.39258 0.35211,-0.25319 0.6059,-0.44348 0.79882,-0.59766 0.19293,-0.15417 0.28666,-0.15769 0.5293,-0.5332 0.14785,-0.2288 0.11337,-0.21769 0.13672,-0.27734 0.0233,-0.0597 0.0465,-0.12042 0.0723,-0.19336 0.0515,-0.14588 0.11321,-0.33432 0.18946,-0.56641 0.15249,-0.46417 0.35621,-1.09972 0.59375,-1.85547 0.47508,-1.5115 1.08801,-3.49997 1.69922,-5.50586 0.6112,-2.00588 1.22026,-4.02833 1.6875,-5.60937 0.23362,-0.79052 0.43215,-1.47114 0.57812,-1.98633 0.14598,-0.51519 0.22432,-0.75956 0.2793,-1.07226 0.0208,-0.11836 0.0608,-0.3705 -0.0488,-0.68555 -0.10962,-0.31505 -0.36664,-0.56808 -0.5625,-0.68945 -0.39172,-0.24275 -0.64143,-0.26285 -1.04102,-0.33594 -0.79916,-0.14619 -2.15213,-0.30508 -4.75586,-0.60938 z m 56.62891,47.51172 2.26562,0.23632 c 2.86613,0.30022 4.79447,0.53 6.06641,0.73243 1.27193,0.20243 1.89171,0.4118 2.01757,0.48242 -0.0301,-0.0169 0.40664,0.26471 0.93946,0.63672 0.53281,0.372 1.24474,0.87861 2.07226,1.4707 1.65505,1.18419 3.77493,2.71746 5.88868,4.25781 2.11374,1.54035 4.22224,3.08711 5.8496,4.29492 0.81369,0.60391 1.50743,1.12422 2.01954,1.51368 0.5121,0.38946 0.91674,0.7245 0.86914,0.67968 0.1422,0.13388 0.30305,0.30978 0.41992,0.45508 0.11686,0.14531 0.19974,0.33275 0.13672,0.17188 -0.034,-0.0869 -0.066,0.048 -0.0508,0.041 -0.24731,0.11268 0.041,0.0429 -0.0215,0.0371 -0.0625,-0.006 -0.47433,-0.0969 -1.29492,-0.40039 -1.64118,-0.60708 -4.95481,-1.98996 -11.73047,-4.8125 -4.66926,-1.94507 -7.32658,-3.05039 -8.84375,-3.67187 -0.75858,-0.31075 -1.22991,-0.49928 -1.53906,-0.61719 -0.15458,-0.059 -0.26783,-0.10106 -0.37305,-0.13477 -0.10522,-0.0337 -0.13779,-0.0855 -0.47851,-0.084 -0.36439,0.002 -0.3314,0.0429 -0.42579,0.0684 -0.0944,0.0255 -0.19337,0.0548 -0.31054,0.0918 -0.23435,0.074 -0.53338,0.17444 -0.88086,0.29492 -0.69497,0.24096 -1.58465,0.5611 -2.48242,0.89258 -0.89777,0.33147 -1.80043,0.67326 -2.52149,0.95507 -0.36053,0.14091 -0.67529,0.26643 -0.92578,0.3711 -0.25049,0.10467 -0.38083,0.14916 -0.61133,0.28515 -0.22994,0.13567 -0.38084,0.25391 -0.71484,0.4961 -0.334,0.24219 -0.77381,0.56661 -1.29102,0.95117 -1.03441,0.76912 -2.37888,1.78022 -3.78711,2.85156 -1.4023,1.06684 -2.74732,2.08011 -3.78125,2.84961 -0.51696,0.38475 -0.95549,0.70904 -1.2832,0.94727 -0.3277,0.23822 -0.60254,0.42239 -0.5664,0.40039 -0.28359,0.17266 -0.42173,0.19543 -0.41993,0.19531 0.002,-1.2e-4 0.0642,0.0376 -0.0508,-0.043 -0.078,-0.0547 -0.024,0.0243 -0.0273,-0.0293 -0.003,-0.0536 0.0255,-0.28616 0.22851,-0.63867 0.047,-0.0815 0.6946,-1.08474 1.51758,-2.32226 0.82298,-1.23752 1.87718,-2.80816 2.92578,-4.36328 1.04861,-1.55513 2.09204,-3.09452 2.89844,-4.27344 0.4032,-0.58946 0.74683,-1.09027 1,-1.45313 0.25317,-0.36285 0.52541,-0.70586 0.40234,-0.56445 -0.21058,0.24197 -0.0974,0.091 0.0176,0.0195 0.11497,-0.0715 0.29292,-0.17552 0.50977,-0.29492 0.4337,-0.23881 1.02563,-0.54476 1.66797,-0.86524 1.28468,-0.64094 2.79456,-1.34488 3.70898,-1.71289 z m 9.33007,14.81445 c 0.25977,0.0566 0.75717,0.16602 0.7461,0.16406 -0.73867,-0.81984 7.88853,7.98461 1.375,1.38281 0.89904,0.95683 2.13906,2.33068 3.64843,4.04688 3.37573,3.83828 5.18508,5.91097 6.14063,7.09766 0.47778,0.59334 0.73815,0.96319 0.86523,1.18359 0.12709,0.2204 0.13421,0.26183 0.17188,0.4375 0.0134,0.0625 0.19188,1.11609 0.40234,2.4707 0.21047,1.35462 0.47599,3.11397 0.74805,4.95117 0.28386,1.91685 0.56231,3.65384 0.79102,4.95899 0.11435,0.65258 0.21668,1.19605 0.30273,1.60937 0.043,0.20667 0.0812,0.38071 0.11914,0.5293 0.0379,0.14859 0.028,0.21184 0.16797,0.48242 0.12743,0.24643 0.21822,0.35706 0.39453,0.61133 0.17632,0.25427 0.40679,0.57717 0.67774,0.95117 0.54188,0.748 1.24626,1.6992 1.98828,2.68164 1.47176,1.94863 2.97925,3.98571 3.22265,4.33985 0.29044,0.42252 0.37,0.71959 0.375,0.86133 0.005,0.14174 10e-4,0.18669 -0.16601,0.36132 -0.24155,0.25212 0.003,0.1906 -0.40039,0.12305 -0.40312,-0.0675 -1.33368,-0.41839 -2.85743,-1.13086 -1.46727,-0.68607 -2.97997,-1.37197 -3.5332,-1.5957 l -0.002,-0.002 -0.82227,-0.33204 a 1.1387832,1.1387832 0 0 0 -0.66601,-0.0586 l -5.34961,1.14648 c -1.80931,0.38833 -3.18218,0.66443 -4.12696,0.83008 -0.47239,0.0828 -0.83879,0.13847 -1.08398,0.16602 -0.24519,0.0275 -0.46243,-0.0224 -0.19141,0.0371 0.14649,0.0322 -0.19124,-0.0766 -0.49609,-0.23242 -0.30485,-0.15579 -0.67618,-0.36546 -1.01172,-0.57618 -1.38768,-0.87145 -4.07466,-2.61352 -6.48047,-4.19336 -1.2029,-0.78991 -2.33707,-1.54169 -3.20703,-2.12304 -0.86996,-0.58136 -1.56555,-1.06811 -1.56836,-1.07032 -0.17487,-0.13761 -0.18784,-0.14283 -0.2793,-0.27929 -0.0915,-0.13646 -0.24982,-0.43695 -0.48437,-1.02344 -0.4691,-1.17297 -1.24027,-3.43577 -2.7168,-7.80273 -1.00369,-2.96852 -1.54696,-4.56025 -1.92383,-5.49805 -0.18843,-0.4689 -0.32364,-0.77838 -0.53906,-1.08008 -0.21542,-0.3017 -0.6746,-0.59806 -0.95312,-0.66797 -0.16941,-0.0425 -0.37576,-0.0841 -0.81836,-0.17773 -0.4426,-0.0936 -1.0516,-0.22248 -1.7832,-0.375 -1.46322,-0.30505 -3.41689,-0.70923 -5.51172,-1.14063 -4.72135,-0.97229 -7.05992,-1.45259 -8.22657,-1.71484 -0.58332,-0.13113 -0.87804,-0.21266 -0.96875,-0.24414 -0.0907,-0.0315 0.0908,0.0697 -0.0117,-0.008 -0.28986,-0.21922 -0.33764,-0.61034 -0.0469,-0.9336 -0.10328,0.11482 0.32427,-0.2275 1.79297,-0.83008 1.4687,-0.60257 3.96043,-1.55264 8.14648,-3.125 2.7176,-1.02078 5.31895,-1.97701 7.31446,-2.69335 0.99775,-0.35818 1.84387,-0.6577 2.47461,-0.87305 0.63073,-0.21535 1.14101,-0.36209 1.10156,-0.35352 0.0678,-0.0147 1.06627,-0.15537 2.26953,-0.28906 1.20326,-0.13369 2.72526,-0.29064 4.25391,-0.43945 1.52864,-0.14882 3.06516,-0.28884 4.30078,-0.39258 1.23562,-0.10374 2.24225,-0.16797 2.43554,-0.16797 z" /><path
       id="path1064"
       style="fill:#ffffff;stroke-width:0.176777"
       transform="matrix(0.26458333,0,0,0.26458333,-271.46249,-218.81041)"
       d="m 238.88672,184.95508 c -0.3052,0.0323 -0.6687,0.16675 -1.04688,0.54492 -0.51331,0.51331 -0.50925,0.81763 -0.58398,1.10352 -0.0747,0.28588 -0.12742,0.58288 -0.18945,0.98632 -0.12408,0.80689 -0.27169,2.02238 -0.49219,3.95704 l -0.29492,2.58984 a 1.7285342,1.7285342 0 0 0 0.20703,1.03711 l 1.09765,1.9707 c 0.32689,0.58657 0.6724,1.14694 0.98829,1.61133 0.15794,0.23219 0.30684,0.43931 0.45898,0.62891 0.15214,0.18959 0.20925,0.33139 0.64258,0.62304 0.47703,0.32105 0.72107,0.3988 1.27344,0.66016 0.55236,0.26135 1.23795,0.57419 1.93945,0.88086 0.70773,0.30939 1.38911,0.59059 1.93945,0.80273 0.27517,0.10607 0.51544,0.19314 0.72656,0.26367 0.21113,0.0705 0.13471,0.15259 0.81836,0.17969 a 1.7285342,1.7285342 0 0 0 0.002,0 c 0.67496,0.0262 0.96091,-0.158 1.26562,-0.32226 0.30472,-0.16427 0.57349,-0.35918 0.83789,-0.64063 0.21934,-0.23347 0.71353,-0.90304 0.78321,-1.56641 0.0697,-0.66336 -0.038,-1.02412 -0.14454,-1.69921 -0.16614,-1.05279 -0.64966,-2.77059 -1.15039,-4.30664 -0.23454,-0.7195 -0.44665,-1.40458 -0.59765,-1.91407 -0.0755,-0.25474 -0.13725,-0.46716 -0.17383,-0.60547 -0.0183,-0.0692 -0.0302,-0.12094 -0.0332,-0.13476 -0.003,-0.0138 0.0234,-0.11106 0.0234,0.26562 0,-0.6784 -0.20113,-0.87697 -0.31836,-1.07031 -0.11722,-0.19333 -0.22774,-0.33205 -0.3457,-0.47266 -0.23591,-0.2812 -0.50412,-0.55338 -0.81641,-0.85156 -0.62456,-0.59635 -1.41337,-1.27325 -2.21874,-1.92187 -0.80538,-0.64863 -1.61668,-1.26156 -2.30469,-1.72071 -0.34401,-0.22957 -0.64471,-0.41847 -0.97657,-0.58007 -0.16592,-0.0808 -0.32903,-0.15975 -0.61914,-0.22657 -0.14505,-0.0334 -0.39206,-0.10457 -0.69726,-0.0723 z" /><path
       style="fill:#05243c;fill-opacity:1;stroke-width:0.0423333"
       d="m -237.97491,-141.99824 c -0.0547,-0.0195 -2.37239,-1.1751 -3.48306,-1.73659 -0.57772,-0.29207 -0.63847,-0.46488 -0.39116,-1.11272 0.0844,-0.22119 0.22763,-0.60219 0.31822,-0.84667 0.0906,-0.24447 0.23101,-0.61595 0.31205,-0.8255 0.0811,-0.20955 0.24484,-0.63639 0.36398,-0.94854 0.23536,-0.6166 0.33382,-0.78777 0.47865,-0.83211 0.0518,-0.0159 0.36085,-0.15752 0.68682,-0.31483 0.32596,-0.1573 0.84031,-0.4048 1.143,-0.54999 0.96507,-0.46294 1.85849,-0.89428 1.99525,-0.96331 l 0.13259,-0.0669 -0.11142,-0.0926 c -0.0613,-0.0509 -0.24477,-0.1748 -0.40776,-0.27533 -0.16298,-0.10054 -0.33443,-0.21558 -0.381,-0.25565 -0.0466,-0.0401 -0.25611,-0.18158 -0.46566,-0.31444 -0.75579,-0.47921 -0.84489,-0.55093 -1.9249,-1.54937 -0.29174,-0.2697 -0.75124,-0.6888 -1.02111,-0.93133 -1.03574,-0.93081 -2.14378,-1.93957 -2.37173,-2.15922 l -0.23773,-0.22907 -0.2796,-0.84667 c -0.15378,-0.46567 -0.77759,-2.32304 -1.38626,-4.1275 -1.3256,-3.9299 -1.33369,-3.95477 -1.41824,-4.35863 -0.0367,-0.17556 -0.1227,-0.58591 -0.191,-0.91187 -0.0683,-0.32597 -0.16139,-0.77365 -0.20687,-0.99484 -0.0455,-0.22119 -0.14073,-0.67839 -0.21167,-1.016 -0.0709,-0.33761 -0.16618,-0.79481 -0.21167,-1.016 -0.0455,-0.22119 -0.14082,-0.67839 -0.21187,-1.016 -0.0711,-0.3376 -0.14715,-0.69955 -0.16912,-0.80433 -0.022,-0.10477 -0.0696,-0.32385 -0.10582,-0.48683 -0.1288,-0.57948 -0.14804,-0.7085 -0.12216,-0.81924 0.0275,-0.11787 0.44586,-1.11709 1.18428,-2.82883 0.24281,-0.56286 0.46798,-1.09851 0.50037,-1.19032 0.0324,-0.0918 0.079,-0.20278 0.1035,-0.2466 0.0245,-0.0438 0.20828,-0.4702 0.40834,-0.94751 0.20005,-0.47731 0.38998,-0.92499 0.42206,-0.99484 0.12623,-0.27481 0.95303,-2.21364 0.95303,-2.23481 0,-0.0206 1.85562,-4.2282 2.10422,-4.77135 0.0586,-0.12806 0.14254,-0.3138 0.18651,-0.41275 0.11619,-0.26152 0.23795,-0.53546 0.32927,-0.74084 0.044,-0.099 0.16446,-0.36089 0.26768,-0.58208 0.10321,-0.22119 0.29105,-0.63814 0.41741,-0.92655 0.13751,-0.31387 0.26727,-0.54904 0.32323,-0.5858 0.11863,-0.0779 0.33648,-0.10716 2.16297,-0.29027 1.22335,-0.12264 1.52144,-0.14092 1.64315,-0.10075 0.12153,0.0401 0.38216,0.32781 1.42654,1.57471 0.70282,0.8391 1.69505,2.02308 2.20495,2.63107 0.5099,0.60798 0.96133,1.18209 1.00317,1.27579 0.0447,0.10003 0.088,0.33601 0.10504,0.5715 0.0159,0.22063 0.0416,0.42504 0.057,0.45427 0.0178,0.0337 0.17408,-0.12624 0.42837,-0.43849 0.51811,-0.6362 1.3068,-1.60364 2.05136,-2.51627 0.32597,-0.39955 0.64982,-0.77426 0.71967,-0.83269 0.0698,-0.0584 0.30899,-0.28033 0.53142,-0.49312 0.44981,-0.43032 0.59423,-0.56507 1.47941,-1.38042 0.33761,-0.31098 0.77114,-0.71585 0.96339,-0.89971 0.19226,-0.18387 0.4356,-0.37236 0.54075,-0.41888 l 0.1912,-0.0846 0.72925,0.0859 c 0.40108,0.0473 1.08167,0.12549 1.51241,0.17383 1.69506,0.19024 1.77136,0.2102 1.89014,0.49447 0.0679,0.16253 0.0501,0.23027 -0.78916,2.99712 -0.40904,1.34857 -0.50831,1.68353 -0.50831,1.71514 0,0.0308 0.22529,-0.0272 0.91017,-0.23439 0.20955,-0.0634 0.4953,-0.14887 0.635,-0.18996 0.1397,-0.0411 0.66558,-0.19955 1.16863,-0.35212 l 0.91463,-0.27742 4.36174,-0.17235 c 2.39896,-0.0948 4.3972,-0.15953 4.44053,-0.14384 0.0433,0.0157 1.71352,0.74933 3.71151,1.63032 1.99799,0.88098 3.64456,1.60178 3.65905,1.60178 0.0145,0 0.10856,0.0381 0.20904,0.0847 0.10048,0.0466 0.26843,0.12277 0.3732,0.16933 0.10478,0.0466 0.27146,0.12133 0.37042,0.16613 0.099,0.0448 0.29421,0.129 0.43391,0.18712 0.40834,0.16987 0.80389,0.40649 1.15458,0.69067 0.1799,0.14579 0.51331,0.41346 0.7409,0.59482 0.2276,0.18137 0.5324,0.4253 0.67733,0.54206 0.14494,0.11677 0.37783,0.29774 0.51753,0.40217 0.1397,0.10443 0.41842,0.32322 0.61938,0.4862 0.20097,0.16298 0.52191,0.42016 0.71321,0.5715 0.1913,0.15134 0.46801,0.37042 0.61492,0.48683 0.14691,0.11642 0.3559,0.27835 0.46443,0.35984 0.49311,0.37028 0.49086,0.3666 0.93315,1.524 0.0845,0.22119 0.27455,0.70696 0.42226,1.0795 0.14771,0.37253 0.33758,0.85831 0.42193,1.0795 0.0843,0.22119 0.20895,0.53551 0.27688,0.6985 0.0679,0.16298 0.1924,0.47731 0.27657,0.6985 0.0842,0.22119 0.27391,0.70696 0.42162,1.0795 0.14771,0.37253 0.33758,0.8583 0.42193,1.0795 0.0843,0.22119 0.20893,0.53551 0.27685,0.6985 0.0679,0.16298 0.24127,0.60113 0.38522,0.97366 0.14394,0.37254 0.34359,0.88015 0.44365,1.12803 0.10005,0.24787 0.21137,0.59077 0.24736,0.762 0.036,0.17122 0.0861,0.38423 0.11136,0.47336 0.0253,0.0891 0.0717,0.27964 0.1032,0.42334 0.0315,0.1437 0.29874,1.2614 0.59385,2.48377 0.29512,1.22238 0.55402,2.3078 0.57534,2.41205 0.0213,0.10425 0.0752,0.33285 0.11985,0.508 0.29315,1.15127 0.38877,1.61035 0.35709,1.71449 -0.0335,0.11014 -0.55557,0.99043 -0.65335,1.10163 -0.0409,0.0466 -0.29701,0.45614 -0.56904,0.91017 -0.27203,0.45402 -0.52829,0.8636 -0.56946,0.91017 -0.0412,0.0466 -0.23918,0.36089 -0.44001,0.6985 l -0.36514,0.61383 -2.86869,2.86473 c -2.67672,2.67301 -2.88286,2.86899 -3.08036,2.92841 -0.11642,0.035 -0.57362,0.19067 -1.016,0.34588 -0.44239,0.1552 -0.88054,0.30752 -0.97367,0.33847 -0.30285,0.10064 -1.98628,0.68836 -2.11066,0.73687 -0.0666,0.026 -0.40945,0.10362 -0.762,0.17259 -0.35255,0.069 -0.73626,0.14527 -0.85267,0.16955 -0.24208,0.0505 -1.11799,0.22009 -2.286,0.44264 -0.44239,0.0843 -0.88054,0.17084 -0.97367,0.19236 -0.0931,0.0215 -0.53128,0.10742 -0.97367,0.1909 -0.44238,0.0835 -0.97578,0.18808 -1.18533,0.23243 -0.20955,0.0444 -0.74295,0.14896 -1.18533,0.23244 -0.44239,0.0835 -0.88054,0.16941 -0.97367,0.19095 -0.0931,0.0215 -0.4866,0.0999 -0.87437,0.17414 l -0.70503,0.13499 -0.16742,-0.0828 c -0.16656,-0.0824 -0.19393,-0.0822 -5.29933,0.0342 l -5.1319,0.11703 -0.81131,0.27208 c -0.94775,0.31783 -5.50747,1.8183 -6.18764,2.03617 -0.3088,0.0989 -0.65105,0.17107 -1.016,0.2142 -0.30268,0.0358 -0.79798,0.094 -1.10067,0.12938 -0.30268,0.0354 -1.16945,0.13916 -1.92616,0.2306 -0.75671,0.0914 -1.53776,0.185 -1.73567,0.20792 -0.19791,0.0229 -0.68956,0.0807 -1.09255,0.12837 -0.78545,0.0929 -0.75989,0.0912 -0.85478,0.0573 z m 1.24324,-1.02975 c 1.21342,-0.14573 1.91119,-0.23005 2.60909,-0.31531 0.26776,-0.0327 1.09643,-0.1289 1.8415,-0.21376 0.79041,-0.09 1.46928,-0.18896 1.62983,-0.23752 0.15135,-0.0458 1.39912,-0.45335 2.77284,-0.90574 1.37371,-0.45239 2.87866,-0.94767 3.34433,-1.10063 0.69446,-0.22811 0.8733,-0.30336 0.99483,-0.41859 0.0815,-0.0773 1.21497,-0.77435 2.51884,-1.54906 1.30386,-0.77471 2.67193,-1.5917 3.04013,-1.81551 2.7197,-1.65319 6.07901,-3.65047 6.25925,-3.72145 0.14096,-0.0555 0.17041,-0.0538 0.3175,0.018 0.12307,0.0601 0.17652,0.12082 0.22188,0.25205 0.0543,0.15708 0.0524,0.18788 -0.0212,0.33714 -0.073,0.14824 -0.21343,0.24296 -1.43791,0.97013 -0.74634,0.44322 -2.41321,1.43303 -3.70417,2.19957 -1.29095,0.76655 -2.38529,1.42541 -2.43186,1.46414 -0.0466,0.0387 -0.7383,0.4593 -1.53719,0.93461 l -1.45253,0.8642 0.24603,0.0122 c 0.13532,0.007 2.30797,-0.0356 4.82812,-0.0941 2.52015,-0.0585 4.60888,-0.096 4.64162,-0.0834 0.0517,0.0198 0.91524,-0.13811 2.79895,-0.51196 0.2794,-0.0555 1.10808,-0.21673 1.84151,-0.3584 0.73342,-0.14167 1.46684,-0.28494 1.62983,-0.31838 0.16298,-0.0335 0.94403,-0.18572 1.73566,-0.3384 1.78821,-0.34488 1.70091,-0.32261 2.89984,-0.74006 0.54716,-0.19051 1.12818,-0.39154 1.29116,-0.44671 0.16299,-0.0552 0.62971,-0.21603 1.03717,-0.35745 l 0.74083,-0.25711 1.12184,-1.1252 c 0.61701,-0.61887 1.08373,-1.1145 1.03716,-1.10141 -0.0466,0.0131 -1.10959,0.25462 -2.36228,0.53673 l -2.27761,0.51294 -5.43575,-1.6122 c -4.31886,-1.28093 -5.48437,-1.61219 -5.67242,-1.61219 -0.201,0 -0.83139,-0.0849 -2.1801,-0.29366 -0.15134,-0.0234 -0.74189,-0.11074 -1.31234,-0.19404 -1.53489,-0.22413 -3.28115,-0.48153 -3.62781,-0.53475 -0.36348,-0.0558 -0.47011,-0.146 -0.52732,-0.44609 -0.036,-0.18873 -0.24292,-1.35571 -0.54544,-3.07581 -0.069,-0.39226 -0.12543,-0.76517 -0.12543,-0.82871 0,-0.18137 0.0846,-0.24073 1.12184,-0.78742 0.20955,-0.11045 0.47625,-0.25264 0.59266,-0.31599 0.11642,-0.0634 0.36407,-0.19692 0.55034,-0.29683 0.18626,-0.0999 0.41486,-0.22331 0.508,-0.27424 1.11315,-0.60864 1.46514,-0.78412 1.57284,-0.78412 0.0681,0 0.22788,0.0271 0.35501,0.0601 0.23639,0.0615 3.37254,0.81641 4.78198,1.15107 1.61454,0.38337 1.50788,0.3455 2.73601,0.97137 0.62562,0.31882 1.30894,0.67027 1.51849,0.78099 0.20955,0.11073 0.762,0.39641 1.22767,0.63485 2.17563,1.11403 2.58532,1.32585 2.62601,1.35772 0.0349,0.0273 3.19215,0.94614 5.36698,1.56188 l 0.41534,0.11758 1.12983,-0.39842 c 0.62141,-0.21913 1.70134,-0.60003 2.39984,-0.84643 0.6985,-0.2464 1.37506,-0.48471 1.50346,-0.52959 0.2237,-0.0782 0.24406,-0.0983 0.48683,-0.48247 0.74372,-1.17671 0.90385,-1.44262 0.90657,-1.50535 0.002,-0.0545 -1.42605,-6.106 -1.66747,-7.06434 -0.0323,-0.12806 -0.0902,-0.36619 -0.12875,-0.52917 -0.0385,-0.16299 -0.13752,-0.46779 -0.21994,-0.67734 -0.0824,-0.20954 -0.1936,-0.4953 -0.24706,-0.635 -0.0535,-0.1397 -0.17277,-0.4445 -0.26514,-0.67733 -0.24464,-0.61667 -0.43278,-1.09428 -0.75041,-1.905 -0.15508,-0.39581 -0.35807,-0.91017 -0.45108,-1.143 -0.093,-0.23283 -0.21286,-0.53763 -0.26632,-0.67733 -0.0535,-0.1397 -0.1648,-0.42545 -0.24742,-0.635 -0.0826,-0.20955 -0.2771,-0.70485 -0.43218,-1.10067 -0.15508,-0.39581 -0.35416,-0.90064 -0.44241,-1.12183 -0.0883,-0.22119 -0.23135,-0.58314 -0.31801,-0.80434 -0.0867,-0.22119 -0.1856,-0.47034 -0.21986,-0.55367 -0.0355,-0.0863 -0.15387,-0.2229 -0.27517,-0.3175 -0.11707,-0.0913 -0.33243,-0.26124 -0.47856,-0.37766 -0.14613,-0.11642 -0.41267,-0.32596 -0.59231,-0.46566 -0.17963,-0.1397 -0.45636,-0.35878 -0.61494,-0.48684 -0.15858,-0.12806 -0.4353,-0.34713 -0.61494,-0.48683 -0.17964,-0.1397 -0.44614,-0.34925 -0.59223,-0.46567 -0.1461,-0.11642 -0.55553,-0.44026 -0.90985,-0.71966 -0.35433,-0.2794 -0.73256,-0.57991 -0.84052,-0.6678 -0.18808,-0.15311 -0.31291,-0.22142 -0.75721,-0.41436 -0.11059,-0.048 -0.28681,-0.12683 -0.39158,-0.17511 -0.10478,-0.0483 -0.2667,-0.12069 -0.35984,-0.1609 -0.0931,-0.0402 -0.25505,-0.11219 -0.35983,-0.15996 -0.10477,-0.0478 -1.82011,-0.80324 -3.81186,-1.67882 l -3.62136,-1.59196 -4.2738,0.17017 c -3.37357,0.13432 -4.3184,0.18401 -4.48548,0.2359 -0.11642,0.0362 -0.36407,0.11082 -0.55033,0.16592 -0.18627,0.0551 -0.56727,0.16905 -0.84667,0.25324 -0.2794,0.0842 -0.66992,0.20124 -0.86783,0.26011 -0.19791,0.0589 -0.40746,0.1237 -0.46567,0.14406 -0.11953,0.0418 -0.70519,0.21639 -1.06303,0.31688 -0.26301,0.0739 -0.55195,0.25351 -2.11169,1.31295 -0.58274,0.39582 -1.21871,0.82444 -1.41329,0.9525 -0.19457,0.12806 -0.72027,0.48048 -1.16822,0.78317 -0.44794,0.30268 -0.94386,0.63606 -1.10204,0.74083 -0.15818,0.10478 -0.65336,0.43815 -1.1004,0.74083 -0.96672,0.65456 -1.27178,0.85876 -1.71807,1.15005 -0.56462,0.36853 -0.63483,0.4317 -1.45003,1.30478 -0.43453,0.46538 -0.85674,0.91453 -0.93823,0.9981 -0.0815,0.0836 -0.39543,0.41718 -0.69765,0.74135 -0.53943,0.57861 -0.75069,0.80357 -1.46464,1.55962 -0.1961,0.20765 -0.38512,0.40832 -0.42004,0.44591 -0.69779,0.75115 -1.84559,1.97766 -2.14055,2.28733 -0.21105,0.22158 -0.53449,0.56479 -0.71876,0.7627 -0.18427,0.19791 -0.35073,0.37109 -0.36991,0.38487 -0.0192,0.0138 -0.12028,0.37572 -0.22464,0.80433 -0.76976,3.16132 -0.82299,3.35703 -0.94767,3.48382 -0.23332,0.23728 -0.66827,0.10639 -0.73551,-0.22135 -0.0134,-0.0654 0.0639,-0.46724 0.18454,-0.95917 0.60448,-2.46489 0.76155,-3.11722 0.76204,-3.1649 0.002,-0.23127 0.38574,-0.68303 2.18187,-2.57127 0.1661,-0.17462 0.44442,-0.4699 0.61847,-0.65617 0.17406,-0.18626 0.64768,-0.69109 1.05249,-1.12183 0.40481,-0.43074 0.8522,-0.90699 0.99419,-1.05833 0.14198,-0.15134 0.42858,-0.45651 0.63688,-0.67814 0.2083,-0.22164 0.6359,-0.67838 0.95022,-1.01499 0.31433,-0.33661 0.71748,-0.76488 0.8959,-0.9517 0.17841,-0.18682 0.36714,-0.3941 0.41938,-0.46062 0.0523,-0.0665 0.22841,-0.2094 0.39147,-0.3175 0.55048,-0.36495 0.8643,-0.57564 1.67992,-1.12789 0.92548,-0.62662 1.25234,-0.84553 1.69714,-1.13662 0.17253,-0.11291 0.34486,-0.22721 0.38296,-0.254 0.16498,-0.11602 1.71964,-1.16659 1.98278,-1.33988 0.1591,-0.10477 0.65413,-0.43815 1.10006,-0.74083 0.86525,-0.58729 1.19593,-0.80867 1.70121,-1.1389 0.30806,-0.20134 0.31983,-0.21533 0.39171,-0.46567 0.1128,-0.39284 0.32277,-1.0917 0.36373,-1.2106 0.0201,-0.0582 0.18259,-0.60113 0.3612,-1.2065 0.1786,-0.60536 0.37985,-1.28025 0.4472,-1.49974 0.0674,-0.21949 0.1179,-0.40278 0.11232,-0.4073 -0.006,-0.005 -0.30542,-0.0414 -0.66631,-0.0819 -0.36089,-0.0405 -1.02764,-0.11626 -1.48167,-0.16826 l -0.8255,-0.0945 -0.27611,0.25806 c -0.81497,0.76167 -1.08206,1.0104 -2.28505,2.12791 -0.45403,0.42177 -0.95885,0.93225 -1.12184,1.1344 -0.16298,0.20215 -0.58208,0.71701 -0.93133,1.14413 -0.34925,0.42712 -0.8957,1.09722 -1.21433,1.4891 -0.31863,0.39189 -0.74653,0.91775 -0.95089,1.16859 -0.29006,0.35603 -0.40487,0.46605 -0.52338,0.50156 -0.21429,0.0642 -0.44721,-0.0363 -0.5271,-0.22752 -0.0342,-0.0819 -0.0906,-0.555 -0.13491,-1.13093 l -0.0761,-0.99016 -1.46975,-1.75985 c -1.23539,-1.47923 -1.75563,-2.10053 -2.59317,-3.09694 l -0.092,-0.10944 -1.35269,0.13994 c -0.74398,0.077 -1.39269,0.1405 -1.44158,0.14119 -0.0734,9.6e-4 -0.13525,0.10653 -0.3545,0.60449 -0.14609,0.33179 -0.3315,0.74613 -0.41202,0.92075 -0.20168,0.43742 -0.30729,0.66915 -0.39549,0.86784 -0.0413,0.0931 -0.13246,0.29316 -0.20248,0.4445 -0.24721,0.5343 -2.12379,4.79152 -2.12379,4.81805 0,0.0224 -0.72342,1.72704 -0.91062,2.14578 -0.0312,0.0698 -0.22225,0.51752 -0.4245,0.99483 -0.82942,1.95745 -1.34349,3.16336 -1.41663,3.32317 -0.0426,0.0931 -0.22136,0.50689 -0.39719,0.91946 l -0.31969,0.75013 0.0853,0.39287 c 0.16541,0.762 0.34007,1.58041 0.37747,1.76871 0.0208,0.10477 0.11591,0.56197 0.21134,1.016 0.0954,0.45402 0.19068,0.91122 0.21167,1.016 0.021,0.10477 0.11594,0.56197 0.21102,1.016 0.0951,0.45402 0.22146,1.06362 0.28086,1.35466 0.11238,0.55062 0.16377,0.70893 1.92392,5.92667 0.58516,1.73461 1.07347,3.18552 1.08514,3.22425 0.0196,0.065 0.49256,0.50778 1.68381,1.57646 0.25701,0.23056 0.47682,0.43061 0.48846,0.44456 0.0117,0.0139 0.21166,0.19616 0.4445,0.40494 0.23283,0.20878 0.54732,0.4945 0.69886,0.63495 1.15714,1.07236 1.20156,1.1077 2.4061,1.91467 1.12999,0.75703 1.21883,0.80844 1.2977,0.75078 0.0466,-0.034 0.1323,-0.0847 0.1905,-0.11245 0.0582,-0.0278 0.66544,-0.51806 1.3494,-1.08944 3.02495,-2.52707 2.72956,-2.26413 2.79934,-2.49192 0.0191,-0.0623 0.0958,-0.27522 0.17046,-0.47313 0.0747,-0.19791 0.19867,-0.53128 0.27557,-0.74083 0.0769,-0.20955 0.20018,-0.54293 0.27397,-0.74084 0.0738,-0.19791 0.14978,-0.40746 0.16887,-0.46566 0.0191,-0.0582 0.0857,-0.23919 0.14793,-0.40217 0.0623,-0.16298 0.1899,-0.50588 0.28364,-0.762 0.2896,-0.79123 0.32162,-0.87817 0.46005,-1.24883 0.0739,-0.19791 0.1973,-0.53129 0.2742,-0.74084 0.0769,-0.20955 0.20018,-0.54292 0.27397,-0.74083 0.0738,-0.19791 0.14979,-0.40746 0.16888,-0.46567 0.0191,-0.0582 0.0813,-0.22965 0.13825,-0.381 0.26808,-0.71252 0.40583,-1.08683 0.42955,-1.16729 0.0142,-0.0483 0.0818,-0.14138 0.15017,-0.20686 0.24699,-0.23664 0.66994,-0.10031 0.73755,0.23773 0.0243,0.12156 0.001,0.19752 -0.35739,1.16817 -0.0451,0.12224 -0.12191,0.33179 -0.17061,0.46567 -0.0487,0.13388 -0.11485,0.31009 -0.14703,0.39158 -0.0322,0.0815 -0.15532,0.41487 -0.27367,0.74084 -0.11836,0.32596 -0.25105,0.68791 -0.29488,0.80433 -0.0438,0.11642 -0.20599,0.55457 -0.36035,0.97367 -0.40996,1.11306 -0.43566,1.18301 -0.53273,1.44991 -0.0487,0.13388 -0.11486,0.31009 -0.14703,0.39159 -0.0322,0.0815 -0.15533,0.41486 -0.27368,0.74083 -0.22059,0.60757 -0.24706,0.67906 -0.54983,1.48537 l -0.17625,0.46937 -0.57547,0.48313 c -0.61955,0.52013 -1.30074,1.08732 -1.67335,1.3933 -0.55525,0.45594 -2.01806,1.70107 -2.23086,1.89887 -0.23533,0.21874 -0.5005,0.36226 -1.9685,1.06544 -1.30037,0.62289 -1.62383,0.77878 -2.24367,1.08137 l -0.635,0.30998 -0.11222,0.28809 c -0.2113,0.54244 -0.47075,1.21938 -0.56471,1.47341 -0.0517,0.1397 -0.16211,0.43498 -0.24541,0.65617 -0.0833,0.22119 -0.16188,0.44979 -0.17462,0.508 -0.0222,0.10162 0.0396,0.13721 1.5529,0.89387 0.86684,0.43342 1.58307,0.79061 1.59164,0.79375 0.009,0.003 0.49435,-0.0518 1.0795,-0.12206 z m 34.82476,-18.9512 c -0.0349,-0.0123 -0.20638,-0.0885 -0.381,-0.16932 -0.17463,-0.0809 -0.3937,-0.18234 -0.48684,-0.22549 -0.0931,-0.0432 -0.35692,-0.16681 -0.5862,-0.27479 -0.23492,-0.11064 -0.44627,-0.18504 -0.48424,-0.17047 -0.0599,0.023 -0.4332,0.10422 -2.36163,0.51388 -0.60145,0.12778 -0.5364,0.14482 -1.27252,-0.33347 -0.25919,-0.16841 -0.58842,-0.3824 -0.73163,-0.47554 -0.14321,-0.0931 -0.40739,-0.26764 -0.58708,-0.3878 -0.17968,-0.12016 -0.49815,-0.32512 -0.7077,-0.45547 -0.59319,-0.369 -0.83948,-0.55041 -0.93133,-0.68601 -0.0466,-0.0688 -0.37792,-1.01008 -0.73635,-2.09186 -0.35842,-1.08177 -0.65496,-1.97129 -0.65897,-1.97672 -0.004,-0.005 -0.38702,-0.087 -0.85115,-0.18123 -3.8309,-0.778 -3.85385,-0.78296 -3.97028,-0.85925 -0.15901,-0.10418 -0.22254,-0.35114 -0.14073,-0.54696 0.0717,-0.17165 0.17547,-0.2366 0.66118,-0.41389 0.51015,-0.18622 1.69366,-0.63147 1.97097,-0.74151 0.1397,-0.0554 0.4445,-0.17112 0.67733,-0.25709 0.23283,-0.086 0.54716,-0.20291 0.6985,-0.25985 0.15134,-0.0569 0.32279,-0.11888 0.381,-0.13766 0.0582,-0.0188 0.28681,-0.1042 0.508,-0.18985 0.70717,-0.27384 0.85809,-0.31385 1.35467,-0.35917 0.85869,-0.0784 2.29382,-0.21166 2.74598,-0.25503 0.58275,-0.0559 0.64943,-0.0246 1.13549,0.53285 0.20516,0.2353 0.64045,0.7306 0.9673,1.10067 1.56585,1.77286 1.8326,2.08886 1.87648,2.22293 0.0258,0.0788 0.0864,0.40994 0.13469,0.7359 0.14085,0.95088 0.42179,2.86199 0.45082,3.06679 0.0326,0.22981 0.0449,0.2475 1.55177,2.21949 0.17564,0.22987 0.33096,0.47078 0.34514,0.53537 0.0688,0.31312 -0.27383,0.62509 -0.57167,0.52055 z m -4.14839,-3.68193 c 0.12496,-0.10514 0.1324,-0.12676 0.11294,-0.32808 -0.0264,-0.27319 -0.1911,-0.98638 -0.25993,-1.12569 -0.0464,-0.0939 -0.16795,-0.45341 -0.28009,-0.8285 -0.0214,-0.0715 -0.0389,-0.16118 -0.0389,-0.19928 0,-0.0612 -0.29106,-0.32137 -0.75696,-0.67652 -0.0843,-0.0642 -0.21989,-0.17563 -0.30138,-0.24753 -0.0815,-0.0719 -0.21611,-0.16559 -0.29916,-0.20819 -0.083,-0.0426 -0.17587,-0.10742 -0.20627,-0.14405 -0.0304,-0.0366 -0.0793,-0.0666 -0.10856,-0.0666 -0.0631,0 -0.14812,0.30919 -0.14773,0.53732 0,0.0887 -0.0398,0.47924 -0.0887,0.86797 l -0.089,0.70679 0.25007,0.43621 c 0.13754,0.23991 0.26229,0.46878 0.27723,0.50859 0.0339,0.0903 0.35888,0.32932 0.45023,0.33113 0.0373,6.4e-4 0.10471,0.0293 0.14991,0.0635 0.0452,0.0342 0.10752,0.0621 0.13851,0.0621 0.031,0 0.18451,0.0607 0.34116,0.13489 0.42786,0.20262 0.61809,0.28346 0.67316,0.28608 0.0273,0.001 0.10986,-0.0483 0.18344,-0.1102 z m -8.29023,-6.25075 c -0.0556,-0.0591 -0.092,-0.15256 -0.092,-0.2357 0,-0.13613 0.1463,-0.36533 1.47596,-2.31215 0.17492,-0.25612 0.4716,-0.69427 0.65929,-0.97367 0.33582,-0.49992 0.3463,-0.51052 0.65875,-0.66675 0.72011,-0.36006 1.51086,-0.71799 1.62983,-0.73774 0.0698,-0.0116 0.52705,0.0286 1.016,0.0892 0.48895,0.0607 1.06998,0.13056 1.29117,0.15535 0.44496,0.0499 0.55522,0.0908 0.87323,0.32364 0.66691,0.48841 1.11404,0.81271 1.32415,0.96041 0.13024,0.0915 0.32575,0.23442 0.43448,0.3175 0.10874,0.0831 0.32305,0.24154 0.47625,0.35213 0.54267,0.39175 0.83862,0.6065 1.21054,0.87842 0.20701,0.15134 0.49627,0.36089 0.64282,0.46567 0.46416,0.33185 0.62653,0.50139 0.62653,0.65417 0,0.1748 -0.14932,0.31949 -0.32971,0.31949 -0.11736,0 -0.53402,-0.14423 -0.91912,-0.31818 -0.23532,-0.10629 -1.96952,-0.82482 -1.99074,-0.82482 -0.0116,0 -0.10177,-0.0369 -0.20047,-0.082 -0.0987,-0.0451 -0.30328,-0.13262 -0.45462,-0.19453 -0.15135,-0.0619 -0.33232,-0.13783 -0.40217,-0.16871 -0.25781,-0.11398 -1.16414,-0.48612 -1.18393,-0.48612 -0.0112,0 -0.13999,-0.0539 -0.2861,-0.11969 -0.1461,-0.0658 -0.37994,-0.16496 -0.51964,-0.2203 -0.1397,-0.0553 -0.29957,-0.12397 -0.35526,-0.15251 -0.0818,-0.0419 -0.11862,-0.0405 -0.19161,0.007 -0.0497,0.0326 -0.48787,0.19552 -0.97373,0.36213 -0.7007,0.24028 -0.9281,0.33745 -1.09956,0.46988 -0.22876,0.17667 -0.77274,0.58849 -0.96681,0.73191 -0.0636,0.047 -0.34935,0.26479 -0.635,0.48397 -1.32516,1.01681 -1.32931,1.01966 -1.48126,1.01966 -0.097,0 -0.17571,-0.0325 -0.23722,-0.098 z"
       id="path179" /></g></svg>
