<?xml version="1.0" encoding="UTF-8" standalone="no"?>
<!-- Created with Inkscape (http://www.inkscape.org/) -->

<svg
   width="48"
   height="48"
   viewBox="0 0 12.7 12.7"
   version="1.1"
   id="svg5"
   xml:space="preserve"
   inkscape:version="1.2.2 (b0a8486541, 2022-12-01)"
   sodipodi:docname="48x48.svg"
   inkscape:export-filename="finished/48x48.png"
   inkscape:export-xdpi="96"
   inkscape:export-ydpi="96"
   xmlns:inkscape="http://www.inkscape.org/namespaces/inkscape"
   xmlns:sodipodi="http://sodipodi.sourceforge.net/DTD/sodipodi-0.dtd"
   xmlns="http://www.w3.org/2000/svg"
   xmlns:svg="http://www.w3.org/2000/svg"><sodipodi:namedview
     id="namedview7"
     pagecolor="#ffffff"
     bordercolor="#000000"
     borderopacity="0.25"
     inkscape:showpageshadow="2"
     inkscape:pageopacity="0.0"
     inkscape:pagecheckerboard="0"
     inkscape:deskcolor="#d1d1d1"
     inkscape:document-units="mm"
     showgrid="false"
     inkscape:lockguides="true"
     inkscape:zoom="0.35355339"
     inkscape:cx="694.37886"
     inkscape:cy="1144.0988"
     inkscape:window-width="1920"
     inkscape:window-height="1020"
     inkscape:window-x="0"
     inkscape:window-y="0"
     inkscape:window-maximized="1"
     inkscape:current-layer="layer1" /><defs
     id="defs2" /><g
     inkscape:label="Layer 1"
     inkscape:groupmode="layer"
     id="layer1"
     transform="translate(271.46249,218.81041)"><path
       id="path184"
       style="fill:#ffffff;stroke-width:0.0220971"
       transform="matrix(0.26458333,0,0,0.26458333,-271.46249,-218.81041)"
       d="m 21.091797,13.439453 a 0.15529069,0.15529069 0 0 0 -0.123047,0.04102 l -0.505859,0.470703 c -0.948971,0.884103 -1.075626,1.018266 -1.890625,2.017578 -0.208467,0.255612 -0.405249,0.495242 -0.554688,0.675781 -0.07472,0.09027 -0.137506,0.165967 -0.183594,0.220703 -0.04609,0.05474 -0.08627,0.09994 -0.07617,0.08984 -0.01698,0.01698 -0.08673,0.04805 -0.05078,0.03906 0.01595,-0.004 -0.01413,-0.0023 -0.03516,-0.01172 -0.02103,-0.0094 -0.02725,-0.0318 -0.01367,0.0039 0.0043,0.01136 -0.0053,-0.02094 -0.01172,-0.06055 -0.0064,-0.03961 -0.01254,-0.09408 -0.01953,-0.15625 -0.01399,-0.124332 -0.02882,-0.28371 -0.03906,-0.449219 -0.0074,-0.119008 -0.0093,-0.184967 -0.0293,-0.255859 -0.01999,-0.07089 -0.05985,-0.124593 -0.09961,-0.173828 -0.0536,-0.06638 -0.468672,-0.563501 -0.941406,-1.128906 -0.236249,-0.282562 -0.451401,-0.541207 -0.607422,-0.728516 -0.07801,-0.09365 -0.141702,-0.16796 -0.185547,-0.220703 -0.02192,-0.02637 -0.0392,-0.04853 -0.05078,-0.0625 -0.0058,-0.007 -0.0088,-0.0121 -0.01172,-0.01563 -0.0029,-0.0035 0.004,0.0079 0.0039,0.0078 -2.1e-5,-3.1e-5 -0.06635,-0.05662 -0.06641,-0.05664 -5.9e-5,-2.6e-5 -0.0292,-0.0097 -0.0293,-0.0098 -1.94e-4,-4.3e-5 -0.0189,-0.0016 -0.02344,-0.002 -0.0091,-6.83e-4 -0.01196,-0.002 -0.01563,-0.002 -0.0073,8.4e-5 -0.0115,0.0016 -0.01758,0.002 -0.01217,7.17e-4 -0.0285,4.1e-4 -0.04687,0.002 -0.03674,0.0031 -0.08584,0.0078 -0.146485,0.01367 -0.121284,0.01181 -0.282554,0.02984 -0.443359,0.04687 -0.160805,0.01703 -0.321587,0.03489 -0.443359,0.04883 -0.06089,0.007 -0.111374,0.01285 -0.148438,0.01758 -0.01853,0.0024 -0.03469,0.004 -0.04687,0.0059 -0.0061,9.24e-4 -0.01081,6.28e-4 -0.01758,0.002 -0.0034,6.62e-4 -0.0065,0.002 -0.01367,0.0039 -0.0036,9.67e-4 -0.0154,0.0058 -0.01563,0.0059 -1.12e-4,4.4e-5 -0.0175,0.0078 -0.01758,0.0078 -7.4e-5,4e-5 -0.03707,0.02731 -0.03711,0.02734 -1.14e-4,1.13e-4 -0.01741,0.01929 -0.01758,0.01953 -1.7e-4,2.4e-4 -0.0045,0.0075 -0.0059,0.0098 -0.0028,0.0045 -0.0044,0.0071 -0.0059,0.0098 -0.0029,0.0053 -0.0052,0.01032 -0.0078,0.01563 -0.0053,0.01061 -0.01165,0.0225 -0.01953,0.03906 -0.01577,0.03313 -0.03776,0.08081 -0.06445,0.138672 -0.05339,0.115725 -0.127422,0.276141 -0.212891,0.464843 -0.170936,0.377405 -0.389332,0.864525 -0.585937,1.306641 -0.407852,0.917158 -0.507347,1.145887 -1.490235,3.449219 l -0.740234,1.736328 a 0.15529069,0.15529069 0 0 0 -0.0098,0.09375 l 0.08594,0.398437 c 0.0466,0.21666 0.19534,0.926787 0.330078,1.576172 l 0.244141,1.179688 a 0.15529069,0.15529069 0 0 0 0.0059,0.01758 l 0.66211,1.976562 c 0.294822,0.880376 0.461536,1.37638 0.564453,1.664063 0.102917,0.287683 0.13417,0.374724 0.203125,0.447266 0.04447,0.04678 0.154878,0.14657 0.324218,0.302734 0.169341,0.156164 0.38666,0.355451 0.607422,0.55664 0.441524,0.402379 0.884681,0.803537 0.998047,0.898438 0.190526,0.15949 0.83031,0.598445 1.068359,0.736328 0.03415,0.01978 0.06787,0.03846 0.115235,0.05273 0.04736,0.01428 0.110748,0.0163 0.162109,0 0.102723,-0.03259 0.165149,-0.09252 0.28711,-0.191406 0.194791,-0.157944 0.597122,-0.493943 0.957031,-0.796875 0.179954,-0.151466 0.349238,-0.293712 0.476562,-0.402343 0.06366,-0.05432 0.115218,-0.100764 0.154297,-0.134766 0.01954,-0.017 0.03636,-0.03178 0.04883,-0.04297 0.01247,-0.01119 0.01597,-0.01216 0.0332,-0.03125 0.0474,-0.05251 0.07495,-0.09672 0.0957,-0.166015 -0.0055,0.01824 0.0054,-0.01269 0.01563,-0.04102 0.01023,-0.02832 0.02441,-0.06836 0.04297,-0.119141 0.03711,-0.101565 0.09004,-0.245123 0.154297,-0.419922 0.12852,-0.349597 0.303953,-0.824162 0.494141,-1.339843 0.219721,-0.595761 0.395771,-1.068937 0.521484,-1.396485 0.06286,-0.163773 0.112737,-0.291752 0.148438,-0.378906 0.01785,-0.04358 0.03318,-0.07805 0.04297,-0.09961 5.37e-4,-0.0012 0.0014,-8.44e-4 0.002,-0.002 -10e-4,-0.0038 -0.01677,-0.002 0.02539,-0.002 0.03622,0 0.04457,0.0075 0.04492,0.0078 3.48e-4,3.27e-4 0.0039,3e-5 0.0039,0.0293 0,-0.04087 0.0015,-0.007 -0.0078,0.02539 -0.0093,0.03243 -0.02526,0.08164 -0.04687,0.146485 -0.04324,0.129691 -0.110982,0.323774 -0.208985,0.595703 -0.196004,0.543858 -0.512255,1.397499 -0.986328,2.673828 L 18.4375,29.427734 17.824219,29.9375 c -0.354889,0.295089 -0.838636,0.700259 -1.076172,0.902344 -0.244348,0.207881 -0.336815,0.291948 -0.548828,0.414062 -0.212013,0.122114 -0.548059,0.283424 -1.253907,0.623047 -0.204282,0.09829 -0.376472,0.184883 -0.5,0.25 -0.06176,0.03256 -0.11095,0.05967 -0.148437,0.08203 -0.01874,0.01118 -0.03536,0.02016 -0.05078,0.03125 -0.0077,0.0055 -0.015,0.0118 -0.02539,0.02148 -0.0052,0.0048 -0.0117,0.01155 -0.01953,0.02148 -0.0039,0.005 -0.01149,0.01718 -0.01172,0.01758 -2.33e-4,4.01e-4 -0.01552,0.03482 -0.01563,0.03516 0.0059,-0.01984 -0.0066,0.01954 -0.01953,0.05469 -0.01291,0.03514 -0.03073,0.08368 -0.05274,0.142578 -0.044,0.117795 -0.103455,0.275907 -0.167968,0.445313 -0.06507,0.170868 -0.124566,0.328414 -0.166016,0.447265 -0.02073,0.05943 -0.03714,0.1086 -0.04883,0.146485 -0.0058,0.01894 -0.0099,0.03527 -0.01367,0.05078 -0.0019,0.0078 -0.0042,0.01414 -0.0059,0.02539 -8.29e-4,0.0056 -0.0017,0.01253 -0.002,0.02344 -1.22e-4,0.0055 0.0019,0.02111 0.002,0.02148 4e-5,3.72e-4 0.0097,0.04078 0.0098,0.04102 0.0016,0.003 0.02125,0.03876 0.02149,0.03906 2.44e-4,3.15e-4 0.01178,0.01182 0.01563,0.01562 0.0077,0.0076 0.01318,0.0122 0.01758,0.01563 0.0088,0.0069 0.01436,0.01098 0.02148,0.01562 0.01425,0.0093 0.03103,0.0198 0.05078,0.03125 0.03949,0.0229 0.09275,0.05269 0.158203,0.08789 0.130912,0.07041 0.307579,0.161917 0.501953,0.259766 0.27905,0.140476 0.458527,0.22896 0.580078,0.283203 0.121551,0.05424 0.166648,0.09326 0.283203,0.07617 0.02148,-0.0032 0.239285,-0.03062 0.457031,-0.05469 0.392278,-0.04336 0.962567,-0.110079 1.460938,-0.169922 0.498371,-0.05984 0.914014,-0.11026 1.03125,-0.128906 0.0979,-0.01557 0.249759,-0.0597 0.513672,-0.140625 0.263913,-0.08093 0.633987,-0.198364 1.136718,-0.363281 0.869058,-0.285089 1.287078,-0.421494 1.523438,-0.507813 0.236359,-0.08632 0.306253,-0.134747 0.416016,-0.207031 0.03171,-0.02088 0.352096,-0.216154 0.792968,-0.482422 0.440873,-0.266267 1.015167,-0.613026 1.597656,-0.96289 1.164979,-0.69973 2.370646,-1.418966 2.59961,-1.550782 0.08545,-0.0492 0.16224,-0.09053 0.21875,-0.117187 0.02583,-0.01218 0.04589,-0.01981 0.06055,-0.02539 0.0207,0.0037 0.04742,0.03599 0.0332,0.07031 -0.0049,0.0119 0.009,-0.0079 -0.01367,0.01172 -0.02267,0.01962 -0.07821,0.05995 -0.183594,0.126953 -0.210763,0.134 -0.620086,0.378572 -1.40625,0.845703 -0.741754,0.440743 -1.52547,0.909651 -1.748047,1.046875 -0.217526,0.134109 -0.610514,0.373354 -0.871093,0.529297 l -0.47461,0.283203 a 0.15529069,0.15529069 0 0 0 0.08203,0.287109 l 0.861328,-0.01367 c 0.474795,-0.0078 1.235151,-0.02406 1.691406,-0.03516 0.454342,-0.01105 1.043796,-0.01723 1.304687,-0.01758 0.278537,-3.69e-4 0.389213,0.0064 0.753907,-0.05273 0.364693,-0.0591 0.990947,-0.183923 2.353515,-0.449219 l 1.767578,-0.34375 a 0.15529069,0.15529069 0 0 0 0.02148,-0.0059 l 0.71875,-0.24414 c 0.394837,-0.134399 0.838833,-0.285527 0.988281,-0.335938 l 0.273437,-0.0918 a 0.15529069,0.15529069 0 0 0 0.0625,-0.03711 l 0.47461,-0.482422 c 0.131373,-0.132939 0.250014,-0.255857 0.335937,-0.345703 0.04296,-0.04492 0.07679,-0.08033 0.101563,-0.107422 0.01238,-0.01355 0.02266,-0.02494 0.03125,-0.03516 0.0043,-0.0051 0.0075,-0.0089 0.01367,-0.01758 0.0031,-0.0043 0.0134,-0.02288 0.01367,-0.02344 1.38e-4,-2.76e-4 0.01364,-0.03889 0.01367,-0.03906 1.7e-5,-8.6e-5 0.002,-0.05463 0.002,-0.05469 0,0 -0.154297,0.02344 -0.154297,0.02344 a 0.15529069,0.15529069 0 0 0 0.107422,-0.111328 c 0,0 -0.04684,-0.03124 -0.04687,-0.03125 -3.2e-5,-1.4e-5 -0.02535,-0.0098 -0.02539,-0.0098 -9.1e-5,-2.1e-5 -0.0272,-0.0019 -0.02734,-0.002 -2.94e-4,-1.6e-5 -0.01547,-2.75e-4 -0.01953,0 -0.0081,5.49e-4 -0.01173,-5.52e-4 -0.01563,0 -0.0078,0.0011 -0.01525,0.0024 -0.02344,0.0039 -0.01638,0.003 -0.03736,0.0081 -0.06445,0.01367 -0.05418,0.01112 -0.13062,0.02643 -0.224609,0.04687 -0.187977,0.04089 -0.44648,0.09826 -0.728516,0.162109 l -0.982422,0.22461 -1.943359,-0.576172 c -2.554705,-0.756549 -2.891626,-0.854447 -3.142578,-0.884766 -0.176518,-0.02133 -0.976669,-0.137818 -1.732422,-0.25 -0.377876,-0.05609 -0.746678,-0.111636 -1.025391,-0.154297 -0.139356,-0.02133 -0.255818,-0.0393 -0.339843,-0.05273 -0.04201,-0.0067 -0.07579,-0.01155 -0.09961,-0.01563 -0.02382,-0.0041 -0.05241,-0.01238 -0.0293,-0.0059 -0.0129,-0.0036 -0.02787,-0.01146 -0.0332,-0.01172 -0.0012,-0.0041 -0.0025,-0.0046 -0.0039,-0.0098 -0.009,-0.03227 -0.02018,-0.08485 -0.03516,-0.15625 -0.02995,-0.142807 -0.07189,-0.362314 -0.126953,-0.673828 -0.04214,-0.238428 -0.0796,-0.465284 -0.107422,-0.638672 -0.01391,-0.08669 -0.02556,-0.161088 -0.0332,-0.214843 -0.0076,-0.05376 -0.0098,-0.104427 -0.0098,-0.08203 0,-0.03233 0.0022,-0.03199 -0.0039,-0.01953 -0.0061,0.01246 -0.01067,0.01258 0.01367,-0.0059 -0.01516,0.01148 0.02049,-0.01201 0.06055,-0.03516 0.04005,-0.02315 0.09489,-0.0554 0.160156,-0.0918 0.130537,-0.0728 0.302844,-0.167047 0.484375,-0.265624 0.363062,-0.197156 0.767457,-0.411639 0.951172,-0.503907 0.08084,-0.04059 0.128208,-0.0618 0.15039,-0.06836 0.02218,-0.0066 0.01322,-0.0052 0.03125,-0.002 0.03407,0.0061 2.832401,0.681194 2.878907,0.695312 0.0122,0.0037 0.08368,0.03244 0.189453,0.08203 0.105771,0.04959 0.253359,0.121873 0.443359,0.216797 0.380001,0.189849 0.93608,0.474396 1.705078,0.871094 l 0.71875,0.369141 a 0.15529069,0.15529069 0 0 0 0.02539,0.0098 l 0.541015,0.160157 a 0.15529069,0.15529069 0 0 0 0.002,0 c 0.298751,0.08812 0.88013,0.256365 1.294922,0.375 l 0.753906,0.216796 a 0.15529069,0.15529069 0 0 0 0.09375,-0.002 L 35.166016,28.5 c 0.539374,-0.189717 0.833801,-0.293109 1.005859,-0.361328 0.08603,-0.03411 0.141738,-0.06004 0.1875,-0.08594 0.04576,-0.0259 0.08372,-0.05871 0.107422,-0.08594 0.03706,-0.04257 0.07062,-0.09428 0.123047,-0.173828 0.05243,-0.07955 0.115112,-0.1765 0.175781,-0.275391 l 0.21875,-0.353516 a 0.15529069,0.15529069 0 0 0 0.01758,-0.117187 l -0.03711,-0.162109 h 0.002 c -0.07877,-0.347856 -0.481994,-2.05129 -0.640625,-2.708985 -0.188748,-0.782555 -0.12035,-0.592457 -1.125,-3.140625 -0.366503,-0.92959 -0.696124,-1.768493 -0.720703,-1.833984 -0.0415,-0.110568 -0.09606,-0.206971 -0.173828,-0.28125 -0.02849,-0.02721 -0.06036,-0.05275 -0.125,-0.105469 -0.06464,-0.05272 -0.1532,-0.12314 -0.257813,-0.207031 -0.209225,-0.167783 -0.486243,-0.388221 -0.78125,-0.621094 -0.86023,-0.679048 -1.10106,-0.86533 -1.279297,-0.949219 -0.117917,-0.0555 -1.029107,-0.458255 -2.068359,-0.916015 l -1.890625,-0.832032 a 0.15529069,0.15529069 0 0 0 -0.06836,-0.01172 l -0.640626,0.02344 c -1.55118,0.05992 -2.772329,0.114216 -3.042968,0.134766 -0.26538,0.02015 -0.355898,0.03998 -1.19336,0.292969 -0.243889,0.07367 -0.474858,0.146052 -0.652343,0.203125 -0.08874,0.02854 -0.163723,0.05278 -0.220703,0.07226 -0.05698,0.01949 -0.0825,0.0254 -0.125,0.04687 -0.05417,0.02737 -0.108874,0.06533 -0.242188,0.152344 -0.133314,0.08702 -0.324172,0.213083 -0.576172,0.380859 -0.503999,0.335554 -1.253361,0.838741 -2.279297,1.529297 -0.252691,0.170086 -0.494967,0.336842 -0.68164,0.46875 -0.09334,0.06595 -0.173467,0.122869 -0.234375,0.167969 -0.06091,0.0451 -0.09463,0.07025 -0.128907,0.103516 -0.06564,0.06372 -0.335582,0.346828 -0.832031,0.873046 -0.496449,0.526219 -1.205639,1.282298 -2.105469,2.240235 -0.125443,0.133545 -0.241091,0.260108 -0.328125,0.357422 -0.04352,0.04866 -0.08033,0.08885 -0.107422,0.121093 -0.01354,0.01612 -0.02539,0.03019 -0.03516,0.04297 -0.0049,0.0064 -0.0087,0.01204 -0.01367,0.01953 -0.0025,0.0037 -0.0046,0.0081 -0.0078,0.01367 -0.0032,0.0056 -0.01142,0.02458 -0.01172,0.02539 -0.0089,0.02346 -0.0095,0.02571 -0.01367,0.04102 -0.0042,0.0153 -0.0092,0.03415 -0.01563,0.05859 -0.01284,0.04889 -0.03025,0.116725 -0.05078,0.197266 -0.04107,0.161081 -0.0945,0.376229 -0.152344,0.607422 -0.05761,0.230236 -0.114804,0.450695 -0.160156,0.61914 -0.02268,0.08422 -0.04339,0.154578 -0.05859,0.207032 -0.0152,0.05245 -0.03202,0.09899 -0.02539,0.08398 -0.0168,0.03801 -0.02527,0.03886 -0.02149,0.03711 0.0038,-0.0017 -9.6e-5,0.0038 -0.03906,-0.0078 -0.03321,-0.0099 -0.03289,-0.01634 -0.03125,-0.01367 0.0016,0.0027 -0.006,-0.0018 0,-0.03906 -9.69e-4,0.006 0.03215,-0.141044 0.07422,-0.320313 0.04207,-0.179269 0.09675,-0.41314 0.15625,-0.660156 a 0.15529069,0.15529069 0 0 0 0,-0.002 l 0.207032,-0.867188 0.08008,-0.101562 c 0.06995,-0.09009 0.06496,-0.08988 0.425781,-0.476563 0.360825,-0.386686 1.078138,-1.150552 2.572266,-2.740234 l 0.449219,-0.478516 0.771484,-0.519531 c 0.432799,-0.291001 1.030279,-0.692305 1.328125,-0.892578 0.297815,-0.200251 0.860786,-0.579074 1.25,-0.839844 0.195077,-0.1307 0.375473,-0.253583 0.509765,-0.345703 0.06715,-0.04606 0.12354,-0.08453 0.164063,-0.113281 0.02026,-0.01437 0.03565,-0.02529 0.04883,-0.03516 0.0066,-0.0049 0.01358,-0.0088 0.01953,-0.01367 0.003,-0.0024 0.0059,-0.0063 0.0098,-0.0098 0.0039,-0.0035 0.01711,-0.01702 0.01758,-0.01758 6.51e-4,-7.85e-4 0.01608,-0.02478 0.01953,-0.03125 0.0035,-0.0065 0.0057,-0.01081 0.0078,-0.01563 0.0043,-0.0096 0.0078,-0.01905 0.01172,-0.0293 0.0078,-0.0205 0.017,-0.04566 0.02734,-0.07617 0.02069,-0.06102 0.04766,-0.143147 0.07813,-0.240234 0.06094,-0.194174 0.138076,-0.446863 0.212891,-0.699219 0.07482,-0.252356 0.148088,-0.502939 0.201172,-0.693359 0.02654,-0.09521 0.04777,-0.175859 0.0625,-0.234375 0.0074,-0.02926 0.01154,-0.05209 0.01563,-0.07227 0.002,-0.01009 0.0044,-0.01865 0.0059,-0.03125 7.24e-4,-0.0063 0.0024,-0.01305 0.002,-0.02734 -2.04e-4,-0.0071 -0.0038,-0.03281 -0.0039,-0.0332 -4.5e-5,-1.95e-4 -0.01166,-0.03111 -0.01172,-0.03125 -6.3e-5,-1.35e-4 -0.03507,-0.0468 -0.03516,-0.04687 -1.58e-4,-1.47e-4 -0.03095,-0.02327 -0.03125,-0.02344 -2.98e-4,-1.63e-4 -0.01329,-0.0061 -0.01758,-0.0078 -0.0086,-0.0035 -0.01297,-0.0045 -0.01758,-0.0059 -0.0092,-0.0027 -0.01638,-0.0043 -0.02344,-0.0059 -0.01411,-0.003 -0.03008,-0.0067 -0.04883,-0.0098 -0.03749,-0.0062 -0.08758,-0.01319 -0.148437,-0.02149 -0.121721,-0.01659 -0.28455,-0.03677 -0.462891,-0.05664 z m 6.828125,5.755859 c 0.0041,-2.91e-4 0.09814,0.003 0.205078,0.01172 0.106934,0.0087 0.238669,0.02057 0.371094,0.03516 0.132424,0.01459 0.264602,0.03207 0.371094,0.04687 0.106491,0.0148 0.199684,0.03162 0.205078,0.0332 -0.02169,-0.0064 9.14e-4,9.58e-4 0.02344,0.01367 0.02252,0.01271 0.05445,0.03217 0.08984,0.05469 0.07078,0.04504 0.159953,0.106523 0.248047,0.169922 0.486072,0.349819 0.923245,0.667348 1.25,0.908203 0.163377,0.120428 0.29927,0.221543 0.398437,0.296875 0.09917,0.07533 0.17154,0.134444 0.171875,0.134766 0.01554,0.0149 0.01043,0.01174 0.01758,0.02148 -0.02179,-0.0046 -0.02641,-0.0018 -0.09375,-0.02539 -0.21353,-0.07488 -0.653878,-0.259235 -1.550781,-0.632812 -0.591518,-0.246377 -0.886189,-0.36931 -1.042969,-0.429688 -0.07839,-0.03019 -0.118821,-0.04594 -0.166015,-0.05469 -0.04719,-0.0087 -0.134298,0.01713 -0.142578,0.02148 0.0156,-0.0082 -0.0077,0.0012 -0.0293,0.0098 -0.02156,0.0085 -0.0507,0.02188 -0.08594,0.03516 -0.07049,0.02656 -0.163352,0.05929 -0.259765,0.09375 -0.09921,0.03546 -0.198554,0.07434 -0.28125,0.107422 -0.0827,0.03308 -0.140184,0.05526 -0.185547,0.08008 -0.03169,0.01734 -0.05518,0.03475 -0.09766,0.06445 -0.04248,0.0297 -0.09551,0.06762 -0.158204,0.113282 -0.125383,0.09132 -0.285372,0.211258 -0.449218,0.335937 -0.162827,0.123903 -0.31809,0.241943 -0.4375,0.332031 -0.119411,0.09009 -0.211227,0.158225 -0.216797,0.16211 -0.03743,0.0261 -0.05008,0.02556 -0.05859,0.02734 0.0014,-0.0035 0.0012,-0.0046 0.01367,-0.0293 0.0014,-0.0027 0.08129,-0.132136 0.179687,-0.28125 0.0984,-0.149113 0.223348,-0.337794 0.34961,-0.523437 0.126261,-0.185643 0.253905,-0.369689 0.353515,-0.511719 0.04981,-0.07101 0.09253,-0.131284 0.125,-0.175781 0.03247,-0.0445 0.06546,-0.08338 0.05273,-0.07031 -0.0064,0.0066 0.04247,-0.03177 0.111328,-0.07031 0.06886,-0.03854 0.163868,-0.08582 0.277344,-0.138672 0.293407,-0.136658 0.3603,-0.160289 0.441406,-0.166016 z m 1.044922,1.767579 c 0.112113,-0.0026 0.119723,0.0048 0.136718,0.01367 0.01157,0.01084 0.02928,0.02681 0.05078,0.04883 0.043,0.04404 0.101144,0.106976 0.169922,0.18164 0.137555,0.149329 0.315541,0.346885 0.492187,0.546875 0.176646,0.199991 0.352943,0.402858 0.488281,0.5625 0.06767,0.07982 0.124354,0.149318 0.166016,0.201172 0.04166,0.05185 0.075,0.106099 0.0625,0.08203 -0.0076,-0.01469 0.0058,0.01112 0.01563,0.05469 0.0098,0.04357 0.02184,0.109509 0.03711,0.199219 0.03055,0.179419 0.07161,0.455412 0.13086,0.867187 0.02155,0.149818 0.04385,0.295627 0.0625,0.410156 0.01865,0.11453 0.02765,0.179093 0.04297,0.234375 0.01641,0.05922 0.03268,0.07422 0.05664,0.113282 0.02397,0.03906 0.05535,0.08666 0.09375,0.142578 0.0768,0.111835 0.180486,0.256741 0.304688,0.421875 0.18321,0.243592 0.285447,0.381647 0.335937,0.458984 0.05049,0.07734 0.04102,0.06306 0.04102,0.07422 0,0.02989 -0.0033,0.03552 -0.0098,0.04297 -0.03097,0.03565 0.0078,0.01993 -0.02539,0.01563 -0.03317,-0.0043 -0.135099,-0.04098 -0.304688,-0.121094 -0.171063,-0.0808 -0.36108,-0.167546 -0.435547,-0.199219 h -0.002 l -0.119141,-0.05273 a 0.15529069,0.15529069 0 0 0 -0.0957,-0.0098 L 30.0625,25.382812 c -0.316324,0.06862 -0.502252,0.106859 -0.609375,0.119141 -0.107123,0.01228 -0.110947,0.0055 -0.136719,-0.0078 0.0084,0.0044 -0.0269,-0.0143 -0.06641,-0.03906 -0.03951,-0.02477 -0.09408,-0.05976 -0.15625,-0.09961 -0.124349,-0.07969 -0.283536,-0.182408 -0.447266,-0.289063 -0.327459,-0.213309 -0.674665,-0.443207 -0.751953,-0.498047 -0.07291,-0.05174 -0.104859,-0.09467 -0.109375,-0.105468 0.0017,0.0041 -0.04717,-0.130015 -0.105468,-0.298829 -0.0583,-0.168813 -0.134136,-0.389729 -0.212891,-0.623046 -0.07887,-0.233669 -0.150392,-0.448227 -0.203125,-0.603516 -0.02637,-0.07765 -0.04725,-0.139324 -0.0625,-0.183594 -0.0076,-0.02214 -0.01507,-0.04015 -0.01953,-0.05273 -0.0022,-0.0063 -0.0022,-0.01095 -0.0039,-0.01563 -8.72e-4,-0.0023 -0.0025,-0.0043 -0.0039,-0.0078 -7.22e-4,-0.0018 -0.0038,-0.0076 -0.0039,-0.0078 -5.4e-5,-1.16e-4 -0.0039,-0.01165 -0.0039,-0.01172 -2e-5,-3.5e-5 -0.136719,0.07617 -0.136719,0.07617 0,0 0.117187,-0.101563 0.117187,-0.101563 a 0.15529069,0.15529069 0 0 0 -0.0078,-0.0078 c 0,0 -0.04683,-0.03319 -0.04687,-0.0332 -8e-5,-3.5e-5 -0.01354,-0.0039 -0.01367,-0.0039 -2.71e-4,-9.3e-5 -0.0058,-0.0033 -0.0078,-0.0039 -0.0041,-0.0011 -0.007,-0.0013 -0.0098,-0.002 -0.0055,-0.0013 -0.01201,-0.0022 -0.01953,-0.0039 -0.01505,-0.0034 -0.03581,-0.0079 -0.0625,-0.01367 -0.05337,-0.01148 -0.128847,-0.02915 -0.222657,-0.04883 -0.187619,-0.03935 -0.445961,-0.09221 -0.728515,-0.150391 -0.281983,-0.05807 -0.545522,-0.113501 -0.744141,-0.15625 -0.09931,-0.02137 -0.182114,-0.03922 -0.242187,-0.05273 -0.06007,-0.01352 -0.115678,-0.02998 -0.0957,-0.02344 -0.03318,-0.01088 -0.03571,-0.07862 0.01367,-0.103515 0.0047,-0.0024 0.06593,-0.02943 0.154297,-0.06445 0.08836,-0.03503 0.210298,-0.08228 0.363281,-0.140625 0.305968,-0.116692 0.737057,-0.276857 1.275391,-0.476563 0.723996,-0.26858 0.631742,-0.249853 1.548828,-0.333984 0.347377,-0.03187 0.548777,-0.0481 0.664063,-0.05078 z" /><path
       id="path180"
       style="fill:#ffffff;stroke-width:0.0441942"
       transform="matrix(0.26458333,0,0,0.26458333,-271.46249,-218.81041)"
       d="m 28.705078,22.011719 c -2.88e-4,0 -0.130561,0.02139 -0.130859,0.02148 -2.98e-4,9.8e-5 -0.09344,0.04473 -0.09375,0.04492 -3.07e-4,1.94e-4 -0.05828,0.04463 -0.05859,0.04492 -3.16e-4,2.9e-4 -0.0272,0.02733 -0.03711,0.03906 -0.03963,0.04693 -0.05209,0.07383 -0.0625,0.0957 -0.02082,0.04375 -0.02653,0.06671 -0.0332,0.08984 -0.01335,0.04627 -0.02226,0.08681 -0.03125,0.134766 -0.01797,0.09591 -0.03393,0.214699 -0.04883,0.345703 l -0.05078,0.447266 a 0.41533117,0.41533117 0 0 0 0.05273,0.253906 l 0.140624,0.244141 c 0.136028,0.23714 0.343475,0.423146 0.636719,0.560546 0.202169,0.09472 0.324212,0.16993 0.558594,0.171875 0.117191,9.73e-4 0.298665,-0.05548 0.402344,-0.175781 0.103678,-0.1203 0.121142,-0.237358 0.130859,-0.322266 0.01897,-0.165731 -0.0073,-0.239112 -0.03125,-0.351562 -0.0239,-0.11245 -0.05642,-0.23437 -0.09375,-0.355469 -0.03733,-0.121098 -0.07959,-0.239771 -0.123047,-0.345703 -0.04346,-0.105932 -0.0588,-0.178956 -0.173828,-0.308594 -0.119378,-0.134537 -0.249933,-0.229969 -0.400391,-0.345703 -0.07523,-0.05787 -0.148041,-0.112076 -0.21289,-0.15625 -0.03242,-0.02209 -0.06134,-0.04086 -0.0957,-0.06055 -0.01718,-0.0098 -0.03436,-0.02087 -0.0625,-0.0332 -0.01407,-0.0062 -0.03112,-0.01191 -0.05664,-0.01953 -0.01276,-0.0038 -0.02718,-0.0081 -0.04687,-0.01172 -0.01969,-0.0036 -0.07735,-0.0078 -0.07813,-0.0078 z" /><path
       style="fill:#05243c;fill-opacity:1;stroke-width:0.00507999"
       d="m -267.44414,-209.5927 c -0.007,-0.002 -0.28468,-0.14101 -0.41796,-0.20839 -0.0693,-0.0351 -0.0766,-0.0558 -0.0469,-0.13353 0.0101,-0.0265 0.0273,-0.0723 0.0382,-0.1016 0.0109,-0.0293 0.0277,-0.0739 0.0375,-0.0991 0.01,-0.0251 0.0294,-0.0764 0.0437,-0.11382 0.0282,-0.074 0.0401,-0.0945 0.0574,-0.0999 0.006,-0.002 0.0433,-0.0189 0.0824,-0.0378 0.0391,-0.0189 0.10084,-0.0486 0.13716,-0.066 0.11581,-0.0555 0.22302,-0.10731 0.23943,-0.11559 l 0.0159,-0.008 -0.0134,-0.0111 c -0.007,-0.006 -0.0294,-0.021 -0.0489,-0.033 -0.0196,-0.0121 -0.0401,-0.0259 -0.0457,-0.0307 -0.006,-0.005 -0.0307,-0.0218 -0.0559,-0.0377 -0.0907,-0.0575 -0.10138,-0.0661 -0.23099,-0.18592 -0.035,-0.0324 -0.0901,-0.0827 -0.12253,-0.11176 -0.12429,-0.1117 -0.25725,-0.23275 -0.28461,-0.25911 l -0.0285,-0.0275 -0.0336,-0.1016 c -0.0184,-0.0559 -0.0933,-0.27876 -0.16635,-0.4953 -0.15907,-0.47159 -0.16004,-0.47457 -0.17019,-0.52304 -0.004,-0.0211 -0.0147,-0.0703 -0.0229,-0.10942 -0.008,-0.0391 -0.0194,-0.0928 -0.0248,-0.11938 -0.005,-0.0265 -0.0169,-0.0814 -0.0254,-0.12192 -0.009,-0.0405 -0.0199,-0.0954 -0.0254,-0.12192 -0.005,-0.0265 -0.0169,-0.0814 -0.0254,-0.12192 -0.009,-0.0405 -0.0177,-0.084 -0.0203,-0.0965 -0.003,-0.0126 -0.008,-0.0389 -0.0127,-0.0584 -0.0154,-0.0695 -0.0178,-0.085 -0.0147,-0.0983 0.003,-0.0141 0.0535,-0.13405 0.14212,-0.33946 0.0291,-0.0675 0.0562,-0.13182 0.06,-0.14284 0.004,-0.011 0.009,-0.0243 0.0124,-0.0296 0.003,-0.005 0.025,-0.0564 0.049,-0.1137 0.024,-0.0573 0.0468,-0.111 0.0507,-0.11938 0.0152,-0.033 0.11436,-0.26564 0.11436,-0.26818 0,-0.002 0.22268,-0.50738 0.25251,-0.57256 0.007,-0.0154 0.0171,-0.0376 0.0224,-0.0495 0.0139,-0.0314 0.0285,-0.0643 0.0395,-0.0889 0.005,-0.0119 0.0197,-0.0433 0.0321,-0.0698 0.0124,-0.0265 0.0349,-0.0766 0.0501,-0.11118 0.0165,-0.0377 0.0321,-0.0659 0.0388,-0.0703 0.0142,-0.009 0.0404,-0.0129 0.25956,-0.0348 0.1468,-0.0147 0.18257,-0.0169 0.19718,-0.0121 0.0146,0.005 0.0458,0.0393 0.17118,0.18896 0.0843,0.10069 0.20341,0.24277 0.26459,0.31573 0.0612,0.073 0.11536,0.14185 0.12038,0.1531 0.005,0.012 0.0106,0.0403 0.0126,0.0686 0.002,0.0265 0.005,0.051 0.007,0.0545 0.002,0.004 0.0209,-0.0152 0.0514,-0.0526 0.0622,-0.0763 0.15681,-0.19244 0.24616,-0.30195 0.0391,-0.0479 0.078,-0.0929 0.0864,-0.0999 0.008,-0.007 0.0371,-0.0336 0.0638,-0.0592 0.054,-0.0516 0.0713,-0.0678 0.17753,-0.16565 0.0405,-0.0373 0.0925,-0.0859 0.11561,-0.10797 0.0231,-0.0221 0.0523,-0.0447 0.0649,-0.0503 l 0.0229,-0.0102 0.0875,0.0103 c 0.0481,0.006 0.1298,0.0151 0.18149,0.0209 0.20341,0.0228 0.21256,0.0252 0.22682,0.0593 0.008,0.0195 0.006,0.0276 -0.0947,0.35965 -0.0491,0.16183 -0.061,0.20202 -0.061,0.20582 0,0.004 0.027,-0.003 0.10922,-0.0281 0.0251,-0.008 0.0594,-0.0179 0.0762,-0.0228 0.0168,-0.005 0.0799,-0.024 0.14024,-0.0423 l 0.10975,-0.0333 0.52341,-0.0207 c 0.28788,-0.0114 0.52767,-0.0191 0.53287,-0.0173 0.005,0.002 0.20562,0.0899 0.44538,0.19564 0.23975,0.10571 0.43734,0.19221 0.43908,0.19221 0.002,0 0.013,0.005 0.0251,0.0102 0.0121,0.006 0.0322,0.0147 0.0448,0.0203 0.0126,0.006 0.0326,0.0146 0.0445,0.0199 0.0119,0.005 0.0353,0.0155 0.0521,0.0224 0.049,0.0204 0.0965,0.0488 0.13855,0.0829 0.0216,0.0175 0.0616,0.0496 0.0889,0.0714 0.0273,0.0218 0.0639,0.051 0.0813,0.065 0.0174,0.014 0.0453,0.0357 0.0621,0.0483 0.0168,0.0125 0.0502,0.0388 0.0743,0.0583 0.0241,0.0196 0.0626,0.0504 0.0856,0.0686 0.023,0.0182 0.0562,0.0444 0.0738,0.0584 0.0176,0.014 0.0427,0.0334 0.0557,0.0432 0.0592,0.0444 0.0589,0.044 0.11198,0.18288 0.0101,0.0265 0.0329,0.0848 0.0507,0.12954 0.0177,0.0447 0.0405,0.103 0.0506,0.12954 0.0101,0.0265 0.0251,0.0643 0.0332,0.0838 0.008,0.0196 0.0231,0.0573 0.0332,0.0838 0.0101,0.0265 0.0329,0.0848 0.0506,0.12954 0.0177,0.0447 0.0405,0.103 0.0506,0.12954 0.0101,0.0265 0.0251,0.0643 0.0332,0.0838 0.008,0.0196 0.029,0.0721 0.0462,0.11684 0.0173,0.0447 0.0412,0.10562 0.0532,0.13536 0.012,0.0297 0.0254,0.0709 0.0297,0.0914 0.004,0.0206 0.0103,0.0461 0.0134,0.0568 0.003,0.0107 0.009,0.0335 0.0124,0.0508 0.004,0.0172 0.0359,0.15137 0.0713,0.29805 0.0354,0.14669 0.0665,0.27694 0.069,0.28945 0.003,0.0125 0.009,0.0399 0.0144,0.061 0.0352,0.13815 0.0466,0.19324 0.0428,0.20573 -0.004,0.0132 -0.0667,0.11886 -0.0784,0.1322 -0.005,0.006 -0.0356,0.0547 -0.0683,0.10922 -0.0326,0.0545 -0.0634,0.10363 -0.0683,0.10922 -0.005,0.006 -0.0287,0.0433 -0.0528,0.0838 l -0.0438,0.0737 -0.34425,0.34377 c -0.3212,0.32076 -0.34594,0.34428 -0.36964,0.35141 -0.014,0.004 -0.0688,0.0229 -0.12192,0.0415 -0.0531,0.0186 -0.10566,0.0369 -0.11684,0.0406 -0.0363,0.0121 -0.23835,0.0826 -0.25328,0.0884 -0.008,0.003 -0.0491,0.0124 -0.0914,0.0207 -0.0423,0.008 -0.0884,0.0174 -0.10232,0.0203 -0.029,0.006 -0.13416,0.0264 -0.27432,0.0531 -0.0531,0.0101 -0.10566,0.0205 -0.11684,0.0231 -0.0112,0.003 -0.0637,0.0129 -0.11684,0.0229 -0.0531,0.01 -0.11709,0.0226 -0.14224,0.0279 -0.0251,0.005 -0.0892,0.0179 -0.14224,0.0279 -0.0531,0.01 -0.10566,0.0203 -0.11684,0.0229 -0.0112,0.003 -0.0584,0.012 -0.10492,0.0209 l -0.0846,0.0162 -0.0201,-0.01 c -0.02,-0.01 -0.0233,-0.01 -0.63592,0.004 l -0.61582,0.014 -0.0974,0.0326 c -0.11373,0.0381 -0.6609,0.2182 -0.74252,0.24434 -0.0371,0.0119 -0.0781,0.0205 -0.12192,0.0257 -0.0363,0.004 -0.0958,0.0113 -0.13208,0.0155 -0.0363,0.004 -0.14033,0.0167 -0.23114,0.0277 -0.0908,0.011 -0.18453,0.0222 -0.20828,0.0249 -0.0238,0.003 -0.0827,0.01 -0.1311,0.0154 -0.0943,0.0111 -0.0912,0.0109 -0.10258,0.007 z m 0.14919,-0.12357 c 0.14561,-0.0175 0.22934,-0.0276 0.31309,-0.0378 0.0321,-0.004 0.13157,-0.0155 0.22098,-0.0256 0.0949,-0.0108 0.17632,-0.0227 0.19558,-0.0285 0.0182,-0.005 0.1679,-0.0544 0.33274,-0.10869 0.16485,-0.0543 0.34544,-0.11372 0.40132,-0.13208 0.0833,-0.0274 0.1048,-0.0364 0.11938,-0.0502 0.01,-0.009 0.1458,-0.0929 0.30226,-0.18589 0.15647,-0.093 0.32063,-0.191 0.36482,-0.21786 0.32636,-0.19838 0.72948,-0.43805 0.75111,-0.44657 0.0169,-0.007 0.0204,-0.006 0.0381,0.002 0.0148,0.007 0.0212,0.0145 0.0266,0.0303 0.007,0.0188 0.006,0.0225 -0.003,0.0404 -0.009,0.0178 -0.0256,0.0292 -0.17255,0.11642 -0.0896,0.0532 -0.28958,0.17196 -0.4445,0.26395 -0.15491,0.092 -0.28623,0.17105 -0.29182,0.17569 -0.006,0.005 -0.0886,0.0551 -0.18446,0.11216 l -0.1743,0.1037 0.0295,0.001 c 0.0162,8.1e-4 0.27695,-0.004 0.57937,-0.0113 0.30242,-0.007 0.55307,-0.0115 0.557,-0.01 0.006,0.002 0.10983,-0.0166 0.33587,-0.0614 0.0335,-0.007 0.13297,-0.026 0.22098,-0.043 0.088,-0.017 0.17602,-0.0342 0.19558,-0.0382 0.0196,-0.004 0.11329,-0.0223 0.20828,-0.0406 0.21459,-0.0414 0.20411,-0.0387 0.34798,-0.0888 0.0657,-0.0229 0.13538,-0.047 0.15494,-0.0536 0.0196,-0.007 0.0756,-0.0259 0.12446,-0.0429 l 0.0889,-0.0308 0.13462,-0.13502 c 0.074,-0.0743 0.13005,-0.13374 0.12446,-0.13217 -0.006,0.002 -0.13315,0.0306 -0.28347,0.0644 l -0.27332,0.0616 -0.65229,-0.19347 c -0.51826,-0.15371 -0.65812,-0.19346 -0.68069,-0.19346 -0.0241,0 -0.0998,-0.0102 -0.26161,-0.0352 -0.0182,-0.003 -0.089,-0.0133 -0.15748,-0.0233 -0.18419,-0.0269 -0.39374,-0.0578 -0.43534,-0.0642 -0.0436,-0.007 -0.0564,-0.0175 -0.0633,-0.0535 -0.004,-0.0226 -0.0292,-0.16269 -0.0655,-0.3691 -0.008,-0.0471 -0.015,-0.0918 -0.015,-0.0994 0,-0.0218 0.0102,-0.0289 0.13462,-0.0945 0.0251,-0.0132 0.0571,-0.0303 0.0711,-0.0379 0.014,-0.008 0.0437,-0.0236 0.066,-0.0356 0.0224,-0.012 0.0498,-0.0268 0.061,-0.0329 0.13358,-0.073 0.17582,-0.0941 0.18874,-0.0941 0.008,0 0.0274,0.003 0.0426,0.007 0.0284,0.007 0.40471,0.098 0.57384,0.13813 0.19375,0.046 0.18095,0.0415 0.32832,0.11656 0.0751,0.0383 0.15708,0.0804 0.18222,0.0937 0.0251,0.0133 0.0914,0.0476 0.14732,0.0762 0.26108,0.13369 0.31024,0.1591 0.31512,0.16293 0.004,0.003 0.38306,0.11354 0.64404,0.18742 l 0.0498,0.0141 0.13558,-0.0478 c 0.0746,-0.0263 0.20416,-0.072 0.28798,-0.10157 0.0838,-0.0296 0.16501,-0.0582 0.18042,-0.0635 0.0268,-0.009 0.0293,-0.0118 0.0584,-0.0579 0.0892,-0.1412 0.10846,-0.17311 0.10878,-0.18064 2.9e-4,-0.007 -0.17112,-0.73272 -0.20009,-0.84772 -0.004,-0.0154 -0.0108,-0.0439 -0.0154,-0.0635 -0.005,-0.0196 -0.0165,-0.0561 -0.0264,-0.0813 -0.01,-0.0251 -0.0232,-0.0594 -0.0296,-0.0762 -0.006,-0.0168 -0.0207,-0.0533 -0.0318,-0.0813 -0.0294,-0.074 -0.0519,-0.13131 -0.0901,-0.2286 -0.0186,-0.0475 -0.043,-0.10922 -0.0541,-0.13716 -0.0112,-0.0279 -0.0255,-0.0645 -0.032,-0.0813 -0.006,-0.0168 -0.0198,-0.0511 -0.0297,-0.0762 -0.01,-0.0251 -0.0333,-0.0846 -0.0519,-0.13208 -0.0186,-0.0475 -0.0425,-0.10807 -0.0531,-0.13462 -0.0106,-0.0265 -0.0278,-0.07 -0.0382,-0.0965 -0.0104,-0.0265 -0.0223,-0.0564 -0.0264,-0.0664 -0.004,-0.0104 -0.0185,-0.0267 -0.033,-0.0381 -0.014,-0.0109 -0.0399,-0.0313 -0.0574,-0.0453 -0.0175,-0.014 -0.0495,-0.0391 -0.0711,-0.0559 -0.0215,-0.0168 -0.0548,-0.043 -0.0738,-0.0584 -0.019,-0.0154 -0.0522,-0.0417 -0.0738,-0.0584 -0.0216,-0.0168 -0.0535,-0.0419 -0.0711,-0.0559 -0.0175,-0.014 -0.0667,-0.0528 -0.10918,-0.0864 -0.0425,-0.0335 -0.0879,-0.0696 -0.10086,-0.0801 -0.0226,-0.0184 -0.0375,-0.0266 -0.0909,-0.0497 -0.0133,-0.006 -0.0344,-0.0152 -0.047,-0.021 -0.0126,-0.006 -0.032,-0.0145 -0.0432,-0.0193 -0.0112,-0.005 -0.0306,-0.0135 -0.0432,-0.0192 -0.0126,-0.006 -0.21841,-0.0964 -0.45742,-0.20146 l -0.43456,-0.19104 -0.51286,0.0204 c -0.40483,0.0161 -0.51821,0.0221 -0.53826,0.0283 -0.014,0.004 -0.0437,0.0133 -0.066,0.0199 -0.0223,0.007 -0.0681,0.0203 -0.1016,0.0304 -0.0335,0.0101 -0.0804,0.0242 -0.10414,0.0312 -0.0238,0.007 -0.0489,0.0149 -0.0559,0.0173 -0.0143,0.005 -0.0846,0.026 -0.12756,0.038 -0.0316,0.009 -0.0662,0.0304 -0.25341,0.15755 -0.0699,0.0475 -0.14624,0.0989 -0.16959,0.1143 -0.0233,0.0154 -0.0864,0.0577 -0.14019,0.094 -0.0537,0.0363 -0.11326,0.0763 -0.13224,0.0889 -0.019,0.0126 -0.0784,0.0526 -0.13205,0.0889 -0.11601,0.0786 -0.15261,0.10305 -0.20617,0.13801 -0.0677,0.0442 -0.0762,0.0518 -0.174,0.15657 -0.0521,0.0559 -0.10281,0.10974 -0.11259,0.11977 -0.01,0.01 -0.0475,0.0501 -0.0837,0.089 -0.0647,0.0694 -0.0901,0.0964 -0.17575,0.18716 -0.0235,0.0249 -0.0462,0.049 -0.0504,0.0535 -0.0837,0.0901 -0.22147,0.23732 -0.25686,0.27448 -0.0253,0.0266 -0.0641,0.0678 -0.0863,0.0915 -0.0221,0.0238 -0.0421,0.0445 -0.0444,0.0462 -0.002,0.002 -0.0144,0.0451 -0.027,0.0965 -0.0924,0.37935 -0.0988,0.40284 -0.11372,0.41805 -0.028,0.0285 -0.0802,0.0128 -0.0883,-0.0266 -0.002,-0.008 0.008,-0.0561 0.0221,-0.1151 0.0725,-0.29579 0.0914,-0.37407 0.0915,-0.37979 2.9e-4,-0.0277 0.0463,-0.082 0.26182,-0.30855 0.0199,-0.021 0.0533,-0.0564 0.0742,-0.0787 0.0209,-0.0223 0.0777,-0.0829 0.1263,-0.13462 0.0486,-0.0517 0.10226,-0.10884 0.1193,-0.127 0.017,-0.0182 0.0514,-0.0548 0.0764,-0.0814 0.025,-0.0266 0.0763,-0.0814 0.11402,-0.12179 0.0377,-0.0404 0.0861,-0.0918 0.10751,-0.11421 0.0214,-0.0224 0.0441,-0.0473 0.0503,-0.0553 0.006,-0.008 0.0274,-0.0251 0.047,-0.0381 0.0661,-0.0438 0.10372,-0.0691 0.20159,-0.13535 0.11106,-0.0752 0.15028,-0.10146 0.20366,-0.13639 0.0207,-0.0136 0.0414,-0.0273 0.046,-0.0305 0.0198,-0.0139 0.20636,-0.13999 0.23794,-0.16079 0.0191,-0.0126 0.0785,-0.0526 0.132,-0.0889 0.10383,-0.0705 0.14352,-0.097 0.20415,-0.13667 0.037,-0.0242 0.0384,-0.0258 0.047,-0.0559 0.0135,-0.0471 0.0387,-0.131 0.0436,-0.14527 0.002,-0.007 0.0219,-0.0721 0.0434,-0.14478 0.0214,-0.0726 0.0456,-0.15363 0.0537,-0.17997 0.008,-0.0263 0.0141,-0.0483 0.0135,-0.0489 -6.7e-4,-5.5e-4 -0.0367,-0.005 -0.08,-0.01 -0.0433,-0.005 -0.12332,-0.0139 -0.1778,-0.0202 l -0.0991,-0.0113 -0.0331,0.031 c -0.0978,0.0914 -0.12985,0.12125 -0.27421,0.25535 -0.0545,0.0506 -0.11506,0.11187 -0.13462,0.13613 -0.0196,0.0243 -0.0698,0.086 -0.11176,0.1373 -0.0419,0.0513 -0.10748,0.13166 -0.14572,0.17869 -0.0382,0.047 -0.0896,0.11013 -0.1141,0.14023 -0.0348,0.0427 -0.0486,0.0559 -0.0628,0.0602 -0.0257,0.008 -0.0537,-0.004 -0.0632,-0.0273 -0.004,-0.01 -0.0109,-0.0666 -0.0162,-0.13571 l -0.009,-0.11882 -0.17637,-0.21118 c -0.14825,-0.17751 -0.21068,-0.25206 -0.31118,-0.37163 l -0.011,-0.0131 -0.16232,0.0168 c -0.0893,0.009 -0.16713,0.0169 -0.17299,0.0169 -0.009,1.2e-4 -0.0162,0.0128 -0.0425,0.0725 -0.0175,0.0398 -0.0398,0.0895 -0.0494,0.11049 -0.0242,0.0525 -0.0369,0.0803 -0.0475,0.10414 -0.005,0.0112 -0.0159,0.0352 -0.0243,0.0533 -0.0297,0.0641 -0.25486,0.57498 -0.25486,0.57817 0,0.003 -0.0868,0.20724 -0.10927,0.25749 -0.004,0.008 -0.0267,0.0621 -0.0509,0.11938 -0.0995,0.23489 -0.16122,0.3796 -0.17,0.39878 -0.005,0.0112 -0.0266,0.0608 -0.0477,0.11034 l -0.0384,0.09 0.0102,0.0471 c 0.0199,0.0914 0.0408,0.18965 0.0453,0.21224 0.002,0.0126 0.0139,0.0674 0.0254,0.12192 0.0114,0.0545 0.0229,0.10935 0.0254,0.12192 0.003,0.0126 0.0139,0.0674 0.0253,0.12192 0.0114,0.0545 0.0266,0.12764 0.0337,0.16256 0.0135,0.0661 0.0197,0.0851 0.23087,0.7112 0.0702,0.20815 0.12882,0.38226 0.13022,0.38691 0.002,0.008 0.0591,0.0609 0.20206,0.18918 0.0308,0.0277 0.0572,0.0517 0.0586,0.0533 10e-4,0.002 0.0254,0.0235 0.0533,0.0486 0.0279,0.025 0.0657,0.0593 0.0839,0.0762 0.13885,0.12868 0.14418,0.13292 0.28873,0.22976 0.1356,0.0908 0.14626,0.097 0.15572,0.0901 0.006,-0.004 0.0159,-0.0102 0.0229,-0.0135 0.007,-0.003 0.0798,-0.0622 0.16193,-0.13073 0.36299,-0.30325 0.32755,-0.2717 0.33592,-0.29903 0.002,-0.007 0.0115,-0.033 0.0205,-0.0568 0.009,-0.0238 0.0238,-0.0638 0.0331,-0.0889 0.009,-0.0251 0.024,-0.0652 0.0329,-0.0889 0.009,-0.0238 0.018,-0.0489 0.0203,-0.0559 0.002,-0.007 0.0103,-0.0287 0.0178,-0.0483 0.007,-0.0196 0.0228,-0.0607 0.034,-0.0914 0.0348,-0.095 0.0386,-0.10538 0.0552,-0.14986 0.009,-0.0237 0.0237,-0.0637 0.0329,-0.0889 0.009,-0.0251 0.024,-0.0652 0.0329,-0.0889 0.009,-0.0238 0.018,-0.0489 0.0203,-0.0559 0.002,-0.007 0.01,-0.0276 0.0166,-0.0457 0.0322,-0.0855 0.0487,-0.13042 0.0515,-0.14007 0.002,-0.006 0.01,-0.017 0.018,-0.0248 0.0296,-0.0284 0.0804,-0.012 0.0885,0.0285 0.003,0.0146 1.3e-4,0.0237 -0.0429,0.14018 -0.005,0.0147 -0.0146,0.0398 -0.0205,0.0559 -0.006,0.0161 -0.0138,0.0372 -0.0177,0.047 -0.004,0.01 -0.0186,0.0498 -0.0328,0.0889 -0.0142,0.0391 -0.0301,0.0825 -0.0354,0.0965 -0.005,0.014 -0.0247,0.0665 -0.0432,0.11684 -0.0492,0.13357 -0.0523,0.14196 -0.0639,0.17399 -0.006,0.0161 -0.0138,0.0372 -0.0177,0.047 -0.004,0.01 -0.0186,0.0498 -0.0328,0.0889 -0.0265,0.0729 -0.0296,0.0815 -0.066,0.17825 l -0.0212,0.0563 -0.0691,0.058 c -0.0743,0.0624 -0.15609,0.13048 -0.2008,0.1672 -0.0666,0.0547 -0.24217,0.20413 -0.26771,0.22787 -0.0282,0.0262 -0.0601,0.0435 -0.23622,0.12785 -0.15604,0.0747 -0.19486,0.0935 -0.26924,0.12976 l -0.0762,0.0372 -0.0135,0.0346 c -0.0254,0.0651 -0.0565,0.14633 -0.0678,0.17681 -0.006,0.0168 -0.0195,0.0522 -0.0294,0.0787 -0.01,0.0265 -0.0194,0.054 -0.021,0.061 -0.003,0.0122 0.005,0.0165 0.18635,0.10726 0.10402,0.052 0.18996,0.0949 0.19099,0.0952 10e-4,3.8e-4 0.0593,-0.006 0.12954,-0.0146 z m 4.17897,-2.27415 c -0.004,-0.001 -0.0248,-0.0106 -0.0457,-0.0203 -0.0209,-0.01 -0.0472,-0.0219 -0.0584,-0.0271 -0.0112,-0.005 -0.0428,-0.02 -0.0703,-0.033 -0.0282,-0.0133 -0.0536,-0.0222 -0.0581,-0.0204 -0.007,0.003 -0.052,0.0125 -0.2834,0.0617 -0.0722,0.0153 -0.0644,0.0174 -0.1527,-0.04 -0.0311,-0.0202 -0.0706,-0.0459 -0.0878,-0.0571 -0.0172,-0.0112 -0.0489,-0.0321 -0.0704,-0.0465 -0.0216,-0.0144 -0.0598,-0.039 -0.0849,-0.0547 -0.0712,-0.0443 -0.10074,-0.066 -0.11176,-0.0823 -0.006,-0.008 -0.0453,-0.12121 -0.0884,-0.25103 -0.043,-0.12981 -0.0786,-0.23655 -0.0791,-0.2372 -4.8e-4,-6.5e-4 -0.0464,-0.0104 -0.10213,-0.0217 -0.45971,-0.0934 -0.46247,-0.094 -0.47644,-0.10311 -0.0191,-0.0125 -0.0267,-0.0421 -0.0169,-0.0656 0.009,-0.0206 0.0211,-0.0284 0.0793,-0.0497 0.0612,-0.0224 0.20324,-0.0758 0.23652,-0.089 0.0168,-0.007 0.0533,-0.0205 0.0813,-0.0308 0.0279,-0.0103 0.0657,-0.0244 0.0838,-0.0312 0.0182,-0.007 0.0387,-0.0143 0.0457,-0.0165 0.007,-0.002 0.0344,-0.0125 0.061,-0.0228 0.0849,-0.0329 0.10297,-0.0377 0.16256,-0.0431 0.10304,-0.009 0.27526,-0.0254 0.32952,-0.0306 0.0699,-0.007 0.0779,-0.003 0.13626,0.0639 0.0246,0.0282 0.0768,0.0877 0.11607,0.13208 0.18791,0.21274 0.21992,0.25066 0.22518,0.26675 0.003,0.009 0.0104,0.0492 0.0162,0.0883 0.0169,0.11411 0.0506,0.34344 0.0541,0.36801 0.004,0.0276 0.005,0.0297 0.18621,0.26634 0.0211,0.0276 0.0397,0.0565 0.0414,0.0643 0.008,0.0376 -0.0329,0.075 -0.0686,0.0625 z m -0.49781,-0.44183 c 0.015,-0.0126 0.0159,-0.0152 0.0136,-0.0394 -0.003,-0.0328 -0.0229,-0.11836 -0.0312,-0.13508 -0.006,-0.0113 -0.0202,-0.0544 -0.0336,-0.0994 -0.003,-0.009 -0.005,-0.0193 -0.005,-0.0239 0,-0.007 -0.0349,-0.0386 -0.0908,-0.0812 -0.0101,-0.008 -0.0264,-0.0211 -0.0362,-0.0297 -0.01,-0.009 -0.0259,-0.0199 -0.0359,-0.025 -0.01,-0.005 -0.0211,-0.0129 -0.0248,-0.0173 -0.004,-0.004 -0.01,-0.008 -0.013,-0.008 -0.008,0 -0.0178,0.0371 -0.0177,0.0645 0,0.0106 -0.005,0.0575 -0.0106,0.10416 l -0.0107,0.0848 0.03,0.0524 c 0.0165,0.0288 0.0315,0.0562 0.0333,0.061 0.004,0.0108 0.0431,0.0395 0.054,0.0397 0.004,8e-5 0.0126,0.004 0.018,0.008 0.005,0.004 0.0129,0.007 0.0166,0.007 0.004,0 0.0221,0.007 0.0409,0.0162 0.0514,0.0243 0.0742,0.034 0.0808,0.0343 0.003,1.5e-4 0.0132,-0.006 0.022,-0.0132 z m -0.99482,-0.75009 c -0.007,-0.007 -0.0111,-0.0183 -0.0111,-0.0283 0,-0.0163 0.0176,-0.0438 0.17712,-0.27746 0.021,-0.0307 0.0566,-0.0833 0.0791,-0.11684 0.0403,-0.06 0.0416,-0.0613 0.0791,-0.08 0.0864,-0.0432 0.1813,-0.0862 0.19558,-0.0885 0.008,-0.001 0.0633,0.003 0.12192,0.0107 0.0587,0.007 0.1284,0.0157 0.15494,0.0186 0.0534,0.006 0.0666,0.0109 0.10479,0.0388 0.08,0.0586 0.13368,0.0975 0.1589,0.11524 0.0156,0.011 0.0391,0.0281 0.0521,0.0381 0.013,0.01 0.0388,0.029 0.0571,0.0423 0.0651,0.047 0.10064,0.0728 0.14527,0.10541 0.0248,0.0182 0.0596,0.0433 0.0771,0.0559 0.0557,0.0398 0.0752,0.0602 0.0752,0.0785 0,0.021 -0.0179,0.0383 -0.0396,0.0383 -0.0141,0 -0.0641,-0.0173 -0.1103,-0.0382 -0.0282,-0.0128 -0.23634,-0.099 -0.23889,-0.099 -10e-4,0 -0.0122,-0.004 -0.024,-0.01 -0.0118,-0.005 -0.0364,-0.0159 -0.0546,-0.0233 -0.0182,-0.007 -0.0399,-0.0165 -0.0483,-0.0202 -0.0309,-0.0137 -0.1397,-0.0583 -0.14207,-0.0583 -0.001,0 -0.0168,-0.006 -0.0343,-0.0144 -0.0175,-0.008 -0.0456,-0.0198 -0.0624,-0.0264 -0.0168,-0.007 -0.0359,-0.0149 -0.0426,-0.0183 -0.01,-0.005 -0.0142,-0.005 -0.023,8.8e-4 -0.006,0.004 -0.0586,0.0235 -0.11685,0.0435 -0.0841,0.0288 -0.11137,0.0405 -0.13195,0.0564 -0.0274,0.0212 -0.0927,0.0706 -0.11602,0.0878 -0.008,0.006 -0.0419,0.0318 -0.0762,0.0581 -0.15901,0.12202 -0.15951,0.12236 -0.17775,0.12236 -0.0116,0 -0.0211,-0.004 -0.0285,-0.0118 z"
       id="path179" /></g></svg>
