<?xml version="1.0" encoding="UTF-8" standalone="no"?>
<!-- Created with Inkscape (http://www.inkscape.org/) -->

<svg
   width="800"
   height="800"
   viewBox="0 0 211.66667 211.66667"
   version="1.1"
   id="svg5"
   xml:space="preserve"
   inkscape:version="1.2.2 (b0a8486541, 2022-12-01)"
   sodipodi:docname="800x800.svg"
   inkscape:export-filename="finished/800x800.png"
   inkscape:export-xdpi="96"
   inkscape:export-ydpi="96"
   xmlns:inkscape="http://www.inkscape.org/namespaces/inkscape"
   xmlns:sodipodi="http://sodipodi.sourceforge.net/DTD/sodipodi-0.dtd"
   xmlns="http://www.w3.org/2000/svg"
   xmlns:svg="http://www.w3.org/2000/svg"><sodipodi:namedview
     id="namedview7"
     pagecolor="#ffffff"
     bordercolor="#000000"
     borderopacity="0.25"
     inkscape:showpageshadow="2"
     inkscape:pageopacity="0.0"
     inkscape:pagecheckerboard="0"
     inkscape:deskcolor="#d1d1d1"
     inkscape:document-units="mm"
     showgrid="false"
     inkscape:lockguides="true"
     inkscape:zoom="0.35355339"
     inkscape:cx="694.37886"
     inkscape:cy="1144.0988"
     inkscape:window-width="1920"
     inkscape:window-height="1020"
     inkscape:window-x="0"
     inkscape:window-y="0"
     inkscape:window-maximized="1"
     inkscape:current-layer="layer1" /><defs
     id="defs2" /><g
     inkscape:label="Layer 1"
     inkscape:groupmode="layer"
     id="layer1"
     transform="translate(271.46249,218.81041)"><path
       id="path184"
       style="fill:#ffffff;stroke-width:0.5"
       transform="matrix(0.26458333,0,0,0.26458333,-271.46249,-218.81041)"
       d="m 352.16797,224.32422 c -2.37236,0.11598 -6.97006,4.83981 -5.25391,3.46875 -2.05188,1.78931 -4.7486,4.22198 -7.61718,6.86133 -5.73718,5.27868 -12.11978,11.34089 -15.36524,14.72851 -1.87647,1.95868 -7.93413,9.24567 -14.07422,16.82813 -6.86755,8.4808 -10.56481,12.99503 -12.65625,15.23242 -1.04572,1.11869 -1.69025,1.6361 -1.93555,1.7832 -0.24529,0.14711 -0.002,0.0781 -0.33398,0.0781 -0.55532,0 -0.64167,-0.0425 -0.62891,-0.0254 -0.011,-0.0312 0.006,-0.001 -0.0156,-0.0566 -0.29656,-0.77339 -0.69814,-3.5595 -1.12891,-8.66016 -0.20683,-2.44918 -0.40909,-4.25555 -0.6582,-5.64648 -0.24911,-1.39094 -0.40214,-2.36505 -1.25195,-3.44532 -0.44087,-0.56042 -2.13274,-2.58289 -4.95117,-5.96289 -2.81844,-3.37999 -6.59108,-7.89586 -10.63868,-12.73437 -6.76083,-8.08192 -10.45819,-12.47254 -12.74414,-14.94532 -1.14297,-1.23638 -1.91742,-2.00119 -2.71679,-2.57812 -0.79938,-0.57693 -1.91564,-0.93836 -2.68555,-0.93164 -2.61404,0.0229 -7.40005,0.51529 -11.80664,1.07617 -2.2033,0.28044 -4.27853,0.57882 -5.88086,0.85352 -0.80117,0.13734 -1.47832,0.26661 -2.03711,0.39843 -0.2794,0.0659 -0.5244,0.12951 -0.78906,0.21875 -0.26466,0.0892 -0.45104,-0.0904 -1.26172,0.76172 -0.59362,0.62393 -0.55148,0.7485 -0.76367,1.13477 -0.2122,0.38627 -0.459,0.86566 -0.75391,1.45898 -0.58982,1.18665 -1.36489,2.81535 -2.30664,4.8418 -1.88351,4.05291 -4.4308,9.68911 -7.41797,16.4043 -5.97433,13.43038 -13.70468,31.16865 -21.34766,49.07226 -5.63491,13.19972 -12.38606,29.01203 -15.0039,35.13477 -1.79188,4.19093 -2.97535,7.07814 -3.71094,9.13281 -0.73559,2.05467 -1.29515,2.99284 -0.9082,4.83203 0.1533,0.72867 2.5466,12.16334 5.31054,25.36328 1.38352,6.60736 2.75634,13.00528 3.85352,18 1.09718,4.99473 1.85779,8.38924 2.23242,9.67969 0.34846,1.20029 1.72008,5.36929 3.77344,11.5625 2.05336,6.19321 4.74378,14.24975 7.57812,22.67969 l 10.30274,30.64258 a 2.4459302,2.4459302 0 0 0 0.67187,1.02929 l 17.05274,15.52344 c 15.40554,14.02358 18.1601,16.29654 26.24805,21.70313 4.32684,2.89238 6.51002,4.36728 8.12304,5.19335 0.80651,0.41304 1.55589,0.72704 2.49024,0.75 0.93434,0.023 1.73807,-0.35492 2.13086,-0.56054 0.44427,-0.23257 0.55895,-0.34674 0.85351,-0.5625 0.29456,-0.21577 0.6518,-0.4868 1.07422,-0.81446 0.84485,-0.65531 1.94929,-1.53429 3.24219,-2.57617 2.5858,-2.08375 5.91629,-4.81409 9.31445,-7.6289 6.79632,-5.62963 13.70081,-11.43704 15.78906,-13.43164 a 2.4459302,2.4459302 0 0 0 0,-0.002 c 0.70038,-0.66897 1.33155,-1.3214 1.82813,-1.88867 0.24829,-0.28363 0.46043,-0.54042 0.6582,-0.8164 0.0989,-0.138 0.19324,-0.27481 0.30469,-0.48243 0.11145,-0.20762 0.33984,-0.37033 0.33984,-1.29297 0,0.81239 -0.0524,0.45748 -0.0234,0.35352 0.029,-0.10396 0.0883,-0.2971 0.16796,-0.54492 0.15938,-0.49565 0.40539,-1.22216 0.72071,-2.12696 0.63064,-1.80958 1.53982,-4.34233 2.63476,-7.34765 2.18989,-6.01064 5.12405,-13.91594 8.08399,-21.80664 2.95994,-7.8907 5.94726,-15.7691 8.24609,-21.72461 1.14942,-2.97776 2.12639,-5.47773 2.83789,-7.2461 0.35575,-0.88418 0.64605,-1.58655 0.84961,-2.05859 0.0409,-0.0949 0.0585,-0.1302 0.0918,-0.20508 0.34667,-0.2992 0.65348,-0.37155 0.95117,-0.25976 0.31168,0.11704 0.47837,0.30604 0.50781,0.77148 -0.0104,0.0383 -0.0126,0.0485 -0.0254,0.0937 -0.0905,0.3201 -0.23934,0.804 -0.43359,1.41016 -0.38852,1.21232 -0.96294,2.92561 -1.6836,5.01953 -1.44131,4.18783 -3.46468,9.90573 -5.77539,16.33203 -4.6214,12.85259 -10.39488,28.54666 -14.98242,40.58594 l -1.42187,3.72851 -12.00782,10.01563 c -6.8816,5.73926 -14.94527,12.52564 -17.97461,15.12695 -5.15149,4.42363 -5.53909,4.63335 -17.23046,10.34571 -6.75801,3.30194 -14.57079,7.07328 -17.28125,8.34374 -2.25601,1.05745 -3.58381,1.68365 -4.67969,2.48243 -1.09588,0.79878 -1.86193,2.06133 -2.17969,3.03515 -0.19388,0.59416 -2.11294,5.76703 -4.05078,10.84375 -1.38352,3.62453 -2.24303,5.98321 -2.73242,7.63086 -0.2447,0.82383 -0.40507,1.45726 -0.47071,2.13281 -0.0656,0.67556 -0.14644,1.71694 0.8418,2.69532 0.57361,0.56787 0.57224,0.44971 0.80078,0.58789 0.22854,0.13818 0.5001,0.2925 0.83008,0.47656 0.65997,0.36812 1.54556,0.84433 2.60742,1.4043 2.12372,1.11993 4.95055,2.57279 7.98828,4.09765 3.22067,1.61669 6.14827,3.00971 8.41016,4.01368 1.13094,0.50198 2.09166,0.90629 2.87109,1.20117 0.38972,0.14743 0.73142,0.26827 1.0586,0.36523 0.32718,0.097 0.5419,0.20468 1.20312,0.20703 0.8057,0.003 1.44436,-0.094 2.90625,-0.24414 1.46287,-0.15018 3.42781,-0.36392 5.73438,-0.62304 4.61314,-0.51824 10.59223,-1.21577 16.60742,-1.9336 6.01519,-0.71783 12.06474,-1.45537 16.81641,-2.05469 4.75166,-0.59931 7.91875,-0.99852 9.1582,-1.24609 0.75861,-0.15152 1.65931,-0.43444 3.29492,-0.93164 1.63562,-0.4972 3.80885,-1.17765 6.375,-1.99219 5.1323,-1.62908 11.8305,-3.79865 18.86719,-6.11914 22.91363,-7.55623 26.27318,-8.7946 29.87695,-11.13476 0.69636,-0.4522 6.32523,-3.87327 14.05859,-8.53516 7.73337,-4.66189 17.74907,-10.68127 27.81446,-16.71875 20.13078,-12.07496 40.67624,-24.34391 43.05859,-25.68945 0.65983,-0.37267 1.42316,-0.73007 2.04297,-0.97071 0.61981,-0.24063 1.3214,-0.30078 0.84375,-0.30078 -0.46899,0 0.0655,0.0626 0.42578,0.44531 0.3118,0.33126 0.38471,0.64425 0.41406,0.57813 -0.0232,0.0282 -0.007,0.005 -0.0469,0.0527 -0.27051,0.32243 -0.94766,0.94426 -2.10156,1.78321 -2.30782,1.67789 -6.48127,4.2626 -13.33985,8.32812 -12.75171,7.55878 -28.41343,16.9377 -40.87304,24.45117 -6.22981,3.75674 -11.65814,7.0473 -15.52539,9.41211 -1.93363,1.18241 -3.47549,2.13143 -4.54102,2.79883 -0.53276,0.3337 -0.94365,0.59517 -1.24219,0.79102 -0.14927,0.0979 -0.26598,0.17557 -0.38867,0.26367 -0.0613,0.044 -0.11455,0.0793 -0.23633,0.18359 -0.0609,0.0521 -0.13043,0.0996 -0.30859,0.31446 -0.0891,0.10745 -0.39009,0.65296 -0.39063,0.65429 -5.3e-4,10e-4 0.45448,2.55403 0.45508,2.55469 a 2.4459302,2.4459302 0 0 0 0.002,0 c 3.3e-4,3.6e-4 0.70044,0.54517 0.87305,0.61719 0.17262,0.072 0.27135,0.0976 0.34961,0.11719 0.15653,0.0393 0.22538,0.045 0.2832,0.0527 0.11565,0.0154 0.16429,0.0185 0.2129,0.0215 0.0972,0.006 0.16524,0.006 0.24804,0.008 0.1656,0.003 0.36831,0.006 0.62891,0.006 0.5212,-1.5e-4 1.2644,-0.007 2.21484,-0.0176 1.90088,-0.0218 4.62844,-0.0639 7.98828,-0.12305 6.71969,-0.11832 15.96287,-0.30398 26.11133,-0.5293 l 36.89258,-0.81836 a 2.4459302,2.4459302 0 0 0 0.4043,-0.043 l 7.77343,-1.48828 c 13.52301,-2.58773 28.48645,-5.50526 40.47071,-7.87696 11.98425,-2.3717 20.67795,-4.11598 22.69531,-4.62695 2.49886,-0.63294 10.44886,-3.25959 18.45117,-6.03125 l 14.5,-5.02344 a 2.4459302,2.4459302 0 0 0 0.93164,-0.58398 l 7.71289,-7.74024 c 2.13594,-2.14367 4.0494,-4.11811 5.42969,-5.59375 0.69014,-0.73781 1.24329,-1.3465 1.64844,-1.81836 0.20257,-0.23593 0.36285,-0.429 0.52344,-0.64843 0.0803,-0.10972 0.15777,-0.20731 0.2832,-0.44532 0.0627,-0.119 0.14832,-0.25627 0.23437,-0.62109 0.0861,-0.36482 0.28524,-1.3729 -0.65429,-2.3125 -5.3e-4,-5.2e-4 -0.30368,-0.26442 -0.4336,-0.3457 -0.12991,-0.0813 -0.24197,-0.13601 -0.33984,-0.17774 -0.19574,-0.0835 -0.33462,-0.11841 -0.44531,-0.14258 -0.22138,-0.0483 -0.3382,-0.0523 -0.4336,-0.0566 -0.19079,-0.009 -0.28211,0.001 -0.36914,0.008 -0.17405,0.0129 -0.301,0.0308 -0.45117,0.0527 -0.30033,0.0438 -0.66154,0.10651 -1.11719,0.19141 -0.91129,0.16978 -2.17523,0.42412 -3.72265,0.74804 -3.09486,0.64785 -7.31216,1.57153 -11.92188,2.61719 l -16.09961,3.65039 -32.38476,-9.5957 c -42.75929,-12.6689 -48.54091,-14.30149 -53.50782,-14.91797 -5.12091,-0.63559 -18.28837,-2.54609 -30.26367,-4.34766 -5.98765,-0.90078 -11.6875,-1.77471 -15.95703,-2.45117 -2.13477,-0.33823 -3.91475,-0.62753 -5.18359,-0.84375 -0.63442,-0.10811 -1.14152,-0.19929 -1.49024,-0.26562 -0.34871,-0.0663 -0.87863,-0.26465 -0.27148,-0.0332 -0.0617,-0.0235 -0.27759,-0.17491 -0.39453,-0.54297 0.002,0.006 -0.21058,-0.85725 -0.46289,-2.13281 -0.25232,-1.27555 -0.59168,-3.08476 -1.02344,-5.4707 -0.86352,-4.77189 -2.10179,-11.85767 -3.79688,-21.70899 -0.0651,-0.37819 -0.0205,-0.42298 -0.0508,-0.32031 -0.0302,0.10267 -0.12954,0.18594 0.043,0.0254 -0.27331,0.25436 -0.0477,0.0422 0.19727,-0.11328 0.24499,-0.15543 0.60847,-0.37425 1.05468,-0.63672 0.89244,-0.52493 2.12783,-1.22753 3.58204,-2.03906 2.9084,-1.62306 6.69663,-3.68624 10.49023,-5.7207 3.7936,-2.03447 7.59467,-4.04238 10.52539,-5.55078 1.46536,-0.75421 2.71602,-1.38401 3.62305,-1.82422 0.42133,-0.20449 0.74797,-0.35682 0.99414,-0.4668 0.35352,0.0603 0.88361,0.16132 1.55078,0.29688 1.34762,0.27381 3.24602,0.68523 5.50781,1.18945 4.52358,1.00844 10.50734,2.39258 16.58203,3.82812 6.07469,1.43555 12.24233,2.92294 17.13867,4.14063 4.89635,1.21769 8.78368,2.26648 9.35352,2.46875 -0.0873,-0.031 0.94159,0.41139 2.20898,1.02148 1.2674,0.61009 2.97246,1.44884 4.98243,2.45117 4.01993,2.00467 9.26624,4.66484 14.75781,7.49219 11.00078,5.66377 21.899,11.26723 24.25781,12.47071 3.66589,1.87035 9.42828,3.70047 25.83399,8.40624 l 21.14843,6.06641 a 2.4459302,2.4459302 0 0 0 1.48438,-0.0449 l 18.85156,-6.62109 c 5.19362,-1.82428 10.04352,-3.56055 13.68359,-4.89454 1.82004,-0.66699 3.33552,-1.23316 4.45118,-1.6621 0.55783,-0.21448 1.01561,-0.39387 1.37304,-0.54102 0.35744,-0.14716 0.44044,-0.13275 0.9668,-0.45703 2.2257,-1.37122 3.42963,-3.6421 7.9375,-11.0625 l 2.33594,-3.84766 a 2.4459302,2.4459302 0 0 0 0.29687,-1.80664 l -1.21484,-5.40234 c -1.63857,-7.2897 -4.71104,-20.2326 -7.49609,-31.73047 -1.39253,-5.74894 -2.71337,-11.13313 -3.7461,-15.26563 -1.03273,-4.1325 -1.68879,-6.76108 -2.05859,-7.8789 -1.2972,-3.92115 -8.29792,-21.77714 -15.21485,-39.19336 -3.45846,-8.70811 -6.86901,-17.22576 -9.4707,-23.63086 -1.30084,-3.20255 -2.39937,-5.87538 -3.20312,-7.78906 -0.40188,-0.95684 -0.72877,-1.72146 -0.97852,-2.28321 -0.12488,-0.28087 -0.22857,-0.50856 -0.32422,-0.70508 -0.0478,-0.0983 -0.0924,-0.18777 -0.15039,-0.29296 -0.058,-0.10519 -0.0295,-0.15409 -0.38672,-0.54883 -0.38979,-0.43072 -0.45762,-0.44093 -0.77539,-0.71094 -0.31777,-0.27001 -0.73809,-0.61961 -1.25781,-1.04687 -1.03944,-0.85453 -2.47244,-2.01584 -4.20313,-3.40821 -3.46137,-2.78472 -8.10946,-6.48819 -13.11328,-10.4414 -13.71897,-10.83853 -19.01128,-14.82519 -22.49804,-16.48633 -2.40042,-1.14359 -17.75673,-7.96597 -34.67383,-15.42188 l -30.75,-13.55078 a 2.4459302,2.4459302 0 0 0 -1.08399,-0.20508 l -13,0.52344 a 2.4459302,2.4459302 0 0 0 -0.002,0 c -16.91546,0.68301 -28.96641,1.18621 -37.08398,1.55274 -8.11757,0.36652 -12.09968,0.5686 -13.59571,0.74023 -1.58573,0.18192 -3.96825,0.82125 -7.25586,1.73828 -3.2876,0.91703 -7.26757,2.10491 -11.20507,3.33203 -3.93751,1.22713 -7.82792,2.4929 -10.93946,3.57032 -1.55577,0.5387 -2.91633,1.02831 -4.00586,1.45117 -1.08952,0.42285 -1.81809,0.70412 -2.53906,1.14062 -1.03924,0.6292 -4.93718,3.21767 -11.02539,7.26758 -6.08821,4.04991 -14.12432,9.41737 -22.64062,15.125 -11.47893,7.69318 -19.43767,13.09536 -24.85352,16.89258 -5.41585,3.79722 -8.21716,5.89038 -9.74024,7.40429 -2.07355,2.06108 -15.10433,15.86639 -29.50585,31.22266 l -26.17774,27.91406 a 2.4459302,2.4459302 0 0 0 -0.5918,1.0918 l -2.95703,12.08594 c -2.44416,9.98872 -3.79131,15.24976 -4.70703,17.61328 -0.45786,1.18176 -0.7959,1.49433 -0.70703,1.42578 0.0889,-0.0686 0.30775,-0.0645 -0.2832,-0.0645 -0.55328,0 -0.64788,-0.11301 -0.69922,-0.16602 -0.0513,-0.053 -0.19141,-0.21485 -0.19141,-0.83203 0,0.3682 0.0705,-0.53528 0.25196,-1.49219 0.18144,-0.9569 0.44908,-2.24584 0.77343,-3.74023 0.64871,-2.98879 1.52822,-6.81107 2.4375,-10.62305 0.90928,-3.81198 1.84936,-7.6166 2.61719,-10.5664 0.38392,-1.47491 0.7241,-2.73814 0.99219,-3.66602 0.26809,-0.92788 0.62967,-1.78151 0.43359,-1.40234 0.19382,-0.3748 0.25147,-0.49977 0.88281,-1.27539 0.63135,-0.77562 1.77793,-2.0782 3.86133,-4.34961 4.16681,-4.54283 12.0845,-12.98079 27.4336,-29.32813 l 26.4082,-28.125 28.67383,-19.27344 c 15.89576,-10.68453 31.24634,-20.98387 34.05078,-22.84765 1.47557,-0.98064 2.86201,-1.99028 3.95508,-2.86524 0.54653,-0.43748 1.01829,-0.83823 1.41601,-1.21679 0.39773,-0.37857 0.69689,-0.46043 1.14258,-1.48047 0.25733,-0.58894 0.44511,-1.20074 0.78906,-2.26953 0.34396,-1.0688 0.77823,-2.45829 1.26953,-4.0625 0.98262,-3.20843 2.19681,-7.27163 3.375,-11.27735 1.1782,-4.00572 2.31788,-7.95033 3.15235,-10.91992 0.41723,-1.48479 0.75817,-2.72334 0.99219,-3.62109 0.117,-0.44888 0.20781,-0.80759 0.27343,-1.10157 0.0328,-0.14699 0.0582,-0.27103 0.084,-0.4375 0.0129,-0.0832 0.0297,-0.16783 0.0371,-0.35546 0.004,-0.0938 0.01,-0.20657 -0.0215,-0.44141 -0.0157,-0.11742 -0.0385,-0.26773 -0.11718,-0.49219 -0.0787,-0.22445 -0.5811,-0.92289 -0.58204,-0.92383 -0.64553,-0.64551 -0.77322,-0.52908 -0.90625,-0.57812 -0.13303,-0.049 -0.20556,-0.0685 -0.27148,-0.0859 -0.13185,-0.0349 -0.22505,-0.0538 -0.32813,-0.0742 -0.20615,-0.0408 -0.43574,-0.0795 -0.7207,-0.125 -0.56992,-0.0911 -1.33883,-0.20274 -2.25781,-0.33008 -1.83796,-0.25467 -4.2702,-0.57057 -6.75781,-0.88086 -2.48762,-0.31028 -5.02837,-0.61318 -7.08008,-0.84374 -2.05171,-0.23057 -3.39847,-0.39021 -4.28711,-0.41016 z m 113.625,95.38672 c 1.2633,-0.008 6.05959,0.42981 10.41406,0.96094 2.17723,0.26556 4.30165,0.55229 5.96289,0.80859 0.83063,0.12815 1.54859,0.24899 2.08008,0.35156 0.53149,0.10257 0.97326,0.23913 0.80664,0.17578 -0.63017,-0.23958 -0.13257,-0.054 0.1543,0.13086 0.28686,0.18485 0.70401,0.46478 1.21679,0.81445 1.02558,0.69936 2.44224,1.68762 4.11329,2.86719 3.34208,2.35915 7.70818,5.48594 12.10156,8.66211 4.39337,3.17617 8.81624,6.40259 12.27344,8.95899 1.72859,1.27819 3.21641,2.38941 4.33203,3.23828 1.11562,0.84886 1.96117,1.53809 1.99804,1.57226 0.69617,0.64519 0.53661,0.99019 0.55274,0.94922 0.0161,-0.041 0.32837,0.0547 -0.43164,-0.0879 0.19614,0.0368 -1.36465,-0.42099 -3.01563,-1.04101 -1.65098,-0.62003 -3.72485,-1.4422 -5.79297,-2.30469 -14.4262,-6.01634 -23.91043,-9.95923 -29.83984,-12.40235 -2.9647,-1.22155 -5.04016,-2.06713 -6.41016,-2.61328 -0.685,-0.27307 -1.18996,-0.47082 -1.5625,-0.60937 -0.18627,-0.0693 -0.33759,-0.12327 -0.48632,-0.17188 -0.0744,-0.0243 -0.14536,-0.0467 -0.25,-0.0742 -0.10465,-0.0275 -0.12609,-0.0918 -0.67969,-0.0918 -0.5675,0 -0.54332,0.056 -0.64453,0.0801 -0.10121,0.0241 -0.17961,0.046 -0.26367,0.0703 -0.16813,0.0486 -0.3537,0.10746 -0.57618,0.17969 -0.44495,0.14444 -1.03088,0.34334 -1.73437,0.58789 -1.40699,0.4891 -3.27427,1.15642 -5.28125,1.89257 l -7.25781,2.66211 a 2.4459302,2.4459302 0 0 0 -0.63477,0.34766 l -11.66016,8.83789 c -4.86456,3.68683 -7.84524,5.88857 -9.67382,7.09961 -1.81523,1.2022 -2.30607,1.23191 -2.17774,1.23242 0.0459,-0.15191 0.1569,-0.52669 0.67969,-1.45117 1.1944,-2.11213 3.90354,-6.14231 9.06641,-13.7168 l 7.99023,-11.72265 6.17773,-3.07422 c 2.90734,-1.44654 4.64356,-2.25528 5.78125,-2.6582 1.1377,-0.40293 1.61714,-0.45468 2.67188,-0.46094 z m 17.30469,29.48437 c 0.52018,0.0163 2.31185,0.55143 2.6875,0.80274 1.46851,1.28383 4.36774,4.57243 10.3457,11.36718 6.02812,6.85177 9.42989,10.77135 11.29297,13.11719 1.86307,2.34584 2.00758,2.80386 2.09375,3.27735 0.10833,0.59529 1.08062,7.00023 2.04297,13.59375 0.96398,6.60484 1.84456,12.54498 2.04492,13.70117 0.16854,0.97245 0.46691,1.38931 0.85547,2.08593 0.38855,0.69663 0.89569,1.50884 1.5332,2.46876 1.27503,1.91983 3.06379,4.4159 5.32422,7.42773 3.62219,4.82624 5.54292,7.56974 6.16797,8.88867 0.31252,0.65947 0.27743,0.82802 0.27929,0.81055 0.002,-0.0175 0.0101,0.059 -0.29882,0.5 -0.0833,0.11892 0.0334,0.006 0.0351,0.006 0.002,-5.7e-4 -0.23446,0.0582 -0.81445,-0.0449 -1.15998,-0.20625 -3.45536,-1.05872 -6.89648,-2.67774 -1.75685,-0.82658 -3.47013,-1.57768 -4.85157,-2.13672 -0.69071,-0.27951 -1.29439,-0.51011 -1.80859,-0.68554 -0.5142,-0.17544 -0.62159,-0.35097 -1.64844,-0.3711 a 2.4459302,2.4459302 0 0 0 -0.002,0 c -0.82815,-0.0161 -0.95941,0.0772 -1.5957,0.18164 -0.6363,0.10445 -1.45399,0.25193 -2.41211,0.4336 -1.91625,0.36332 -4.38995,0.86245 -6.98243,1.41601 -2.54963,0.54441 -5.07951,1.04016 -7.07617,1.39649 -1.99665,0.35632 -3.83948,0.55078 -3.62109,0.55078 -0.20732,0 -2.42016,-0.84148 -11.23828,-6.54492 -5.88446,-3.80599 -12.07081,-7.9016 -13.41016,-8.85938 l -0.002,-0.002 -2.13281,-1.52539 -4.92188,-14.69922 a 2.4459302,2.4459302 0 0 0 0,-0.002 c -1.42282,-4.2497 -2.72117,-8.11904 -3.66797,-10.9336 -0.4734,-1.40728 -0.85759,-2.55003 -1.12695,-3.3457 -0.13468,-0.39784 -0.24033,-0.70931 -0.31445,-0.92578 -0.0371,-0.10824 -0.067,-0.19258 -0.0899,-0.25782 -0.0114,-0.0326 -0.0194,-0.0593 -0.0312,-0.0918 -0.006,-0.0163 -0.0122,-0.0325 -0.0254,-0.0664 -0.007,-0.017 -0.0141,-0.0355 -0.0332,-0.0801 -0.01,-0.0223 -0.0219,-0.0498 -0.0469,-0.10156 -0.0249,-0.0517 -0.18935,-0.32797 -0.18945,-0.32812 -10e-5,-1.5e-4 -0.78481,-0.72637 -0.78516,-0.72657 -3.4e-4,-2e-4 -0.21114,-0.10983 -0.26953,-0.13476 -0.11676,-0.0499 -0.16451,-0.0649 -0.20508,-0.0781 -0.0811,-0.0265 -0.11232,-0.0329 -0.14257,-0.041 -0.0605,-0.0163 -0.098,-0.025 -0.14063,-0.0352 -0.0852,-0.0203 -0.18066,-0.0428 -0.30469,-0.0703 -0.24804,-0.055 -0.59782,-0.1293 -1.04492,-0.22461 -0.8942,-0.19062 -2.17587,-0.46154 -3.75586,-0.79102 -3.15996,-0.65895 -7.50799,-1.55746 -12.28515,-2.53711 -4.76348,-0.97683 -9.24007,-1.92938 -12.59961,-2.67578 -1.67977,-0.37319 -3.08154,-0.69551 -4.08985,-0.93945 -0.50415,-0.12197 -0.91066,-0.22528 -1.18945,-0.30078 -0.27879,-0.0755 -0.57812,-0.20847 -0.23633,-0.0527 -0.11569,-0.0527 -0.27342,-0.23631 -0.28125,-0.72656 -0.008,-0.49025 0.21715,-0.9528 0.50977,-1.14453 -0.35586,0.23317 -0.0223,0.0206 0.2832,-0.11328 0.30551,-0.13389 0.74928,-0.319 1.29688,-0.54297 1.09519,-0.44794 2.61203,-1.05167 4.41015,-1.75391 3.59625,-1.40447 8.31739,-3.20873 13.11328,-5.01953 4.7959,-1.8108 9.67015,-3.62802 13.57227,-5.05469 3.90212,-1.42666 7.02173,-2.51165 7.625,-2.67968 0.23533,-0.0655 2.15617,-0.39902 4.46875,-0.69336 2.31258,-0.29434 5.21127,-0.61918 8.17578,-0.91797 5.92903,-0.59757 12.27967,-1.0918 14.41016,-1.0918 z m -49.73828,3.74414 c -0.12534,-0.22938 0.0316,-0.22136 0,0 z" /><path
       id="path180"
       style="fill:#ffffff;stroke-width:0.5"
       transform="matrix(0.26458333,0,0,0.26458333,-271.46249,-218.81041)"
       d="m 479.08008,368.7168 c -0.44804,-0.0755 -1.04562,-0.17089 -2.02344,0.0352 -0.97781,0.20605 -2.50454,0.99508 -3.33203,2.33399 -1.10806,1.79283 -0.69655,1.66004 -0.79102,2.08594 -0.0945,0.42589 -0.16989,0.85434 -0.24804,1.33789 -0.1563,0.96709 -0.30878,2.12561 -0.43555,3.34765 -0.23327,2.24863 -0.58294,5.49699 -0.77148,7.15235 -0.17476,1.53434 -0.35361,3.14736 0.10351,4.96875 0.45713,1.82138 1.19562,3.02994 2.20117,4.85156 0.62565,1.13339 1.28,2.22335 1.88086,3.14844 0.30043,0.46254 0.58419,0.8801 0.87891,1.27734 0.29472,0.39724 0.40482,0.67529 1.26953,1.40625 0.92684,0.78348 1.10639,0.76993 1.57031,1.02344 0.46393,0.25351 0.99032,0.52177 1.58789,0.8164 1.19514,0.58927 2.66381,1.27444 4.18946,1.94532 1.50094,0.66002 2.92358,1.26065 4.04882,1.71679 0.56263,0.22807 1.04594,0.41872 1.46875,0.57422 0.21141,0.0778 0.40261,0.14646 0.63086,0.21875 0.22825,0.0723 0.12528,0.18868 1.38477,0.27735 2.62026,0.18482 3.0282,-0.59424 3.70703,-1.0293 0.67883,-0.43506 1.22391,-0.90039 1.77539,-1.50977 0.61439,-0.67891 1.87007,-2.99537 1.89844,-4.65039 0.0284,-1.65501 -0.2604,-2.63347 -0.6211,-4.375 -0.50556,-2.44101 -1.51585,-6.0185 -2.43164,-8.70703 -0.39269,-1.15287 -0.75348,-2.28617 -1,-3.12109 -0.12325,-0.41747 -0.21892,-0.76447 -0.26757,-0.95899 -0.0487,-0.19451 0.0332,-0.81924 0.0332,0.60938 0,-2.04414 -0.61644,-2.55616 -0.93164,-3.04883 -0.3152,-0.49267 -0.58378,-0.80761 -0.85742,-1.11719 -0.54728,-0.61915 -1.12063,-1.16776 -1.77735,-1.76367 -1.31343,-1.19182 -2.92802,-2.50675 -4.57422,-3.76758 -1.64619,-1.26083 -3.28834,-2.44265 -4.72265,-3.34961 -0.71716,-0.45348 -1.34262,-0.83237 -2.14649,-1.19336 -0.40193,-0.18049 -0.80118,-0.38415 -1.69726,-0.53515 z" /><path
       style="fill:#05243c;fill-opacity:1;stroke-width:0.0846666"
       d="m -204.48729,-65.186182 c -0.10937,-0.0391 -4.74478,-2.35018 -6.96612,-3.47318 -1.15544,-0.58414 -1.27694,-0.92976 -0.78233,-2.22544 0.16888,-0.44238 0.45528,-1.20438 0.63645,-1.69333 0.18116,-0.48895 0.46201,-1.2319 0.6241,-1.651 0.16209,-0.4191 0.48968,-1.27278 0.72797,-1.89707 0.47071,-1.23322 0.66763,-1.57555 0.95729,-1.66423 0.10357,-0.0317 0.7217,-0.31505 1.37363,-0.62967 0.65194,-0.3146 1.68064,-0.8096 2.286,-1.09998 1.93016,-0.92587 3.717,-1.78854 3.99052,-1.92661 l 0.26517,-0.13385 -0.22284,-0.1851 c -0.12256,-0.10179 -0.48955,-0.34959 -0.81551,-0.55066 -0.32597,-0.20107 -0.66887,-0.43116 -0.762,-0.5113 -0.0931,-0.0802 -0.51223,-0.36315 -0.93134,-0.62888 -1.51157,-0.95841 -1.68977,-1.10185 -3.84979,-3.09873 -0.58348,-0.53941 -1.50247,-1.37761 -2.04221,-1.86266 -2.07149,-1.86162 -4.28756,-3.87913 -4.74346,-4.31843 l -0.47547,-0.45816 -0.55919,-1.69333 c -0.30756,-0.93134 -1.5552,-4.646093 -2.77253,-8.254998 -2.6512,-7.85981 -2.66739,-7.90954 -2.83648,-8.71727 -0.0735,-0.35112 -0.2454,-1.17181 -0.382,-1.82374 -0.1366,-0.65193 -0.32278,-1.54729 -0.41374,-1.98967 -0.091,-0.44238 -0.28146,-1.35678 -0.42334,-2.03199 -0.14187,-0.67522 -0.33237,-1.58962 -0.42333,-2.032 -0.091,-0.44239 -0.28165,-1.35679 -0.42375,-2.032 -0.14209,-0.67522 -0.29431,-1.39912 -0.33824,-1.60867 -0.0439,-0.20955 -0.13918,-0.6477 -0.21163,-0.97367 -0.25761,-1.15896 -0.29609,-1.41699 -0.24434,-1.63847 0.0551,-0.23573 0.89174,-2.23419 2.36857,-5.65765 0.48562,-1.12574 0.93596,-2.19703 1.00074,-2.38065 0.0648,-0.18363 0.15794,-0.40557 0.207,-0.49321 0.0491,-0.0876 0.41657,-0.9404 0.81668,-1.89501 0.40011,-0.95462 0.77997,-1.84997 0.84413,-1.98967 0.25245,-0.54963 1.90605,-4.42729 1.90605,-4.46964 0,-0.0411 3.71125,-8.4564 4.20845,-9.54269 0.11722,-0.25612 0.28508,-0.6276 0.37301,-0.8255 0.23238,-0.52304 0.4759,-1.07091 0.65855,-1.48167 0.088,-0.19791 0.32891,-0.72178 0.53535,-1.16417 0.20643,-0.44238 0.5821,-1.27628 0.83482,-1.85311 0.27502,-0.62772 0.53455,-1.09808 0.64645,-1.17159 0.23727,-0.15585 0.67297,-0.21432 4.32596,-0.58053 2.44668,-0.24529 3.04287,-0.28184 3.2863,-0.2015 0.24305,0.0802 0.76431,0.65561 2.85308,3.14942 1.40563,1.6782 3.39008,4.04616 4.40988,5.26212 1.0198,1.21597 1.92266,2.36419 2.00635,2.5516 0.0893,0.20004 0.17608,0.67201 0.21008,1.143 0.0318,0.44124 0.0831,0.85008 0.11393,0.90852 0.0356,0.0675 0.34815,-0.25247 0.85673,-0.87697 1.03623,-1.2724 2.61361,-3.20728 4.10273,-5.03255 0.65193,-0.7991 1.29963,-1.54851 1.43933,-1.66537 0.1397,-0.11684 0.61798,-0.56065 1.06284,-0.98624 0.89962,-0.86064 1.18846,-1.13014 2.95883,-2.76085 0.67521,-0.62195 1.54227,-1.43168 1.92677,-1.79941 0.38452,-0.36773 0.8712,-0.74472 1.08151,-0.83775 l 0.38239,-0.16915 1.4585,0.17186 c 0.80217,0.0945 2.16335,0.25097 3.02483,0.34766 3.3901,0.38048 3.54271,0.4204 3.78027,0.98895 0.13582,0.32505 0.10015,0.46053 -1.57831,5.99422 -0.81808,2.69715 -1.01663,3.36706 -1.01663,3.43028 0,0.0616 0.45058,-0.0544 1.82033,-0.46877 0.41911,-0.12678 0.99061,-0.29775 1.27,-0.37993 0.27941,-0.0822 1.33118,-0.39908 2.33727,-0.70423 l 1.82927,-0.55483 8.72347,-0.34472 c 4.79791,-0.18959 8.79439,-0.31904 8.88106,-0.28767 0.0867,0.0314 3.42704,1.49866 7.42302,3.26063 3.99598,1.76197 7.28912,3.20358 7.3181,3.20358 0.029,0 0.21711,0.0762 0.41809,0.16933 0.20096,0.0931 0.53684,0.24553 0.74639,0.33867 0.20955,0.0931 0.54293,0.24264 0.74084,0.33224 0.1979,0.0896 0.58843,0.25801 0.86783,0.37424 0.81668,0.33975 1.60777,0.81299 2.30915,1.38135 0.3598,0.29157 1.02661,0.82692 1.4818,1.18965 0.45519,0.36273 1.06479,0.85059 1.35467,1.08411 0.28988,0.23353 0.75565,0.59548 1.03505,0.80434 0.2794,0.20885 0.83685,0.64644 1.23877,0.9724 0.40193,0.32597 1.04381,0.84032 1.42641,1.143 0.38259,0.30268 0.93603,0.74083 1.22985,0.97367 0.29382,0.23283 0.7118,0.55668 0.92885,0.71967 0.98622,0.74056 0.98172,0.73321 1.86631,3.04799 0.16905,0.44239 0.54909,1.41394 0.84451,2.159 0.29543,0.74507 0.67517,1.71662 0.84387,2.159 0.1687,0.44239 0.41789,1.07104 0.55376,1.397 0.13587,0.32597 0.38478,0.95462 0.55313,1.397 0.16836,0.44239 0.54782,1.41394 0.84324,2.159 0.29543,0.74507 0.67517,1.71662 0.84387,2.159 0.1687,0.44239 0.41786,1.07104 0.55369,1.397 0.13584,0.32597 0.48253,1.20227 0.77043,1.94734 0.2879,0.74506 0.68718,1.76028 0.8873,2.25604 0.20012,0.49575 0.42275,1.18155 0.49473,1.524 0.072,0.34244 0.17221,0.76847 0.22272,0.94673 0.0505,0.17827 0.14338,0.55927 0.2064,0.84667 0.063,0.28741 0.59748,2.52281 1.1877,4.96755 0.59023,2.44476 1.10804,4.6156 1.15068,4.82409 0.0426,0.20851 0.1505,0.66571 0.2397,1.016 0.5863,2.30255 0.77753,3.220705 0.71418,3.428975 -0.067,0.22029 -1.11114,1.980873 -1.30669,2.203273 -0.0819,0.0931 -0.59402,0.91229 -1.13808,1.82034 -0.54406,0.90804 -1.05658,1.7272 -1.13893,1.82033 -0.0824,0.0931 -0.47837,0.72178 -0.88002,1.397 l -0.73028,1.22767 -5.73738,5.72946 c -5.35344,5.34603 -5.76572,5.73798 -6.16072,5.85681 -0.23284,0.07 -1.14724,0.38135 -2.032,0.69176 -0.88477,0.31042 -1.76107,0.61504 -1.94734,0.67694 -0.6057,0.20128 -3.97255,1.37672 -4.22132,1.47375 -0.1331,0.0519 -0.8189,0.20724 -1.524,0.34518 -0.70511,0.13794 -1.47251,0.29053 -1.70534,0.33909 -0.48416,0.101 -2.23597,0.4402 -4.572,0.88528 -0.88477,0.16857 -1.76107,0.3417 -1.94734,0.38472 -0.18627,0.043 -1.06256,0.21484 -1.94733,0.3818 -0.88477,0.16696 -1.95157,0.37616 -2.37067,0.46487 -0.4191,0.0887 -1.4859,0.29791 -2.37067,0.46487 -0.88476,0.16697 -1.76106,0.33882 -1.94733,0.3819 -0.18627,0.0431 -0.9732,0.19981 -1.74874,0.34829 l -1.41007,0.26998 -0.33484,-0.16567 c -0.3331,-0.1648 -0.38786,-0.16445 -10.59864,0.0684 l -10.26381,0.23406 -1.62262,0.54415 c -1.8955,0.63566 -11.01494,3.6366 -12.37528,4.07235 -0.61761,0.19783 -1.30209,0.34213 -2.032,0.42839 -0.60536,0.0715 -1.59596,0.18798 -2.20133,0.25876 -0.60537,0.0708 -2.33892,0.27832 -3.85233,0.4612 -1.51342,0.18287 -3.07552,0.37 -3.47134,0.41585 -0.39581,0.0458 -1.37911,0.16138 -2.18511,0.25674 -1.57089,0.18587 -1.51977,0.18244 -1.70955,0.11467 z m 2.48649,-2.0595 c 2.42684,-0.29146 3.82237,-0.4601 5.21817,-0.6306 0.53552,-0.0654 2.19287,-0.25781 3.683,-0.42754 1.58082,-0.18005 2.93857,-0.37791 3.25967,-0.47503 0.30268,-0.0916 2.79823,-0.90671 5.54566,-1.81148 2.74743,-0.90479 5.75734,-1.89534 6.68867,-2.20126 1.38892,-0.45622 1.74661,-0.60672 1.98967,-0.83718 0.16298,-0.15454 2.42993,-1.5487 5.03766,-3.09813 2.60774,-1.54942 5.34386,-3.18339 6.08027,-3.63102 5.4394,-3.30637 12.15802,-7.30094 12.5185,-7.44289 0.28193,-0.11103 0.34082,-0.10769 0.635,0.036 0.24613,0.12022 0.35303,0.24165 0.44377,0.5041 0.10862,0.31416 0.10475,0.37577 -0.0423,0.67429 -0.14605,0.29647 -0.42686,0.48592 -2.87581,1.94025 -1.49267,0.88645 -4.82642,2.86606 -7.40833,4.39916 -2.58191,1.53308 -4.77059,2.85081 -4.86372,2.92826 -0.0931,0.0775 -1.47661,0.91861 -3.07438,1.86923 l -2.90506,1.7284 0.49206,0.0244 c 0.27063,0.0134 4.61592,-0.0713 9.65622,-0.18822 5.0403,-0.11693 9.21776,-0.19203 9.28326,-0.1669 0.10343,0.0397 1.83048,-0.2762 5.5979,-1.02392 0.5588,-0.1109 2.21615,-0.43346 3.683,-0.7168 1.46685,-0.28333 2.9337,-0.56987 3.25967,-0.63676 0.32596,-0.0669 1.88806,-0.37144 3.47133,-0.6768 3.5764,-0.68976 3.40182,-0.64521 5.79967,-1.48011 1.09431,-0.38103 2.25636,-0.78308 2.58233,-0.89343 0.32596,-0.11036 1.25942,-0.43206 2.07433,-0.71489 l 1.48167,-0.51423 2.24367,-2.2504 c 1.23401,-1.23773 2.16746,-2.22899 2.07433,-2.20282 -0.0931,0.0262 -2.21919,0.50925 -4.72456,1.07347 l -4.55524,1.02587 -10.87148,-3.22439 c -8.63772,-2.56186 -10.96876,-3.22438 -11.34485,-3.22438 -0.402,0 -1.66277,-0.16983 -4.3602,-0.58733 -0.30269,-0.0469 -1.48379,-0.22148 -2.62467,-0.38808 -3.06979,-0.44826 -6.56231,-0.96306 -7.25564,-1.06949 -0.72695,-0.1116 -0.94021,-0.292 -1.05463,-0.89217 -0.072,-0.37747 -0.48584,-2.71143 -1.09087,-6.151643 -0.13798,-0.78451 -0.25086,-1.530335 -0.25086,-1.657405 0,-0.36274 0.16912,-0.48145 2.24366,-1.57485 0.41911,-0.22089 0.95251,-0.50527 1.18534,-0.63198 0.23283,-0.12669 0.72813,-0.39383 1.10066,-0.59364 0.37254,-0.19982 0.82974,-0.44663 1.016,-0.54848 2.22632,-1.2173 2.93029,-1.56826 3.14568,-1.56826 0.13627,0 0.45577,0.0541 0.71004,0.12028 0.47277,0.12301 6.74506,1.63282 9.56395,2.30215 3.22908,0.76673 3.01575,0.69099 5.47203,1.94274 1.25123,0.63764 2.61787,1.340535 3.03697,1.561975 0.4191,0.22145 1.524,0.79281 2.45534,1.2697 4.35126,2.228053 5.17063,2.651693 5.25201,2.715443 0.0697,0.0547 6.38432,1.89228 10.73398,3.12375 l 0.83066,0.23517 2.25967,-0.79684 c 1.24282,-0.43826 3.40268,-1.20005 4.79968,-1.69286 1.397,-0.4928 2.75011,-0.96943 3.00692,-1.05917 0.4474,-0.15635 0.48812,-0.1967 0.97367,-0.96495 1.48743,-2.353433 1.8077,-2.885253 1.81313,-3.010713 0.005,-0.10893 -2.85211,-12.211995 -3.33494,-14.128675 -0.0645,-0.25612 -0.1804,-0.73237 -0.2575,-1.05834 -0.0771,-0.32597 -0.27504,-0.93557 -0.43989,-1.35467 -0.16484,-0.41909 -0.3872,-0.99059 -0.49411,-1.26999 -0.10692,-0.2794 -0.34554,-0.889 -0.53028,-1.35467 -0.48927,-1.23335 -0.86555,-2.18856 -1.50082,-3.81 -0.31016,-0.79163 -0.71613,-1.82033 -0.90216,-2.286 -0.18603,-0.46566 -0.42572,-1.07526 -0.53264,-1.35466 -0.10692,-0.2794 -0.32959,-0.8509 -0.49483,-1.27 -0.16525,-0.4191 -0.55422,-1.4097 -0.86437,-2.20134 -0.31016,-0.79163 -0.70833,-1.80128 -0.88482,-2.24366 -0.1765,-0.44239 -0.46271,-1.16629 -0.63602,-1.60867 -0.17331,-0.44238 -0.37119,-0.94069 -0.43972,-1.10735 -0.071,-0.17267 -0.30773,-0.44581 -0.55034,-0.635 -0.23414,-0.18259 -0.66485,-0.52248 -0.95712,-0.75532 -0.29227,-0.23283 -0.82535,-0.65193 -1.18462,-0.93133 -0.35927,-0.2794 -0.91272,-0.71755 -1.22988,-0.97367 -0.31716,-0.25611 -0.87061,-0.69426 -1.22987,-0.97366 -0.35928,-0.2794 -0.89229,-0.6985 -1.18447,-0.93134 -0.2922,-0.23283 -1.11106,-0.88053 -1.8197,-1.43933 -0.70865,-0.5588 -1.46512,-1.15982 -1.68104,-1.3356 -0.37615,-0.30621 -0.62582,-0.44283 -1.51442,-0.82871 -0.22119,-0.0961 -0.57361,-0.25365 -0.78316,-0.35022 -0.20956,-0.0966 -0.5334,-0.24139 -0.71967,-0.3218 -0.18627,-0.0804 -0.51012,-0.22438 -0.71967,-0.31993 -0.20955,-0.0955 -3.64022,-1.60647 -7.62371,-3.35762 l -7.24272,-3.18393 -8.54762,0.34033 c -6.74714,0.26865 -8.63679,0.36803 -8.97095,0.47182 -0.23283,0.0723 -0.72813,0.22163 -1.10067,0.33182 -0.37253,0.11019 -1.13453,0.3381 -1.69333,0.50648 -0.5588,0.16838 -1.33985,0.40248 -1.73566,0.52023 -0.39582,0.11774 -0.81492,0.2474 -0.93134,0.28812 -0.23906,0.0836 -1.41038,0.43277 -2.12606,0.63376 -0.52603,0.14772 -1.10389,0.50701 -4.22339,2.6259 -1.16546,0.79164 -2.43742,1.64888 -2.82656,1.905 -0.38915,0.25612 -1.44055,0.96097 -2.33644,1.56633 -0.89589,0.60537 -1.88773,1.27212 -2.20409,1.48167 -0.31636,0.20955 -1.30671,0.8763 -2.20079,1.48167 -1.93346,1.30911 -2.54357,1.7175 -3.43615,2.30009 -1.12924,0.73705 -1.26966,0.86341 -2.90005,2.60955 -0.86908,0.93077 -1.71348,1.82906 -1.87647,1.99621 -0.16298,0.16715 -0.79087,0.83436 -1.39529,1.48269 -1.07887,1.15723 -1.5014,1.60715 -2.9293,3.11924 -0.39219,0.41532 -0.77022,0.81664 -0.84007,0.89183 -1.39558,1.50231 -3.69118,3.95531 -4.28111,4.57466 -0.42209,0.44315 -1.06896,1.12958 -1.4375,1.52539 -0.36854,0.39582 -0.70147,0.7422 -0.73984,0.76974 -0.0384,0.0275 -0.24055,0.75144 -0.44927,1.60867 -1.53951,6.32263 -1.64599,6.71406 -1.89533,6.96764 -0.46664,0.47456 -1.33655,0.21277 -1.47104,-0.4427 -0.0268,-0.13074 0.12782,-0.93448 0.36909,-1.91835 1.20896,-4.92977 1.5231,-6.23444 1.52408,-6.32979 0.005,-0.46255 0.77148,-1.36605 4.36373,-5.14254 0.33221,-0.34925 0.88884,-0.9398 1.23696,-1.31233 0.34811,-0.37254 1.29535,-1.38219 2.10497,-2.24367 0.80963,-0.86148 1.7044,-1.81398 1.98837,-2.11667 0.28398,-0.30268 0.85718,-0.91301 1.27377,-1.35628 0.4166,-0.44327 1.2718,-1.35676 1.90045,-2.02998 0.62865,-0.67322 1.43495,-1.52974 1.79178,-1.90339 0.35683,-0.37364 0.73428,-0.7882 0.83878,-0.92125 0.10449,-0.13303 0.45682,-0.41878 0.78294,-0.63499 1.10096,-0.7299 1.72859,-1.15129 3.35983,-2.25577 1.85095,-1.25325 2.50469,-1.69108 3.39428,-2.27325 0.34506,-0.22583 0.68973,-0.45442 0.76592,-0.508 0.32997,-0.23204 3.43928,-2.33317 3.96556,-2.67975 0.3182,-0.20955 1.30826,-0.8763 2.20012,-1.48167 1.7305,-1.17459 2.39185,-1.61735 3.40243,-2.2778 0.61611,-0.40267 0.63965,-0.43065 0.78342,-0.93134 0.22559,-0.78567 0.64554,-2.18339 0.72745,-2.42119 0.0401,-0.11642 0.36518,-1.20227 0.72239,-2.413 0.35721,-1.21073 0.7597,-2.56051 0.89442,-2.99949 0.13471,-0.43899 0.23579,-0.80556 0.22463,-0.8146 -0.0112,-0.009 -0.61083,-0.0828 -1.33262,-0.16388 -0.72178,-0.0811 -2.05528,-0.23252 -2.96333,-0.33651 l -1.651,-0.18908 -0.55223,0.51611 c -1.62995,1.52335 -2.16413,2.0208 -4.57011,4.25583 -0.90805,0.84353 -1.91769,1.86448 -2.24366,2.26878 -0.32597,0.4043 -1.16417,1.43402 -1.86267,2.28827 -0.6985,0.85425 -1.79139,2.19444 -2.42865,2.97821 -0.63726,0.78376 -1.49307,1.83549 -1.90179,2.33717 -0.58012,0.71206 -0.80974,0.9321 -1.04675,1.00312 -0.4286,0.1284 -0.89444,-0.0727 -1.0542,-0.45504 -0.0684,-0.16376 -0.18131,-1.11 -0.26983,-2.26187 l -0.15219,-1.98031 -2.93951,-3.51969 c -2.47079,-2.95847 -3.51127,-4.20108 -5.18634,-6.19389 l -0.18398,-0.21888 -2.70538,0.27988 c -1.48796,0.15394 -2.78538,0.28101 -2.88316,0.28238 -0.14675,0.002 -0.27049,0.21306 -0.70901,1.20899 -0.29217,0.66357 -0.66298,1.49225 -0.82402,1.8415 -0.40337,0.87482 -0.61458,1.33828 -0.79099,1.73566 -0.0827,0.18627 -0.26491,0.58632 -0.40496,0.88901 -0.49443,1.0686 -4.24757,9.58305 -4.24757,9.6361 0,0.0448 -1.44685,3.45408 -1.82125,4.29156 -0.0625,0.1397 -0.44451,1.03505 -0.849,1.98967 -1.65884,3.91488 -2.68697,6.3267 -2.83326,6.64633 -0.0852,0.18627 -0.44272,1.01378 -0.79438,1.83893 l -0.63938,1.50026 0.17056,0.78574 c 0.33083,1.524 0.68015,3.16081 0.75493,3.5374 0.0416,0.20955 0.23183,1.12395 0.4227,2.032 0.19086,0.90805 0.38136,1.82245 0.42333,2.032 0.042,0.20955 0.23188,1.12395 0.42204,2.032 0.19015,0.90805 0.44293,2.12725 0.56173,2.70933 0.22475,1.10124 0.32753,1.41785 3.84784,11.85334 1.17031,3.469218 2.14693,6.371038 2.17027,6.448498 0.0392,0.12991 0.98512,1.01556 3.36762,3.15291 0.51402,0.46113 0.95363,0.86123 0.97692,0.88912 0.0233,0.0279 0.42333,0.39233 0.88899,0.80989 0.46567,0.41756 1.09465,0.98901 1.39774,1.26989 2.31428,2.14473 2.40311,2.21541 4.81218,3.82935 2.26,1.51406 2.43768,1.61687 2.59542,1.50155 0.0931,-0.0681 0.26458,-0.16929 0.381,-0.2249 0.11642,-0.0556 1.33087,-1.03611 2.69879,-2.17888 6.0499,-5.05414 5.45913,-4.52824 5.59869,-4.98383 0.0382,-0.12463 0.19158,-0.55045 0.34091,-0.94626 0.14933,-0.39582 0.39734,-1.06257 0.55113,-1.48167 0.1538,-0.4191 0.40037,-1.08585 0.54795,-1.48167 0.14757,-0.39582 0.29956,-0.81492 0.33775,-0.93133 0.0382,-0.11642 0.17132,-0.47837 0.29585,-0.80433 0.12451,-0.32597 0.37979,-1.01177 0.56728,-1.524 0.5792,-1.582473 0.64324,-1.756353 0.9201,-2.497673 0.14783,-0.395815 0.39461,-1.062565 0.54841,-1.481665 0.15379,-0.4191 0.40036,-1.08585 0.54793,-1.48166 0.14758,-0.39582 0.29957,-0.81492 0.33776,-0.93134 0.0382,-0.11641 0.16262,-0.45931 0.27649,-0.762 0.53618,-1.42505 0.81166,-2.17366 0.85912,-2.33459 0.0285,-0.0966 0.16363,-0.28276 0.30033,-0.41372 0.49399,-0.47327 1.33988,-0.20062 1.47511,0.47546 0.0486,0.24312 0.002,0.39505 -0.71479,2.33635 -0.0903,0.24448 -0.24383,0.66358 -0.34121,0.93133 -0.0974,0.26776 -0.22972,0.62019 -0.29406,0.78317 -0.0644,0.16298 -0.31066,0.82974 -0.54736,1.48167 -0.2367,0.65193 -0.50209,1.375825 -0.58975,1.608665 -0.0877,0.23283 -0.41198,1.10913 -0.7207,1.947333 -0.81991,2.22613 -0.87132,2.36603 -1.06546,2.89983 -0.0974,0.26776 -0.22972,0.62019 -0.29406,0.78317 -0.0643,0.16298 -0.31065,0.82973 -0.54736,1.48167 -0.44119,1.21514 -0.49411,1.35812 -1.09966,2.97074 l -0.35251,0.93875 -1.15094,0.96625 c -1.23908,1.04026 -2.60147,2.17464 -3.34669,2.78659 -1.11049,0.91189 -4.03611,3.40214 -4.46172,3.79775 -0.47066,0.43748 -1.00099,0.72451 -3.937,2.13088 -2.60074,1.24578 -3.24766,1.55756 -4.48733,2.16273 l -1.27,0.61998 -0.22444,0.57616 c -0.42261,1.08489 -0.94151,2.43877 -1.12943,2.94683 -0.10335,0.2794 -0.32422,0.86995 -0.49082,1.31233 -0.1666,0.44239 -0.32375,0.89959 -0.34923,1.016 -0.0445,0.20324 0.0792,0.27444 3.1058,1.78775 1.73366,0.86683 3.16614,1.58121 3.18328,1.5875 0.0171,0.006 0.98868,-0.10357 2.159,-0.24413 z m 69.64951,-37.902388 c -0.0698,-0.0245 -0.41276,-0.17691 -0.762,-0.33864 -0.34925,-0.16174 -0.7874,-0.36468 -0.97367,-0.45099 -0.18627,-0.0863 -0.71385,-0.33361 -1.17241,-0.54957 -0.46984,-0.22128 -0.89254,-0.37008 -0.96847,-0.34094 -0.11982,0.046 -0.86641,0.20843 -4.72327,1.02776 -1.20291,0.25555 -1.07281,0.28964 -2.54503,-0.66694 -0.51839,-0.33682 -1.17686,-0.76481 -1.46327,-0.95107 -0.28641,-0.18627 -0.81478,-0.53529 -1.17415,-0.77561 -0.35937,-0.24032 -0.9963,-0.65024 -1.4154,-0.91094 -1.18639,-0.738 -1.67897,-1.10083 -1.86267,-1.37203 -0.0931,-0.1375 -0.75584,-2.02016 -1.4727,-4.18371 -0.71685,-2.16354 -1.30992,-3.94259 -1.31794,-3.95343 -0.008,-0.0109 -0.77404,-0.17396 -1.70229,-0.36247 -7.66181,-1.55599 -7.7077,-1.56593 -7.94057,-1.7185 -0.31801,-0.20837 -0.44509,-0.70229 -0.28145,-1.09393 0.14344,-0.34329 0.35093,-0.47319 1.32234,-0.82778 1.02031,-0.37244 3.38733,-1.26294 3.94194,-1.48301 0.27941,-0.11086 0.88901,-0.34225 1.35467,-0.51419 0.46567,-0.17195 1.09432,-0.40581 1.397,-0.51969 0.30269,-0.11388 0.64559,-0.23777 0.762,-0.27531 0.11642,-0.0376 0.57362,-0.20842 1.016,-0.37971 1.41433,-0.54767 1.71618,-0.6277 2.70934,-0.71835 1.71738,-0.15675 4.58763,-0.42332 5.49195,-0.51004 1.16551,-0.11178 1.29888,-0.0492 2.27098,1.06569 0.41034,0.4706 1.28091,1.4612 1.93461,2.20133 3.13169,3.54572 3.66519,4.17772 3.75297,4.44586 0.0516,0.15757 0.17279,0.81988 0.26937,1.47182 0.2817,1.90174 0.84358,5.72397 0.90163,6.13356 0.0652,0.45962 0.0899,0.495 3.10355,4.43899 0.35129,0.45974 0.66192,0.94156 0.69029,1.07073 0.13755,0.62625 -0.54766,1.25019 -1.14335,1.04111 z m -8.29678,-7.36386 c 0.24992,-0.21029 0.26481,-0.25353 0.22588,-0.65616 -0.0528,-0.54637 -0.38219,-1.97276 -0.51986,-2.25138 -0.0928,-0.18786 -0.3359,-0.90682 -0.56018,-1.65701 -0.0428,-0.143 -0.0777,-0.32236 -0.0777,-0.39855 0,-0.12247 -0.58212,-0.64274 -1.5139,-1.35303 -0.16854,-0.12848 -0.43978,-0.35127 -0.60277,-0.49508 -0.16298,-0.14381 -0.43223,-0.33118 -0.59833,-0.41638 -0.1661,-0.0852 -0.35174,-0.21483 -0.41253,-0.28809 -0.0608,-0.0733 -0.1585,-0.13319 -0.21712,-0.13319 -0.12624,0 -0.29625,0.61838 -0.29547,1.07466 0,0.17729 -0.0795,0.95846 -0.17742,1.73593 l -0.178,1.41358 0.50014,0.87242 c 0.27509,0.47983 0.5246,0.93755 0.55448,1.01718 0.0678,0.1806 0.71774,0.65863 0.90045,0.66226 0.0745,0.001 0.20942,0.0586 0.29981,0.127 0.0904,0.0684 0.21506,0.1243 0.27704,0.1243 0.062,0 0.36901,0.1214 0.68232,0.26977 0.85571,0.40524 1.23616,0.56693 1.34631,0.57217 0.0546,0.003 0.21973,-0.0966 0.36688,-0.2204 z m -16.58047,-12.50149 c -0.11113,-0.1183 -0.18409,-0.30512 -0.18409,-0.47141 0,-0.27226 0.29261,-0.73066 2.95192,-4.6243 0.34985,-0.51223 0.94321,-1.38853 1.31858,-1.94733 0.67165,-0.99985 0.6926,-1.02105 1.3175,-1.33351 1.44022,-0.72012 3.02171,-1.43597 3.25967,-1.47547 0.1397,-0.0232 1.0541,0.0571 2.032,0.1784 0.9779,0.12131 2.13995,0.26113 2.58233,0.31072 0.88993,0.0998 1.11044,0.18148 1.74646,0.64727 1.33383,0.97681 2.22808,1.62541 2.64831,1.92081 0.26046,0.18309 0.65149,0.46884 0.86896,0.635 0.21748,0.16616 0.6461,0.48309 0.9525,0.70428 1.08534,0.78349 1.67723,1.21299 2.42108,1.75683 0.414,0.30268 0.99254,0.72178 1.28563,0.93133 0.92832,0.66371 1.25306,1.00278 1.25306,1.30836 0,0.34959 -0.29864,0.63898 -0.65942,0.63898 -0.23472,0 -1.06803,-0.28848 -1.83824,-0.63637 -0.47063,-0.21259 -3.93904,-1.64963 -3.98149,-1.64963 -0.0231,0 -0.20354,-0.0738 -0.40094,-0.16394 -0.1974,-0.0902 -0.60656,-0.26525 -0.90924,-0.38907 -0.30268,-0.12382 -0.66463,-0.27566 -0.80433,-0.33742 -0.51561,-0.22796 -2.32829,-0.97224 -2.36786,-0.97224 -0.0225,0 -0.27999,-0.10772 -0.57219,-0.23938 -0.2922,-0.13166 -0.75989,-0.32993 -1.03929,-0.4406 -0.2794,-0.11067 -0.59913,-0.24793 -0.71052,-0.30502 -0.16363,-0.0839 -0.23724,-0.0811 -0.38321,0.0146 -0.0994,0.0651 -0.97574,0.39102 -1.94748,0.72425 -1.40139,0.48056 -1.85619,0.6749 -2.19911,0.93976 -0.45752,0.35335 -1.54548,1.17699 -1.93363,1.46383 -0.1272,0.094 -0.6987,0.52957 -1.27,0.96793 -2.65032,2.03361 -2.65861,2.03932 -2.96251,2.03932 -0.19403,0 -0.35143,-0.065 -0.47445,-0.19596 z"
       id="path179" /></g></svg>
